<svg width="263" height="72" viewBox="0 0 263 72" fill="none" xmlns="http://www.w3.org/2000/svg">
<path d="M241.194 68.1159H10.818C5.75231 68.1159 2.30767 63.9153 3.11817 58.7302L10.3452 12.5897C11.1557 7.40462 15.9222 3.2041 20.9782 3.2041H251.354C256.42 3.2041 259.864 7.40462 259.054 12.5897L251.827 58.7302C251.016 63.9153 246.25 68.1159 241.194 68.1159Z" fill="#127BC0" stroke="white" stroke-width="6" stroke-miterlimit="10"/>
<path d="M43.9352 22.0665L41.8952 32.5865H50.3352L52.3752 22.0665H60.6152L55.0952 50.6665H46.8552L49.0152 39.4265H40.5752L38.4152 50.6665H30.1752L35.6952 22.0665H43.9352ZM73.2565 51.3465C65.8165 51.3465 59.8565 47.2265 59.9365 38.7065C60.0165 29.3865 66.2565 21.5465 75.6965 21.5465C83.5765 21.5465 88.7365 26.1065 88.7365 34.5065C88.7365 43.6665 82.5365 51.3065 73.2565 51.3465ZM68.2165 38.7065C68.2165 41.9465 69.6965 44.7065 73.3765 44.7065C78.2965 44.7065 80.4565 39.1865 80.4565 34.4665C80.4565 30.9465 79.1365 28.1865 75.4165 28.1865C70.4165 28.2265 68.2165 34.0665 68.2165 38.7065ZM88.0658 50.6665L93.5858 22.0665H104.186L105.506 38.0665H105.586L112.906 22.0665H123.826L118.306 50.6665H110.866L114.346 32.7465H114.266L106.186 50.6665H100.146L98.8658 32.7465H98.7858L95.3058 50.6665H88.0658ZM121.66 50.6665L127.18 22.0665H148.78L147.46 28.7865H134.1L133.38 32.7865H144.58L143.38 38.9865H132.14L131.26 43.5865H145.18L143.82 50.6665H121.66Z" fill="white"/>
</svg>
