<svg width="279" height="72" viewBox="0 0 279 72" fill="none" xmlns="http://www.w3.org/2000/svg">
<path d="M256.059 68.2214H11.3058C5.92407 68.2214 2.26446 64.0208 3.12554 58.8357L10.8035 12.6952C11.6646 7.51012 16.7286 3.30957 22.1002 3.30957H266.853C272.235 3.30957 275.895 7.51012 275.033 12.6952L267.355 58.8357C266.494 64.0099 261.441 68.2214 256.059 68.2214Z" fill="#E11E2F" stroke="white" stroke-width="6" stroke-miterlimit="10"/>
<path d="M40.2817 48.553C34.3617 48.553 27.4417 46.553 27.5617 38.753H36.0017C36.0417 40.993 37.8817 42.153 40.5217 42.153C42.4017 42.153 44.2417 41.673 44.2417 39.713C44.2017 38.313 42.1617 37.713 39.1617 36.673C34.0017 34.873 30.5217 32.953 30.5217 28.153C30.5217 21.833 35.5617 18.753 41.9617 18.753C47.2817 18.753 53.6417 20.593 53.3617 27.473H45.2417C45.1617 25.793 43.8017 24.873 41.7217 24.873C40.2017 24.873 38.5217 25.473 38.5217 26.913C38.5217 28.473 40.3617 28.713 44.9217 30.273C48.9617 31.673 52.7617 33.553 52.7617 38.473C52.7617 45.393 46.6817 48.553 40.2817 48.553ZM67.7104 48.553C59.8304 48.553 54.4704 44.233 54.4704 35.833C54.4704 26.633 60.5904 18.753 70.0304 18.753C73.7104 18.753 76.3504 19.473 78.3104 20.953C80.9904 22.953 82.2704 26.033 82.4304 29.873H74.1504C74.1104 27.393 72.8304 25.593 69.9104 25.593C64.9504 25.593 62.8704 30.873 62.8704 35.633C62.8704 38.873 64.1504 41.753 67.7504 41.753C70.3904 41.753 72.4304 40.233 73.1104 37.233H81.5104C80.0704 45.033 74.1504 48.553 67.7104 48.553ZM96.0726 48.553C88.6326 48.553 82.6726 44.433 82.7526 35.913C82.8326 26.593 89.0726 18.753 98.5126 18.753C106.393 18.753 111.553 23.313 111.553 31.713C111.553 40.873 105.353 48.513 96.0726 48.553ZM91.0326 35.913C91.0326 39.153 92.5126 41.913 96.1926 41.913C101.113 41.913 103.273 36.393 103.273 31.673C103.273 28.153 101.953 25.393 98.2326 25.393C93.2326 25.433 91.0326 31.273 91.0326 35.913ZM124.642 37.873H121.042L119.122 47.873H110.882L116.402 19.273H128.522C134.082 19.273 138.682 21.673 138.682 26.953C138.682 31.233 136.682 33.473 132.922 34.753V34.873C135.042 35.753 136.162 37.633 136.162 40.713C136.162 41.993 136.082 43.993 136.122 45.473C136.122 46.553 136.362 47.193 136.682 47.433V47.873H128.362C128.122 47.513 128.042 46.753 128.042 46.033C128.042 44.913 128.162 43.153 128.162 41.633C128.162 39.273 127.362 37.873 124.642 37.873ZM123.402 25.753L122.202 31.993H126.602C128.682 31.993 130.442 30.953 130.442 28.513C130.442 26.793 129.402 25.753 127.242 25.753H123.402ZM138.069 47.873L143.589 19.273H165.189L163.869 25.993H150.509L149.789 29.993H160.989L159.789 36.193H148.549L147.669 40.793H161.589L160.229 47.873H138.069ZM175.711 48.553C169.791 48.553 162.871 46.553 162.991 38.753H171.431C171.471 40.993 173.311 42.153 175.951 42.153C177.831 42.153 179.671 41.673 179.671 39.713C179.631 38.313 177.591 37.713 174.591 36.673C169.431 34.873 165.951 32.953 165.951 28.153C165.951 21.833 170.991 18.753 177.391 18.753C182.711 18.753 189.071 20.593 188.791 27.473H180.671C180.591 25.793 179.231 24.873 177.151 24.873C175.631 24.873 173.951 25.473 173.951 26.913C173.951 28.473 175.791 28.713 180.351 30.273C184.391 31.673 188.191 33.553 188.191 38.473C188.191 45.393 182.111 48.553 175.711 48.553Z" fill="white"/>
</svg>
