<svg width="303" height="72" viewBox="0 0 303 72" fill="none" xmlns="http://www.w3.org/2000/svg">
<path d="M278.751 68.8977H12.0507C6.18632 68.8977 2.19854 64.6971 3.13684 59.512L11.5033 13.3715C12.4416 8.18642 17.9597 3.98584 23.813 3.98584H290.514C296.378 3.98584 300.366 8.18642 299.427 13.3715L291.061 59.512C290.123 64.6971 284.605 68.8977 278.751 68.8977Z" fill="#FFD55A" stroke="white" stroke-width="6" stroke-miterlimit="10"/>
<path d="M26.8015 49.6431L32.3215 21.0431H43.8015C48.0015 21.0431 50.4815 22.0031 52.1215 23.6831C53.5615 25.1631 54.5215 27.2431 54.5215 29.9631C54.5215 36.7231 49.8015 40.8831 43.4015 40.8831H36.7215L35.0415 49.6431H26.8015ZM39.2415 27.8831L37.9615 34.4831H42.4815C44.5615 34.4831 46.3215 33.1631 46.3215 30.6431C46.3215 28.7631 45.2815 27.8831 43.2815 27.8831H39.2415ZM52.8953 49.6431L58.4153 21.0431H66.6553L62.4953 42.5631H74.3353L72.9753 49.6431H52.8953ZM94.4278 49.6431L93.8278 45.4031H84.2678L82.1478 49.6431H73.8278L89.3878 21.0431H97.7478L103.028 49.6431H94.4278ZM90.0278 34.0031L87.1478 39.7231H93.0278L92.2278 34.0031C92.0278 32.6031 91.8278 30.3231 91.8278 30.3231H91.7478C91.7478 30.3231 90.7078 32.6031 90.0278 34.0031ZM107.685 49.6431L109.605 39.5231L103.565 21.0431H112.365L114.045 27.4031C114.685 29.6031 115.045 32.0431 115.045 32.0431H115.125C115.125 32.0431 116.525 29.6031 117.965 27.4031L122.085 21.0431H130.965L117.805 39.8431L115.925 49.6431H107.685Z" fill="white"/>
</svg>
