<svg width="539" height="211" viewBox="0 0 539 211" fill="none" xmlns="http://www.w3.org/2000/svg">
<path d="M539.347 210.706L0.242188 210.704L57.8887 0.742188L539.356 0.738281L539.347 210.706Z" fill="#2D5FA8"/>
<path d="M380.855 110.738L380.055 104.618H370.175L367.295 110.738H361.495L376.135 82.1383H382.055L386.775 110.738H380.855ZM376.135 92.0983L372.255 100.218H379.495L378.495 92.1783C378.295 90.5383 378.135 87.6183 378.135 87.6183H378.055C378.055 87.6183 376.855 90.5783 376.135 92.0983ZM397.2 111.338C392.2 111.338 388.04 108.538 388.04 102.258C388.04 95.9383 392.24 89.6583 399.24 89.6583C403.8 89.6583 407.48 91.8183 407.76 97.1783H402.52C402.32 95.2183 401.24 93.9783 399.08 93.9783C395.12 93.9783 393.4 98.4983 393.4 102.418C393.4 105.058 394.56 107.018 397.52 107.018C399.52 107.018 401.08 105.938 401.8 103.498H407C405.88 108.418 402.24 111.338 397.2 111.338ZM409.397 93.8183L410.077 90.2183H412.677L413.917 83.8183H419.157L417.917 90.2183H421.357L420.677 93.8183H417.237L415.157 104.498C414.837 106.098 415.357 106.738 416.677 106.738C417.277 106.738 418.277 106.658 418.277 106.658L417.517 110.658C417.517 110.658 416.157 110.778 415.077 110.778C410.917 110.778 408.957 109.258 409.797 105.018L411.997 93.8183H409.397ZM420.167 110.738L424.127 90.2183H429.487L425.527 110.738H420.167ZM424.767 87.0183L425.687 82.1383H431.047L430.127 87.0183H424.767ZM434.481 110.738L431.081 90.2183H436.521L437.801 100.578C438.081 102.818 438.161 104.258 438.161 104.258H438.241C438.241 104.258 438.761 102.818 439.721 100.858L444.681 90.2183H450.041L439.601 110.738H434.481ZM447.863 110.738L451.823 90.2183H457.183L453.223 110.738H447.863ZM452.463 87.0183L453.383 82.1383H458.743L457.823 87.0183H452.463ZM458.772 93.8183L459.452 90.2183H462.052L463.292 83.8183H468.532L467.292 90.2183H470.732L470.052 93.8183H466.612L464.532 104.498C464.212 106.098 464.732 106.738 466.052 106.738C466.652 106.738 467.652 106.658 467.652 106.658L466.892 110.658C466.892 110.658 465.532 110.778 464.452 110.778C460.292 110.778 458.332 109.258 459.172 105.018L461.372 93.8183H458.772ZM469.302 117.458L470.142 113.218H471.862C474.142 113.218 475.422 111.978 475.422 109.418C475.422 108.418 475.182 106.898 474.742 104.818L471.782 90.2183H477.382L478.782 99.5383C479.062 101.418 479.382 104.178 479.382 104.178H479.462C479.462 104.178 480.462 101.458 481.342 99.5383L485.582 90.2183H491.022L480.422 111.738C478.382 115.858 476.622 117.458 472.662 117.458H469.302ZM251.271 158.738L256.791 130.138H268.271C270.631 130.138 272.711 130.698 274.191 131.898C275.591 133.018 276.431 134.738 276.431 137.058C276.431 140.418 274.511 142.778 271.151 143.738V143.858C274.071 144.658 275.591 146.658 275.551 149.818C275.551 152.138 274.671 154.138 272.911 155.818C270.951 157.698 268.351 158.738 264.471 158.738H251.271ZM259.471 145.938L257.911 153.978H264.511C267.671 153.978 269.751 152.578 269.751 149.578C269.751 147.138 268.111 145.938 265.711 145.938H259.471ZM260.311 141.698H266.231C268.591 141.698 270.871 140.938 270.871 137.818C270.871 136.018 269.871 134.818 267.511 134.818H261.631L260.311 141.698ZM287.213 159.338C281.853 159.338 277.573 156.058 277.573 149.778C277.573 143.298 282.133 137.658 289.133 137.658C294.373 137.658 298.613 140.938 298.613 147.018C298.613 153.578 294.213 159.338 287.213 159.338ZM282.933 150.098C282.933 152.898 284.173 155.298 287.333 155.298C291.493 155.298 293.253 150.778 293.253 146.858C293.253 144.178 292.013 141.698 288.853 141.698C284.733 141.698 282.933 146.138 282.933 150.098ZM309.634 159.338C304.274 159.338 299.994 156.058 299.994 149.778C299.994 143.298 304.554 137.658 311.554 137.658C316.794 137.658 321.034 140.938 321.034 147.018C321.034 153.578 316.634 159.338 309.634 159.338ZM305.354 150.098C305.354 152.898 306.594 155.298 309.754 155.298C313.914 155.298 315.674 150.778 315.674 146.858C315.674 144.178 314.434 141.698 311.274 141.698C307.154 141.698 305.354 146.138 305.354 150.098ZM334.976 158.738L331.056 149.458L328.016 152.178L326.776 158.738H321.456L326.976 130.138H332.296L329.176 146.178L337.216 138.218H343.776L335.216 146.258L340.936 158.738H334.976ZM358.907 159.338C353.867 159.338 349.787 156.778 349.787 151.458C349.787 146.858 353.507 144.018 357.387 142.618C356.427 141.058 355.827 139.378 355.827 137.418C355.827 133.218 359.027 130.338 363.507 130.338C366.907 130.338 370.747 132.178 370.747 136.618C370.747 140.378 368.027 142.458 364.507 144.018L367.587 149.258C368.347 147.898 369.027 146.058 369.547 144.058H374.307C373.467 147.898 371.907 151.138 370.107 153.538L373.267 158.738H367.067L366.067 157.098C364.347 158.258 362.027 159.338 358.907 159.338ZM355.427 151.098C355.427 153.418 356.907 154.978 359.387 154.978C361.107 154.978 362.547 154.378 363.947 153.378L359.507 146.018C357.467 146.818 355.427 148.498 355.427 151.098ZM363.387 134.418C362.027 134.418 360.947 135.578 360.947 137.178C360.947 138.458 361.547 139.658 362.427 140.858C364.107 140.018 365.627 138.898 365.627 136.858C365.627 135.658 364.947 134.418 363.387 134.418ZM382.209 158.738L387.729 130.138H398.729C404.209 130.138 407.849 133.218 407.849 138.578C407.849 144.698 403.489 148.378 397.089 148.378H390.129L388.129 158.738H382.209ZM392.689 135.138L391.049 143.698H396.809C399.489 143.698 401.929 142.258 401.929 138.858C401.929 136.538 400.569 135.138 397.969 135.138H392.689ZM419.334 158.738C419.094 158.298 419.014 157.418 419.054 156.498H418.974C417.734 157.818 416.214 159.218 413.254 159.218C410.094 159.218 406.734 157.418 406.734 153.178C406.734 147.738 411.054 146.738 416.054 146.338C419.894 146.018 421.374 145.858 421.374 143.818C421.374 142.338 420.214 141.538 418.174 141.538C415.934 141.538 414.454 142.418 413.974 144.458H409.174C409.854 140.258 413.094 137.698 418.374 137.698C423.454 137.698 427.294 139.898 426.174 145.858L424.254 155.698C423.974 157.098 424.094 158.058 424.414 158.538V158.738H419.334ZM411.894 152.698C411.894 154.538 413.174 155.498 414.974 155.498C417.774 155.498 419.574 153.738 419.974 151.858L420.614 148.618C419.574 149.098 418.454 149.338 416.694 149.658C414.734 150.018 411.894 149.898 411.894 152.698ZM435.886 165.738C431.806 165.738 427.806 163.938 427.286 159.338H432.726C433.046 160.818 434.086 161.658 436.006 161.658C438.566 161.658 439.966 159.938 440.446 157.338L440.846 155.258H440.726C439.366 156.618 438.086 157.498 435.686 157.498C431.046 157.498 427.966 154.058 427.966 149.138C427.966 143.138 431.766 137.658 437.966 137.658C440.606 137.658 442.726 138.778 443.726 140.698H443.806L444.286 138.218H449.446L445.646 157.858C445.166 160.338 444.206 162.098 442.726 163.458C441.086 164.978 439.086 165.738 435.886 165.738ZM437.246 153.178C440.646 153.178 442.686 149.938 442.646 146.538C442.606 143.898 441.206 141.978 438.566 141.978C435.246 141.978 433.286 145.098 433.286 148.738C433.286 151.298 434.606 153.178 437.246 153.178ZM469.437 149.978H455.157C455.157 153.218 456.237 155.178 459.357 155.178C461.237 155.178 462.797 154.378 463.557 152.618H468.837C468.197 154.538 467.117 156.098 465.677 157.218C463.957 158.578 461.757 159.298 459.277 159.338C453.957 159.338 449.837 156.378 449.837 149.898C449.837 143.938 454.197 137.658 460.837 137.658C463.077 137.658 464.637 138.098 465.997 138.978C469.077 140.978 470.197 145.058 469.437 149.978ZM460.717 141.818C457.877 141.818 456.357 143.858 455.637 146.258H464.477C464.557 143.858 463.477 141.818 460.717 141.818ZM479.446 159.338C474.486 159.338 470.526 157.258 470.166 152.098H475.246C475.446 153.858 476.646 155.418 479.446 155.418C481.406 155.418 482.806 154.738 482.806 153.178C482.806 151.698 481.046 151.138 478.046 150.138C474.926 149.098 472.166 147.778 472.166 144.138C472.166 139.978 475.486 137.658 480.166 137.658C484.766 137.658 488.206 139.978 488.566 144.458H483.646C483.406 142.858 482.286 141.498 480.006 141.498C478.566 141.498 476.926 141.978 476.926 143.538C476.926 144.938 478.766 145.258 481.926 146.338C484.886 147.338 487.726 148.858 487.726 152.458C487.726 156.858 484.646 159.338 479.446 159.338Z" fill="white"/>
</svg>
