<svg width="226" height="82" viewBox="0 0 226 82" fill="none" xmlns="http://www.w3.org/2000/svg">
<rect x="16.116" y="21.1899" width="186" height="59.7998" transform="rotate(-3.92861 16.116 21.1899)" fill="white"/>
<mask id="path-2-outside-1_467_3398" maskUnits="userSpaceOnUse" x="7.95" y="-4.62889" width="212.213" height="89.2905" fill="black">
<rect fill="white" x="7.95" y="-4.62889" width="212.213" height="89.2905"/>
<path d="M13.6084 43.3067L13.8735 14.7079L26.6444 13.8449C29.7173 13.6373 32.0649 14.2381 33.5293 15.4583C35.0728 16.753 35.7752 18.4244 35.7545 20.6643C35.7274 23.5842 33.9141 25.5855 31.2316 26.6861L31.2305 26.8061C34.3748 27.513 36.5054 30.0073 36.4728 33.5271C36.448 36.207 35.5928 38.1036 33.9033 39.6568C32.2537 41.2073 29.7316 42.2171 26.6985 42.4221L13.6084 43.3067ZM19.5138 30.1162L19.4397 38.1159L26.1045 37.6655C28.8981 37.4767 30.5888 35.8035 30.6103 33.4836C30.6355 30.7637 28.653 29.4986 26.019 29.6766L19.5138 30.1162ZM19.5535 25.8364L25.8192 25.413C28.3335 25.2431 30.0607 23.9271 30.0815 21.6872C30.1011 19.5673 28.5561 18.4326 26.002 18.6052L19.6165 19.0367L19.5535 25.8364ZM49.3619 41.4902C42.5774 41.9487 38.7902 37.4478 38.847 31.328C38.9033 25.2483 43.0577 20.2507 49.044 19.8462C55.629 19.4012 59.0943 24.2036 59.0264 31.5233L44.1803 32.5266C44.5501 35.6595 46.2879 37.5007 49.3609 37.2931C51.4761 37.1501 52.7222 36.1066 53.3353 34.5062L58.6831 34.1448C57.8911 37.8359 54.6299 41.1342 49.3619 41.4902ZM49.0849 24.0406C46.2115 24.2348 44.7987 26.0491 44.295 28.7614L53.3942 28.1464C53.2587 25.5573 51.5593 23.8734 49.0849 24.0406ZM60.0275 23.2612L60.0609 19.6613L62.8944 19.4698L62.9537 13.0701L68.2616 12.7114L68.2023 19.1111L71.7143 18.8738L71.6809 22.4737L68.169 22.711L68.0681 33.5905C68.054 35.1105 68.8873 35.5738 70.0846 35.4929C70.763 35.447 71.6813 35.345 71.6813 35.345L71.6442 39.3448C71.6442 39.3448 70.4063 39.5084 68.2512 39.6541C65.6172 39.8321 62.7135 38.989 62.7495 35.1092L62.8611 23.0697L60.0275 23.2612ZM72.8888 22.392L72.9222 18.7922L75.7557 18.6007L75.815 12.201L81.1229 11.8423L81.0636 18.242L84.5756 18.0047L84.5422 21.6045L81.0303 21.8419L80.9294 32.7214C80.9153 34.2413 81.7486 34.7047 82.9459 34.6238C83.6243 34.5779 84.5426 34.4759 84.5426 34.4759L84.5055 38.4757C84.5055 38.4757 83.2676 38.6393 81.1125 38.7849C78.4785 38.9629 75.5748 38.1199 75.6108 34.24L75.7224 22.2005L72.8888 22.392ZM96.5979 38.2981C89.8134 38.7566 86.0263 34.2557 86.083 28.136C86.1393 22.0562 90.2937 17.0586 96.2801 16.6541C102.865 16.2091 106.33 21.0116 106.262 28.3312L91.4163 29.3345C91.7861 32.4674 93.524 34.3087 96.5969 34.101C98.7121 33.9581 99.9582 32.9145 100.571 31.3141L105.919 30.9527C105.127 34.6438 101.866 37.9421 96.5979 38.2981ZM96.3209 20.8485C93.4475 21.0427 92.0347 22.857 91.531 25.5693L100.63 24.9544C100.495 22.3653 98.7953 20.6813 96.3209 20.8485ZM114.112 16.0087L114.082 19.2886L114.201 19.2805C115.46 16.877 116.868 15.5826 119.262 15.4208C119.861 15.3803 120.22 15.3961 120.538 15.4945L120.494 20.2543L120.374 20.2624C116.826 20.1424 114.254 22.1949 114.214 26.5148L114.121 36.5143L108.694 36.8811L108.884 16.362L114.112 16.0087ZM129.828 35.4529L130.093 6.85416L135.88 6.46311L135.659 30.2221L149.069 29.3159L149.024 34.1557L129.828 35.4529ZM169.645 32.7622L164.417 33.1155L164.44 30.7156L164.32 30.7237C162.906 32.698 161.299 33.8858 158.426 34.08C153.876 34.3874 151.349 31.6402 151.391 27.1604L151.517 13.4809L156.905 13.1169L156.787 25.8763C156.765 28.2762 157.83 29.5233 160.145 29.3669C162.699 29.1943 164.273 27.1692 164.298 24.4493L164.408 12.6098L169.836 12.2431L169.645 32.7622ZM182.649 32.483C176.184 32.9199 172.197 28.4725 172.253 22.3528C172.31 16.2331 176.345 11.2436 182.57 10.8228C187.878 10.4641 191.122 13.3229 191.8 17.7141L186.492 18.0728C186.149 16.2972 184.765 15.0316 182.769 15.1665C179.497 15.3876 177.797 18.0208 177.761 21.9806C177.725 25.8604 179.257 28.3552 182.57 28.1313C184.765 27.983 186.332 26.7178 186.712 24.3737L191.94 24.0204C191.541 28.4045 188.116 32.1136 182.649 32.483ZM207.73 30.1885L202.07 21.2173L199.693 23.8163L199.629 30.736L194.241 31.1001L194.506 2.50131L199.894 2.13722L199.747 17.9765L207.082 9.72604L213.587 9.28644L205.972 17.5958L214.315 29.7435L207.73 30.1885ZM21.2931 77.764L21.5582 49.1652L27.4248 48.7688L36.7752 64.0862C37.6786 65.5841 38.7336 67.9512 38.7336 67.9512L38.8134 67.9458C38.8134 67.9458 38.6812 64.9967 38.6997 62.9968L38.8388 47.9974L44.5457 47.6118L44.2807 76.2105L38.6934 76.5881L29.102 61.4468C28.1982 59.9889 27.1034 57.6246 27.1034 57.6246L27.0236 57.63C27.0236 57.63 27.1554 60.619 27.1369 62.6189L27.0001 77.3783L21.2931 77.764ZM57.8261 75.8948C51.0415 76.3533 47.2544 71.8524 47.3111 65.7326C47.3675 59.6529 51.5218 54.6553 57.5082 54.2508C64.0932 53.8058 67.5584 58.6082 67.4906 65.9279L52.6445 66.9312C53.0143 70.0641 54.7521 71.9053 57.8251 71.6977C59.9403 71.5547 61.1863 70.5112 61.7994 68.9108L67.1472 68.5494C66.3552 72.2405 63.094 75.5388 57.8261 75.8948ZM57.5491 58.4452C54.6756 58.6394 53.2629 60.4537 52.7591 63.1659L61.8584 62.551C61.7228 59.9619 60.0234 58.278 57.5491 58.4452ZM67.277 74.6565L74.8408 63.2727L68.2653 54.0835L74.4512 53.6654L78.0284 59.2998L78.1083 59.2944L81.5949 53.1827L87.2221 52.8024L80.7876 62.8308L87.9897 73.2568L81.5245 73.6937L77.7961 67.1502L77.7163 67.1556L73.2234 74.2547L67.277 74.6565ZM88.2513 56.3305L88.2847 52.7306L91.1182 52.5391L91.1775 46.1394L96.4854 45.7807L96.4261 52.1804L99.9381 51.9431L99.9047 55.5429L96.3927 55.7803L96.2919 66.6598C96.2778 68.1797 97.1111 68.6431 98.3083 68.5622C98.9868 68.5163 99.9051 68.4143 99.9051 68.4143L99.868 72.4141C99.868 72.4141 98.6301 72.5777 96.475 72.7234C93.841 72.9014 90.9373 72.0583 90.9732 68.1785L91.0848 56.139L88.2513 56.3305ZM108.428 48.1715L108.474 43.2917L131.421 41.741L131.376 46.6208L122.796 47.2006L122.576 70.9196L116.789 71.3106L117.009 47.5916L108.428 48.1715ZM133.644 70.1716L133.834 49.6525L139.262 49.2857L139.071 69.8049L133.644 70.1716ZM133.864 46.4527L133.909 41.5729L139.336 41.2061L139.291 46.0859L133.864 46.4527ZM142.569 69.5685L142.759 49.0494L147.987 48.6961L147.961 51.456L148.081 51.4479C149.216 49.4925 151.225 47.9177 154.058 47.7262C156.652 47.5509 158.714 48.8506 159.692 50.9431L159.772 50.9377C161.189 48.6034 163.357 47.0978 165.951 46.9225C170.261 46.6312 172.67 49.2666 172.628 53.7464L172.5 67.5458L167.073 67.9126L167.192 55.0331C167.214 52.7132 166.067 51.5915 164.072 51.7264C161.797 51.8801 160.384 53.7344 160.359 56.4543L160.248 68.3738L154.821 68.7406L154.94 55.8611C154.962 53.5412 153.815 52.4195 151.82 52.5543C149.625 52.7026 148.132 54.5624 148.107 57.2822L147.996 69.2017L142.569 69.5685ZM185.465 67.2693C178.68 67.7278 174.893 63.2269 174.95 57.1072C175.006 51.0274 179.16 46.0299 185.147 45.6253C191.732 45.1803 195.197 49.9828 195.129 57.3025L180.283 58.3057C180.653 61.4386 182.391 63.2799 185.464 63.0722C187.579 62.9293 188.825 61.8857 189.438 60.2853L194.786 59.9239C193.994 63.615 190.733 66.9133 185.465 67.2693ZM185.188 49.8197C182.314 50.0139 180.901 51.8282 180.398 54.5405L189.497 53.9256C189.361 51.3365 187.662 49.6525 185.188 49.8197ZM199.633 57.3578L198.246 43.5409L198.304 37.2212L203.972 36.8382L203.913 43.158L202.267 57.1798L199.633 57.3578ZM197.96 65.8254L198.013 60.0256L203.84 59.6319L203.786 65.4316L197.96 65.8254Z"/>
</mask>
<path d="M13.6084 43.3067L13.8735 14.7079L26.6444 13.8449C29.7173 13.6373 32.0649 14.2381 33.5293 15.4583C35.0728 16.753 35.7752 18.4244 35.7545 20.6643C35.7274 23.5842 33.9141 25.5855 31.2316 26.6861L31.2305 26.8061C34.3748 27.513 36.5054 30.0073 36.4728 33.5271C36.448 36.207 35.5928 38.1036 33.9033 39.6568C32.2537 41.2073 29.7316 42.2171 26.6985 42.4221L13.6084 43.3067ZM19.5138 30.1162L19.4397 38.1159L26.1045 37.6655C28.8981 37.4767 30.5888 35.8035 30.6103 33.4836C30.6355 30.7637 28.653 29.4986 26.019 29.6766L19.5138 30.1162ZM19.5535 25.8364L25.8192 25.413C28.3335 25.2431 30.0607 23.9271 30.0815 21.6872C30.1011 19.5673 28.5561 18.4326 26.002 18.6052L19.6165 19.0367L19.5535 25.8364ZM49.3619 41.4902C42.5774 41.9487 38.7902 37.4478 38.847 31.328C38.9033 25.2483 43.0577 20.2507 49.044 19.8462C55.629 19.4012 59.0943 24.2036 59.0264 31.5233L44.1803 32.5266C44.5501 35.6595 46.2879 37.5007 49.3609 37.2931C51.4761 37.1501 52.7222 36.1066 53.3353 34.5062L58.6831 34.1448C57.8911 37.8359 54.6299 41.1342 49.3619 41.4902ZM49.0849 24.0406C46.2115 24.2348 44.7987 26.0491 44.295 28.7614L53.3942 28.1464C53.2587 25.5573 51.5593 23.8734 49.0849 24.0406ZM60.0275 23.2612L60.0609 19.6613L62.8944 19.4698L62.9537 13.0701L68.2616 12.7114L68.2023 19.1111L71.7143 18.8738L71.6809 22.4737L68.169 22.711L68.0681 33.5905C68.054 35.1105 68.8873 35.5738 70.0846 35.4929C70.763 35.447 71.6813 35.345 71.6813 35.345L71.6442 39.3448C71.6442 39.3448 70.4063 39.5084 68.2512 39.6541C65.6172 39.8321 62.7135 38.989 62.7495 35.1092L62.8611 23.0697L60.0275 23.2612ZM72.8888 22.392L72.9222 18.7922L75.7557 18.6007L75.815 12.201L81.1229 11.8423L81.0636 18.242L84.5756 18.0047L84.5422 21.6045L81.0303 21.8419L80.9294 32.7214C80.9153 34.2413 81.7486 34.7047 82.9459 34.6238C83.6243 34.5779 84.5426 34.4759 84.5426 34.4759L84.5055 38.4757C84.5055 38.4757 83.2676 38.6393 81.1125 38.7849C78.4785 38.9629 75.5748 38.1199 75.6108 34.24L75.7224 22.2005L72.8888 22.392ZM96.5979 38.2981C89.8134 38.7566 86.0263 34.2557 86.083 28.136C86.1393 22.0562 90.2937 17.0586 96.2801 16.6541C102.865 16.2091 106.33 21.0116 106.262 28.3312L91.4163 29.3345C91.7861 32.4674 93.524 34.3087 96.5969 34.101C98.7121 33.9581 99.9582 32.9145 100.571 31.3141L105.919 30.9527C105.127 34.6438 101.866 37.9421 96.5979 38.2981ZM96.3209 20.8485C93.4475 21.0427 92.0347 22.857 91.531 25.5693L100.63 24.9544C100.495 22.3653 98.7953 20.6813 96.3209 20.8485ZM114.112 16.0087L114.082 19.2886L114.201 19.2805C115.46 16.877 116.868 15.5826 119.262 15.4208C119.861 15.3803 120.22 15.3961 120.538 15.4945L120.494 20.2543L120.374 20.2624C116.826 20.1424 114.254 22.1949 114.214 26.5148L114.121 36.5143L108.694 36.8811L108.884 16.362L114.112 16.0087ZM129.828 35.4529L130.093 6.85416L135.88 6.46311L135.659 30.2221L149.069 29.3159L149.024 34.1557L129.828 35.4529ZM169.645 32.7622L164.417 33.1155L164.44 30.7156L164.32 30.7237C162.906 32.698 161.299 33.8858 158.426 34.08C153.876 34.3874 151.349 31.6402 151.391 27.1604L151.517 13.4809L156.905 13.1169L156.787 25.8763C156.765 28.2762 157.83 29.5233 160.145 29.3669C162.699 29.1943 164.273 27.1692 164.298 24.4493L164.408 12.6098L169.836 12.2431L169.645 32.7622ZM182.649 32.483C176.184 32.9199 172.197 28.4725 172.253 22.3528C172.31 16.2331 176.345 11.2436 182.57 10.8228C187.878 10.4641 191.122 13.3229 191.8 17.7141L186.492 18.0728C186.149 16.2972 184.765 15.0316 182.769 15.1665C179.497 15.3876 177.797 18.0208 177.761 21.9806C177.725 25.8604 179.257 28.3552 182.57 28.1313C184.765 27.983 186.332 26.7178 186.712 24.3737L191.94 24.0204C191.541 28.4045 188.116 32.1136 182.649 32.483ZM207.73 30.1885L202.07 21.2173L199.693 23.8163L199.629 30.736L194.241 31.1001L194.506 2.50131L199.894 2.13722L199.747 17.9765L207.082 9.72604L213.587 9.28644L205.972 17.5958L214.315 29.7435L207.73 30.1885ZM21.2931 77.764L21.5582 49.1652L27.4248 48.7688L36.7752 64.0862C37.6786 65.5841 38.7336 67.9512 38.7336 67.9512L38.8134 67.9458C38.8134 67.9458 38.6812 64.9967 38.6997 62.9968L38.8388 47.9974L44.5457 47.6118L44.2807 76.2105L38.6934 76.5881L29.102 61.4468C28.1982 59.9889 27.1034 57.6246 27.1034 57.6246L27.0236 57.63C27.0236 57.63 27.1554 60.619 27.1369 62.6189L27.0001 77.3783L21.2931 77.764ZM57.8261 75.8948C51.0415 76.3533 47.2544 71.8524 47.3111 65.7326C47.3675 59.6529 51.5218 54.6553 57.5082 54.2508C64.0932 53.8058 67.5584 58.6082 67.4906 65.9279L52.6445 66.9312C53.0143 70.0641 54.7521 71.9053 57.8251 71.6977C59.9403 71.5547 61.1863 70.5112 61.7994 68.9108L67.1472 68.5494C66.3552 72.2405 63.094 75.5388 57.8261 75.8948ZM57.5491 58.4452C54.6756 58.6394 53.2629 60.4537 52.7591 63.1659L61.8584 62.551C61.7228 59.9619 60.0234 58.278 57.5491 58.4452ZM67.277 74.6565L74.8408 63.2727L68.2653 54.0835L74.4512 53.6654L78.0284 59.2998L78.1083 59.2944L81.5949 53.1827L87.2221 52.8024L80.7876 62.8308L87.9897 73.2568L81.5245 73.6937L77.7961 67.1502L77.7163 67.1556L73.2234 74.2547L67.277 74.6565ZM88.2513 56.3305L88.2847 52.7306L91.1182 52.5391L91.1775 46.1394L96.4854 45.7807L96.4261 52.1804L99.9381 51.9431L99.9047 55.5429L96.3927 55.7803L96.2919 66.6598C96.2778 68.1797 97.1111 68.6431 98.3083 68.5622C98.9868 68.5163 99.9051 68.4143 99.9051 68.4143L99.868 72.4141C99.868 72.4141 98.6301 72.5777 96.475 72.7234C93.841 72.9014 90.9373 72.0583 90.9732 68.1785L91.0848 56.139L88.2513 56.3305ZM108.428 48.1715L108.474 43.2917L131.421 41.741L131.376 46.6208L122.796 47.2006L122.576 70.9196L116.789 71.3106L117.009 47.5916L108.428 48.1715ZM133.644 70.1716L133.834 49.6525L139.262 49.2857L139.071 69.8049L133.644 70.1716ZM133.864 46.4527L133.909 41.5729L139.336 41.2061L139.291 46.0859L133.864 46.4527ZM142.569 69.5685L142.759 49.0494L147.987 48.6961L147.961 51.456L148.081 51.4479C149.216 49.4925 151.225 47.9177 154.058 47.7262C156.652 47.5509 158.714 48.8506 159.692 50.9431L159.772 50.9377C161.189 48.6034 163.357 47.0978 165.951 46.9225C170.261 46.6312 172.67 49.2666 172.628 53.7464L172.5 67.5458L167.073 67.9126L167.192 55.0331C167.214 52.7132 166.067 51.5915 164.072 51.7264C161.797 51.8801 160.384 53.7344 160.359 56.4543L160.248 68.3738L154.821 68.7406L154.94 55.8611C154.962 53.5412 153.815 52.4195 151.82 52.5543C149.625 52.7026 148.132 54.5624 148.107 57.2822L147.996 69.2017L142.569 69.5685ZM185.465 67.2693C178.68 67.7278 174.893 63.2269 174.95 57.1072C175.006 51.0274 179.16 46.0299 185.147 45.6253C191.732 45.1803 195.197 49.9828 195.129 57.3025L180.283 58.3057C180.653 61.4386 182.391 63.2799 185.464 63.0722C187.579 62.9293 188.825 61.8857 189.438 60.2853L194.786 59.9239C193.994 63.615 190.733 66.9133 185.465 67.2693ZM185.188 49.8197C182.314 50.0139 180.901 51.8282 180.398 54.5405L189.497 53.9256C189.361 51.3365 187.662 49.6525 185.188 49.8197ZM199.633 57.3578L198.246 43.5409L198.304 37.2212L203.972 36.8382L203.913 43.158L202.267 57.1798L199.633 57.3578ZM197.96 65.8254L198.013 60.0256L203.84 59.6319L203.786 65.4316L197.96 65.8254Z" fill="black"/>
<path d="M13.6084 43.3067L8.61978 43.6438C8.59419 46.4051 10.8069 48.4927 13.5621 48.3065L13.6084 43.3067ZM13.8735 14.7079L13.9198 9.70815C11.1647 9.89433 8.91045 12.2837 8.88486 15.0451L13.8735 14.7079ZM33.5293 15.4583L36.8958 11.512C36.892 11.5089 36.8882 11.5057 36.8844 11.5025L33.5293 15.4583ZM31.2316 26.6861L29.6557 22.0667C27.6339 22.8963 26.2628 24.8876 26.243 27.0232L31.2316 26.6861ZM31.2305 26.8061L26.2419 27.1432C26.2213 29.3663 27.6677 31.2233 29.7915 31.7008L31.2305 26.8061ZM33.9033 39.6568L30.6919 36.08C30.6768 36.094 30.6616 36.108 30.6466 36.1222L33.9033 39.6568ZM19.5138 30.1162L19.5602 25.1164C16.805 25.3026 14.5508 27.692 14.5252 30.4533L19.5138 30.1162ZM19.4397 38.1159L14.4511 38.453C14.4255 41.2143 16.6382 43.3018 19.3934 43.1156L19.4397 38.1159ZM19.5535 25.8364L14.5649 26.1735C14.5393 28.9348 16.752 31.0224 19.5072 30.8362L19.5535 25.8364ZM19.6165 19.0367L19.6629 14.0369C16.9077 14.2231 14.6535 16.6125 14.6279 19.3738L19.6165 19.0367ZM18.597 42.9696L18.8621 14.3708L8.88486 15.0451L8.61978 43.6438L18.597 42.9696ZM13.8271 19.7077L26.598 18.8447L26.6907 8.84513L13.9198 9.70815L13.8271 19.7077ZM26.598 18.8447C28.9663 18.6847 29.9387 19.2177 30.1742 19.414L36.8844 11.5025C34.1912 9.2585 30.4684 8.58984 26.6907 8.84513L26.598 18.8447ZM30.1629 19.4045C30.5613 19.7387 30.7747 20.0404 30.7658 21.0014L40.7431 20.3272C40.7757 16.8084 39.5843 13.7673 36.8958 11.512L30.1629 19.4045ZM30.7658 21.0014C30.7639 21.2113 30.7319 21.3157 30.7208 21.3474C30.7105 21.3768 30.6992 21.399 30.6727 21.4325C30.6132 21.5079 30.3569 21.779 29.6557 22.0667L32.8075 31.3056C34.7888 30.4926 36.7804 29.2127 38.3049 27.2823C39.8816 25.2859 40.7193 22.8899 40.7431 20.3272L30.7658 21.0014ZM26.243 27.0232L26.2419 27.1432L36.2192 26.469L36.2203 26.349L26.243 27.0232ZM29.7915 31.7008C30.9095 31.9522 31.4953 32.6679 31.4842 33.8642L41.4614 33.19C41.5156 27.3467 37.8401 23.0739 32.6695 21.9114L29.7915 31.7008ZM31.4842 33.8642C31.4712 35.2678 31.1342 35.6735 30.6919 36.08L37.1147 43.2335C40.0514 40.5337 41.4248 37.1462 41.4614 33.19L31.4842 33.8642ZM30.6466 36.1222C30.1644 36.5754 28.9429 37.2738 26.7449 37.4223L26.6522 47.4219C30.5204 47.1605 34.3429 45.8392 37.16 43.1914L30.6466 36.1222ZM26.7449 37.4223L13.6547 38.3069L13.5621 48.3065L26.6522 47.4219L26.7449 37.4223ZM14.5252 30.4533L14.4511 38.453L24.4283 37.7787L24.5025 29.7791L14.5252 30.4533ZM19.3934 43.1156L26.0582 42.6653L26.1508 32.6657L19.486 33.1161L19.3934 43.1156ZM26.0582 42.6653C28.356 42.51 30.7576 41.6999 32.6644 39.8982C34.6333 38.0377 35.5763 35.5827 35.5989 33.1465L25.6216 33.8207C25.6219 33.7935 25.6295 33.6511 25.7185 33.4401C25.8104 33.2223 25.9551 33.014 26.1295 32.8492C26.4871 32.5113 26.6466 32.6322 26.1508 32.6657L26.0582 42.6653ZM35.5989 33.1465C35.6239 30.4489 34.5978 28.0235 32.5366 26.4331C30.5969 24.9365 28.207 24.5321 26.0653 24.6768L25.9727 34.6764C26.465 34.6431 26.3834 34.7822 26.0871 34.5536C25.9281 34.4309 25.7866 34.2559 25.6978 34.0579C25.6121 33.8669 25.6222 33.7598 25.6216 33.8207L35.5989 33.1465ZM26.0653 24.6768L19.5602 25.1164L19.4675 35.116L25.9727 34.6764L26.0653 24.6768ZM19.5072 30.8362L25.7729 30.4128L25.8656 20.4132L19.5999 20.8366L19.5072 30.8362ZM25.7729 30.4128C27.7459 30.2794 30.0132 29.6639 31.9134 28.0644C33.9767 26.3276 35.0465 23.8926 35.0701 21.3501L25.0928 22.0244C25.0937 21.9359 25.1156 21.6921 25.2639 21.3715C25.4156 21.0439 25.6356 20.775 25.8574 20.5883C26.2602 20.2492 26.4069 20.3766 25.8656 20.4132L25.7729 30.4128ZM35.0701 21.3501C35.0923 18.9528 34.1719 16.6804 32.1825 15.1889C30.3291 13.7994 28.063 13.4692 26.0483 13.6054L25.9556 23.605C26.4951 23.5685 26.2786 23.7194 25.8313 23.3841C25.5941 23.2063 25.3812 22.9507 25.2424 22.6443C25.1079 22.3473 25.092 22.1125 25.0928 22.0244L35.0701 21.3501ZM26.0483 13.6054L19.6629 14.0369L19.5702 24.0365L25.9556 23.605L26.0483 13.6054ZM14.6279 19.3738L14.5649 26.1735L24.5421 25.4993L24.6052 18.6996L14.6279 19.3738ZM59.0264 31.5233L58.9801 36.5231C61.7352 36.3369 63.9895 33.9475 64.0151 31.1862L59.0264 31.5233ZM44.1803 32.5266L44.2266 27.5268C42.7944 27.6236 41.4255 28.3327 40.4685 29.4735C39.5115 30.6144 39.0587 32.077 39.2254 33.4889L44.1803 32.5266ZM53.3353 34.5062L53.3816 29.5064C51.3175 29.6459 49.4547 31.0451 48.6958 33.026L53.3353 34.5062ZM58.6831 34.1448L63.5569 34.8367C63.8776 33.3424 63.52 31.8338 62.5835 30.7297C61.6471 29.6256 60.2314 29.0435 58.7294 29.145L58.6831 34.1448ZM44.295 28.7614L39.3927 28.2117C39.1188 29.6864 39.5021 31.1574 40.4394 32.2285C41.3767 33.2997 42.7717 33.8609 44.2486 33.7611L44.295 28.7614ZM53.3942 28.1464L53.3479 33.1462C54.7242 33.0532 56.0446 32.3945 56.9967 31.3259C57.9488 30.2574 58.448 28.8739 58.3763 27.5029L53.3942 28.1464ZM49.4083 36.4904C47.2465 36.6365 45.9822 36.002 45.2311 35.2319C44.4305 34.411 43.8168 33.0202 43.8356 30.9909L33.8583 31.6652C33.8204 35.7556 35.072 39.6751 37.8469 42.52C40.6712 45.4157 44.6928 46.8024 49.3156 46.49L49.4083 36.4904ZM43.8356 30.9909C43.8702 27.2587 46.162 25.0376 48.9977 24.846L49.0904 14.8464C39.9534 15.4638 33.9365 23.2379 33.8583 31.6652L43.8356 30.9909ZM48.9977 24.846C50.8816 24.7187 51.902 25.2977 52.5754 26.1229C53.3712 27.0981 54.065 28.9276 54.0378 31.8604L64.0151 31.1862C64.0557 26.7994 63.0509 22.5678 60.4847 19.4231C57.7962 16.1284 53.7915 14.5287 49.0904 14.8464L48.9977 24.846ZM59.0728 26.5235L44.2266 27.5268L44.134 37.5264L58.9801 36.5231L59.0728 26.5235ZM39.2254 33.4889C39.4962 35.7835 40.3313 38.1548 42.1769 39.9175C44.103 41.7571 46.6491 42.473 49.3146 42.2928L49.4073 32.2933C49.1699 32.3093 49.1033 32.2768 49.1456 32.2904C49.1982 32.3072 49.2756 32.3489 49.337 32.4076C49.4529 32.5183 49.2342 32.4025 49.1353 31.5643L39.2254 33.4889ZM49.3146 42.2928C51.1316 42.1701 52.9964 41.6252 54.6474 40.4138C56.3114 39.1929 57.3623 37.5851 57.9747 35.9863L48.6958 33.026C48.6909 33.0387 48.7166 32.9675 48.8008 32.8516C48.8893 32.7297 49.0159 32.5955 49.1754 32.4785C49.5212 32.2247 49.7054 32.2731 49.4073 32.2933L49.3146 42.2928ZM53.2889 39.506L58.6367 39.1446L58.7294 29.145L53.3816 29.5064L53.2889 39.506ZM53.8092 33.4529C53.6582 34.1568 53.278 34.8183 52.6626 35.3388C52.063 35.8461 51.0454 36.3798 49.4083 36.4904L49.3156 46.49C56.7867 45.9851 62.2275 41.0325 63.5569 34.8367L53.8092 33.4529ZM49.1313 19.0408C46.6283 19.21 44.2026 20.1621 42.3182 22.1474C40.5479 24.0126 39.7533 26.2702 39.3927 28.2117L49.1973 29.311C49.2643 28.9503 49.3386 28.7482 49.3769 28.6627C49.4114 28.5856 49.3958 28.6486 49.2844 28.766C49.2299 28.8234 49.1639 28.8815 49.0894 28.934C49.015 28.9865 48.9479 29.0222 48.8974 29.0444C48.7945 29.0897 48.8162 29.0554 49.0386 29.0404L49.1313 19.0408ZM44.2486 33.7611L53.3479 33.1462L53.4406 23.1467L44.3413 23.7616L44.2486 33.7611ZM58.3763 27.5029C58.2551 25.1877 57.4088 22.9546 55.7109 21.3185C53.9823 19.653 51.6373 18.8715 49.1313 19.0408L49.0386 29.0404C49.0477 29.0398 48.9744 29.0449 48.8535 29.0034C48.7315 28.9616 48.6148 28.8903 48.5224 28.8013C48.3266 28.6126 48.3978 28.5161 48.4122 28.79L58.3763 27.5029ZM60.0275 23.2612L55.0389 23.5983C55.0133 26.3596 57.226 28.4471 59.9812 28.2609L60.0275 23.2612ZM60.0609 19.6613L60.1072 14.6615C57.3521 14.8477 55.0979 17.2371 55.0723 19.9984L60.0609 19.6613ZM62.8944 19.4698L62.8481 24.4696C65.6032 24.2834 67.8575 21.894 67.8831 19.1327L62.8944 19.4698ZM62.9538 13.0701L63.0001 8.07032C60.245 8.2565 57.9907 10.6459 57.9651 13.4072L62.9538 13.0701ZM68.2616 12.7114L73.2503 12.3743C73.2759 9.61299 71.0631 7.52544 68.308 7.71163L68.2616 12.7114ZM68.2023 19.1111L63.2137 19.4483C63.1881 22.2096 65.4008 24.2971 68.156 24.1109L68.2023 19.1111ZM71.7143 18.8738L76.7029 18.5367C76.7285 15.7754 74.5158 13.6878 71.7607 13.874L71.7143 18.8738ZM71.6809 22.4737L71.6346 27.4734C74.3897 27.2873 76.644 24.8978 76.6696 22.1365L71.6809 22.4737ZM68.169 22.711L68.2153 17.7112C65.4602 17.8974 63.2059 20.2868 63.1803 23.0481L68.169 22.711ZM71.6813 35.345L76.6699 35.0079C76.6826 33.6442 76.1389 32.3772 75.1648 31.5005C74.1907 30.6238 72.8708 30.2135 71.5109 30.3646L71.6813 35.345ZM71.6442 39.3448L71.9192 44.3125C74.5457 43.9654 76.6084 41.6441 76.6328 39.0077L71.6442 39.3448ZM62.8611 23.0697L67.8497 22.7326C67.8753 19.9713 65.6625 17.8837 62.9074 18.0699L62.8611 23.0697ZM65.0161 22.924L65.0495 19.3242L55.0723 19.9984L55.0389 23.5983L65.0161 22.924ZM60.0146 24.6611L62.8481 24.4696L62.9408 14.47L60.1072 14.6615L60.0146 24.6611ZM67.8831 19.1327L67.9424 12.733L57.9651 13.4072L57.9058 19.8069L67.8831 19.1327ZM62.9074 18.0699L68.2153 17.7112L68.308 7.71163L63.0001 8.07032L62.9074 18.0699ZM63.273 13.0485L63.2137 19.4483L73.1909 18.774L73.2503 12.3743L63.273 13.0485ZM68.156 24.1109L71.668 23.8736L71.7607 13.874L68.2487 14.1114L68.156 24.1109ZM66.7257 19.2109L66.6923 22.8108L76.6696 22.1365L76.7029 18.5367L66.7257 19.2109ZM71.7273 17.4739L68.2153 17.7112L68.1226 27.7108L71.6346 27.4734L71.7273 17.4739ZM63.1803 23.0481L63.0795 33.9276L73.0567 33.2534L73.1576 22.3739L63.1803 23.0481ZM63.0795 33.9276C63.064 35.5947 63.5285 37.6545 65.2732 39.1029C66.9054 40.4578 68.8323 40.5742 70.0382 40.4927L70.1309 30.4931C70.1396 30.4925 71.0512 30.4176 71.971 31.1812C73.0033 32.0381 73.0581 33.1063 73.0567 33.2534L63.0795 33.9276ZM70.0382 40.4927C70.4571 40.4644 70.9185 40.4212 71.2493 40.3883C71.4203 40.3713 71.5681 40.3559 71.6739 40.3447C71.7269 40.339 71.7697 40.3344 71.8001 40.3311C71.8152 40.3294 71.8273 40.3281 71.836 40.3272C71.8404 40.3267 71.8439 40.3263 71.8465 40.326C71.8478 40.3259 71.8489 40.3257 71.8498 40.3256C71.8502 40.3256 71.8506 40.3256 71.8509 40.3255C71.8511 40.3255 71.8512 40.3255 71.8513 40.3255C71.8514 40.3255 71.8515 40.3255 71.8515 40.3255C71.8516 40.3254 71.8517 40.3254 71.6813 35.345C71.5109 30.3646 71.511 30.3646 71.5111 30.3646C71.5111 30.3646 71.5111 30.3646 71.5112 30.3646C71.5113 30.3646 71.5113 30.3645 71.5114 30.3645C71.5115 30.3645 71.5115 30.3645 71.5115 30.3645C71.5115 30.3645 71.5112 30.3646 71.5108 30.3646C71.5099 30.3647 71.5082 30.3649 71.5056 30.3652C71.5005 30.3657 71.4922 30.3666 71.481 30.3679C71.4584 30.3703 71.4242 30.374 71.3806 30.3787C71.2929 30.388 71.1687 30.4009 71.0254 30.4152C70.7275 30.4448 70.3905 30.4756 70.1309 30.4931L70.0382 40.4927ZM66.6927 35.6821L66.6556 39.682L76.6328 39.0077L76.6699 35.0079L66.6927 35.6821ZM71.6442 39.3448C71.3693 34.3771 71.3696 34.3771 71.3698 34.3771C71.3699 34.3771 71.3702 34.377 71.3703 34.377C71.3707 34.377 71.371 34.3769 71.3712 34.3769C71.3718 34.3768 71.3723 34.3767 71.3728 34.3767C71.3736 34.3766 71.3742 34.3765 71.3744 34.3765C71.3749 34.3764 71.3743 34.3765 71.3724 34.3767C71.3687 34.3772 71.3603 34.3783 71.3473 34.3799C71.3213 34.3831 71.2767 34.3886 71.2143 34.396C71.0894 34.4107 70.8931 34.4328 70.6303 34.4596C70.1045 34.5133 69.3137 34.5856 68.2976 34.6543L68.2049 44.6539C69.3438 44.5769 70.2495 44.4946 70.8815 44.43C71.1976 44.3978 71.4454 44.3699 71.62 44.3494C71.7073 44.3391 71.7762 44.3307 71.8263 44.3244C71.8514 44.3213 71.8717 44.3187 71.8872 44.3167C71.8949 44.3157 71.9015 44.3149 71.9068 44.3142C71.9095 44.3138 71.9118 44.3135 71.9139 44.3132C71.9149 44.3131 71.9159 44.313 71.9168 44.3129C71.9172 44.3128 71.9176 44.3128 71.918 44.3127C71.9182 44.3127 71.9185 44.3126 71.9186 44.3126C71.9189 44.3126 71.9192 44.3125 71.6442 39.3448ZM68.2976 34.6543C67.9527 34.6776 67.6865 34.6602 67.5081 34.6284C67.3293 34.5964 67.3221 34.5654 67.4056 34.6189C67.4508 34.6479 67.5126 34.6957 67.5765 34.7659C67.6415 34.8372 67.6909 34.9123 67.724 34.9791C67.7955 35.1233 67.735 35.1092 67.7381 34.772L57.7609 35.4463C57.7295 38.8328 59.0809 41.5776 61.5927 43.1877C63.8124 44.6105 66.3684 44.778 68.2049 44.6539L68.2976 34.6543ZM67.7381 34.772L67.8497 22.7326L57.8724 23.4068L57.7609 35.4463L67.7381 34.772ZM62.9074 18.0699L60.0739 18.2614L59.9812 28.2609L62.8147 28.0695L62.9074 18.0699ZM72.8888 22.392L67.9002 22.7291C67.8746 25.4905 70.0873 27.578 72.8425 27.3918L72.8888 22.392ZM72.9222 18.7922L72.9685 13.7924C70.2134 13.9786 67.9592 16.368 67.9336 19.1293L72.9222 18.7922ZM75.7557 18.6007L75.7094 23.6005C78.4645 23.4143 80.7188 21.0249 80.7443 18.2636L75.7557 18.6007ZM75.815 12.201L75.8614 7.20119C73.1062 7.38738 70.852 9.77679 70.8264 12.5381L75.815 12.201ZM81.1229 11.8423L86.1116 11.5052C86.1372 8.74386 83.9244 6.65631 81.1693 6.8425L81.1229 11.8423ZM81.0636 18.242L76.075 18.5791C76.0494 21.3404 78.2621 23.428 81.0173 23.2418L81.0636 18.242ZM84.5756 18.0047L89.5642 17.6676C89.5898 14.9063 87.3771 12.8187 84.6219 13.0049L84.5756 18.0047ZM84.5422 21.6045L84.4959 26.6043C87.251 26.4181 89.5053 24.0287 89.5309 21.2674L84.5422 21.6045ZM81.0303 21.8419L81.0766 16.8421C78.3215 17.0283 76.0672 19.4177 76.0416 22.179L81.0303 21.8419ZM84.5426 34.4759L89.5312 34.1388C89.5439 32.7751 89.0002 31.5081 88.0261 30.6314C87.052 29.7547 85.7321 29.3444 84.3722 29.4955L84.5426 34.4759ZM84.5055 38.4757L84.7805 43.4434C87.407 43.0963 89.4697 40.7749 89.4941 38.1386L84.5055 38.4757ZM75.7224 22.2005L80.711 21.8634C80.7366 19.1021 78.5238 17.0146 75.7687 17.2008L75.7224 22.2005ZM77.8774 22.0549L77.9108 18.4551L67.9336 19.1293L67.9002 22.7291L77.8774 22.0549ZM72.8758 23.792L75.7094 23.6005L75.8021 13.6009L72.9685 13.7924L72.8758 23.792ZM80.7443 18.2636L80.8037 11.8639L70.8264 12.5381L70.7671 18.9378L80.7443 18.2636ZM75.7687 17.2008L81.0766 16.8421L81.1693 6.8425L75.8614 7.20119L75.7687 17.2008ZM76.1343 12.1794L76.075 18.5791L86.0522 17.9049L86.1116 11.5052L76.1343 12.1794ZM81.0173 23.2418L84.5293 23.0045L84.6219 13.0049L81.11 13.2422L81.0173 23.2418ZM79.587 18.3418L79.5536 21.9416L89.5309 21.2674L89.5642 17.6676L79.587 18.3418ZM84.5886 16.6047L81.0766 16.8421L80.9839 26.8416L84.4959 26.6043L84.5886 16.6047ZM76.0416 22.179L75.9408 33.0585L85.918 32.3843L86.0189 21.5047L76.0416 22.179ZM75.9408 33.0585C75.9253 34.7255 76.3898 36.7854 78.1345 38.2337C79.7667 39.5887 81.6936 39.705 82.8995 39.6235L82.9922 29.624C83.0008 29.6234 83.9125 29.5485 84.8323 30.312C85.8646 31.169 85.9194 32.2372 85.918 32.3843L75.9408 33.0585ZM82.8995 39.6235C83.3184 39.5952 83.7798 39.5521 84.1106 39.5192C84.2816 39.5022 84.4294 39.4868 84.5352 39.4755C84.5882 39.4699 84.631 39.4653 84.6613 39.462C84.6765 39.4603 84.6886 39.459 84.6973 39.458C84.7017 39.4576 84.7052 39.4572 84.7078 39.4569C84.7091 39.4567 84.7102 39.4566 84.7111 39.4565C84.7115 39.4565 84.7119 39.4564 84.7122 39.4564C84.7124 39.4564 84.7125 39.4564 84.7126 39.4563C84.7127 39.4563 84.7128 39.4563 84.7128 39.4563C84.7129 39.4563 84.713 39.4563 84.5426 34.4759C84.3722 29.4955 84.3723 29.4955 84.3723 29.4954C84.3724 29.4954 84.3724 29.4954 84.3725 29.4954C84.3725 29.4954 84.3726 29.4954 84.3727 29.4954C84.3728 29.4954 84.3728 29.4954 84.3728 29.4954C84.3728 29.4954 84.3725 29.4954 84.3721 29.4955C84.3712 29.4956 84.3695 29.4958 84.3669 29.496C84.3618 29.4966 84.3535 29.4975 84.3423 29.4987C84.3197 29.5012 84.2855 29.5049 84.2419 29.5095C84.1542 29.5189 84.03 29.5318 83.8867 29.5461C83.5888 29.5757 83.2518 29.6064 82.9922 29.624L82.8995 39.6235ZM79.554 34.813L79.5169 38.8128L89.4941 38.1386L89.5312 34.1388L79.554 34.813ZM84.5055 38.4757C84.2306 33.508 84.2309 33.508 84.2311 33.5079C84.2312 33.5079 84.2315 33.5079 84.2316 33.5079C84.2319 33.5078 84.2322 33.5078 84.2325 33.5077C84.2331 33.5077 84.2336 33.5076 84.234 33.5075C84.2349 33.5074 84.2355 33.5074 84.2357 33.5073C84.2362 33.5073 84.2356 33.5073 84.2337 33.5076C84.23 33.5081 84.2216 33.5091 84.2086 33.5108C84.1826 33.514 84.138 33.5195 84.0756 33.5268C83.9507 33.5415 83.7544 33.5637 83.4916 33.5905C82.9658 33.6442 82.175 33.7165 81.1589 33.7852L81.0662 43.7847C82.2051 43.7078 83.1108 43.6254 83.7428 43.5609C84.0588 43.5286 84.3067 43.5008 84.4813 43.4803C84.5685 43.47 84.6375 43.4616 84.6876 43.4553C84.7126 43.4522 84.733 43.4496 84.7485 43.4476C84.7562 43.4466 84.7628 43.4457 84.7681 43.445C84.7708 43.4447 84.7731 43.4444 84.7752 43.4441C84.7762 43.444 84.7772 43.4439 84.778 43.4437C84.7785 43.4437 84.7789 43.4436 84.7793 43.4436C84.7795 43.4435 84.7798 43.4435 84.7799 43.4435C84.7802 43.4435 84.7805 43.4434 84.5055 38.4757ZM81.1589 33.7852C80.8139 33.8085 80.5478 33.7911 80.3694 33.7592C80.1905 33.7273 80.1834 33.6963 80.2669 33.7498C80.3121 33.7788 80.3739 33.8266 80.4378 33.8967C80.5027 33.968 80.5521 34.0431 80.5853 34.11C80.6568 34.2542 80.5963 34.2401 80.5994 33.9029L70.6221 34.5771C70.5908 37.9636 71.9422 40.7085 74.454 42.3186C76.6737 43.7414 79.2297 43.9088 81.0662 43.7847L81.1589 33.7852ZM80.5994 33.9029L80.711 21.8634L70.7337 22.5377L70.6221 34.5771L80.5994 33.9029ZM75.7687 17.2008L72.9352 17.3922L72.8425 27.3918L75.676 27.2003L75.7687 17.2008ZM106.262 28.3312L106.216 33.331C108.971 33.1448 111.225 30.7554 111.251 27.9941L106.262 28.3312ZM91.4163 29.3345L91.4627 24.3347C90.0304 24.4315 88.6615 25.1406 87.7045 26.2815C86.7475 27.4223 86.2947 28.8849 86.4614 30.2968L91.4163 29.3345ZM100.571 31.3141L100.618 26.3143C98.5535 26.4538 96.6907 27.853 95.9318 29.8339L100.571 31.3141ZM105.919 30.9527L110.793 31.6446C111.114 30.1503 110.756 28.6417 109.82 27.5376C108.883 26.4335 107.467 25.8514 105.965 25.9529L105.919 30.9527ZM91.531 25.5693L86.6287 25.0197C86.3548 26.4943 86.7381 27.9653 87.6754 29.0365C88.6128 30.1076 90.0077 30.6689 91.4846 30.5691L91.531 25.5693ZM100.63 24.9544L100.584 29.9542C101.96 29.8612 103.281 29.2024 104.233 28.1339C105.185 27.0653 105.684 25.6818 105.612 24.3108L100.63 24.9544ZM96.6443 33.2983C94.4825 33.4444 93.2182 32.8099 92.4671 32.0398C91.6665 31.219 91.0528 29.8281 91.0716 27.7988L81.0944 28.4731C81.0564 32.5635 82.308 36.483 85.0829 39.3279C87.9073 42.2236 91.9288 43.6103 96.5516 43.2979L96.6443 33.2983ZM91.0716 27.7988C91.1062 24.0666 93.398 21.8455 96.2337 21.6539L96.3264 11.6543C87.1894 12.2718 81.1725 20.0459 81.0944 28.4731L91.0716 27.7988ZM96.2337 21.6539C98.1176 21.5266 99.138 22.1056 99.8114 22.9308C100.607 23.906 101.301 25.7355 101.274 28.6684L111.251 27.9941C111.292 23.6073 110.287 19.3757 107.721 16.231C105.032 12.9363 101.027 11.3366 96.3264 11.6543L96.2337 21.6539ZM106.309 23.3315L91.4627 24.3347L91.37 34.3343L106.216 33.331L106.309 23.3315ZM86.4614 30.2968C86.7322 32.5915 87.5673 34.9627 89.4129 36.7254C91.339 38.5651 93.8851 39.2809 96.5506 39.1008L96.6433 29.1012C96.4059 29.1172 96.3393 29.0848 96.3816 29.0983C96.4342 29.1151 96.5116 29.1569 96.573 29.2155C96.689 29.3263 96.4702 29.2104 96.3713 28.3722L86.4614 30.2968ZM96.5506 39.1008C98.3676 38.978 100.232 38.4331 101.883 37.2217C103.547 36.0008 104.598 34.393 105.211 32.7943L95.9318 29.8339C95.927 29.8466 95.9526 29.7754 96.0368 29.6596C96.1253 29.5376 96.252 29.4034 96.4114 29.2864C96.7573 29.0326 96.9414 29.0811 96.6433 29.1012L96.5506 39.1008ZM100.525 36.3139L105.873 35.9525L105.965 25.9529L100.618 26.3143L100.525 36.3139ZM101.045 30.2608C100.894 30.9647 100.514 31.6262 99.8986 32.1468C99.299 32.654 98.2814 33.1877 96.6443 33.2983L96.5516 43.2979C104.023 42.793 109.463 37.8405 110.793 31.6446L101.045 30.2608ZM96.3673 15.8487C93.8644 16.0179 91.4386 16.97 89.5542 18.9553C87.7839 20.8205 86.9893 23.0781 86.6287 25.0197L96.4333 26.1189C96.5003 25.7582 96.5747 25.5561 96.6129 25.4706C96.6474 25.3935 96.6318 25.4566 96.5204 25.5739C96.4659 25.6313 96.3999 25.6894 96.3254 25.7419C96.251 25.7944 96.1839 25.8301 96.1334 25.8523C96.0305 25.8977 96.0522 25.8633 96.2746 25.8483L96.3673 15.8487ZM91.4846 30.5691L100.584 29.9542L100.677 19.9546L91.5773 20.5695L91.4846 30.5691ZM105.612 24.3108C105.491 21.9957 104.645 19.7625 102.947 18.1265C101.218 16.4609 98.8733 15.6794 96.3673 15.8487L96.2746 25.8483C96.2838 25.8477 96.2104 25.8529 96.0895 25.8114C95.9675 25.7695 95.8508 25.6982 95.7584 25.6092C95.5627 25.4206 95.6338 25.324 95.6482 25.598L105.612 24.3108ZM114.112 16.0087L119.101 15.6716C119.126 12.9103 116.913 10.8227 114.158 11.0089L114.112 16.0087ZM114.082 19.2886L109.093 19.6257C109.067 22.387 111.28 24.4745 114.035 24.2883L114.082 19.2886ZM114.201 19.2805L114.155 24.2802C115.996 24.1559 117.696 23.0256 118.579 21.3399L114.201 19.2805ZM120.538 15.4945L125.527 15.1574C125.546 13.0732 124.273 11.2949 122.333 10.6947L120.538 15.4945ZM120.494 20.2543L120.448 25.2541C123.203 25.0679 125.457 22.6785 125.483 19.9172L120.494 20.2543ZM120.374 20.2624L119.826 25.2707C119.993 25.2763 120.16 25.2735 120.328 25.2622L120.374 20.2624ZM114.121 36.5143L114.075 41.5141C116.83 41.3279 119.084 38.9385 119.11 36.1772L114.121 36.5143ZM108.694 36.8811L103.705 37.2182C103.68 39.9795 105.892 42.0671 108.647 41.8809L108.694 36.8811ZM108.884 16.362L108.93 11.3622C106.175 11.5484 103.921 13.9378 103.895 16.6991L108.884 16.362ZM109.123 16.3458L109.093 19.6257L119.07 18.9514L119.101 15.6716L109.123 16.3458ZM114.035 24.2883L114.155 24.2802L114.248 14.2807L114.128 14.2888L114.035 24.2883ZM118.579 21.3399C119.035 20.4692 119.266 20.3048 119.218 20.3434C119.175 20.3772 119.109 20.416 119.048 20.4385C118.998 20.4573 119.036 20.4328 119.216 20.4206L119.309 10.421C117.198 10.5636 115.177 11.2565 113.394 12.6766C111.729 14.0037 110.626 15.6882 109.824 17.221L118.579 21.3399ZM119.216 20.4206C119.313 20.414 119.369 20.412 119.396 20.4114C119.422 20.4108 119.404 20.4121 119.356 20.4094C119.305 20.4066 119.218 20.3995 119.107 20.3808C118.993 20.3617 118.87 20.3335 118.743 20.2943L122.333 10.6947C121.149 10.3285 120.051 10.3709 119.309 10.421L119.216 20.4206ZM115.549 15.8316L115.505 20.5914L125.483 19.9172L125.527 15.1574L115.549 15.8316ZM120.54 15.2545L120.421 15.2626L120.328 25.2622L120.448 25.2541L120.54 15.2545ZM120.922 15.254C118.206 15.1622 115.138 15.8913 112.698 18.2118C110.231 20.5577 109.254 23.7224 109.225 26.8519L119.203 26.1776C119.208 25.5822 119.3 25.2686 119.341 25.1591C119.375 25.0694 119.367 25.1333 119.259 25.2355C119.155 25.3349 119.082 25.3512 119.134 25.3342C119.203 25.3117 119.421 25.257 119.826 25.2707L120.922 15.254ZM109.225 26.8519L109.133 36.8514L119.11 36.1772L119.203 26.1776L109.225 26.8519ZM114.168 31.5145L108.74 31.8813L108.647 41.8809L114.075 41.5141L114.168 31.5145ZM113.682 36.544L113.873 16.0249L103.895 16.6991L103.705 37.2182L113.682 36.544ZM108.838 21.3618L114.066 21.0085L114.158 11.0089L108.93 11.3622L108.838 21.3618ZM129.828 35.4529L124.839 35.7901C124.813 38.5514 127.026 40.6389 129.781 40.4527L129.828 35.4529ZM130.093 6.85416L130.139 1.85438C127.384 2.04056 125.13 4.42998 125.104 7.19128L130.093 6.85416ZM135.88 6.46311L140.868 6.12599C140.894 3.36469 138.681 1.27714 135.926 1.46332L135.88 6.46311ZM135.659 30.2221L130.671 30.5592C130.645 33.3205 132.858 35.4081 135.613 35.2219L135.659 30.2221ZM149.069 29.3159L154.057 28.9788C154.083 26.2175 151.87 24.1299 149.115 24.3161L149.069 29.3159ZM149.024 34.1557L148.978 39.1555C151.733 38.9693 153.987 36.5799 154.013 33.8186L149.024 34.1557ZM134.816 35.1158L135.081 6.51705L125.104 7.19128L124.839 35.7901L134.816 35.1158ZM130.046 11.8539L135.833 11.4629L135.926 1.46332L130.139 1.85438L130.046 11.8539ZM130.891 6.80023L130.671 30.5592L140.648 29.885L140.868 6.12599L130.891 6.80023ZM135.613 35.2219L149.022 34.3157L149.115 24.3161L135.706 25.2223L135.613 35.2219ZM144.08 29.653L144.035 34.4928L154.013 33.8186L154.057 28.9788L144.08 29.653ZM149.07 29.1559L129.874 30.4532L129.781 40.4527L148.978 39.1555L149.07 29.1559ZM169.645 32.7622L169.599 37.762C172.354 37.5758 174.608 35.1864 174.634 32.4251L169.645 32.7622ZM164.417 33.1155L159.429 33.4526C159.403 36.2139 161.616 38.3014 164.371 38.1153L164.417 33.1155ZM164.44 30.7156L169.428 30.3785C169.454 27.6172 167.241 25.5296 164.486 25.7158L164.44 30.7156ZM164.32 30.7237L164.366 25.7239C162.79 25.8304 161.3 26.6772 160.346 28.0078L164.32 30.7237ZM151.517 13.4809L151.564 8.48116C148.809 8.66735 146.554 11.0568 146.529 13.8181L151.517 13.4809ZM156.905 13.1169L161.894 12.7797C161.919 10.0184 159.707 7.93089 156.951 8.11708L156.905 13.1169ZM164.408 12.6098L164.454 7.61005C161.699 7.79624 159.445 10.1857 159.419 12.947L164.408 12.6098ZM169.836 12.2431L174.824 11.9059C174.85 9.14463 172.637 7.05709 169.882 7.24327L169.836 12.2431ZM169.692 27.7624L164.464 28.1157L164.371 38.1153L169.599 37.762L169.692 27.7624ZM169.406 32.7784L169.428 30.3785L159.451 31.0527L159.429 33.4526L169.406 32.7784ZM164.486 25.7158L164.366 25.7239L164.273 35.7235L164.393 35.7154L164.486 25.7158ZM160.346 28.0078C159.91 28.6171 159.676 28.7781 159.59 28.8304C159.528 28.8679 159.261 29.0269 158.472 29.0802L158.379 39.0798C160.464 38.9389 162.437 38.4069 164.25 37.3083C166.039 36.2247 167.315 34.8045 168.293 33.4395L160.346 28.0078ZM158.472 29.0802C157.298 29.1596 156.945 28.8387 156.857 28.749C156.726 28.6168 156.367 28.1335 156.379 26.8232L146.402 27.4975C146.373 30.667 147.256 33.7973 149.516 36.0818C151.818 38.4088 155.004 39.3079 158.379 39.0798L158.472 29.0802ZM156.379 26.8232L156.506 13.1438L146.529 13.8181L146.402 27.4975L156.379 26.8232ZM151.471 18.4807L156.859 18.1166L156.951 8.11708L151.564 8.48116L151.471 18.4807ZM151.916 13.454L151.798 26.2134L161.775 25.5392L161.894 12.7797L151.916 13.454ZM151.798 26.2134C151.781 28.0626 152.163 30.3685 153.83 32.1539C155.594 34.043 157.994 34.5089 160.098 34.3667L160.191 24.3671C160.074 24.375 160.191 24.3492 160.444 24.4279C160.725 24.5154 161.062 24.6991 161.349 25.0066C161.91 25.6076 161.77 26.0899 161.775 25.5392L151.798 26.2134ZM160.098 34.3667C162.715 34.1899 165.168 32.9936 166.911 30.8813C168.586 28.8511 169.266 26.3975 169.287 24.1122L159.31 24.7864C159.306 25.221 159.186 25.1399 159.429 24.8455C159.551 24.6968 159.718 24.5603 159.903 24.4666C160.084 24.3749 160.199 24.3666 160.191 24.3671L160.098 34.3667ZM169.287 24.1122L169.397 12.2727L159.419 12.947L159.31 24.7864L169.287 24.1122ZM164.362 17.6096L169.789 17.2428L169.882 7.24327L164.454 7.61005L164.362 17.6096ZM164.847 12.5802L164.657 33.0993L174.634 32.4251L174.824 11.9059L164.847 12.5802ZM191.8 17.7141L191.753 22.7139C193.216 22.6151 194.611 21.8779 195.569 20.6975C196.527 19.517 196.952 18.0122 196.731 16.581L191.8 17.7141ZM186.492 18.0728L181.591 19.3839C182.036 21.6894 184.067 23.2333 186.445 23.0726L186.492 18.0728ZM186.712 24.3737L186.759 19.3739C184.299 19.5401 182.19 21.4785 181.79 23.9402L186.712 24.3737ZM191.941 24.0204L196.908 24.0958C197.036 22.6953 196.577 21.3498 195.642 20.3856C194.707 19.4214 193.381 18.9264 191.987 19.0206L191.941 24.0204ZM182.695 27.4832C180.739 27.6154 179.476 27.0211 178.68 26.2144C177.847 25.3704 177.224 23.9779 177.242 22.0157L167.265 22.6899C167.226 26.8474 168.568 30.7385 171.331 33.5389C174.131 36.3766 178.093 37.7875 182.603 37.4828L182.695 27.4832ZM177.242 22.0157C177.26 20.0381 177.911 18.5402 178.747 17.5775C179.542 16.6623 180.745 15.9429 182.524 15.8226L182.617 5.82306C178.17 6.12352 174.243 8.10917 171.45 11.3239C168.698 14.491 167.303 18.5478 167.265 22.6899L177.242 22.0157ZM182.524 15.8226C184.192 15.7099 185.142 16.1136 185.675 16.5302C186.212 16.9504 186.685 17.6631 186.868 18.8472L196.731 16.581C196.237 13.3739 194.749 10.4616 192.168 8.44426C189.583 6.42342 186.256 5.57711 182.617 5.82306L182.524 15.8226ZM191.846 12.7143L186.538 13.073L186.445 23.0726L191.753 22.7139L191.846 12.7143ZM191.392 16.7617C190.659 12.9584 187.465 9.85253 182.816 10.1667L182.723 20.1663C182.536 20.1789 182.21 20.1165 181.928 19.8863C181.676 19.6803 181.606 19.4629 181.591 19.3839L191.392 16.7617ZM182.816 10.1667C179.737 10.3748 176.937 11.8375 175.065 14.4745C173.355 16.8831 172.796 19.7324 172.772 22.3177L182.749 21.6435C182.755 20.9961 182.829 20.5297 182.911 20.223C182.993 19.9179 183.065 19.8305 183.038 19.8686C182.997 19.9266 182.891 20.04 182.735 20.1255C182.589 20.2055 182.552 20.1778 182.723 20.1663L182.816 10.1667ZM172.772 22.3177C172.749 24.8138 173.206 27.5704 174.814 29.7623C176.597 32.1943 179.373 33.344 182.523 33.1311L182.616 23.1315C182.448 23.1429 182.507 23.1093 182.675 23.1821C182.853 23.2589 182.966 23.3731 183.005 23.4274C183.03 23.461 182.957 23.3756 182.881 23.0658C182.805 22.7562 182.743 22.2901 182.749 21.6435L172.772 22.3177ZM182.523 33.1311C184.489 32.9982 186.632 32.326 188.441 30.7347C190.282 29.1154 191.282 26.979 191.635 24.8072L181.79 23.9402C181.773 24.0435 181.765 24.0053 181.83 23.8797C181.9 23.7454 182.022 23.5748 182.201 23.4172C182.583 23.0816 182.845 23.116 182.616 23.1315L182.523 33.1311ZM186.666 29.3735L191.894 29.0202L191.987 19.0206L186.759 19.3739L186.666 29.3735ZM186.973 23.9449C186.822 25.5968 185.693 27.2807 182.695 27.4832L182.603 37.4828C190.54 36.9464 196.26 31.2121 196.908 24.0958L186.973 23.9449ZM207.73 30.1885L203.457 33.096C204.351 34.5133 205.951 35.3054 207.684 35.1883L207.73 30.1885ZM202.07 21.2173L206.343 18.3098C205.547 17.0491 204.187 16.2742 202.656 16.2104C201.126 16.1466 199.598 16.8011 198.516 17.9836L202.07 21.2173ZM199.693 23.8163L196.139 20.5826C195.231 21.5758 194.716 22.8562 194.704 24.1534L199.693 23.8163ZM199.629 30.736L199.582 35.7358C202.337 35.5496 204.592 33.1602 204.617 30.3989L199.629 30.736ZM194.241 31.1001L189.252 31.4372C189.227 34.1985 191.439 36.2861 194.194 36.0999L194.241 31.1001ZM194.506 2.50131L194.552 -2.49847C191.797 -2.31229 189.543 0.0771224 189.517 2.83843L194.506 2.50131ZM199.894 2.13722L204.882 1.80011C204.908 -0.961198 202.695 -3.04875 199.94 -2.86256L199.894 2.13722ZM199.747 17.9765L194.758 18.3137C194.739 20.365 195.972 22.1236 197.868 22.7497C199.765 23.3758 201.939 22.7421 203.353 21.1515L199.747 17.9765ZM207.082 9.72604L207.128 4.72625C205.75 4.81939 204.428 5.47991 203.476 6.55109L207.082 9.72604ZM213.587 9.28644L217.137 12.5241C218.545 10.988 218.963 8.82295 218.199 7.02664C217.435 5.23032 215.637 4.15126 213.634 4.28665L213.587 9.28644ZM205.972 17.5958L202.422 14.3582C200.772 16.159 200.511 18.7791 201.796 20.6497L205.972 17.5958ZM214.315 29.7435L214.269 34.7433C216.108 34.619 217.808 33.4899 218.692 31.8055C219.575 30.1211 219.498 28.1549 218.492 26.6896L214.315 29.7435ZM212.003 27.281L206.343 18.3098L197.797 24.1248L203.457 33.096L212.003 27.281ZM198.516 17.9836L196.139 20.5826L203.246 27.05L205.623 24.4509L198.516 17.9836ZM194.704 24.1534L194.64 31.0731L204.617 30.3989L204.681 23.4792L194.704 24.1534ZM199.675 25.7362L194.287 26.1003L194.194 36.0999L199.582 35.7358L199.675 25.7362ZM199.229 30.763L199.495 2.16419L189.517 2.83843L189.252 31.4372L199.229 30.763ZM194.46 7.5011L199.847 7.13701L199.94 -2.86256L194.552 -2.49847L194.46 7.5011ZM194.905 2.47434L194.758 18.3137L204.735 17.6394L204.882 1.80011L194.905 2.47434ZM203.353 21.1515L210.689 12.901L203.476 6.55109L196.14 14.8016L203.353 21.1515ZM207.036 14.7258L213.541 14.2862L213.634 4.28665L207.128 4.72625L207.036 14.7258ZM210.037 6.04879L202.422 14.3582L209.522 20.8335L217.137 12.5241L210.037 6.04879ZM201.796 20.6497L210.139 32.7974L218.492 26.6896L210.149 14.5419L201.796 20.6497ZM214.361 24.7437L207.776 25.1887L207.684 35.1883L214.269 34.7433L214.361 24.7437ZM21.2931 77.764L16.3045 78.1011C16.2789 80.8624 18.4916 82.9499 21.2467 82.7638L21.2931 77.764ZM21.5582 49.1652L21.6045 44.1654C18.8494 44.3516 16.5951 46.741 16.5695 49.5023L21.5582 49.1652ZM27.4248 48.7688L31.7328 45.9179C30.8468 44.4665 29.228 43.6502 27.4711 43.769L27.4248 48.7688ZM36.7752 64.0862L41.0958 61.256C41.0916 61.2491 41.0874 61.2423 41.0833 61.2354L36.7752 64.0862ZM38.7336 67.9512L34.1531 70.2831C34.9354 72.0384 36.713 73.0844 38.6872 72.951L38.7336 67.9512ZM38.8134 67.9458L38.767 72.9456C40.1368 72.853 41.4516 72.2 42.403 71.1397C43.3543 70.0794 43.8585 68.7052 43.7972 67.3393L38.8134 67.9458ZM38.8388 47.9974L38.8851 42.9976C36.13 43.1838 33.8757 45.5732 33.8501 48.3345L38.8388 47.9974ZM44.5457 47.6118L49.5344 47.2746C49.56 44.5133 47.3472 42.4258 44.5921 42.612L44.5457 47.6118ZM44.2807 76.2105L44.2343 81.2103C46.9895 81.0241 49.2437 78.6347 49.2693 75.8734L44.2807 76.2105ZM38.6934 76.5881L34.4249 79.5025C35.32 80.9157 36.9177 81.7048 38.6471 81.5879L38.6934 76.5881ZM29.1021 61.4468L24.8103 64.3241C24.818 64.3365 24.8257 64.3489 24.8335 64.3612L29.1021 61.4468ZM27.1034 57.6246L31.6565 55.2324C30.8597 53.5116 29.0993 52.493 27.1497 52.6248L27.1034 57.6246ZM27.0236 57.6299L27.0699 52.6302C25.7007 52.7227 24.3865 53.3752 23.4353 54.4346C22.484 55.4941 21.9793 56.8675 22.0396 58.2329L27.0236 57.6299ZM27.0001 77.3783L26.9537 82.3781C29.7089 82.1919 31.9631 79.8025 31.9887 77.0412L27.0001 77.3783ZM26.2817 77.4269L26.5468 48.8281L16.5695 49.5023L16.3045 78.1011L26.2817 77.4269ZM21.5118 54.165L27.3784 53.7685L27.4711 43.769L21.6045 44.1654L21.5118 54.165ZM23.1167 51.6196L32.4671 66.937L41.0833 61.2354L31.7328 45.9179L23.1167 51.6196ZM32.4546 66.9164C32.7947 67.4803 33.2107 68.2928 33.5728 69.0417C33.7461 69.4002 33.8939 69.7165 33.9977 69.9419C34.0495 70.0543 34.0899 70.1431 34.1166 70.2022C34.13 70.2317 34.1399 70.2538 34.1461 70.2675C34.1492 70.2744 34.1513 70.2792 34.1525 70.2818C34.1531 70.2831 34.1534 70.2839 34.1535 70.2841C34.1536 70.2842 34.1536 70.2842 34.1535 70.284C34.1535 70.284 34.1534 70.2838 34.1533 70.2837C34.1533 70.2836 34.1532 70.2835 34.1532 70.2834C34.1531 70.2833 34.1531 70.2831 38.7336 67.9512C43.3141 65.6193 43.314 65.6191 43.3139 65.6189C43.3139 65.6188 43.3138 65.6186 43.3137 65.6185C43.3136 65.6182 43.3134 65.6178 43.3133 65.6175C43.3129 65.6167 43.3125 65.6158 43.3121 65.6148C43.3111 65.6127 43.31 65.6101 43.3085 65.6069C43.3057 65.6004 43.3018 65.5918 43.2969 65.5809C43.2872 65.5593 43.2736 65.529 43.2563 65.4909C43.2218 65.4147 43.1728 65.3069 43.1115 65.1739C42.9893 64.9087 42.8169 64.5396 42.6136 64.1191C42.2224 63.31 41.6591 62.19 41.0958 61.256L32.4546 66.9164ZM38.6872 72.951L38.767 72.9456L38.8597 62.946L38.7799 62.9514L38.6872 72.951ZM38.8134 67.9458C43.7972 67.3393 43.7972 67.3394 43.7972 67.3394C43.7972 67.3394 43.7972 67.3395 43.7973 67.3395C43.7973 67.3395 43.7973 67.3395 43.7972 67.3395C43.7972 67.3394 43.7972 67.3391 43.7972 67.3386C43.7972 67.3376 43.7971 67.336 43.797 67.3337C43.7968 67.329 43.7965 67.3216 43.796 67.3116C43.7951 67.2916 43.7938 67.2611 43.7921 67.221C43.7887 67.1409 43.7839 67.0229 43.778 66.8744C43.7663 66.5771 43.7509 66.1598 43.736 65.6826C43.7058 64.7109 43.68 63.5553 43.6883 62.6597L33.7111 63.3339C33.7009 64.4382 33.732 65.7571 33.7632 66.7599C33.7791 67.27 33.7955 67.715 33.808 68.0331C33.8143 68.1923 33.8196 68.3203 33.8234 68.4093C33.8252 68.4538 33.8267 68.4886 33.8278 68.5128C33.8283 68.5248 33.8287 68.5342 33.829 68.5409C33.8292 68.5442 33.8293 68.5468 33.8294 68.5487C33.8294 68.5497 33.8295 68.5504 33.8295 68.551C33.8295 68.5513 33.8295 68.5516 33.8295 68.5518C33.8295 68.5519 33.8295 68.552 33.8295 68.5521C33.8295 68.5522 33.8295 68.5523 38.8134 67.9458ZM43.6883 62.6597L43.8274 47.6603L33.8501 48.3345L33.7111 63.3339L43.6883 62.6597ZM38.7924 52.9972L44.4994 52.6116L44.5921 42.612L38.8851 42.9976L38.7924 52.9972ZM39.5571 47.9489L39.292 76.5477L49.2693 75.8734L49.5344 47.2746L39.5571 47.9489ZM44.327 71.2108L38.7397 71.5883L38.6471 81.5879L44.2343 81.2103L44.327 71.2108ZM42.9619 73.6737L33.3706 58.5325L24.8335 64.3612L34.4249 79.5025L42.9619 73.6737ZM33.3938 58.5695C33.0551 58.0232 32.6307 57.2198 32.2574 56.4732C32.0789 56.1163 31.9261 55.8005 31.8184 55.575C31.7647 55.4626 31.7227 55.3736 31.6948 55.3143C31.6809 55.2846 31.6705 55.2625 31.664 55.2485C31.6608 55.2416 31.6585 55.2367 31.6573 55.234C31.6566 55.2326 31.6562 55.2318 31.6561 55.2315C31.6561 55.2314 31.6561 55.2314 31.6561 55.2316C31.6562 55.2316 31.6562 55.2317 31.6563 55.2319C31.6563 55.232 31.6564 55.2321 31.6564 55.2321C31.6565 55.2323 31.6565 55.2324 27.1034 57.6246C22.5503 60.0167 22.5503 60.0169 22.5504 60.017C22.5505 60.0171 22.5505 60.0173 22.5506 60.0174C22.5507 60.0177 22.5509 60.0181 22.5511 60.0184C22.5514 60.0191 22.5518 60.02 22.5523 60.021C22.5532 60.023 22.5544 60.0256 22.5559 60.0288C22.5588 60.0351 22.5628 60.0437 22.5678 60.0544C22.5778 60.0758 22.5918 60.1059 22.6096 60.1437C22.6451 60.2193 22.6957 60.3265 22.7588 60.4585C22.8846 60.7219 23.062 61.0884 23.2702 61.5048C23.6702 62.3049 24.2452 63.4126 24.8103 64.3241L33.3938 58.5695ZM27.1497 52.6248L27.0699 52.6302L26.9772 62.6297L27.0571 62.6243L27.1497 52.6248ZM27.0236 57.6299C22.0396 58.2329 22.0396 58.2328 22.0396 58.2327C22.0396 58.2327 22.0396 58.2327 22.0396 58.2327C22.0396 58.2326 22.0396 58.2327 22.0396 58.2327C22.0396 58.2328 22.0396 58.2332 22.0396 58.2336C22.0396 58.2346 22.0397 58.2363 22.0398 58.2387C22.04 58.2434 22.0404 58.251 22.0408 58.2612C22.0417 58.2816 22.043 58.3125 22.0447 58.3532C22.0481 58.4345 22.0529 58.5542 22.0588 58.7047C22.0705 59.006 22.0859 59.4286 22.1007 59.9112C22.1309 60.8937 22.1566 62.0598 22.1482 62.9561L32.1255 62.2818C32.1357 61.1782 32.1048 59.8497 32.0737 58.8378C32.0579 58.3231 32.0415 57.8734 32.029 57.5518C32.0228 57.3908 32.0175 57.2614 32.0137 57.1714C32.0119 57.1264 32.0104 57.0912 32.0093 57.0668C32.0088 57.0547 32.0084 57.0452 32.0081 57.0385C32.0079 57.0351 32.0078 57.0325 32.0077 57.0306C32.0077 57.0296 32.0077 57.0289 32.0076 57.0283C32.0076 57.028 32.0076 57.0277 32.0076 57.0275C32.0076 57.0274 32.0076 57.0273 32.0076 57.0272C32.0076 57.0271 32.0076 57.027 27.0236 57.6299ZM22.1482 62.9561L22.0114 77.7154L31.9887 77.0412L32.1255 62.2818L22.1482 62.9561ZM27.0464 72.3785L21.3394 72.7642L21.2467 82.7638L26.9537 82.3781L27.0464 72.3785ZM67.4906 65.9279L67.4443 70.9277C70.1994 70.7415 72.4536 68.3521 72.4792 65.5908L67.4906 65.9279ZM52.6445 66.9312L52.6908 61.9314C51.2586 62.0282 49.8897 62.7373 48.9327 63.8781C47.9757 65.019 47.5229 66.4816 47.6895 67.8935L52.6445 66.9312ZM61.7994 68.9108L61.8458 63.911C59.7816 64.0505 57.9188 65.4496 57.16 67.4306L61.7994 68.9108ZM67.1472 68.5494L72.0211 69.2413C72.3417 67.747 71.9841 66.2384 71.0477 65.1343C70.1112 64.0302 68.6955 63.4481 67.1936 63.5496L67.1472 68.5494ZM52.7591 63.1659L47.8568 62.6163C47.5829 64.091 47.9662 65.562 48.9036 66.6331C49.8409 67.7043 51.2358 68.2655 52.7128 68.1657L52.7591 63.1659ZM61.8584 62.551L61.812 67.5508C63.1883 67.4578 64.5087 66.7991 65.4608 65.7305C66.413 64.662 66.9122 63.2785 66.8404 61.9075L61.8584 62.551ZM57.8724 70.895C55.7107 71.0411 54.4464 70.4065 53.6952 69.6365C52.8946 68.8156 52.2809 67.4248 52.2997 65.3955L42.3225 66.0698C42.2846 70.1602 43.5361 74.0797 46.311 76.9246C49.1354 79.8203 53.1569 81.207 57.7797 80.8946L57.8724 70.895ZM52.2997 65.3955C52.3343 61.6633 54.6262 59.4422 57.4618 59.2506L57.5545 49.251C48.4175 49.8684 42.4006 57.6425 42.3225 66.0698L52.2997 65.3955ZM57.4618 59.2506C59.3458 59.1232 60.3662 59.7023 61.0395 60.5275C61.8353 61.5027 62.5292 63.3322 62.502 66.265L72.4792 65.5908C72.5199 61.204 71.515 56.9724 68.9489 53.8277C66.2603 50.533 62.2556 48.9333 57.5545 49.251L57.4618 59.2506ZM67.5369 60.9281L52.6908 61.9314L52.5981 71.931L67.4443 70.9277L67.5369 60.9281ZM47.6895 67.8935C47.9604 70.1881 48.7954 72.5594 50.641 74.3221C52.5672 76.1617 55.1133 76.8776 57.7787 76.6974L57.8714 66.6979C57.6341 66.7139 57.5675 66.6814 57.6098 66.695C57.6623 66.7118 57.7398 66.7535 57.8011 66.8122C57.9171 66.9229 57.6984 66.8071 57.5994 65.9689L47.6895 67.8935ZM57.7787 76.6974C59.5958 76.5747 61.4606 76.0298 63.1116 74.8184C64.7755 73.5975 65.8264 71.9897 66.4389 70.3909L57.16 67.4306C57.1551 67.4433 57.1808 67.3721 57.2649 67.2562C57.3535 67.1343 57.4801 67.0001 57.6395 66.8831C57.9854 66.6293 58.1696 66.6777 57.8714 66.6979L57.7787 76.6974ZM61.7531 73.9106L67.1009 73.5492L67.1936 63.5496L61.8458 63.911L61.7531 73.9106ZM62.2734 67.8575C62.1224 68.5614 61.7422 69.2229 61.1268 69.7434C60.5272 70.2507 59.5095 70.7844 57.8724 70.895L57.7797 80.8946C65.2508 80.3897 70.6916 75.4371 72.0211 69.2413L62.2734 67.8575ZM57.5954 53.4454C55.0925 53.6146 52.6667 54.5667 50.7824 56.552C49.012 58.4172 48.2174 60.6748 47.8568 62.6163L57.6614 63.7156C57.7284 63.3549 57.8028 63.1528 57.8411 63.0673C57.8756 62.9901 57.8599 63.0532 57.7486 63.1706C57.6941 63.228 57.6281 63.2861 57.5536 63.3386C57.4791 63.391 57.4121 63.4268 57.3616 63.449C57.2587 63.4943 57.2803 63.46 57.5027 63.445L57.5954 53.4454ZM52.7128 68.1657L61.812 67.5508L61.9047 57.5513L52.8055 58.1662L52.7128 68.1657ZM66.8404 61.9075C66.7192 59.5923 65.8729 57.3592 64.175 55.7231C62.4465 54.0575 60.1015 53.2761 57.5954 53.4454L57.5027 63.445C57.5119 63.4444 57.4386 63.4495 57.3176 63.408C57.1956 63.3662 57.0789 63.2949 56.9865 63.2059C56.7908 63.0172 56.862 62.9207 56.8763 63.1946L66.8404 61.9075ZM67.277 74.6565L63.1924 72.1018C62.1287 73.7027 61.9931 75.6976 62.8403 77.2825C63.6876 78.8675 65.378 79.7815 67.2306 79.6563L67.277 74.6565ZM74.8408 63.2727L78.9254 65.8274C80.1154 64.0363 80.1322 61.7755 78.9676 60.1479L74.8408 63.2727ZM68.2653 54.0835L68.3117 49.0837C66.4558 49.2091 64.7437 50.3567 63.8675 52.0626C62.9913 53.7686 63.0957 55.7508 64.1386 57.2083L68.2653 54.0835ZM74.4512 53.6654L78.7173 50.7471C77.8216 49.3363 76.2252 48.5489 74.4976 48.6656L74.4512 53.6654ZM78.0284 59.2998L73.7624 62.2181C74.6581 63.6288 76.2545 64.4163 77.9821 64.2995L78.0284 59.2998ZM78.1083 59.2944L78.0619 64.2942C79.8339 64.1744 81.4817 63.1215 82.3907 61.5281L78.1083 59.2944ZM81.5949 53.1827L81.6413 48.1829C79.8692 48.3026 78.2215 49.3555 77.3125 50.9489L81.5949 53.1827ZM87.2221 52.8024L91.3553 55.2827C92.3842 53.6791 92.4932 51.7033 91.639 50.1399C90.7848 48.5764 89.1056 47.6785 87.2684 47.8026L87.2221 52.8024ZM80.7876 62.8308L76.6544 60.3505C75.5269 62.1078 75.5126 64.2945 76.618 65.8947L80.7876 62.8308ZM87.9897 73.2568L87.9434 78.2566C89.7854 78.1321 91.487 77.0004 92.3692 75.313C93.2514 73.6256 93.1707 71.6571 92.1593 70.1929L87.9897 73.2568ZM81.5245 73.6937L77.1471 76.427C78.014 77.9486 79.6709 78.8156 81.4781 78.6935L81.5245 73.6937ZM77.7961 67.1502L82.1735 64.4169C81.3066 62.8953 79.6497 62.0283 77.8425 62.1504L77.7961 67.1502ZM77.7163 67.1556L77.7627 62.1558C76.0778 62.2697 74.4989 63.2282 73.5646 64.7044L77.7163 67.1556ZM73.2234 74.2547L73.1771 79.2545C74.8619 79.1406 76.4409 78.1821 77.3751 76.7059L73.2234 74.2547ZM71.3615 77.2112L78.9254 65.8274L70.7562 60.7179L63.1924 72.1018L71.3615 77.2112ZM78.9676 60.1479L72.3921 50.9587L64.1386 57.2083L70.714 66.3974L78.9676 60.1479ZM68.219 59.0832L74.4049 58.6652L74.4976 48.6656L68.3117 49.0837L68.219 59.0832ZM70.1852 56.5837L73.7624 62.2181L82.2945 56.3815L78.7173 50.7471L70.1852 56.5837ZM77.9821 64.2995L78.0619 64.2942L78.1546 54.2946L78.0748 54.3L77.9821 64.2995ZM82.3907 61.5281L85.8774 55.4164L77.3125 50.9489L73.8258 57.0606L82.3907 61.5281ZM81.5486 58.1825L87.1758 57.8022L87.2684 47.8026L81.6413 48.1829L81.5486 58.1825ZM83.0889 50.3221L76.6544 60.3505L84.9208 65.3111L91.3553 55.2827L83.0889 50.3221ZM76.618 65.8947L83.8201 76.3207L92.1593 70.1929L84.9572 59.7669L76.618 65.8947ZM88.0361 68.257L81.5708 68.6939L81.4781 78.6935L87.9434 78.2566L88.0361 68.257ZM85.9019 70.9604L82.1735 64.4169L73.4187 69.8835L77.1471 76.427L85.9019 70.9604ZM77.8425 62.1504L77.7627 62.1558L77.67 72.1554L77.7498 72.15L77.8425 62.1504ZM73.5646 64.7044L69.0717 71.8035L77.3751 76.7059L81.868 69.6068L73.5646 64.7044ZM73.2697 69.2549L67.3233 69.6567L67.2306 79.6563L73.1771 79.2545L73.2697 69.2549ZM88.2513 56.3305L83.2627 56.6676C83.2371 59.4289 85.4498 61.5164 88.205 61.3302L88.2513 56.3305ZM88.2847 52.7306L88.331 47.7308C85.5759 47.917 83.3216 50.3064 83.296 53.0677L88.2847 52.7306ZM91.1182 52.5391L91.0719 57.5389C93.827 57.3527 96.0812 54.9633 96.1068 52.202L91.1182 52.5391ZM91.1775 46.1394L91.2239 41.1396C88.4687 41.3258 86.2145 43.7152 86.1889 46.4765L91.1775 46.1394ZM96.4854 45.7807L101.474 45.4436C101.5 42.6823 99.2869 40.5947 96.5318 40.7809L96.4854 45.7807ZM96.4261 52.1804L91.4375 52.5176C91.4119 55.2789 93.6246 57.3664 96.3798 57.1802L96.4261 52.1804ZM99.9381 51.9431L104.927 51.606C104.952 48.8447 102.74 46.7571 99.9844 46.9433L99.9381 51.9431ZM99.9047 55.5429L99.8584 60.5427C102.614 60.3565 104.868 57.9671 104.893 55.2058L99.9047 55.5429ZM96.3927 55.7803L96.4391 50.7805C93.6839 50.9667 91.4297 53.3561 91.4041 56.1174L96.3927 55.7803ZM99.9051 68.4143L104.894 68.0772C104.906 66.7135 104.363 65.4465 103.389 64.5698C102.415 63.6931 101.095 63.2828 99.7347 63.4339L99.9051 68.4143ZM99.868 72.4141L100.143 77.3818C102.769 77.0347 104.832 74.7133 104.857 72.077L99.868 72.4141ZM91.0848 56.139L96.0735 55.8019C96.0991 53.0406 93.8863 50.953 91.1312 51.1392L91.0848 56.139ZM93.2399 55.9933L93.2733 52.3935L83.296 53.0677L83.2627 56.6676L93.2399 55.9933ZM88.2383 57.7304L91.0719 57.5389L91.1645 47.5393L88.331 47.7308L88.2383 57.7304ZM96.1068 52.202L96.1661 45.8023L86.1889 46.4765L86.1296 52.8762L96.1068 52.202ZM91.1312 51.1392L96.4391 50.7805L96.5318 40.7809L91.2239 41.1396L91.1312 51.1392ZM91.4968 46.1178L91.4375 52.5176L101.415 51.8433L101.474 45.4436L91.4968 46.1178ZM96.3798 57.1802L99.8917 56.9429L99.9844 46.9433L96.4724 47.1806L96.3798 57.1802ZM94.9495 52.2802L94.9161 55.8801L104.893 55.2058L104.927 51.606L94.9495 52.2802ZM99.9511 50.5432L96.4391 50.7805L96.3464 60.7801L99.8584 60.5427L99.9511 50.5432ZM91.4041 56.1174L91.3033 66.9969L101.281 66.3227L101.381 55.4432L91.4041 56.1174ZM91.3033 66.9969C91.2878 68.6639 91.7523 70.7238 93.497 72.1722C95.1292 73.5271 97.0561 73.6435 98.262 73.562L98.3547 63.5624C98.3633 63.5618 99.275 63.4869 100.195 64.2505C101.227 65.1074 101.282 66.1756 101.281 66.3227L91.3033 66.9969ZM98.262 73.562C98.6809 73.5337 99.1423 73.4905 99.4731 73.4576C99.6441 73.4406 99.7919 73.4252 99.8977 73.414C99.9507 73.4083 99.9935 73.4037 100.024 73.4004C100.039 73.3987 100.051 73.3974 100.06 73.3965C100.064 73.396 100.068 73.3956 100.07 73.3953C100.072 73.3952 100.073 73.395 100.074 73.3949C100.074 73.3949 100.074 73.3949 100.075 73.3948C100.075 73.3948 100.075 73.3948 100.075 73.3948C100.075 73.3948 100.075 73.3948 100.075 73.3947C100.075 73.3947 100.075 73.3947 99.9051 68.4143C99.7347 63.4339 99.7348 63.4339 99.7348 63.4339C99.7348 63.4339 99.7349 63.4339 99.735 63.4339C99.735 63.4338 99.7351 63.4338 99.7351 63.4338C99.7352 63.4338 99.7353 63.4338 99.7353 63.4338C99.7353 63.4338 99.735 63.4338 99.7346 63.4339C99.7337 63.434 99.7319 63.4342 99.7294 63.4345C99.7243 63.435 99.716 63.4359 99.7047 63.4372C99.6822 63.4396 99.648 63.4433 99.6043 63.448C99.5167 63.4573 99.3925 63.4702 99.2492 63.4845C98.9512 63.5141 98.6143 63.5449 98.3547 63.5624L98.262 73.562ZM94.9165 68.7514L94.8794 72.7512L104.857 72.077L104.894 68.0772L94.9165 68.7514ZM99.868 72.4141C99.5931 67.4464 99.5933 67.4464 99.5936 67.4464C99.5937 67.4463 99.5939 67.4463 99.5941 67.4463C99.5944 67.4462 99.5947 67.4462 99.595 67.4462C99.5956 67.4461 99.5961 67.446 99.5965 67.446C99.5974 67.4459 99.5979 67.4458 99.5982 67.4458C99.5987 67.4457 99.5981 67.4458 99.5962 67.446C99.5925 67.4465 99.5841 67.4476 99.5711 67.4492C99.5451 67.4524 99.5005 67.4579 99.4381 67.4653C99.3132 67.4799 99.1168 67.5021 98.8541 67.5289C98.3283 67.5826 97.5375 67.6549 96.5213 67.7236L96.4287 77.7232C97.5676 77.6462 98.4733 77.5639 99.1053 77.4993C99.4213 77.4671 99.6692 77.4392 99.8437 77.4187C99.931 77.4084 100 77.4 100.05 77.3937C100.075 77.3906 100.095 77.388 100.111 77.386C100.119 77.385 100.125 77.3842 100.131 77.3835C100.133 77.3831 100.136 77.3828 100.138 77.3825C100.139 77.3824 100.14 77.3823 100.141 77.3822C100.141 77.3821 100.141 77.382 100.142 77.382C100.142 77.382 100.142 77.3819 100.142 77.3819C100.143 77.3819 100.143 77.3818 99.868 72.4141ZM96.5213 67.7236C96.1764 67.7469 95.9103 67.7295 95.7319 67.6977C95.553 67.6657 95.5458 67.6347 95.6293 67.6882C95.6746 67.7172 95.7364 67.765 95.8003 67.8352C95.8652 67.9065 95.9146 67.9815 95.9478 68.0484C96.0193 68.1926 95.9587 68.1785 95.9619 67.8413L85.9846 68.5156C85.9532 71.9021 87.3046 74.6469 89.8164 76.257C92.0361 77.6798 94.5922 77.8473 96.4287 77.7232L96.5213 67.7236ZM95.9619 67.8413L96.0735 55.8019L86.0962 56.4761L85.9846 68.5156L95.9619 67.8413ZM91.1312 51.1392L88.2976 51.3307L88.205 61.3302L91.0385 61.1388L91.1312 51.1392ZM108.428 48.1715L103.44 48.5086C103.414 51.2699 105.627 53.3575 108.382 53.1713L108.428 48.1715ZM108.474 43.2917L108.52 38.2919C105.765 38.4781 103.511 40.8675 103.485 43.6288L108.474 43.2917ZM131.421 41.741L136.41 41.4038C136.436 38.6425 134.223 36.555 131.468 36.7412L131.421 41.741ZM131.376 46.6208L131.33 51.6205C134.085 51.4344 136.339 49.0449 136.365 46.2836L131.376 46.6208ZM122.796 47.2006L122.842 42.2008C120.087 42.387 117.833 44.7764 117.807 47.5377L122.796 47.2006ZM122.576 70.9196L122.529 75.9194C125.285 75.7332 127.539 73.3438 127.564 70.5825L122.576 70.9196ZM116.789 71.3106L111.8 71.6477C111.775 74.4091 113.988 76.4966 116.743 76.3104L116.789 71.3106ZM117.009 47.5916L121.998 47.2545C122.023 44.4932 119.81 42.4057 117.055 42.5919L117.009 47.5916ZM113.417 47.8344L113.462 42.9546L103.485 43.6288L103.44 48.5086L113.417 47.8344ZM108.427 48.2915L131.375 46.7407L131.468 36.7412L108.52 38.2919L108.427 48.2915ZM126.433 42.0781L126.387 46.9579L136.365 46.2836L136.41 41.4038L126.433 42.0781ZM131.422 41.621L122.842 42.2008L122.749 52.2004L131.33 51.6205L131.422 41.621ZM117.807 47.5377L117.587 71.2567L127.564 70.5825L127.784 46.8635L117.807 47.5377ZM122.622 65.9198L116.835 66.3108L116.743 76.3104L122.529 75.9194L122.622 65.9198ZM121.778 70.9735L121.998 47.2545L112.02 47.9288L111.8 71.6477L121.778 70.9735ZM117.055 42.5919L108.475 43.1717L108.382 53.1713L116.963 52.5914L117.055 42.5919ZM133.644 70.1716L128.655 70.5088C128.629 73.2701 130.842 75.3576 133.597 75.1714L133.644 70.1716ZM133.834 49.6525L133.88 44.6527C131.125 44.8389 128.871 47.2283 128.845 49.9896L133.834 49.6525ZM139.262 49.2857L144.25 48.9486C144.276 46.1873 142.063 44.0998 139.308 44.286L139.262 49.2857ZM139.071 69.8049L139.025 74.8046C141.78 74.6185 144.034 72.229 144.06 69.4677L139.071 69.8049ZM133.864 46.4527L128.875 46.7898C128.849 49.5511 131.062 51.6386 133.817 51.4524L133.864 46.4527ZM133.909 41.5729L133.955 36.5731C131.2 36.7593 128.946 39.1487 128.92 41.91L133.909 41.5729ZM139.336 41.2061L144.325 40.869C144.351 38.1077 142.138 36.0201 139.383 36.2063L139.336 41.2061ZM139.291 46.0859L139.245 51.0857C142 50.8995 144.254 48.5101 144.28 45.7488L139.291 46.0859ZM138.632 69.8345L138.823 49.3154L128.845 49.9896L128.655 70.5088L138.632 69.8345ZM133.788 54.6523L139.215 54.2855L139.308 44.286L133.88 44.6527L133.788 54.6523ZM134.273 49.6229L134.083 70.142L144.06 69.4677L144.25 48.9486L134.273 49.6229ZM139.118 64.8051L133.69 65.1719L133.597 75.1714L139.025 74.8046L139.118 64.8051ZM138.852 46.1155L138.897 41.2357L128.92 41.91L128.875 46.7898L138.852 46.1155ZM133.862 46.5727L139.29 46.2059L139.383 36.2063L133.955 36.5731L133.862 46.5727ZM134.348 41.5432L134.303 46.423L144.28 45.7488L144.325 40.869L134.348 41.5432ZM139.338 41.0861L133.91 41.4529L133.817 51.4524L139.245 51.0857L139.338 41.0861ZM142.569 69.5685L137.58 69.9056C137.554 72.6669 139.767 74.7545 142.522 74.5683L142.569 69.5685ZM142.759 49.0494L142.805 44.0496C140.05 44.2358 137.796 46.6252 137.77 49.3865L142.759 49.0494ZM147.987 48.6961L152.976 48.359C153.001 45.5977 150.788 43.5101 148.033 43.6963L147.987 48.6961ZM147.961 51.456L142.973 51.7931C142.947 54.5544 145.16 56.6419 147.915 56.4558L147.961 51.456ZM148.081 51.4479L148.035 56.4477C149.793 56.3289 151.429 55.2916 152.343 53.7172L148.081 51.4479ZM159.692 50.9431L155.146 53.3495C155.946 55.0621 157.702 56.0742 159.646 55.9429L159.692 50.9431ZM159.772 50.9377L159.725 55.9375C161.446 55.8212 163.052 54.8251 163.978 53.3017L159.772 50.9377ZM172.5 67.5458L172.454 72.5456C175.209 72.3594 177.463 69.97 177.489 67.2087L172.5 67.5458ZM167.073 67.9126L162.084 68.2497C162.059 71.011 164.271 73.0986 167.026 72.9124L167.073 67.9126ZM160.248 68.3738L160.202 73.3736C162.957 73.1874 165.211 70.798 165.237 68.0367L160.248 68.3738ZM154.821 68.7406L149.832 69.0777C149.807 71.839 152.019 73.9265 154.774 73.7403L154.821 68.7406ZM147.996 69.2017L147.95 74.2015C150.705 74.0153 152.959 71.6259 152.985 68.8646L147.996 69.2017ZM147.557 69.2314L147.747 48.7123L137.77 49.3865L137.58 69.9056L147.557 69.2314ZM142.713 54.0492L147.941 53.6959L148.033 43.6963L142.805 44.0496L142.713 54.0492ZM142.998 49.0332L142.973 51.7931L152.95 51.1189L152.976 48.359L142.998 49.0332ZM147.915 56.4558L148.035 56.4477L148.127 46.4481L148.008 46.4562L147.915 56.4558ZM152.343 53.7172C152.524 53.4053 152.737 53.1871 152.953 53.0436C153.15 52.913 153.47 52.7626 154.012 52.726L154.105 42.7264C149.347 43.0479 145.778 45.8037 143.819 49.1786L152.343 53.7172ZM154.012 52.726C154.366 52.702 154.585 52.7787 154.725 52.8609C154.874 52.948 155.028 53.0982 155.146 53.3495L164.238 48.5366C162.485 44.7833 158.701 42.4158 154.105 42.7264L154.012 52.726ZM159.646 55.9429L159.725 55.9375L159.818 45.9379L159.738 45.9433L159.646 55.9429ZM163.978 53.3017C164.602 52.2727 165.263 51.9656 165.905 51.9223L165.998 41.9227C161.451 42.23 157.776 44.934 155.566 48.5737L163.978 53.3017ZM165.905 51.9223C166.939 51.8524 167.178 52.1357 167.206 52.1648C167.291 52.2536 167.652 52.7152 167.64 54.0835L177.617 53.4093C177.646 50.2978 176.824 47.2018 174.638 44.9258C172.394 42.5901 169.274 41.7013 165.998 41.9227L165.905 51.9223ZM167.64 54.0835L167.512 67.8829L177.489 67.2087L177.617 53.4093L167.64 54.0835ZM172.547 62.546L167.119 62.9128L167.026 72.9124L172.454 72.5456L172.547 62.546ZM172.061 67.5755L172.181 54.696L162.204 55.3703L162.084 68.2497L172.061 67.5755ZM172.181 54.696C172.199 52.7626 171.737 50.5344 170.1 48.8349C168.4 47.0708 166.128 46.5907 164.118 46.7266L164.026 56.7261C164.027 56.7261 164.025 56.7262 164.026 56.7261C164.027 56.7261 164.025 56.7262 164.026 56.7262C164.025 56.7262 164.025 56.7262 164.025 56.7262C164.025 56.7262 164.024 56.7262 164.024 56.7262C164.023 56.7263 164.021 56.7264 164.018 56.7264C164.014 56.7266 164.006 56.7267 163.997 56.7266C163.978 56.7264 163.949 56.7252 163.911 56.7214C163.835 56.7138 163.722 56.6953 163.583 56.6516C163.287 56.5581 162.958 56.3747 162.677 56.0836C162.106 55.4912 162.207 54.9838 162.204 55.3703L172.181 54.696ZM164.118 46.7266C161.58 46.8981 159.193 48.1007 157.532 50.2329C155.966 52.2443 155.39 54.6262 155.37 56.7914L165.347 56.1172C165.353 55.5625 165.496 55.6573 165.211 56.0231C165.061 56.2161 164.843 56.4099 164.575 56.5504C164.313 56.6885 164.107 56.7206 164.026 56.7261L164.118 46.7266ZM155.37 56.7914L155.26 68.7109L165.237 68.0367L165.347 56.1172L155.37 56.7914ZM160.295 63.374L154.867 63.7408L154.774 73.7403L160.202 73.3736L160.295 63.374ZM159.809 68.4034L159.929 55.524L149.951 56.1982L149.832 69.0777L159.809 68.4034ZM159.929 55.524C159.947 53.5906 159.485 51.3624 157.848 49.6629C156.148 47.8987 153.876 47.4187 151.866 47.5545L151.774 57.5541C151.78 57.5536 151.608 57.5668 151.331 57.4795C151.035 57.3861 150.706 57.2027 150.425 56.9115C149.854 56.3191 149.955 55.8117 149.951 56.1982L159.929 55.524ZM151.866 47.5545C149.328 47.7261 146.973 48.954 145.335 51.0276C143.767 53.011 143.139 55.3892 143.118 57.6194L153.095 56.9451C153.1 56.4554 153.231 56.5438 152.965 56.8803C152.828 57.0532 152.627 57.2334 152.371 57.3685C152.117 57.5029 151.9 57.5456 151.774 57.5541L151.866 47.5545ZM143.118 57.6194L143.008 69.5389L152.985 68.8646L153.095 56.9451L143.118 57.6194ZM148.043 64.2019L142.615 64.5687L142.522 74.5683L147.95 74.2015L148.043 64.2019ZM195.129 57.3025L195.083 62.3022C197.838 62.1161 200.092 59.7267 200.118 56.9653L195.129 57.3025ZM180.283 58.3057L180.329 53.3059C178.897 53.4027 177.528 54.1118 176.571 55.2527C175.614 56.3935 175.161 57.8561 175.328 59.268L180.283 58.3057ZM189.438 60.2853L189.484 55.2855C187.42 55.425 185.557 56.8242 184.799 58.8051L189.438 60.2853ZM194.786 59.9239L199.66 60.6158C199.98 59.1215 199.623 57.613 198.686 56.5089C197.75 55.4047 196.334 54.8226 194.832 54.9241L194.786 59.9239ZM180.398 54.5405L175.495 53.9909C175.222 55.4655 175.605 56.9365 176.542 58.0077C177.479 59.0788 178.874 59.6401 180.351 59.5403L180.398 54.5405ZM189.497 53.9256L189.451 58.9254C190.827 58.8324 192.147 58.1737 193.099 57.1051C194.052 56.0365 194.551 54.653 194.479 53.282L189.497 53.9256ZM185.511 62.2695C183.349 62.4156 182.085 61.7811 181.334 61.011C180.533 60.1902 179.92 58.7993 179.938 56.7701L169.961 57.4443C169.923 61.5348 171.175 65.4542 173.95 68.2992C176.774 71.1948 180.796 72.5815 185.418 72.2691L185.511 62.2695ZM179.938 56.7701C179.973 53.0378 182.265 50.8167 185.1 50.6251L185.193 40.6255C176.056 41.243 170.039 49.0171 169.961 57.4443L179.938 56.7701ZM185.1 50.6251C186.984 50.4978 188.005 51.0769 188.678 51.902C189.474 52.8772 190.168 54.7067 190.141 57.6396L200.118 56.9653C200.158 52.5785 199.154 48.3469 196.587 45.2022C193.899 41.9075 189.894 40.3078 185.193 40.6255L185.1 50.6251ZM195.176 52.3027L180.329 53.3059L180.237 63.3055L195.083 62.3022L195.176 52.3027ZM175.328 59.268C175.599 61.5627 176.434 63.9339 178.28 65.6966C180.206 67.5363 182.752 68.2521 185.417 68.072L185.51 58.0724C185.273 58.0885 185.206 58.056 185.248 58.0695C185.301 58.0863 185.378 58.1281 185.44 58.1867C185.556 58.2975 185.337 58.1817 185.238 57.3434L175.328 59.268ZM185.417 68.072C187.234 67.9492 189.099 67.4044 190.75 66.193C192.414 64.972 193.465 63.3642 194.077 61.7655L184.799 58.8051C184.794 58.8178 184.819 58.7466 184.903 58.6308C184.992 58.5088 185.119 58.3746 185.278 58.2576C185.624 58.0039 185.808 58.0523 185.51 58.0724L185.417 68.072ZM189.392 65.2851L194.739 64.9237L194.832 54.9241L189.484 55.2855L189.392 65.2851ZM189.912 59.2321C189.761 59.9359 189.381 60.5974 188.765 61.118C188.166 61.6252 187.148 62.1589 185.511 62.2695L185.418 72.2691C192.889 71.7642 198.33 66.8117 199.66 60.6158L189.912 59.2321ZM185.234 44.82C182.731 44.9891 180.305 45.9412 178.421 47.9266C176.651 49.7918 175.856 52.0493 175.495 53.9909L185.3 55.0901C185.367 54.7294 185.441 54.5273 185.48 54.4418C185.514 54.3647 185.499 54.4278 185.387 54.5451C185.333 54.6025 185.267 54.6606 185.192 54.7131C185.118 54.7656 185.051 54.8013 185 54.8236C184.897 54.8689 184.919 54.8346 185.141 54.8195L185.234 44.82ZM180.351 59.5403L189.451 58.9254L189.543 48.9258L180.444 49.5407L180.351 59.5403ZM194.479 53.282C194.358 50.9669 193.512 48.7338 191.814 47.0977C190.085 45.4321 187.74 44.6506 185.234 44.82L185.141 54.8195C185.15 54.8189 185.077 54.8241 184.956 54.7826C184.834 54.7407 184.717 54.6694 184.625 54.5804C184.429 54.3918 184.501 54.2952 184.515 54.5692L194.479 53.282ZM199.633 57.3578L194.669 58.2357C194.922 60.7532 197.041 62.5296 199.587 62.3576L199.633 57.3578ZM198.246 43.5409L193.257 43.878C193.256 44.0593 193.264 44.2399 193.282 44.4188L198.246 43.5409ZM198.304 37.2212L198.351 32.2214C195.596 32.4076 193.341 34.797 193.316 37.5583L198.304 37.2212ZM203.972 36.8382L208.96 36.5011C208.986 33.7398 206.773 31.6523 204.018 31.8384L203.972 36.8382ZM203.913 43.158L208.867 43.3656C208.888 43.184 208.9 43.0022 208.902 42.8208L203.913 43.158ZM202.267 57.1798L202.221 62.1796C204.767 62.0076 206.922 59.9423 207.221 57.3874L202.267 57.1798ZM197.96 65.8254L192.971 66.1625C192.945 68.9238 195.158 71.0113 197.913 70.8251L197.96 65.8254ZM198.013 60.0256L198.06 55.0258C195.304 55.212 193.05 57.6014 193.025 60.3627L198.013 60.0256ZM203.84 59.6319L208.829 59.2947C208.854 56.5334 206.641 54.4459 203.886 54.6321L203.84 59.6319ZM203.786 65.4316L203.74 70.4314C206.495 70.2452 208.749 67.8558 208.775 65.0945L203.786 65.4316ZM204.598 56.48L203.21 42.6631L193.282 44.4188L194.669 58.2357L204.598 56.48ZM203.234 43.2038L203.293 36.8841L193.316 37.5583L193.257 43.878L203.234 43.2038ZM198.258 42.221L203.925 41.838L204.018 31.8384L198.351 32.2214L198.258 42.221ZM198.983 37.1753L198.924 43.4951L208.902 42.8208L208.96 36.5011L198.983 37.1753ZM198.959 42.9504L197.313 56.9722L207.221 57.3874L208.867 43.3656L198.959 42.9504ZM202.314 52.1801L199.68 52.3581L199.587 62.3576L202.221 62.1796L202.314 52.1801ZM202.948 65.4882L203.002 59.6885L193.025 60.3627L192.971 66.1625L202.948 65.4882ZM197.967 65.0254L203.794 64.6316L203.886 54.6321L198.06 55.0258L197.967 65.0254ZM198.851 59.969L198.798 65.7687L208.775 65.0945L208.829 59.2947L198.851 59.969ZM203.833 60.4318L198.006 60.8256L197.913 70.8251L203.74 70.4314L203.833 60.4318Z" fill="white" mask="url(#path-2-outside-1_467_3398)"/>
</svg>
