<svg width="229" height="85" viewBox="0 0 229 85" fill="none" xmlns="http://www.w3.org/2000/svg">
<mask id="path-1-outside-1_2638_81307" maskUnits="userSpaceOnUse" x="32.5423" y="2.19455" width="161.264" height="79.9242" fill="black">
<rect fill="white" x="32.5423" y="2.19455" width="161.264" height="79.9242"/>
<path d="M37.9445 39.7793L38.142 18.3302L47.7199 17.6787C50.0246 17.5219 51.7852 17.9717 52.8836 18.8864C54.0412 19.8569 54.5681 21.1102 54.5526 22.7901C54.5324 24.98 53.1726 26.4816 51.1609 27.308L51.16 27.398C53.5182 27.9271 55.1162 29.7971 55.0919 32.437C55.0734 34.4469 54.4322 35.8696 53.1651 37.035C51.928 38.1985 50.0366 38.9567 47.7618 39.1115L37.9445 39.7793ZM42.3729 29.8845L42.3176 35.8842L47.3161 35.5442C49.4113 35.4017 50.6791 34.1462 50.6951 32.4063C50.7139 30.3664 49.2271 29.4182 47.2516 29.5526L42.3729 29.8845ZM42.4024 26.6746L47.1016 26.355C48.9872 26.2267 50.2825 25.2392 50.298 23.5592C50.3126 21.9693 49.1539 21.1188 47.2383 21.2491L42.4494 21.5748L42.4024 26.6746ZM64.7589 38.4049C59.6706 38.7511 56.8301 35.3767 56.8724 30.7869C56.9144 26.2271 60.0299 22.4775 64.5195 22.1721C69.4581 21.8361 72.0572 25.4368 72.0066 30.9265L60.8724 31.684C61.1499 34.0335 62.4533 35.4139 64.7579 35.2571C66.3443 35.1492 67.2788 34.3661 67.7385 33.1656L71.7492 32.8928C71.1554 35.6613 68.7097 38.1361 64.7589 38.4049ZM64.5503 25.3179C62.3953 25.4645 61.3359 26.8257 60.9582 28.86L67.7824 28.3958C67.6807 26.454 66.4061 25.1916 64.5503 25.3179ZM72.757 24.7296L72.7819 22.0297L74.907 21.8852L74.9512 17.0854L78.932 16.8146L78.8878 21.6144L81.5217 21.4352L81.4968 24.1351L78.8629 24.3142L78.7878 32.4739C78.7773 33.6138 79.4023 33.9611 80.3002 33.9C80.809 33.8654 81.4977 33.7885 81.4977 33.7885L81.4701 36.7884C81.4701 36.7884 80.5417 36.9115 78.9254 37.0215C76.95 37.1559 74.7722 36.5245 74.799 33.6147L74.8821 24.585L72.757 24.7296ZM82.4027 24.0734L82.4276 21.3736L84.5527 21.229L84.5969 16.4292L88.5777 16.1584L88.5335 20.9582L91.1674 20.779L91.1425 23.4789L88.5086 23.6581L88.4335 31.8177C88.423 32.9577 89.0479 33.3049 89.9459 33.2438C90.4547 33.2092 91.1434 33.1324 91.1434 33.1324L91.1158 36.1323C91.1158 36.1323 90.1873 36.2554 88.5711 36.3653C86.5956 36.4997 84.4179 35.8684 84.4447 32.9585L84.5278 23.9289L82.4027 24.0734ZM100.185 35.995C95.0966 36.3411 92.2561 32.9667 92.2983 28.3769C92.3403 23.8171 95.4558 20.0676 99.9454 19.7621C104.884 19.4262 107.483 23.0269 107.433 28.5166L96.2983 29.2741C96.5758 31.6236 97.8792 33.0039 100.184 32.8472C101.77 32.7392 102.705 31.9562 103.164 30.7557L107.175 30.4828C106.581 33.2514 104.136 35.7262 100.185 35.995ZM99.9763 22.9079C97.8213 23.0545 96.7618 24.4158 96.3841 26.4501L103.208 25.9859C103.107 24.0441 101.832 22.7817 99.9763 22.9079ZM113.319 19.2721L113.296 21.732L113.386 21.7259C114.33 19.9228 115.386 18.9516 117.182 18.8295C117.631 18.7989 117.9 18.8106 118.138 18.8843L118.106 22.4541L118.016 22.4602C115.354 22.3715 113.426 23.9117 113.396 27.1516L113.327 34.6513L109.256 34.9282L109.398 19.5388L113.319 19.2721ZM125.106 33.85L125.304 12.4009L129.644 12.1056L129.48 29.9249L139.537 29.2407L139.503 32.8706L125.106 33.85ZM154.969 31.8185L151.048 32.0852L151.064 30.2853L150.975 30.2914C149.914 31.7726 148.709 32.664 146.554 32.8106C143.142 33.0428 141.247 30.9832 141.278 27.6233L141.372 17.3637L145.413 17.0889L145.325 26.6585C145.308 28.4584 146.107 29.3934 147.843 29.2753C149.759 29.145 150.939 27.6256 150.958 25.5857L151.04 16.7061L155.11 16.4292L154.969 31.8185ZM164.721 31.6048C159.872 31.9346 156.882 28.6004 156.924 24.0106C156.966 19.4208 159.992 15.6774 164.661 15.3597C168.642 15.0889 171.075 17.2319 171.583 20.5251L167.602 20.7959C167.345 19.4643 166.307 18.5156 164.811 18.6174C162.356 18.7843 161.082 20.7598 161.055 23.7296C161.028 26.6395 162.177 28.51 164.661 28.341C166.308 28.229 167.483 27.2797 167.768 25.5214L171.689 25.2547C171.39 28.5429 168.822 31.3258 164.721 31.6048ZM183.531 29.8755L179.286 23.149L177.503 25.099L177.455 30.2888L173.415 30.5637L173.612 9.11458L177.653 8.83971L177.543 20.7192L183.044 14.5289L187.923 14.197L182.212 20.4316L188.47 29.5395L183.531 29.8755ZM46.1334 75.1982L46.3309 53.7491L50.7307 53.4498L57.7441 64.9347C58.4217 66.0578 59.213 67.8327 59.213 67.8327L59.2729 67.8287C59.2729 67.8287 59.1736 65.6169 59.1874 64.117L59.291 52.8675L63.5711 52.5763L63.3736 74.0254L59.1833 74.3104L51.9892 62.9577C51.3113 61.8646 50.4901 60.0917 50.4901 60.0917L50.4303 60.0958C50.4303 60.0958 50.5293 62.3375 50.5155 63.8375L50.4135 74.907L46.1334 75.1982ZM73.5324 73.784C68.4441 74.1301 65.6036 70.7558 65.6459 66.166C65.6879 61.6061 68.8033 57.8566 73.293 57.5512C78.2315 57.2152 80.8307 60.8159 80.7801 66.3056L69.6458 67.0631C69.9233 69.4126 71.2268 70.793 73.5314 70.6362C75.1178 70.5283 76.0522 69.7452 76.512 68.5447L80.5227 68.2718C79.9289 71.0404 77.4832 73.5152 73.5324 73.784ZM73.3238 60.697C71.1688 60.8436 70.1093 62.2048 69.7317 64.2391L76.5559 63.7749C76.4541 61.8331 75.1795 60.5707 73.3238 60.697ZM80.6203 72.8521L86.2925 64.3117L81.3606 57.4221L85.9999 57.1065L88.683 61.331L88.7428 61.3269L91.3575 56.742L95.5777 56.4549L90.7524 63.9784L96.1544 71.7954L91.3056 72.1252L88.5091 67.2189L88.4493 67.223L85.08 72.5488L80.6203 72.8521ZM96.3498 59.1006L96.3746 56.4007L98.4997 56.2561L98.5439 51.4563L102.525 51.1855L102.481 55.9853L105.114 55.8062L105.09 58.506L102.456 58.6852L102.381 66.8449C102.37 67.9848 102.995 68.3321 103.893 68.271C104.402 68.2364 105.09 68.1595 105.09 68.1595L105.063 71.1594C105.063 71.1594 104.134 71.2825 102.518 71.3925C100.543 71.5269 98.3649 70.8955 98.3917 67.9856L98.4749 58.956L96.3498 59.1006ZM111.482 52.9746L111.516 49.3148L128.726 48.144L128.692 51.8038L122.257 52.2416L122.093 70.0309L117.753 70.3261L117.917 52.5368L111.482 52.9746ZM130.394 69.4662L130.536 54.0768L134.606 53.7999L134.464 69.1893L130.394 69.4662ZM130.558 51.6769L130.591 48.0171L134.662 47.7402L134.628 51.4L130.558 51.6769ZM137.087 69.0108L137.229 53.6215L141.15 53.3548L141.131 55.4247L141.221 55.4186C142.072 53.9516 143.578 52.7699 145.703 52.6253C147.649 52.493 149.195 53.467 149.929 55.0361L149.989 55.032C151.052 53.2808 152.677 52.1509 154.623 52.0185C157.855 51.7986 159.662 53.7743 159.631 57.1342L159.535 67.4838L155.465 67.7607L155.554 58.1011C155.57 56.3612 154.71 55.5202 153.214 55.6221C151.508 55.7381 150.448 57.1293 150.429 59.1692L150.347 68.1089L146.276 68.3858L146.365 58.7262C146.381 56.9862 145.521 56.1453 144.025 56.2471C142.379 56.3591 141.259 57.7544 141.24 59.7943L141.158 68.7339L137.087 69.0108ZM169.258 67.272C164.17 67.6182 161.33 64.2438 161.372 59.654C161.414 55.0942 164.529 51.3446 169.019 51.0392C173.958 50.7032 176.557 54.3039 176.506 59.7937L165.372 60.5511C165.649 62.9006 166.953 64.281 169.257 64.1242C170.844 64.0163 171.778 63.2332 172.238 62.0327L176.249 61.7599C175.655 64.5285 173.209 67.0033 169.258 67.272ZM169.05 54.185C166.895 54.3316 165.835 55.6928 165.458 57.7272L172.282 57.2629C172.18 55.3211 170.906 54.0588 169.05 54.185ZM179.884 59.8337L178.843 49.4715L178.887 44.7317L183.137 44.4426L183.093 49.1824L181.86 59.6993L179.884 59.8337ZM178.629 66.1849L178.669 61.8351L183.039 61.5378L182.999 65.8876L178.629 66.1849Z"/>
</mask>
<path d="M37.9445 39.7793L38.142 18.3302L47.7199 17.6787C50.0246 17.5219 51.7852 17.9717 52.8836 18.8864C54.0412 19.8569 54.5681 21.1102 54.5526 22.7901C54.5324 24.98 53.1726 26.4816 51.1609 27.308L51.16 27.398C53.5182 27.9271 55.1162 29.7971 55.0919 32.437C55.0734 34.4469 54.4322 35.8696 53.1651 37.035C51.928 38.1985 50.0366 38.9567 47.7618 39.1115L37.9445 39.7793ZM42.3729 29.8845L42.3176 35.8842L47.3161 35.5442C49.4113 35.4017 50.6791 34.1462 50.6951 32.4063C50.7139 30.3664 49.2271 29.4182 47.2516 29.5526L42.3729 29.8845ZM42.4024 26.6746L47.1016 26.355C48.9872 26.2267 50.2825 25.2392 50.298 23.5592C50.3126 21.9693 49.1539 21.1188 47.2383 21.2491L42.4494 21.5748L42.4024 26.6746ZM64.7589 38.4049C59.6706 38.7511 56.8301 35.3767 56.8724 30.7869C56.9144 26.2271 60.0299 22.4775 64.5195 22.1721C69.4581 21.8361 72.0572 25.4368 72.0066 30.9265L60.8724 31.684C61.1499 34.0335 62.4533 35.4139 64.7579 35.2571C66.3443 35.1492 67.2788 34.3661 67.7385 33.1656L71.7492 32.8928C71.1554 35.6613 68.7097 38.1361 64.7589 38.4049ZM64.5503 25.3179C62.3953 25.4645 61.3359 26.8257 60.9582 28.86L67.7824 28.3958C67.6807 26.454 66.4061 25.1916 64.5503 25.3179ZM72.757 24.7296L72.7819 22.0297L74.907 21.8852L74.9512 17.0854L78.932 16.8146L78.8878 21.6144L81.5217 21.4352L81.4968 24.1351L78.8629 24.3142L78.7878 32.4739C78.7773 33.6138 79.4023 33.9611 80.3002 33.9C80.809 33.8654 81.4977 33.7885 81.4977 33.7885L81.4701 36.7884C81.4701 36.7884 80.5417 36.9115 78.9254 37.0215C76.95 37.1559 74.7722 36.5245 74.799 33.6147L74.8821 24.585L72.757 24.7296ZM82.4027 24.0734L82.4276 21.3736L84.5527 21.229L84.5969 16.4292L88.5777 16.1584L88.5335 20.9582L91.1674 20.779L91.1425 23.4789L88.5086 23.6581L88.4335 31.8177C88.423 32.9577 89.0479 33.3049 89.9459 33.2438C90.4547 33.2092 91.1434 33.1324 91.1434 33.1324L91.1158 36.1323C91.1158 36.1323 90.1873 36.2554 88.5711 36.3653C86.5956 36.4997 84.4179 35.8684 84.4447 32.9585L84.5278 23.9289L82.4027 24.0734ZM100.185 35.995C95.0966 36.3411 92.2561 32.9667 92.2983 28.3769C92.3403 23.8171 95.4558 20.0676 99.9454 19.7621C104.884 19.4262 107.483 23.0269 107.433 28.5166L96.2983 29.2741C96.5758 31.6236 97.8792 33.0039 100.184 32.8472C101.77 32.7392 102.705 31.9562 103.164 30.7557L107.175 30.4828C106.581 33.2514 104.136 35.7262 100.185 35.995ZM99.9763 22.9079C97.8213 23.0545 96.7618 24.4158 96.3841 26.4501L103.208 25.9859C103.107 24.0441 101.832 22.7817 99.9763 22.9079ZM113.319 19.2721L113.296 21.732L113.386 21.7259C114.33 19.9228 115.386 18.9516 117.182 18.8295C117.631 18.7989 117.9 18.8106 118.138 18.8843L118.106 22.4541L118.016 22.4602C115.354 22.3715 113.426 23.9117 113.396 27.1516L113.327 34.6513L109.256 34.9282L109.398 19.5388L113.319 19.2721ZM125.106 33.85L125.304 12.4009L129.644 12.1056L129.48 29.9249L139.537 29.2407L139.503 32.8706L125.106 33.85ZM154.969 31.8185L151.048 32.0852L151.064 30.2853L150.975 30.2914C149.914 31.7726 148.709 32.664 146.554 32.8106C143.142 33.0428 141.247 30.9832 141.278 27.6233L141.372 17.3637L145.413 17.0889L145.325 26.6585C145.308 28.4584 146.107 29.3934 147.843 29.2753C149.759 29.145 150.939 27.6256 150.958 25.5857L151.04 16.7061L155.11 16.4292L154.969 31.8185ZM164.721 31.6048C159.872 31.9346 156.882 28.6004 156.924 24.0106C156.966 19.4208 159.992 15.6774 164.661 15.3597C168.642 15.0889 171.075 17.2319 171.583 20.5251L167.602 20.7959C167.345 19.4643 166.307 18.5156 164.811 18.6174C162.356 18.7843 161.082 20.7598 161.055 23.7296C161.028 26.6395 162.177 28.51 164.661 28.341C166.308 28.229 167.483 27.2797 167.768 25.5214L171.689 25.2547C171.39 28.5429 168.822 31.3258 164.721 31.6048ZM183.531 29.8755L179.286 23.149L177.503 25.099L177.455 30.2888L173.415 30.5637L173.612 9.11458L177.653 8.83971L177.543 20.7192L183.044 14.5289L187.923 14.197L182.212 20.4316L188.47 29.5395L183.531 29.8755ZM46.1334 75.1982L46.3309 53.7491L50.7307 53.4498L57.7441 64.9347C58.4217 66.0578 59.213 67.8327 59.213 67.8327L59.2729 67.8287C59.2729 67.8287 59.1736 65.6169 59.1874 64.117L59.291 52.8675L63.5711 52.5763L63.3736 74.0254L59.1833 74.3104L51.9892 62.9577C51.3113 61.8646 50.4901 60.0917 50.4901 60.0917L50.4303 60.0958C50.4303 60.0958 50.5293 62.3375 50.5155 63.8375L50.4135 74.907L46.1334 75.1982ZM73.5324 73.784C68.4441 74.1301 65.6036 70.7558 65.6459 66.166C65.6879 61.6061 68.8033 57.8566 73.293 57.5512C78.2315 57.2152 80.8307 60.8159 80.7801 66.3056L69.6458 67.0631C69.9233 69.4126 71.2268 70.793 73.5314 70.6362C75.1178 70.5283 76.0522 69.7452 76.512 68.5447L80.5227 68.2718C79.9289 71.0404 77.4832 73.5152 73.5324 73.784ZM73.3238 60.697C71.1688 60.8436 70.1093 62.2048 69.7317 64.2391L76.5559 63.7749C76.4541 61.8331 75.1795 60.5707 73.3238 60.697ZM80.6203 72.8521L86.2925 64.3117L81.3606 57.4221L85.9999 57.1065L88.683 61.331L88.7428 61.3269L91.3575 56.742L95.5777 56.4549L90.7524 63.9784L96.1544 71.7954L91.3056 72.1252L88.5091 67.2189L88.4493 67.223L85.08 72.5488L80.6203 72.8521ZM96.3498 59.1006L96.3746 56.4007L98.4997 56.2561L98.5439 51.4563L102.525 51.1855L102.481 55.9853L105.114 55.8062L105.09 58.506L102.456 58.6852L102.381 66.8449C102.37 67.9848 102.995 68.3321 103.893 68.271C104.402 68.2364 105.09 68.1595 105.09 68.1595L105.063 71.1594C105.063 71.1594 104.134 71.2825 102.518 71.3925C100.543 71.5269 98.3649 70.8955 98.3917 67.9856L98.4749 58.956L96.3498 59.1006ZM111.482 52.9746L111.516 49.3148L128.726 48.144L128.692 51.8038L122.257 52.2416L122.093 70.0309L117.753 70.3261L117.917 52.5368L111.482 52.9746ZM130.394 69.4662L130.536 54.0768L134.606 53.7999L134.464 69.1893L130.394 69.4662ZM130.558 51.6769L130.591 48.0171L134.662 47.7402L134.628 51.4L130.558 51.6769ZM137.087 69.0108L137.229 53.6215L141.15 53.3548L141.131 55.4247L141.221 55.4186C142.072 53.9516 143.578 52.7699 145.703 52.6253C147.649 52.493 149.195 53.467 149.929 55.0361L149.989 55.032C151.052 53.2808 152.677 52.1509 154.623 52.0185C157.855 51.7986 159.662 53.7743 159.631 57.1342L159.535 67.4838L155.465 67.7607L155.554 58.1011C155.57 56.3612 154.71 55.5202 153.214 55.6221C151.508 55.7381 150.448 57.1293 150.429 59.1692L150.347 68.1089L146.276 68.3858L146.365 58.7262C146.381 56.9862 145.521 56.1453 144.025 56.2471C142.379 56.3591 141.259 57.7544 141.24 59.7943L141.158 68.7339L137.087 69.0108ZM169.258 67.272C164.17 67.6182 161.33 64.2438 161.372 59.654C161.414 55.0942 164.529 51.3446 169.019 51.0392C173.958 50.7032 176.557 54.3039 176.506 59.7937L165.372 60.5511C165.649 62.9006 166.953 64.281 169.257 64.1242C170.844 64.0163 171.778 63.2332 172.238 62.0327L176.249 61.7599C175.655 64.5285 173.209 67.0033 169.258 67.272ZM169.05 54.185C166.895 54.3316 165.835 55.6928 165.458 57.7272L172.282 57.2629C172.18 55.3211 170.906 54.0588 169.05 54.185ZM179.884 59.8337L178.843 49.4715L178.887 44.7317L183.137 44.4426L183.093 49.1824L181.86 59.6993L179.884 59.8337ZM178.629 66.1849L178.669 61.8351L183.039 61.5378L182.999 65.8876L178.629 66.1849Z" fill="black"/>
<path d="M37.9445 39.7793L32.9561 40.1187C32.9306 42.88 35.1434 44.9665 37.8985 44.7791L37.9445 39.7793ZM38.142 18.3302L38.1881 13.3304C35.433 13.5179 33.179 15.9083 33.1536 18.6696L38.142 18.3302ZM52.8836 18.8864L56.2497 14.9387C56.2459 14.9355 56.2421 14.9323 56.2383 14.9292L52.8836 18.8864ZM51.1609 27.308L49.5847 22.6893C47.563 23.5198 46.192 25.5117 46.1724 27.6473L51.1609 27.308ZM51.16 27.398L46.1716 27.7373C46.1511 29.9604 47.5975 31.8168 49.7214 32.2933L51.16 27.398ZM53.1651 37.035L49.9536 33.4598C49.9385 33.4737 49.9234 33.4878 49.9083 33.5019L53.1651 37.035ZM42.3729 29.8845L42.4189 24.8847C39.6639 25.0721 37.4098 27.4625 37.3844 30.2238L42.3729 29.8845ZM42.3176 35.8842L37.3292 36.2236C37.3038 38.9849 39.5166 41.0714 42.2716 40.884L42.3176 35.8842ZM42.4024 26.6746L37.414 27.014C37.3886 29.7753 39.6014 31.8618 42.3564 31.6744L42.4024 26.6746ZM42.4494 21.5748L42.4954 16.5751C39.7404 16.7625 37.4864 19.1529 37.4609 21.9142L42.4494 21.5748ZM42.933 39.44L43.1305 17.9909L33.1536 18.6696L32.9561 40.1187L42.933 39.44ZM38.096 23.33L47.6739 22.6785L47.7659 12.6789L38.1881 13.3304L38.096 23.33ZM47.6739 22.6785C48.4278 22.6272 48.9403 22.6868 49.2503 22.761C49.5587 22.8348 49.6046 22.9067 49.5288 22.8436L56.2383 14.9292C53.9111 12.9912 50.7753 12.4742 47.7659 12.6789L47.6739 22.6785ZM49.5174 22.8341C49.5714 22.8793 49.5848 22.8997 49.5781 22.8909C49.5703 22.8805 49.5573 22.8597 49.5469 22.8353C49.537 22.8121 49.5405 22.8113 49.5471 22.8485C49.5541 22.8883 49.5655 22.9769 49.5641 23.1295L59.5411 22.4508C59.5683 19.4919 58.5524 16.8692 56.2497 14.9387L49.5174 22.8341ZM49.5641 23.1295C49.5639 23.1569 49.5615 23.0931 49.6043 22.971C49.6479 22.8465 49.7149 22.729 49.7874 22.6372C49.9259 22.4618 49.9505 22.539 49.5847 22.6893L52.737 31.9267C54.3829 31.2506 56.0934 30.1638 57.4197 28.4836C58.7983 26.7372 59.5208 24.6485 59.5411 22.4508L49.5641 23.1295ZM46.1724 27.6473L46.1716 27.7373L56.1485 27.0586L56.1493 26.9686L46.1724 27.6473ZM49.7214 32.2933C49.9574 32.3463 50.0281 32.4318 50.038 32.4441C50.0468 32.4552 50.0593 32.4736 50.0717 32.511C50.0841 32.5486 50.1048 32.6313 50.1035 32.7763L60.0804 32.0976C60.1261 27.1342 56.9832 23.4864 52.5987 22.5027L49.7214 32.2933ZM50.1035 32.7763C50.099 33.2572 50.0236 33.4095 50.0335 33.3863C50.034 33.3851 50.0362 33.3803 50.0398 33.3739C50.0435 33.3675 50.046 33.3639 50.0459 33.3641C50.0456 33.3645 50.0401 33.3721 50.0266 33.3871C50.0129 33.4023 49.9896 33.4266 49.9536 33.4598L56.3766 40.6103C58.8908 38.2977 60.0502 35.3838 60.0804 32.0976L50.1035 32.7763ZM49.9083 33.5019C49.8385 33.5675 49.2476 34.0137 47.8079 34.1117L47.7158 44.1113C50.8256 43.8997 54.0175 42.8294 56.4219 40.5682L49.9083 33.5019ZM47.8079 34.1117L37.9906 34.7795L37.8985 44.7791L47.7158 44.1113L47.8079 34.1117ZM37.3844 30.2238L37.3292 36.2236L47.3061 35.5449L47.3614 29.5451L37.3844 30.2238ZM42.2716 40.884L47.2701 40.544L47.3621 30.5444L42.3637 30.8844L42.2716 40.884ZM47.2701 40.544C49.2187 40.4114 51.3399 39.7168 53.0529 38.0972C54.828 36.419 55.6639 34.2132 55.6836 32.0669L45.7067 32.7456C45.7104 32.3393 45.9043 31.6312 46.5177 31.0513C47.069 30.5301 47.5087 30.5344 47.3621 30.5444L47.2701 40.544ZM55.6836 32.0669C55.7053 29.7093 54.8014 27.5334 52.9456 26.1024C51.2113 24.7651 49.11 24.4295 47.2977 24.5528L47.2056 34.5524C47.3686 34.5413 46.9985 34.6126 46.4968 34.2258C46.2351 34.0239 46.0116 33.7471 45.8669 33.4246C45.7254 33.1091 45.7057 32.8548 45.7067 32.7456L55.6836 32.0669ZM47.2977 24.5528L42.4189 24.8847L42.3269 34.8843L47.2056 34.5524L47.2977 24.5528ZM42.3564 31.6744L47.0556 31.3547L47.1476 21.3552L42.4485 21.6748L42.3564 31.6744ZM47.0556 31.3547C48.7142 31.2419 50.7164 30.7183 52.4292 29.2757C54.3053 27.6956 55.2656 25.4823 55.2865 23.2199L45.3095 23.8986C45.3116 23.6702 45.3615 23.3008 45.5609 22.8698C45.7635 22.4319 46.0576 22.0679 46.373 21.8023C46.9629 21.3054 47.3746 21.3397 47.1476 21.3552L47.0556 31.3547ZM55.2865 23.2199C55.3061 21.0876 54.4809 19.0189 52.6673 17.6601C50.9896 16.403 48.9798 16.1339 47.2844 16.2493L47.1923 26.2489C47.4125 26.2339 46.9398 26.3249 46.3167 25.8581C45.9917 25.6145 45.711 25.2753 45.5266 24.8685C45.3466 24.4711 45.3075 24.1193 45.3095 23.8986L55.2865 23.2199ZM47.2844 16.2493L42.4954 16.5751L42.4034 26.5746L47.1923 26.2489L47.2844 16.2493ZM37.4609 21.9142L37.414 27.014L47.3909 26.3353L47.4379 21.2355L37.4609 21.9142ZM72.0066 30.9265L71.9606 35.9263C74.7157 35.7389 76.9697 33.3485 76.9951 30.5872L72.0066 30.9265ZM60.8724 31.684L60.9184 26.6842C59.4862 26.7816 58.1174 27.4913 57.1605 28.6326C56.2036 29.7739 55.7509 31.2367 55.9176 32.6485L60.8724 31.684ZM67.7385 33.1656L67.7845 28.1658C65.7205 28.3062 63.8578 29.7062 63.0991 31.6875L67.7385 33.1656ZM71.7492 32.8928L76.623 33.5824C76.9435 32.088 76.5859 30.5796 75.6494 29.4759C74.7129 28.3723 73.2972 27.7908 71.7953 27.893L71.7492 32.8928ZM60.9582 28.86L56.056 28.3126C55.7822 29.7874 56.1656 31.2582 57.1029 32.3289C58.0403 33.3997 59.4353 33.9603 60.9122 33.8598L60.9582 28.86ZM67.7824 28.3958L67.7364 33.3956C69.1126 33.302 70.4329 32.6427 71.385 31.5737C72.337 30.5047 72.8362 29.121 72.7643 27.75L67.7824 28.3958ZM64.8049 33.4051C63.4913 33.4945 62.8877 33.1129 62.5835 32.8011C62.2298 32.4387 61.8492 31.7118 61.8609 30.4475L51.8839 31.1262C51.8533 34.4517 52.8719 37.7069 55.1999 40.0926C57.5774 42.529 60.9382 43.6615 64.7128 43.4047L64.8049 33.4051ZM61.8609 30.4475C61.8715 29.296 62.2606 28.4876 62.6727 28.0142C63.0528 27.5776 63.6101 27.2306 64.4734 27.1719L64.5655 17.1723C56.9253 17.692 51.9475 24.2189 51.8839 31.1262L61.8609 30.4475ZM64.4734 27.1719C65.5342 27.0997 65.9265 27.4062 66.1796 27.7163C66.5552 28.1764 67.0367 29.248 67.0182 31.2659L76.9951 30.5872C77.0271 27.1153 76.2344 23.6418 74.0884 21.013C71.8199 18.2343 68.4434 16.9085 64.5655 17.1723L64.4734 27.1719ZM72.0527 25.9268L60.9184 26.6842L60.8263 36.6838L71.9606 35.9263L72.0527 25.9268ZM55.9176 32.6485C56.1423 34.5514 56.8458 36.6115 58.4752 38.167C60.1852 39.7993 62.4306 40.4121 64.7119 40.2569L64.804 30.2573C64.7587 30.2604 64.8633 30.2469 65.0558 30.3084C65.2586 30.3733 65.4652 30.4921 65.6347 30.6538C65.9669 30.9709 65.8799 31.1661 65.8271 30.7194L55.9176 32.6485ZM64.7119 40.2569C66.2645 40.1513 67.9192 39.6798 69.4069 38.5875C70.9076 37.4856 71.8422 36.0426 72.3779 34.6437L63.0991 31.6875C63.175 31.4891 63.4125 31.0379 63.9345 30.6546C64.4435 30.2809 64.8377 30.255 64.804 30.2573L64.7119 40.2569ZM67.6925 38.1654L71.7032 37.8925L71.7953 27.893L67.7845 28.1658L67.6925 38.1654ZM66.8755 32.2031C66.8235 32.4456 66.6966 32.6703 66.4744 32.8583C66.268 33.033 65.7835 33.3386 64.8049 33.4051L64.7128 43.4047C70.8668 42.9861 75.4919 38.856 76.623 33.5824L66.8755 32.2031ZM64.5964 20.3181C62.4527 20.4639 60.2949 21.2915 58.6045 23.0733C57.0282 24.735 56.3535 26.71 56.056 28.3126L65.8604 29.4074C65.9406 28.9757 65.9844 29.2529 65.571 29.6887C65.3517 29.9199 65.0901 30.0998 64.8356 30.212C64.5966 30.3174 64.4615 30.3206 64.5043 30.3177L64.5964 20.3181ZM60.9122 33.8598L67.7364 33.3956L67.8285 23.396L61.0042 23.8602L60.9122 33.8598ZM72.7643 27.75C72.6599 25.7585 71.9282 23.7928 70.418 22.3384C68.8772 20.8544 66.7931 20.1686 64.5964 20.3181L64.5043 30.3177C64.1633 30.3409 63.6444 30.2232 63.2302 29.8243C62.8467 29.4549 62.8031 29.0913 62.8005 29.0416L72.7643 27.75ZM72.757 24.7296L67.7686 25.069C67.7431 27.8303 69.956 29.9168 72.711 29.7294L72.757 24.7296ZM72.7819 22.0297L72.8279 17.0299C70.0729 17.2174 67.8189 19.6078 67.7934 22.3691L72.7819 22.0297ZM74.907 21.8852L74.861 26.8849C77.616 26.6975 79.87 24.3071 79.8955 21.5458L74.907 21.8852ZM74.9512 17.0854L74.9972 12.0856C72.2422 12.273 69.9881 14.6634 69.9627 17.4247L74.9512 17.0854ZM78.932 16.8146L83.9205 16.4752C83.9459 13.7139 81.7331 11.6274 78.978 11.8148L78.932 16.8146ZM78.8878 21.6144L73.8993 21.9537C73.8739 24.715 76.0867 26.8016 78.8418 26.6141L78.8878 21.6144ZM81.5217 21.4352L86.5102 21.0958C86.5356 18.3345 84.3228 16.248 81.5677 16.4354L81.5217 21.4352ZM81.4968 24.1351L81.4508 29.1349C84.2059 28.9474 86.4599 26.557 86.4853 23.7957L81.4968 24.1351ZM78.8629 24.3142L78.909 19.3145C76.1539 19.5019 73.8999 21.8923 73.8745 24.6536L78.8629 24.3142ZM81.4977 33.7885L86.4862 33.4492C86.4987 32.0855 85.955 30.8188 84.9809 29.9425C84.0068 29.0663 82.6869 28.6565 81.327 28.8082L81.4977 33.7885ZM81.4701 36.7884L81.7453 41.756C84.3718 41.4077 86.4343 39.0854 86.4585 36.4491L81.4701 36.7884ZM74.8821 24.585L79.8706 24.2457C79.896 21.4844 77.6832 19.3978 74.9282 19.5853L74.8821 24.585ZM77.7455 24.3903L77.7704 21.6904L67.7934 22.3691L67.7686 25.069L77.7455 24.3903ZM72.7359 27.0295L74.861 26.8849L74.953 16.8854L72.8279 17.0299L72.7359 27.0295ZM79.8955 21.5458L79.9397 16.746L69.9627 17.4247L69.9185 22.2245L79.8955 21.5458ZM74.9052 22.0851L78.886 21.8143L78.978 11.8148L74.9972 12.0856L74.9052 22.0851ZM73.9435 17.1539L73.8993 21.9537L83.8763 21.275L83.9205 16.4752L73.9435 17.1539ZM78.8418 26.6141L81.4757 26.435L81.5677 16.4354L78.9338 16.6146L78.8418 26.6141ZM76.5332 21.7745L76.5084 24.4744L86.4853 23.7957L86.5102 21.0958L76.5332 21.7745ZM81.5429 19.1353L78.909 19.3145L78.8169 29.314L81.4508 29.1349L81.5429 19.1353ZM73.8745 24.6536L73.7993 32.8132L83.7763 32.1345L83.8514 23.9749L73.8745 24.6536ZM73.7993 32.8132C73.7857 34.2903 74.1991 36.226 75.8548 37.5997C77.3979 38.88 79.1979 38.9716 80.2542 38.8998L80.3462 28.9002C80.5045 28.8894 81.5431 28.838 82.5519 29.675C83.6733 30.6054 83.7794 31.7975 83.7763 32.1345L73.7993 32.8132ZM80.2542 38.8998C80.5882 38.8771 80.9498 38.843 81.202 38.8178C81.3337 38.8046 81.4475 38.7927 81.5291 38.784C81.57 38.7796 81.6032 38.776 81.627 38.7734C81.6388 38.7721 81.6484 38.7711 81.6553 38.7703C81.6588 38.7699 81.6617 38.7696 81.6638 38.7694C81.6649 38.7693 81.6659 38.7692 81.6666 38.7691C81.667 38.769 81.6673 38.769 81.6676 38.769C81.6678 38.7689 81.6679 38.7689 81.668 38.7689C81.6681 38.7689 81.6682 38.7689 81.6682 38.7689C81.6683 38.7689 81.6684 38.7689 81.4977 33.7885C81.327 28.8082 81.3271 28.8082 81.3272 28.8082C81.3272 28.8082 81.3272 28.8082 81.3273 28.8082C81.3274 28.8082 81.3274 28.8082 81.3275 28.8082C81.3276 28.8081 81.3277 28.8081 81.3278 28.8081C81.3279 28.8081 81.3278 28.8081 81.3276 28.8082C81.3271 28.8082 81.326 28.8083 81.3244 28.8085C81.321 28.8089 81.3152 28.8095 81.3073 28.8104C81.2913 28.8121 81.2668 28.8148 81.2352 28.8182C81.1717 28.825 81.0815 28.8344 80.9775 28.8448C80.7582 28.8667 80.521 28.8883 80.3462 28.9002L80.2542 38.8998ZM76.5092 34.1279L76.4816 37.1278L86.4585 36.4491L86.4862 33.4492L76.5092 34.1279ZM81.4701 36.7884C81.1948 31.8209 81.1951 31.8208 81.1954 31.8208C81.1955 31.8208 81.1957 31.8207 81.1959 31.8207C81.1962 31.8207 81.1966 31.8206 81.1969 31.8206C81.1975 31.8205 81.198 31.8204 81.1985 31.8204C81.1995 31.8202 81.2003 31.8201 81.2009 31.8201C81.202 31.8199 81.2022 31.8199 81.2016 31.82C81.2003 31.8201 81.1955 31.8207 81.1872 31.8218C81.1707 31.8239 81.1403 31.8276 81.0966 31.8328C81.0092 31.8431 80.8684 31.8591 80.6779 31.8786C80.2969 31.9177 79.7182 31.9709 78.9714 32.0217L78.8794 42.0213C79.7489 41.9621 80.4425 41.8988 80.9297 41.8488C81.1734 41.8239 81.3658 41.8022 81.5029 41.786C81.5715 41.7779 81.6263 41.7712 81.6668 41.7661C81.6871 41.7635 81.7038 41.7614 81.7169 41.7597C81.7235 41.7589 81.7291 41.7581 81.7338 41.7575C81.7362 41.7572 81.7383 41.7569 81.7403 41.7567C81.7412 41.7565 81.7421 41.7564 81.743 41.7563C81.7434 41.7562 81.7438 41.7562 81.7442 41.7561C81.7444 41.7561 81.7446 41.7561 81.7447 41.7561C81.745 41.756 81.7453 41.756 81.4701 36.7884ZM78.9714 32.0217C78.7912 32.034 78.6938 32.0215 78.676 32.0183C78.6576 32.015 78.8026 32.0364 79.0175 32.174C79.2589 32.3286 79.4989 32.5751 79.6549 32.8895C79.8034 33.1891 79.7866 33.37 79.7875 33.2753L69.8105 33.954C69.7838 36.8555 70.9561 39.3046 73.2053 40.7453C75.1623 41.9989 77.3722 42.1238 78.8794 42.0213L78.9714 32.0217ZM79.7875 33.2753L79.8706 24.2457L69.8937 24.9244L69.8105 33.954L79.7875 33.2753ZM74.9282 19.5853L72.8031 19.7298L72.711 29.7294L74.8361 29.5848L74.9282 19.5853ZM82.4027 24.0734L77.4142 24.4128C77.3888 27.1741 79.6016 29.2606 82.3567 29.0732L82.4027 24.0734ZM82.4276 21.3736L82.4736 16.3738C79.7186 16.5612 77.4645 18.9516 77.4391 21.7129L82.4276 21.3736ZM84.5527 21.229L84.5066 26.2288C87.2617 26.0414 89.5157 23.6509 89.5411 20.8896L84.5527 21.229ZM84.5969 16.4292L84.6429 11.4294C81.8878 11.6168 79.6338 14.0072 79.6084 16.7685L84.5969 16.4292ZM88.5777 16.1584L93.5661 15.819C93.5916 13.0577 91.3788 10.9712 88.6237 11.1586L88.5777 16.1584ZM88.5335 20.9582L83.545 21.2975C83.5196 24.0588 85.7324 26.1454 88.4874 25.958L88.5335 20.9582ZM91.1674 20.779L96.1559 20.4397C96.1813 17.6784 93.9685 15.5918 91.2134 15.7792L91.1674 20.779ZM91.1425 23.4789L91.0965 28.4787C93.8515 28.2913 96.1056 25.9009 96.131 23.1395L91.1425 23.4789ZM88.5086 23.6581L88.5546 18.6583C85.7996 18.8457 83.5456 21.2361 83.5201 23.9974L88.5086 23.6581ZM91.1434 33.1324L96.1318 32.793C96.1444 31.4293 95.6006 30.1626 94.6265 29.2863C93.6524 28.4101 92.3326 28.0003 90.9727 28.1521L91.1434 33.1324ZM91.1157 36.1323L91.391 41.0998C94.0174 40.7515 96.0799 38.4292 96.1042 35.7929L91.1157 36.1323ZM84.5278 23.9289L89.5163 23.5895C89.5417 20.8282 87.3289 18.7417 84.5738 18.9291L84.5278 23.9289ZM87.3912 23.7341L87.416 21.0342L77.4391 21.7129L77.4142 24.4128L87.3912 23.7341ZM82.3815 26.3733L84.5066 26.2288L84.5987 16.2292L82.4736 16.3738L82.3815 26.3733ZM89.5411 20.8896L89.5853 16.0898L79.6084 16.7685L79.5642 21.5683L89.5411 20.8896ZM84.5508 21.429L88.5316 21.1582L88.6237 11.1586L84.6429 11.4294L84.5508 21.429ZM83.5892 16.4977L83.545 21.2975L93.5219 20.6188L93.5661 15.819L83.5892 16.4977ZM88.4874 25.958L91.1213 25.7788L91.2134 15.7792L88.5795 15.9584L88.4874 25.958ZM86.1789 21.1184L86.1541 23.8182L96.131 23.1395L96.1559 20.4397L86.1789 21.1184ZM91.1886 18.4791L88.5546 18.6583L88.4626 28.6579L91.0965 28.4787L91.1886 18.4791ZM83.5201 23.9974L83.445 32.1571L93.4219 31.4784L93.4971 23.3187L83.5201 23.9974ZM83.445 32.1571C83.4314 33.6341 83.8448 35.5698 85.5004 36.9435C87.0436 38.2239 88.8436 38.3155 89.8998 38.2436L89.9919 28.244C90.1502 28.2333 91.1887 28.1818 92.1976 29.0188C93.3189 29.9492 93.4251 31.1413 93.4219 31.4784L83.445 32.1571ZM89.8998 38.2436C90.2339 38.2209 90.5955 38.1868 90.8477 38.1616C90.9794 38.1485 91.0932 38.1366 91.1748 38.1278C91.2157 38.1235 91.2489 38.1199 91.2726 38.1173C91.2845 38.116 91.294 38.1149 91.301 38.1142C91.3045 38.1138 91.3073 38.1135 91.3095 38.1132C91.3106 38.1131 91.3115 38.113 91.3123 38.1129C91.3127 38.1129 91.313 38.1128 91.3133 38.1128C91.3135 38.1128 91.3136 38.1128 91.3137 38.1127C91.3138 38.1127 91.3139 38.1127 91.3139 38.1127C91.314 38.1127 91.3141 38.1127 91.1434 33.1324C90.9727 28.1521 90.9728 28.152 90.9728 28.152C90.9729 28.152 90.9729 28.152 90.973 28.152C90.973 28.152 90.9731 28.152 90.9732 28.152C90.9733 28.152 90.9734 28.152 90.9734 28.152C90.9735 28.152 90.9735 28.152 90.9732 28.152C90.9728 28.152 90.9717 28.1522 90.97 28.1523C90.9667 28.1527 90.9609 28.1534 90.9529 28.1542C90.937 28.156 90.9124 28.1586 90.8809 28.162C90.8174 28.1688 90.7272 28.1782 90.6232 28.1886C90.4038 28.2105 90.1667 28.2321 89.9919 28.244L89.8998 38.2436ZM86.1549 33.4717L86.1273 36.4716L96.1042 35.7929L96.1318 32.793L86.1549 33.4717ZM91.1157 36.1323C90.8405 31.1647 90.8408 31.1647 90.8411 31.1646C90.8411 31.1646 90.8414 31.1646 90.8416 31.1645C90.8419 31.1645 90.8422 31.1645 90.8425 31.1644C90.8431 31.1643 90.8437 31.1643 90.8442 31.1642C90.8452 31.1641 90.846 31.164 90.8466 31.1639C90.8477 31.1637 90.8479 31.1637 90.8473 31.1638C90.846 31.164 90.8412 31.1646 90.8329 31.1656C90.8164 31.1677 90.786 31.1714 90.7423 31.1766C90.6548 31.1869 90.514 31.2029 90.3236 31.2224C89.9426 31.2615 89.3639 31.3147 88.6171 31.3655L88.525 41.3651C89.3945 41.306 90.0882 41.2426 90.5754 41.1927C90.8191 41.1677 91.0114 41.146 91.1486 41.1298C91.2171 41.1217 91.2719 41.115 91.3125 41.1099C91.3328 41.1074 91.3495 41.1052 91.3626 41.1035C91.3691 41.1027 91.3748 41.1019 91.3795 41.1013C91.3819 41.101 91.384 41.1007 91.3859 41.1005C91.3869 41.1004 91.3878 41.1002 91.3886 41.1001C91.3891 41.1001 91.3895 41.1 91.3898 41.1C91.39 41.0999 91.3903 41.0999 91.3904 41.0999C91.3907 41.0999 91.391 41.0998 91.1157 36.1323ZM88.6171 31.3655C88.4368 31.3778 88.3395 31.3653 88.3217 31.3621C88.3033 31.3588 88.4483 31.3802 88.6632 31.5178C88.9045 31.6725 89.1446 31.9189 89.3005 32.2333C89.4491 32.5329 89.4323 32.7138 89.4331 32.6191L79.4562 33.2978C79.4295 36.1994 80.6018 38.6485 82.8509 40.0892C84.808 41.3428 87.0178 41.4676 88.525 41.3651L88.6171 31.3655ZM89.4331 32.6191L89.5163 23.5895L79.5393 24.2682L79.4562 33.2978L89.4331 32.6191ZM84.5738 18.9291L82.4488 19.0737L82.3567 29.0732L84.4818 28.9287L84.5738 18.9291ZM107.433 28.5166L107.387 33.5164C110.142 33.329 112.396 30.9386 112.421 28.1773L107.433 28.5166ZM96.2983 29.2741L96.3443 24.2743C94.9121 24.3717 93.5433 25.0814 92.5864 26.2227C91.6295 27.364 91.1768 28.8267 91.3435 30.2386L96.2983 29.2741ZM103.164 30.7557L103.21 25.7559C101.146 25.8963 99.2837 27.2963 98.525 29.2776L103.164 30.7557ZM107.175 30.4828L112.049 31.1725C112.369 29.6781 112.012 28.1697 111.075 27.066C110.139 25.9623 108.723 25.3809 107.221 25.483L107.175 30.4828ZM96.3841 26.4501L91.4819 25.9027C91.2081 27.3775 91.5915 28.8483 92.5289 29.919C93.4662 30.9897 94.8612 31.5504 96.3381 31.4499L96.3841 26.4501ZM103.208 25.9859L103.162 30.9857C104.539 30.892 105.859 30.2327 106.811 29.1637C107.763 28.0947 108.262 26.7111 108.19 25.3401L103.208 25.9859ZM100.231 30.9952C98.9172 31.0846 98.3136 30.703 98.0094 30.3912C97.6557 30.0288 97.2752 29.3019 97.2868 28.0376L87.3099 28.7163C87.2793 32.0418 88.2978 35.297 90.6258 37.6827C93.0034 40.119 96.3642 41.2516 100.139 40.9948L100.231 30.9952ZM97.2868 28.0376C97.2974 26.886 97.6866 26.0776 98.0986 25.6043C98.4787 25.1676 99.036 24.8207 99.8994 24.7619L99.9915 14.7624C92.3513 15.2821 87.3735 21.809 87.3099 28.7163L97.2868 28.0376ZM99.8994 24.7619C100.96 24.6898 101.352 24.9963 101.606 25.3064C101.981 25.7664 102.463 26.8381 102.444 28.856L112.421 28.1773C112.453 24.7054 111.66 21.2318 109.514 18.6031C107.246 15.8244 103.869 14.4986 99.9915 14.7624L99.8994 24.7619ZM107.479 23.5168L96.3443 24.2743L96.2523 34.2738L107.387 33.5164L107.479 23.5168ZM91.3435 30.2386C91.5683 32.1415 92.2717 34.2016 93.9012 35.757C95.6111 37.3894 97.8566 38.0021 100.138 37.8469L100.23 27.8474C100.185 27.8505 100.289 27.837 100.482 27.8985C100.685 27.9633 100.891 28.0821 101.061 28.2439C101.393 28.561 101.306 28.7561 101.253 28.3095L91.3435 30.2386ZM100.138 37.8469C101.69 37.7413 103.345 37.2699 104.833 36.1775C106.334 35.0756 107.268 33.6327 107.804 32.2338L98.525 29.2776C98.601 29.0792 98.8385 28.628 99.3604 28.2447C99.8694 27.871 100.264 27.8451 100.23 27.8474L100.138 37.8469ZM103.118 35.7555L107.129 35.4826L107.221 25.483L103.21 25.7559L103.118 35.7555ZM102.301 29.7931C102.249 30.0356 102.123 30.2604 101.9 30.4484C101.694 30.6231 101.209 30.9286 100.231 30.9952L100.139 40.9948C106.293 40.5761 110.918 36.4461 112.049 31.1725L102.301 29.7931ZM100.022 17.9082C97.8786 18.054 95.7209 18.8815 94.0305 20.6634C92.4541 22.3251 91.7794 24.3 91.4819 25.9027L101.286 26.9975C101.366 26.5658 101.41 26.843 100.997 27.2788C100.778 27.51 100.516 27.6899 100.262 27.8021C100.023 27.9075 99.8874 27.9106 99.9302 27.9077L100.022 17.9082ZM96.3381 31.4499L103.162 30.9857L103.254 20.9861L96.4302 21.4503L96.3381 31.4499ZM108.19 25.3401C108.086 23.3486 107.354 21.3829 105.844 19.9284C104.303 18.4445 102.219 17.7587 100.022 17.9082L99.9302 27.9077C99.5893 27.9309 99.0703 27.8132 98.6561 27.4144C98.2726 27.045 98.2291 26.6814 98.2265 26.6317L108.19 25.3401ZM113.319 19.2721L118.307 18.9328C118.333 16.1714 116.12 14.0849 113.365 14.2723L113.319 19.2721ZM113.296 21.732L108.308 22.0714C108.282 24.8327 110.495 26.9192 113.25 26.7318L113.296 21.732ZM113.386 21.7259L113.34 26.7257C115.181 26.6005 116.881 25.4695 117.764 23.7834L113.386 21.7259ZM118.138 18.8843L123.127 18.5449C123.146 16.4608 121.873 14.683 119.933 14.0837L118.138 18.8843ZM118.106 22.4541L118.06 27.4539C120.815 27.2665 123.069 24.8761 123.094 22.1148L118.106 22.4541ZM118.016 22.4602L117.468 27.4688C117.635 27.4744 117.802 27.4714 117.97 27.46L118.016 22.4602ZM113.327 34.6513L113.281 39.6511C116.036 39.4636 118.29 37.0732 118.315 34.3119L113.327 34.6513ZM109.256 34.9282L104.268 35.2675C104.242 38.0288 106.455 40.1154 109.21 39.928L109.256 34.9282ZM109.398 19.5388L109.444 14.539C106.689 14.7265 104.435 17.1169 104.41 19.8782L109.398 19.5388ZM108.331 19.6115L108.308 22.0714L118.285 21.3926L118.307 18.9328L108.331 19.6115ZM113.25 26.7318L113.34 26.7257L113.432 16.7261L113.342 16.7322L113.25 26.7318ZM117.764 23.7834C117.903 23.5174 117.992 23.3878 118.026 23.3426C118.055 23.3038 118.009 23.3734 117.876 23.4794C117.733 23.5938 117.556 23.6958 117.374 23.7637C117.201 23.828 117.105 23.8313 117.136 23.8292L117.228 13.8297C115.417 13.9529 113.633 14.5556 112.053 15.8153C110.589 16.9819 109.654 18.4358 109.008 19.6684L117.764 23.7834ZM117.136 23.8292C117.271 23.82 117.223 23.8291 117.089 23.8219C116.921 23.8127 116.654 23.7807 116.344 23.6849L119.933 14.0837C118.829 13.7427 117.82 13.7894 117.228 13.8297L117.136 23.8292ZM113.15 19.2236L113.117 22.7935L123.094 22.1148L123.127 18.5449L113.15 19.2236ZM118.152 17.4544L118.062 17.4605L117.97 27.46L118.06 27.4539L118.152 17.4544ZM118.563 17.4517C116.291 17.3759 113.605 17.9853 111.438 20.0473C109.245 22.1347 108.431 24.9014 108.408 27.4909L118.384 26.8122C118.387 26.4867 118.437 26.4077 118.403 26.4977C118.362 26.6076 118.244 26.836 118 27.0681C117.759 27.2973 117.523 27.4088 117.39 27.4526C117.273 27.4909 117.285 27.4627 117.468 27.4688L118.563 17.4517ZM108.408 27.4909L108.338 34.9906L118.315 34.3119L118.384 26.8122L108.408 27.4909ZM113.373 29.6515L109.302 29.9284L109.21 39.928L113.281 39.6511L113.373 29.6515ZM114.245 34.5888L114.387 19.1995L104.41 19.8782L104.268 35.2675L114.245 34.5888ZM109.352 24.5386L113.273 24.2719L113.365 14.2723L109.444 14.539L109.352 24.5386ZM125.106 33.85L120.118 34.1893C120.092 36.9506 122.305 39.0372 125.06 38.8497L125.106 33.85ZM125.304 12.4009L125.35 7.40107C122.595 7.58849 120.341 9.9789 120.315 12.7402L125.304 12.4009ZM129.644 12.1056L134.632 11.7663C134.658 9.00497 132.445 6.91842 129.69 7.10584L129.644 12.1056ZM129.48 29.9249L124.491 30.2642C124.466 33.0255 126.679 35.1121 129.434 34.9247L129.48 29.9249ZM139.537 29.2407L144.525 28.9014C144.55 26.1401 142.338 24.0535 139.583 24.2409L139.537 29.2407ZM139.503 32.8706L139.457 37.8704C142.212 37.683 144.466 35.2925 144.492 32.5312L139.503 32.8706ZM130.095 33.5106L130.292 12.0615L120.315 12.7402L120.118 34.1893L130.095 33.5106ZM125.258 17.4006L129.598 17.1054L129.69 7.10584L125.35 7.40107L125.258 17.4006ZM124.655 12.445L124.491 30.2642L134.468 29.5855L134.632 11.7663L124.655 12.445ZM129.434 34.9247L139.49 34.2405L139.583 24.2409L129.526 24.9251L129.434 34.9247ZM134.548 29.5801L134.515 33.2099L144.492 32.5312L144.525 28.9014L134.548 29.5801ZM139.549 27.8708L125.152 28.8502L125.06 38.8497L139.457 37.8704L139.549 27.8708ZM154.969 31.8185L154.923 36.8183C157.678 36.6309 159.932 34.2405 159.957 31.4792L154.969 31.8185ZM151.048 32.0852L146.059 32.4246C146.034 35.1859 148.247 37.2724 151.002 37.085L151.048 32.0852ZM151.064 30.2853L156.053 29.946C156.078 27.1847 153.865 25.0981 151.11 25.2855L151.064 30.2853ZM150.975 30.2914L151.021 25.2916C149.444 25.3989 147.954 26.2463 147.001 27.5774L150.975 30.2914ZM141.372 17.3637L141.418 12.3639C138.663 12.5514 136.409 14.9418 136.384 17.7031L141.372 17.3637ZM145.413 17.0889L150.401 16.7495C150.427 13.9882 148.214 11.9016 145.459 12.0891L145.413 17.0889ZM151.04 16.7061L151.086 11.7063C148.331 11.8937 146.077 14.2841 146.051 17.0454L151.04 16.7061ZM155.11 16.4292L160.099 16.0898C160.124 13.3285 157.911 11.242 155.156 11.4294L155.11 16.4292ZM155.015 26.8187L151.094 27.0854L151.002 37.085L154.923 36.8183L155.015 26.8187ZM156.036 31.7459L156.053 29.946L146.076 30.6247L146.059 32.4246L156.036 31.7459ZM151.11 25.2855L151.021 25.2916L150.928 35.2912L151.018 35.2851L151.11 25.2855ZM147.001 27.5774C146.87 27.7606 146.794 27.8412 146.77 27.8651C146.753 27.8821 146.78 27.8528 146.845 27.8136C146.911 27.7733 146.956 27.7597 146.948 27.7621C146.932 27.7668 146.828 27.7953 146.6 27.8108L146.508 37.8104C148.234 37.693 149.926 37.2466 151.505 36.2894C153.059 35.347 154.147 34.1241 154.948 33.0055L147.001 27.5774ZM146.6 27.8108C146.278 27.8328 146.145 27.7905 146.142 27.7892C146.139 27.7884 146.16 27.795 146.193 27.8154C146.227 27.8361 146.263 27.8636 146.295 27.8959C146.365 27.9668 146.365 28.0048 146.341 27.935C146.314 27.8564 146.263 27.6533 146.266 27.2839L136.289 27.9626C136.265 30.5722 136.994 33.2505 138.955 35.232C140.958 37.256 143.702 38.0014 146.508 37.8104L146.6 27.8108ZM146.266 27.2839L146.361 17.0244L136.384 17.7031L136.289 27.9626L146.266 27.2839ZM141.326 22.3635L145.367 22.0886L145.459 12.0891L141.418 12.3639L141.326 22.3635ZM140.424 17.4282L140.336 26.9978L150.313 26.3191L150.401 16.7495L140.424 17.4282ZM140.336 26.9978C140.322 28.547 140.639 30.6248 142.168 32.2614C143.793 34.0017 145.982 34.3985 147.797 34.2751L147.889 24.2755C147.968 24.2701 148.89 24.2585 149.686 25.1108C150.385 25.8595 150.311 26.5698 150.313 26.3191L140.336 26.9978ZM147.797 34.2751C150.095 34.1187 152.289 33.0588 153.853 31.1628C155.349 29.349 155.929 27.1917 155.946 25.2463L145.97 25.925C145.969 26.0196 145.949 25.642 146.371 25.1304C146.583 24.8732 146.858 24.6479 147.17 24.49C147.478 24.3339 147.737 24.2858 147.889 24.2755L147.797 34.2751ZM155.946 25.2463L156.028 16.3667L146.051 17.0454L145.97 25.925L155.946 25.2463ZM150.994 21.7059L155.064 21.4289L155.156 11.4294L151.086 11.7063L150.994 21.7059ZM150.122 16.7685L149.98 32.1579L159.957 31.4792L160.099 16.0898L150.122 16.7685ZM171.583 20.5251L171.537 25.5249C173 25.4254 174.394 24.6876 175.353 23.5067C176.311 22.3258 176.735 20.8208 176.515 19.3898L171.583 20.5251ZM167.602 20.7959L162.702 22.1092C163.147 24.4145 165.178 25.9574 167.556 25.7957L167.602 20.7959ZM167.768 25.5214L167.814 20.5216C165.355 20.689 163.245 22.6283 162.846 25.0901L167.768 25.5214ZM171.689 25.2547L176.657 25.3279C176.785 23.9273 176.325 22.5821 175.39 21.6183C174.455 20.6544 173.13 20.16 171.735 20.2549L171.689 25.2547ZM164.767 26.605C163.619 26.6831 163.009 26.3397 162.662 25.9887C162.279 25.6004 161.902 24.8686 161.913 23.6713L151.936 24.35C151.904 27.7425 153.001 30.9727 155.314 33.3165C157.665 35.6975 160.974 36.8563 164.675 36.6046L164.767 26.605ZM161.913 23.6713C161.924 22.4586 162.319 21.6549 162.706 21.2082C163.053 20.8092 163.614 20.4276 164.615 20.3595L164.707 10.3599C161.039 10.6095 157.753 12.2584 155.409 14.958C153.106 17.6099 151.967 20.9728 151.936 24.35L161.913 23.6713ZM164.615 20.3595C165.62 20.2912 166.035 20.5384 166.178 20.6503C166.326 20.7658 166.554 21.0252 166.652 21.6604L176.515 19.3898C176.105 16.7317 174.862 14.2731 172.671 12.5615C170.476 10.8463 167.683 10.1575 164.707 10.3599L164.615 20.3595ZM171.629 15.5253L167.648 15.7961L167.556 25.7957L171.537 25.5249L171.629 15.5253ZM172.503 19.4826C171.855 16.1235 169.007 13.3353 164.857 13.6176L164.765 23.6172C164.328 23.6469 163.791 23.514 163.35 23.1536C162.938 22.8174 162.76 22.4101 162.702 22.1092L172.503 19.4826ZM164.857 13.6176C162.187 13.7992 159.698 15.0846 158.036 17.4272C156.535 19.5412 156.085 21.9787 156.066 24.069L166.043 23.3903C166.047 22.9904 166.092 22.7507 166.12 22.6458C166.148 22.5425 166.141 22.6319 166.009 22.8176C165.863 23.0234 165.627 23.2553 165.316 23.4259C165.015 23.5909 164.798 23.6149 164.765 23.6172L164.857 13.6176ZM156.066 24.069C156.048 26.08 156.411 28.4381 157.821 30.3592C159.406 32.5203 161.879 33.527 164.615 33.3408L164.707 23.3412C164.747 23.3386 164.985 23.3334 165.305 23.4718C165.635 23.6142 165.873 23.8313 166.012 24.0207C166.136 24.1893 166.135 24.2711 166.107 24.1553C166.079 24.0396 166.039 23.7944 166.043 23.3903L156.066 24.069ZM164.615 33.3408C166.307 33.2257 168.215 32.641 169.845 31.2059C171.508 29.7428 172.386 27.8316 172.691 25.9527L162.846 25.0901C162.865 24.9694 163.013 24.4121 163.605 23.8912C164.165 23.3984 164.662 23.3443 164.707 23.3412L164.615 33.3408ZM167.722 30.5212L171.643 30.2545L171.735 20.2549L167.814 20.5216L167.722 30.5212ZM166.721 25.1815C166.682 25.6194 166.516 25.8888 166.337 26.0601C166.169 26.221 165.731 26.5394 164.767 26.605L164.675 36.6046C171.245 36.1576 176.109 31.3484 176.657 25.3279L166.721 25.1815ZM183.531 29.8755L179.259 32.7849C180.153 34.2018 181.753 34.9931 183.485 34.8753L183.531 29.8755ZM179.286 23.149L183.559 20.2396C182.763 18.9792 181.402 18.2049 179.872 18.1418C178.342 18.0788 176.814 18.734 175.732 19.9169L179.286 23.149ZM177.503 25.099L173.949 21.867C173.041 22.8606 172.527 24.1412 172.515 25.4384L177.503 25.099ZM177.455 30.2888L177.409 35.2886C180.164 35.1012 182.418 32.7108 182.444 29.9495L177.455 30.2888ZM173.415 30.5637L168.426 30.903C168.401 33.6643 170.614 35.7509 173.369 35.5635L173.415 30.5637ZM173.612 9.11458L173.658 4.1148C170.903 4.30221 168.649 6.69263 168.624 9.45393L173.612 9.11458ZM177.653 8.83971L182.641 8.50036C182.667 5.73905 180.454 3.6525 177.699 3.83992L177.653 8.83971ZM177.543 20.7192L172.555 21.0586C172.536 23.1099 173.769 24.868 175.665 25.4932C177.562 26.1184 179.736 25.4838 181.15 23.8925L177.543 20.7192ZM183.044 14.5289L183.091 9.52909C181.712 9.62285 180.39 10.284 179.438 11.3556L183.044 14.5289ZM187.923 14.197L191.473 17.433C192.881 15.8963 193.299 13.7311 192.535 11.9351C191.771 10.1392 189.973 9.06092 187.969 9.19721L187.923 14.197ZM182.212 20.4316L178.662 17.1955C177.012 18.997 176.751 21.6173 178.036 23.4873L182.212 20.4316ZM188.47 29.5395L188.424 34.5393C190.264 34.4142 191.963 33.2843 192.846 31.5995C193.729 29.9147 193.652 27.9486 192.646 26.4838L188.47 29.5395ZM187.804 26.9661L183.559 20.2396L175.013 26.0584L179.259 32.7849L187.804 26.9661ZM175.732 19.9169L173.949 21.867L181.057 28.3311L182.84 26.381L175.732 19.9169ZM172.515 25.4384L172.467 30.6282L182.444 29.9495L182.492 24.7597L172.515 25.4384ZM177.501 25.289L173.461 25.5639L173.369 35.5635L177.409 35.2886L177.501 25.289ZM178.403 30.2243L178.601 8.77523L168.624 9.45393L168.426 30.903L178.403 30.2243ZM173.566 14.1144L177.607 13.8395L177.699 3.83992L173.658 4.1148L173.566 14.1144ZM172.664 9.17906L172.555 21.0586L182.532 20.3799L182.641 8.50036L172.664 9.17906ZM181.15 23.8925L186.651 17.7022L179.438 11.3556L173.937 17.5459L181.15 23.8925ZM182.998 19.5287L187.877 19.1968L187.969 9.19721L183.091 9.52909L182.998 19.5287ZM184.373 10.961L178.662 17.1955L185.762 23.6676L191.473 17.433L184.373 10.961ZM178.036 23.4873L184.294 32.5953L192.646 26.4838L186.389 17.3758L178.036 23.4873ZM188.516 24.5397L183.577 24.8757L183.485 34.8753L188.424 34.5393L188.516 24.5397ZM46.1334 75.1982L41.145 75.5375C41.1195 78.2988 43.3323 80.3854 46.0874 80.198L46.1334 75.1982ZM46.3309 53.7491L46.377 48.7493C43.6219 48.9367 41.3679 51.3271 41.3424 54.0884L46.3309 53.7491ZM50.7307 53.4498L55.0385 50.5971C54.1524 49.146 52.5336 48.3305 50.7768 48.45L50.7307 53.4498ZM57.7441 64.9347L62.0644 62.1026C62.0602 62.0957 62.056 62.0888 62.0519 62.082L57.7441 64.9347ZM59.213 67.8327L54.6328 70.1667C55.4151 71.9217 57.1928 72.9668 59.167 72.8325L59.213 67.8327ZM59.2729 67.8287L59.2268 72.8285C60.5966 72.7353 61.9113 72.0817 62.8625 71.021C63.8138 69.9603 64.3179 68.5858 64.2565 67.22L59.2729 67.8287ZM59.291 52.8675L59.337 47.8677C56.5819 48.0551 54.3279 50.4455 54.3025 53.2068L59.291 52.8675ZM63.5711 52.5763L68.5595 52.2369C68.585 49.4756 66.3722 47.3891 63.6171 47.5765L63.5711 52.5763ZM63.3736 74.0254L63.3275 79.0252C66.0826 78.8377 68.3366 76.4473 68.362 73.686L63.3736 74.0254ZM59.1833 74.3104L54.915 77.2267C55.8103 78.6395 57.4079 79.4279 59.1372 79.3102L59.1833 74.3104ZM51.9892 62.9577L47.6978 65.837C47.7055 65.8494 47.7132 65.8617 47.721 65.874L51.9892 62.9577ZM50.4901 60.0917L55.043 57.6976C54.2461 55.9771 52.4857 54.9593 50.5362 55.0919L50.4901 60.0917ZM50.4303 60.0958L50.4763 55.096C49.1072 55.1891 47.793 55.8422 46.8418 56.9021C45.8907 57.962 45.3861 59.3356 45.4464 60.7009L50.4303 60.0958ZM50.4135 74.907L50.3675 79.9068C53.1226 79.7194 55.3766 77.329 55.402 74.5677L50.4135 74.907ZM51.1219 74.8588L51.3194 53.4097L41.3424 54.0884L41.145 75.5375L51.1219 74.8588ZM46.2849 58.7489L50.6847 58.4496L50.7768 48.45L46.377 48.7493L46.2849 58.7489ZM46.423 56.3025L53.4363 67.7874L62.0519 62.082L55.0385 50.5971L46.423 56.3025ZM53.4238 67.7668C53.651 68.1434 53.9446 68.7142 54.2125 69.2682C54.3388 69.5293 54.4465 69.7598 54.5221 69.9239C54.5598 70.0056 54.589 70.0698 54.6081 70.112C54.6176 70.133 54.6246 70.1485 54.6288 70.1579C54.6309 70.1625 54.6323 70.1656 54.633 70.1671C54.6333 70.1679 54.6334 70.1682 54.6334 70.1682C54.6334 70.1681 54.6333 70.168 54.6332 70.1678C54.6332 70.1676 54.6331 70.1675 54.633 70.1673C54.633 70.1672 54.6329 70.1671 54.6329 70.167C54.6328 70.1669 54.6328 70.1667 59.213 67.8327C63.7932 65.4988 63.7932 65.4986 63.7931 65.4984C63.793 65.4984 63.7929 65.4982 63.7929 65.498C63.7928 65.4977 63.7926 65.4974 63.7925 65.4971C63.7922 65.4964 63.7918 65.4956 63.7914 65.4947C63.7906 65.493 63.7896 65.4907 63.7885 65.4881C63.7861 65.4828 63.783 65.4758 63.7791 65.4672C63.7714 65.45 63.7607 65.4263 63.7472 65.3966C63.7204 65.3373 63.6825 65.2541 63.6354 65.1518C63.5415 64.948 63.409 64.6646 63.2528 64.3416C62.9557 63.7273 62.5148 62.8491 62.0644 62.1026L53.4238 67.7668ZM59.167 72.8325L59.2268 72.8285L59.3189 62.8289L59.259 62.833L59.167 72.8325ZM59.2729 67.8287C64.2565 67.22 64.2565 67.22 64.2565 67.2201C64.2565 67.2201 64.2565 67.2202 64.2566 67.2202C64.2566 67.2203 64.2566 67.2203 64.2566 67.2203C64.2566 67.2202 64.2565 67.2201 64.2565 67.2198C64.2565 67.2192 64.2565 67.2181 64.2564 67.2165C64.2562 67.2132 64.256 67.2079 64.2557 67.2007C64.2551 67.1861 64.2541 67.1638 64.2528 67.1343C64.2503 67.0754 64.2467 66.9881 64.2424 66.8781C64.2337 66.6577 64.2222 66.3482 64.2112 65.9944C64.1886 65.2696 64.1699 64.4233 64.1759 63.7776L54.1989 64.4563C54.191 65.3106 54.2151 66.3202 54.2387 67.0762C54.2507 67.4628 54.2632 67.8 54.2727 68.0412C54.2775 68.162 54.2815 68.2592 54.2844 68.3271C54.2858 68.361 54.287 68.3877 54.2878 68.4063C54.2882 68.4156 54.2885 68.4229 54.2888 68.4281C54.2889 68.4307 54.289 68.4328 54.289 68.4344C54.2891 68.4351 54.2891 68.4358 54.2891 68.4363C54.2891 68.4365 54.2891 68.4368 54.2892 68.4369C54.2892 68.437 54.2892 68.4371 54.2892 68.4372C54.2892 68.4373 54.2892 68.4374 59.2729 67.8287ZM64.1759 63.7776L64.2794 52.5281L54.3025 53.2068L54.1989 64.4563L64.1759 63.7776ZM59.2449 57.8672L63.525 57.5761L63.6171 47.5765L59.337 47.8677L59.2449 57.8672ZM58.5826 52.9156L58.3851 74.3647L68.362 73.686L68.5595 52.2369L58.5826 52.9156ZM63.4196 69.0256L59.2293 69.3106L59.1372 79.3102L63.3275 79.0252L63.4196 69.0256ZM63.4515 71.3941L56.2575 60.0415L47.721 65.874L54.915 77.2267L63.4515 71.3941ZM56.2807 60.0785C56.055 59.7145 55.7555 59.1501 55.4788 58.597C55.3487 58.3368 55.2371 58.1064 55.1586 57.942C55.1195 57.8602 55.089 57.7958 55.0691 57.7533C55.0591 57.7321 55.0518 57.7164 55.0474 57.7069C55.0451 57.7022 55.0437 57.699 55.0429 57.6974C55.0426 57.6966 55.0424 57.6962 55.0424 57.6962C55.0424 57.6962 55.0424 57.6964 55.0425 57.6966C55.0426 57.6967 55.0427 57.6968 55.0427 57.697C55.0428 57.6971 55.0428 57.6972 55.0429 57.6972C55.0429 57.6974 55.043 57.6976 50.4901 60.0917C45.9372 62.4859 45.9373 62.486 45.9374 62.4862C45.9374 62.4863 45.9375 62.4865 45.9376 62.4866C45.9377 62.4869 45.9378 62.4872 45.938 62.4875C45.9383 62.4881 45.9387 62.4889 45.9391 62.4898C45.9399 62.4915 45.9409 62.4937 45.9421 62.4963C45.9445 62.5015 45.9477 62.5083 45.9517 62.5169C45.9596 62.5339 45.9706 62.5574 45.9844 62.5868C46.012 62.6455 46.051 62.7281 46.0995 62.8296C46.1961 63.0318 46.3322 63.3129 46.4921 63.6326C46.7956 64.2392 47.2456 65.1078 47.6978 65.837L56.2807 60.0785ZM50.5362 55.0919L50.4763 55.096L50.3842 65.0956L50.4441 65.0915L50.5362 55.0919ZM50.4303 60.0958C45.4464 60.7009 45.4464 60.7009 45.4464 60.7008C45.4464 60.7008 45.4464 60.7007 45.4464 60.7007C45.4464 60.7006 45.4464 60.7006 45.4464 60.7006C45.4464 60.7007 45.4464 60.7009 45.4464 60.7012C45.4465 60.7018 45.4465 60.7029 45.4466 60.7046C45.4467 60.7079 45.447 60.7133 45.4473 60.7207C45.4479 60.7355 45.4489 60.7582 45.4501 60.7882C45.4526 60.848 45.4562 60.9366 45.4606 61.0482C45.4692 61.2716 45.4807 61.5852 45.4917 61.9431C45.5143 62.6763 45.5329 63.5306 45.527 64.1768L55.5039 63.4981C55.5118 62.6445 55.4878 61.6279 55.4644 60.8652C55.4524 60.4752 55.4399 60.1346 55.4305 59.8908C55.4257 59.7688 55.4217 59.6705 55.4188 59.6019C55.4174 59.5676 55.4163 59.5407 55.4155 59.5219C55.4151 59.5125 55.4147 59.5052 55.4145 59.4999C55.4144 59.4973 55.4143 59.4952 55.4142 59.4937C55.4142 59.4929 55.4142 59.4922 55.4141 59.4917C55.4141 59.4915 55.4141 59.4913 55.4141 59.4911C55.4141 59.491 55.4141 59.4909 55.4141 59.4908C55.4141 59.4907 55.4141 59.4906 50.4303 60.0958ZM45.527 64.1768L45.4251 75.2464L55.402 74.5677L55.5039 63.4981L45.527 64.1768ZM50.4596 69.9072L46.1795 70.1984L46.0874 80.198L50.3675 79.9068L50.4596 69.9072ZM80.7801 66.3056L80.7341 71.3054C83.4891 71.118 85.7432 68.7276 85.7686 65.9663L80.7801 66.3056ZM69.6458 67.0631L69.6919 62.0633C68.2597 62.1607 66.8909 62.8704 65.934 64.0117C64.9771 65.153 64.5243 66.6158 64.6911 68.0276L69.6458 67.0631ZM76.512 68.5447L76.558 63.5449C74.4939 63.6853 72.6313 65.0853 71.8725 67.0666L76.512 68.5447ZM80.5227 68.2718L85.3965 68.9615C85.717 67.4671 85.3594 65.9587 84.4228 64.855C83.4863 63.7514 82.0706 63.1699 80.5687 63.2721L80.5227 68.2718ZM69.7317 64.2391L64.8294 63.6917C64.5557 65.1665 64.9391 66.6373 65.8764 67.708C66.8138 68.7788 68.2087 69.3394 69.6856 69.2389L69.7317 64.2391ZM76.5559 63.7749L76.5099 68.7747C77.8861 68.6811 79.2064 68.0217 80.1585 66.9528C81.1105 65.8838 81.6096 64.5001 81.5378 63.1291L76.5559 63.7749ZM73.5784 68.7842C72.2648 68.8736 71.6612 68.492 71.357 68.1802C71.0033 67.8178 70.6227 67.0909 70.6344 65.8266L60.6574 66.5053C60.6268 69.8308 61.6453 73.086 63.9734 75.4717C66.3509 77.9081 69.7117 79.0406 73.4863 78.7838L73.5784 68.7842ZM70.6344 65.8266C70.645 64.6751 71.0341 63.8667 71.4461 63.3933C71.8262 62.9567 72.3835 62.6097 73.2469 62.551L73.339 52.5514C65.6988 53.0711 60.721 59.598 60.6574 66.5053L70.6344 65.8266ZM73.2469 62.551C74.3077 62.4788 74.7 62.7853 74.9531 63.0954C75.3286 63.5554 75.8102 64.6271 75.7916 66.645L85.7686 65.9663C85.8005 62.4944 85.0078 59.0208 82.8618 56.3921C80.5934 53.6134 77.2168 52.2876 73.339 52.5514L73.2469 62.551ZM80.8261 61.3058L69.6919 62.0633L69.5998 72.0629L80.7341 71.3054L80.8261 61.3058ZM64.6911 68.0276C64.9158 69.9305 65.6193 71.9906 67.2487 73.546C68.9587 75.1784 71.2041 75.7912 73.4854 75.636L73.5775 65.6364C73.5322 65.6395 73.6368 65.626 73.8293 65.6875C74.0321 65.7523 74.2387 65.8711 74.4082 66.0329C74.7404 66.35 74.6533 66.5451 74.6006 66.0985L64.6911 68.0276ZM73.4854 75.636C75.038 75.5303 76.6926 75.0589 78.1804 73.9666C79.6811 72.8647 80.6157 71.4217 81.1514 70.0228L71.8725 67.0666C71.9485 66.8682 72.186 66.417 72.708 66.0337C73.217 65.66 73.6112 65.6341 73.5775 65.6364L73.4854 75.636ZM76.4659 73.5445L80.4767 73.2716L80.5687 63.2721L76.558 63.5449L76.4659 73.5445ZM75.6489 67.5822C75.5969 67.8247 75.4701 68.0494 75.2479 68.2374C75.0415 68.4121 74.557 68.7176 73.5784 68.7842L73.4863 78.7838C79.6402 78.3652 84.2653 74.2351 85.3965 68.9615L75.6489 67.5822ZM73.3699 55.6972C71.2262 55.843 69.0684 56.6706 67.378 58.4524C65.8017 60.1141 65.127 62.0891 64.8294 63.6917L74.6339 64.7865C74.714 64.3548 74.7579 64.632 74.3445 65.0678C74.1251 65.299 73.8635 65.4789 73.6091 65.5911C73.3701 65.6965 73.235 65.6997 73.2778 65.6967L73.3699 55.6972ZM69.6856 69.2389L76.5099 68.7747L76.6019 58.7751L69.7777 59.2393L69.6856 69.2389ZM81.5378 63.1291C81.4334 61.1376 80.7017 59.1719 79.1915 57.7175C77.6507 56.2335 75.5665 55.5477 73.3699 55.6972L73.2778 65.6967C72.9368 65.7199 72.4178 65.6023 72.0037 65.2034C71.6201 64.834 71.5766 64.4704 71.574 64.4207L81.5378 63.1291ZM80.6203 72.8521L76.5356 70.2993C75.4721 71.9007 75.3366 73.8955 76.1839 75.4801C77.0312 77.0647 78.7217 77.9779 80.5742 77.8519L80.6203 72.8521ZM86.2925 64.3117L90.3771 66.8646C91.567 65.073 91.5837 62.8122 90.419 61.1851L86.2925 64.3117ZM81.3606 57.4221L81.4066 52.4223C79.5508 52.5485 77.8389 53.6969 76.9628 55.4032C76.0867 57.1095 76.1912 59.0918 77.2341 60.5487L81.3606 57.4221ZM85.9999 57.1065L90.2656 54.1863C89.3699 52.7759 87.7735 51.9892 86.0459 52.1067L85.9999 57.1065ZM88.683 61.331L84.4172 64.2512C85.313 65.6616 86.9093 66.4483 88.6369 66.3308L88.683 61.331ZM88.7428 61.3269L88.6968 66.3267C90.4688 66.2062 92.1164 65.1525 93.0253 63.5587L88.7428 61.3269ZM91.3575 56.742L91.4035 51.7422C89.6316 51.8628 87.9839 52.9164 87.075 54.5102L91.3575 56.742ZM95.5777 56.4549L99.7109 58.9334C100.74 57.3293 100.849 55.3534 99.9943 53.7904C99.14 52.2273 97.4609 51.3302 95.6238 51.4551L95.5777 56.4549ZM90.7524 63.9784L86.6192 61.4999C85.4919 63.2577 85.4776 65.4443 86.5832 67.0441L90.7524 63.9784ZM96.1544 71.7954L96.1083 76.7952C97.9503 76.6699 99.6518 75.5374 100.534 73.8496C101.416 72.1618 101.335 70.1933 100.324 68.7296L96.1544 71.7954ZM91.3056 72.1252L86.9285 74.8605C87.7955 76.3817 89.4524 77.248 91.2595 77.125L91.3056 72.1252ZM88.5091 67.2189L92.8862 64.4837C92.0192 62.9625 90.3623 62.0962 88.5551 62.2191L88.5091 67.2189ZM88.4493 67.223L88.4953 62.2232C86.8105 62.3378 85.2316 63.297 84.2975 64.7736L88.4493 67.223ZM85.08 72.5488L85.0339 77.5485C86.7188 77.4339 88.2976 76.4747 89.2317 74.9981L85.08 72.5488ZM84.7049 75.405L90.3771 66.8646L82.2078 61.7588L76.5356 70.2993L84.7049 75.405ZM90.419 61.1851L85.4871 54.2954L77.2341 60.5487L82.166 67.4384L90.419 61.1851ZM81.3146 62.4219L85.9538 62.1063L86.0459 52.1067L81.4066 52.4223L81.3146 62.4219ZM81.7341 60.0267L84.4172 64.2512L92.9487 58.4108L90.2656 54.1863L81.7341 60.0267ZM88.6369 66.3308L88.6968 66.3267L88.7889 56.3271L88.729 56.3312L88.6369 66.3308ZM93.0253 63.5587L95.64 58.9738L87.075 54.5102L84.4603 59.0951L93.0253 63.5587ZM91.3115 61.7418L95.5317 61.4547L95.6238 51.4551L91.4035 51.7422L91.3115 61.7418ZM91.4445 53.9765L86.6192 61.4999L94.8857 66.4568L99.7109 58.9334L91.4445 53.9765ZM86.5832 67.0441L91.9851 74.8612L100.324 68.7296L94.9217 60.9126L86.5832 67.0441ZM96.2004 66.7956L91.3516 67.1255L91.2595 77.125L96.1083 76.7952L96.2004 66.7956ZM95.6827 69.39L92.8862 64.4837L84.132 69.9541L86.9285 74.8605L95.6827 69.39ZM88.5551 62.2191L88.4953 62.2232L88.4032 72.2228L88.4631 72.2187L88.5551 62.2191ZM84.2975 64.7736L80.9282 70.0994L89.2317 74.9981L92.601 69.6723L84.2975 64.7736ZM85.126 67.549L80.6663 67.8523L80.5742 77.8519L85.0339 77.5485L85.126 67.549ZM96.3498 59.1006L91.3613 59.4399C91.3359 62.2012 93.5487 64.2878 96.3037 64.1004L96.3498 59.1006ZM96.3746 56.4007L96.4207 51.4009C93.6656 51.5883 91.4116 53.9787 91.3862 56.7401L96.3746 56.4007ZM98.4997 56.2561L98.4537 61.2559C101.209 61.0685 103.463 58.6781 103.488 55.9168L98.4997 56.2561ZM98.5439 51.4563L98.59 46.4566C95.8349 46.644 93.5809 49.0344 93.5555 51.7957L98.5439 51.4563ZM102.525 51.1855L107.513 50.8462C107.539 48.0849 105.326 45.9983 102.571 46.1858L102.525 51.1855ZM102.481 55.9853L97.4921 56.3247C97.4666 59.086 99.6794 61.1725 102.434 60.9851L102.481 55.9853ZM105.114 55.8062L110.103 55.4668C110.128 52.7055 107.916 50.619 105.16 50.8064L105.114 55.8062ZM105.09 58.506L105.044 63.5058C107.799 63.3184 110.053 60.928 110.078 58.1667L105.09 58.506ZM102.456 58.6852L102.502 53.6854C99.7467 53.8729 97.4926 56.2633 97.4672 59.0246L102.456 58.6852ZM105.09 68.1595L110.079 67.8202C110.091 66.4565 109.548 65.1897 108.574 64.3135C107.6 63.4372 106.28 63.0275 104.92 63.1792L105.09 68.1595ZM105.063 71.1594L105.338 76.127C107.965 75.7787 110.027 73.4564 110.051 70.8201L105.063 71.1594ZM98.4749 58.956L103.463 58.6167C103.489 55.8554 101.276 53.7688 98.5209 53.9562L98.4749 58.956ZM101.338 58.7612L101.363 56.0614L91.3862 56.7401L91.3613 59.4399L101.338 58.7612ZM96.3286 61.4005L98.4537 61.2559L98.5458 51.2564L96.4207 51.4009L96.3286 61.4005ZM103.488 55.9168L103.532 51.117L93.5555 51.7957L93.5113 56.5955L103.488 55.9168ZM98.4979 56.4561L102.479 56.1853L102.571 46.1858L98.59 46.4566L98.4979 56.4561ZM97.5363 51.5249L97.4921 56.3247L107.469 55.646L107.513 50.8462L97.5363 51.5249ZM102.434 60.9851L105.068 60.806L105.16 50.8064L102.527 50.9856L102.434 60.9851ZM100.126 56.1455L100.101 58.8454L110.078 58.1667L110.103 55.4668L100.126 56.1455ZM105.136 53.5063L102.502 53.6854L102.41 63.685L105.044 63.5058L105.136 53.5063ZM97.4672 59.0246L97.3921 67.1842L107.369 66.5055L107.444 58.3459L97.4672 59.0246ZM97.3921 67.1842C97.3785 68.6613 97.7918 70.597 99.4475 71.9707C100.991 73.251 102.791 73.3426 103.847 73.2708L103.939 63.2712C104.097 63.2604 105.136 63.209 106.145 64.046C107.266 64.9763 107.372 66.1685 107.369 66.5055L97.3921 67.1842ZM103.847 73.2708C104.181 73.248 104.543 73.2139 104.795 73.1888C104.926 73.1756 105.04 73.1637 105.122 73.155C105.163 73.1506 105.196 73.147 105.22 73.1444C105.232 73.1431 105.241 73.1421 105.248 73.1413C105.252 73.1409 105.254 73.1406 105.257 73.1404C105.258 73.1402 105.259 73.1401 105.259 73.1401C105.26 73.14 105.26 73.14 105.26 73.1399C105.261 73.1399 105.261 73.1399 105.261 73.1399C105.261 73.1399 105.261 73.1399 105.261 73.1399C105.261 73.1399 105.261 73.1399 105.09 68.1595C104.92 63.1792 104.92 63.1792 104.92 63.1792C104.92 63.1792 104.92 63.1792 104.92 63.1792C104.92 63.1792 104.92 63.1792 104.92 63.1791C104.92 63.1791 104.92 63.1791 104.921 63.1791C104.921 63.1791 104.921 63.1791 104.92 63.1791C104.92 63.1792 104.919 63.1793 104.917 63.1795C104.914 63.1799 104.908 63.1805 104.9 63.1814C104.884 63.1831 104.86 63.1858 104.828 63.1892C104.764 63.1959 104.674 63.2054 104.57 63.2158C104.351 63.2377 104.114 63.2593 103.939 63.2712L103.847 73.2708ZM100.102 68.4989L100.074 71.4988L110.051 70.8201L110.079 67.8202L100.102 68.4989ZM105.063 71.1594C104.788 66.1918 104.788 66.1918 104.788 66.1918C104.788 66.1918 104.788 66.1917 104.789 66.1917C104.789 66.1917 104.789 66.1916 104.79 66.1916C104.79 66.1915 104.791 66.1914 104.791 66.1913C104.792 66.1912 104.793 66.1911 104.794 66.191C104.795 66.1909 104.795 66.1909 104.794 66.1909C104.793 66.1911 104.788 66.1917 104.78 66.1928C104.763 66.1948 104.733 66.1986 104.689 66.2038C104.602 66.2141 104.461 66.2301 104.271 66.2496C103.89 66.2887 103.311 66.3419 102.564 66.3927L102.472 76.3923C103.342 76.3331 104.035 76.2698 104.522 76.2198C104.766 76.1948 104.958 76.1732 105.096 76.157C105.164 76.1489 105.219 76.1421 105.26 76.137C105.28 76.1345 105.297 76.1324 105.31 76.1307C105.316 76.1298 105.322 76.1291 105.327 76.1285C105.329 76.1282 105.331 76.1279 105.333 76.1276C105.334 76.1275 105.335 76.1274 105.336 76.1273C105.336 76.1272 105.337 76.1272 105.337 76.1271C105.337 76.1271 105.337 76.1271 105.337 76.127C105.338 76.127 105.338 76.127 105.063 71.1594ZM102.564 66.3927C102.384 66.4049 102.287 66.3924 102.269 66.3893C102.25 66.386 102.395 66.4074 102.61 66.545C102.852 66.6996 103.092 66.9461 103.248 67.2605C103.396 67.56 103.379 67.741 103.38 67.6463L93.4033 68.325C93.3765 71.2265 94.5488 73.6756 96.798 75.1163C98.7551 76.3699 100.965 76.4948 102.472 76.3923L102.564 66.3927ZM103.38 67.6463L103.463 58.6167L93.4864 59.2954L93.4033 68.325L103.38 67.6463ZM98.5209 53.9562L96.3958 54.1008L96.3037 64.1004L98.4288 63.9558L98.5209 53.9562ZM111.482 52.9746L106.493 53.314C106.468 56.0753 108.681 58.1618 111.436 57.9744L111.482 52.9746ZM111.516 49.3148L111.562 44.315C108.807 44.5024 106.553 46.8928 106.527 49.6541L111.516 49.3148ZM128.726 48.144L133.714 47.8047C133.74 45.0433 131.527 42.9568 128.772 43.1442L128.726 48.144ZM128.692 51.8038L128.646 56.8036C131.401 56.6162 133.655 54.2258 133.681 51.4645L128.692 51.8038ZM122.257 52.2416L122.303 47.2418C119.548 47.4292 117.294 49.8197 117.269 52.581L122.257 52.2416ZM122.093 70.0309L122.047 75.0306C124.802 74.8432 127.056 72.4528 127.082 69.6915L122.093 70.0309ZM117.753 70.3261L112.765 70.6654C112.739 73.4267 114.952 75.5133 117.707 75.3259L117.753 70.3261ZM117.917 52.5368L122.905 52.1975C122.931 49.4362 120.718 47.3496 117.963 47.5371L117.917 52.5368ZM116.47 52.6353L116.504 48.9754L106.527 49.6541L106.493 53.314L116.47 52.6353ZM111.47 54.3146L128.68 53.1438L128.772 43.1442L111.562 44.315L111.47 54.3146ZM123.737 48.4834L123.704 52.1432L133.681 51.4645L133.714 47.8047L123.737 48.4834ZM128.738 46.8041L122.303 47.2418L122.211 57.2414L128.646 56.8036L128.738 46.8041ZM117.269 52.581L117.105 70.3702L127.082 69.6915L127.245 51.9023L117.269 52.581ZM122.139 65.0311L117.799 65.3263L117.707 75.3259L122.047 75.0306L122.139 65.0311ZM122.742 69.9867L122.905 52.1975L112.929 52.8762L112.765 70.6654L122.742 69.9867ZM117.963 47.5371L111.528 47.9748L111.436 57.9744L117.871 57.5366L117.963 47.5371ZM130.394 69.4662L125.405 69.8055C125.38 72.5668 127.593 74.6534 130.348 74.466L130.394 69.4662ZM130.536 54.0768L130.582 49.0771C127.827 49.2645 125.572 51.6549 125.547 54.4162L130.536 54.0768ZM134.606 53.7999L139.595 53.4606C139.62 50.6993 137.407 48.6127 134.652 48.8001L134.606 53.7999ZM134.464 69.1893L134.418 74.1891C137.173 74.0016 139.427 71.6112 139.453 68.8499L134.464 69.1893ZM130.558 51.6769L125.569 52.0163C125.544 54.7776 127.757 56.8641 130.512 56.6767L130.558 51.6769ZM130.591 48.0171L130.637 43.0173C127.882 43.2047 125.628 45.5951 125.603 48.3564L130.591 48.0171ZM134.662 47.7402L139.65 47.4008C139.676 44.6395 137.463 42.553 134.708 42.7404L134.662 47.7402ZM134.628 51.4L134.582 56.3998C137.337 56.2124 139.591 53.822 139.617 51.0607L134.628 51.4ZM135.382 69.1268L135.524 53.7375L125.547 54.4162L125.405 69.8055L135.382 69.1268ZM130.489 59.0766L134.56 58.7997L134.652 48.8001L130.582 49.0771L130.489 59.0766ZM129.618 54.1393L129.476 69.5286L139.453 68.8499L139.595 53.4606L129.618 54.1393ZM134.51 64.1895L130.44 64.4664L130.348 74.466L134.418 74.1891L134.51 64.1895ZM135.546 51.3376L135.58 47.6777L125.603 48.3564L125.569 52.0163L135.546 51.3376ZM130.545 53.0169L134.616 52.74L134.708 42.7404L130.637 43.0173L130.545 53.0169ZM129.673 48.0795L129.64 51.7394L139.617 51.0607L139.65 47.4008L129.673 48.0795ZM134.674 46.4002L130.604 46.6772L130.512 56.6767L134.582 56.3998L134.674 46.4002ZM137.087 69.0108L132.099 69.3502C132.073 72.1115 134.286 74.1981 137.041 74.0106L137.087 69.0108ZM137.229 53.6215L137.275 48.6217C134.52 48.8091 132.266 51.1995 132.241 53.9609L137.229 53.6215ZM141.15 53.3548L146.138 53.0154C146.164 50.2541 143.951 48.1676 141.196 48.355L141.15 53.3548ZM141.131 55.4247L136.142 55.764C136.117 58.5253 138.33 60.6119 141.085 60.4245L141.131 55.4247ZM141.221 55.4186L141.175 60.4184C142.933 60.2988 144.569 59.2607 145.483 57.686L141.221 55.4186ZM149.929 55.0361L145.382 57.4445C146.183 59.1568 147.939 60.1681 149.883 60.0358L149.929 55.0361ZM149.989 55.032L149.942 60.0318C151.662 59.9148 153.269 58.918 154.194 57.3941L149.989 55.032ZM159.535 67.4838L159.489 72.4836C162.244 72.2961 164.499 69.9057 164.524 67.1444L159.535 67.4838ZM155.465 67.7607L150.476 68.1C150.451 70.8613 152.664 72.9479 155.419 72.7605L155.465 67.7607ZM150.347 68.1089L150.301 73.1086C153.056 72.9212 155.31 70.5308 155.335 67.7695L150.347 68.1089ZM146.276 68.3858L141.288 68.7251C141.262 71.4864 143.475 73.573 146.23 73.3856L146.276 68.3858ZM141.158 68.7339L141.112 73.7337C143.867 73.5463 146.121 71.1559 146.146 68.3946L141.158 68.7339ZM142.076 68.6715L142.218 53.2821L132.241 53.9609L132.099 69.3502L142.076 68.6715ZM137.183 58.6213L141.104 58.3546L141.196 48.355L137.275 48.6217L137.183 58.6213ZM136.162 53.6941L136.142 55.764L146.119 55.0853L146.138 53.0154L136.162 53.6941ZM141.085 60.4245L141.175 60.4184L141.267 50.4188L141.177 50.4249L141.085 60.4245ZM145.483 57.686C145.522 57.6185 145.538 57.6209 145.505 57.643C145.49 57.653 145.482 57.655 145.491 57.6519C145.5 57.6488 145.551 57.6323 145.657 57.6251L145.749 47.6255C141.7 47.901 138.633 50.2644 136.959 53.1512L145.483 57.686ZM145.657 57.6251C145.681 57.6235 145.67 57.627 145.635 57.6192C145.6 57.6113 145.558 57.5958 145.515 57.5705C145.423 57.5166 145.387 57.4548 145.382 57.4445L154.475 52.6276C152.965 49.3981 149.697 47.357 145.749 47.6255L145.657 57.6251ZM149.883 60.0358L149.942 60.0318L150.035 50.0322L149.975 50.0363L149.883 60.0358ZM154.194 57.3941C154.35 57.1379 154.469 57.0529 154.49 57.039C154.502 57.0309 154.506 57.0296 154.508 57.0292C154.509 57.0287 154.529 57.0216 154.577 57.0183L154.669 47.0187C150.771 47.2839 147.638 49.613 145.783 52.6699L154.194 57.3941ZM154.577 57.0183C154.847 56.9999 154.929 57.0379 154.887 57.024C154.867 57.0173 154.827 57.001 154.776 56.9694C154.725 56.9375 154.676 56.8982 154.635 56.8551C154.547 56.7632 154.543 56.7108 154.567 56.7837C154.594 56.8655 154.646 57.0805 154.642 57.4736L164.619 56.7949C164.643 54.2433 163.968 51.5924 162.066 49.6128C160.106 47.5736 157.406 46.8325 154.669 47.0187L154.577 57.0183ZM154.642 57.4736L154.547 67.8231L164.524 67.1444L164.619 56.7949L154.642 57.4736ZM159.582 62.484L155.511 62.7609L155.419 72.7605L159.489 72.4836L159.582 62.484ZM160.453 67.4213L160.542 57.7617L150.565 58.4404L150.476 68.1L160.453 67.4213ZM160.542 57.7617C160.557 56.1183 160.166 54.1054 158.662 52.5449C157.096 50.9199 155.02 50.5025 153.26 50.6223L153.168 60.6218C152.904 60.6398 152.006 60.5919 151.24 59.7969C150.536 59.0664 150.566 58.3439 150.565 58.4404L160.542 57.7617ZM153.26 50.6223C151.005 50.7756 148.849 51.8537 147.349 53.7808C145.943 55.5871 145.457 57.6834 145.441 59.5086L155.417 58.8299C155.419 58.6152 155.473 58.9958 155.028 59.5676C154.798 59.8635 154.482 60.1402 154.101 60.3404C153.725 60.5382 153.391 60.6066 153.168 60.6218L153.26 50.6223ZM145.441 59.5086L145.358 68.4482L155.335 67.7695L155.417 58.8299L145.441 59.5086ZM150.393 63.1091L146.322 63.386L146.23 73.3856L150.301 73.1086L150.393 63.1091ZM151.265 68.0464L151.354 58.3868L141.377 59.0655L141.288 68.7251L151.265 68.0464ZM151.354 58.3868C151.369 56.7434 150.977 54.7305 149.473 53.17C147.907 51.545 145.831 51.1276 144.071 51.2473L143.979 61.2469C143.715 61.2649 142.817 61.217 142.051 60.422C141.347 59.6915 141.377 58.969 141.377 59.0655L151.354 58.3868ZM144.071 51.2473C141.807 51.4013 139.683 52.5048 138.207 54.3731C136.803 56.1513 136.269 58.2435 136.252 60.1337L146.229 59.455C146.23 59.3053 146.266 59.6798 145.837 60.2224C145.619 60.4983 145.32 60.7615 144.952 60.9562C144.586 61.1502 144.242 61.229 143.979 61.2469L144.071 51.2473ZM136.252 60.1337L136.169 69.0733L146.146 68.3946L146.229 59.455L136.252 60.1337ZM141.204 63.7341L137.133 64.0111L137.041 74.0106L141.112 73.7337L141.204 63.7341ZM176.506 59.7937L176.46 64.7935C179.215 64.606 181.469 62.2156 181.495 59.4543L176.506 59.7937ZM165.372 60.5511L165.418 55.5513C163.986 55.6487 162.617 56.3584 161.66 57.4997C160.703 58.641 160.25 60.1038 160.417 61.5156L165.372 60.5511ZM172.238 62.0327L172.284 57.0329C170.22 57.1733 168.357 58.5733 167.599 60.5546L172.238 62.0327ZM176.249 61.7599L181.122 62.4496C181.443 60.9552 181.085 59.4468 180.149 58.3431C179.212 57.2394 177.797 56.6579 176.295 56.7601L176.249 61.7599ZM165.458 57.7272L160.555 57.1797C160.282 58.6545 160.665 60.1253 161.602 61.196C162.54 62.2668 163.935 62.8274 165.412 62.7269L165.458 57.7272ZM172.282 57.2629L172.236 62.2627C173.612 62.1691 174.932 61.5098 175.884 60.4408C176.837 59.3718 177.336 57.9881 177.264 56.6171L172.282 57.2629ZM169.304 62.2723C167.991 62.3616 167.387 61.98 167.083 61.6683C166.729 61.3058 166.349 60.5789 166.36 59.3146L156.383 59.9933C156.353 63.3188 157.371 66.5741 159.699 68.9597C162.077 71.3961 165.438 72.5286 169.212 72.2718L169.304 62.2723ZM166.36 59.3146C166.371 58.1631 166.76 57.3547 167.172 56.8814C167.552 56.4447 168.11 56.0977 168.973 56.039L169.065 46.0394C161.425 46.5592 156.447 53.0861 156.383 59.9933L166.36 59.3146ZM168.973 56.039C170.034 55.9668 170.426 56.2734 170.679 56.5834C171.055 57.0435 171.536 58.1151 171.518 60.133L181.495 59.4543C181.527 55.9825 180.734 52.5089 178.588 49.8801C176.319 47.1014 172.943 45.7756 169.065 46.0394L168.973 56.039ZM176.552 54.7939L165.418 55.5513L165.326 65.5509L176.46 64.7935L176.552 54.7939ZM160.417 61.5156C160.642 63.4186 161.345 65.4786 162.975 67.0341C164.685 68.6664 166.93 69.2792 169.211 69.124L169.303 59.1244C169.258 59.1275 169.363 59.114 169.555 59.1755C169.758 59.2404 169.965 59.3592 170.134 59.521C170.466 59.8381 170.379 60.0332 170.327 59.5866L160.417 61.5156ZM169.211 69.124C170.764 69.0184 172.419 68.547 173.906 67.4546C175.407 66.3527 176.342 64.9097 176.877 63.5108L167.599 60.5546C167.675 60.3562 167.912 59.905 168.434 59.5218C168.943 59.1481 169.337 59.1221 169.303 59.1244L169.211 69.124ZM172.192 67.0325L176.203 66.7597L176.295 56.7601L172.284 57.0329L172.192 67.0325ZM171.375 61.0702C171.323 61.3127 171.196 61.5374 170.974 61.7255C170.768 61.9002 170.283 62.2057 169.304 62.2723L169.212 72.2718C175.366 71.8532 179.991 67.7232 181.122 62.4496L171.375 61.0702ZM169.096 49.1852C166.952 49.331 164.794 50.1586 163.104 51.9405C161.528 53.6021 160.853 55.5771 160.555 57.1797L170.36 58.2746C170.44 57.8429 170.484 58.12 170.07 58.5559C169.851 58.7871 169.59 58.9669 169.335 59.0791C169.096 59.1845 168.961 59.1877 169.004 59.1848L169.096 49.1852ZM165.412 62.7269L172.236 62.2627L172.328 52.2631L165.504 52.7274L165.412 62.7269ZM177.264 56.6171C177.159 54.6257 176.428 52.66 174.918 51.2055C173.377 49.7215 171.293 49.0358 169.096 49.1852L169.004 59.1848C168.663 59.208 168.144 59.0903 167.73 58.6914C167.346 58.322 167.303 57.9584 167.3 57.9087L177.264 56.6171ZM179.884 59.8337L174.92 60.7138C175.173 63.2312 177.293 65.0066 179.838 64.8335L179.884 59.8337ZM178.843 49.4715L173.854 49.8109C173.853 49.9922 173.861 50.1727 173.879 50.3516L178.843 49.4715ZM178.887 44.7317L178.933 39.7319C176.178 39.9193 173.924 42.3098 173.898 45.0711L178.887 44.7317ZM183.137 44.4426L188.125 44.1032C188.151 41.3419 185.938 39.2554 183.183 39.4428L183.137 44.4426ZM183.093 49.1824L188.047 49.3878C188.068 49.2062 188.08 49.0243 188.082 48.843L183.093 49.1824ZM181.86 59.6993L181.814 64.6991C184.359 64.5259 186.514 62.4597 186.814 59.9047L181.86 59.6993ZM178.629 66.1849L173.641 66.5242C173.615 69.2855 175.828 71.3721 178.583 71.1847L178.629 66.1849ZM178.669 61.8351L178.715 56.8353C175.96 57.0227 173.706 59.4131 173.681 62.1744L178.669 61.8351ZM183.039 61.5378L188.028 61.1984C188.053 58.4371 185.84 56.3506 183.085 56.538L183.039 61.5378ZM182.999 65.8876L182.953 70.8874C185.708 70.7 187.962 68.3096 187.988 65.5483L182.999 65.8876ZM184.848 58.9536L183.807 48.5914L173.879 50.3516L174.92 60.7138L184.848 58.9536ZM183.831 49.1322L183.875 44.3924L173.898 45.0711L173.854 49.8109L183.831 49.1322ZM178.841 49.7315L183.091 49.4424L183.183 39.4428L178.933 39.7319L178.841 49.7315ZM178.148 44.7819L178.105 49.5217L188.082 48.843L188.125 44.1032L178.148 44.7819ZM178.139 48.977L176.906 59.4939L186.814 59.9047L188.047 49.3878L178.139 48.977ZM181.906 54.6995L179.93 54.8339L179.838 64.8335L181.814 64.6991L181.906 54.6995ZM183.618 65.8455L183.658 61.4957L173.681 62.1744L173.641 66.5242L183.618 65.8455ZM178.623 66.8348L182.993 66.5376L183.085 56.538L178.715 56.8353L178.623 66.8348ZM178.051 61.8771L178.011 66.227L187.988 65.5483L188.028 61.1984L178.051 61.8771ZM183.045 60.8878L178.675 61.1851L178.583 71.1847L182.953 70.8874L183.045 60.8878Z" fill="white" mask="url(#path-1-outside-1_2638_81307)"/>
</svg>
