<svg width="223" height="113" viewBox="0 0 223 113" fill="none" xmlns="http://www.w3.org/2000/svg">
<path d="M173.337 104.916C172.456 104.916 171.575 104.816 170.694 104.603C166.894 103.701 163.823 100.894 162.59 97.1977C161.973 95.3558 161.156 93.589 160.161 91.935C158.853 89.7798 157.217 87.775 155.404 86.146C154.763 85.5696 153.945 84.8805 152.258 83.7277C149.238 81.6602 147.627 80.9585 145.589 80.0563C143.588 79.1792 141.084 78.0765 137.849 75.9213C133.948 73.3276 128.323 68.754 123.667 61.6995C121.867 58.9804 120.332 56.0734 119.111 53.0536C117.413 48.8685 118.381 44.0819 121.578 40.8867L157.04 5.32573C159.18 3.18305 162.087 1.99268 165.082 1.99268C165.623 1.99268 166.164 2.03027 166.693 2.10545C170.241 2.61919 173.337 4.76187 175.036 7.89444C175.25 8.28288 175.577 8.88433 176.018 9.5735C178.509 13.5456 183.342 18.044 189.634 22.2667C191.823 23.7327 193.447 24.6725 195.007 25.5747C197.7 27.1284 200.494 28.7448 204.697 32.1405C208.422 35.1478 210.41 37.2529 211.581 38.5811C215.419 42.904 218.477 47.866 220.654 53.3292C222.34 57.5394 221.334 62.351 218.087 65.5337L181.278 101.671C179.138 103.776 176.269 104.916 173.325 104.916H173.337Z" fill="white" stroke="white" stroke-width="0.44" stroke-miterlimit="10"/>
<path d="M165.082 13.27C165.371 13.8088 165.824 14.6108 166.428 15.5631C167.775 17.7057 172.028 24.0586 183.317 31.6269C189.609 35.8496 191.735 36.1879 197.562 40.8993C200.607 43.3678 202.168 45.0092 203.099 46.0492C206.862 50.297 208.963 54.5573 210.146 57.5019C197.877 69.5435 185.607 81.5976 173.337 93.6392C172.28 90.4816 170.971 87.963 169.864 86.1336C167.284 81.8733 164.44 79.0916 163.018 77.801C161.873 76.761 160.615 75.7585 158.677 74.4429C151.541 69.5686 149.477 70.1074 144.142 66.5613C142.002 65.1329 137.132 61.5993 133.118 55.5221C131.394 52.9033 130.286 50.5351 129.607 48.8435C141.436 36.9898 153.253 25.1362 165.082 13.27Z" fill="white" stroke="white" stroke-width="0.44" stroke-miterlimit="10"/>
<path d="M78.7411 111.019C75.8467 111.019 72.9397 109.916 70.7374 107.711L70.3473 107.322C65.9302 102.924 65.9302 95.7819 70.3473 91.3712L157.292 4.787C159.507 2.58167 162.401 1.479 165.296 1.479C168.19 1.479 171.097 2.58167 173.299 4.787L173.69 5.17544C178.107 9.57357 178.107 16.7158 173.69 21.1265L86.7321 107.711C84.5172 109.916 81.6229 111.019 78.7285 111.019H78.7411Z" fill="white" stroke="white" stroke-miterlimit="10"/>
<path d="M165.309 12.7692L78.3539 99.3516L78.7455 99.7414L165.701 13.1591L165.309 12.7692Z" fill="white"/>
<path d="M209.882 68.8794C208.397 68.8794 206.925 68.5912 205.528 68.0149C202.759 66.8621 200.557 64.6693 199.412 61.9001C198.241 59.0682 196.757 56.4995 195.007 54.2817C191.308 49.5828 187.155 47.2021 181.882 44.1823C176.798 41.2627 171.047 37.9672 165.308 32.2534C163.962 30.9127 162.666 29.4842 161.445 28.0057C159.067 25.1112 156.94 21.9786 155.14 18.6831C153.706 16.0518 153.366 12.9693 154.209 10.0999C155.052 7.23045 157.015 4.81211 159.658 3.38365L160.149 3.12052C161.873 2.18075 163.723 1.74219 165.56 1.74219C169.574 1.74219 173.45 3.87234 175.514 7.61889C176.622 9.6488 177.943 11.591 179.415 13.3828C183.656 18.5453 188.212 21.1516 193.472 24.1714C199.714 27.7551 206.786 31.8149 213.267 40.0347C216.338 43.9191 218.892 48.3298 220.868 53.1163C223.246 58.8803 220.49 65.4587 214.714 67.8394L214.198 68.0524C212.814 68.6163 211.354 68.9045 209.882 68.9045V68.8794Z" fill="white" stroke="white" stroke-miterlimit="10"/>
<path d="M173.312 24.2714C172.267 23.2314 171.235 22.1037 170.216 20.8506C168.278 18.4949 166.554 15.9388 165.082 13.2573L165.573 12.9941C167.02 15.638 168.731 18.1566 170.644 20.4998C176.194 27.2536 182.096 30.6368 187.809 33.9197C193.686 37.2904 199.223 40.473 204.345 46.9637C206.774 50.0462 208.8 53.5547 210.385 57.3889L209.869 57.6019C208.309 53.8178 206.295 50.3469 203.904 47.3146C198.858 40.8991 193.346 37.7414 187.532 34.4084C182.826 31.7019 177.981 28.9327 173.312 24.2714Z" fill="white"/>
<path d="M173.073 105.004C171.412 105.004 169.751 104.641 168.228 103.914C165.51 102.636 163.408 100.33 162.402 97.4984C161.068 93.7644 159.205 90.5692 156.89 88.013C153.706 84.5045 150.233 82.7753 145.853 80.5825C141.084 78.2018 135.169 75.2446 129.481 69.5935C128.751 68.8667 128.021 68.0898 127.317 67.3004C123.73 63.2156 120.81 58.5418 118.646 53.4043C116.23 47.6655 118.935 41.062 124.699 38.6437L125.215 38.4307C126.624 37.8417 128.109 37.541 129.607 37.541C131.104 37.541 132.514 37.8167 133.886 38.3805C136.667 39.5083 138.882 41.7011 140.052 44.4577C141.247 47.3021 142.846 49.8583 144.784 52.0761C148.131 55.8853 151.717 57.6772 156.26 59.9452C161.495 62.564 168.002 65.8093 174.105 72.5256C178.484 77.3497 181.907 83.1512 184.273 89.7547C186.362 95.6189 183.304 102.059 177.427 104.152L176.899 104.34C175.665 104.779 174.369 105.004 173.073 105.004Z" fill="white" stroke="white" stroke-miterlimit="10"/>
<path d="M137.497 61.6367C136.944 61.0853 136.39 60.4964 135.849 59.8824C133.068 56.7123 130.79 53.0785 129.091 49.0563L129.607 48.8433C131.281 52.8028 133.521 56.399 136.264 59.5191C141.071 64.9823 146.206 67.551 151.176 70.032C156.009 72.4503 161.017 74.9438 165.699 80.0938C169.071 83.8153 171.727 88.3387 173.589 93.5388L173.06 93.7267C171.223 88.5893 168.606 84.1285 165.283 80.4572C160.678 75.3824 155.719 72.9139 150.925 70.5206C146.47 68.3028 141.877 66.0097 137.485 61.6367H137.497Z" fill="white"/>
<path d="M171.638 47.5778C169.474 47.5778 167.309 46.9638 165.396 45.7108C163.345 44.3701 161.395 42.8288 159.595 41.1623C158.009 39.6837 156.537 38.0924 155.191 36.4133C151.554 31.8523 152.007 25.2739 156.235 21.2517L163.874 13.9841C165.988 11.9668 168.794 10.8516 171.701 10.8516C171.877 10.8516 172.041 10.8516 172.217 10.8516C175.313 10.9894 178.207 12.3803 180.246 14.7109C181.102 15.6883 182.033 16.628 182.989 17.4926C183.883 18.3071 184.839 19.0714 185.808 19.7857C188.489 21.7278 190.188 24.7476 190.427 28.0556C190.678 31.3511 189.458 34.5964 187.104 36.9145L179.604 44.3074C177.414 46.4626 174.533 47.5653 171.638 47.5653V47.5778Z" fill="white" stroke="white" stroke-miterlimit="10"/>
<path d="M171.714 22.1289L164.075 29.3965C164.943 30.4866 166.025 31.6895 167.334 32.9175C168.857 34.3334 170.329 35.4361 171.638 36.3007C174.142 33.8322 176.634 31.3763 179.138 28.9078C177.955 28.0432 176.684 27.0408 175.376 25.8629C173.954 24.5848 172.733 23.3193 171.701 22.1289H171.714Z" fill="white"/>
<path d="M171.663 47.7659C169.499 47.7659 167.322 47.1519 165.409 45.8864L165.308 45.8237C163.257 44.4704 161.294 42.9417 159.494 41.2627C159.142 40.9369 158.79 40.5986 158.437 40.2477C157.254 39.0574 156.122 37.8043 155.09 36.5137L155.039 36.4511C151.365 31.89 151.805 25.2866 156.046 21.2393L163.874 13.7712C165.988 11.7539 168.794 10.6387 171.701 10.6387C171.877 10.6387 172.053 10.6387 172.23 10.6387C175.325 10.789 178.232 12.1799 180.258 14.5231L180.359 14.6358C181.19 15.5881 182.121 16.5279 183.077 17.3925C183.971 18.1944 184.915 18.9588 185.884 19.673L186.035 19.7858C188.715 21.7405 190.401 24.7603 190.64 28.0432C190.892 31.3387 189.671 34.5715 187.318 36.8896L179.617 44.483C177.427 46.6382 174.545 47.7408 171.651 47.7408L171.663 47.7659Z" fill="white" stroke="white" stroke-miterlimit="10"/>
<path d="M166.453 32.2659C165.572 31.3888 164.742 30.4615 163.962 29.4967L163.886 29.3964L171.714 21.9409L171.814 22.0537C172.959 23.3568 174.193 24.6099 175.476 25.7752C176.672 26.8528 177.93 27.8677 179.226 28.82L179.365 28.9203L171.663 36.5136L171.563 36.451C170.027 35.4486 168.58 34.2958 167.234 33.0553C166.969 32.8047 166.705 32.5541 166.441 32.2909L166.453 32.2659ZM164.264 29.4215C165.233 30.6244 166.302 31.7772 167.435 32.8297C168.731 34.0452 170.141 35.1478 171.626 36.1377L178.924 28.9328C177.666 28.0056 176.433 27.0157 175.288 25.9757C174.029 24.8354 172.821 23.62 171.701 22.3419L164.264 29.4215Z" fill="white"/>
<path d="M189.822 58.755C187.708 58.755 185.582 58.166 183.694 56.9631L174.759 51.2368C171.877 49.3948 169.99 46.3375 169.625 42.9418C169.26 39.5461 170.468 36.1629 172.897 33.7571L180.133 26.6023C182.322 24.4345 185.204 23.3193 188.124 23.3193C190.213 23.3193 192.302 23.8957 194.164 25.061L203.325 30.825C206.27 32.6795 208.196 35.7744 208.548 39.2203C208.9 42.6661 207.629 46.0869 205.125 48.4927L197.675 55.6099C195.511 57.6774 192.679 58.755 189.835 58.755H189.822Z" fill="white" stroke="white" stroke-miterlimit="10"/>
<path d="M188.124 34.5967L180.9 41.7515L189.835 47.4778L197.285 40.3606L188.124 34.5967Z" fill="white"/>
<path d="M189.848 58.9305C187.734 58.9305 185.607 58.3416 183.719 57.1387L174.545 51.262C171.664 49.4075 169.776 46.3627 169.411 42.9669C169.046 39.5712 170.254 36.1881 172.683 33.7823L180.108 26.427C182.297 24.2592 185.179 23.144 188.099 23.144C190.188 23.144 192.289 23.7204 194.139 24.8858L203.54 30.8C206.484 32.6545 208.41 35.7495 208.762 39.2079C209.114 42.6537 207.843 46.0745 205.339 48.4803L197.675 55.798C195.511 57.8655 192.679 58.9431 189.835 58.9431L189.848 58.9305Z" fill="white" stroke="white" stroke-miterlimit="10"/>
<path d="M180.686 41.7767L188.111 34.4214L197.512 40.3357L189.848 47.6534L180.674 41.7767H180.686ZM188.149 34.7722L181.114 41.7391L189.81 47.315L197.059 40.3858L188.149 34.7722Z" fill="white"/>
<path d="M173.526 105.105C170.606 105.105 167.687 103.989 165.472 101.747L165.082 101.346C162.968 99.2154 161.797 96.3335 161.81 93.3513C161.835 90.3565 163.043 87.4996 165.183 85.3946L188.715 62.2887C188.652 62.2135 188.35 61.8752 188.35 61.8752C184.26 57.3142 184.575 50.3348 189.055 46.1497L196.555 39.1453C198.657 37.178 201.425 36.0879 204.307 36.0879C204.433 36.0879 204.546 36.0879 204.672 36.0879C207.68 36.1881 210.524 37.4662 212.575 39.6465L212.953 40.0475C214.991 42.2152 216.011 44.9844 216.011 47.741C216.715 48.1921 217.395 48.7184 217.999 49.3449L218.389 49.7459C220.503 51.876 221.674 54.758 221.661 57.7402C221.636 60.735 220.428 63.5919 218.288 65.6969L181.479 101.834C179.277 104.002 176.395 105.08 173.526 105.08V105.105Z" fill="white" stroke="white" stroke-miterlimit="10"/>
<path d="M173.526 93.8272L173.136 93.4262L202.86 64.2432C202.18 62.4639 201.337 60.7472 200.356 59.1308C199.374 57.527 198.241 55.9857 196.983 54.5824L196.807 54.3819L204.307 47.3774L204.685 47.7784L197.587 54.4195C198.795 55.7978 199.89 57.2889 200.846 58.8426C201.815 60.4215 202.633 62.1005 203.313 63.8172L209.957 57.2889L210.347 57.6899L173.538 93.8272H173.526Z" fill="white"/>
<path d="M203.187 75.5957C202.508 75.5957 201.816 75.5331 201.136 75.4078C197.499 74.7437 194.416 72.3504 192.881 68.9923C192.251 67.6265 191.534 66.2732 190.754 64.9826C189.986 63.7045 189.118 62.4515 188.212 61.2736C184.663 56.675 185.192 50.1467 189.433 46.1746L196.731 39.3582C198.833 37.3909 201.614 36.3008 204.483 36.3008C204.798 36.3008 205.113 36.3133 205.44 36.3384C208.636 36.6015 211.581 38.2179 213.519 40.7616C214.954 42.6536 216.287 44.6585 217.458 46.7134C218.666 48.8185 219.736 51.0239 220.642 53.2668C222.353 57.4895 221.346 62.3262 218.087 65.5214L211.14 72.3379C209.001 74.4304 206.132 75.5832 203.187 75.5832V75.5957Z" fill="white" stroke="white" stroke-miterlimit="10"/>
<path d="M203.187 64.3186C202.457 62.7272 201.564 60.9981 200.456 59.1686C199.361 57.3643 198.254 55.7729 197.184 54.3946C199.613 52.1266 202.055 49.8461 204.483 47.5781C205.49 48.9063 206.572 50.4726 207.604 52.302C208.674 54.1691 209.492 55.9233 210.134 57.5021C207.818 59.7701 205.503 62.0506 203.187 64.3186Z" fill="white"/>
<path d="M142.556 76.7988C140.303 76.7988 138.051 76.1347 136.075 74.7689C134.188 73.4532 132.363 71.9746 130.676 70.3833C129.078 68.8671 127.568 67.2382 126.209 65.5215C122.748 61.186 122.975 54.9835 126.725 50.8987L133.785 43.2301C135.937 40.887 138.97 39.5713 142.141 39.5713C142.279 39.5713 142.43 39.5713 142.569 39.5713C145.891 39.6966 148.987 41.2754 151.05 43.8692C151.68 44.6711 152.384 45.4229 153.139 46.0996C153.957 46.8389 154.851 47.5155 155.782 48.0919C158.639 49.8712 160.552 52.8158 161.005 56.1363C161.458 59.4568 160.413 62.8024 158.135 65.2709L150.925 73.1148C148.71 75.5332 145.652 76.7737 142.569 76.7737L142.556 76.7988Z" fill="white" stroke="white" stroke-miterlimit="10"/>
<path d="M142.569 65.5216C141.31 64.6445 139.913 63.5543 138.479 62.2011C137.12 60.923 136 59.6574 135.093 58.5172C137.447 55.961 139.8 53.4048 142.141 50.8486C143.009 51.9513 144.129 53.2043 145.513 54.4574C147.023 55.8357 148.508 56.8882 149.779 57.6776C147.376 60.2965 144.972 62.9028 142.569 65.5216Z" fill="white"/>
<path d="M161.067 87.5247C158.614 87.5247 156.147 86.7353 154.083 85.1189C153.102 84.3545 152.057 83.6278 151 82.9762C149.716 82.1993 148.37 81.4851 146.998 80.8836C143.575 79.38 141.121 76.3101 140.429 72.6512C139.737 68.9924 140.907 65.2333 143.538 62.6019L150.698 55.4472C152.862 53.2794 155.769 52.1392 158.714 52.1392C160.199 52.1392 161.709 52.4274 163.131 53.0288C166.907 54.6202 170.405 56.7252 173.513 59.2814C174.13 59.7826 174.734 60.3214 175.313 60.8477C179.881 65.0579 180.183 72.1626 175.98 76.7361L169.423 83.8658C167.196 86.2842 164.138 87.5247 161.067 87.5247Z" fill="white" stroke="white" stroke-miterlimit="10"/>
<path d="M161.08 76.2475C159.885 75.3077 158.5 74.3429 156.94 73.3781C155.027 72.2128 153.202 71.2855 151.566 70.5713C153.957 68.1905 156.336 65.7973 158.727 63.4165C161.118 64.4189 163.748 65.8724 166.315 67.9775C166.768 68.3534 167.209 68.7293 167.624 69.1178C165.434 71.486 163.257 73.8668 161.067 76.235L161.08 76.2475Z" fill="white"/>
<path d="M173.337 104.917C172.481 104.917 171.613 104.816 170.757 104.616C166.97 103.739 163.899 100.982 162.628 97.3232C162.112 95.8446 161.47 94.3911 160.728 93.0128C160.111 91.8851 159.419 90.7824 158.677 89.7549C155.379 85.2315 155.921 78.9789 159.935 75.082L167.272 67.9397C169.386 65.8847 172.23 64.7319 175.187 64.7319C175.263 64.7319 175.326 64.7319 175.401 64.7319C178.434 64.7821 181.316 66.0476 183.405 68.2404C185.129 70.0448 186.664 72.0371 187.985 74.1422C189.646 76.8111 190.968 79.6931 191.899 82.7129C193.145 86.7351 192.037 91.1082 189.03 94.0653L181.291 101.659C179.151 103.764 176.282 104.904 173.337 104.904V104.917Z" fill="white" stroke="white" stroke-miterlimit="10"/>
<path d="M173.337 93.6394C172.72 91.8601 171.877 89.8302 170.707 87.675C169.763 85.9458 168.782 84.4296 167.85 83.1515C170.292 80.7708 172.746 78.39 175.187 76.0093C176.181 77.0493 177.301 78.4026 178.358 80.1067C179.743 82.3245 180.573 84.4046 181.076 86.046C178.497 88.5771 175.917 91.1083 173.337 93.6394Z" fill="white"/>
<path d="M156.713 47.7406C153.58 47.6529 150.597 46.3122 148.521 43.969C146.998 42.2398 145.601 40.3854 144.368 38.4557C142.921 36.1626 141.688 33.7067 140.706 31.1881C139.083 27.003 140.102 22.2415 143.324 19.0964L150.736 11.8288C152.875 9.72375 155.744 8.5835 158.689 8.5835C159.444 8.5835 160.212 8.65868 160.967 8.80904C164.667 9.56086 167.75 12.1045 169.172 15.5879C169.763 17.0289 170.468 18.4574 171.273 19.8106C171.852 20.788 172.494 21.7654 173.186 22.6926C176.508 27.1659 176.055 33.3935 172.116 37.3405L165.107 44.37C162.98 46.5127 160.048 47.7406 157.028 47.7406C156.927 47.7406 156.814 47.7406 156.713 47.7406Z" fill="white" stroke="white" stroke-miterlimit="10"/>
<path d="M157.003 36.5011C156.034 35.4109 154.977 34.0702 153.957 32.4538C152.724 30.499 151.868 28.6696 151.277 27.1284C153.743 24.7101 156.222 22.2792 158.689 19.8608C159.394 21.5775 160.312 23.5072 161.52 25.5371C162.376 26.978 163.245 28.2687 164.088 29.4089C161.734 31.7771 159.369 34.1454 157.015 36.5136L157.003 36.5011Z" fill="white"/>
<path d="M173.425 60.296C171.6 60.296 169.763 59.8575 168.064 58.9553C166.227 57.9654 164.402 56.9003 162.653 55.7851C160.967 54.7075 159.293 53.5548 157.707 52.3769C155.052 50.3971 153.404 47.3523 153.202 44.0568C153.001 40.7613 154.247 37.5411 156.638 35.2355L163.773 28.3689C165.95 26.2763 168.794 25.1987 171.651 25.1987C173.903 25.1987 176.156 25.8628 178.119 27.2161C179.277 28.018 180.472 28.7824 181.68 29.4966C182.977 30.261 184.323 30.9877 185.682 31.6518C188.954 33.2557 191.257 36.3382 191.861 39.9218C192.465 43.5055 191.282 47.1643 188.715 49.733L181.467 56.9755C179.289 59.1558 176.382 60.296 173.438 60.296H173.425Z" fill="white" stroke="white" stroke-miterlimit="10"/>
<path d="M173.425 49.0189C171.94 48.2295 170.38 47.3148 168.757 46.2873C167.209 45.2974 165.787 44.3075 164.503 43.3427C166.881 41.0496 169.26 38.7566 171.651 36.4761C172.947 37.3783 174.369 38.293 175.917 39.2077C177.578 40.185 179.176 41.0371 180.699 41.7764C178.283 44.1947 175.867 46.6005 173.45 49.0189H173.425Z" fill="white"/>
<path d="M189.835 72.7509C189.609 72.7509 189.382 72.7509 189.156 72.7259C185.896 72.5254 182.876 70.9466 180.875 68.3653C180.271 67.5884 179.604 66.8617 178.874 66.2101C178.119 65.5209 177.289 64.907 176.42 64.3682C173.413 62.5262 171.437 59.3811 171.097 55.8852C170.745 52.3892 172.053 48.9183 174.646 46.525L182.146 39.5582C184.311 37.5534 187.079 36.5259 189.873 36.5259C192.201 36.5259 194.529 37.2401 196.53 38.6811C198.078 39.8088 199.575 41.0243 200.985 42.3149C202.646 43.8436 204.219 45.4976 205.641 47.2518C209.303 51.7126 209.001 58.2033 204.936 62.3007L197.914 69.3803C195.775 71.5355 192.868 72.7384 189.848 72.7384L189.835 72.7509Z" fill="white" stroke="white" stroke-miterlimit="10"/>
<path d="M189.835 61.4738C188.979 60.3711 187.872 59.1181 186.475 57.8525C185.003 56.5243 183.581 55.5219 182.347 54.7701C184.852 52.452 187.343 50.1339 189.848 47.8032C190.917 48.5801 192.075 49.5073 193.271 50.5975C194.693 51.9132 195.876 53.2038 196.844 54.3816C194.504 56.7373 192.163 59.1055 189.822 61.4612L189.835 61.4738Z" fill="white"/>
<path d="M189.823 72.9641C189.596 72.9641 189.37 72.9641 189.143 72.939C185.884 72.7385 182.864 71.1597 180.863 68.591L180.762 68.4657C180.158 67.6888 179.491 66.9621 178.774 66.323C178.019 65.6338 177.201 65.0199 176.332 64.4936L176.156 64.3808C173.161 62.5263 171.185 59.3938 170.846 55.8978C170.506 52.4019 171.814 48.9435 174.394 46.5502L182.108 39.3829C184.273 37.3781 187.041 36.3506 189.835 36.3506C192.138 36.3506 194.466 37.0523 196.455 38.4807C196.467 38.4807 196.58 38.5684 196.593 38.581C198.153 39.7087 199.651 40.9367 201.048 42.2273C202.709 43.756 204.282 45.4225 205.729 47.1767C205.742 47.1893 205.83 47.302 205.842 47.3271C209.467 51.7879 209.14 58.241 205.1 62.3259L197.889 69.6059C195.75 71.7612 192.843 72.9641 189.823 72.9641Z" fill="white" stroke="white" stroke-miterlimit="10"/>
<path d="M182.121 54.7952L189.835 47.6279L189.923 47.6906C191.119 48.5552 192.277 49.4949 193.359 50.4974C194.642 51.6752 195.85 52.9533 196.945 54.294L197.021 54.3943L189.81 61.6744L189.709 61.5491C188.703 60.2584 187.583 59.043 186.362 57.9404C185.091 56.8001 183.719 55.7601 182.259 54.8704L182.108 54.7702L182.121 54.7952ZM189.86 47.9913L182.574 54.7577C183.983 55.6348 185.33 56.6497 186.563 57.7649C187.759 58.8425 188.854 60.0204 189.848 61.2734L196.668 54.3818C195.599 53.0786 194.416 51.8506 193.183 50.6978C192.138 49.733 191.018 48.8183 189.873 47.9788L189.86 47.9913Z" fill="white"/>
<path d="M157.091 61.9377C154.838 61.9377 152.573 61.2736 150.61 59.9078C148.798 58.6422 147.061 57.2388 145.45 55.7352C143.777 54.1689 142.204 52.4648 140.782 50.6604C137.208 46.137 137.623 39.6714 141.751 35.6366L149.087 28.4818C151.214 26.4143 154.058 25.249 157.015 25.249C157.166 25.249 157.305 25.249 157.456 25.249C160.577 25.3743 163.496 26.7652 165.548 29.1084C166.378 30.0481 167.259 30.9628 168.178 31.8024C169.121 32.667 170.128 33.4814 171.16 34.2332C173.841 36.1754 175.539 39.1952 175.791 42.4907C176.043 45.7862 174.835 49.0315 172.481 51.3496L165.069 58.6673C162.88 60.8225 159.998 61.9377 157.091 61.9377Z" fill="white" stroke="white" stroke-miterlimit="10"/>
<path d="M157.091 50.66C155.895 49.833 154.562 48.793 153.202 47.5149C151.78 46.1742 150.61 44.871 149.679 43.6807C152.12 41.2999 154.562 38.9066 157.015 36.5259C158.01 37.6536 159.167 38.869 160.514 40.1095C161.898 41.3751 163.245 42.4527 164.503 43.3549C162.037 45.7858 159.57 48.2292 157.091 50.66Z" fill="white"/>
<path d="M157.104 62.1129C154.813 62.1129 152.523 61.4237 150.547 60.0329L150.459 59.9702C148.71 58.7548 146.973 57.3514 145.362 55.8352C145.023 55.522 144.683 55.1962 144.356 54.8579C143.034 53.5422 141.814 52.1639 140.681 50.7354C140.681 50.7354 140.606 50.6352 140.593 50.6352C137.032 46.1117 137.447 39.6461 141.575 35.6239L149.1 28.2812C151.227 26.2137 154.071 25.0483 157.028 25.0483C157.166 25.0483 157.317 25.0483 157.456 25.0483C160.564 25.1611 163.496 26.552 165.548 28.8826L165.648 28.9954C166.491 29.9477 167.372 30.8499 168.278 31.6894C169.222 32.554 170.229 33.3684 171.261 34.1203L171.336 34.1704C174.042 36.1126 175.753 39.1324 176.005 42.4404C176.269 45.7484 175.049 48.9937 172.695 51.3369L165.095 58.8425C162.905 60.9977 160.023 62.1129 157.116 62.1129H157.104Z" fill="white" stroke="white" stroke-miterlimit="10"/>
<path d="M152.334 46.8637C151.353 45.8863 150.421 44.8463 149.566 43.7687L149.49 43.6684L157.015 36.3257L157.116 36.4385C158.211 37.6915 159.381 38.8819 160.602 40.0096C161.86 41.1624 163.194 42.2525 164.579 43.2549L164.704 43.3552L157.104 50.8608L157.015 50.7982C155.644 49.8459 154.322 48.7808 153.114 47.6405C152.85 47.3899 152.598 47.1518 152.347 46.8887L152.334 46.8637ZM149.868 43.6935C150.912 45.0092 152.07 46.2622 153.303 47.415C154.486 48.5176 155.757 49.5577 157.091 50.4849L164.302 43.3677C162.955 42.3903 161.659 41.3253 160.438 40.1975C159.243 39.1074 158.098 37.9296 157.015 36.7141L149.88 43.681L149.868 43.6935Z" fill="white"/>
<path d="M175.112 73.2905C172.57 73.2905 170.015 72.4384 167.913 70.7092C166.907 69.8822 165.85 69.1054 164.755 68.3786C163.584 67.6143 162.351 66.9 161.093 66.261C157.846 64.607 155.581 61.4995 155.04 57.9158C154.486 54.3196 155.707 50.6858 158.324 48.1422L165.548 41.1252C167.725 39.0076 170.594 37.9175 173.463 37.9175C175.678 37.9175 177.918 38.5691 179.856 39.8847C181.177 40.7869 182.536 41.6891 183.933 42.6038C185.33 43.5185 186.702 44.3956 188.048 45.2352C190.917 47.0395 192.83 50.0217 193.258 53.3798C193.686 56.738 192.566 60.0961 190.238 62.552L183.354 69.782C181.139 72.1126 178.144 73.303 175.137 73.303L175.112 73.2905Z" fill="white" stroke="white" stroke-miterlimit="10"/>
<path d="M175.124 62.0131C173.929 61.0358 172.557 59.9958 171.009 58.9808C169.323 57.8781 167.725 56.9634 166.24 56.2116C168.643 53.8685 171.06 51.5253 173.463 49.1821C174.847 50.1219 176.269 51.0742 177.717 52.0265C179.164 52.9663 180.598 53.8935 182.02 54.7706C179.718 57.1764 177.427 59.5948 175.124 62.0006V62.0131Z" fill="white"/>
<path d="M175.124 73.4782C172.569 73.4782 170.015 72.6262 167.913 70.8845L167.813 70.7967C166.818 69.9823 165.761 69.2054 164.679 68.4912C163.496 67.7143 162.275 67.0001 161.03 66.3736L160.841 66.2733C157.594 64.6193 155.342 61.5118 154.8 57.9281C154.247 54.332 155.48 50.7107 158.085 48.1671L165.522 40.9245C167.699 38.8069 170.569 37.7168 173.438 37.7168C175.653 37.7168 177.893 38.3684 179.831 39.6841C181.265 40.6614 182.637 41.5761 183.996 42.4658C185.355 43.3554 186.739 44.2325 188.111 45.0971L188.249 45.1848C191.119 46.9892 193.031 49.9714 193.459 53.3295C193.887 56.6876 192.78 60.0458 190.439 62.5017L183.342 69.9447C181.127 72.2753 178.132 73.4657 175.124 73.4657V73.4782Z" fill="white" stroke="white" stroke-miterlimit="10"/>
<path d="M166.001 56.2488L173.438 49.0063L173.526 49.069C174.936 50.0213 176.37 50.9861 177.78 51.9134C179.189 52.8406 180.636 53.7679 182.071 54.6575L182.209 54.7452L175.112 62.1882L175.011 62.1005C173.702 61.0229 172.318 60.0079 170.909 59.0807C169.386 58.0783 167.788 57.151 166.152 56.324L165.976 56.2363L166.001 56.2488ZM173.476 49.3697L166.466 56.1862C168.052 57.0007 169.6 57.9028 171.085 58.8677C172.469 59.7824 173.828 60.7723 175.112 61.8248L181.794 54.8079C180.41 53.9307 179 53.0411 177.641 52.1514C176.257 51.2493 174.847 50.3095 173.476 49.3697Z" fill="white"/>
<path d="M188.489 90.0306C187.583 90.0306 186.677 89.9178 185.77 89.7048C181.945 88.7651 178.887 85.9207 177.691 82.1867C177.352 81.1216 176.886 80.0816 176.307 79.1167C175.753 78.177 175.086 77.2998 174.331 76.4979C170.103 71.9995 170.292 64.9575 174.747 60.6847L181.995 53.7304C184.109 51.7005 186.928 50.5728 189.86 50.5728C189.961 50.5728 190.049 50.5728 190.15 50.5728C193.183 50.6479 196.052 51.926 198.128 54.1314C200.003 56.1237 201.664 58.3415 203.049 60.6972C204.471 63.1281 205.629 65.7219 206.459 68.4159C207.717 72.4381 206.61 76.8237 203.59 79.7808L196.429 86.8103C194.29 88.9154 191.421 90.0557 188.476 90.0557L188.489 90.0306Z" fill="white" stroke="white" stroke-miterlimit="10"/>
<path d="M188.488 78.7531C188.01 77.2495 187.255 75.3825 186.072 73.3651C184.915 71.4229 183.681 69.9067 182.624 68.779C185.04 66.4609 187.457 64.1428 189.873 61.8247C190.917 62.9399 192.151 64.4435 193.283 66.3732C194.466 68.378 195.196 70.2451 195.649 71.7362C193.271 74.0793 190.88 76.4225 188.501 78.7531H188.488Z" fill="white"/>
<path d="M188.426 90.2935C187.532 90.2935 186.626 90.1933 185.733 89.9678C181.907 89.0405 178.849 86.1961 177.653 82.4747L177.591 82.2616C177.238 81.1715 176.785 80.144 176.206 79.1917C175.653 78.2645 174.998 77.3874 174.256 76.5979L174.18 76.5102C169.939 72.0119 170.115 64.9573 174.583 60.672L182.02 53.5297C184.134 51.4998 186.953 50.3721 189.885 50.3721C189.973 50.3721 190.074 50.3721 190.162 50.3721C193.195 50.4473 196.064 51.7253 198.141 53.9181L198.241 54.0184C200.129 56.0232 201.79 58.2411 203.187 60.6093C204.634 63.0652 205.779 65.6715 206.623 68.3656C207.868 72.3878 206.786 76.8486 203.778 79.8057L196.404 87.0482C194.265 89.1533 191.396 90.2935 188.451 90.2935H188.426Z" fill="white" stroke="white" stroke-miterlimit="10"/>
<path d="M188.426 79.0164L188.363 78.8034C187.759 76.9364 186.953 75.132 185.959 73.4529C184.99 71.8115 183.832 70.2828 182.524 68.8919L182.435 68.7917L189.873 61.6494L189.973 61.7497C191.282 63.1405 192.44 64.6817 193.409 66.3232C194.403 68.0148 195.209 69.8317 195.787 71.7112L195.813 71.7864L188.438 79.0289L188.426 79.0164ZM182.813 68.7917C184.097 70.17 185.229 71.6862 186.186 73.3026C187.155 74.944 187.947 76.6858 188.551 78.5026L195.485 71.6987C194.907 69.8693 194.126 68.1025 193.157 66.4485C192.226 64.8572 191.119 63.3786 189.86 62.0253L182.813 68.7917Z" fill="white"/>
<path d="M142.141 62.1257C141.864 62.1257 141.587 62.1257 141.31 62.1007C138.013 61.8626 134.98 60.1961 133.03 57.5397C131.545 55.5348 130.198 53.4047 129.028 51.1993C128.059 49.3824 127.203 47.4904 126.461 45.5858C124.85 41.4007 125.869 36.6642 129.078 33.5191L136.352 26.3643C138.491 24.2592 141.36 23.1064 144.305 23.1064C145.098 23.1064 145.891 23.1942 146.683 23.357C150.421 24.159 153.492 26.7653 154.876 30.3114C155.354 31.5268 155.908 32.7172 156.524 33.8574C157.116 34.9476 157.795 36.0252 158.538 37.0401C161.772 41.5134 161.281 47.6658 157.38 51.5752L150.182 58.7927C148.043 60.9354 145.148 62.1257 142.153 62.1257H142.141Z" fill="white" stroke="white" stroke-miterlimit="10"/>
<path d="M142.128 50.8481C141.109 49.4698 140.026 47.8283 139.007 45.9112C138.176 44.3574 137.522 42.8788 137.006 41.5381C139.435 39.1573 141.864 36.7641 144.28 34.3833C144.859 35.8619 145.589 37.5033 146.545 39.2576C147.464 40.9366 148.407 42.3902 149.314 43.6306C146.91 46.0365 144.519 48.4423 142.115 50.8481H142.128Z" fill="white"/>
<path d="M142.115 62.3386C141.839 62.3386 141.562 62.3386 141.272 62.3135C137.975 62.0754 134.942 60.4089 132.992 57.7525L132.891 57.6272C131.406 55.6223 130.06 53.4796 128.877 51.2743C127.908 49.4574 127.04 47.5653 126.31 45.6482C124.699 41.4631 125.693 36.6515 128.889 33.4938L136.377 26.126C138.516 24.021 141.386 22.8682 144.33 22.8682C145.123 22.8682 145.916 22.9559 146.696 23.1188C150.434 23.9207 153.504 26.527 154.889 30.0731L154.964 30.2736C155.43 31.489 155.983 32.6668 156.613 33.8071C157.204 34.8972 157.884 35.9623 158.613 36.9773C158.613 36.9773 158.689 37.0775 158.689 37.09C161.911 41.5633 161.42 47.7032 157.519 51.6126L150.119 59.018C147.98 61.1607 145.085 62.3511 142.09 62.3511L142.115 62.3386Z" fill="white" stroke="white" stroke-miterlimit="10"/>
<path d="M142.115 51.0614L142.015 50.9361C140.857 49.3698 139.8 47.7033 138.881 45.9866C138.126 44.5707 137.459 43.0921 136.88 41.601L136.843 41.5133L144.33 34.1455L144.406 34.346C145.048 36 145.815 37.6415 146.671 39.2077C147.489 40.7114 148.42 42.1774 149.427 43.5683L149.49 43.6685L142.09 51.0739L142.115 51.0614ZM137.182 41.576C137.749 43.0295 138.403 44.4705 139.146 45.8488C140.026 47.5028 141.046 49.1192 142.153 50.6354L149.15 43.6184C148.168 42.2526 147.25 40.7991 146.444 39.3205C145.614 37.8044 144.871 36.2255 144.242 34.6342L137.182 41.576Z" fill="white"/>
<path d="M158.715 74.694C156.739 74.694 154.751 74.1803 152.964 73.1277C151.441 72.2381 149.918 71.2983 148.433 70.3209C146.684 69.1807 144.935 67.9653 143.248 66.7248C140.543 64.7324 138.857 61.65 138.668 58.3044C138.466 54.9588 139.775 51.7009 142.229 49.4204L149.377 42.7543C151.529 40.7495 154.31 39.7095 157.116 39.7095C159.092 39.7095 161.08 40.2232 162.88 41.2758C164.189 42.0526 165.51 42.842 166.844 43.644C168.53 44.6589 170.191 45.6864 171.827 46.7139C174.734 48.5308 176.66 51.5756 177.05 54.9714C177.44 58.3671 176.27 61.7628 173.853 64.1936L166.756 71.3359C164.566 73.5412 161.647 74.6815 158.702 74.6815L158.715 74.694Z" fill="white" stroke="white" stroke-miterlimit="10"/>
<path d="M158.727 63.4165C157.405 62.6397 156.046 61.8001 154.649 60.8979C152.988 59.8203 151.44 58.7302 149.981 57.6651C152.359 55.4473 154.75 53.2294 157.129 50.999C158.4 51.7508 159.683 52.5152 160.979 53.2921C162.615 54.282 164.239 55.2719 165.824 56.2617C163.458 58.6425 161.093 61.0232 158.727 63.404V63.4165Z" fill="white"/>
<path d="M158.739 74.8691C156.776 74.8691 154.8 74.3554 153.013 73.3153L152.925 73.2652C151.365 72.3505 149.842 71.3982 148.37 70.4459C146.621 69.3056 144.884 68.1027 143.185 66.8622L142.971 66.7119C140.291 64.707 138.642 61.6371 138.453 58.3041C138.265 54.971 139.573 51.7382 142.027 49.4577L149.377 42.6162C151.529 40.6113 154.31 39.5713 157.116 39.5713C159.117 39.5713 161.118 40.0976 162.917 41.1626C164.276 41.9646 165.623 42.7665 166.932 43.5559C168.593 44.5583 170.267 45.5858 171.915 46.6258L172.053 46.7135C174.96 48.5304 176.886 51.5753 177.289 54.971C177.691 58.3667 176.508 61.7624 174.092 64.2058L166.793 71.5486C164.604 73.7539 161.684 74.8942 158.739 74.8942V74.8691Z" fill="white" stroke="white" stroke-miterlimit="10"/>
<path d="M149.767 57.6775L157.116 50.8359L157.204 50.8861C158.488 51.6379 159.784 52.4148 161.055 53.1791C162.666 54.1565 164.302 55.1589 165.9 56.1613L166.051 56.249L158.752 63.5918L158.664 63.5416C157.292 62.7397 155.921 61.8876 154.587 61.0105C153.001 59.983 151.441 58.8929 149.918 57.7777L149.78 57.6775H149.767ZM157.154 51.1743L150.207 57.6524C151.68 58.73 153.202 59.7826 154.738 60.785C156.034 61.637 157.38 62.464 158.714 63.2534L165.623 56.2991C164.075 55.3343 162.49 54.3569 160.929 53.4172C159.683 52.6654 158.425 51.9135 157.167 51.1743H157.154Z" fill="white"/>
<path d="M174.898 87.111C171.789 87.0358 168.857 85.6951 166.768 83.3895C165.925 82.4623 165.032 81.5601 164.113 80.7205C163.119 79.8184 162.074 78.9412 161.005 78.1268C158.337 76.1219 156.701 73.0395 156.525 69.7064C156.348 66.3734 157.67 63.1406 160.124 60.8726L167.423 54.1062C169.574 52.1139 172.343 51.0864 175.137 51.0864C177.201 51.0864 179.277 51.6503 181.127 52.7905C182.989 53.9433 184.764 55.2715 186.4 56.7251C188.161 58.3039 189.785 60.0456 191.219 61.9126C194.668 66.3984 194.265 72.7262 190.25 76.7359L183.191 83.7905C181.064 85.9206 178.17 87.111 175.162 87.111C175.074 87.111 174.973 87.111 174.885 87.111H174.898Z" fill="white" stroke="white" stroke-miterlimit="10"/>
<path d="M175.174 75.8338C174.18 74.7437 173.06 73.6034 171.802 72.4381C170.43 71.1726 169.096 70.0824 167.838 69.1301C170.266 66.8747 172.708 64.6192 175.137 62.3638C176.257 63.0529 177.528 63.9676 178.849 65.133C180.271 66.411 181.391 67.6766 182.234 68.7793C179.881 71.135 177.528 73.4781 175.174 75.8338Z" fill="white"/>
<path d="M174.885 87.3116C171.777 87.2364 168.832 85.8831 166.756 83.5901L166.655 83.4773C165.824 82.5626 164.931 81.6604 164.025 80.8209C163.031 79.9062 161.986 79.0416 160.916 78.2397L160.74 78.1018C158.085 76.0845 156.462 73.002 156.298 69.694C156.134 66.3735 157.456 63.1532 159.897 60.8852L167.397 53.9309C169.549 51.9386 172.33 50.9111 175.111 50.9111C177.2 50.9111 179.302 51.4875 181.152 52.6528C183.052 53.8307 184.839 55.1714 186.488 56.6375C188.249 58.2163 189.885 59.958 191.32 61.8375L191.396 61.9378C194.844 66.4236 194.428 72.7639 190.414 76.7611L183.178 83.9911C181.051 86.1212 178.157 87.3116 175.149 87.3116C175.049 87.3116 174.96 87.3116 174.86 87.3116H174.885Z" fill="white" stroke="white" stroke-miterlimit="10"/>
<path d="M167.611 69.1428L175.124 62.1885L175.212 62.2511C176.534 63.0656 177.779 64.0054 178.937 65.0329C180.183 66.148 181.328 67.376 182.347 68.6917L182.423 68.7919L182.335 68.8796L175.174 76.047L175.074 75.9342C174.004 74.7563 172.872 73.6161 171.714 72.5385C170.455 71.3857 169.121 70.2705 167.762 69.243L167.624 69.1428H167.611ZM175.149 62.5393L168.052 69.1177C169.373 70.1201 170.669 71.1977 171.89 72.3255C173.023 73.378 174.13 74.4807 175.174 75.6209L182.033 68.7669C181.051 67.5013 179.944 66.3109 178.736 65.2459C177.616 64.2434 176.408 63.3413 175.137 62.5393H175.149Z" fill="white"/>
<path d="M49.3818 106.27C46.4371 106.27 43.5678 105.13 41.4285 103.025L4.63203 66.8873C1.38528 63.7046 0.365956 58.8929 2.05225 54.6828C4.24192 49.2196 7.28732 44.2701 11.1381 39.9346C12.321 38.6064 14.3094 36.5013 18.0217 33.4941C22.2249 30.0983 25.006 28.4819 27.7116 26.9282C29.2847 26.026 30.908 25.0862 33.0851 23.6202C39.3773 19.3975 44.2096 14.8991 46.7013 10.9395C47.1418 10.2378 47.4816 9.63639 47.6955 9.23542C49.4069 6.10285 52.5027 3.96018 56.0389 3.45896C56.58 3.38378 57.1085 3.34619 57.6497 3.34619C60.6447 3.34619 63.5391 4.53657 65.691 6.67925L101.166 42.2527C104.363 45.4605 105.332 50.247 103.633 54.4196C102.412 57.4394 100.877 60.3464 99.0772 63.0655C94.421 70.1201 88.7958 74.6936 84.8947 77.2874C81.6605 79.4426 79.1688 80.5327 77.1553 81.4224C75.1167 82.3246 73.5059 83.0263 70.4731 85.0938C68.7868 86.2466 67.9688 86.9357 67.327 87.5121C65.5148 89.141 63.8789 91.1459 62.5701 93.3011C61.576 94.9551 60.758 96.7219 60.1413 98.5638C58.9081 102.26 55.8375 105.054 52.0371 105.969C51.1562 106.182 50.2753 106.282 49.3944 106.282L49.3818 106.27Z" fill="white" stroke="white" stroke-width="0.44" stroke-miterlimit="10"/>
<path d="M57.6371 14.6235C57.3477 15.1623 56.8946 15.9643 56.2906 16.9166C54.9441 19.0593 50.6906 25.4121 39.4025 32.9804C33.1103 37.2031 30.9836 37.5414 25.1571 42.2528C22.1117 44.7213 20.5512 46.3627 19.62 47.4028C15.8573 51.6505 13.7557 55.9108 12.5728 58.8554C24.8424 70.897 37.1121 82.9512 49.3818 94.9928C50.4389 91.8351 51.7477 89.3165 52.8551 87.4871C55.4349 83.2268 58.2789 80.4451 59.7009 79.1545C60.8461 78.1145 62.1045 77.112 64.0425 75.7964C71.1778 70.9221 73.2416 71.4609 78.5774 67.9148C80.7167 66.4864 85.5868 62.9528 89.6012 56.8756C91.3253 54.2568 92.4327 51.8886 93.1122 50.197C81.283 38.3434 69.4663 26.4897 57.6371 14.6235Z" fill="white" stroke="white" stroke-width="0.44" stroke-miterlimit="10"/>
<path d="M143.978 112.372C141.084 112.372 138.177 111.269 135.974 109.064L49.0043 22.4795C44.5872 18.0814 44.5872 10.9517 49.0043 6.54099L49.3944 6.15256C51.5212 4.03494 54.403 2.84456 57.4106 2.83203C60.4183 2.83203 63.3001 4.02241 65.4142 6.14003L152.372 92.7243C154.498 94.8419 155.694 97.7113 155.694 100.694C155.694 103.676 154.498 106.558 152.372 108.663L151.982 109.051C149.767 111.257 146.872 112.359 143.978 112.359V112.372Z" fill="white" stroke="white" stroke-miterlimit="10"/>
<path d="M57.4003 14.1214L57.0088 14.5112L143.964 101.094L144.356 100.704L57.4003 14.1214Z" fill="white"/>
<path d="M12.8371 70.2453C11.4025 70.2453 9.95531 69.9697 8.54587 69.4058L8.02991 69.1928C5.24878 68.0525 3.03395 65.8723 1.87619 63.1031C0.718439 60.3339 0.705854 57.2264 1.85102 54.4572C3.82676 49.6706 6.39395 45.2599 9.45194 41.3755C15.9203 33.1557 23.0052 29.0959 29.247 25.5122C34.5199 22.4799 39.0754 19.8736 43.3037 14.7236C44.776 12.9318 46.0848 10.9896 47.2048 8.95971C48.6394 6.32835 51.0682 4.38616 53.95 3.5341C54.9945 3.23337 56.0642 3.08301 57.1464 3.08301C59.0215 3.08301 60.8965 3.54663 62.5828 4.46134L63.0736 4.72447C68.5604 7.70668 70.5864 14.5607 67.5788 20.024C65.7792 23.3069 63.6525 26.4395 61.2741 29.3465C60.0534 30.8376 58.7446 32.266 57.4107 33.5942C51.6722 39.3081 45.9212 42.6035 40.8372 45.5231C35.363 48.6682 31.4115 50.9362 27.7243 55.6225C25.9751 57.8529 24.4902 60.4091 23.3198 63.2409C21.5203 67.5889 17.292 70.2328 12.8371 70.2328V70.2453Z" fill="white" stroke="white" stroke-miterlimit="10"/>
<path d="M49.4071 25.6249C50.4516 24.5849 51.4835 23.4572 52.5028 22.2041C54.4408 19.8485 56.1649 17.2923 57.6372 14.6108L57.1464 14.3477C55.6992 16.9915 53.9878 19.5101 52.075 21.8533C46.5253 28.6071 40.6233 31.9903 34.91 35.2732C29.0331 38.6439 23.496 41.8266 18.3742 48.3172C15.9455 51.3997 13.9194 54.9082 12.3338 58.7424L12.8497 58.9555C14.4102 55.1713 16.4237 51.7004 18.8147 48.6681C23.861 42.2526 29.3729 39.095 35.1868 35.7619C39.8934 33.0554 44.7383 30.2862 49.4071 25.6249Z" fill="white"/>
<path d="M49.6461 106.37C48.3877 106.37 47.1041 106.157 45.8583 105.718L45.3297 105.53C42.4982 104.528 40.1827 102.448 38.8866 99.7412C37.5904 97.0347 37.4394 93.9397 38.4461 91.1204C40.812 84.5044 44.2223 78.7154 48.6142 73.8913C54.7176 67.1625 61.2363 63.9172 66.4587 61.3109C71.0017 59.0429 74.5882 57.2511 77.9356 53.4419C79.8736 51.2365 81.4718 48.6678 82.6673 45.8235C83.8251 43.0668 86.0525 40.8865 88.821 39.7463C90.1927 39.1824 91.6525 38.9067 93.0997 38.9067C94.5469 38.9067 96.0822 39.1949 97.4916 39.7839L98.0076 39.9969C103.771 42.4027 106.489 49.0187 104.061 54.7575C101.896 59.895 98.9766 64.5688 95.39 68.6536C94.6853 69.4556 93.9554 70.2199 93.2255 70.9467C87.5374 76.6103 81.6102 79.5675 76.8534 81.9357C72.474 84.1285 69.0134 85.8577 65.8169 89.3662C63.5014 91.9224 61.639 95.105 60.305 98.8391C58.6565 103.463 54.2897 106.345 49.6335 106.345L49.6461 106.37Z" fill="white" stroke="white" stroke-miterlimit="10"/>
<path d="M85.222 62.9902C85.7757 62.4389 86.3294 61.8499 86.8705 61.236C89.6517 58.0658 91.9294 54.432 93.6283 50.4098L93.1124 50.1968C91.4386 54.1563 89.1987 57.7525 86.4553 60.8726C81.6481 66.3358 76.5137 68.9045 71.5429 71.3855C66.7105 73.8038 61.702 76.2973 57.0206 81.4473C53.648 85.1688 50.9927 89.6922 49.1303 94.8923L49.6588 95.0802C51.4961 89.9428 54.1136 85.482 57.4359 81.8107C62.0417 76.7359 67 74.2674 71.7946 71.8742C76.2494 69.6563 80.8427 67.3633 85.2346 62.9902H85.222Z" fill="white"/>
<path d="M51.0807 48.9434C48.1737 48.9434 45.2919 47.8282 43.1148 45.6855L35.6146 38.2926C33.2487 35.962 32.0406 32.7292 32.2923 29.4337C32.544 26.1383 34.2303 23.1185 36.9107 21.1637C37.8923 20.4495 38.8361 19.6852 39.7296 18.8832C40.6986 18.0061 41.6173 17.0663 42.4856 16.089C44.5242 13.7709 47.4186 12.38 50.5144 12.2422C50.6905 12.2422 50.8541 12.2422 51.0303 12.2422C53.9373 12.2422 56.7436 13.3574 58.8577 15.3748L66.4964 22.6423C70.7247 26.6771 71.1778 33.2555 67.5283 37.8165C66.1818 39.4956 64.7094 41.0994 63.1364 42.5529C61.3494 44.2195 59.3989 45.7482 57.3351 47.1014C55.4222 48.3545 53.2577 48.9684 51.0932 48.9684L51.0807 48.9434Z" fill="white" stroke="white" stroke-miterlimit="10"/>
<path d="M51.0051 23.4946L58.6437 30.7622C57.7754 31.8523 56.6932 33.0552 55.3844 34.2832C53.8617 35.6991 52.3893 36.8018 51.0806 37.6664C48.5763 35.1979 46.0846 32.742 43.5803 30.2735C44.7632 29.4089 46.0343 28.4065 47.343 27.2287C48.7651 25.9506 49.9857 24.685 51.0176 23.4946H51.0051Z" fill="white"/>
<path d="M51.0431 49.0813C48.1361 49.0813 45.2543 47.9912 43.0772 45.8611L35.3756 38.2677C33.0224 35.9496 31.8017 32.7043 32.0534 29.4213C32.3051 26.1259 33.9788 23.1061 36.6592 21.1639L36.7977 21.0636C37.7918 20.3369 38.7356 19.5851 39.6165 18.7831C40.5855 17.906 41.5042 16.9788 42.3599 16.0014L42.4732 15.8636C44.5118 13.5455 47.4062 12.1671 50.4894 12.0293C50.653 12.0293 50.8166 12.0293 50.9927 12.0293C53.8997 12.0293 56.706 13.1445 58.8202 15.1619L66.6476 22.6174C70.8633 26.6396 71.329 33.1929 67.7047 37.754L67.6292 37.8542C66.5721 39.1824 65.4521 40.4354 64.2692 41.6133C63.9168 41.9641 63.5645 42.3025 63.2121 42.6282C61.4125 44.3073 59.4494 45.8485 57.3982 47.2018C55.4728 48.4674 53.2579 49.0939 51.0431 49.0939V49.0813Z" fill="white" stroke="white" stroke-miterlimit="10"/>
<path d="M55.4726 34.3834C54.1387 35.6364 52.6789 36.7767 51.1436 37.7791L51.0429 37.8418L43.3413 30.2484L43.4798 30.1482C44.7759 29.2084 46.047 28.1809 47.2299 27.1033C48.5135 25.938 49.7467 24.685 50.8919 23.3818L50.9926 23.269L58.82 30.7246L58.7445 30.8248C57.9769 31.7896 57.1337 32.7169 56.2528 33.594C55.9886 33.8571 55.7243 34.1077 55.46 34.3583L55.4726 34.3834ZM51.0178 23.6951C49.8978 24.9732 48.6897 26.1886 47.4312 27.3289C46.2735 28.3689 45.0528 29.3713 43.7944 30.286L51.0933 37.4909C52.5782 36.501 53.9876 35.3984 55.2838 34.1829C56.4164 33.1304 57.4861 31.9901 58.4551 30.7747L51.0178 23.6951Z" fill="white"/>
<path d="M32.8964 60.108C30.0523 60.108 27.2209 59.0429 25.0564 56.9754L17.6065 49.8582C15.0896 47.4524 13.8312 44.0442 14.1835 40.5858C14.5359 37.14 16.4613 34.0325 19.406 32.178L28.5674 26.4141C30.4298 25.2488 32.5314 24.6724 34.6078 24.6724C37.5274 24.6724 40.4092 25.7876 42.5989 27.9553L49.8222 35.1101C52.251 37.5159 53.4591 40.8991 53.0942 44.2948C52.7292 47.6905 50.8416 50.7479 47.9598 52.5898L39.0249 58.3162C37.1499 59.5191 35.0105 60.108 32.8964 60.108Z" fill="white" stroke="white" stroke-miterlimit="10"/>
<path d="M34.5952 35.9497L41.8186 43.117L32.8837 48.8308L25.4338 41.7136L34.5952 35.9497Z" fill="white"/>
<path d="M32.8714 60.2836C30.0273 60.2836 27.1959 59.2185 25.0314 57.1385L17.3675 49.8208C14.8507 47.415 13.5922 44.0067 13.9446 40.5484C14.297 37.1025 16.2223 33.995 19.1671 32.1531L28.5675 26.2388C30.43 25.0609 32.5316 24.4971 34.608 24.4971C37.5276 24.4971 40.4094 25.6123 42.599 27.78L50.0238 35.1353C52.4525 37.5411 53.6606 40.9243 53.2957 44.32C52.9307 47.7157 51.0431 50.7731 48.1613 52.615L38.9873 58.4917C37.1123 59.6946 34.9729 60.2836 32.8588 60.2836H32.8714Z" fill="white" stroke="white" stroke-miterlimit="10"/>
<path d="M32.8713 49.0064L25.2075 41.6887L34.6079 35.7744L42.0327 43.1297L32.8587 49.0064H32.8713ZM25.6605 41.7388L32.909 48.6681L41.6048 43.0921L34.5702 36.1253L25.6605 41.7388Z" fill="white"/>
<path d="M49.193 106.47C46.3238 106.47 43.442 105.392 41.2397 103.225L4.43069 67.0874C2.29136 64.9823 1.07069 62.1254 1.0581 59.1307C1.03293 56.1359 2.21586 53.2665 4.33002 51.1364L4.72013 50.7354C5.33676 50.1089 6.00373 49.5826 6.70845 49.1315C6.70845 46.2746 7.80328 43.5179 9.77902 41.4254L10.1565 41.0244C12.384 38.6687 15.3916 37.4658 18.4118 37.4658C21.193 37.4658 23.9741 38.4808 26.1638 40.5232L33.664 47.5276C38.144 51.7128 38.4586 58.6921 34.3687 63.2531C34.3687 63.2531 34.0667 63.5915 34.0038 63.6666L57.5364 86.7725C59.6757 88.8776 60.8964 91.7345 60.909 94.7292C60.9342 97.7239 59.7512 100.593 57.6371 102.724L57.247 103.125C55.0321 105.355 52.1126 106.483 49.193 106.483V106.47Z" fill="white" stroke="white" stroke-miterlimit="10"/>
<path d="M49.1931 95.1929L49.5832 94.7919L19.8591 65.6089C20.5386 63.8296 21.3818 62.113 22.3634 60.4966C23.3449 58.8927 24.4775 57.3515 25.736 55.9481L25.9121 55.7476L18.4119 48.7432L18.0344 49.1441L25.1319 55.7852C23.9238 57.1635 22.829 58.6546 21.8726 60.2084C20.9036 61.7872 20.0856 63.4662 19.4061 65.1829L12.7616 58.6546L12.3714 59.0556L49.1805 95.1929H49.1931Z" fill="white"/>
<path d="M19.532 76.9616C16.5872 76.9616 13.718 75.8088 11.5787 73.7163L4.63216 66.8873C1.37283 63.6921 0.366088 58.8554 2.07755 54.6452C2.98362 52.4023 4.05329 50.197 5.26138 48.0919C6.4443 46.0244 7.76565 44.0321 9.20026 42.14C11.1382 39.5963 14.0704 37.9799 17.2794 37.7168C17.594 37.6917 17.9212 37.6792 18.2358 37.6792C21.105 37.6792 23.8861 38.7693 25.9877 40.7366L33.2866 47.5531C37.5401 51.5252 38.0686 58.0534 34.5073 62.6521C33.5886 63.8424 32.7329 65.0829 31.9653 66.361C31.185 67.6516 30.4677 69.0049 29.8385 70.3707C28.3032 73.7163 25.2201 76.1096 21.5832 76.7862C20.9037 76.9115 20.2115 76.9742 19.532 76.9742V76.9616Z" fill="white" stroke="white" stroke-miterlimit="10"/>
<path d="M19.5319 65.6843C20.2617 64.093 21.1552 62.3638 22.2626 60.5344C23.3575 58.73 24.4649 57.1386 25.5346 55.7603C23.1058 53.4923 20.6644 51.2118 18.2357 48.9438C17.2289 50.2721 16.1467 51.8383 15.1148 53.6678C14.0451 55.5348 13.2271 57.289 12.5853 58.8678C14.9008 61.1358 17.2163 63.4163 19.5319 65.6843Z" fill="white"/>
<path d="M80.1631 78.1645C77.0799 78.1645 74.0219 76.9114 71.8071 74.5056L64.5963 66.6617C62.3311 64.1932 61.274 60.8476 61.7271 57.5271C62.1801 54.2066 64.0929 51.262 66.937 49.4827C67.8808 48.8937 68.7743 48.2171 69.5922 47.4778C70.3473 46.7887 71.052 46.0368 71.6812 45.2349C73.7325 42.6286 76.8408 41.0623 80.1631 40.937C80.3015 40.937 80.4525 40.937 80.5909 40.937C83.7622 40.937 86.795 42.2652 88.9469 44.5959L95.9941 52.2644C99.7568 56.3493 99.9707 62.5517 96.5101 66.8872C95.1384 68.6039 93.6282 70.2453 92.0426 71.749C90.3689 73.3278 88.5568 74.8064 86.6565 76.122C84.6934 77.4878 82.4282 78.1519 80.1756 78.1519L80.1631 78.1645Z" fill="white" stroke="white" stroke-miterlimit="10"/>
<path d="M80.1505 66.8873C81.4089 66.0102 82.8058 64.9201 84.2404 63.5668C85.5995 62.2887 86.7195 61.0231 87.6255 59.8829C85.2723 57.3267 82.919 54.7705 80.5783 52.2144C79.71 53.317 78.59 54.57 77.2057 55.8231C75.6956 57.2014 74.2107 58.2539 72.9397 59.0434C75.3433 61.6622 77.7469 64.2685 80.1505 66.8873Z" fill="white"/>
<path d="M61.6516 88.8775C58.5685 88.8775 55.5231 87.6371 53.2956 85.2187L46.7518 78.1015C42.5486 73.528 42.8381 66.4233 47.4062 62.2131C47.9725 61.6868 48.5765 61.1606 49.2057 60.6468C52.3015 58.1032 55.7999 55.9981 59.5752 54.4067C60.9972 53.8053 62.5073 53.5171 63.9923 53.5171C66.9496 53.5171 69.844 54.6699 72.0211 56.8376L79.1815 63.9924C81.8116 66.6238 82.982 70.3829 82.2898 74.0417C81.5977 77.7005 79.1438 80.7705 75.7208 82.2741C74.3366 82.8755 72.9901 83.5898 71.7065 84.3666C70.6494 85.0182 69.6049 85.7324 68.6233 86.5093C66.5595 88.1257 64.093 88.9151 61.639 88.9151L61.6516 88.8775Z" fill="white" stroke="white" stroke-miterlimit="10"/>
<path d="M61.6392 77.6005C62.8347 76.6608 64.219 75.6959 65.7794 74.7311C67.6922 73.5658 69.517 72.6386 71.1529 71.9243C68.7619 69.5436 66.3835 67.1503 63.9925 64.7695C61.6014 65.772 58.9713 67.2255 56.4041 69.3306C55.9511 69.7065 55.5106 70.0824 55.0954 70.4708C57.285 72.839 59.4621 75.2198 61.6518 77.588L61.6392 77.6005Z" fill="white"/>
<path d="M49.3818 106.27C46.4371 106.27 43.5679 105.129 41.4285 103.024L33.6892 95.431C30.6816 92.4739 29.5741 88.1008 30.82 84.0786C31.7512 81.0713 33.0726 78.1894 34.7337 75.5204C36.0425 73.4153 37.5903 71.423 39.3018 69.6187C41.3908 67.4259 44.2726 66.1603 47.3054 66.0977C47.3809 66.0977 47.4564 66.0977 47.5193 66.0977C50.4767 66.0977 53.3207 67.2504 55.4349 69.3179L62.7715 76.4477C66.7859 80.3571 67.327 86.5972 64.0299 91.1206C63.2749 92.1606 62.5827 93.2633 61.9661 94.391C61.2236 95.7694 60.5818 97.2103 60.0659 98.6889C58.7949 102.348 55.7243 105.104 51.9364 105.982C51.0807 106.182 50.2124 106.282 49.3566 106.282L49.3818 106.27Z" fill="white" stroke="white" stroke-miterlimit="10"/>
<path d="M49.3821 94.9924C49.9987 93.2131 50.8418 91.1832 52.0122 89.028C52.956 87.2988 53.9376 85.7827 54.8688 84.5046C52.4275 82.1238 49.9735 79.7431 47.5322 77.3623C46.538 78.4023 45.418 79.7556 44.3609 81.4597C42.9767 83.6776 42.1461 85.7576 41.6427 87.3991C44.2225 89.9302 46.8023 92.4613 49.3821 94.9924Z" fill="white"/>
<path d="M65.7163 49.1444C62.696 49.1444 59.8016 47.9415 57.6749 45.8114L50.6025 38.7067C46.6636 34.7597 46.2106 28.5446 49.5328 24.0713C50.225 23.1441 50.8668 22.1667 51.4582 21.1768C52.2636 19.8236 52.9684 18.4076 53.5598 16.9541C54.9818 13.4707 58.065 10.9271 61.7648 10.1753C62.5198 10.0249 63.2875 9.94971 64.0425 9.94971C66.9873 9.94971 69.8439 11.09 71.9832 13.1825L79.408 20.4626C82.617 23.6202 83.6489 28.3692 82.0255 32.5669C81.0439 35.098 79.8107 37.5414 78.3635 39.8344C77.1428 41.7641 75.7459 43.6186 74.2232 45.3352C72.1468 47.6784 69.1895 49.0567 66.056 49.1444C65.9428 49.1444 65.8421 49.1444 65.7288 49.1444H65.7163Z" fill="white" stroke="white" stroke-miterlimit="10"/>
<path d="M65.7165 37.8673C66.6854 36.7771 67.7425 35.4364 68.7619 33.82C69.9951 31.8653 70.8508 30.0358 71.4423 28.4946C68.9758 26.0763 66.4967 23.6454 64.0302 21.2271C63.3254 22.9437 62.4068 24.8734 61.1987 26.9033C60.343 28.3443 59.4746 29.6349 58.6315 30.7751C60.9848 33.1433 63.3506 35.5116 65.7039 37.8798L65.7165 37.8673Z" fill="white"/>
<path d="M49.2937 61.6494C46.349 61.6494 43.4546 60.5091 41.2649 58.3289L34.0164 51.0864C31.4366 48.5051 30.2662 44.8588 30.8703 41.2626C31.4743 37.679 33.7773 34.5965 37.0492 32.9926C38.3957 32.3285 39.7422 31.6143 41.0384 30.8374C42.2465 30.1232 43.4546 29.3589 44.5998 28.5569C46.5503 27.2037 48.8155 26.5396 51.0555 26.5396C53.9121 26.5396 56.7562 27.6172 58.9333 29.7097L66.0811 36.5763C68.4722 38.8693 69.718 42.1022 69.5167 45.3976C69.3153 48.6931 67.6542 51.7379 64.9989 53.7177C63.4007 54.9081 61.7396 56.0484 60.0659 57.126C58.3166 58.2412 56.4919 59.3062 54.642 60.2961C52.9557 61.1983 51.1184 61.6369 49.2937 61.6369V61.6494Z" fill="white" stroke="white" stroke-miterlimit="10"/>
<path d="M49.2939 50.3719C50.7788 49.5825 52.3393 48.6678 53.9626 47.6403C55.5105 46.6504 56.9325 45.6605 58.2161 44.6957C55.8377 42.4027 53.4593 40.1096 51.0682 37.8291C49.7721 38.7313 48.35 39.646 46.8022 40.5607C45.141 41.5381 43.5428 42.3901 42.0201 43.1294C44.4363 45.5478 46.8525 47.9536 49.2687 50.3719H49.2939Z" fill="white"/>
<path d="M32.8838 74.1171C29.8635 74.1171 26.9566 72.9142 24.8172 70.759L17.7952 63.6669C13.7305 59.5569 13.4284 53.0663 17.0905 48.6055C18.5251 46.8638 20.0981 45.1972 21.7467 43.6811C23.1435 42.3905 24.6536 41.1625 26.2015 40.0473C28.1898 38.6063 30.5305 37.8921 32.846 37.8921C35.6271 37.8921 38.4083 38.907 40.5728 40.9244L48.0101 47.8286C50.5899 50.2344 51.9364 53.7304 51.5966 57.2263C51.2442 60.7223 49.3063 63.905 46.2986 65.7469C45.4303 66.2857 44.5997 66.8997 43.8447 67.5763C43.1148 68.2404 42.4352 68.9672 41.8438 69.7315C39.8429 72.3002 36.8226 73.8916 33.5633 74.0921C33.3368 74.1046 33.1103 74.1171 32.8838 74.1171Z" fill="white" stroke="white" stroke-miterlimit="10"/>
<path d="M32.8838 62.84C33.7395 61.7373 34.847 60.4843 36.2438 59.2187C37.7162 57.8905 39.1382 56.8881 40.3715 56.1363C37.8672 53.8182 35.3755 51.5001 32.8712 49.1694C31.8016 49.9463 30.6438 50.8736 29.4483 51.9637C28.0263 53.2794 26.8433 54.57 25.8744 55.7478C28.215 58.1035 30.5557 60.4717 32.8964 62.8274L32.8838 62.84Z" fill="white"/>
<path d="M32.8964 74.3178C29.8761 74.3178 26.9692 73.1148 24.8298 70.9596L17.619 63.6795C13.5795 59.5947 13.2523 53.1416 16.8766 48.6808C16.8891 48.6683 16.9772 48.5555 17.0024 48.5304C18.4496 46.7762 20.0226 45.1097 21.6838 43.581C23.0932 42.2778 24.6033 41.0624 26.1512 39.9347C28.1647 38.4812 30.5431 37.7544 32.9089 37.7544C35.6901 37.7544 38.4712 38.7568 40.6105 40.7491L48.3247 47.9165C50.9045 50.3097 52.2258 53.7806 51.8735 57.2766C51.5211 60.7725 49.558 63.9176 46.5377 65.7596L46.3867 65.8598C45.5184 66.3861 44.7004 67.0001 43.9454 67.6892C43.2281 68.3408 42.5611 69.055 41.957 69.8319L41.8186 70.0073C39.8177 72.5635 36.7975 74.1298 33.5507 74.3178C33.3368 74.3178 33.1229 74.3303 32.8964 74.3303V74.3178Z" fill="white" stroke="white" stroke-miterlimit="10"/>
<path d="M40.447 56.2488C38.9872 57.1385 37.6155 58.1785 36.3445 59.3188C35.1238 60.4089 34.0038 61.6243 32.9971 62.9275L32.8964 63.0528L25.6856 55.7727L25.7611 55.6725C26.8685 54.3317 28.0766 53.0536 29.3476 51.8758C30.4299 50.8734 31.5876 49.9336 32.7831 49.069L32.8712 49.0063L40.5854 56.1737L40.4344 56.2739L40.447 56.2488ZM29.549 52.0637C28.3031 53.204 27.1328 54.4445 26.0631 55.7476L32.8838 62.6393C33.878 61.3737 34.9728 60.1959 36.1683 59.1308C37.4016 58.0156 38.7481 57.0132 40.1575 56.1235L32.8712 49.3572C31.7135 50.1967 30.6061 51.1114 29.5616 52.0763L29.549 52.0637Z" fill="white"/>
<path d="M65.6284 63.2909C62.7214 63.2909 59.8396 62.1757 57.6499 60.0205L50.2504 52.7153C47.8971 50.3847 46.6764 47.1519 46.9281 43.8564C47.1798 40.5609 48.8661 37.5412 51.5591 35.599C52.6036 34.8471 53.5978 34.0327 54.5542 33.1556C55.4854 32.3035 56.3663 31.4013 57.1843 30.4741C59.2356 28.1309 62.1677 26.74 65.276 26.6147C65.427 26.6147 65.578 26.6147 65.7165 26.6147C68.6738 26.6147 71.5304 27.7675 73.6446 29.8476L80.9686 37.0024C85.0963 41.0246 85.5116 47.5027 81.9502 52.0262C80.5282 53.818 78.9551 55.5346 77.2814 57.1009C75.6581 58.6171 73.9214 60.0205 72.1219 61.2735C70.1587 62.6393 67.8936 63.3034 65.641 63.3034L65.6284 63.2909Z" fill="white" stroke="white" stroke-miterlimit="10"/>
<path d="M65.6283 52.0136C66.8238 51.1866 68.1578 50.1465 69.5169 48.8685C70.9389 47.5277 72.1092 46.2246 73.0405 45.0342C70.5991 42.6534 68.1578 40.2601 65.7038 37.8794C64.7097 39.0071 63.5519 40.2226 62.2054 41.4631C60.8211 42.7286 59.4746 43.8062 58.2162 44.7084C60.6827 47.1393 63.1492 49.5827 65.6283 52.0136Z" fill="white"/>
<path d="M65.6156 63.4664C62.7086 63.4664 59.8268 62.3512 57.6372 60.196L50.0363 52.6904C47.683 50.3598 46.4623 47.1269 46.714 43.8315C46.9657 40.536 48.652 37.5162 51.3324 35.574L51.4583 35.4738C52.5028 34.722 53.4969 33.9075 54.4408 33.0429C55.3594 32.2034 56.2403 31.3012 57.0583 30.374L57.1338 30.2862C59.185 27.9306 62.1172 26.5272 65.2381 26.4019C65.3891 26.4019 65.5401 26.4019 65.6911 26.4019C68.6484 26.4019 71.5051 27.5546 73.6192 29.6347L81.1446 36.9899C85.2597 41.0122 85.6876 47.4778 82.1262 52.0012C82.1262 52.0012 82.0507 52.1015 82.0381 52.1015C80.9055 53.5299 79.6723 54.9082 78.3761 56.1989C78.0363 56.5372 77.6965 56.863 77.3442 57.1888C75.746 58.6924 73.9968 60.0958 72.1846 61.3613C72.1595 61.3739 72.0462 61.4616 72.021 61.4741C70.0705 62.8023 67.8305 63.4664 65.603 63.4664H65.6156Z" fill="white" stroke="white" stroke-miterlimit="10"/>
<path d="M69.6176 48.9687C68.3969 50.1089 67.0881 51.174 65.7164 52.1263L65.6283 52.1889L58.0274 44.6833L58.1533 44.5831C59.5375 43.5806 60.8715 42.4905 62.1299 41.3377C63.3506 40.2225 64.5335 39.0196 65.6157 37.7666L65.7164 37.6538L73.2418 44.9966L73.1663 45.0968C72.3106 46.1744 71.3794 47.2144 70.3978 48.1918C70.1461 48.4424 69.8818 48.693 69.6301 48.9436L69.6176 48.9687ZM65.7164 38.0798C64.6468 39.2953 63.5016 40.4606 62.2935 41.5633C61.0728 42.6785 59.7641 43.7435 58.4301 44.7334L65.6409 51.8506C66.9749 50.9234 68.2459 49.8834 69.4288 48.7807C70.6621 47.6279 71.8072 46.3749 72.8643 45.0592L65.729 38.0924L65.7164 38.0798Z" fill="white"/>
<path d="M47.6074 74.6433C44.5997 74.6433 41.6047 73.453 39.3898 71.1223L32.4936 63.8798C30.153 61.4239 29.0455 58.0658 29.4734 54.7077C29.9013 51.3621 31.8141 48.3673 34.6833 46.5755C36.0424 45.7234 37.4141 44.8463 38.7984 43.9441C40.1952 43.0294 41.5543 42.1272 42.8757 41.2251C44.8137 39.9094 47.0411 39.2578 49.2685 39.2578C52.1503 39.2578 55.0069 40.3479 57.184 42.4656L64.4074 49.4951C67.0124 52.0387 68.233 55.6725 67.6919 59.2561C67.1382 62.8523 64.8856 65.9598 61.6389 67.6013C60.3804 68.2404 59.1472 68.9546 57.9768 69.7315C56.882 70.4457 55.8249 71.2226 54.8308 72.0496C52.7292 73.7787 50.1746 74.6308 47.62 74.6308L47.6074 74.6433Z" fill="white" stroke="white" stroke-miterlimit="10"/>
<path d="M47.5948 63.3662C48.7903 62.3888 50.162 61.3488 51.7099 60.3338C53.3962 59.2312 54.9944 58.3165 56.4793 57.5646C54.0757 55.2215 51.6595 52.8783 49.2559 50.5352C47.8716 51.4749 46.4496 52.4272 45.0024 53.3795C43.5552 54.3193 42.1206 55.2465 40.6986 56.1237C43.0015 58.5295 45.2919 60.9478 47.5948 63.3536V63.3662Z" fill="white"/>
<path d="M47.595 74.8314C44.5874 74.8314 41.5923 73.641 39.3775 71.3104L32.2799 63.8674C29.9392 61.4115 28.8318 58.0534 29.2597 54.6953C29.6875 51.3371 31.5878 48.3549 34.4696 46.5506L34.608 46.4629C35.9797 45.5983 37.364 44.7212 38.7231 43.8315C40.0822 42.9419 41.4539 42.0271 42.8004 41.1124C44.7635 39.7717 47.0413 39.1201 49.3065 39.1201C52.1883 39.1201 55.0449 40.1852 57.2094 42.2903L64.6467 49.5328C67.2517 52.0764 68.4723 55.6977 67.9312 59.2939C67.3901 62.8901 65.1375 65.985 61.8908 67.639L61.7146 67.7268C60.4436 68.3658 59.2229 69.08 58.0525 69.8444C56.9703 70.5586 55.9006 71.3355 54.9065 72.1625L54.8184 72.2377C52.7168 73.9668 50.1496 74.8314 47.6076 74.8314H47.595Z" fill="white" stroke="white" stroke-miterlimit="10"/>
<path d="M56.555 57.6898C54.9191 58.5168 53.3208 59.444 51.7981 60.4464C50.3761 61.3737 49.0044 62.4011 47.6957 63.4662L47.595 63.5539L40.4975 56.1109L40.6359 56.0232C42.0705 55.121 43.5177 54.1938 44.9271 53.2791C46.3491 52.3519 47.7838 51.3996 49.1806 50.4347L49.2687 50.3721L56.706 57.6146L56.5298 57.7023L56.555 57.6898ZM45.0907 53.4921C43.719 54.3818 42.3222 55.2839 40.9379 56.1485L47.6202 63.1655C48.9038 62.1129 50.2629 61.123 51.6471 60.2083C53.1321 59.231 54.6799 58.3288 56.2656 57.5269L49.2561 50.7104C47.8844 51.6502 46.475 52.5774 45.0907 53.4921Z" fill="white"/>
<path d="M34.2307 91.3967C31.286 91.3967 28.4168 90.2564 26.2775 88.1513L19.1296 81.1344C16.1219 78.1772 15.0145 73.8041 16.2604 69.7819C17.0909 67.0879 18.2487 64.4941 19.6707 62.0507C21.055 59.695 22.7161 57.4897 24.5912 55.4974C26.6676 53.2921 29.5368 52.0015 32.5696 51.9263C32.6703 51.9263 32.7584 51.9263 32.859 51.9263C35.7912 51.9263 38.6101 53.054 40.7242 55.0839L47.9728 62.0382C52.4276 66.311 52.6038 73.3656 48.3755 77.864C47.6204 78.6659 46.966 79.543 46.3997 80.4828C45.8209 81.4476 45.3553 82.4876 45.0155 83.5527C43.82 87.2867 40.762 90.1311 36.9364 91.0709C36.0429 91.2964 35.1242 91.3967 34.2182 91.3967H34.2307Z" fill="white" stroke="white" stroke-miterlimit="10"/>
<path d="M34.2304 80.1193C34.7086 78.6157 35.4637 76.7487 36.6466 74.7313C37.8044 72.7891 39.0376 71.2729 40.0947 70.1452C37.6785 67.8271 35.2623 65.509 32.8462 63.1909C31.8017 64.3061 30.5684 65.8097 29.4358 67.7394C28.2529 69.7443 27.523 71.6113 27.07 73.1024C29.4484 75.4455 31.8394 77.7887 34.2178 80.1193H34.2304Z" fill="white"/>
<path d="M34.2933 91.6471C31.3486 91.6471 28.492 90.5068 26.3401 88.4017L18.9657 81.1592C15.9203 78.1645 14.8254 73.7162 16.1342 69.6689C16.9522 67.0251 18.1099 64.4188 19.5445 61.9628C20.9288 59.6071 22.5899 57.3893 24.4776 55.3844L24.5908 55.2717C26.6672 53.0789 29.5365 51.7882 32.5693 51.7256C32.6574 51.7256 32.758 51.7256 32.8461 51.7256C35.7783 51.7256 38.5972 52.8533 40.7113 54.8832L48.1486 62.0255C52.6035 66.3108 52.7797 73.3529 48.5513 77.8512L48.4632 77.9515C47.7208 78.7283 47.0664 79.6055 46.5127 80.5327C45.9464 81.4975 45.4808 82.525 45.141 83.5776L45.0655 83.8282C43.8574 87.5497 40.7994 90.394 36.9864 91.3213C36.0929 91.5343 35.1868 91.6471 34.2933 91.6471Z" fill="white" stroke="white" stroke-miterlimit="10"/>
<path d="M26.9191 73.1399L26.9442 73.0647C27.5231 71.1852 28.3285 69.3683 29.3227 67.6767C30.2916 66.0353 31.4494 64.494 32.7582 63.1032L32.8588 63.0029L40.2962 70.1452L40.2081 70.2454C38.8993 71.6363 37.7415 73.1775 36.7726 74.8065C35.7784 76.498 34.9604 78.2899 34.369 80.1569L34.306 80.3699L26.9316 73.1274L26.9191 73.1399ZM32.8588 63.3914C31.6004 64.7446 30.493 66.2232 29.5618 67.8146C28.5928 69.4686 27.8 71.2353 27.2337 73.0647L34.1676 79.8687C34.7591 78.0643 35.5645 76.3101 36.5335 74.6686C37.4899 73.0522 38.635 71.5361 39.906 70.1577L32.8588 63.3914Z" fill="white"/>
<path d="M80.5784 63.4786C77.5708 63.4786 74.6764 62.2882 72.5496 60.1455L65.3514 52.9281C61.4503 49.0187 60.9595 42.8663 64.1936 38.3805C64.9235 37.3655 65.6031 36.3004 66.2071 35.1978C66.8363 34.0575 67.3901 32.8671 67.8557 31.6517C69.2274 28.1056 72.3105 25.4868 76.048 24.6974C76.8409 24.5345 77.6337 24.4468 78.4265 24.4468C81.3712 24.4468 84.2404 25.5996 86.3798 27.7047L93.6535 34.8594C96.8499 38.0045 97.8818 42.741 96.271 46.9261C95.5285 48.8432 94.6728 50.7353 93.7038 52.5397C92.5335 54.7325 91.187 56.8751 89.702 58.88C87.7389 61.5364 84.7186 63.1904 81.4215 63.441C81.1447 63.4661 80.8678 63.4661 80.591 63.4661L80.5784 63.4786Z" fill="white" stroke="white" stroke-miterlimit="10"/>
<path d="M80.591 52.2016C81.6103 50.8233 82.6926 49.1818 83.7119 47.2647C84.5425 45.7109 85.1968 44.2323 85.7128 42.8916C83.284 40.5109 80.8553 38.1176 78.4391 35.7368C77.8602 37.2154 77.1303 38.8569 76.1739 40.6111C75.2552 42.2902 74.3114 43.7437 73.4053 44.9842C75.8089 47.39 78.2 49.7958 80.6036 52.2016H80.591Z" fill="white"/>
<path d="M80.6035 63.6917C77.5959 63.6917 74.7015 62.5014 72.5748 60.3587L65.1752 52.9533C61.2741 49.0438 60.7833 42.904 64.0049 38.4307C64.0049 38.4307 64.0804 38.3179 64.093 38.3179C64.8229 37.3155 65.4898 36.2504 66.0939 35.1603C66.7231 34.02 67.2642 32.8422 67.7298 31.6393L67.8053 31.4513C69.177 27.9053 72.2602 25.2864 75.9851 24.4845C76.7779 24.3216 77.5707 24.2339 78.3635 24.2339C81.3083 24.2339 84.1775 25.3867 86.3168 27.4918L93.8045 34.8596C97.0261 38.0297 98.0454 42.7912 96.3968 46.9889C95.6544 48.9185 94.7861 50.8106 93.8171 52.6275C92.6341 54.8328 91.2876 56.9755 89.8027 58.9929L89.7146 59.1182C87.7514 61.7746 84.7312 63.4411 81.4341 63.6792C81.1573 63.7043 80.8804 63.7043 80.591 63.7043L80.6035 63.6917Z" fill="white" stroke="white" stroke-miterlimit="10"/>
<path d="M73.2039 45.0089L73.2668 44.9086C74.2736 43.5178 75.2048 42.0517 76.0228 40.5481C76.8785 38.9818 77.6336 37.3529 78.288 35.6863L78.3635 35.4858L85.8511 42.8536L85.8134 42.9414C85.2345 44.4325 84.5675 45.911 83.8125 47.327C82.8938 49.0436 81.8368 50.7101 80.679 52.2764L80.5783 52.4017L73.1788 44.9963L73.2039 45.0089ZM78.4767 35.9871C77.8475 37.5909 77.1051 39.1697 76.2745 40.6734C75.4691 42.152 74.5504 43.5929 73.5689 44.9713L80.5657 51.9882C81.6857 50.4721 82.6925 48.8557 83.5734 47.2017C84.3033 45.8233 84.9702 44.3823 85.5365 42.9288L78.4767 35.9871Z" fill="white"/>
<path d="M64.0048 76.0591C61.0601 76.0591 58.1405 74.9188 55.9509 72.7135L48.8533 65.5713C46.4372 63.1404 45.2542 59.7447 45.6569 56.349C46.047 52.9533 47.9724 49.9084 50.892 48.0915C52.528 47.0766 54.1891 46.0491 55.8754 45.0341C57.2093 44.2322 58.5307 43.4428 59.8394 42.6659C61.6264 41.6134 63.6147 41.0996 65.603 41.0996C68.4093 41.0996 71.1905 42.1396 73.3424 44.1445L80.4902 50.8106C82.9442 53.1036 84.253 56.3615 84.0516 59.7071C83.8503 63.0527 82.1765 66.1351 79.4709 68.1274C77.7846 69.3679 76.0354 70.5708 74.2862 71.7111C72.8264 72.6634 71.3037 73.6032 69.7684 74.5053C67.9815 75.5579 65.9806 76.0716 64.0048 76.0716V76.0591Z" fill="white" stroke="white" stroke-miterlimit="10"/>
<path d="M63.9923 64.7818C65.3136 64.0049 66.6727 63.1654 68.0696 62.2632C69.7307 61.1856 71.2786 60.0954 72.7384 59.0304C70.3599 56.8125 67.9689 54.5946 65.5905 52.3643C64.3195 53.1161 63.0359 53.8804 61.7397 54.6573C60.1037 55.6472 58.4803 56.6371 56.8947 57.627C59.2606 60.0077 61.6264 62.3885 63.9923 64.7692V64.7818Z" fill="white"/>
<path d="M63.9797 76.1845C61.0224 76.1845 58.1029 75.0568 55.9258 72.8765L48.6269 65.5338C46.2107 63.1029 45.0404 59.7197 45.4305 56.3115C45.8206 52.9158 47.7334 49.8835 50.6404 48.054L50.7914 47.9663C52.4525 46.9263 54.1388 45.8988 55.7873 44.8839C57.0961 44.0945 58.43 43.2925 59.7514 42.5157C61.5635 41.4506 63.5896 40.9243 65.6031 40.9243C68.4094 40.9243 71.2031 41.9393 73.3424 43.9316L80.6917 50.7731C83.1456 53.0662 84.4544 56.324 84.253 59.6822C84.0517 63.0277 82.3654 66.1102 79.6472 68.1025L79.5087 68.2027C77.8602 69.4182 76.111 70.6211 74.3366 71.7864C72.8516 72.7512 71.3289 73.7035 69.8062 74.5932C67.9941 75.6583 65.968 76.172 63.9671 76.172L63.9797 76.1845Z" fill="white" stroke="white" stroke-miterlimit="10"/>
<path d="M72.8138 59.1307C71.2911 60.2459 69.7181 61.3361 68.145 62.3636C66.8111 63.2281 65.4394 64.0802 64.0677 64.8947L63.9796 64.9448L56.6807 57.602L56.8318 57.5143C58.43 56.5119 60.0659 55.5095 61.6767 54.5321C62.9477 53.7678 64.2439 52.9909 65.5275 52.2391L65.6156 52.189L72.9648 59.0305L72.8264 59.1307H72.8138ZM61.8025 54.7702C60.2421 55.71 58.6565 56.6873 57.1086 57.6522L64.0174 64.6065C65.3513 63.8171 66.6978 62.9901 67.994 62.138C69.5293 61.1356 71.0394 60.083 72.5244 59.0054L65.5778 52.5273C64.3194 53.2666 63.061 54.0184 61.8151 54.7702H61.8025Z" fill="white"/>
<path d="M47.5449 88.4643C44.5372 88.4643 41.6429 87.274 39.5161 85.1438L32.4563 78.0893C28.4545 74.0921 28.0392 67.7518 31.4873 63.2659C32.9219 61.3989 34.5453 59.6572 36.3071 58.0784C37.9431 56.6124 39.7175 55.2842 41.5799 54.1314C43.4298 52.9911 45.5062 52.4272 47.57 52.4272C50.3638 52.4272 53.1323 53.4547 55.2842 55.447L62.5831 62.2134C65.037 64.4814 66.3458 67.7142 66.1822 71.0472C66.006 74.3803 64.3701 77.4627 61.7022 79.4676C60.6326 80.2695 59.5881 81.1341 58.5939 82.0614C57.6752 82.9009 56.7818 83.8031 55.9386 84.7303C53.8622 87.0234 50.9175 88.3766 47.8092 88.4518C47.7211 88.4518 47.6204 88.4518 47.5323 88.4518L47.5449 88.4643Z" fill="white" stroke="white" stroke-miterlimit="10"/>
<path d="M47.5447 77.1868C48.5389 76.0967 49.6589 74.9565 50.9173 73.7911C52.289 72.5256 53.6229 71.4355 54.8814 70.4832C52.4526 68.2277 50.0113 65.9722 47.5825 63.7168C46.4625 64.406 45.1915 65.3207 43.8701 66.486C42.4481 67.7641 41.3281 69.0296 40.4849 70.1323C42.8382 72.488 45.1915 74.8312 47.5447 77.1868Z" fill="white"/>
<path d="M47.5446 88.677C44.537 88.677 41.6426 87.4866 39.5159 85.3565L32.3554 78.1892C28.3536 74.192 27.8502 67.7765 31.2983 63.2906L31.3738 63.1904C32.821 61.3109 34.4444 59.5566 36.2062 57.9903C37.8422 56.5243 39.6291 55.1961 41.5042 54.0308C41.5042 54.0308 41.6174 53.9556 41.6426 53.9431C43.4799 52.8153 45.5437 52.2515 47.595 52.2515C50.3887 52.2515 53.1572 53.2789 55.3092 55.2713L62.8094 62.2256C65.2633 64.4936 66.5721 67.7264 66.4085 71.0594C66.2323 74.3925 64.5964 77.4749 61.9159 79.4798L61.7775 79.58C60.7204 80.382 59.6759 81.2465 58.6817 82.1612C57.7631 83.0008 56.8696 83.903 56.039 84.8177L55.9384 84.9179C53.862 87.2235 50.9172 88.5642 47.8089 88.6394C47.7082 88.6394 47.6201 88.6394 47.5321 88.6394L47.5446 88.677Z" fill="white" stroke="white" stroke-miterlimit="10"/>
<path d="M54.9693 70.5956C53.5976 71.623 52.2762 72.7382 51.0178 73.891C49.8475 74.9686 48.7149 76.1089 47.6578 77.2867L47.5571 77.3995L40.3967 70.2322L40.3086 70.1445L40.3841 70.0442C41.4034 68.7286 42.5486 67.4881 43.7944 66.3854C44.9522 65.3579 46.2106 64.4181 47.5194 63.6037L47.6075 63.541L55.1203 70.4953L54.9819 70.5956H54.9693ZM43.9706 66.5984C42.7751 67.6635 41.6677 68.8539 40.6735 70.1194L47.532 76.9735C48.5765 75.8332 49.6713 74.718 50.8165 73.678C52.0371 72.5503 53.3333 71.4727 54.6547 70.4703L47.5571 63.8919C46.2861 64.6813 45.078 65.596 43.958 66.5984H43.9706Z" fill="white"/>
<path d="M165.082 13.27C165.371 13.8088 165.824 14.6108 166.428 15.5631C167.775 17.7057 172.028 24.0586 183.317 31.6269C189.609 35.8496 191.735 36.1879 197.562 40.8993C200.607 43.3678 202.168 45.0092 203.099 46.0492C206.862 50.297 208.963 54.5573 210.146 57.5019C197.877 69.5435 185.607 81.5976 173.337 93.6392C172.28 90.4816 170.971 87.963 169.864 86.1336C167.284 81.8733 164.44 79.0916 163.018 77.801C161.873 76.761 160.615 75.7585 158.677 74.4429C151.541 69.5686 149.477 70.1074 144.142 66.5613C142.002 65.1329 137.132 61.5993 133.118 55.5221C131.394 52.9033 130.286 50.5351 129.607 48.8435C141.436 36.9898 153.253 25.1362 165.082 13.27Z" fill="white" stroke="white" stroke-width="0.44" stroke-miterlimit="10"/>
<path d="M165.309 12.7692L78.354 99.3516L78.7455 99.7414L165.701 13.1591L165.309 12.7692Z" fill="white" stroke="#231F20" stroke-miterlimit="10"/>
<path d="M171.714 22.1289L164.075 29.3965C164.944 30.4866 166.026 31.6895 167.335 32.9175C168.857 34.3334 170.33 35.4361 171.638 36.3007C174.143 33.8322 176.634 31.3763 179.139 28.9078C177.956 28.0432 176.685 27.0408 175.376 25.8629C173.954 24.5848 172.733 23.3193 171.701 22.1289H171.714Z" fill="#231F20"/>
<path d="M166.454 32.2659C165.573 31.3888 164.742 30.4615 163.962 29.4967L163.886 29.3964L171.714 21.9409L171.815 22.0537C172.96 23.3568 174.193 24.6099 175.477 25.7752C176.672 26.8528 177.931 27.8677 179.227 28.82L179.365 28.9203L171.664 36.5136L171.563 36.451C170.028 35.4486 168.58 34.2958 167.234 33.0553C166.97 32.8047 166.705 32.5541 166.441 32.2909L166.454 32.2659ZM164.264 29.4215C165.233 30.6244 166.303 31.7772 167.435 32.8297C168.731 34.0452 170.141 35.1478 171.626 36.1377L178.925 28.9328C177.666 28.0056 176.433 27.0157 175.288 25.9757C174.029 24.8354 172.821 23.62 171.701 22.3419L164.264 29.4215Z" fill="#231F20"/>
<path d="M188.124 34.5962L180.9 41.751L189.835 47.4773L197.285 40.3601L188.124 34.5962Z" fill="#231F20"/>
<path d="M180.686 41.7762L188.111 34.4209L197.512 40.3352L189.848 47.6529L180.674 41.7762H180.686ZM188.149 34.7717L181.114 41.7386L189.81 47.3146L197.059 40.3853L188.149 34.7717Z" fill="#231F20"/>
<path d="M173.526 93.8272L173.136 93.4262L202.86 64.2432C202.18 62.4639 201.337 60.7472 200.356 59.1308C199.374 57.527 198.241 55.9857 196.983 54.5824L196.807 54.3819L204.307 47.3774L204.685 47.7784L197.587 54.4195C198.795 55.7978 199.89 57.2889 200.846 58.8426C201.815 60.4215 202.633 62.1005 203.313 63.8172L209.957 57.2889L210.348 57.6899L173.538 93.8272H173.526Z" fill="white"/>
<path d="M142.568 65.5211C141.31 64.644 139.913 63.5538 138.479 62.2006C137.119 60.9225 135.999 59.6569 135.093 58.5167C137.447 55.9605 139.8 53.4043 142.141 50.8481C143.009 51.9508 144.129 53.2038 145.513 54.4569C147.023 55.8352 148.508 56.8877 149.779 57.6771C147.376 60.296 144.972 62.9023 142.568 65.5211Z" fill="#231F20"/>
<path d="M161.08 76.247C159.885 75.3073 158.5 74.3424 156.94 73.3776C155.027 72.2123 153.202 71.285 151.566 70.5708C153.957 68.1901 156.336 65.7968 158.727 63.416C161.118 64.4184 163.748 65.872 166.315 67.977C166.768 68.3529 167.209 68.7289 167.624 69.1173C165.434 71.4855 163.257 73.8663 161.067 76.2345L161.08 76.247Z" fill="#231F20"/>
<path d="M173.337 93.6394C172.72 91.8601 171.877 89.8302 170.707 87.675C169.763 85.9458 168.782 84.4296 167.85 83.1515C170.292 80.7708 172.746 78.39 175.187 76.0093C176.181 77.0493 177.301 78.4026 178.358 80.1067C179.743 82.3245 180.573 84.4046 181.076 86.046C178.497 88.5771 175.917 91.1083 173.337 93.6394Z" fill="#231F20"/>
<path d="M157.003 36.5011C156.034 35.4109 154.977 34.0702 153.957 32.4538C152.724 30.499 151.868 28.6696 151.277 27.1284C153.743 24.7101 156.223 22.2792 158.689 19.8608C159.394 21.5775 160.312 23.5072 161.521 25.5371C162.376 26.978 163.245 28.2687 164.088 29.4089C161.734 31.7771 159.369 34.1454 157.015 36.5136L157.003 36.5011Z" fill="#231F20"/>
<path d="M173.425 49.0189C171.94 48.2295 170.38 47.3148 168.756 46.2873C167.209 45.2974 165.787 44.3075 164.503 43.3427C166.881 41.0496 169.26 38.7566 171.651 36.4761C172.947 37.3783 174.369 38.293 175.917 39.2077C177.578 40.185 179.176 41.0371 180.699 41.7764C178.283 44.1947 175.867 46.6005 173.45 49.0189H173.425Z" fill="#231F20"/>
<path d="M189.835 61.4742C188.98 60.3716 187.872 59.1186 186.475 57.853C185.003 56.5248 183.581 55.5224 182.348 54.7705C184.852 52.4524 187.344 50.1343 189.848 47.8037C190.918 48.5806 192.075 49.5078 193.271 50.598C194.693 51.9136 195.876 53.2043 196.845 54.3821C194.504 56.7378 192.163 59.106 189.823 61.4617L189.835 61.4742Z" fill="#231F20"/>
<path d="M182.121 54.7952L189.835 47.6279L189.923 47.6906C191.119 48.5552 192.277 49.4949 193.359 50.4974C194.642 51.6752 195.851 52.9533 196.945 54.294L197.021 54.3943L189.81 61.6744L189.709 61.5491C188.703 60.2584 187.583 59.043 186.362 57.9404C185.091 56.8001 183.719 55.7601 182.259 54.8704L182.108 54.7702L182.121 54.7952ZM189.86 47.9913L182.574 54.7577C183.984 55.6348 185.33 56.6497 186.563 57.7649C187.759 58.8425 188.854 60.0204 189.848 61.2734L196.668 54.3818C195.599 53.0786 194.416 51.8506 193.183 50.6978C192.138 49.733 191.018 48.8183 189.873 47.9788L189.86 47.9913Z" fill="#231F20"/>
<path d="M157.091 50.6605C155.895 49.8335 154.561 48.7935 153.202 47.5154C151.78 46.1747 150.61 44.8715 149.679 43.6812C152.12 41.3004 154.561 38.9071 157.015 36.5264C158.009 37.6541 159.167 38.8695 160.514 40.11C161.898 41.3756 163.244 42.4532 164.503 43.3554C162.036 45.7862 159.57 48.2297 157.091 50.6605Z" fill="#231F20"/>
<path d="M152.334 46.8637C151.352 45.8863 150.421 44.8463 149.565 43.7687L149.49 43.6684L157.015 36.3257L157.116 36.4385C158.211 37.6915 159.381 38.8819 160.602 40.0096C161.86 41.1624 163.194 42.2525 164.578 43.2549L164.704 43.3552L157.103 50.8608L157.015 50.7982C155.644 49.8459 154.322 48.7808 153.114 47.6405C152.85 47.3899 152.598 47.1518 152.346 46.8887L152.334 46.8637ZM149.867 43.6935C150.912 45.0092 152.07 46.2622 153.303 47.415C154.486 48.5176 155.757 49.5577 157.091 50.4849L164.302 43.3677C162.955 42.3903 161.659 41.3253 160.438 40.1975C159.243 39.1074 158.097 37.9296 157.015 36.7141L149.88 43.681L149.867 43.6935Z" fill="#231F20"/>
<path d="M175.124 62.0131C173.929 61.0358 172.557 59.9958 171.009 58.9808C169.323 57.8781 167.725 56.9634 166.24 56.2116C168.644 53.8685 171.06 51.5253 173.463 49.1821C174.848 50.1219 176.27 51.0742 177.717 52.0265C179.164 52.9663 180.599 53.8935 182.021 54.7706C179.718 57.1764 177.427 59.5948 175.124 62.0006V62.0131Z" fill="#231F20"/>
<path d="M166.001 56.2488L173.438 49.0063L173.526 49.069C174.935 50.0213 176.37 50.9861 177.779 51.9134C179.189 52.8406 180.636 53.7679 182.071 54.6575L182.209 54.7452L175.112 62.1882L175.011 62.1005C173.702 61.0229 172.318 60.0079 170.908 59.0807C169.386 58.0783 167.788 57.151 166.152 56.324L165.975 56.2363L166.001 56.2488ZM173.476 49.3697L166.466 56.1862C168.052 57.0007 169.6 57.9028 171.085 58.8677C172.469 59.7824 173.828 60.7723 175.112 61.8248L181.794 54.8079C180.41 53.9307 179 53.0411 177.641 52.1514C176.257 51.2493 174.847 50.3095 173.476 49.3697Z" fill="#231F20"/>
<path d="M188.489 78.7536C188.011 77.25 187.255 75.383 186.073 73.3656C184.915 71.4234 183.682 69.9072 182.624 68.7795C185.041 66.4614 187.457 64.1433 189.873 61.8252C190.917 62.9404 192.151 64.444 193.283 66.3737C194.466 68.3785 195.196 70.2455 195.649 71.7366C193.271 74.0798 190.88 76.423 188.501 78.7536H188.489Z" fill="#231F20"/>
<path d="M188.426 79.0164L188.363 78.8034C187.759 76.9364 186.953 75.132 185.959 73.4529C184.99 71.8115 183.832 70.2828 182.524 68.8919L182.436 68.7917L189.873 61.6494L189.974 61.7497C191.282 63.1405 192.44 64.6817 193.409 66.3232C194.403 68.0148 195.209 69.8317 195.787 71.7112L195.813 71.7864L188.438 79.0289L188.426 79.0164ZM182.813 68.7917C184.097 70.17 185.229 71.6862 186.186 73.3026C187.155 74.944 187.947 76.6858 188.551 78.5026L195.485 71.6987C194.907 69.8693 194.126 68.1025 193.157 66.4485C192.226 64.8572 191.119 63.3786 189.86 62.0253L182.813 68.7917Z" fill="#231F20"/>
<path d="M142.128 50.8486C141.109 49.4702 140.027 47.8288 139.007 45.9116C138.177 44.3579 137.523 42.8793 137.007 41.5386C139.435 39.1578 141.864 36.7645 144.28 34.3838C144.859 35.8624 145.589 37.5038 146.545 39.2581C147.464 40.9371 148.408 42.3906 149.314 43.6311C146.91 46.037 144.519 48.4428 142.116 50.8486H142.128Z" fill="#231F20"/>
<path d="M142.115 51.0614L142.015 50.9361C140.857 49.3698 139.8 47.7033 138.881 45.9866C138.126 44.5707 137.459 43.0921 136.88 41.601L136.843 41.5133L144.33 34.1455L144.406 34.346C145.048 36 145.815 37.6415 146.671 39.2077C147.489 40.7114 148.42 42.1774 149.427 43.5683L149.49 43.6685L142.09 51.0739L142.115 51.0614ZM137.182 41.576C137.749 43.0295 138.403 44.4705 139.146 45.8488C140.026 47.5028 141.046 49.1192 142.153 50.6354L149.15 43.6184C148.169 42.2526 147.25 40.7991 146.444 39.3205C145.614 37.8044 144.871 36.2255 144.242 34.6342L137.182 41.576Z" fill="#231F20"/>
<path d="M158.727 63.4165C157.405 62.6397 156.046 61.8001 154.649 60.8979C152.988 59.8203 151.44 58.7302 149.981 57.6651C152.359 55.4473 154.75 53.2294 157.129 50.999C158.4 51.7508 159.683 52.5152 160.979 53.2921C162.615 54.282 164.239 55.2719 165.824 56.2617C163.458 58.6425 161.093 61.0232 158.727 63.404V63.4165Z" fill="#231F20"/>
<path d="M149.767 57.6775L157.116 50.8359L157.204 50.8861C158.488 51.6379 159.784 52.4148 161.055 53.1791C162.666 54.1565 164.302 55.1589 165.9 56.1613L166.051 56.249L158.752 63.5918L158.664 63.5416C157.292 62.7397 155.921 61.8876 154.587 61.0105C153.001 59.983 151.441 58.8929 149.918 57.7777L149.779 57.6775H149.767ZM157.154 51.1743L150.207 57.6524C151.68 58.73 153.202 59.7826 154.738 60.785C156.034 61.637 157.38 62.464 158.714 63.2534L165.623 56.2991C164.075 55.3343 162.49 54.3569 160.929 53.4172C159.683 52.6654 158.425 51.9135 157.166 51.1743H157.154Z" fill="#231F20"/>
<path d="M175.175 75.8338C174.18 74.7437 173.06 73.6034 171.802 72.4381C170.43 71.1726 169.096 70.0824 167.838 69.1301C170.267 66.8747 172.708 64.6192 175.137 62.3638C176.257 63.0529 177.528 63.9676 178.849 65.133C180.271 66.411 181.391 67.6766 182.234 68.7793C179.881 71.135 177.528 73.4781 175.175 75.8338Z" fill="#231F20"/>
<path d="M167.611 69.1428L175.124 62.1885L175.212 62.2511C176.534 63.0656 177.779 64.0054 178.937 65.0329C180.183 66.148 181.328 67.376 182.348 68.6917L182.423 68.7919L182.335 68.8796L175.175 76.047L175.074 75.9342C174.004 74.7563 172.872 73.6161 171.714 72.5385C170.455 71.3857 169.121 70.2705 167.762 69.243L167.624 69.1428H167.611ZM175.149 62.5393L168.052 69.1177C169.373 70.1201 170.669 71.1977 171.89 72.3255C173.023 73.378 174.13 74.4807 175.175 75.6209L182.033 68.7669C181.051 67.5013 179.944 66.3109 178.736 65.2459C177.616 64.2434 176.408 63.3413 175.137 62.5393H175.149Z" fill="#231F20"/>
<path d="M57.6371 14.6235C57.3477 15.1623 56.8946 15.9643 56.2906 16.9166C54.9441 19.0593 50.6906 25.4121 39.4025 32.9804C33.1103 37.2031 30.9836 37.5414 25.1571 42.2528C22.1117 44.7213 20.5512 46.3627 19.62 47.4028C15.8573 51.6505 13.7557 55.9108 12.5728 58.8554C24.8424 70.897 37.1121 82.9512 49.3818 94.9928C50.4389 91.8351 51.7477 89.3165 52.8551 87.4871C55.4349 83.2268 58.2789 80.4451 59.7009 79.1545C60.8461 78.1145 62.1045 77.112 64.0425 75.7964C71.1778 70.9221 73.2416 71.4609 78.5774 67.9148C80.7167 66.4864 85.5868 62.9528 89.6012 56.8756C91.3253 54.2568 92.4327 51.8886 93.1122 50.197C81.283 38.3434 69.4663 26.4897 57.6371 14.6235Z" fill="white" stroke="white" stroke-width="0.44" stroke-miterlimit="10"/>
<path d="M57.4003 14.1214L57.0087 14.5112L143.964 101.094L144.356 100.704L57.4003 14.1214Z" fill="white" stroke="#231F20" stroke-miterlimit="10"/>
<path d="M51.0051 23.4946L58.6437 30.7622C57.7754 31.8523 56.6932 33.0552 55.3844 34.2832C53.8617 35.6991 52.3893 36.8018 51.0806 37.6664C48.5763 35.1979 46.0846 32.742 43.5803 30.2735C44.7633 29.4089 46.0343 28.4065 47.343 27.2287C48.7651 25.9506 49.9857 24.685 51.0177 23.4946H51.0051Z" fill="#231F20"/>
<path d="M55.4727 34.3834C54.1388 35.6364 52.679 36.7767 51.1437 37.7791L51.043 37.8418L43.3414 30.2484L43.4799 30.1482C44.7761 29.2084 46.0471 28.1809 47.23 27.1033C48.5136 25.938 49.7469 24.685 50.892 23.3818L50.9927 23.269L58.8201 30.7246L58.7446 30.8248C57.977 31.7896 57.1338 32.7169 56.2529 33.594C55.9887 33.8571 55.7244 34.1077 55.4601 34.3583L55.4727 34.3834ZM51.0179 23.6951C49.8979 24.9732 48.6898 26.1886 47.4313 27.3289C46.2736 28.3689 45.0529 29.3713 43.7945 30.286L51.0934 37.4909C52.5783 36.501 53.9878 35.3984 55.2839 34.1829C56.4165 33.1304 57.4862 31.9901 58.4552 30.7747L51.0179 23.6951Z" fill="#231F20"/>
<path d="M34.5953 35.9497L41.8187 43.117L32.8839 48.8308L25.434 41.7136L34.5953 35.9497Z" fill="#231F20"/>
<path d="M32.8714 49.0064L25.2075 41.6887L34.608 35.7744L42.0327 43.1297L32.8588 49.0064H32.8714ZM25.6606 41.7388L32.9091 48.6681L41.6049 43.0921L34.5702 36.1253L25.6606 41.7388Z" fill="#231F20"/>
<path d="M49.193 95.1929L49.5831 94.7919L19.859 65.6089C20.5386 63.8296 21.3817 62.113 22.3633 60.4966C23.3449 58.8927 24.4775 57.3515 25.7359 55.9481L25.9121 55.7476L18.4119 48.7432L18.0343 49.1441L25.1319 55.7852C23.9238 57.1635 22.8289 58.6546 21.8725 60.2084C20.9035 61.7872 20.0856 63.4662 19.406 65.1829L12.7615 58.6546L12.3714 59.0556L49.1804 95.1929H49.193Z" fill="white"/>
<path d="M80.1506 66.8873C81.409 66.0102 82.8058 64.9201 84.2405 63.5668C85.5996 62.2887 86.7196 61.0231 87.6256 59.8829C85.2724 57.3267 82.9191 54.7705 80.5784 52.2144C79.7101 53.317 78.5901 54.57 77.2058 55.8231C75.6957 57.2014 74.2108 58.2539 72.9398 59.0434C75.3434 61.6622 77.747 64.2685 80.1506 66.8873Z" fill="#231F20"/>
<path d="M61.6391 77.6005C62.8346 76.6608 64.2189 75.6959 65.7793 74.7311C67.6921 73.5658 69.5169 72.6386 71.1528 71.9243C68.7618 69.5436 66.3834 67.1503 63.9924 64.7695C61.6013 65.772 58.9712 67.2255 56.404 69.3306C55.951 69.7065 55.5105 70.0824 55.0953 70.4708C57.2849 72.839 59.462 75.2198 61.6517 77.588L61.6391 77.6005Z" fill="#231F20"/>
<path d="M49.382 94.9924C49.9986 93.2131 50.8418 91.1832 52.0121 89.028C52.9559 87.2988 53.9375 85.7827 54.8687 84.5046C52.4274 82.1238 49.9734 79.7431 47.5321 77.3623C46.5379 78.4023 45.4179 79.7556 44.3608 81.4597C42.9766 83.6776 42.146 85.7576 41.6426 87.3991C44.2224 89.9302 46.8022 92.4613 49.382 94.9924Z" fill="#231F20"/>
<path d="M65.7164 37.8668C66.6854 36.7766 67.7424 35.4359 68.7618 33.8195C69.995 31.8648 70.8508 30.0353 71.4422 28.4941C68.9757 26.0758 66.4966 23.6449 64.0301 21.2266C63.3254 22.9432 62.4067 24.8729 61.1986 26.9028C60.3429 28.3438 59.4746 29.6344 58.6314 30.7746C60.9847 33.1429 63.3505 35.5111 65.7038 37.8793L65.7164 37.8668Z" fill="#231F20"/>
<path d="M49.2939 50.3724C50.7788 49.583 52.3393 48.6683 53.9627 47.6408C55.5105 46.6509 56.9325 45.661 58.2161 44.6962C55.8377 42.4031 53.4593 40.1101 51.0683 37.8296C49.7721 38.7318 48.3501 39.6465 46.8022 40.5612C45.1411 41.5386 43.5429 42.3906 42.0202 43.1299C44.4363 45.5482 46.8525 47.9541 49.2687 50.3724H49.2939Z" fill="#231F20"/>
<path d="M32.8842 62.84C33.7399 61.7373 34.8473 60.4843 36.2442 59.2187C37.7165 57.8905 39.1386 56.8881 40.3718 56.1363C37.8676 53.8182 35.3759 51.5001 32.8716 49.1694C31.8019 49.9463 30.6442 50.8736 29.4487 51.9637C28.0266 53.2794 26.8437 54.57 25.8747 55.7478C28.2154 58.1035 30.5561 60.4717 32.8968 62.8274L32.8842 62.84Z" fill="#231F20"/>
<path d="M40.4471 56.2488C38.9873 57.1385 37.6156 58.1785 36.3446 59.3188C35.1239 60.4089 34.0039 61.6243 32.9972 62.9275L32.8965 63.0528L25.6857 55.7727L25.7612 55.6725C26.8686 54.3317 28.0767 53.0536 29.3477 51.8758C30.43 50.8734 31.5877 49.9336 32.7833 49.069L32.8713 49.0063L40.5855 56.1737L40.4345 56.2739L40.4471 56.2488ZM29.5491 52.0637C28.3032 53.204 27.1329 54.4445 26.0632 55.7476L32.8839 62.6393C33.8781 61.3737 34.9729 60.1959 36.1684 59.1308C37.4017 58.0156 38.7482 57.0132 40.1577 56.1235L32.8713 49.3572C31.7136 50.1967 30.6062 51.1114 29.5617 52.0763L29.5491 52.0637Z" fill="#231F20"/>
<path d="M65.6282 52.0136C66.8237 51.1866 68.1576 50.1465 69.5167 48.8685C70.9388 47.5277 72.1091 46.2246 73.0403 45.0342C70.599 42.6534 68.1576 40.2601 65.7037 37.8794C64.7095 39.0071 63.5518 40.2226 62.2053 41.4631C60.821 42.7286 59.4745 43.8062 58.216 44.7084C60.6826 47.1393 63.1491 49.5827 65.6282 52.0136Z" fill="#231F20"/>
<path d="M69.6174 48.9687C68.3968 50.1089 67.088 51.174 65.7163 52.1263L65.6282 52.1889L58.0273 44.6833L58.1531 44.5831C59.5374 43.5806 60.8714 42.4905 62.1298 41.3377C63.3505 40.2225 64.5334 39.0196 65.6156 37.7666L65.7163 37.6538L73.2417 44.9966L73.1662 45.0968C72.3105 46.1744 71.3792 47.2144 70.3977 48.1918C70.146 48.4424 69.8817 48.693 69.63 48.9436L69.6174 48.9687ZM65.7163 38.0798C64.6466 39.2953 63.5015 40.4606 62.2934 41.5633C61.0727 42.6785 59.7639 43.7435 58.43 44.7334L65.6408 51.8506C66.9747 50.9234 68.2457 49.8834 69.4287 48.7807C70.6619 47.6279 71.8071 46.3749 72.8642 45.0592L65.7289 38.0924L65.7163 38.0798Z" fill="#231F20"/>
<path d="M47.5953 63.3662C48.7908 62.3888 50.1624 61.3488 51.7103 60.3338C53.3966 59.2312 54.9948 58.3165 56.4798 57.5646C54.0762 55.2215 51.66 52.8783 49.2564 50.5352C47.8721 51.4749 46.4501 52.4272 45.0029 53.3795C43.5557 54.3193 42.1211 55.2465 40.6991 56.1237C43.002 58.5295 45.2923 60.9478 47.5953 63.3536V63.3662Z" fill="#231F20"/>
<path d="M56.555 57.6898C54.9191 58.5168 53.3209 59.444 51.7982 60.4464C50.3762 61.3737 49.0045 62.4011 47.6957 63.4662L47.595 63.5539L40.4975 56.1109L40.6359 56.0232C42.0705 55.121 43.5177 54.1938 44.9272 53.2791C46.3492 52.3519 47.7838 51.3996 49.1806 50.4347L49.2687 50.3721L56.7061 57.6146L56.5299 57.7023L56.555 57.6898ZM45.0908 53.4921C43.7191 54.3818 42.3222 55.2839 40.9379 56.1485L47.6202 63.1655C48.9038 62.1129 50.2629 61.123 51.6472 60.2083C53.1321 59.231 54.68 58.3288 56.2656 57.5269L49.2561 50.7104C47.8845 51.6502 46.475 52.5774 45.0908 53.4921Z" fill="#231F20"/>
<path d="M34.2305 80.1193C34.7087 78.6157 35.4637 76.7487 36.6467 74.7313C37.8044 72.7891 39.0377 71.2729 40.0948 70.1452C37.6786 67.8271 35.2624 65.509 32.8462 63.1909C31.8017 64.3061 30.5684 65.8097 29.4359 67.7394C28.2529 69.7443 27.523 71.6113 27.07 73.1024C29.4484 75.4455 31.8395 77.7887 34.2179 80.1193H34.2305Z" fill="#231F20"/>
<path d="M26.9189 73.1399L26.9441 73.0647C27.523 71.1852 28.3284 69.3683 29.3225 67.6767C30.2915 66.0353 31.4493 64.494 32.7581 63.1032L32.8587 63.0029L40.296 70.1452L40.208 70.2454C38.8992 71.6363 37.7414 73.1775 36.7724 74.8065C35.7783 76.498 34.9603 78.2899 34.3688 80.1569L34.3059 80.3699L26.9315 73.1274L26.9189 73.1399ZM32.8587 63.3914C31.6003 64.7446 30.4929 66.2232 29.5616 67.8146C28.5927 69.4686 27.7998 71.2353 27.2336 73.0647L34.1675 79.8687C34.759 78.0643 35.5644 76.3101 36.5333 74.6686C37.4898 73.0522 38.6349 71.5361 39.9059 70.1577L32.8587 63.3914Z" fill="#231F20"/>
<path d="M80.591 52.2016C81.6103 50.8233 82.6926 49.1818 83.7119 47.2647C84.5425 45.7109 85.1969 44.2323 85.7128 42.8916C83.284 40.5109 80.8553 38.1176 78.4391 35.7368C77.8602 37.2154 77.1303 38.8569 76.1739 40.6111C75.2553 42.2902 74.3114 43.7437 73.4054 44.9842C75.809 47.39 78.2 49.7958 80.6036 52.2016H80.591Z" fill="#231F20"/>
<path d="M73.2039 45.0093L73.2668 44.9091C74.2736 43.5182 75.2048 42.0522 76.0228 40.5486C76.8785 38.9823 77.6336 37.3533 78.288 35.6868L78.3635 35.4863L85.8511 42.8541L85.8134 42.9418C85.2345 44.433 84.5675 45.9115 83.8125 47.3274C82.8938 49.0441 81.8367 50.7106 80.679 52.2769L80.5783 52.4022L73.1787 44.9968L73.2039 45.0093ZM78.4767 35.9875C77.8475 37.5914 77.105 39.1702 76.2745 40.6739C75.4691 42.1524 74.5504 43.5934 73.5689 44.9718L80.5657 51.9887C81.6857 50.4725 82.6925 48.8561 83.5734 47.2021C84.3033 45.8238 84.9702 44.3828 85.5365 42.9293L78.4767 35.9875Z" fill="#231F20"/>
<path d="M63.9925 64.7823C65.3139 64.0054 66.673 63.1658 68.0698 62.2637C69.731 61.1861 71.2788 60.0959 72.7386 59.0309C70.3602 56.813 67.9692 54.5951 65.5907 52.3647C64.3197 53.1166 63.0361 53.8809 61.7399 54.6578C60.104 55.6477 58.4806 56.6376 56.895 57.6275C59.2608 60.0082 61.6267 62.389 63.9925 64.7697V64.7823Z" fill="#231F20"/>
<path d="M72.8138 59.1307C71.2911 60.2459 69.7181 61.3361 68.1451 62.3636C66.8111 63.2281 65.4394 64.0802 64.0678 64.8947L63.9797 64.9448L56.6808 57.602L56.8318 57.5143C58.43 56.5119 60.066 55.5095 61.6767 54.5321C62.9478 53.7678 64.2439 52.9909 65.5275 52.2391L65.6156 52.189L72.9649 59.0305L72.8264 59.1307H72.8138ZM61.8026 54.7702C60.2421 55.71 58.6565 56.6873 57.1086 57.6522L64.0174 64.6065C65.3514 63.8171 66.6979 62.9901 67.9941 62.138C69.5293 61.1356 71.0395 60.083 72.5244 59.0054L65.5779 52.5273C64.3194 53.2666 63.061 54.0184 61.8152 54.7702H61.8026Z" fill="#231F20"/>
<path d="M47.5449 77.1873C48.5391 76.0972 49.6591 74.9569 50.9175 73.7916C52.2892 72.5261 53.6232 71.4359 54.8816 70.4836C52.4528 68.2282 50.0115 65.9727 47.5827 63.7173C46.4627 64.4065 45.1917 65.3212 43.8703 66.4865C42.4483 67.7646 41.3283 69.0301 40.4852 70.1328C42.8384 72.4885 45.1917 74.8316 47.5449 77.1873Z" fill="#231F20"/>
<path d="M54.9694 70.5961C53.5977 71.6235 52.2764 72.7387 51.018 73.8915C49.8476 74.9691 48.715 76.1094 47.658 77.2872L47.5573 77.4L40.3968 70.2327L40.3087 70.145L40.3842 70.0447C41.4036 68.729 42.5487 67.4885 43.7946 66.3859C44.9523 65.3584 46.2108 64.4186 47.5195 63.6042L47.6076 63.5415L55.1204 70.4958L54.982 70.5961H54.9694ZM43.9708 66.5989C42.7752 67.664 41.6678 68.8543 40.6737 70.1199L47.5321 76.974C48.5766 75.8337 49.6714 74.7185 50.8166 73.6785C52.0373 72.5508 53.3335 71.4732 54.6548 70.4708L47.5573 63.8924C46.2863 64.6818 45.0782 65.5965 43.9582 66.5989H43.9708Z" fill="#231F20"/>
<path d="M19.5319 65.6843C20.2618 64.093 21.1553 62.3638 22.2627 60.5344C23.3575 58.73 24.4649 57.1386 25.5346 55.7603C23.1058 53.4923 20.6645 51.2118 18.2357 48.9438C17.229 50.2721 16.1467 51.8383 15.1148 53.6678C14.0452 55.5348 13.2272 57.289 12.5854 58.8678C14.9009 61.1358 17.2164 63.4163 19.5319 65.6843Z" fill="#231F20"/>
</svg>
