<svg width="226" height="82" viewBox="0 0 226 82" fill="none" xmlns="http://www.w3.org/2000/svg">
<path d="M80.617 60V41H81.217H83.5186L83.617 60H80.617Z" fill="white"/>
<path d="M53.617 44.3529C53.4542 44.5294 44.8263 47 32.617 47L37.9891 32.1765L47.7565 29L53.617 44.3529Z" fill="white"/>
<path d="M94.234 62V38.5L133.734 25L148.734 38.5L131.234 62L107.234 68.5L94.234 62Z" fill="white"/>
<mask id="path-4-outside-1_527_1580" maskUnits="userSpaceOnUse" x="25.909" y="-2.94331" width="169.311" height="86.3913" fill="black">
<rect fill="white" x="25.909" y="-2.94331" width="169.311" height="86.3913"/>
<path d="M31.2829 42.1123L31.548 13.5135L51.9814 12.1327L51.9358 17.0525L37.2892 18.0423L37.2255 24.922L49.6371 24.0832L49.5912 29.043L37.1795 29.8818L37.0697 41.7213L31.2829 42.1123ZM65.6377 39.7907C65.3221 39.4123 65.1315 38.4658 65.0203 37.554L64.9405 37.5594C63.8884 39.1894 62.4006 40.4891 58.8886 40.7265C54.6982 41.0097 51.7653 39.0093 51.8031 34.9295C51.845 30.4097 55.53 28.7216 60.0856 27.7742C63.4823 27.065 65.0413 26.6798 65.0558 25.1199C65.0695 23.64 63.921 22.7582 61.6462 22.9119C59.092 23.0845 57.8463 24.0881 57.6685 26.0588L52.8396 26.3851C53.0326 22.7745 55.7357 19.4339 61.7221 19.0294C67.8681 18.6141 70.3169 21.2067 70.2724 26.0065L70.1756 36.4461C70.1611 38.006 70.3921 38.9098 70.8676 39.2374L70.8658 39.4374L65.6377 39.7907ZM60.2409 36.8376C63.3538 36.6273 65.0876 34.5914 65.1062 32.5915L65.1347 29.5116C64.1717 30.1363 62.6921 30.5561 61.3323 30.9678C58.4928 31.7992 57.09 32.5336 57.0722 34.4535C57.0544 36.3734 58.3252 36.9671 60.2409 36.8376ZM79.0961 18.375L79.0701 21.1749L79.1899 21.1668C80.6071 18.8725 82.4935 17.5858 85.2872 17.397C89.5175 17.1111 92.3214 20.1195 92.2799 24.5993L92.1557 37.9987L86.728 38.3655L86.8448 25.766C86.8652 23.5661 85.6026 22.0925 83.3278 22.2462C80.9332 22.408 79.1594 24.4466 79.1335 27.2465L79.0256 38.886L73.598 39.2528L73.7882 18.7337L79.0961 18.375ZM94.071 20.9606L94.1043 17.3608L96.9379 17.1693L96.9972 10.7695L102.305 10.4109L102.246 16.8106L105.758 16.5732L105.724 20.1731L102.212 20.4104L102.112 31.29C102.097 32.8099 102.931 33.2732 104.128 33.1923C104.806 33.1465 105.725 33.0445 105.725 33.0445L105.688 37.0443C105.688 37.0443 104.45 37.2079 102.295 37.3535C99.6607 37.5315 96.757 36.6884 96.7929 32.8086L96.9045 20.7691L94.071 20.9606ZM121.448 36.0192C121.132 35.6408 120.942 34.6943 120.831 33.7825L120.751 33.7879C119.699 35.4179 118.211 36.7177 114.699 36.955C110.508 37.2382 107.576 35.2378 107.613 31.158C107.655 26.6382 111.34 24.9501 115.896 24.0027C119.292 23.2935 120.852 22.9083 120.866 21.3484C120.88 19.8685 119.731 18.9867 117.456 19.1404C114.902 19.313 113.657 20.3166 113.479 22.2873L108.65 22.6136C108.843 19.003 111.546 15.6624 117.532 15.2579C123.678 14.8426 126.127 17.4353 126.083 22.235L125.986 32.6746C125.971 34.2345 126.202 35.1383 126.678 35.4659L126.676 35.6659L121.448 36.0192ZM116.051 33.0661C119.164 32.8558 120.898 30.8199 120.916 28.82L120.945 25.7401C119.982 26.3648 118.502 26.7846 117.142 27.1963C114.303 28.0277 112.9 28.7621 112.882 30.682C112.865 32.6019 114.135 33.1956 116.051 33.0661ZM137.704 35.5203C131.757 35.9221 128.472 33.2661 128.193 28.9279L133.221 28.5881C133.558 30.9237 135.225 31.8504 137.659 31.6859C140.054 31.524 141.419 30.5124 141.433 29.0724C141.451 27.1125 138.859 27.0878 136.07 26.7167C132.405 26.2448 128.823 25.4876 128.864 21.0078C128.905 16.5679 132.597 14.1999 137.266 13.8844C142.654 13.5203 145.622 15.9979 145.983 20.0908L141.074 20.4225C140.855 18.2388 139.466 17.5332 137.151 17.6896C135.036 17.8325 133.632 18.7269 133.618 20.2068C133.602 21.9668 136.314 21.9434 139.222 22.3465C142.647 22.8345 146.43 23.5383 146.385 28.338C146.347 32.4579 142.812 35.1751 137.704 35.5203ZM147.348 17.3603L147.381 13.7605L150.215 13.569L150.274 7.16924L155.582 6.81055L155.523 13.2103L159.035 12.9729L159.001 16.5728L155.489 16.8101L155.388 27.6897C155.374 29.2096 156.208 29.6729 157.405 29.592C158.083 29.5462 159.002 29.4441 159.002 29.4441L158.965 33.444C158.965 33.444 157.727 33.6076 155.572 33.7532C152.938 33.9312 150.034 33.0881 150.07 29.2083L150.181 17.1688L147.348 17.3603ZM161.639 33.3032L161.83 12.7841L167.257 12.4173L167.067 32.9364L161.639 33.3032ZM161.859 9.58421L161.904 4.70442L167.332 4.33764L167.287 9.21743L161.859 9.58421ZM180.057 32.6582C173.592 33.0951 169.605 28.6477 169.662 22.5279C169.718 16.4082 173.753 11.4187 179.979 10.998C185.287 10.6393 188.531 13.498 189.208 17.8893L183.9 18.248C183.557 16.4723 182.173 15.2068 180.178 15.3416C176.905 15.5628 175.206 18.1959 175.169 22.1558C175.133 26.0356 176.665 28.5303 179.978 28.3065C182.173 28.1581 183.74 26.893 184.121 24.5488L189.349 24.1955C188.949 28.5796 185.525 32.2887 180.057 32.6582ZM84.414 74.0181C78.5075 74.4172 75.1005 71.9293 75.1524 66.3295L75.1787 63.4897L80.3669 63.1391L80.3439 65.619C80.3172 68.4988 81.6238 69.5298 83.9785 69.3707C86.3331 69.2115 87.4236 67.7388 87.447 65.2189L87.6371 44.6998L93.4239 44.3087L93.2334 64.8678C93.1882 69.7476 90.3205 73.619 84.414 74.0181ZM106.428 72.6104C100.083 73.0392 95.7762 68.6134 95.8329 62.4936C95.8896 56.3739 100.283 51.3601 106.629 50.9313C112.974 50.5025 117.281 54.9283 117.224 61.0481C117.167 67.1678 112.774 72.1816 106.428 72.6104ZM106.467 68.4506C109.779 68.2267 111.68 65.4201 111.717 61.4203C111.754 57.4204 109.903 54.8273 106.591 55.0511C103.238 55.2777 101.377 58.1216 101.34 62.1215C101.303 66.1213 103.114 68.6771 106.467 68.4506ZM131.061 70.9458C128.187 71.14 126.163 70.0376 124.984 68.1986L124.904 68.204L124.88 70.7638L119.652 71.1171L119.917 42.5184L125.345 42.1516L125.247 52.7111L125.367 52.703C126.5 50.9076 128.268 49.469 131.102 49.2775C136.25 48.9296 139.881 53.1213 139.821 59.521C139.76 66.1607 136.209 70.5979 131.061 70.9458ZM129.906 66.4669C132.699 66.2781 134.277 63.853 134.314 59.8932C134.349 56.0934 132.857 53.556 129.824 53.7609C126.392 53.9929 125.089 56.8391 125.054 60.6389C125.019 64.3987 126.873 66.6719 129.906 66.4669ZM144.33 61.0951L142.942 47.2782L143.001 40.9584L148.668 40.5755L148.609 46.8952L146.964 60.9171L144.33 61.0951ZM142.656 69.5626L142.71 63.7629L148.536 63.3691L148.483 69.1689L142.656 69.5626Z"/>
</mask>
<path d="M31.2829 42.1123L31.548 13.5135L51.9814 12.1327L51.9358 17.0525L37.2892 18.0423L37.2255 24.922L49.6371 24.0832L49.5912 29.043L37.1795 29.8818L37.0697 41.7213L31.2829 42.1123ZM65.6377 39.7907C65.3221 39.4123 65.1315 38.4658 65.0203 37.554L64.9405 37.5594C63.8884 39.1894 62.4006 40.4891 58.8886 40.7265C54.6982 41.0097 51.7653 39.0093 51.8031 34.9295C51.845 30.4097 55.53 28.7216 60.0856 27.7742C63.4823 27.065 65.0413 26.6798 65.0558 25.1199C65.0695 23.64 63.921 22.7582 61.6462 22.9119C59.092 23.0845 57.8463 24.0881 57.6685 26.0588L52.8396 26.3851C53.0326 22.7745 55.7357 19.4339 61.7221 19.0294C67.8681 18.6141 70.3169 21.2067 70.2724 26.0065L70.1756 36.4461C70.1611 38.006 70.3921 38.9098 70.8676 39.2374L70.8658 39.4374L65.6377 39.7907ZM60.2409 36.8376C63.3538 36.6273 65.0876 34.5914 65.1062 32.5915L65.1347 29.5116C64.1717 30.1363 62.6921 30.5561 61.3323 30.9678C58.4928 31.7992 57.09 32.5336 57.0722 34.4535C57.0544 36.3734 58.3252 36.9671 60.2409 36.8376ZM79.0961 18.375L79.0701 21.1749L79.1899 21.1668C80.6071 18.8725 82.4935 17.5858 85.2872 17.397C89.5175 17.1111 92.3214 20.1195 92.2799 24.5993L92.1557 37.9987L86.728 38.3655L86.8448 25.766C86.8652 23.5661 85.6026 22.0925 83.3278 22.2462C80.9332 22.408 79.1594 24.4466 79.1335 27.2465L79.0256 38.886L73.598 39.2528L73.7882 18.7337L79.0961 18.375ZM94.071 20.9606L94.1043 17.3608L96.9379 17.1693L96.9972 10.7695L102.305 10.4109L102.246 16.8106L105.758 16.5732L105.724 20.1731L102.212 20.4104L102.112 31.29C102.097 32.8099 102.931 33.2732 104.128 33.1923C104.806 33.1465 105.725 33.0445 105.725 33.0445L105.688 37.0443C105.688 37.0443 104.45 37.2079 102.295 37.3535C99.6607 37.5315 96.757 36.6884 96.7929 32.8086L96.9045 20.7691L94.071 20.9606ZM121.448 36.0192C121.132 35.6408 120.942 34.6943 120.831 33.7825L120.751 33.7879C119.699 35.4179 118.211 36.7177 114.699 36.955C110.508 37.2382 107.576 35.2378 107.613 31.158C107.655 26.6382 111.34 24.9501 115.896 24.0027C119.292 23.2935 120.852 22.9083 120.866 21.3484C120.88 19.8685 119.731 18.9867 117.456 19.1404C114.902 19.313 113.657 20.3166 113.479 22.2873L108.65 22.6136C108.843 19.003 111.546 15.6624 117.532 15.2579C123.678 14.8426 126.127 17.4353 126.083 22.235L125.986 32.6746C125.971 34.2345 126.202 35.1383 126.678 35.4659L126.676 35.6659L121.448 36.0192ZM116.051 33.0661C119.164 32.8558 120.898 30.8199 120.916 28.82L120.945 25.7401C119.982 26.3648 118.502 26.7846 117.142 27.1963C114.303 28.0277 112.9 28.7621 112.882 30.682C112.865 32.6019 114.135 33.1956 116.051 33.0661ZM137.704 35.5203C131.757 35.9221 128.472 33.2661 128.193 28.9279L133.221 28.5881C133.558 30.9237 135.225 31.8504 137.659 31.6859C140.054 31.524 141.419 30.5124 141.433 29.0724C141.451 27.1125 138.859 27.0878 136.07 26.7167C132.405 26.2448 128.823 25.4876 128.864 21.0078C128.905 16.5679 132.597 14.1999 137.266 13.8844C142.654 13.5203 145.622 15.9979 145.983 20.0908L141.074 20.4225C140.855 18.2388 139.466 17.5332 137.151 17.6896C135.036 17.8325 133.632 18.7269 133.618 20.2068C133.602 21.9668 136.314 21.9434 139.222 22.3465C142.647 22.8345 146.43 23.5383 146.385 28.338C146.347 32.4579 142.812 35.1751 137.704 35.5203ZM147.348 17.3603L147.381 13.7605L150.215 13.569L150.274 7.16924L155.582 6.81055L155.523 13.2103L159.035 12.9729L159.001 16.5728L155.489 16.8101L155.388 27.6897C155.374 29.2096 156.208 29.6729 157.405 29.592C158.083 29.5462 159.002 29.4441 159.002 29.4441L158.965 33.444C158.965 33.444 157.727 33.6076 155.572 33.7532C152.938 33.9312 150.034 33.0881 150.07 29.2083L150.181 17.1688L147.348 17.3603ZM161.639 33.3032L161.83 12.7841L167.257 12.4173L167.067 32.9364L161.639 33.3032ZM161.859 9.58421L161.904 4.70442L167.332 4.33764L167.287 9.21743L161.859 9.58421ZM180.057 32.6582C173.592 33.0951 169.605 28.6477 169.662 22.5279C169.718 16.4082 173.753 11.4187 179.979 10.998C185.287 10.6393 188.531 13.498 189.208 17.8893L183.9 18.248C183.557 16.4723 182.173 15.2068 180.178 15.3416C176.905 15.5628 175.206 18.1959 175.169 22.1558C175.133 26.0356 176.665 28.5303 179.978 28.3065C182.173 28.1581 183.74 26.893 184.121 24.5488L189.349 24.1955C188.949 28.5796 185.525 32.2887 180.057 32.6582ZM84.414 74.0181C78.5075 74.4172 75.1005 71.9293 75.1524 66.3295L75.1787 63.4897L80.3669 63.1391L80.3439 65.619C80.3172 68.4988 81.6238 69.5298 83.9785 69.3707C86.3331 69.2115 87.4236 67.7388 87.447 65.2189L87.6371 44.6998L93.4239 44.3087L93.2334 64.8678C93.1882 69.7476 90.3205 73.619 84.414 74.0181ZM106.428 72.6104C100.083 73.0392 95.7762 68.6134 95.8329 62.4936C95.8896 56.3739 100.283 51.3601 106.629 50.9313C112.974 50.5025 117.281 54.9283 117.224 61.0481C117.167 67.1678 112.774 72.1816 106.428 72.6104ZM106.467 68.4506C109.779 68.2267 111.68 65.4201 111.717 61.4203C111.754 57.4204 109.903 54.8273 106.591 55.0511C103.238 55.2777 101.377 58.1216 101.34 62.1215C101.303 66.1213 103.114 68.6771 106.467 68.4506ZM131.061 70.9458C128.187 71.14 126.163 70.0376 124.984 68.1986L124.904 68.204L124.88 70.7638L119.652 71.1171L119.917 42.5184L125.345 42.1516L125.247 52.7111L125.367 52.703C126.5 50.9076 128.268 49.469 131.102 49.2775C136.25 48.9296 139.881 53.1213 139.821 59.521C139.76 66.1607 136.209 70.5979 131.061 70.9458ZM129.906 66.4669C132.699 66.2781 134.277 63.853 134.314 59.8932C134.349 56.0934 132.857 53.556 129.824 53.7609C126.392 53.9929 125.089 56.8391 125.054 60.6389C125.019 64.3987 126.873 66.6719 129.906 66.4669ZM144.33 61.0951L142.942 47.2782L143.001 40.9584L148.668 40.5755L148.609 46.8952L146.964 60.9171L144.33 61.0951ZM142.656 69.5626L142.71 63.7629L148.536 63.3691L148.483 69.1689L142.656 69.5626Z" fill="black"/>
<path d="M31.2829 42.1123L26.2943 42.4494C26.2687 45.2107 28.4815 47.2983 31.2366 47.1121L31.2829 42.1123ZM31.548 13.5135L31.5944 8.51376C28.8392 8.69994 26.585 11.0894 26.5594 13.8507L31.548 13.5135ZM51.9814 12.1327L56.97 11.7956C56.9956 9.03429 54.7829 6.94674 52.0278 7.13292L51.9814 12.1327ZM51.9358 17.0525L51.8895 22.0523C54.6446 21.8661 56.8988 19.4767 56.9244 16.7154L51.9358 17.0525ZM37.2892 18.0423L37.3356 13.0425C34.5804 13.2287 32.3262 15.6181 32.3006 18.3794L37.2892 18.0423ZM37.2255 24.922L32.2368 25.2591C32.2112 28.0204 34.424 30.1079 37.1791 29.9218L37.2255 24.922ZM49.6371 24.0832L54.6258 23.7461C54.6514 20.9848 52.4386 18.8973 49.6835 19.0834L49.6371 24.0832ZM49.5912 29.043L49.5448 34.0428C52.3 33.8566 54.5542 31.4672 54.5798 28.7059L49.5912 29.043ZM37.1795 29.8818L37.2258 24.882C34.4707 25.0682 32.2165 27.4576 32.1909 30.2189L37.1795 29.8818ZM37.0697 41.7213L37.0234 46.721C39.7785 46.5349 42.0328 44.1454 42.0584 41.3841L37.0697 41.7213ZM36.2716 41.7752L36.5366 13.1764L26.5594 13.8507L26.2943 42.4494L36.2716 41.7752ZM31.5017 18.5133L51.9351 17.1325L52.0278 7.13292L31.5944 8.51376L31.5017 18.5133ZM46.9928 12.4698L46.9472 17.3896L56.9244 16.7154L56.97 11.7956L46.9928 12.4698ZM51.9822 12.0527L37.3356 13.0425L37.2429 23.0421L51.8895 22.0523L51.9822 12.0527ZM32.3006 18.3794L32.2368 25.2591L42.2141 24.5849L42.2778 17.7052L32.3006 18.3794ZM37.1791 29.9218L49.5908 29.083L49.6835 19.0834L37.2718 19.9222L37.1791 29.9218ZM44.6485 24.4203L44.6026 29.3801L54.5798 28.7059L54.6258 23.7461L44.6485 24.4203ZM49.6375 24.0432L37.2258 24.882L37.1331 34.8816L49.5448 34.0428L49.6375 24.0432ZM32.1909 30.2189L32.0811 42.0584L42.0584 41.3841L42.1681 29.5447L32.1909 30.2189ZM37.1161 36.7215L31.3293 37.1125L31.2366 47.1121L37.0234 46.721L37.1161 36.7215ZM65.6377 39.7907L61.7133 43.1773C62.649 44.2994 64.0759 44.8929 65.5914 44.7905L65.6377 39.7907ZM65.0203 37.554L69.973 36.573C69.672 34.1047 67.5724 32.3848 65.0666 32.5542L65.0203 37.554ZM64.9405 37.5594L64.9868 32.5596C63.3189 32.6723 61.7535 33.613 60.8154 35.0665L64.9405 37.5594ZM60.0856 27.7742L60.733 32.6786L60.737 32.6778L60.0856 27.7742ZM57.6685 26.0588L57.6222 31.0586C60.22 30.883 62.4014 28.7388 62.6369 26.1296L57.6685 26.0588ZM52.8396 26.3851L47.8579 26.4999C47.7848 27.8672 48.2706 29.1623 49.2026 30.0848C50.1345 31.0072 51.4317 31.4769 52.7932 31.3849L52.8396 26.3851ZM70.8676 39.2374L75.8563 38.9003C75.8708 37.3266 75.1453 35.8947 73.8979 35.0353L70.8676 39.2374ZM70.8658 39.4374L70.8194 44.4372C73.5746 44.251 75.8288 41.8616 75.8544 39.1003L70.8658 39.4374ZM65.1347 29.5116L70.1233 29.1745C70.1399 27.3842 69.2002 25.7952 67.6595 25.0082C66.1189 24.2212 64.2124 24.3564 62.6611 25.3628L65.1347 29.5116ZM61.3322 30.9678L62.3837 35.7711C62.3991 35.7666 62.4144 35.7621 62.4297 35.7574L61.3322 30.9678ZM69.5621 36.4041C69.7391 36.6163 69.8544 36.8035 69.9227 36.9259C69.9929 37.0517 70.0363 37.1505 70.0593 37.2068C70.1023 37.3116 70.1083 37.3515 70.093 37.2913C70.0799 37.2399 70.0601 37.1498 70.0372 37.0172C70.0148 36.8873 69.9931 36.7377 69.973 36.573L60.0676 38.5349C60.1359 39.0954 60.2414 39.7824 60.4118 40.4535C60.5349 40.9384 60.8585 42.1523 61.7133 43.1773L69.5621 36.4041ZM65.0666 32.5542L64.9868 32.5596L64.8941 42.5591L64.974 42.5538L65.0666 32.5542ZM60.8154 35.0665C60.6921 35.2575 60.6207 35.3379 60.5935 35.3661C60.5754 35.3849 60.5701 35.3886 60.5536 35.3984C60.5284 35.4133 60.1362 35.6455 58.935 35.7267L58.8423 45.7263C61.153 45.5701 63.2607 45.0338 65.1204 43.932C67.0257 42.8032 68.2358 41.3378 69.0656 40.0522L60.8154 35.0665ZM58.935 35.7267C57.6559 35.8131 57.1236 35.5117 56.9998 35.4154C56.9467 35.374 56.9179 35.3375 56.89 35.2745C56.8585 35.2034 56.788 35.0027 56.7918 34.5924L46.8145 35.2666C46.7835 38.6181 48.0249 41.5703 50.5207 43.5129C52.9016 45.3659 55.931 45.923 58.8423 45.7263L58.935 35.7267ZM56.7918 34.5924C56.7958 34.1587 56.8792 34.0456 56.8544 34.0929C56.8294 34.1408 56.8267 34.099 57.0029 33.9687C57.5082 33.5953 58.6156 33.119 60.733 32.6786L59.4381 22.8698C56.9999 23.3769 53.9871 24.2182 51.5006 26.0557C48.6286 28.178 46.851 31.3357 46.8145 35.2666L56.7918 34.5924ZM60.737 32.6778C62.2 32.3723 64.1396 31.9856 65.6438 31.2853C66.4996 30.887 67.6869 30.1854 68.641 28.9218C69.6737 27.5542 70.0325 26.067 70.0444 24.7828L60.0672 25.457C60.0718 24.9528 60.2304 24.0986 60.8605 23.2641C61.412 22.5337 61.9946 22.2652 62.0342 22.2468C62.0722 22.2291 61.9278 22.2971 61.4113 22.4297C60.9185 22.5562 60.2951 22.6909 59.4341 22.8706L60.737 32.6778ZM70.0444 24.7828C70.0648 22.5793 69.1398 20.4892 67.2117 19.1822C65.4816 18.0095 63.4339 17.7945 61.6926 17.9121L61.5999 27.9117C62.1333 27.8757 61.7973 28.0247 61.2067 27.6244C60.8824 27.4045 60.5613 27.0659 60.3387 26.6115C60.1204 26.1659 60.0645 25.7483 60.0672 25.457L70.0444 24.7828ZM61.6926 17.9121C59.9512 18.0298 57.7554 18.4674 55.8603 19.9732C53.7388 21.6589 52.8842 23.9486 52.7002 25.988L62.6369 26.1296C62.6369 26.1296 62.6366 26.1327 62.6358 26.1387C62.635 26.1447 62.6338 26.1538 62.6317 26.1658C62.6277 26.1897 62.6206 26.2259 62.6084 26.273C62.5838 26.3679 62.5387 26.5062 62.4581 26.672C62.2815 27.0353 62.0067 27.3832 61.6722 27.649C61.3623 27.8952 61.1281 27.9709 61.1103 27.9765C61.1018 27.9791 61.2435 27.9358 61.5999 27.9117L61.6926 17.9121ZM57.7149 21.059L52.8859 21.3854L52.7932 31.3849L57.6222 31.0586L57.7149 21.059ZM57.8212 26.2703C57.8529 25.6764 58.0529 25.328 58.3284 25.0737C58.6365 24.7892 59.5414 24.1734 61.6758 24.0292L61.7684 14.0296C57.9165 14.2899 54.4765 15.5467 51.8882 17.9363C49.2673 20.356 48.0192 23.4832 47.8579 26.4999L57.8212 26.2703ZM61.6758 24.0292C64.112 23.8646 64.8001 24.3771 64.8912 24.4564C64.9061 24.4693 65.2984 24.7611 65.2837 26.3437L75.261 25.6694C75.2908 22.4521 74.481 19.0477 71.7461 16.6682C69.0874 14.355 65.4781 13.7789 61.7684 14.0296L61.6758 24.0292ZM65.2837 26.3437L65.187 36.7832L75.1642 36.109L75.261 25.6694L65.2837 26.3437ZM65.187 36.7832C65.1779 37.7639 65.2374 38.8446 65.4928 39.8674C65.7306 40.8192 66.3012 42.3813 67.8374 43.4395L73.8979 35.0353C74.4401 35.4089 74.7602 35.8433 74.9355 36.1513C75.1054 36.4499 75.1669 36.6764 75.1829 36.7404C75.2076 36.8393 75.1588 36.6883 75.1642 36.109L65.187 36.7832ZM65.879 39.5745L65.8772 39.7745L75.8544 39.1003L75.8563 38.9003L65.879 39.5745ZM70.9121 34.4376L65.6841 34.7909L65.5914 44.7905L70.8194 44.4372L70.9121 34.4376ZM60.1945 41.8374C65.5015 41.4788 70.0458 37.5462 70.0948 32.2544L60.1176 32.9286C60.1219 32.4615 60.3348 32.0816 60.5514 31.8754C60.7781 31.6597 60.8056 31.8028 60.2872 31.8379L60.1945 41.8374ZM70.0948 32.2544L70.1233 29.1745L60.1461 29.8487L60.1176 32.9286L70.0948 32.2544ZM62.6611 25.3628C62.7178 25.326 62.5769 25.4199 62.0468 25.6082C61.5378 25.789 60.9894 25.9497 60.2348 26.1781L62.4297 35.7574C63.4059 35.4619 65.829 34.8147 67.6083 33.6605L62.6611 25.3628ZM60.2808 26.1644C58.9131 26.5649 56.9685 27.1718 55.3749 28.3594C54.4624 29.0393 53.5686 29.9712 52.9351 31.2208C52.308 32.4576 52.0938 33.6944 52.0836 34.7906L62.0609 34.1164C62.0596 34.2526 62.0274 34.6777 61.757 35.2109C61.4803 35.7568 61.1179 36.0931 60.9134 36.2456C60.7537 36.3645 60.7332 36.3402 61.0299 36.2197C61.3162 36.1034 61.7394 35.9598 62.3837 35.7711L60.2808 26.1644ZM52.0836 34.7906C52.0634 36.9769 52.8497 39.2405 54.9471 40.6474C56.7449 41.8533 58.8054 41.9313 60.1945 41.8374L60.2872 31.8379C60.0854 31.8515 60.0555 31.8339 60.1461 31.8496C60.2411 31.8661 60.5474 31.9336 60.9159 32.1808C61.3159 32.4491 61.6523 32.8392 61.8596 33.2971C62.053 33.7242 62.0615 34.0473 62.0609 34.1164L52.0836 34.7906ZM79.0961 18.375L84.0847 18.0379C84.1103 15.2765 81.8976 13.189 79.1424 13.3752L79.0961 18.375ZM79.0701 21.1749L74.0815 21.512C74.0559 24.2733 76.2686 26.3608 79.0238 26.1746L79.0701 21.1749ZM79.1898 21.1668L79.1435 26.1665C80.8491 26.0513 82.4446 25.0707 83.3737 23.5666L79.1898 21.1668ZM92.1557 37.9987L92.1093 42.9985C94.8645 42.8123 97.1187 40.4229 97.1443 37.6616L92.1557 37.9987ZM86.728 38.3655L81.7394 38.7026C81.7138 41.4639 83.9266 43.5515 86.6817 43.3653L86.728 38.3655ZM79.0256 38.886L78.9793 43.8858C81.7344 43.6996 83.9886 41.3102 84.0142 38.5489L79.0256 38.886ZM73.598 39.2528L68.6094 39.5899C68.5838 42.3512 70.7965 44.4388 73.5517 44.2526L73.598 39.2528ZM73.7882 18.7337L73.8345 13.7339C71.0794 13.9201 68.8252 16.3095 68.7996 19.0708L73.7882 18.7337ZM74.1075 18.7121L74.0815 21.512L84.0587 20.8377L84.0847 18.0379L74.1075 18.7121ZM79.0238 26.1746L79.1435 26.1665L79.2362 16.167L79.1165 16.1751L79.0238 26.1746ZM83.3737 23.5666C83.7432 22.9684 84.0108 22.7588 84.1453 22.6736C84.2674 22.5963 84.5577 22.4429 85.2408 22.3968L85.3335 12.3972C83.223 12.5398 81.1732 13.1242 79.2993 14.311C77.4379 15.4899 76.0537 17.0708 75.006 18.7669L83.3737 23.5666ZM85.2408 22.3968C86.0304 22.3434 86.4293 22.5801 86.6679 22.8287C86.9424 23.1149 87.3023 23.7486 87.2912 24.9364L97.2685 24.2622C97.299 20.9702 96.2777 17.8598 94.1031 15.5933C91.8925 13.2892 88.7743 12.1647 85.3335 12.3972L85.2408 22.3968ZM87.2912 24.9364L87.167 38.3358L97.1443 37.6616L97.2685 24.2622L87.2912 24.9364ZM92.202 32.9989L86.7744 33.3657L86.6817 43.3653L92.1093 42.9985L92.202 32.9989ZM91.7167 38.0284L91.8334 25.4289L81.8562 26.1031L81.7394 38.7026L91.7167 38.0284ZM91.8334 25.4289C91.8524 23.3848 91.2727 21.1857 89.6682 19.5095C88.007 17.774 85.712 17.0884 83.3741 17.2464L83.2814 27.246C83.279 27.2462 83.1328 27.2546 82.9048 27.176C82.6687 27.0946 82.4266 26.9472 82.2258 26.7375C81.8163 26.3096 81.8576 25.9474 81.8562 26.1031L91.8334 25.4289ZM83.3741 17.2464C77.7015 17.6298 74.1913 22.5774 74.1449 27.5836L84.1221 26.9094C84.1254 26.5541 84.2271 26.6063 84.0352 26.8327C83.9437 26.9406 83.8132 27.0503 83.6528 27.1324C83.4917 27.2148 83.3562 27.241 83.2814 27.246L83.3741 17.2464ZM74.1449 27.5836L74.037 39.2231L84.0142 38.5489L84.1221 26.9094L74.1449 27.5836ZM79.072 33.8862L73.6443 34.253L73.5517 44.2526L78.9793 43.8858L79.072 33.8862ZM78.5866 38.9157L78.7768 18.3965L68.7996 19.0708L68.6094 39.5899L78.5866 38.9157ZM73.7418 23.7334L79.0497 23.3748L79.1424 13.3752L73.8345 13.7339L73.7418 23.7334ZM94.071 20.9606L89.0824 21.2977C89.0568 24.059 91.2695 26.1466 94.0246 25.9604L94.071 20.9606ZM94.1043 17.3608L94.1507 12.361C91.3955 12.5472 89.1413 14.9366 89.1157 17.6979L94.1043 17.3608ZM96.9379 17.1693L96.8915 22.1691C99.6467 21.9829 101.901 19.5935 101.927 16.8322L96.9379 17.1693ZM96.9972 10.7695L97.0435 5.76976C94.2884 5.95595 92.0342 8.34536 92.0086 11.1067L96.9972 10.7695ZM102.305 10.4109L107.294 10.0737C107.319 7.31243 105.107 5.22488 102.351 5.41107L102.305 10.4109ZM102.246 16.8106L97.2572 17.1477C97.2316 19.909 99.4443 21.9965 102.199 21.8104L102.246 16.8106ZM105.758 16.5732L110.746 16.2361C110.772 13.4748 108.559 11.3873 105.804 11.5735L105.758 16.5732ZM105.724 20.1731L105.678 25.1729C108.433 24.9867 110.687 22.5973 110.713 19.836L105.724 20.1731ZM102.212 20.4104L102.259 15.4106C99.5036 15.5968 97.2494 17.9862 97.2238 20.7475L102.212 20.4104ZM105.725 33.0445L110.713 32.7073C110.726 31.3436 110.182 30.0767 109.208 29.2C108.234 28.3233 106.914 27.9129 105.554 28.064L105.725 33.0445ZM105.688 37.0443L105.963 42.012C108.589 41.6649 110.652 39.3435 110.676 36.7072L105.688 37.0443ZM96.9045 20.7691L101.893 20.432C101.919 17.6707 99.706 15.5831 96.9509 15.7693L96.9045 20.7691ZM99.0596 20.6235L99.093 17.0236L89.1157 17.6979L89.0824 21.2977L99.0596 20.6235ZM94.058 22.3605L96.8915 22.1691L96.9842 12.1695L94.1507 12.361L94.058 22.3605ZM101.927 16.8322L101.986 10.4324L92.0086 11.1067L91.9493 17.5064L101.927 16.8322ZM96.9509 15.7693L102.259 15.4106L102.351 5.41107L97.0435 5.76976L96.9509 15.7693ZM97.3165 10.748L97.2572 17.1477L107.234 16.4735L107.294 10.0737L97.3165 10.748ZM102.199 21.8104L105.711 21.573L105.804 11.5735L102.292 11.8108L102.199 21.8104ZM100.769 16.9104L100.736 20.5102L110.713 19.836L110.746 16.2361L100.769 16.9104ZM105.771 15.1733L102.259 15.4106L102.166 25.4102L105.678 25.1729L105.771 15.1733ZM97.2238 20.7475L97.1229 31.6271L107.1 30.9528L107.201 20.0733L97.2238 20.7475ZM97.1229 31.6271C97.1075 33.2941 97.5719 35.3539 99.3166 36.8023C100.949 38.1573 102.876 38.2736 104.082 38.1921L104.174 28.1925C104.183 28.192 105.095 28.1171 106.014 28.8806C107.047 29.7376 107.102 30.8058 107.1 30.9528L97.1229 31.6271ZM104.082 38.1921C104.501 38.1638 104.962 38.1206 105.293 38.0878C105.464 38.0708 105.612 38.0554 105.717 38.0441C105.77 38.0385 105.813 38.0338 105.844 38.0305C105.859 38.0289 105.871 38.0276 105.879 38.0266C105.884 38.0261 105.887 38.0257 105.89 38.0255C105.891 38.0253 105.892 38.0252 105.893 38.0251C105.894 38.025 105.894 38.025 105.894 38.025C105.895 38.0249 105.895 38.0249 105.895 38.0249C105.895 38.0249 105.895 38.0249 105.895 38.0249C105.895 38.0249 105.895 38.0249 105.725 33.0445C105.554 28.064 105.554 28.064 105.555 28.064C105.555 28.064 105.555 28.064 105.555 28.064C105.555 28.064 105.555 28.064 105.555 28.064C105.555 28.064 105.555 28.064 105.555 28.064C105.555 28.064 105.555 28.064 105.554 28.064C105.553 28.0641 105.552 28.0643 105.549 28.0646C105.544 28.0652 105.536 28.0661 105.524 28.0673C105.502 28.0698 105.468 28.0735 105.424 28.0781C105.336 28.0874 105.212 28.1004 105.069 28.1146C104.771 28.1442 104.434 28.175 104.174 28.1925L104.082 38.1921ZM100.736 33.3816L100.699 37.3814L110.676 36.7072L110.713 32.7073L100.736 33.3816ZM105.688 37.0443C105.413 32.0766 105.413 32.0765 105.413 32.0765C105.413 32.0765 105.414 32.0765 105.414 32.0764C105.414 32.0764 105.414 32.0764 105.415 32.0763C105.415 32.0762 105.416 32.0762 105.416 32.0761C105.417 32.076 105.418 32.0759 105.418 32.0759C105.418 32.0758 105.418 32.0759 105.416 32.0762C105.412 32.0766 105.404 32.0777 105.391 32.0793C105.365 32.0826 105.32 32.0881 105.258 32.0954C105.133 32.1101 104.937 32.1323 104.674 32.1591C104.148 32.2128 103.357 32.2851 102.341 32.3537L102.248 42.3533C103.387 42.2763 104.293 42.194 104.925 42.1295C105.241 42.0972 105.489 42.0694 105.663 42.0488C105.751 42.0386 105.82 42.0301 105.87 42.0239C105.895 42.0207 105.915 42.0181 105.931 42.0162C105.938 42.0152 105.945 42.0143 105.95 42.0136C105.953 42.0133 105.955 42.013 105.957 42.0127C105.958 42.0125 105.959 42.0124 105.96 42.0123C105.961 42.0122 105.961 42.0122 105.961 42.0121C105.962 42.0121 105.962 42.0121 105.962 42.0121C105.962 42.012 105.963 42.012 105.688 37.0443ZM102.341 32.3537C101.996 32.377 101.73 32.3597 101.552 32.3278C101.373 32.2959 101.366 32.2648 101.449 32.3184C101.494 32.3474 101.556 32.3952 101.62 32.4653C101.685 32.5366 101.734 32.6117 101.767 32.6786C101.839 32.8228 101.778 32.8087 101.782 32.4715L91.8043 33.1457C91.7729 36.5322 93.1243 39.277 95.6361 40.8871C97.8558 42.31 100.412 42.4774 102.248 42.3533L102.341 32.3537ZM101.782 32.4715L101.893 20.432L91.9159 21.1062L91.8043 33.1457L101.782 32.4715ZM96.9509 15.7693L94.1173 15.9608L94.0246 25.9604L96.8582 25.7689L96.9509 15.7693ZM121.448 36.0192L117.524 39.4058C118.459 40.5279 119.886 41.1214 121.402 41.019L121.448 36.0192ZM120.831 33.7825L125.783 32.8015C125.482 30.3332 123.383 28.6134 120.877 28.7827L120.831 33.7825ZM120.751 33.7879L120.797 28.7881C119.129 28.9008 117.564 29.8415 116.626 31.295L120.751 33.7879ZM115.896 24.0027L116.543 28.9071L116.547 28.9063L115.896 24.0027ZM113.479 22.2873L113.432 27.2871C116.03 27.1115 118.212 24.9673 118.447 22.3581L113.479 22.2873ZM108.65 22.6136L103.668 22.7284C103.595 24.0957 104.081 25.3908 105.013 26.3133C105.945 27.2357 107.242 27.7054 108.603 27.6134L108.65 22.6136ZM126.678 35.4659L131.666 35.1288C131.681 33.5551 130.956 32.1232 129.708 31.2638L126.678 35.4659ZM126.676 35.6659L126.63 40.6657C129.385 40.4795 131.639 38.0901 131.665 35.3288L126.676 35.6659ZM120.945 25.7401L125.934 25.403C125.95 23.6128 125.01 22.0237 123.47 21.2367C121.929 20.4497 120.023 20.5849 118.471 21.5913L120.945 25.7401ZM117.142 27.1963L118.194 31.9996C118.209 31.9951 118.225 31.9906 118.24 31.9859L117.142 27.1963ZM125.372 32.6326C125.549 32.8448 125.665 33.032 125.733 33.1544C125.803 33.2802 125.847 33.379 125.87 33.4353C125.913 33.5402 125.918 33.58 125.903 33.5198C125.89 33.4684 125.87 33.3783 125.847 33.2457C125.825 33.1158 125.803 32.9663 125.783 32.8015L115.878 34.7634C115.946 35.3239 116.052 36.0109 116.222 36.682C116.345 37.1669 116.669 38.3808 117.524 39.4058L125.372 32.6326ZM120.877 28.7827L120.797 28.7881L120.704 38.7876L120.784 38.7823L120.877 28.7827ZM116.626 31.295C116.502 31.486 116.431 31.5664 116.404 31.5946C116.386 31.6134 116.38 31.6171 116.364 31.6269C116.339 31.6418 115.946 31.874 114.745 31.9552L114.653 41.9548C116.963 41.7986 119.071 41.2623 120.931 40.1605C122.836 39.0317 124.046 37.5663 124.876 36.2807L116.626 31.295ZM114.745 31.9552C113.466 32.0416 112.934 31.7402 112.81 31.6439C112.757 31.6025 112.728 31.566 112.7 31.503C112.669 31.4319 112.598 31.2312 112.602 30.8209L102.625 31.4951C102.594 34.8466 103.835 37.7988 106.331 39.7414C108.712 41.5944 111.741 42.1515 114.653 41.9548L114.745 31.9552ZM112.602 30.8209C112.606 30.3872 112.689 30.2741 112.665 30.3214C112.64 30.3693 112.637 30.3275 112.813 30.1972C113.318 29.8239 114.426 29.3475 116.543 28.9071L115.248 19.0983C112.81 19.6054 109.797 20.4467 107.311 22.2842C104.439 24.4065 102.661 27.5642 102.625 31.4951L112.602 30.8209ZM116.547 28.9063C118.01 28.6008 119.95 28.2141 121.454 27.5139C122.31 27.1155 123.497 26.4139 124.451 25.1503C125.484 23.7827 125.843 22.2955 125.855 21.0113L115.877 21.6855C115.882 21.1813 116.041 20.3272 116.671 19.4926C117.222 18.7622 117.805 18.4937 117.844 18.4753C117.882 18.4576 117.738 18.5256 117.222 18.6582C116.729 18.7847 116.105 18.9194 115.244 19.0992L116.547 28.9063ZM125.855 21.0113C125.875 18.8078 124.95 16.7177 123.022 15.4107C121.292 14.238 119.244 14.023 117.503 14.1407L117.41 24.1402C117.944 24.1042 117.608 24.2532 117.017 23.8529C116.693 23.633 116.371 23.2944 116.149 22.84C115.931 22.3944 115.875 21.9768 115.877 21.6855L125.855 21.0113ZM117.503 14.1407C115.761 14.2583 113.566 14.6959 111.671 16.2017C109.549 17.8875 108.694 20.1771 108.51 22.2165L118.447 22.3581C118.447 22.3581 118.447 22.3612 118.446 22.3672C118.445 22.3732 118.444 22.3823 118.442 22.3943C118.438 22.4182 118.431 22.4544 118.419 22.5015C118.394 22.5964 118.349 22.7347 118.268 22.9005C118.092 23.2638 117.817 23.6117 117.482 23.8775C117.173 24.1237 116.938 24.1995 116.92 24.205C116.912 24.2076 117.054 24.1643 117.41 24.1402L117.503 14.1407ZM113.525 17.2875L108.696 17.6139L108.603 27.6134L113.432 27.2871L113.525 17.2875ZM113.631 22.4988C113.663 21.9049 113.863 21.5565 114.139 21.3022C114.447 21.0177 115.352 20.4019 117.486 20.2577L117.579 10.2581C113.727 10.5184 110.287 11.7752 107.698 14.1648C105.078 16.5845 103.829 19.7117 103.668 22.7284L113.631 22.4988ZM117.486 20.2577C119.922 20.0931 120.61 20.6056 120.701 20.6849C120.716 20.6978 121.109 20.9896 121.094 22.5722L131.071 21.8979C131.101 18.6807 130.291 15.2762 127.556 12.8967C124.898 10.5835 121.288 10.0074 117.579 10.2581L117.486 20.2577ZM121.094 22.5722L120.997 33.0117L130.974 32.3375L131.071 21.8979L121.094 22.5722ZM120.997 33.0117C120.988 33.9924 121.048 35.0732 121.303 36.0959C121.541 37.0477 122.111 38.6098 123.648 39.668L129.708 31.2638C130.25 31.6374 130.57 32.0718 130.746 32.3798C130.916 32.6784 130.977 32.9049 130.993 32.9689C131.018 33.0678 130.969 32.9168 130.974 32.3375L120.997 33.0117ZM121.689 35.803L121.687 36.003L131.665 35.3288L131.666 35.1288L121.689 35.803ZM126.722 30.6661L121.494 31.0194L121.402 41.019L126.63 40.6657L126.722 30.6661ZM116.005 38.0659C121.312 37.7073 125.856 33.7747 125.905 28.4829L115.928 29.1571C115.932 28.69 116.145 28.3101 116.362 28.1039C116.588 27.8882 116.616 28.0313 116.097 28.0664L116.005 38.0659ZM125.905 28.4829L125.934 25.403L115.956 26.0772L115.928 29.1571L125.905 28.4829ZM118.471 21.5913C118.528 21.5545 118.387 21.6484 117.857 21.8367C117.348 22.0175 116.8 22.1782 116.045 22.4066L118.24 31.9859C119.216 31.6904 121.639 31.0432 123.419 29.889L118.471 21.5913ZM116.091 22.3929C114.723 22.7934 112.779 23.4003 111.185 24.5879C110.273 25.2679 109.379 26.1997 108.745 27.4493C108.118 28.6861 107.904 29.9229 107.894 31.0191L117.871 30.3449C117.87 30.4811 117.838 30.9062 117.567 31.4394C117.29 31.9853 116.928 32.3216 116.724 32.4741C116.564 32.5931 116.543 32.5687 116.84 32.4482C117.126 32.3319 117.55 32.1883 118.194 31.9996L116.091 22.3929ZM107.894 31.0191C107.874 33.2054 108.66 35.469 110.757 36.8759C112.555 38.0818 114.616 38.1598 116.005 38.0659L116.097 28.0664C115.896 28.08 115.866 28.0624 115.956 28.0781C116.051 28.0946 116.358 28.1621 116.726 28.4093C117.126 28.6776 117.462 29.0677 117.67 29.5256C117.863 29.9527 117.872 30.2758 117.871 30.3449L107.894 31.0191ZM128.193 28.9279L128.239 23.9281C126.852 24.0218 125.523 24.6896 124.57 25.7713C123.617 26.853 123.125 28.251 123.214 29.6301L128.193 28.9279ZM133.221 28.5881L138.16 27.5008C137.811 25.084 135.732 23.4217 133.268 23.5883L133.221 28.5881ZM136.07 26.7167L137.094 21.7478C137.087 21.7469 137.08 21.746 137.074 21.7452L136.07 26.7167ZM145.983 20.0908L145.937 25.0905C147.344 24.9955 148.691 24.3094 149.646 23.2014C150.601 22.0933 151.076 20.6664 150.953 19.2721L145.983 20.0908ZM141.074 20.4225L136.11 21.2998C136.363 23.8176 138.482 25.5943 141.028 25.4223L141.074 20.4225ZM139.222 22.3465L140.289 17.3837C140.283 17.3828 140.277 17.382 140.271 17.3811L139.222 22.3465ZM137.75 30.5205C135.537 30.6701 134.421 30.2088 133.935 29.8577C133.541 29.5723 133.23 29.1379 133.171 28.2257L123.214 29.6301C123.434 33.0561 124.906 36.1188 127.71 38.1456C130.423 40.1065 133.924 40.7723 137.657 40.5201L137.75 30.5205ZM128.146 33.9277L133.175 33.5878L133.268 23.5883L128.239 23.9281L128.146 33.9277ZM128.283 29.6753C128.611 31.9511 129.699 34.0089 131.699 35.3276C133.579 36.5669 135.748 36.8117 137.613 36.6856L137.706 26.6861C137.136 26.7245 137.255 26.5883 137.608 26.8214C137.797 26.9456 137.958 27.1174 138.065 27.3007C138.166 27.4733 138.17 27.5694 138.16 27.5008L128.283 29.6753ZM137.613 36.6856C139.346 36.5685 141.348 36.1164 143.091 34.8866C145.052 33.5033 146.398 31.2985 146.421 28.7353L136.444 29.4096C136.448 28.9559 136.568 28.4117 136.866 27.8776C137.157 27.3552 137.521 27.0182 137.787 26.8303C138.246 26.5067 138.367 26.6414 137.706 26.6861L137.613 36.6856ZM146.421 28.7353C146.438 26.9927 145.819 25.4163 144.646 24.2445C143.614 23.2134 142.393 22.7362 141.558 22.4865C140.088 22.0465 138.003 21.8688 137.094 21.7478L135.047 31.6855C135.435 31.7371 135.814 31.782 136.147 31.8215C136.492 31.8624 136.784 31.8971 137.059 31.9339C137.638 32.0116 137.92 32.0721 138.05 32.1111C138.21 32.1589 137.807 32.0785 137.343 31.615C137.086 31.3575 136.837 31.0089 136.664 30.5716C136.493 30.1368 136.441 29.7285 136.444 29.4096L146.421 28.7353ZM137.074 21.7452C136.196 21.6321 135.499 21.5228 134.914 21.3801C134.327 21.237 134.016 21.0979 133.869 21.0097C133.758 20.9428 133.815 20.9529 133.874 21.0596C133.93 21.1628 133.849 21.105 133.853 20.6706L123.876 21.3449C123.839 25.2627 125.55 28.081 128.286 29.7207C130.561 31.0843 133.312 31.4622 135.067 31.6881L137.074 21.7452ZM133.853 20.6706C133.857 20.267 133.937 20.0846 133.965 20.0299C133.992 19.9753 134.047 19.8858 134.209 19.758C134.597 19.4536 135.547 18.9972 137.22 18.8842L137.312 8.88459C134.316 9.08708 131.085 9.97245 128.45 12.0409C125.61 14.2697 123.911 17.5411 123.876 21.3449L133.853 20.6706ZM137.22 18.8842C139.119 18.7558 140 19.1658 140.349 19.4251C140.632 19.6357 140.934 20.007 141.013 20.9094L150.953 19.2721C150.671 16.0817 149.308 13.1678 146.67 11.2074C144.098 9.29568 140.801 8.64888 137.312 8.88459L137.22 18.8842ZM146.029 15.091L141.121 15.4227L141.028 25.4223L145.937 25.0905L146.029 15.091ZM146.038 19.5451C145.825 17.4147 144.916 15.2605 142.822 13.9048C140.943 12.6892 138.799 12.5816 137.197 12.6898L137.105 22.6894C137.413 22.6685 137.53 22.689 137.514 22.6862C137.488 22.6818 137.265 22.6398 136.976 22.4522C136.663 22.2497 136.412 21.9676 136.253 21.67C136.109 21.3988 136.103 21.2316 136.11 21.2998L146.038 19.5451ZM137.197 12.6898C135.62 12.7964 133.697 13.2073 131.989 14.3879C130.04 15.7343 128.654 17.9297 128.629 20.544L138.607 19.8697C138.602 20.3171 138.483 20.874 138.169 21.4281C137.864 21.9677 137.483 22.3135 137.204 22.5058C136.73 22.8335 136.567 22.7258 137.105 22.6894L137.197 12.6898ZM128.629 20.544C128.611 22.4946 129.437 24.0949 130.697 25.1613C131.764 26.064 132.981 26.4522 133.756 26.6495C135.124 26.9975 137.267 27.1863 138.172 27.3118L140.271 17.3811C139.514 17.2762 138.618 17.1795 138.097 17.1151C137.457 17.0359 137.101 16.975 136.89 16.9214C136.626 16.8542 136.986 16.8931 137.458 17.2926C137.733 17.5253 138.05 17.8836 138.286 18.3909C138.525 18.9056 138.611 19.4246 138.607 19.8697L128.629 20.544ZM138.154 27.3093C139.002 27.43 139.665 27.5371 140.241 27.6815C140.813 27.8251 141.123 27.9648 141.278 28.0599C141.398 28.1328 141.367 28.1408 141.334 28.0788C141.304 28.023 141.401 28.149 141.397 28.6752L151.374 28.0009C151.411 23.9606 149.685 21.0752 146.931 19.3908C144.637 17.9874 141.874 17.6094 140.289 17.3837L138.154 27.3093ZM141.397 28.6752C141.394 28.9767 141.333 29.1288 141.299 29.1969C141.264 29.2678 141.189 29.3854 140.998 29.5402C140.577 29.8815 139.566 30.3978 137.75 30.5205L137.657 40.5201C140.949 40.2976 144.26 39.2826 146.893 37.1491C149.673 34.897 151.34 31.6601 151.374 28.0009L141.397 28.6752ZM147.348 17.3603L142.359 17.6974C142.334 20.4587 144.546 22.5463 147.302 22.3601L147.348 17.3603ZM147.381 13.7605L147.428 8.76067C144.672 8.94685 142.418 11.3363 142.393 14.0976L147.381 13.7605ZM150.215 13.569L150.168 18.5688C152.924 18.3826 155.178 15.9932 155.203 13.2319L150.215 13.569ZM150.274 7.16924L150.32 2.16946C147.565 2.35564 145.311 4.74505 145.286 7.50636L150.274 7.16924ZM155.582 6.81055L160.571 6.47343C160.596 3.71213 158.384 1.62458 155.628 1.81076L155.582 6.81055ZM155.523 13.2103L150.534 13.5474C150.508 16.3087 152.721 18.3962 155.476 18.2101L155.523 13.2103ZM159.035 12.9729L164.023 12.6358C164.049 9.87452 161.836 7.78698 159.081 7.97316L159.035 12.9729ZM159.001 16.5728L158.955 21.5726C161.71 21.3864 163.964 18.997 163.99 16.2357L159.001 16.5728ZM155.489 16.8101L155.536 11.8103C152.781 11.9965 150.526 14.3859 150.501 17.1472L155.489 16.8101ZM159.002 29.4441L163.99 29.107C164.003 27.7433 163.459 26.4764 162.485 25.5997C161.511 24.723 160.191 24.3126 158.831 24.4637L159.002 29.4441ZM158.965 33.444L159.24 38.4117C161.866 38.0646 163.929 35.7432 163.953 33.1069L158.965 33.444ZM150.181 17.1688L155.17 16.8317C155.196 14.0704 152.983 11.9828 150.228 12.169L150.181 17.1688ZM152.337 17.0232L152.37 13.4233L142.393 14.0976L142.359 17.6974L152.337 17.0232ZM147.335 18.7602L150.168 18.5688L150.261 8.56918L147.428 8.76067L147.335 18.7602ZM155.203 13.2319L155.263 6.83213L145.286 7.50636L145.226 13.9061L155.203 13.2319ZM150.228 12.169L155.536 11.8103L155.628 1.81076L150.32 2.16946L150.228 12.169ZM150.593 7.14767L150.534 13.5474L160.511 12.8732L160.571 6.47343L150.593 7.14767ZM155.476 18.2101L158.988 17.9727L159.081 7.97316L155.569 8.21049L155.476 18.2101ZM154.046 13.3101L154.013 16.9099L163.99 16.2357L164.023 12.6358L154.046 13.3101ZM159.048 11.573L155.536 11.8103L155.443 21.8099L158.955 21.5726L159.048 11.573ZM150.501 17.1472L150.4 28.0268L160.377 27.3525L160.478 16.473L150.501 17.1472ZM150.4 28.0268C150.384 29.6938 150.849 31.7536 152.594 33.202C154.226 34.557 156.153 34.6733 157.359 34.5918L157.451 24.5922C157.46 24.5917 158.372 24.5168 159.291 25.2803C160.324 26.1373 160.378 27.2055 160.377 27.3525L150.4 28.0268ZM157.359 34.5918C157.777 34.5635 158.239 34.5203 158.57 34.4875C158.741 34.4705 158.889 34.4551 158.994 34.4438C159.047 34.4382 159.09 34.4335 159.12 34.4302C159.136 34.4286 159.148 34.4273 159.156 34.4263C159.161 34.4258 159.164 34.4254 159.167 34.4251C159.168 34.425 159.169 34.4249 159.17 34.4248C159.171 34.4247 159.171 34.4247 159.171 34.4247C159.171 34.4246 159.172 34.4246 159.172 34.4246C159.172 34.4246 159.172 34.4246 159.172 34.4246C159.172 34.4246 159.172 34.4246 159.002 29.4441C158.831 24.4637 158.831 24.4637 158.831 24.4637C158.831 24.4637 158.832 24.4637 158.832 24.4637C158.832 24.4637 158.832 24.4637 158.832 24.4637C158.832 24.4637 158.832 24.4637 158.832 24.4637C158.832 24.4637 158.832 24.4637 158.831 24.4637C158.83 24.4638 158.829 24.464 158.826 24.4643C158.821 24.4649 158.813 24.4658 158.801 24.467C158.779 24.4695 158.745 24.4732 158.701 24.4778C158.613 24.4871 158.489 24.5001 158.346 24.5143C158.048 24.5439 157.711 24.5747 157.451 24.5922L157.359 34.5918ZM154.013 29.7813L153.976 33.7811L163.953 33.1069L163.99 29.107L154.013 29.7813ZM158.965 33.444C158.69 28.4763 158.69 28.4762 158.69 28.4762C158.69 28.4762 158.691 28.4762 158.691 28.4761C158.691 28.4761 158.691 28.476 158.692 28.476C158.692 28.4759 158.693 28.4759 158.693 28.4758C158.694 28.4757 158.695 28.4756 158.695 28.4756C158.695 28.4755 158.695 28.4756 158.693 28.4759C158.689 28.4763 158.681 28.4774 158.668 28.479C158.642 28.4823 158.597 28.4878 158.535 28.4951C158.41 28.5098 158.213 28.532 157.951 28.5588C157.425 28.6125 156.634 28.6848 155.618 28.7534L155.525 38.753C156.664 38.676 157.57 38.5937 158.202 38.5292C158.518 38.4969 158.766 38.4691 158.94 38.4485C159.028 38.4383 159.097 38.4298 159.147 38.4236C159.172 38.4204 159.192 38.4178 159.208 38.4158C159.215 38.4149 159.222 38.414 159.227 38.4133C159.23 38.413 159.232 38.4126 159.234 38.4124C159.235 38.4122 159.236 38.4121 159.237 38.412C159.238 38.4119 159.238 38.4119 159.238 38.4118C159.239 38.4118 159.239 38.4118 159.239 38.4118C159.239 38.4117 159.24 38.4117 158.965 33.444ZM155.618 28.7534C155.273 28.7767 155.007 28.7593 154.828 28.7275C154.65 28.6956 154.642 28.6645 154.726 28.7181C154.771 28.7471 154.833 28.7949 154.897 28.865C154.962 28.9363 155.011 29.0114 155.044 29.0783C155.116 29.2225 155.055 29.2084 155.058 28.8712L145.081 29.5454C145.05 32.9319 146.401 35.6767 148.913 37.2868C151.133 38.7097 153.689 38.8771 155.525 38.753L155.618 28.7534ZM155.058 28.8712L155.17 16.8317L145.193 17.5059L145.081 29.5454L155.058 28.8712ZM150.228 12.169L147.394 12.3605L147.302 22.3601L150.135 22.1686L150.228 12.169ZM161.639 33.3032L156.651 33.6403C156.625 36.4016 158.838 38.4892 161.593 38.303L161.639 33.3032ZM161.83 12.7841L161.876 7.78429C159.121 7.97048 156.867 10.3599 156.841 13.1212L161.83 12.7841ZM167.257 12.4173L172.246 12.0802C172.271 9.31887 170.059 7.23132 167.304 7.41751L167.257 12.4173ZM167.067 32.9364L167.021 37.9362C169.776 37.75 172.03 35.3606 172.056 32.5993L167.067 32.9364ZM161.859 9.58421L156.871 9.92133C156.845 12.6826 159.058 14.7702 161.813 14.584L161.859 9.58421ZM161.904 4.70442L161.951 -0.295363C159.196 -0.109179 156.941 2.28023 156.916 5.04154L161.904 4.70442ZM167.332 4.33764L172.321 4.00052C172.346 1.23922 170.134 -0.848331 167.378 -0.662146L167.332 4.33764ZM167.287 9.21743L167.241 14.2172C169.996 14.031 172.25 11.6416 172.275 8.88031L167.287 9.21743ZM166.628 32.9661L166.818 12.447L156.841 13.1212L156.651 33.6403L166.628 32.9661ZM161.783 17.7839L167.211 17.4171L167.304 7.41751L161.876 7.78429L161.783 17.7839ZM162.269 12.7544L162.078 33.2735L172.056 32.5993L172.246 12.0802L162.269 12.7544ZM167.113 27.9366L161.686 28.3034L161.593 38.303L167.021 37.9362L167.113 27.9366ZM166.848 9.2471L166.893 4.36731L156.916 5.04154L156.871 9.92133L166.848 9.2471ZM161.858 9.70421L167.286 9.33742L167.378 -0.662146L161.951 -0.295363L161.858 9.70421ZM162.343 4.67476L162.298 9.55455L172.275 8.88031L172.321 4.00052L162.343 4.67476ZM167.333 4.21764L161.906 4.58443L161.813 14.584L167.241 14.2172L167.333 4.21764ZM189.208 17.8893L189.161 22.8891C190.624 22.7902 192.019 22.0531 192.977 20.8726C193.935 19.6922 194.36 18.1873 194.139 16.7562L189.208 17.8893ZM183.9 18.248L178.999 19.5591C179.444 21.8646 181.476 23.4085 183.854 23.2478L183.9 18.248ZM184.121 24.5488L184.167 19.549C181.707 19.7153 179.598 21.6537 179.198 24.1153L184.121 24.5488ZM189.349 24.1955L194.317 24.271C194.444 22.8704 193.985 21.525 193.05 20.5607C192.115 19.5965 190.79 19.1015 189.395 19.1957L189.349 24.1955ZM180.103 27.6584C178.148 27.7906 176.884 27.1963 176.088 26.3895C175.255 25.5455 174.632 24.1531 174.65 22.1908L164.673 22.8651C164.634 27.0225 165.976 30.9137 168.739 33.7141C171.539 36.5517 175.501 37.9627 180.011 37.658L180.103 27.6584ZM174.65 22.1908C174.668 20.2132 175.319 18.7154 176.156 17.7526C176.951 16.8375 178.153 16.118 179.932 15.9978L180.025 5.9982C175.579 6.29867 171.651 8.28431 168.858 11.4991C166.106 14.6662 164.711 18.7229 164.673 22.8651L174.65 22.1908ZM179.932 15.9978C181.601 15.885 182.55 16.2887 183.083 16.7054C183.62 17.1256 184.093 17.8383 184.276 19.0224L194.139 16.7562C193.645 13.549 192.157 10.6367 189.577 8.61941C186.991 6.59856 183.665 5.75225 180.025 5.9982L179.932 15.9978ZM189.254 12.8895L183.946 13.2482L183.854 23.2478L189.161 22.8891L189.254 12.8895ZM188.801 16.9369C188.067 13.1336 184.873 10.0277 180.224 10.3418L180.131 20.3414C179.944 20.3541 179.619 20.2916 179.337 20.0614C179.085 19.8554 179.014 19.6381 178.999 19.5591L188.801 16.9369ZM180.224 10.3418C177.145 10.5499 174.346 12.0126 172.473 14.6497C170.763 17.0583 170.204 19.9076 170.18 22.4929L180.158 21.8186C180.164 21.1713 180.237 20.7049 180.319 20.3982C180.401 20.0931 180.474 20.0057 180.447 20.0437C180.406 20.1018 180.299 20.2152 180.143 20.3007C179.997 20.3806 179.96 20.353 180.131 20.3414L180.224 10.3418ZM170.18 22.4929C170.157 24.9889 170.614 27.7455 172.222 29.9374C174.006 32.3694 176.781 33.5191 179.931 33.3062L180.024 23.3067C179.856 23.318 179.915 23.2845 180.084 23.3572C180.261 23.434 180.374 23.5482 180.414 23.6026C180.438 23.6362 180.365 23.5508 180.289 23.241C180.213 22.9313 180.152 22.4652 180.158 21.8186L170.18 22.4929ZM179.931 33.3062C181.897 33.1734 184.041 32.5011 185.85 30.9099C187.691 29.2905 188.691 27.1541 189.043 24.9823L179.198 24.1153C179.181 24.2186 179.173 24.1804 179.238 24.0548C179.308 23.9205 179.43 23.7499 179.609 23.5923C179.991 23.2567 180.253 23.2912 180.024 23.3067L179.931 33.3062ZM184.074 29.5486L189.302 29.1953L189.395 19.1957L184.167 19.549L184.074 29.5486ZM184.381 24.1201C184.23 25.772 183.101 27.4558 180.103 27.6584L180.011 37.658C187.948 37.1216 193.668 31.3873 194.317 24.271L184.381 24.1201ZM75.1787 63.4897L75.2251 58.4899C72.4699 58.6761 70.2157 61.0655 70.1901 63.8268L75.1787 63.4897ZM80.3669 63.1391L85.3555 62.8019C85.3811 60.0406 83.1684 57.9531 80.4132 58.1393L80.3669 63.1391ZM87.6371 44.6998L87.6835 39.7C84.9283 39.8862 82.6741 42.2756 82.6485 45.0369L87.6371 44.6998ZM93.4239 44.3087L98.4126 43.9716C98.4382 41.2103 96.2254 39.1227 93.4703 39.3089L93.4239 44.3087ZM84.4603 69.0183C82.1804 69.1724 81.1999 68.7046 80.8421 68.4171C80.6115 68.2319 80.1249 67.7302 80.141 65.9924L70.1638 66.6667C70.128 70.5286 71.3189 74.0708 74.2555 76.4297C77.0648 78.6863 80.741 79.263 84.3676 79.0179L84.4603 69.0183ZM80.141 65.9924L80.1673 63.1525L70.1901 63.8268L70.1638 66.6667L80.141 65.9924ZM75.1324 68.4894L80.3205 68.1388L80.4132 58.1393L75.2251 58.4899L75.1324 68.4894ZM75.3783 63.4762L75.3553 65.9561L85.3325 65.2818L85.3555 62.8019L75.3783 63.4762ZM75.3553 65.9561C75.3358 68.0555 75.7829 70.5455 77.6667 72.3688C79.5777 74.2185 82.0478 74.4978 83.9321 74.3704L84.0248 64.3709C83.5545 64.4027 84.1939 64.246 84.8696 64.9C85.5181 65.5277 85.3253 66.0623 85.3325 65.2818L75.3553 65.9561ZM83.9321 74.3704C86.1219 74.2225 88.57 73.3671 90.3587 71.1604C92.0153 69.1166 92.4183 66.741 92.4356 64.8818L82.4583 65.556C82.4522 66.2167 82.2983 65.8374 82.8152 65.1997C83.0901 64.8606 83.4248 64.6193 83.7251 64.4809C83.996 64.3561 84.1305 64.3637 84.0248 64.3709L83.9321 74.3704ZM92.4356 64.8818L92.6258 44.3627L82.6485 45.0369L82.4583 65.556L92.4356 64.8818ZM87.5908 49.6996L93.3776 49.3085L93.4703 39.3089L87.6835 39.7L87.5908 49.6996ZM88.4353 44.6458L88.2448 65.205L98.222 64.5307L98.4126 43.9716L88.4353 44.6458ZM88.2448 65.205C88.2309 66.7023 87.7978 67.5218 87.4327 67.9287C87.1149 68.2827 86.3472 68.8908 84.4603 69.0183L84.3676 79.0179C88.3873 78.7462 92.0067 77.2191 94.6107 74.3178C97.1673 71.4692 98.1907 67.9132 98.222 64.5307L88.2448 65.205ZM106.474 67.6106C103.03 67.8434 100.789 65.6638 100.822 62.1565L90.8443 62.8308C90.7633 71.563 97.1348 78.2351 106.382 77.6102L106.474 67.6106ZM100.822 62.1565C100.854 58.6493 103.138 56.1639 106.583 55.9311L106.675 45.9315C97.4285 46.5564 90.9252 54.0985 90.8443 62.8308L100.822 62.1565ZM106.583 55.9311C110.027 55.6984 112.268 57.8779 112.235 61.3852L122.213 60.711C122.294 51.9788 115.922 45.3067 106.675 45.9315L106.583 55.9311ZM112.235 61.3852C112.203 64.8925 109.919 67.3779 106.474 67.6106L106.382 77.6102C115.629 76.9853 122.132 69.4432 122.213 60.711L112.235 61.3852ZM106.42 73.4504C109.582 73.2367 112.387 71.6893 114.271 69.0988C116.028 66.6815 116.68 63.7904 116.705 61.0831L106.728 61.7574C106.716 63.0499 106.4 63.5621 106.369 63.6041C106.366 63.609 106.379 63.5905 106.412 63.5607C106.446 63.5302 106.488 63.4996 106.533 63.4744C106.638 63.4167 106.658 63.441 106.513 63.4508L106.42 73.4504ZM116.705 61.0831C116.73 58.3759 116.131 55.5692 114.428 53.3823C112.604 51.0381 109.826 49.8359 106.637 50.0514L106.544 60.0509C106.678 60.0419 106.65 60.0673 106.544 60.0219C106.437 59.9758 106.387 59.9158 106.391 59.9214C106.433 59.975 106.74 60.4648 106.728 61.7574L116.705 61.0831ZM106.637 50.0514C103.443 50.2672 100.627 51.8371 98.751 54.4526C97.009 56.8811 96.3766 59.7737 96.3517 62.4586L106.329 61.7843C106.341 60.4694 106.658 59.9401 106.694 59.8901C106.698 59.8845 106.685 59.9036 106.65 59.9349C106.615 59.9669 106.571 59.9991 106.523 60.0259C106.414 60.0869 106.392 60.0612 106.544 60.0509L106.637 50.0514ZM96.3517 62.4586C96.3268 65.1434 96.9065 67.9539 98.6178 70.1457C100.46 72.5056 103.253 73.6644 106.42 73.4504L106.513 63.4508C106.349 63.4618 106.364 63.4316 106.47 63.4762C106.516 63.4958 106.561 63.522 106.597 63.5504C106.633 63.5782 106.648 63.5978 106.647 63.5962C106.624 63.5666 106.317 63.0994 106.329 61.7843L96.3517 62.4586ZM124.984 68.1986L129.239 65.2628C128.341 63.8626 126.75 63.0825 125.03 63.1988L124.984 68.1986ZM124.904 68.204L124.95 63.2042C122.195 63.3904 119.941 65.7798 119.915 68.5411L124.904 68.204ZM124.88 70.7638L124.834 75.7636C127.589 75.5774 129.843 73.188 129.869 70.4267L124.88 70.7638ZM119.652 71.1171L114.664 71.4543C114.638 74.2156 116.851 76.3031 119.606 76.1169L119.652 71.1171ZM119.917 42.5184L119.964 37.5186C117.208 37.7048 114.954 40.0942 114.929 42.8555L119.917 42.5184ZM125.345 42.1516L130.334 41.8145C130.359 39.0532 128.146 36.9656 125.391 37.1518L125.345 42.1516ZM125.247 52.7111L120.258 53.0483C120.233 55.8096 122.446 57.8971 125.201 57.7109L125.247 52.7111ZM125.367 52.703L125.32 57.7028C127.007 57.5888 128.588 56.6279 129.522 55.1488L125.367 52.703ZM131.107 65.946C130.4 65.9938 130.004 65.8727 129.795 65.7738C129.59 65.6764 129.407 65.5251 129.239 65.2628L120.729 71.1343C122.852 74.4445 126.51 76.25 131.014 75.9456L131.107 65.946ZM125.03 63.1988L124.95 63.2042L124.858 73.2037L124.937 73.1984L125.03 63.1988ZM119.915 68.5411L119.892 71.101L129.869 70.4267L129.893 67.8668L119.915 68.5411ZM124.927 65.7641L119.699 66.1174L119.606 76.1169L124.834 75.7636L124.927 65.7641ZM124.641 70.78L124.906 42.1813L114.929 42.8555L114.664 71.4543L124.641 70.78ZM119.871 47.5182L125.299 47.1514L125.391 37.1518L119.964 37.5186L119.871 47.5182ZM120.356 42.4887L120.258 53.0483L130.236 52.374L130.334 41.8145L120.356 42.4887ZM125.201 57.7109L125.32 57.7028L125.413 47.7033L125.293 47.7114L125.201 57.7109ZM129.522 55.1488C129.749 54.7887 129.937 54.6241 130.069 54.5386C130.178 54.4678 130.447 54.3184 131.056 54.2773L131.148 44.2777C126.4 44.5986 123.145 47.1938 121.212 50.2573L129.522 55.1488ZM131.056 54.2773C132.565 54.1753 134.875 55.2422 134.833 59.8581L144.81 59.1839C144.886 51.0004 139.935 43.6839 131.148 44.2777L131.056 54.2773ZM134.833 59.8581C134.81 62.3359 134.14 63.8842 133.503 64.7049C132.942 65.4279 132.209 65.8716 131.107 65.946L131.014 75.9456C135.061 75.6721 138.677 73.7233 141.194 70.4808C143.634 67.336 144.771 63.3458 144.81 59.1839L134.833 59.8581ZM129.859 71.4667C132.848 71.2647 135.507 69.7366 137.226 67.1515C138.775 64.8239 139.279 62.0825 139.303 59.5561L129.325 60.2303C129.319 60.903 129.247 61.3849 129.169 61.7003C129.089 62.0172 129.021 62.097 129.061 62.0369C129.115 61.956 129.262 61.7795 129.517 61.6312C129.634 61.563 129.741 61.5198 129.827 61.4944C129.91 61.4697 129.956 61.4668 129.952 61.4671L129.859 71.4667ZM139.303 59.5561C139.325 57.0968 138.876 54.4167 137.39 52.2633C135.744 49.8772 133.077 48.5444 129.87 48.7611L129.778 58.7607C129.794 58.7596 129.632 58.7683 129.404 58.6604C129.18 58.5541 129.07 58.4185 129.049 58.3872C129.039 58.3731 129.118 58.4846 129.195 58.8114C129.272 59.135 129.331 59.6035 129.325 60.2303L139.303 59.5561ZM129.87 48.7611C126.569 48.9842 123.745 50.6369 121.996 53.439C120.475 55.8737 120.087 58.663 120.065 60.976L130.043 60.3018C130.049 59.6183 130.112 59.1007 130.195 58.7344C130.278 58.364 130.357 58.2482 130.335 58.2849C130.292 58.3529 130.155 58.5258 129.92 58.6653C129.695 58.7985 129.597 58.7729 129.778 58.7607L129.87 48.7611ZM120.065 60.976C120.041 63.6305 120.673 66.3343 122.394 68.4136C124.214 70.6127 126.899 71.6667 129.859 71.4667L129.952 61.4671C129.86 61.4733 129.908 61.4548 130.027 61.5031C130.15 61.553 130.232 61.6267 130.264 61.6658C130.309 61.7198 130.032 61.4071 130.043 60.3018L120.065 60.976ZM144.33 61.0951L139.366 61.973C139.618 64.4905 141.738 66.2669 144.283 66.0949L144.33 61.0951ZM142.942 47.2782L137.954 47.6153C137.952 47.7966 137.96 47.9771 137.978 48.156L142.942 47.2782ZM143.001 40.9584L143.047 35.9587C140.292 36.1448 138.038 38.5343 138.012 41.2956L143.001 40.9584ZM148.668 40.5755L153.657 40.2384C153.682 37.4771 151.469 35.3895 148.714 35.5757L148.668 40.5755ZM148.609 46.8952L153.563 47.1028C153.585 46.9212 153.596 46.7394 153.598 46.5581L148.609 46.8952ZM146.964 60.9171L146.917 65.9169C149.463 65.7449 151.618 63.6796 151.918 61.1247L146.964 60.9171ZM142.656 69.5626L137.667 69.8997C137.642 72.661 139.854 74.7486 142.61 74.5624L142.656 69.5626ZM142.71 63.7629L142.756 58.7631C140.001 58.9493 137.747 61.3387 137.721 64.1L142.71 63.7629ZM148.536 63.3691L153.525 63.032C153.551 60.2707 151.338 58.1831 148.583 58.3693L148.536 63.3691ZM148.483 69.1689L148.436 74.1686C151.191 73.9825 153.446 71.5931 153.471 68.8317L148.483 69.1689ZM149.294 60.2172L147.906 46.4003L137.978 48.156L139.366 61.973L149.294 60.2172ZM147.931 46.9411L147.99 40.6213L138.012 41.2956L137.954 47.6153L147.931 46.9411ZM142.955 45.9582L148.622 45.5753L148.714 35.5757L143.047 35.9587L142.955 45.9582ZM143.679 40.9126L143.621 47.2323L153.598 46.5581L153.657 40.2384L143.679 40.9126ZM143.655 46.6876L142.01 60.7095L151.918 61.1247L153.563 47.1028L143.655 46.6876ZM147.01 55.9173L144.376 56.0953L144.283 66.0949L146.917 65.9169L147.01 55.9173ZM147.645 69.2255L147.698 63.4257L137.721 64.1L137.667 69.8997L147.645 69.2255ZM142.663 68.7627L148.49 68.3689L148.583 58.3693L142.756 58.7631L142.663 68.7627ZM143.548 63.7062L143.494 69.506L153.471 68.8317L153.525 63.032L143.548 63.7062ZM148.529 64.1691L142.702 64.5628L142.61 74.5624L148.436 74.1686L148.529 64.1691Z" fill="white" mask="url(#path-4-outside-1_527_1580)"/>
</svg>
