<svg width="203" height="106" viewBox="0 0 203 106" fill="none" xmlns="http://www.w3.org/2000/svg">
<g clip-path="url(#clip0_314_5233)">
<path d="M78.9288 78.9472L101.517 92.4086L111.747 75.6632C108.195 74.9641 103.416 75.2405 96.181 75.907C88.1114 76.6386 81.9406 76.8175 78.9124 78.9472H78.9288Z" fill="white"/>
<path d="M98.9146 106C98.5054 106 98.0962 106 97.687 105.951C84.134 104.829 70.3846 104.26 56.7825 104.26H55.5549C42.3784 104.293 29.0546 104.862 15.9435 105.951C15.5343 105.984 15.1251 106 14.7159 106C9.82177 106 5.2059 103.578 2.45602 99.4807C-0.523013 95.0423 -0.834011 89.3522 1.63761 84.6374L33.0648 24.4841C35.2745 20.2408 39.4484 17.3307 44.228 16.7129C52.6413 15.6236 61.2183 14.9408 69.6807 14.7132C71.9396 14.6482 74.1493 14.6319 76.3263 14.6319C82.0552 14.6319 87.8169 14.827 93.5458 15.2334L95.6082 10.8601C97.687 6.45429 101.828 3.3816 106.657 2.61748C110.045 2.08098 113.482 1.62577 116.92 1.25184C124.318 0.422699 133.583 0 143.698 0C149.804 0 156.253 0.162577 162.882 0.471472C171.786 0.894172 180.854 1.57699 189.824 2.5362C194.653 3.04018 198.909 5.88528 201.217 10.1285C203.525 14.3718 203.59 19.4604 201.364 23.7525L167.367 89.6773C164.797 94.6684 159.657 97.6436 154.256 97.6436C152.783 97.6436 151.293 97.4322 149.836 96.9607C138.362 93.3678 126.446 91.2055 114.448 90.5064C114.17 90.5064 113.892 90.4739 113.597 90.4577C113.712 92.2623 113.482 94.1157 112.893 95.9202C110.896 101.968 105.216 106 98.8982 106H98.9146Z" fill="white"/>
<path d="M46.143 31.231L14.7322 91.3681C27.3522 90.3276 41.0033 89.6773 55.5384 89.6285C71.0556 89.596 85.5579 90.2626 98.9145 91.3681C91.6797 86.9785 84.4613 82.5727 77.2265 78.1831C85.6889 76.6712 96.4265 75.4193 108.866 75.6469C110.978 75.6794 113.122 75.7607 115.332 75.8908C131.193 76.8175 144.435 79.9227 154.289 82.9954C165.615 61.015 176.959 39.0509 188.286 17.0705C177.859 15.965 168.971 15.396 162.211 15.0709C136.611 13.8678 122.027 15.396 118.589 15.7862C114.563 16.2251 111.256 16.7129 108.981 17.0705C106.837 21.6227 104.676 26.1748 102.532 30.727C92.9892 29.654 82.1042 29.0199 70.1226 29.3451C61.4638 29.5727 53.4596 30.2718 46.1757 31.2147L46.143 31.231Z" fill="white"/>
<path d="M98.9146 106C98.5054 106 98.0962 106 97.687 105.951C84.134 104.829 70.3846 104.26 56.7825 104.26H55.5549C42.3784 104.293 29.0546 104.862 15.9435 105.951C15.5343 105.984 15.1251 106 14.7159 106C9.82177 106 5.2059 103.578 2.45602 99.4807C-0.523013 95.0423 -0.834011 89.3522 1.63761 84.6374L33.0648 24.4841C35.2745 20.2408 39.4484 17.3307 44.228 16.7129C52.6413 15.6236 61.2183 14.9408 69.6807 14.7132C71.9396 14.6482 74.1493 14.6319 76.3263 14.6319C82.0552 14.6319 87.8169 14.827 93.5458 15.2334L95.6082 10.8601C97.687 6.45429 101.828 3.3816 106.657 2.61748C110.045 2.08098 113.482 1.62577 116.92 1.25184C124.318 0.422699 133.583 0 143.698 0C149.804 0 156.253 0.162577 162.882 0.471472C171.786 0.894172 180.854 1.57699 189.824 2.5362C194.653 3.04018 198.909 5.88528 201.217 10.1285C203.525 14.3718 203.59 19.4604 201.364 23.7525L167.367 89.6773C164.797 94.6684 159.657 97.6436 154.256 97.6436C152.783 97.6436 151.293 97.4322 149.836 96.9607C138.362 93.3678 126.446 91.2055 114.448 90.5064C114.17 90.5064 113.892 90.4739 113.597 90.4577C113.712 92.2623 113.482 94.1157 112.893 95.9202C110.896 101.968 105.216 106 98.8982 106H98.9146Z" fill="white"/>
<path d="M46.143 31.231L14.7322 91.3681C27.3522 90.3276 41.0033 89.6773 55.5384 89.6285C71.0556 89.596 85.5579 90.2626 98.9145 91.3681C91.6797 86.9785 84.4613 82.5727 77.2265 78.1831C85.6889 76.6712 96.4265 75.4193 108.866 75.6469C110.978 75.6794 113.122 75.7607 115.332 75.8908C131.193 76.8175 144.435 79.9227 154.289 82.9954C165.615 61.015 176.959 39.0509 188.286 17.0705C177.859 15.965 168.971 15.396 162.211 15.0709C136.611 13.8678 122.027 15.396 118.589 15.7862C114.563 16.2251 111.256 16.7129 108.981 17.0705C106.837 21.6227 104.676 26.1748 102.532 30.727C92.9892 29.654 82.1042 29.0199 70.1226 29.3451C61.4638 29.5727 53.4596 30.2718 46.1757 31.2147L46.143 31.231Z" fill="white"/>
<path d="M80.762 86.0518C78.4377 86.0518 76.0807 85.4991 73.871 84.3448C66.6853 80.5567 63.9354 71.7126 67.7492 64.5592L89.4536 23.8662C93.2674 16.7291 102.172 13.9978 109.374 17.7859C116.56 21.5739 119.309 30.4343 115.496 37.5715L93.7912 78.2644C91.1395 83.223 86.049 86.0518 80.762 86.0518Z" fill="white"/>
<path d="M80.7784 71.4199C88.0132 57.861 95.248 44.3021 102.483 30.727L80.7784 71.4199Z" fill="white"/>
<path d="M99.1928 105.171C96.5902 105.171 93.9386 104.521 91.5488 103.171C84.5922 99.2531 82.3825 90.8316 86.6219 84.3773L96.6393 69.0951C100.862 62.6408 109.93 60.5923 116.887 64.5104C123.843 68.4285 126.053 76.85 121.814 83.3043L111.796 98.5865C109.03 102.83 104.169 105.155 99.1928 105.155V105.171Z" fill="white"/>
<path d="M77.6848 77.7279L100.273 91.1893L110.503 74.4439C106.951 73.7448 102.172 74.0212 94.937 74.6877C86.8675 75.4193 80.6966 75.5982 77.6685 77.7279H77.6848Z" fill="#050606"/>
<path d="M44.899 30.0117L13.4882 90.1488C26.1082 89.1083 39.7594 88.458 54.2945 88.4092C69.8116 88.3767 84.314 89.0433 97.6705 90.1488C90.4357 85.7592 83.2173 81.3534 75.9825 76.9638C84.4449 75.4519 95.1825 74.2 107.622 74.4276C109.734 74.4601 111.878 74.5414 114.088 74.6715C129.949 75.5982 143.191 78.7034 153.045 81.7761C164.371 59.7957 175.715 37.8316 187.042 15.8512C176.615 14.7457 167.727 14.1767 160.967 13.8516C135.367 12.6485 120.783 14.1767 117.345 14.5669C113.319 15.0058 110.012 15.4936 107.737 15.8512C105.593 20.4034 103.432 24.9555 101.288 29.5077C91.7452 28.4347 80.8603 27.8006 68.8786 28.1258C60.2198 28.3534 52.2157 29.0525 44.9318 29.9954L44.899 30.0117Z" fill="white"/>
<path d="M44.899 30.0117L13.4882 90.1488C26.1082 89.1083 39.7594 88.458 54.2945 88.4092C69.8116 88.3767 84.314 89.0433 97.6705 90.1488C90.4357 85.7592 83.2173 81.3534 75.9825 76.9638C84.4449 75.4519 95.1825 74.2 107.622 74.4276C109.734 74.4601 111.878 74.5414 114.088 74.6715C129.949 75.5982 143.191 78.7034 153.045 81.7761C164.371 59.7957 175.715 37.8316 187.042 15.8512C176.615 14.7457 167.727 14.1767 160.967 13.8516C135.367 12.6485 120.783 14.1767 117.345 14.5669C113.319 15.0058 110.012 15.4936 107.737 15.8512C105.593 20.4034 103.432 24.9555 101.288 29.5077C91.7452 28.4347 80.8603 27.8006 68.8786 28.1258C60.2198 28.3534 52.2157 29.0525 44.9318 29.9954L44.899 30.0117Z" stroke="#050606" stroke-width="1.07" stroke-miterlimit="10"/>
<path d="M79.5344 70.2006C86.7692 56.6417 94.004 43.0828 101.239 29.5077" stroke="#050606" stroke-width="1.07" stroke-miterlimit="10"/>
<path d="M110.52 74.5089L100.502 90.8479" stroke="#050606" stroke-width="1.07" stroke-miterlimit="10"/>
<path d="M34.4724 49.9761C36.9277 49.212 62.6423 46.123 70.1226 47.1472C72.6434 40.7905 75.1641 34.4175 77.6848 28.0607L44.899 30.0116C41.429 36.661 37.9425 43.3267 34.4724 49.9761Z" fill="#231F20" stroke="#050606" stroke-width="1.07" stroke-miterlimit="10"/>
<path d="M23.9475 69.1602C26.8938 68.4611 30.0365 67.8433 33.3429 67.3393C44.0315 65.746 53.656 65.9411 61.7256 66.8191C58.6156 74.0212 55.522 81.2071 52.412 88.4092L13.5045 90.1488C16.991 83.158 20.4774 76.1672 23.9475 69.1602Z" fill="#231F20"/>
<path d="M71.2193 48.6267L63.1006 65.9737L81.1058 67.2743L90.403 49.8623C87.3258 49.3258 83.8721 48.8869 80.0746 48.6755C76.8828 48.4967 73.9201 48.5129 71.2357 48.643L71.2193 48.6267Z" fill="#231F20" stroke="#050606" stroke-width="1.07" stroke-miterlimit="10"/>
<path d="M98.1943 37.1325L87.8986 55.1623H122.567L133.141 37.1325H98.1943Z" fill="#231F20" stroke="#050606" stroke-width="1.07" stroke-miterlimit="10"/>
<path d="M147.97 13.4614L135.841 35.6043L175.125 38.9534L187.025 15.8675L147.97 13.4614Z" fill="#231F20" stroke="#050606" stroke-width="1.07" stroke-miterlimit="10"/>
<path d="M122.567 55.1623L111.993 74.0537L153.028 81.7924C156.858 74.3463 160.705 66.9003 164.535 59.4706C150.54 58.0399 136.545 56.6092 122.567 55.1785V55.1623Z" fill="#231F20" stroke="#050606" stroke-width="1.07" stroke-miterlimit="10"/>
</g>
<defs>
<clipPath id="clip0_314_5233">
<rect width="203" height="106" fill="white"/>
</clipPath>
</defs>
</svg>
