<svg width="155" height="114" viewBox="0 0 155 114" fill="none" xmlns="http://www.w3.org/2000/svg">
<path d="M51.2483 74.5568C51.1702 74.7316 51.1988 74.9356 51.3219 75.0822C51.445 75.2288 51.641 75.2923 51.8267 75.2456L62.3158 72.6096L69.0252 81.1783C69.1447 81.3309 69.3417 81.4007 69.5307 81.3573C69.7197 81.3139 69.8666 81.1652 69.9075 80.9757L76.1891 51.9225C76.2305 51.731 76.1563 51.533 75.9992 51.4159L72.3559 48.7007C72.2695 48.6364 72.1648 48.6016 72.0571 48.6016H65.6533L64.4211 46.9069C64.3161 46.7625 64.1422 46.6851 63.9647 46.7036C63.7871 46.7222 63.633 46.834 63.5602 46.997L51.2483 74.5568Z" fill="#CDD1EB" stroke="#CDD1EB" stroke-linejoin="round"/>
<path d="M103.752 74.5568C103.83 74.7316 103.801 74.9356 103.678 75.0822C103.555 75.2288 103.359 75.2923 103.173 75.2456L92.6842 72.6096L85.9748 81.1783C85.8553 81.3309 85.6583 81.4007 85.4693 81.3573C85.2803 81.3139 85.1334 81.1652 85.0925 80.9757L78.8109 51.9225C78.7695 51.731 78.8437 51.533 79.0008 51.4159L82.6441 48.7007C82.7305 48.6364 82.8352 48.6016 82.9429 48.6016H89.3467L90.5789 46.9069C90.6839 46.7625 90.8578 46.6851 91.0353 46.7036C91.2129 46.7222 91.367 46.834 91.4398 46.997L103.752 74.5568Z" fill="#CDD1EB" stroke="#CDD1EB" stroke-linejoin="round"/>
<path d="M50.505 27.9614L54.4342 21.7454V14.662L60.4007 11.3371L63.7478 5.26567H71.0241L77.1362 1.50714L83.9759 5.26567H90.9611L94.3082 10.9035L101.293 14.662L100.857 21.7454L104.495 27.9614" stroke="#D6D8E9" stroke-width="3" stroke-linejoin="round"/>
<path d="M50.505 26.759L54.4342 32.975V40.0584L60.4007 43.3832L63.7478 49.4547H71.0241L77.1362 53.2133L83.9759 49.4547H90.9611L94.3082 43.8169L101.293 40.0584L100.857 32.975L104.495 26.759" stroke="#D6D8E9" stroke-width="3" stroke-linejoin="round"/>
<path d="M78.0999 47.796C89.0397 47.796 97.8968 38.9094 97.8968 27.9614C97.8968 17.0135 89.0397 8.12689 78.0999 8.12689C67.16 8.12689 58.303 17.0135 58.303 27.9614C58.303 38.9094 67.16 47.796 78.0999 47.796Z" stroke="#D6D8E9" stroke-width="6"/>
<ellipse cx="78.0999" cy="27.9614" rx="15.5971" ry="15.6321" fill="#D6D8E9"/>
<path d="M60.0729 11.439L61.7815 9.04163L66.5654 13.4938C65.882 13.608 64.3784 14.1103 63.8317 15.2062C63.1483 16.5761 60.4146 20.0008 60.0729 20.6858C59.7312 21.3707 58.7061 26.1654 58.7061 26.8503C58.7061 27.5353 61.098 37.8095 61.7815 38.152C62.4649 38.4945 74.083 46.3714 74.7664 46.7139C75.3131 46.9878 82.7396 45.9148 86.3845 45.344L90.1433 49.4537H87.7513L83.6508 49.7961L82.284 50.4811L79.5503 51.5085L76.8166 52.8784L74.083 51.5085C73.5362 51.2345 72.9439 50.4811 72.7161 50.1386C71.691 49.9103 69.3674 49.3852 68.2739 49.1112C66.9071 48.7687 64.8568 49.1112 63.8317 49.1112C63.0116 49.1112 62.5788 47.9696 62.4649 47.3988L61.098 45.344L59.7312 42.9466L57.3392 41.5767L54.2639 39.1794L54.9473 33.3573L51.1885 27.5353L54.2639 22.7406V20.0008L54.9473 14.5212L60.0729 11.439Z" fill="#D6D8E9"/>
<path d="M95.4374 42.66L93.7925 45.1016L88.8931 40.7775C89.5733 40.6453 91.063 40.1035 91.5807 38.9935C92.2278 37.606 94.8704 34.1101 95.194 33.4164C95.5175 32.7226 96.4161 27.9025 96.398 27.2178C96.38 26.5331 93.7184 16.3257 93.0262 16.0014C92.334 15.6771 80.5126 8.11017 79.8204 7.78589C79.2667 7.52646 71.871 8.79556 68.2424 9.46253L64.3767 5.45366L66.7679 5.39041L70.8579 4.93962L72.2063 4.21876L74.9119 3.11941L77.6086 1.6777L80.3774 2.97483C80.9311 3.23426 81.543 3.97178 81.7798 4.30812C82.8106 4.50925 85.1472 4.97275 86.2475 5.21772C87.6229 5.52393 89.6634 5.12736 90.6882 5.10025C91.508 5.07856 91.9707 6.2083 92.0996 6.77588L93.5201 8.79387L94.9495 11.1542L97.3767 12.4604L100.514 14.7756L99.9842 20.6137L103.895 26.3343L100.947 31.2086L101.019 33.9475L100.48 39.4432L95.4374 42.66Z" fill="#D6D8E9"/>
<rect width="6.84598" height="6.83771" transform="matrix(0.478854 -0.877895 0.87699 0.480508 60.9027 11.0891)" fill="#D6D8E9"/>
<rect width="8.01002" height="4.97769" transform="matrix(0.478854 -0.877895 0.87699 0.480508 86.7262 47.9292)" fill="#D6D8E9"/>
<path d="M77.1568 37.6757C73.5088 37.6757 70.8448 35.7557 70.5328 32.5637H73.7488C74.0368 34.1717 75.3808 34.9397 77.0848 34.9397C78.9568 34.9397 80.1328 33.5957 80.1328 31.8437C80.1328 29.8997 78.8128 28.8197 77.0848 28.8197C75.8368 28.8197 74.8768 29.2997 74.3968 29.8517H71.2528L72.8368 20.8757H82.5328V23.5877H75.1168L74.4928 27.1397H74.5408C75.2608 26.5157 76.4368 26.1077 77.9488 26.1077C80.8528 26.1077 83.5168 28.2917 83.5168 31.8437C83.5168 35.2757 80.7568 37.6757 77.1568 37.6757Z" fill="white"/>
<path d="M4.304 110.87V106.022L0.16 99.43H1.76L5.04 104.87H5.072L8.4 99.43H9.936L5.744 106.054V110.87H4.304ZM12.666 111.094C10.202 111.094 8.666 109.142 8.666 106.742C8.666 104.342 10.202 102.39 12.666 102.39C15.146 102.39 16.65 104.342 16.65 106.742C16.65 109.142 15.146 111.094 12.666 111.094ZM12.666 110.006C14.426 110.006 15.322 108.566 15.322 106.742C15.322 104.918 14.426 103.462 12.666 103.462C10.906 103.462 9.994 104.918 9.994 106.742C9.994 108.566 10.906 110.006 12.666 110.006ZM24.5025 110.87H23.2065V109.734H23.1745C22.5825 110.534 21.8785 111.062 20.6785 111.062C18.9825 111.062 17.8945 110.038 17.8945 108.326V102.598H19.1905V108.294C19.1905 109.366 19.8785 109.99 21.0465 109.99C22.3585 109.99 23.2065 108.998 23.2065 107.686V102.598H24.5025V110.87ZM33.1539 111.094C29.9379 111.094 28.4019 109.302 28.2739 106.998H29.6819C29.8739 108.934 31.0579 109.942 33.2179 109.942C34.8019 109.942 35.9379 109.222 35.9379 107.798C35.9379 106.23 34.5619 105.862 32.5139 105.414C30.4979 104.966 28.7699 104.39 28.7699 102.23C28.7699 100.342 30.3379 99.206 32.6579 99.206C35.5219 99.206 36.7059 100.662 36.9939 102.774H35.6339C35.4259 101.142 34.3699 100.326 32.6899 100.326C31.1379 100.326 30.1139 100.982 30.1139 102.166C30.1139 103.462 31.3939 103.846 33.1059 104.182C35.3299 104.63 37.3619 105.174 37.3619 107.75C37.3619 109.894 35.6179 111.094 33.1539 111.094ZM42.3535 111.094C39.8895 111.094 38.3535 109.142 38.3535 106.742C38.3535 104.342 39.8895 102.39 42.3535 102.39C44.3055 102.39 45.6015 103.51 45.8895 105.27H44.5775C44.3855 104.15 43.6015 103.462 42.3535 103.462C40.5935 103.462 39.6815 104.918 39.6815 106.742C39.6815 108.566 40.5935 110.006 42.3535 110.006C43.6975 110.006 44.4975 109.238 44.6095 107.958H45.8895C45.7135 109.942 44.4175 111.094 42.3535 111.094ZM50.6504 111.094C48.1864 111.094 46.6504 109.142 46.6504 106.742C46.6504 104.342 48.1864 102.39 50.6504 102.39C53.1304 102.39 54.6344 104.342 54.6344 106.742C54.6344 109.142 53.1304 111.094 50.6504 111.094ZM50.6504 110.006C52.4104 110.006 53.3064 108.566 53.3064 106.742C53.3064 104.918 52.4104 103.462 50.6504 103.462C48.8904 103.462 47.9784 104.918 47.9784 106.742C47.9784 108.566 48.8904 110.006 50.6504 110.006ZM57.2229 102.598V103.974H57.2549C57.7509 103.174 58.6149 102.502 59.7189 102.502C59.9589 102.502 60.0869 102.534 60.2469 102.598V103.846H60.1989C60.0069 103.782 59.8789 103.766 59.6229 103.766C58.3429 103.766 57.2229 104.726 57.2229 106.278V110.87H55.9269V102.598H57.2229ZM64.6348 111.094C62.1068 111.094 60.6348 109.142 60.6348 106.742C60.6348 104.342 62.2028 102.39 64.5548 102.39C67.0348 102.39 68.3628 104.31 68.3628 107.046H61.9628C62.0588 108.726 62.9708 110.006 64.6348 110.006C65.8348 110.006 66.6348 109.43 66.9228 108.31H68.1868C67.8028 110.086 66.5068 111.094 64.6348 111.094ZM64.5548 103.414C63.0188 103.414 62.1868 104.566 61.9948 106.07H66.9708C66.8908 104.422 66.0428 103.414 64.5548 103.414ZM72.83 111.11C70.574 111.11 69.166 109.414 69.166 106.758C69.166 104.006 70.75 102.406 72.798 102.406C73.966 102.406 74.862 102.982 75.39 103.766H75.422V99.43H76.718V110.87H75.422V109.862H75.39C74.766 110.662 73.998 111.11 72.83 111.11ZM72.878 110.022C74.718 110.022 75.502 108.646 75.502 106.774C75.502 104.854 74.574 103.51 72.862 103.51C71.294 103.51 70.494 104.918 70.494 106.774C70.494 108.646 71.294 110.022 72.878 110.022ZM81.2126 110.87V99.43H88.9726V100.694H82.6526V104.262H87.9166V105.478H82.6526V110.87H81.2126ZM90.2706 110.87V102.598H91.5666V110.87H90.2706ZM90.2706 101.03V99.43H91.5666V101.03H90.2706ZM92.8051 103.654V102.598H93.9411V101.27C93.9411 99.846 94.7571 99.334 96.1331 99.334C96.4051 99.334 96.6131 99.35 96.7891 99.366V100.47C96.5651 100.454 96.5011 100.454 96.3731 100.454C95.5411 100.454 95.2371 100.662 95.2371 101.334V102.598H96.7731V103.654H95.2371V110.87H93.9411V103.654H92.8051ZM97.352 103.654V102.598H98.552V99.99H99.848V102.598H101.448V103.654H99.848V109.03C99.848 109.606 100.152 109.798 100.68 109.798C100.936 109.798 101.224 109.734 101.368 109.686H101.416V110.806C101.112 110.87 100.76 110.918 100.376 110.918C99.32 110.918 98.552 110.486 98.552 109.318V103.654H97.352ZM104.082 99.43V103.686H104.114C104.706 102.902 105.538 102.406 106.738 102.406C108.466 102.406 109.522 103.35 109.522 105.062V110.87H108.226V105.174C108.226 104.102 107.522 103.494 106.354 103.494C105.042 103.494 104.082 104.422 104.082 105.782V110.87H102.786V99.43H104.082ZM113.978 110.87V99.43H118.746C119.946 99.43 120.874 99.83 121.466 100.534C121.946 101.094 122.234 101.846 122.234 102.71C122.234 104.806 121.034 106.07 118.538 106.07H115.418V110.87H113.978ZM115.418 100.678V104.902H118.426C120.042 104.902 120.81 104.086 120.81 102.774C120.81 101.398 119.962 100.678 118.506 100.678H115.418ZM123.475 110.87V99.43H124.771V110.87H123.475ZM133.079 110.95C132.231 110.95 131.783 110.566 131.655 109.718H131.639C131.143 110.358 130.295 111.03 128.887 111.03C127.319 111.03 126.087 110.294 126.087 108.726C126.087 106.774 127.623 106.374 129.687 106.054C130.855 105.878 131.671 105.766 131.671 104.87C131.671 103.942 130.999 103.414 129.815 103.414C128.471 103.414 127.799 103.99 127.751 105.238H126.503C126.551 103.638 127.607 102.438 129.799 102.438C131.559 102.438 132.855 103.094 132.855 105.062V108.998C132.855 109.67 133.015 110.038 133.735 109.878H133.783V110.822C133.623 110.886 133.415 110.95 133.079 110.95ZM129.175 110.038C130.903 110.038 131.687 108.774 131.687 107.814V106.406C131.255 106.678 130.503 106.886 129.799 107.014C128.503 107.254 127.463 107.478 127.463 108.694C127.463 109.798 128.327 110.038 129.175 110.038ZM138.275 111.094C135.811 111.094 134.275 109.142 134.275 106.742C134.275 104.342 135.811 102.39 138.275 102.39C140.227 102.39 141.523 103.51 141.811 105.27H140.499C140.307 104.15 139.523 103.462 138.275 103.462C136.515 103.462 135.603 104.918 135.603 106.742C135.603 108.566 136.515 110.006 138.275 110.006C139.619 110.006 140.419 109.238 140.531 107.958H141.811C141.635 109.942 140.339 111.094 138.275 111.094ZM146.572 111.094C144.044 111.094 142.572 109.142 142.572 106.742C142.572 104.342 144.14 102.39 146.492 102.39C148.972 102.39 150.3 104.31 150.3 107.046H143.9C143.996 108.726 144.908 110.006 146.572 110.006C147.772 110.006 148.572 109.43 148.86 108.31H150.124C149.74 110.086 148.444 111.094 146.572 111.094ZM146.492 103.414C144.956 103.414 144.124 104.566 143.932 106.07H148.908C148.828 104.422 147.98 103.414 146.492 103.414ZM152.208 108.102L151.856 103.094V99.43H153.28V103.094L152.928 108.102H152.208ZM151.792 110.87V109.286H153.344V110.87H151.792Z" fill="#010101"/>
</svg>
