<svg width="97" height="92" viewBox="0 0 97 92" fill="none" xmlns="http://www.w3.org/2000/svg">
<rect x="-3" y="3" width="91" height="86" rx="10" transform="matrix(-1 0 0 1 91 0)" fill="#127BC0" stroke="white" stroke-width="6" stroke-linejoin="round"/>
<rect width="14.0317" height="24.7619" rx="3" transform="matrix(-1 0 0 1 68.0932 47.2383)" fill="white"/>
<rect width="13.9959" height="24.4928" rx="3" transform="matrix(-1 0 0 1 44.1567 47.2381)" fill="white"/>
<rect width="11.5556" height="12.381" transform="matrix(-1 0 0 1 54.8868 47.2381)" fill="white"/>
<path d="M51.5732 22.5467C50.379 21.1943 48.2698 21.1943 47.0756 22.5467L27.4651 44.7555C25.7548 46.6924 27.13 49.7412 29.7139 49.7412H68.9349C71.5187 49.7412 72.8939 46.6924 71.1837 44.7555L51.5732 22.5467Z" fill="white"/>
</svg>
