<svg width="140" height="72" viewBox="0 0 140 72" fill="none" xmlns="http://www.w3.org/2000/svg">
<path d="M54.4449 53.6245L70.0222 62.768L77.0771 51.3938C74.6277 50.9189 71.3316 51.1067 66.3423 51.5594C60.7774 52.0564 56.5219 52.1778 54.4336 53.6245H54.4449Z" fill="white"/>
<path d="M68.2266 72C67.9444 72 67.6622 72 67.38 71.9669C58.0336 71.2049 48.5517 70.8184 39.1715 70.8184H38.3249C29.2381 70.8405 20.0498 71.227 11.0081 71.9669C10.7259 71.989 10.4437 72 10.1615 72C6.78646 72 3.60326 70.3546 1.70689 67.5718C-0.347505 64.5571 -0.561976 60.692 1.1425 57.4896L22.8153 16.6307C24.3392 13.7485 27.2176 11.7718 30.5137 11.3521C36.3156 10.6123 42.2305 10.1485 48.0664 9.99387C49.6241 9.94969 51.148 9.93865 52.6492 9.93865C56.6 9.93865 60.5734 10.0712 64.5241 10.3472L65.9464 7.37669C67.38 4.38405 70.2358 2.29693 73.5658 1.77791C75.9024 1.4135 78.2728 1.10429 80.6433 0.850307C85.7454 0.287117 92.1344 0 99.1103 0C103.321 0 107.768 0.110429 112.34 0.320245C118.48 0.607362 124.734 1.07117 130.92 1.7227C134.25 2.06503 137.184 3.99755 138.776 6.87976C140.368 9.76196 140.413 13.2184 138.878 16.1337L115.433 60.9129C113.66 64.3031 110.116 66.3239 106.391 66.3239C105.375 66.3239 104.348 66.1804 103.343 65.8601C95.4304 63.4196 87.2128 61.9509 78.9388 61.4761C78.7469 61.4761 78.555 61.454 78.3518 61.4429C78.4308 62.6687 78.2728 63.9276 77.8664 65.1534C76.4893 69.2614 72.5724 72 68.2153 72H68.2266Z" fill="white"/>
<path d="M31.8334 21.2136L10.1719 62.0614C18.8749 61.3547 28.289 60.913 38.3126 60.8798C49.0136 60.8578 59.0147 61.3105 68.2256 62.0614C63.2364 59.0798 58.2584 56.0872 53.2691 53.1056C59.105 52.0786 66.5098 51.2283 75.0887 51.3829C76.5448 51.405 78.0235 51.4602 79.5474 51.5486C90.4854 52.178 99.6173 54.2872 106.413 56.3743C114.224 41.4443 122.046 26.5252 129.858 11.5952C122.667 10.8443 116.538 10.4578 111.876 10.2369C94.2217 9.41972 84.1641 10.4578 81.7937 10.7228C79.0168 11.0209 76.7367 11.3522 75.1677 11.5952C73.689 14.6872 72.199 17.7792 70.7202 20.8713C64.1394 20.1424 56.6329 19.7117 48.3702 19.9326C42.3989 20.0872 36.8791 20.5621 31.856 21.2025L31.8334 21.2136Z" fill="white"/>
<path d="M68.2266 72C67.9444 72 67.6622 72 67.38 71.9669C58.0336 71.2049 48.5517 70.8184 39.1715 70.8184H38.3249C29.2381 70.8405 20.0498 71.227 11.0081 71.9669C10.7259 71.989 10.4437 72 10.1615 72C6.78646 72 3.60326 70.3546 1.70689 67.5718C-0.347505 64.5571 -0.561976 60.692 1.1425 57.4896L22.8153 16.6307C24.3392 13.7485 27.2176 11.7718 30.5137 11.3521C36.3156 10.6123 42.2305 10.1485 48.0664 9.99387C49.6241 9.94969 51.148 9.93865 52.6492 9.93865C56.6 9.93865 60.5734 10.0712 64.5241 10.3472L65.9464 7.37669C67.38 4.38405 70.2358 2.29693 73.5658 1.77791C75.9024 1.4135 78.2728 1.10429 80.6433 0.850307C85.7454 0.287117 92.1344 0 99.1103 0C103.321 0 107.768 0.110429 112.34 0.320245C118.48 0.607362 124.734 1.07117 130.92 1.7227C134.25 2.06503 137.184 3.99755 138.776 6.87976C140.368 9.76196 140.413 13.2184 138.878 16.1337L115.433 60.9129C113.66 64.3031 110.116 66.3239 106.391 66.3239C105.375 66.3239 104.348 66.1804 103.343 65.8601C95.4304 63.4196 87.2128 61.9509 78.9388 61.4761C78.7469 61.4761 78.555 61.454 78.3518 61.4429C78.4308 62.6687 78.2728 63.9276 77.8664 65.1534C76.4893 69.2614 72.5724 72 68.2153 72H68.2266Z" fill="white"/>
<path d="M31.8334 21.2136L10.1719 62.0614C18.8749 61.3547 28.289 60.913 38.3126 60.8798C49.0136 60.8578 59.0147 61.3105 68.2256 62.0614C63.2364 59.0798 58.2584 56.0872 53.2691 53.1056C59.105 52.0786 66.5098 51.2283 75.0887 51.3829C76.5448 51.405 78.0235 51.4602 79.5474 51.5486C90.4854 52.178 99.6173 54.2872 106.413 56.3743C114.224 41.4443 122.046 26.5252 129.858 11.5952C122.667 10.8443 116.538 10.4578 111.876 10.2369C94.2217 9.41972 84.1641 10.4578 81.7937 10.7228C79.0168 11.0209 76.7367 11.3522 75.1677 11.5952C73.689 14.6872 72.199 17.7792 70.7202 20.8713C64.1394 20.1424 56.6329 19.7117 48.3702 19.9326C42.3989 20.0872 36.8791 20.5621 31.856 21.2025L31.8334 21.2136Z" fill="white"/>
<path d="M55.7096 58.4502C54.1067 58.4502 52.4813 58.0747 50.9574 57.2907C46.002 54.7177 44.1056 48.7103 46.7357 43.8514L61.7035 16.2109C64.3336 11.3631 70.4742 9.50786 75.4409 12.0809C80.3963 14.6539 82.2927 20.6723 79.6626 25.5201L64.6948 53.1606C62.8662 56.5287 59.3556 58.4502 55.7096 58.4502Z" fill="white"/>
<path d="M55.7188 48.5118C60.708 39.302 65.6973 30.0922 70.6865 20.8713L55.7188 48.5118Z" fill="white"/>
<path d="M68.4169 71.4371C66.6221 71.4371 64.7935 70.9954 63.1454 70.0788C58.3481 67.4175 56.8242 61.6972 59.7478 57.3132L66.656 46.9328C69.5682 42.5487 75.8217 41.1573 80.6191 43.8187C85.4165 46.48 86.9403 52.2003 84.0168 56.5843L77.1086 66.9647C75.2009 69.8469 71.8484 71.426 68.4169 71.426V71.4371Z" fill="white"/>
<path d="M54.6168 51.9682L70.1941 61.1118L77.249 49.7375C74.7995 49.2627 71.5035 49.4504 66.5142 49.9032C60.9493 50.4001 56.6937 50.5216 54.6055 51.9682H54.6168Z" fill="#0C8343"/>
<path d="M32.0053 19.5461L10.3438 60.394C19.0467 59.6872 28.4609 59.2455 38.4845 59.2124C49.1855 59.1903 59.1866 59.643 68.3975 60.394C63.4082 57.4124 58.4303 54.4197 53.441 51.4381C59.2769 50.4111 66.6817 49.5608 75.2605 49.7154C76.7167 49.7375 78.1954 49.7927 79.7193 49.8811C90.6572 50.5105 99.7892 52.6197 106.585 54.7068C114.396 39.7768 122.218 24.8578 130.029 9.9277C122.839 9.17678 116.71 8.79028 112.048 8.56942C94.3935 7.75224 84.336 8.79027 81.9656 9.05531C79.1887 9.35347 76.9086 9.68475 75.3396 9.9277C73.8608 13.0197 72.3708 16.1117 70.8921 19.2038C64.3113 18.4749 56.8048 18.0443 48.5421 18.2651C42.5707 18.4197 37.051 18.8946 32.0278 19.5351L32.0053 19.5461Z" fill="#03AF51"/>
<path d="M32.0053 19.5461L10.3438 60.394C19.0467 59.6872 28.4609 59.2455 38.4845 59.2124C49.1855 59.1903 59.1866 59.643 68.3975 60.394C63.4082 57.4124 58.4303 54.4197 53.441 51.4381C59.2769 50.4111 66.6817 49.5608 75.2605 49.7154C76.7167 49.7375 78.1954 49.7927 79.7193 49.8811C90.6573 50.5105 99.7892 52.6197 106.585 54.7068C114.396 39.7768 122.218 24.8578 130.029 9.9277C122.839 9.17678 116.71 8.79028 112.048 8.56942C94.3936 7.75224 84.336 8.79027 81.9656 9.05531C79.1887 9.35347 76.9086 9.68475 75.3396 9.9277C73.8608 13.0197 72.3708 16.1117 70.8921 19.2038C64.3113 18.4749 56.8048 18.0443 48.5421 18.2651C42.5707 18.4197 37.051 18.8946 32.0278 19.5351L32.0053 19.5461Z" stroke="white" stroke-width="1.07" stroke-miterlimit="10"/>
<path d="M55.8906 46.8556C60.8799 37.6458 65.8691 28.4359 70.8584 19.2151" stroke="white" stroke-width="1.07" stroke-miterlimit="10"/>
<path d="M77.2598 49.771L70.3516 60.8802" stroke="white" stroke-width="1.07" stroke-miterlimit="10"/>
</svg>
