<svg width="140" height="72" viewBox="0 0 140 72" fill="none" xmlns="http://www.w3.org/2000/svg">
<path d="M54.4449 53.6242L70.0222 62.7678L77.0771 51.3935C74.6277 50.9187 71.3316 51.1064 66.3423 51.5592C60.7774 52.0561 56.5219 52.1776 54.4336 53.6242H54.4449Z" fill="white"/>
<path d="M68.2266 72C67.9444 72 67.6622 72 67.38 71.9669C58.0336 71.2049 48.5517 70.8184 39.1715 70.8184H38.3249C29.2381 70.8405 20.0498 71.227 11.0081 71.9669C10.7259 71.989 10.4437 72 10.1615 72C6.78646 72 3.60326 70.3546 1.70689 67.5718C-0.347505 64.5571 -0.561976 60.692 1.1425 57.4896L22.8153 16.6307C24.3392 13.7485 27.2176 11.7718 30.5137 11.3521C36.3156 10.6123 42.2305 10.1485 48.0664 9.99387C49.6241 9.94969 51.148 9.93865 52.6492 9.93865C56.6 9.93865 60.5734 10.0712 64.5241 10.3472L65.9464 7.37669C67.38 4.38405 70.2358 2.29693 73.5658 1.77791C75.9024 1.4135 78.2728 1.10429 80.6433 0.850307C85.7454 0.287117 92.1344 0 99.1103 0C103.321 0 107.768 0.110429 112.34 0.320245C118.48 0.607362 124.734 1.07117 130.92 1.7227C134.25 2.06503 137.184 3.99755 138.776 6.87976C140.368 9.76196 140.413 13.2184 138.878 16.1337L115.433 60.9129C113.66 64.3031 110.116 66.3239 106.391 66.3239C105.375 66.3239 104.348 66.1804 103.343 65.8601C95.4304 63.4196 87.2128 61.9509 78.9388 61.4761C78.7469 61.4761 78.555 61.454 78.3518 61.4429C78.4308 62.6687 78.2728 63.9276 77.8664 65.1534C76.4893 69.2614 72.5724 72 68.2153 72H68.2266Z" fill="white"/>
<path d="M31.8334 21.2124L10.1719 62.0602C18.8749 61.3535 28.289 60.9118 38.3126 60.8786C49.0136 60.8565 59.0147 61.3093 68.2256 62.0602C63.2363 59.0786 58.2584 56.086 53.2691 53.1044C59.105 52.0774 66.5098 51.2271 75.0887 51.3817C76.5448 51.4038 78.0235 51.459 79.5474 51.5473C90.4854 52.1768 99.6173 54.286 106.413 56.3731C114.224 41.443 122.046 26.524 129.858 11.594C122.667 10.843 116.538 10.4565 111.876 10.2357C94.2217 9.4185 84.1641 10.4565 81.7937 10.7216C79.0168 11.0197 76.7367 11.351 75.1677 11.594C73.689 14.686 72.1989 17.778 70.7202 20.87C64.1394 20.1412 56.6329 19.7105 48.3702 19.9314C42.3989 20.086 36.8791 20.5608 31.856 21.2013L31.8334 21.2124Z" fill="white"/>
<path d="M68.2266 72C67.9444 72 67.6622 72 67.38 71.9669C58.0336 71.2049 48.5517 70.8184 39.1715 70.8184H38.3249C29.2381 70.8405 20.0498 71.227 11.0081 71.9669C10.7259 71.989 10.4437 72 10.1615 72C6.78646 72 3.60326 70.3546 1.70689 67.5718C-0.347505 64.5571 -0.561976 60.692 1.1425 57.4896L22.8153 16.6307C24.3392 13.7485 27.2176 11.7718 30.5137 11.3521C36.3156 10.6123 42.2305 10.1485 48.0664 9.99387C49.6241 9.94969 51.148 9.93865 52.6492 9.93865C56.6 9.93865 60.5734 10.0712 64.5241 10.3472L65.9464 7.37669C67.38 4.38405 70.2358 2.29693 73.5658 1.77791C75.9024 1.4135 78.2728 1.10429 80.6433 0.850307C85.7454 0.287117 92.1344 0 99.1103 0C103.321 0 107.768 0.110429 112.34 0.320245C118.48 0.607362 124.734 1.07117 130.92 1.7227C134.25 2.06503 137.184 3.99755 138.776 6.87976C140.368 9.76196 140.413 13.2184 138.878 16.1337L115.433 60.9129C113.66 64.3031 110.116 66.3239 106.391 66.3239C105.375 66.3239 104.348 66.1804 103.343 65.8601C95.4304 63.4196 87.2128 61.9509 78.9388 61.4761C78.7469 61.4761 78.555 61.454 78.3518 61.4429C78.4308 62.6687 78.2728 63.9276 77.8664 65.1534C76.4893 69.2614 72.5724 72 68.2153 72H68.2266Z" fill="white"/>
<path d="M31.8334 21.2124L10.1719 62.0602C18.8749 61.3535 28.289 60.9118 38.3126 60.8786C49.0136 60.8565 59.0147 61.3093 68.2256 62.0602C63.2363 59.0786 58.2584 56.086 53.2691 53.1044C59.105 52.0774 66.5098 51.2271 75.0887 51.3817C76.5448 51.4038 78.0235 51.459 79.5474 51.5473C90.4854 52.1768 99.6173 54.286 106.413 56.3731C114.224 41.443 122.046 26.524 129.858 11.594C122.667 10.843 116.538 10.4565 111.876 10.2357C94.2217 9.4185 84.1641 10.4565 81.7937 10.7216C79.0168 11.0197 76.7367 11.351 75.1677 11.594C73.689 14.686 72.1989 17.778 70.7202 20.87C64.1394 20.1412 56.6329 19.7105 48.3702 19.9314C42.3989 20.086 36.8791 20.5608 31.856 21.2013L31.8334 21.2124Z" fill="white"/>
<path d="M55.7057 58.4504C54.1028 58.4504 52.4774 58.075 50.9535 57.2909C45.9981 54.7179 44.1017 48.7106 46.7318 43.8517L61.6996 16.2112C64.3297 11.3633 70.4703 9.5081 75.437 12.0811C80.3924 14.6541 82.2887 20.6725 79.6587 25.5204L64.6909 53.1609C62.8622 56.529 59.3517 58.4504 55.7057 58.4504Z" fill="white"/>
<path d="M55.7188 48.5101C60.708 39.3003 65.6973 30.0905 70.6865 20.8696L55.7188 48.5101Z" fill="white"/>
<path d="M68.4169 71.4376C66.6221 71.4376 64.7935 70.9959 63.1454 70.0793C58.3481 67.4179 56.8242 61.6977 59.7478 57.3136L66.656 46.9333C69.5682 42.5492 75.8217 41.1578 80.6191 43.8192C85.4165 46.4805 86.9403 52.2008 84.0168 56.5848L77.1086 66.9652C75.2009 69.8474 71.8484 71.4265 68.4169 71.4265V71.4376Z" fill="white"/>
<path d="M54.6128 51.968L70.1902 61.1115L77.2451 49.7373C74.7956 49.2624 71.4996 49.4502 66.5103 49.9029C60.9454 50.3999 56.6898 50.5213 54.6016 51.968H54.6128Z" fill="#0482C2"/>
<path d="M32.0053 19.5459L10.3438 60.3937C19.0467 59.687 28.4608 59.2453 38.4845 59.2121C49.1855 59.19 59.1865 59.6428 68.3975 60.3937C63.4082 57.4121 58.4303 54.4195 53.441 51.4379C59.2768 50.4109 66.6817 49.5606 75.2605 49.7152C76.7167 49.7373 78.1954 49.7925 79.7192 49.8808C90.6572 50.5103 99.7892 52.6195 106.584 54.7066C114.396 39.7765 122.218 24.8575 130.029 9.92745C122.839 9.17653 116.71 8.79003 112.048 8.56917C94.3935 7.75199 84.336 8.79003 81.9655 9.05506C79.1887 9.35322 76.9086 9.68451 75.3395 9.92745C73.8608 13.0195 72.3708 16.1115 70.8921 19.2035C64.3113 18.4747 56.8048 18.044 48.542 18.2649C42.5707 18.4195 37.0509 18.8943 32.0278 19.5348L32.0053 19.5459Z" fill="#1599D6"/>
<path d="M63.375 33.2175C64.6844 30.4899 65.9938 27.7623 67.3032 25.0347C73.1955 25.8739 81.605 27.7291 90.8498 32.1022C100.151 36.4972 106.879 41.831 111.224 45.8396C109.881 48.0592 107.917 52.4985 106.574 54.7181L90.7595 51.0739C89.9355 49.4948 88.9196 47.8825 87.6779 46.2923C80.1037 36.6739 68.5674 34.0457 63.375 33.2175Z" fill="#F1E706"/>
<path d="M29.1071 25.0225C34.7059 24.4152 42.5962 24.2274 51.6716 26.2152C56.8189 27.3415 61.2099 28.9207 64.7656 30.4777C63.0724 33.6029 61.3792 36.7391 59.6748 39.8642C56.8641 38.1415 53.2858 36.3305 48.9738 34.917C38.9615 31.6483 30.0779 32.2336 24.8516 33.0287C26.2626 30.3563 27.6848 27.6949 29.0958 25.0225H29.1071Z" fill="#F1E706"/>
<path d="M32.0053 19.5459L10.3438 60.3937C19.0467 59.687 28.4608 59.2453 38.4845 59.2121C49.1855 59.19 59.1865 59.6428 68.3975 60.3937C63.4082 57.4121 58.4303 54.4195 53.441 51.4379C59.2768 50.4109 66.6817 49.5606 75.2605 49.7152C76.7167 49.7373 78.1954 49.7925 79.7192 49.8808C90.6572 50.5103 99.7892 52.6195 106.584 54.7066C114.396 39.7765 122.218 24.8575 130.029 9.92745C122.839 9.17653 116.71 8.79003 112.048 8.56917C94.3935 7.75199 84.336 8.79003 81.9655 9.05506C79.1887 9.35322 76.9086 9.68451 75.3395 9.92745C73.8608 13.0195 72.3708 16.1115 70.8921 19.2035C64.3113 18.4747 56.8048 18.044 48.542 18.2649C42.5707 18.4195 37.0509 18.8943 32.0278 19.5348L32.0053 19.5459Z" stroke="white" stroke-width="1.07" stroke-miterlimit="10"/>
<path d="M55.8906 46.8558C60.8799 37.646 65.8691 28.4362 70.8584 19.2153" stroke="white" stroke-width="1.07" stroke-miterlimit="10"/>
<path d="M77.2598 49.7695L70.3516 60.8787" stroke="white" stroke-width="1.07" stroke-miterlimit="10"/>
</svg>
