<svg width="226" height="82" viewBox="0 0 226 82" fill="none" xmlns="http://www.w3.org/2000/svg">
<ellipse cx="136.999" cy="47.3419" rx="8.71667" ry="11.0001" transform="rotate(20.3114 136.999 47.3419)" fill="white"/>
<path d="M140.913 36.5055C138.745 40.1099 139.106 43.7143 139.558 45.0659L129.169 62.6374L118.328 73L105.681 51.3736L84 39.2088L84.4517 32C104.176 32 143.081 32.9011 140.913 36.5055Z" fill="white"/>
<mask id="path-3-outside-1_470_4435" maskUnits="userSpaceOnUse" x="69.7533" y="-0.381217" width="87.5528" height="86.8624" fill="black">
<rect fill="white" x="69.7533" y="-0.381217" width="87.5528" height="86.8624"/>
<path d="M75.4985 39.1244L75.7636 10.5256L81.6302 10.1291L90.9806 25.4466C91.8841 26.9445 92.939 29.3116 92.939 29.3116L93.0188 29.3062C93.0188 29.3062 92.8866 26.3571 92.9052 24.3572L93.0442 9.35781L98.7512 8.97214L98.4861 37.5709L92.8988 37.9485L83.3075 22.8072C82.4037 21.3493 81.3088 18.9849 81.3088 18.9849L81.229 18.9903C81.229 18.9903 81.3608 21.9794 81.3423 23.9793L81.2055 38.7387L75.4985 39.1244ZM102.419 37.3051L102.609 16.786L108.037 16.4192L107.847 36.9384L102.419 37.3051ZM102.639 13.5862L102.684 8.70637L108.112 8.33959L108.066 13.2194L102.639 13.5862ZM120.837 36.6601C114.371 37.097 110.384 32.6496 110.441 26.5299C110.498 20.4101 114.532 15.4207 120.758 14.9999C126.066 14.6412 129.31 17.5 129.987 21.8912L124.679 22.2499C124.337 20.4743 122.953 19.2087 120.957 19.3436C117.685 19.5647 115.985 22.1979 115.949 26.1577C115.913 30.0375 117.445 32.5322 120.757 32.3084C122.952 32.1601 124.52 30.8949 124.9 28.5508L130.128 28.1975C129.729 32.5816 126.304 36.2906 120.837 36.6601ZM142.041 35.2272C135.257 35.6857 131.47 31.1848 131.526 25.065C131.583 18.9853 135.737 13.9877 141.723 13.5832C148.308 13.1382 151.774 17.9406 151.706 25.2603L136.86 26.2636C137.229 29.3965 138.967 31.2377 142.04 31.0301C144.155 30.8871 145.401 29.8436 146.015 28.2432L151.362 27.8818C150.57 31.5729 147.309 34.8712 142.041 35.2272ZM141.764 17.7776C138.891 17.9718 137.478 19.7861 136.974 22.4983L146.073 21.8834C145.938 19.2943 144.239 17.6104 141.764 17.7776ZM85.6484 49.7109L85.6936 44.8311L108.641 43.2804L108.596 48.1602L100.016 48.74L99.7958 72.459L94.009 72.85L94.2288 49.1311L85.6484 49.7109ZM113.476 51.0283L113.445 54.3081L113.565 54.3C114.824 51.8965 116.232 50.6022 118.626 50.4404C119.225 50.3999 119.584 50.4156 119.902 50.5141L119.858 55.2739L119.738 55.2819C116.189 55.162 113.618 57.2145 113.578 61.5343L113.485 71.5339L108.058 71.9007L108.248 51.3816L113.476 51.0283ZM122.621 77.6321L122.66 73.3522L124.576 73.2228C126.731 73.0771 127.619 71.8979 127.635 70.2179C127.645 69.098 127.259 67.805 126.13 64.7634L120.758 50.5362L126.465 50.1505L129.412 59.1851C130.034 61.0219 130.688 63.5759 130.688 63.5759L130.768 63.5705C130.768 63.5705 131.351 60.9329 132.006 59.0098L134.966 49.576L140.433 49.2066L133.094 70.7284C131.496 75.3934 129.964 77.1358 125.813 77.4163L122.621 77.6321Z"/>
</mask>
<path d="M75.4985 39.1244L75.7636 10.5256L81.6302 10.1291L90.9806 25.4466C91.8841 26.9445 92.939 29.3116 92.939 29.3116L93.0188 29.3062C93.0188 29.3062 92.8866 26.3571 92.9052 24.3572L93.0442 9.35781L98.7512 8.97214L98.4861 37.5709L92.8988 37.9485L83.3075 22.8072C82.4037 21.3493 81.3088 18.9849 81.3088 18.9849L81.229 18.9903C81.229 18.9903 81.3608 21.9794 81.3423 23.9793L81.2055 38.7387L75.4985 39.1244ZM102.419 37.3051L102.609 16.786L108.037 16.4192L107.847 36.9384L102.419 37.3051ZM102.639 13.5862L102.684 8.70637L108.112 8.33959L108.066 13.2194L102.639 13.5862ZM120.837 36.6601C114.371 37.097 110.384 32.6496 110.441 26.5299C110.498 20.4101 114.532 15.4207 120.758 14.9999C126.066 14.6412 129.31 17.5 129.987 21.8912L124.679 22.2499C124.337 20.4743 122.953 19.2087 120.957 19.3436C117.685 19.5647 115.985 22.1979 115.949 26.1577C115.913 30.0375 117.445 32.5322 120.757 32.3084C122.952 32.1601 124.52 30.8949 124.9 28.5508L130.128 28.1975C129.729 32.5816 126.304 36.2906 120.837 36.6601ZM142.041 35.2272C135.257 35.6857 131.47 31.1848 131.526 25.065C131.583 18.9853 135.737 13.9877 141.723 13.5832C148.308 13.1382 151.774 17.9406 151.706 25.2603L136.86 26.2636C137.229 29.3965 138.967 31.2377 142.04 31.0301C144.155 30.8871 145.401 29.8436 146.015 28.2432L151.362 27.8818C150.57 31.5729 147.309 34.8712 142.041 35.2272ZM141.764 17.7776C138.891 17.9718 137.478 19.7861 136.974 22.4983L146.073 21.8834C145.938 19.2943 144.239 17.6104 141.764 17.7776ZM85.6484 49.7109L85.6936 44.8311L108.641 43.2804L108.596 48.1602L100.016 48.74L99.7958 72.459L94.009 72.85L94.2288 49.1311L85.6484 49.7109ZM113.476 51.0283L113.445 54.3081L113.565 54.3C114.824 51.8965 116.232 50.6022 118.626 50.4404C119.225 50.3999 119.584 50.4156 119.902 50.5141L119.858 55.2739L119.738 55.2819C116.189 55.162 113.618 57.2145 113.578 61.5343L113.485 71.5339L108.058 71.9007L108.248 51.3816L113.476 51.0283ZM122.621 77.6321L122.66 73.3522L124.576 73.2228C126.731 73.0771 127.619 71.8979 127.635 70.2179C127.645 69.098 127.259 67.805 126.13 64.7634L120.758 50.5362L126.465 50.1505L129.412 59.1851C130.034 61.0219 130.688 63.5759 130.688 63.5759L130.768 63.5705C130.768 63.5705 131.351 60.9329 132.006 59.0098L134.966 49.576L140.433 49.2066L133.094 70.7284C131.496 75.3934 129.964 77.1358 125.813 77.4163L122.621 77.6321Z" fill="black"/>
<path d="M75.4985 39.1244L70.5099 39.4615C70.4843 42.2228 72.697 44.3103 75.4522 44.1241L75.4985 39.1244ZM75.7636 10.5256L75.8099 5.52579C73.0548 5.71198 70.8006 8.10139 70.775 10.8627L75.7636 10.5256ZM81.6302 10.1291L85.9383 7.27832C85.0523 5.8269 83.4335 5.01062 81.6766 5.12934L81.6302 10.1291ZM90.9806 25.4466L95.3012 22.6164C95.297 22.6095 95.2929 22.6026 95.2887 22.5958L90.9806 25.4466ZM92.939 29.3116L88.3585 31.6435C89.1408 33.3988 90.9185 34.4448 92.8927 34.3113L92.939 29.3116ZM93.0188 29.3062L92.9725 34.3059C94.3423 34.2134 95.657 33.5604 96.6084 32.5001C97.5597 31.4398 98.0639 30.0655 98.0027 28.6997L93.0188 29.3062ZM93.0442 9.35781L93.0905 4.35802C90.3354 4.5442 88.0812 6.93362 88.0556 9.69492L93.0442 9.35781ZM98.7512 8.97214L103.74 8.63503C103.765 5.87372 101.553 3.78617 98.7975 3.97236L98.7512 8.97214ZM98.4861 37.5709L98.4397 42.5707C101.195 42.3845 103.449 39.9951 103.475 37.2338L98.4861 37.5709ZM92.8988 37.9485L88.6303 40.8629C89.5255 42.276 91.1231 43.0651 92.8525 42.9483L92.8988 37.9485ZM83.3075 22.8072L79.0157 25.6845C79.0234 25.6969 79.0311 25.7093 79.039 25.7216L83.3075 22.8072ZM81.3088 18.9849L85.862 16.5928C85.0651 14.872 83.3047 13.8534 81.3552 13.9851L81.3088 18.9849ZM81.229 18.9903L81.2753 13.9905C79.9062 14.0831 78.5919 14.7355 77.6407 15.795C76.6894 16.8545 76.1848 18.2279 76.245 19.5932L81.229 18.9903ZM81.2055 38.7387L81.1592 43.7385C83.9143 43.5523 86.1685 41.1629 86.1941 38.4016L81.2055 38.7387ZM80.4871 38.7872L80.7522 10.1885L70.775 10.8627L70.5099 39.4615L80.4871 38.7872ZM75.7172 15.5254L81.5839 15.1289L81.6766 5.12934L75.8099 5.52579L75.7172 15.5254ZM77.3221 12.9799L86.6726 28.2974L95.2887 22.5958L85.9383 7.27832L77.3221 12.9799ZM86.6601 28.2768C87.0002 28.8407 87.4161 29.6532 87.7782 30.4021C87.9516 30.7606 88.0993 31.0769 88.2032 31.3023C88.2549 31.4147 88.2953 31.5035 88.3221 31.5626C88.3354 31.5921 88.3453 31.6141 88.3515 31.6279C88.3546 31.6348 88.3568 31.6396 88.3579 31.6422C88.3585 31.6435 88.3589 31.6443 88.359 31.6445C88.359 31.6446 88.359 31.6446 88.3589 31.6444C88.3589 31.6443 88.3588 31.6442 88.3588 31.644C88.3587 31.644 88.3587 31.6438 88.3586 31.6438C88.3586 31.6436 88.3585 31.6435 92.939 29.3116C97.5195 26.9796 97.5194 26.9795 97.5193 26.9793C97.5193 26.9792 97.5192 26.979 97.5191 26.9788C97.519 26.9785 97.5189 26.9782 97.5187 26.9778C97.5184 26.9771 97.518 26.9762 97.5175 26.9752C97.5166 26.9731 97.5154 26.9704 97.514 26.9672C97.5111 26.9608 97.5072 26.9521 97.5023 26.9413C97.4926 26.9197 97.479 26.8894 97.4617 26.8513C97.4273 26.7751 97.3782 26.6672 97.3169 26.5343C97.1948 26.2691 97.0223 25.8999 96.819 25.4795C96.4278 24.6703 95.8645 23.5504 95.3012 22.6164L86.6601 28.2768ZM92.8927 34.3113L92.9725 34.3059L93.0652 24.3064L92.9853 24.3118L92.8927 34.3113ZM93.0188 29.3062C98.0027 28.6997 98.0027 28.6998 98.0027 28.6998C98.0027 28.6998 98.0027 28.6999 98.0027 28.6999C98.0027 28.6999 98.0027 28.6999 98.0027 28.6998C98.0027 28.6997 98.0027 28.6994 98.0026 28.699C98.0026 28.698 98.0025 28.6964 98.0024 28.694C98.0022 28.6894 98.0019 28.682 98.0014 28.672C98.0006 28.6519 97.9993 28.6214 97.9976 28.5814C97.9942 28.5013 97.9893 28.3833 97.9834 28.2348C97.9718 27.9374 97.9563 27.5202 97.9415 27.0429C97.9112 26.0713 97.8855 24.9157 97.8938 24.02L87.9165 24.6943C87.9063 25.7986 87.9374 27.1174 87.9686 28.1203C87.9845 28.6303 88.0009 29.0753 88.0135 29.3935C88.0197 29.5527 88.025 29.6807 88.0288 29.7697C88.0307 29.8142 88.0322 29.849 88.0332 29.8731C88.0337 29.8852 88.0342 29.8946 88.0345 29.9012C88.0346 29.9046 88.0347 29.9072 88.0348 29.9091C88.0348 29.91 88.0349 29.9108 88.0349 29.9114C88.0349 29.9117 88.0349 29.912 88.0349 29.9122C88.0349 29.9123 88.0349 29.9124 88.035 29.9124C88.035 29.9126 88.035 29.9127 93.0188 29.3062ZM97.8938 24.02L98.0328 9.02069L88.0556 9.69492L87.9165 24.6943L97.8938 24.02ZM92.9978 14.3576L98.7048 13.9719L98.7975 3.97236L93.0905 4.35802L92.9978 14.3576ZM93.7625 9.30926L93.4975 37.908L103.475 37.2338L103.74 8.63503L93.7625 9.30926ZM98.5324 32.5711L92.9452 32.9487L92.8525 42.9483L98.4397 42.5707L98.5324 32.5711ZM97.1674 35.0341L87.576 19.8928L79.039 25.7216L88.6303 40.8629L97.1674 35.0341ZM87.5992 19.9299C87.2605 19.3836 86.8361 18.5801 86.4628 17.8336C86.2844 17.4766 86.1315 17.1609 86.0238 16.9354C85.9701 16.823 85.9281 16.734 85.9002 16.6747C85.8863 16.645 85.876 16.6228 85.8695 16.6089C85.8662 16.6019 85.8639 16.5971 85.8627 16.5943C85.862 16.593 85.8617 16.5922 85.8615 16.5919C85.8615 16.5918 85.8615 16.5918 85.8616 16.5919C85.8616 16.592 85.8616 16.5921 85.8617 16.5923C85.8617 16.5923 85.8618 16.5925 85.8618 16.5925C85.8619 16.5926 85.862 16.5928 81.3088 18.9849C76.7557 21.3771 76.7558 21.3772 76.7558 21.3774C76.7559 21.3775 76.756 21.3777 76.756 21.3778C76.7562 21.3781 76.7563 21.3784 76.7565 21.3788C76.7568 21.3795 76.7572 21.3804 76.7577 21.3814C76.7586 21.3834 76.7598 21.386 76.7613 21.3892C76.7642 21.3955 76.7682 21.4041 76.7732 21.4148C76.7832 21.4362 76.7972 21.4662 76.815 21.5041C76.8505 21.5797 76.9011 21.6868 76.9642 21.8189C77.09 22.0823 77.2674 22.4487 77.4756 22.8652C77.8757 23.6652 78.4506 24.773 79.0157 25.6845L87.5992 19.9299ZM81.3552 13.9851L81.2753 13.9905L81.1827 23.9901L81.2625 23.9847L81.3552 13.9851ZM81.229 18.9903C76.245 19.5932 76.245 19.5932 76.245 19.5931C76.245 19.5931 76.245 19.593 76.245 19.593C76.245 19.593 76.245 19.593 76.245 19.5931C76.245 19.5932 76.245 19.5935 76.245 19.594C76.2451 19.595 76.2451 19.5967 76.2452 19.5991C76.2455 19.6038 76.2458 19.6114 76.2462 19.6215C76.2471 19.6419 76.2484 19.6729 76.2501 19.7136C76.2535 19.7949 76.2584 19.9146 76.2642 20.0651C76.2759 20.3664 76.2913 20.789 76.3061 21.2715C76.3363 22.2541 76.362 23.4202 76.3537 24.3164L86.3309 23.6422C86.3411 22.5386 86.3102 21.2101 86.2791 20.1982C86.2633 19.6835 86.2469 19.2338 86.2344 18.9122C86.2282 18.7512 86.2229 18.6218 86.2192 18.5318C86.2173 18.4868 86.2158 18.4516 86.2147 18.4272C86.2142 18.415 86.2138 18.4055 86.2135 18.3989C86.2134 18.3955 86.2133 18.3929 86.2132 18.391C86.2131 18.39 86.2131 18.3892 86.2131 18.3886C86.2131 18.3884 86.213 18.3881 86.213 18.3879C86.213 18.3878 86.213 18.3877 86.213 18.3876C86.213 18.3875 86.213 18.3874 81.229 18.9903ZM76.3537 24.3164L76.2169 39.0758L86.1941 38.4016L86.3309 23.6422L76.3537 24.3164ZM81.2518 33.7389L75.5449 34.1246L75.4522 44.1241L81.1592 43.7385L81.2518 33.7389ZM102.419 37.3051L97.4304 37.6423C97.4048 40.4036 99.6175 42.4911 102.373 42.3049L102.419 37.3051ZM102.609 16.786L102.656 11.7862C99.9004 11.9724 97.6462 14.3618 97.6206 17.1231L102.609 16.786ZM108.037 16.4192L113.025 16.0821C113.051 13.3208 110.838 11.2333 108.083 11.4195L108.037 16.4192ZM107.847 36.9384L107.8 41.9381C110.555 41.752 112.81 39.3625 112.835 36.6012L107.847 36.9384ZM102.639 13.5862L97.6502 13.9233C97.6246 16.6846 99.8374 18.7721 102.592 18.5859L102.639 13.5862ZM102.684 8.70637L102.73 3.70658C99.9753 3.89277 97.721 6.28218 97.6954 9.04349L102.684 8.70637ZM108.112 8.33959L113.1 8.00247C113.126 5.24116 110.913 3.15362 108.158 3.3398L108.112 8.33959ZM108.066 13.2194L108.02 18.2192C110.775 18.033 113.029 15.6436 113.055 12.8823L108.066 13.2194ZM107.408 36.968L107.598 16.4489L97.6206 17.1231L97.4304 37.6423L107.408 36.968ZM102.563 21.7858L107.99 21.419L108.083 11.4195L102.656 11.7862L102.563 21.7858ZM103.048 16.7564L102.858 37.2755L112.835 36.6012L113.025 16.0821L103.048 16.7564ZM107.893 31.9386L102.465 32.3054L102.373 42.3049L107.8 41.9381L107.893 31.9386ZM107.627 13.249L107.673 8.36925L97.6954 9.04349L97.6502 13.9233L107.627 13.249ZM102.638 13.7062L108.065 13.3394L108.158 3.3398L102.73 3.70658L102.638 13.7062ZM103.123 8.6767L103.078 13.5565L113.055 12.8823L113.1 8.00247L103.123 8.6767ZM108.113 8.21959L102.685 8.58637L102.592 18.5859L108.02 18.2192L108.113 8.21959ZM129.987 21.8912L129.941 26.891C131.404 26.7922 132.799 26.055 133.757 24.8746C134.715 23.6941 135.14 22.1893 134.919 20.7581L129.987 21.8912ZM124.679 22.2499L119.779 23.561C120.223 25.8665 122.255 27.4104 124.633 27.2497L124.679 22.2499ZM124.9 28.5508L124.947 23.551C122.487 23.7172 120.378 25.6556 119.978 28.1172L124.9 28.5508ZM130.128 28.1975L135.096 28.2729C135.224 26.8724 134.765 25.5269 133.83 24.5627C132.894 23.5984 131.569 23.1035 130.175 23.1977L130.128 28.1975ZM120.883 31.6603C118.927 31.7925 117.663 31.1982 116.867 30.3915C116.035 29.5475 115.412 28.155 115.43 26.1928L105.453 26.867C105.414 31.0245 106.756 34.9156 109.519 37.716C112.319 40.5537 116.281 41.9646 120.79 41.6599L120.883 31.6603ZM115.43 26.1928C115.448 24.2152 116.099 22.7173 116.935 21.7546C117.73 20.8394 118.932 20.12 120.712 19.9997L120.805 10.0001C116.358 10.3006 112.43 12.2863 109.637 15.501C106.886 18.6681 105.491 22.7249 105.453 26.867L115.43 26.1928ZM120.712 19.9997C122.38 19.887 123.329 20.2907 123.862 20.7073C124.4 21.1275 124.873 21.8402 125.056 23.0243L134.919 20.7581C134.425 17.5509 132.937 14.6387 130.356 12.6214C127.771 10.6005 124.444 9.7542 120.805 10.0001L120.712 19.9997ZM130.034 16.8914L124.726 17.2501L124.633 27.2497L129.941 26.891L130.034 16.8914ZM129.58 20.9388C128.847 17.1355 125.653 14.0296 121.004 14.3438L120.911 24.3433C120.724 24.356 120.398 24.2936 120.116 24.0634C119.864 23.8574 119.794 23.64 119.779 23.561L129.58 20.9388ZM121.004 14.3438C117.924 14.5519 115.125 16.0145 113.253 18.6516C111.542 21.0602 110.984 23.9095 110.96 26.4948L120.937 25.8206C120.943 25.1732 121.017 24.7068 121.099 24.4001C121.181 24.095 121.253 24.0076 121.226 24.0457C121.185 24.1037 121.079 24.2171 120.923 24.3026C120.777 24.3826 120.739 24.3549 120.911 24.3433L121.004 14.3438ZM110.96 26.4948C110.937 28.9909 111.394 31.7475 113.001 33.9394C114.785 36.3714 117.561 37.5211 120.711 37.3082L120.804 27.3086C120.636 27.3199 120.695 27.2864 120.863 27.3592C121.041 27.4359 121.153 27.5502 121.193 27.6045C121.218 27.6381 121.145 27.5527 121.069 27.2429C120.993 26.9333 120.931 26.4672 120.937 25.8206L110.96 26.4948ZM120.711 37.3082C122.677 37.1753 124.82 36.5031 126.629 34.9118C128.47 33.2925 129.47 31.1561 129.823 28.9843L119.978 28.1172C119.961 28.2206 119.952 28.1824 120.018 28.0567C120.088 27.9225 120.21 27.7519 120.389 27.5942C120.771 27.2587 121.033 27.2931 120.804 27.3086L120.711 37.3082ZM124.854 33.5506L130.082 33.1973L130.175 23.1977L124.947 23.551L124.854 33.5506ZM125.16 28.122C125.01 29.7739 123.881 31.4578 120.883 31.6603L120.79 41.6599C128.728 41.1235 134.448 35.3892 135.096 28.2729L125.16 28.122ZM151.706 25.2603L151.659 30.2601C154.415 30.0739 156.669 27.6845 156.694 24.9232L151.706 25.2603ZM136.86 26.2636L136.906 21.2638C135.474 21.3606 134.105 22.0697 133.148 23.2105C132.191 24.3514 131.738 25.814 131.905 27.2259L136.86 26.2636ZM146.015 28.2432L146.061 23.2434C143.997 23.3829 142.134 24.7821 141.375 26.763L146.015 28.2432ZM151.362 27.8818L156.236 28.5737C156.557 27.0794 156.199 25.5708 155.263 24.4667C154.326 23.3626 152.911 22.7805 151.409 22.882L151.362 27.8818ZM136.974 22.4984L132.072 21.9487C131.798 23.4234 132.181 24.8944 133.119 25.9655C134.056 27.0367 135.451 27.5979 136.928 27.4981L136.974 22.4984ZM146.073 21.8834L146.027 26.8832C147.403 26.7902 148.724 26.1315 149.676 25.0629C150.628 23.9944 151.127 22.6109 151.056 21.2399L146.073 21.8834ZM142.088 30.2274C139.926 30.3735 138.661 29.739 137.91 28.9689C137.11 28.148 136.496 26.7572 136.515 24.7279L126.538 25.4022C126.5 29.4926 127.751 33.4121 130.526 36.257C133.351 39.1527 137.372 40.5394 141.995 40.227L142.088 30.2274ZM136.515 24.7279C136.549 20.9957 138.841 18.7746 141.677 18.583L141.77 8.58339C132.633 9.20084 126.616 16.9749 126.538 25.4022L136.515 24.7279ZM141.677 18.583C143.561 18.4557 144.581 19.0347 145.255 19.8599C146.05 20.8351 146.744 22.6646 146.717 25.5974L156.694 24.9232C156.735 20.5364 155.73 16.3048 153.164 13.1601C150.475 9.86537 146.471 8.26571 141.77 8.58339L141.677 18.583ZM151.752 20.2605L136.906 21.2638L136.813 31.2634L151.659 30.2601L151.752 20.2605ZM131.905 27.2259C132.175 29.5205 133.011 31.8918 134.856 33.6545C136.782 35.4941 139.328 36.21 141.994 36.0298L142.087 26.0303C141.849 26.0463 141.783 26.0138 141.825 26.0274C141.877 26.0442 141.955 26.0859 142.016 26.1446C142.132 26.2553 141.913 26.1395 141.815 25.3013L131.905 27.2259ZM141.994 36.0298C143.811 35.9071 145.676 35.3622 147.327 34.1508C148.991 32.9299 150.042 31.3221 150.654 29.7233L141.375 26.763C141.37 26.7757 141.396 26.7045 141.48 26.5886C141.569 26.4667 141.695 26.3325 141.855 26.2155C142.201 25.9617 142.385 26.0101 142.087 26.0303L141.994 36.0298ZM145.968 33.243L151.316 32.8816L151.409 22.882L146.061 23.2434L145.968 33.243ZM146.489 27.1899C146.337 27.8938 145.957 28.5553 145.342 29.0758C144.742 29.5831 143.725 30.1168 142.088 30.2274L141.995 40.227C149.466 39.7221 154.907 34.7695 156.236 28.5737L146.489 27.1899ZM141.811 12.7778C139.308 12.947 136.882 13.8991 134.997 15.8844C133.227 17.7496 132.433 20.0072 132.072 21.9487L141.877 23.048C141.944 22.6873 142.018 22.4852 142.056 22.3997C142.091 22.3226 142.075 22.3856 141.964 22.503C141.909 22.5604 141.843 22.6185 141.769 22.671C141.694 22.7235 141.627 22.7592 141.577 22.7814C141.474 22.8267 141.495 22.7924 141.718 22.7774L141.811 12.7778ZM136.928 27.4981L146.027 26.8832L146.12 16.8837L137.021 17.4986L136.928 27.4981ZM151.056 21.2399C150.934 18.9247 150.088 16.6916 148.39 15.0555C146.662 13.39 144.317 12.6085 141.811 12.7778L141.718 22.7774C141.727 22.7768 141.654 22.7819 141.533 22.7404C141.411 22.6986 141.294 22.6273 141.202 22.5383C141.006 22.3496 141.077 22.2531 141.091 22.527L151.056 21.2399ZM85.6484 49.7109L80.6598 50.048C80.6342 52.8093 82.8469 54.8969 85.602 54.7107L85.6484 49.7109ZM85.6936 44.8311L85.74 39.8313C82.9848 40.0175 80.7306 42.4069 80.705 45.1682L85.6936 44.8311ZM108.641 43.2804L113.63 42.9433C113.655 40.182 111.443 38.0944 108.688 38.2806L108.641 43.2804ZM108.596 48.1602L108.55 53.1599C111.305 52.9738 113.559 50.5843 113.585 47.823L108.596 48.1602ZM100.016 48.74L100.062 43.7402C97.3068 43.9264 95.0526 46.3158 95.027 49.0771L100.016 48.74ZM99.7958 72.459L99.7494 77.4588C102.505 77.2726 104.759 74.8832 104.784 72.1219L99.7958 72.459ZM94.009 72.85L89.0203 73.1872C88.9948 75.9485 91.2075 78.036 93.9626 77.8498L94.009 72.85ZM94.2288 49.1311L99.2174 48.7939C99.243 46.0326 97.0303 43.9451 94.2752 44.1313L94.2288 49.1311ZM90.637 49.3738L90.6822 44.494L80.705 45.1682L80.6598 50.048L90.637 49.3738ZM85.6473 49.8309L108.595 48.2802L108.688 38.2806L85.74 39.8313L85.6473 49.8309ZM103.653 43.6175L103.607 48.4973L113.585 47.823L113.63 42.9433L103.653 43.6175ZM108.642 43.1604L100.062 43.7402L99.9693 53.7398L108.55 53.1599L108.642 43.1604ZM95.027 49.0771L94.8072 72.7961L104.784 72.1219L105.004 48.4029L95.027 49.0771ZM99.8421 67.4592L94.0553 67.8503L93.9626 77.8498L99.7494 77.4588L99.8421 67.4592ZM98.9976 72.5129L99.2174 48.7939L89.2402 49.4682L89.0203 73.1872L98.9976 72.5129ZM94.2752 44.1313L85.6947 44.7111L85.602 54.7107L94.1825 54.1308L94.2752 44.1313ZM113.476 51.0283L118.464 50.6911C118.49 47.9298 116.277 45.8423 113.522 46.0285L113.476 51.0283ZM113.445 54.3081L108.457 54.6452C108.431 57.4065 110.644 59.4941 113.399 59.3079L113.445 54.3081ZM113.565 54.3L113.519 59.2998C115.36 59.1754 117.06 58.0452 117.943 56.3595L113.565 54.3ZM119.902 50.5141L124.891 50.1769C124.91 48.0928 123.637 46.3144 121.697 45.7142L119.902 50.5141ZM119.858 55.2739L119.811 60.2736C122.567 60.0875 124.821 57.698 124.846 54.9367L119.858 55.2739ZM119.738 55.2819L119.19 60.2903C119.357 60.2959 119.524 60.2931 119.692 60.2817L119.738 55.2819ZM113.485 71.5339L113.439 76.5337C116.194 76.3475 118.448 73.9581 118.474 71.1968L113.485 71.5339ZM108.058 71.9007L103.069 72.2378C103.043 74.9991 105.256 77.0867 108.011 76.9005L108.058 71.9007ZM108.248 51.3816L108.294 46.3818C105.539 46.568 103.285 48.9574 103.259 51.7187L108.248 51.3816ZM108.487 51.3654L108.457 54.6452L118.434 53.971L118.464 50.6911L108.487 51.3654ZM113.399 59.3079L113.519 59.2998L113.611 49.3002L113.492 49.3083L113.399 59.3079ZM117.943 56.3595C118.399 55.4887 118.63 55.3244 118.581 55.3629C118.539 55.3967 118.473 55.4356 118.412 55.4581C118.362 55.4769 118.4 55.4523 118.58 55.4402L118.673 45.4406C116.562 45.5832 114.541 46.2761 112.758 47.6962C111.093 49.0232 109.99 50.7078 109.187 52.2406L117.943 56.3595ZM118.58 55.4402C118.677 55.4336 118.733 55.4315 118.759 55.4309C118.786 55.4304 118.768 55.4316 118.719 55.429C118.668 55.4262 118.582 55.419 118.471 55.4004C118.357 55.3813 118.233 55.353 118.107 55.3139L121.697 45.7142C120.513 45.3481 119.415 45.3904 118.673 45.4406L118.58 55.4402ZM114.913 50.8512L114.869 55.611L124.846 54.9367L124.891 50.1769L114.913 50.8512ZM119.904 50.2741L119.784 50.2822L119.692 60.2817L119.811 60.2736L119.904 50.2741ZM120.286 50.2736C117.57 50.1818 114.501 50.9108 112.062 53.2313C109.595 55.5773 108.618 58.7419 108.589 61.8714L118.566 61.1972C118.572 60.6017 118.664 60.2882 118.705 60.1786C118.739 60.089 118.73 60.1529 118.623 60.2551C118.519 60.3544 118.446 60.3708 118.498 60.3537C118.567 60.3312 118.785 60.2766 119.19 60.2903L120.286 50.2736ZM108.589 61.8714L108.497 71.871L118.474 71.1968L118.566 61.1972L108.589 61.8714ZM113.532 66.5341L108.104 66.9009L108.011 76.9005L113.439 76.5337L113.532 66.5341ZM113.046 71.5636L113.236 51.0444L103.259 51.7187L103.069 72.2378L113.046 71.5636ZM108.201 56.3813L113.429 56.028L113.522 46.0285L108.294 46.3818L108.201 56.3813ZM122.621 77.6321L117.632 77.9692C117.606 80.7305 119.819 82.818 122.574 82.6318L122.621 77.6321ZM122.66 73.3522L122.707 68.3524C119.952 68.5386 117.697 70.928 117.672 73.6894L122.66 73.3522ZM126.13 64.7634L130.822 62.705C130.819 62.6966 130.816 62.6882 130.813 62.6798L126.13 64.7634ZM120.758 50.5362L120.804 45.5364C119.166 45.6471 117.624 46.5572 116.68 47.9712C115.736 49.3852 115.51 51.1227 116.075 52.6197L120.758 50.5362ZM126.465 50.1505L131.218 48.2677C130.564 46.2621 128.666 45.0051 126.511 45.1507L126.465 50.1505ZM129.412 59.1851L124.659 61.0679C124.664 61.0838 124.67 61.0997 124.675 61.1155L129.412 59.1851ZM130.688 63.5759L125.85 65.1672C126.404 67.3284 128.373 68.7291 130.642 68.5757L130.688 63.5759ZM130.768 63.5705L130.721 68.5703C133.072 68.4115 135.118 66.63 135.635 64.2937L130.768 63.5705ZM132.006 59.0098L136.714 60.3019C136.728 60.26 136.742 60.218 136.755 60.1758L132.006 59.0098ZM134.966 49.576L135.012 44.5763C132.829 44.7238 130.886 46.2771 130.217 48.4101L134.966 49.576ZM140.433 49.2066L145.141 50.4982C145.673 48.9364 145.441 47.2697 144.516 46.0218C143.592 44.7738 142.088 44.098 140.479 44.2068L140.433 49.2066ZM133.094 70.7284L137.799 72.0278L137.802 72.02L133.094 70.7284ZM127.609 77.2949L127.649 73.0151L117.672 73.6894L117.632 77.9692L127.609 77.2949ZM122.614 78.352L124.53 78.2226L124.622 68.223L122.707 68.3524L122.614 78.352ZM124.53 78.2226C126.425 78.0945 128.657 77.4432 130.403 75.5927C132.145 73.7457 132.608 71.5466 132.624 69.8808L122.646 70.555C122.646 70.5509 122.647 70.3728 122.746 70.0825C122.853 69.7709 123.059 69.374 123.413 68.9987C124.172 68.1943 124.882 68.2054 124.622 68.223L124.53 78.2226ZM132.624 69.8808C132.644 67.6793 131.861 65.5047 130.822 62.705L121.438 66.8217C122.002 68.3429 122.32 69.2664 122.499 69.9054C122.668 70.5091 122.646 70.6291 122.646 70.555L132.624 69.8808ZM130.813 62.6798L125.441 48.4527L116.075 52.6197L121.447 66.8469L130.813 62.6798ZM120.712 55.5359L126.419 55.1503L126.511 45.1507L120.804 45.5364L120.712 55.5359ZM121.712 52.0333L124.659 61.0679L134.166 57.3023L131.218 48.2677L121.712 52.0333ZM124.675 61.1155C124.944 61.9111 125.236 62.9108 125.47 63.7529C125.584 64.1652 125.68 64.5232 125.748 64.777C125.781 64.9037 125.807 65.0038 125.825 65.071C125.834 65.1046 125.84 65.13 125.844 65.1463C125.847 65.1544 125.848 65.1603 125.849 65.1638C125.849 65.1656 125.85 65.1668 125.85 65.1673C125.85 65.1676 125.85 65.1677 125.85 65.1677C125.85 65.1677 125.85 65.1676 125.85 65.1675C125.85 65.1675 125.85 65.1674 125.85 65.1674C125.85 65.1673 125.85 65.1672 130.688 63.5759C135.526 61.9847 135.526 61.9846 135.526 61.9844C135.526 61.9844 135.526 61.9842 135.526 61.9841C135.526 61.9839 135.526 61.9836 135.525 61.9832C135.525 61.9826 135.525 61.9818 135.525 61.9808C135.524 61.9789 135.524 61.9764 135.523 61.9733C135.521 61.967 135.519 61.9583 135.516 61.9473C135.511 61.9253 135.502 61.894 135.492 61.8542C135.471 61.7746 135.442 61.6608 135.404 61.5193C135.329 61.2369 135.223 60.8416 135.096 60.3857C134.848 59.4916 134.502 58.2959 134.15 57.2547L124.675 61.1155ZM130.642 68.5757L130.721 68.5703L130.814 58.5708L130.734 58.5762L130.642 68.5757ZM130.768 63.5705C135.635 64.2937 135.635 64.2939 135.635 64.2941C135.635 64.2942 135.635 64.2943 135.635 64.2944C135.635 64.2946 135.634 64.2948 135.634 64.2949C135.634 64.2952 135.634 64.2953 135.634 64.2952C135.634 64.295 135.635 64.2943 135.635 64.2929C135.635 64.2902 135.637 64.285 135.638 64.2776C135.642 64.2626 135.647 64.2384 135.655 64.2057C135.669 64.1402 135.692 64.0412 135.722 63.915C135.781 63.6619 135.867 63.3035 135.971 62.8904C136.188 62.0353 136.456 61.0585 136.714 60.3019L127.299 57.7177C126.901 58.8843 126.55 60.1878 126.311 61.1323C126.188 61.6189 126.087 62.0402 126.016 62.3417C125.981 62.4928 125.953 62.6149 125.933 62.7012C125.924 62.7444 125.916 62.7787 125.91 62.8033C125.908 62.8157 125.905 62.8255 125.904 62.8329C125.903 62.8366 125.902 62.8397 125.902 62.8421C125.902 62.8433 125.901 62.8443 125.901 62.8452C125.901 62.8456 125.901 62.8461 125.901 62.8464C125.901 62.8466 125.901 62.8468 125.901 62.8469C125.901 62.8472 125.901 62.8474 130.768 63.5705ZM136.755 60.1758L139.714 50.742L130.217 48.4101L127.258 57.8439L136.755 60.1758ZM134.919 54.5758L140.387 54.2064L140.479 44.2068L135.012 44.5763L134.919 54.5758ZM135.725 47.915L128.387 69.4368L137.802 72.02L145.141 50.4982L135.725 47.915ZM128.389 69.429C128.032 70.4703 127.741 71.1615 127.493 71.6338C127.374 71.8598 127.28 72.006 127.215 72.0964C127.152 72.1839 127.119 72.2154 127.118 72.2158C127.118 72.2165 127.121 72.2129 127.129 72.2068C127.137 72.2008 127.145 72.1954 127.151 72.1916C127.166 72.1821 127.153 72.193 127.091 72.2157C126.95 72.2676 126.592 72.367 125.86 72.4165L125.767 82.4161C128.49 82.232 131.321 81.4962 133.703 79.2173C135.839 77.174 136.964 74.4649 137.799 72.0278L128.389 69.429ZM125.86 72.4165L122.667 72.6323L122.574 82.6318L125.767 82.4161L125.86 72.4165Z" fill="white" mask="url(#path-3-outside-1_470_4435)"/>
</svg>
