<svg width="219" height="65" viewBox="0 0 219 65" fill="none" xmlns="http://www.w3.org/2000/svg">
<path d="M144.126 64.0732C137.548 64.0732 131.724 60.3458 128.898 54.6606H71.1466C68.6913 56.2988 65.8763 57.2578 62.907 57.4575C62.8043 57.4632 62.7015 57.469 62.5987 57.469C62.5987 57.469 58.2191 57.4975 58.1906 57.4975C54.2735 57.4975 50.5791 56.1789 47.627 53.8329C44.6978 57.4233 40.3524 59.7693 35.596 60.089C35.4932 60.0947 35.3904 60.1004 35.2877 60.1004C35.2877 60.1004 30.9081 60.1289 30.8795 60.1289C24.7241 60.1289 19.2139 56.8867 16.2048 51.7609C15.885 51.7152 15.5766 51.6467 15.2797 51.544C15.234 51.5325 15.1941 51.5211 15.1484 51.5097C15.0285 51.4926 14.9086 51.4698 14.7887 51.4469L7.07442 49.803C7.02874 49.7916 6.97735 49.7802 6.93167 49.7688C6.69756 49.7117 6.45774 49.6432 6.22363 49.5576C3.72263 48.6557 2.66058 46.6807 2.08957 45.6247L1.9925 45.4477C1.79265 45.0767 1.61563 44.7742 1.46717 44.5116C0.764841 43.2901 -0.108786 41.7717 0.0111246 39.4942C0.0225447 39.2545 0.0453827 39.0547 0.0625128 38.9177C0.102483 38.5866 0.165291 38.2498 0.256652 37.9245C0.587833 36.703 1.23307 35.6127 2.14096 34.7165C2.14096 34.5967 2.15238 34.4825 2.1638 34.3798C1.91256 33.9231 1.70129 33.5407 1.5357 33.2382L1.31301 32.8329C1.08461 32.4219 0.387985 31.1661 0.393695 29.3738C0.393695 29.0884 0.41653 28.7973 0.45079 28.5062C0.542151 27.0163 0.627803 25.8005 0.684903 25.0528L0.724878 24.5219C0.827658 22.9864 1.35298 21.6565 2.278 20.5548C2.28942 20.5377 2.30084 20.5263 2.31797 20.5091C2.80332 19.8869 3.4143 19.3618 4.10521 18.9851C4.92174 18.5456 5.84677 18.3058 6.78321 18.3001C15.9421 17.3754 25.2437 16.6505 34.4369 16.1367C43.7042 15.623 53.1086 15.3091 62.4103 15.212L80.9107 1.05599C81.8072 0.37102 82.9035 0 84.0341 0H147.141C148.854 0 150.499 0.816251 151.538 2.18048C151.658 2.34031 151.829 2.58005 152.006 2.8255L175.349 16.5135C194.043 17.5809 206.029 18.7739 211.019 20.0639C214.445 20.2751 217.175 23.1291 217.175 26.6111V33.4208C217.917 34.2942 218.471 35.3387 218.762 36.4918C219.447 39.1631 218.551 41.5719 217.363 43.1188C217.158 43.4328 216.935 43.7353 216.689 44.0264C216.627 44.1006 216.558 44.1805 216.49 44.2547C216.444 44.5002 216.381 44.7571 216.29 45.0253C215.964 45.9957 215.085 47.731 212.767 48.7242C211.248 49.4833 210.859 49.706 210.774 49.7573C210.191 50.1112 209.575 50.3909 208.907 50.585C208.61 50.6763 208.301 50.7448 207.982 50.7962C207.97 50.7962 207.959 50.7962 207.947 50.8019C207.445 50.9275 206.571 51.1159 205.601 51.2015C204.242 51.3157 197.618 51.5097 190.172 51.6524L187.511 51.7723C185.124 57.6802 179.523 61.8984 172.911 62.3437C172.808 62.3494 172.705 62.3551 172.602 62.3551C172.602 62.3551 168.223 62.3836 168.194 62.3836C164.905 62.3836 161.736 61.4304 159.035 59.7065C156.255 62.2124 152.68 63.7707 148.826 64.0275C148.723 64.0332 148.62 64.039 148.517 64.039C148.517 64.039 144.138 64.0675 144.109 64.0675L144.126 64.0732Z" fill="white"/>
<path d="M130.17 34.7469L162.859 22.3662L168.402 36.9919L135.713 49.3725C131.676 50.9014 127.155 48.8657 125.626 44.8303C124.097 40.7949 126.133 36.2757 130.17 34.7469Z" fill="#231F20"/>
<path d="M172.785 57.3031C178.975 56.8864 183.868 51.7377 183.868 45.4474C183.868 39.1571 178.546 33.5575 171.974 33.5575C171.946 33.5575 171.917 33.5575 171.889 33.5575L168.251 33.4833V34.1568C163.506 35.7208 160.08 40.1846 160.08 45.4474C160.08 50.7103 163.66 55.3795 168.571 56.8407V57.3373" fill="#231F20"/>
<path d="M183.114 45.4017C183.114 39.2541 178.13 34.2652 171.974 34.2652C171.946 34.2652 171.923 34.2652 171.894 34.2652H168.491V34.8246C164.049 36.2859 160.834 40.4699 160.834 45.4017C160.834 50.3335 164.191 54.7059 168.788 56.0758V56.5382H172.728V56.5096C178.529 56.1215 183.109 51.2981 183.109 45.4017H183.114Z" fill="#231F20"/>
<path d="M168.4 57.3317C174.988 57.3317 180.328 51.993 180.328 45.4075C180.328 38.8219 174.988 33.4833 168.4 33.4833C161.812 33.4833 156.471 38.8219 156.471 45.4075C156.471 51.993 161.812 57.3317 168.4 57.3317Z" fill="#231F20"/>
<path d="M168.4 53.8037C173.039 53.8037 176.799 50.0444 176.799 45.4071C176.799 40.7698 173.039 37.0105 168.4 37.0105C163.761 37.0105 160 40.7698 160 45.4071C160 50.0444 163.761 53.8037 168.4 53.8037Z" fill="#B5B5B6"/>
<path d="M168.4 52.9306C172.556 52.9306 175.926 49.5624 175.926 45.4074C175.926 41.2524 172.556 37.8841 168.4 37.8841C164.243 37.8841 160.874 41.2524 160.874 45.4074C160.874 49.5624 164.243 52.9306 168.4 52.9306Z" fill="#353535"/>
<path d="M168.4 51.3896C171.705 51.3896 174.384 48.7113 174.384 45.4075C174.384 42.1037 171.705 39.4254 168.4 39.4254C165.095 39.4254 162.416 42.1037 162.416 45.4075C162.416 48.7113 165.095 51.3896 168.4 51.3896Z" fill="#B5B5B6"/>
<path d="M169.256 45.767C169.256 46.2636 168.856 46.6632 168.36 46.6632C167.863 46.6632 167.463 46.2636 167.463 45.767C167.463 45.4759 167.6 45.219 167.817 45.0535C167.966 44.9393 168.154 44.8708 168.36 44.8708C168.856 44.8708 169.256 45.2704 169.256 45.767Z" fill="#353535"/>
<path d="M148.62 58.9935C154.81 58.5768 159.703 53.4282 159.703 47.1378C159.703 40.8475 154.382 35.2479 147.809 35.2479C147.781 35.2479 147.752 35.2479 147.724 35.2479L144.086 35.1737V35.8473C139.341 37.4113 135.915 41.875 135.915 47.1378C135.915 52.4007 139.496 57.0699 144.406 58.5312V59.0278" fill="#231F20"/>
<path d="M158.955 47.0976C158.955 40.95 153.97 35.9611 147.815 35.9611C147.787 35.9611 147.764 35.9611 147.735 35.9611H144.332V36.5205C139.89 37.9818 136.675 42.1658 136.675 47.0976C136.675 52.0294 140.032 56.4018 144.629 57.7717V58.234H148.569V58.2055C154.37 57.8174 158.95 52.994 158.95 47.0976H158.955Z" fill="#212121"/>
<path d="M144.235 59.0221C150.823 59.0221 156.163 53.6835 156.163 47.0979C156.163 40.5124 150.823 35.1737 144.235 35.1737C137.647 35.1737 132.307 40.5124 132.307 47.0979C132.307 53.6835 137.647 59.0221 144.235 59.0221Z" fill="#231F20"/>
<path d="M144.235 55.4941C148.874 55.4941 152.634 51.7348 152.634 47.0975C152.634 42.4602 148.874 38.7009 144.235 38.7009C139.596 38.7009 135.835 42.4602 135.835 47.0975C135.835 51.7348 139.596 55.4941 144.235 55.4941Z" fill="#B5B5B6"/>
<path d="M144.235 54.621C148.391 54.621 151.761 51.2527 151.761 47.0978C151.761 42.9428 148.391 39.5745 144.235 39.5745C140.078 39.5745 136.709 42.9428 136.709 47.0978C136.709 51.2527 140.078 54.621 144.235 54.621Z" fill="#353535"/>
<path d="M144.235 53.0799C147.54 53.0799 150.219 50.4017 150.219 47.0979C150.219 43.7941 147.54 41.1158 144.235 41.1158C140.93 41.1158 138.251 43.7941 138.251 47.0979C138.251 50.4017 140.93 53.0799 144.235 53.0799Z" fill="#B5B5B6"/>
<path d="M145.097 47.4636C145.097 47.9602 144.697 48.3598 144.201 48.3598C143.704 48.3598 143.304 47.9602 143.304 47.4636C143.304 47.1725 143.441 46.9156 143.658 46.7501C143.807 46.6359 143.995 46.5674 144.201 46.5674C144.697 46.5674 145.097 46.967 145.097 47.4636Z" fill="#353535"/>
<path d="M143.664 48.6444C144.159 48.6444 144.56 48.2431 144.56 47.7482C144.56 47.2532 144.159 46.852 143.664 46.852C143.169 46.852 142.767 47.2532 142.767 47.7482C142.767 48.2431 143.169 48.6444 143.664 48.6444Z" fill="#DDDDDD"/>
<path d="M62.3246 27.7642H16.6158V46.7265H62.3246V27.7642Z" fill="#231F20"/>
<path d="M62.4102 52.4005C68.5998 51.9838 73.4933 46.8351 73.4933 40.5448C73.4933 34.2545 68.1716 28.6549 61.5994 28.6549C61.5708 28.6549 61.5423 28.6549 61.5137 28.6549L57.8764 28.5807V29.2542C53.1314 30.8183 49.7054 35.282 49.7054 40.5448C49.7054 45.8077 53.2856 50.4769 58.1962 51.9382V52.4348" fill="#231F20"/>
<path d="M72.7454 40.5046C72.7454 34.357 67.7605 29.3681 61.6051 29.3681C61.5766 29.3681 61.5537 29.3681 61.5252 29.3681H58.122V29.9275C53.6796 31.3888 50.4648 35.5728 50.4648 40.5046C50.4648 45.4363 53.8224 49.8087 58.4189 51.1787V51.641H62.3588V51.6125C68.1602 51.2243 72.7396 46.401 72.7396 40.5046H72.7454Z" fill="#231F20"/>
<path d="M58.0306 52.4291C64.6184 52.4291 69.9589 47.0904 69.9589 40.5049C69.9589 33.9193 64.6184 28.5807 58.0306 28.5807C51.4429 28.5807 46.1024 33.9193 46.1024 40.5049C46.1024 47.0904 51.4429 52.4291 58.0306 52.4291Z" fill="#231F20"/>
<path d="M58.0306 48.9011C62.6695 48.9011 66.4301 45.1418 66.4301 40.5045C66.4301 35.8672 62.6695 32.1079 58.0306 32.1079C53.3917 32.1079 49.6312 35.8672 49.6312 40.5045C49.6312 45.1418 53.3917 48.9011 58.0306 48.9011Z" fill="#B5B5B6"/>
<path d="M58.0306 48.028C62.187 48.028 65.5565 44.6597 65.5565 40.5048C65.5565 36.3498 62.187 32.9815 58.0306 32.9815C53.8742 32.9815 50.5048 36.3498 50.5048 40.5048C50.5048 44.6597 53.8742 48.028 58.0306 48.028Z" fill="#353535"/>
<path d="M58.0306 46.4869C61.3355 46.4869 64.0147 43.8087 64.0147 40.5049C64.0147 37.2011 61.3355 34.5228 58.0306 34.5228C54.7257 34.5228 52.0465 37.2011 52.0465 40.5049C52.0465 43.8087 54.7257 46.4869 58.0306 46.4869Z" fill="#B5B5B6"/>
<path d="M58.8872 40.8706C58.8872 41.3672 58.4875 41.7667 57.9907 41.7667C57.4939 41.7667 57.0942 41.3672 57.0942 40.8706C57.0942 40.5794 57.2313 40.3226 57.4483 40.157C57.5967 40.0429 57.7852 39.9744 57.9907 39.9744C58.4875 39.9744 58.8872 40.374 58.8872 40.8706Z" fill="#353535"/>
<path d="M83.9542 5.0575H147.261C147.381 5.0575 147.495 5.11457 147.57 5.2059C147.866 5.59405 148.552 6.60438 148.603 6.63292C157.008 11.5647 165.419 16.4965 173.824 21.4283C173.956 21.5082 174.11 21.5538 174.264 21.5596C190.372 22.4614 208.141 23.8542 211.448 25.4981C211.573 25.5609 211.653 25.6865 211.659 25.8235L212.144 35.7099C212.144 35.7955 212.178 35.8754 212.236 35.9382L212.401 36.138C212.807 36.6175 213.166 36.4691 213.555 37.0741C214.108 37.9246 214.057 39.2318 213.497 40.1565C213.001 40.9727 212.544 40.7672 212.013 41.6406C211.368 42.7023 211.836 43.3302 211.231 43.8553C210.568 44.4204 209.849 43.8268 209.084 44.506C208.707 44.8371 208.673 45.1739 208.141 45.4935C207.765 45.7219 207.416 45.7961 207.251 45.8018C193.718 46.4068 180.185 47.0119 166.652 47.6169C166.493 47.6284 166.241 47.6398 165.939 47.6169C162.912 47.3772 160.606 44.78 159.241 42.0344C157.174 37.879 156.095 36.2236 153.194 35.1676C151.555 34.574 147.284 33.3524 142.134 33.9746C138.919 34.3628 134.773 36.3549 133.026 38.8836C129.897 43.393 130.262 46.4354 130.771 48.3419C130.936 48.964 130.474 49.5805 129.829 49.5805H53.7253C53.3713 49.5805 53.0401 49.3864 52.8688 49.0725C50.956 45.6248 49.2144 42.8336 47.8954 40.8186C43.2531 33.7178 41.4088 32.3992 40.3125 31.7199C37.1548 29.7735 33.9572 29.3111 32.8209 29.1627C31.5304 28.9915 29.629 28.7517 27.2251 29.2598C24.7298 29.7849 22.9197 30.8523 22.2003 31.3432C18.6258 33.7977 16.8443 39.3973 17.5466 45.5849C17.5694 45.7618 17.5409 45.9445 17.4609 46.1043C17.2554 46.5438 16.7586 46.7664 16.2961 46.6294L14.9371 46.2299L14.8515 46.207L7.82242 44.82C7.53121 44.7629 7.27996 44.5745 7.14292 44.312L4.95028 40.1279C4.75043 39.7398 4.82466 39.266 5.13871 38.9635L6.45202 37.702C6.60048 37.5593 6.78891 37.4737 6.99447 37.4566C7.37704 37.428 7.6397 37.0342 7.50837 36.6631L7.13151 35.6071C7.08583 35.4701 7.06298 35.3274 7.08011 35.1847L7.22858 33.6892C7.24571 33.5066 7.21145 33.3239 7.13151 33.1584L5.33856 29.568C5.25291 29.4025 5.21864 29.2141 5.24148 29.0314L5.73255 24.288C5.77823 23.8257 6.14367 23.4603 6.60618 23.4147C15.5195 22.5128 24.8269 21.765 34.4939 21.2228C44.6635 20.6577 54.4562 20.3609 63.8378 20.2866C63.9634 20.2866 64.089 20.2467 64.1861 20.1668" fill="#EA5424"/>
<path d="M109.061 20.5148L70.9867 20.6632C69.9932 20.6632 69.5763 19.3903 70.3814 18.8081L85.296 8.07122C85.5701 7.87714 85.8956 7.76869 86.2325 7.76869L109.038 7.62027C109.935 7.61456 110.671 8.3395 110.671 9.24137V18.9052C110.671 19.7956 109.952 20.5205 109.055 20.5262L109.061 20.5148Z" fill="#231F20"/>
<path d="M109.061 20.5148L70.9867 20.6632C69.9932 20.6632 69.5763 19.3903 70.3814 18.8081L85.296 8.07122C85.5701 7.87714 85.8956 7.76869 86.2325 7.76869L109.038 7.62027C109.935 7.61456 110.671 8.3395 110.671 9.24137V18.9052C110.671 19.7956 109.952 20.5205 109.055 20.5262L109.061 20.5148Z" stroke="black" stroke-width="0.56" stroke-miterlimit="10"/>
<path d="M119.836 7.4658H115.61C114.737 7.4658 114.012 8.14506 113.955 9.0184L113.332 19.0475C113.275 20.0007 114.029 20.8056 114.988 20.8056H131.793C133.34 20.8056 134.042 18.8705 132.86 17.8773L120.904 7.84824C120.607 7.59708 120.23 7.46008 119.836 7.46008V7.4658Z" fill="#231F20" stroke="black" stroke-width="0.57" stroke-miterlimit="10"/>
<path d="M35.0135 55.0372C41.2032 54.6205 46.0967 49.4718 46.0967 43.1815C46.0967 36.8912 40.7749 31.2916 34.2027 31.2916C34.1741 31.2916 34.1456 31.2916 34.117 31.2916L30.4798 31.2174V31.891C25.7347 33.455 22.3087 37.9187 22.3087 43.1815C22.3087 48.4444 25.8889 53.1136 30.7995 54.5749V55.0715" fill="#231F20"/>
<path d="M45.3429 43.1413C45.3429 36.9937 40.3581 32.0048 34.2027 32.0048C34.1741 32.0048 34.1513 32.0048 34.1228 32.0048H30.7196V32.5642C26.2772 34.0255 23.0624 38.2095 23.0624 43.1413C23.0624 48.0731 26.4199 52.4455 31.0165 53.8154V54.2778H34.9564V54.2492C40.7578 53.8611 45.3372 49.0377 45.3372 43.1413H45.3429Z" fill="#212121"/>
<path d="M30.6283 55.0659C37.216 55.0659 42.5565 49.7273 42.5565 43.1417C42.5565 36.5562 37.216 31.2176 30.6283 31.2176C24.0405 31.2176 18.7 36.5562 18.7 43.1417C18.7 49.7273 24.0405 55.0659 30.6283 55.0659Z" fill="#231F20"/>
<path d="M30.6282 51.5378C35.2671 51.5378 39.0277 47.7786 39.0277 43.1412C39.0277 38.5039 35.2671 34.7447 30.6282 34.7447C25.9893 34.7447 22.2288 38.5039 22.2288 43.1412C22.2288 47.7786 25.9893 51.5378 30.6282 51.5378Z" fill="#B5B5B6"/>
<path d="M30.6282 50.6648C34.7846 50.6648 38.154 47.2965 38.154 43.1415C38.154 38.9865 34.7846 35.6183 30.6282 35.6183C26.4718 35.6183 23.1024 38.9865 23.1024 43.1415C23.1024 47.2965 26.4718 50.6648 30.6282 50.6648Z" fill="#353535"/>
<path d="M30.6282 49.1237C33.9331 49.1237 36.6123 46.4454 36.6123 43.1416C36.6123 39.8378 33.9331 37.1595 30.6282 37.1595C27.3233 37.1595 24.6441 39.8378 24.6441 43.1416C24.6441 46.4454 27.3233 49.1237 30.6282 49.1237Z" fill="#B5B5B6"/>
<path d="M31.4847 43.5073C31.4847 44.0039 31.085 44.4035 30.5882 44.4035C30.0915 44.4035 29.6918 44.0039 29.6918 43.5073C29.6918 43.2162 29.8288 42.9593 30.0458 42.7938C30.1943 42.6796 30.3827 42.6111 30.5882 42.6111C31.085 42.6111 31.4847 43.0107 31.4847 43.5073Z" fill="#353535"/>
<path d="M30.0572 44.6881C30.5523 44.6881 30.9537 44.2868 30.9537 43.7919C30.9537 43.297 30.5523 42.8957 30.0572 42.8957C29.5621 42.8957 29.1607 43.297 29.1607 43.7919C29.1607 44.2868 29.5621 44.6881 30.0572 44.6881Z" fill="#DDDDDD"/>
<path d="M47.8953 40.8239C49.2143 42.8388 50.9559 45.6301 52.8688 49.0777C53.0401 49.3917 53.3713 49.5858 53.7253 49.5858H129.828C130.474 49.5858 130.942 48.975 130.771 48.3471C130.262 46.4406 129.897 43.3982 133.026 38.8888C134.779 36.3601 138.919 34.3737 142.134 33.9799C147.284 33.3577 151.555 34.5792 153.194 35.1729C156.095 36.2288 157.174 37.8785 159.241 42.0397C160.605 44.7853 162.907 47.3824 165.939 47.6222C166.241 47.645 166.493 47.6336 166.652 47.6222C180.185 47.0171 193.718 46.4121 207.251 45.807C207.411 45.8013 207.765 45.7271 208.141 45.4988C208.672 45.1791 208.707 44.8423 209.084 44.5113C209.843 43.832 210.568 44.4314 211.231 43.8605C211.842 43.3354 211.368 42.7075 212.013 41.6458C212.544 40.7725 213.001 40.978 213.497 40.1617C214.057 39.237 214.108 37.9356 213.555 37.0793C213.161 36.48 212.807 36.6227 212.401 36.1432L212.236 35.9434C212.184 35.8807 212.15 35.8007 212.144 35.7151L211.91 30.9774L39.1476 31.1829C43.2074 34.1797 44.8291 36.1261 47.8953 40.8239Z" fill="#BA3726"/>
<path d="M7.13146 33.1006C7.2114 33.2661 7.24566 33.4488 7.22853 33.6315L7.08006 35.127C7.06864 35.2697 7.08007 35.4124 7.13146 35.5494L7.50831 36.6054C7.63964 36.9764 7.3827 37.3645 6.99441 37.3988C6.78885 37.4159 6.60042 37.5015 6.45196 37.6442L5.13866 38.9057C4.82461 39.2082 4.74466 39.682 4.95023 40.0702L7.14287 44.2542C7.27991 44.5168 7.53116 44.7051 7.82237 44.7622L14.8514 46.1493C14.88 46.155 14.9085 46.1664 14.9371 46.1721L16.296 46.5717C16.7643 46.7087 17.2553 46.486 17.4609 46.0465C17.5351 45.8867 17.5637 45.704 17.5465 45.5271C16.9641 40.3727 18.1061 35.635 20.5671 32.7752H6.96016L7.13146 33.1177V33.1006Z" fill="#BA3726"/>
<path d="M185.958 34.2711H192.907V27.3243C192.216 28.1178 190.583 29.7731 187.922 30.5951C186.198 31.1259 184.69 31.1088 183.743 31.0175C184.479 32.102 185.221 33.1865 185.958 34.2768V34.2711Z" fill="#BA3726"/>
<path d="M210.928 37.2735H195.636V27.3243C196.676 28.0436 199.074 29.4991 202.46 29.7046C206.811 29.9729 209.946 27.9979 210.928 27.3243V37.2735Z" fill="#BA3726"/>
<path d="M15.8793 45.9729C16.0334 46.2184 15.8165 46.5266 15.5367 46.4695L7.82243 44.8256C7.77675 44.8142 7.71394 44.7971 7.634 44.7685C6.94309 44.5174 6.65759 43.9009 6.18936 43.039C5.22437 41.258 4.76757 40.7957 4.81896 39.7968C4.81896 39.6997 4.83609 39.6141 4.8418 39.5627C4.85322 39.4657 4.87035 39.3744 4.89319 39.2888C5.14443 38.3641 6.06945 37.8846 6.45774 37.7076C6.52626 37.6391 6.63475 37.5592 6.77179 37.4907C6.97735 37.388 7.16578 37.3651 7.27998 37.3594C7.27998 37.3195 7.26856 37.1711 7.37134 37.0398C7.42844 36.9656 7.49696 36.9256 7.53693 36.9028C7.39989 36.4747 7.26856 36.0466 7.13152 35.6185C7.11439 35.5899 7.09155 35.55 7.063 35.4986C6.93167 35.2246 6.93167 34.9506 6.99448 34.5225C7.02874 34.2656 7.08584 33.9517 7.18291 33.5864C7.20575 33.5065 7.19433 33.4151 7.14865 33.3409C6.33212 31.9082 5.74398 30.8237 5.47561 30.3328C5.38996 30.173 5.19582 29.8305 5.19582 29.3738C5.19582 29.2368 5.21295 29.1284 5.22437 29.0599C5.22437 29.0485 5.22437 29.037 5.22437 29.0199C5.34428 26.9422 5.4699 25.4067 5.50987 24.8416C5.52129 24.6532 5.54985 24.208 5.8639 23.8427C5.90958 23.7856 5.95525 23.7457 5.9838 23.7171C6.00664 23.6715 6.06946 23.5516 6.21221 23.4774C6.38351 23.3861 6.54338 23.4146 6.58906 23.426C6.41205 25.2183 6.22934 27.0107 6.05233 28.803C6.05233 28.8544 6.05232 28.9115 6.07516 28.9571L9.03867 36.3034C9.06722 36.3662 9.10719 36.4176 9.17 36.4576C9.48976 36.6573 9.87804 36.9484 10.2663 37.348C10.5975 37.6905 10.8373 38.0273 11.0143 38.3127C12.636 40.8642 14.2576 43.4157 15.8793 45.9729Z" fill="#B5B5B6"/>
<path d="M212.355 26.5999C212.355 25.8118 211.716 25.1729 210.928 25.1729C210.14 25.1729 209.5 25.8118 209.5 26.5999V35.3561C209.5 36.1442 210.14 36.7831 210.928 36.7831C211.716 36.7831 212.355 36.1442 212.355 35.3561V26.5999Z" fill="#B5B5B6"/>
<path d="M195.699 27.7355C195.699 26.9474 195.06 26.3085 194.272 26.3085C193.483 26.3085 192.844 26.9474 192.844 27.7355V36.4917C192.844 37.2798 193.483 37.9187 194.272 37.9187C195.06 37.9187 195.699 37.2798 195.699 36.4917V27.7355Z" fill="#B5B5B6"/>
<path d="M190.281 46.5668C198.486 46.4126 204.464 46.2186 205.481 46.1329C206.406 46.053 207.251 45.8076 207.251 45.8076C207.371 45.7962 207.553 45.7733 207.77 45.7048C208.119 45.6021 208.359 45.4537 208.438 45.4023C208.821 45.1683 209.689 44.7231 210.962 44.0837C211.499 43.8783 211.682 43.6271 211.745 43.433C211.836 43.1533 211.716 42.9593 211.727 42.5483C211.727 42.3257 211.784 42.0174 212.013 41.6407C212.316 41.4637 212.715 41.184 213.086 40.7445C213.258 40.539 213.395 40.3335 213.498 40.1566C213.56 40.0881 214.451 39.1006 214.114 37.782C213.88 36.8744 213.155 36.1609 212.23 35.9383C206.72 36.121 201.21 36.2979 195.705 36.4806C192.742 36.9943 191.131 36.9429 190.874 36.3322C190.794 36.1438 190.846 35.9041 191.023 35.6073C190.977 35.5216 190.794 35.2305 190.418 35.0935C189.949 34.9223 189.544 35.1335 189.481 35.1677C188.773 35.984 188.071 36.8002 187.363 37.6108C187.34 38.5241 187.38 39.6086 187.568 40.813C187.705 41.6921 187.899 42.4798 188.105 43.1647C188.071 43.3246 187.814 44.6203 188.699 45.6535C189.276 46.327 190.018 46.5097 190.281 46.5611V46.5668Z" fill="#B5B5B6"/>
<path d="M138.548 14.7836C140.292 14.7836 141.705 13.3704 141.705 11.6271C141.705 9.88373 140.292 8.47049 138.548 8.47049C136.804 8.47049 135.39 9.88373 135.39 11.6271C135.39 13.3704 136.804 14.7836 138.548 14.7836Z" fill="white"/>
<path d="M138.548 13.6247C137.446 13.6247 136.543 12.7285 136.543 11.6211C136.543 10.5138 137.44 9.61758 138.548 9.61758C139.655 9.61758 140.546 10.5138 140.546 11.6211C140.546 12.7285 139.65 13.6247 138.548 13.6247ZM138.548 10.4395C137.897 10.4395 137.36 10.9704 137.36 11.6268C137.36 12.2833 137.891 12.8141 138.548 12.8141C139.204 12.8141 139.735 12.2833 139.735 11.6268C139.735 10.9704 139.204 10.4395 138.548 10.4395Z" fill="#E53F2C"/>
<path d="M138.633 9.74907L139.05 11.0848C139.062 11.1133 139.084 11.1361 139.113 11.1475L140.421 11.5585C140.512 11.5871 140.506 11.7126 140.421 11.7355L139.05 12.0894C139.016 12.0951 138.993 12.1236 138.982 12.1579L138.633 13.4936C138.611 13.5849 138.479 13.5849 138.456 13.4936L138.108 12.1579C138.102 12.1236 138.074 12.1008 138.04 12.0894L136.669 11.7298C136.578 11.7069 136.578 11.5814 136.669 11.5528L137.977 11.1361C137.977 11.1361 138.028 11.1019 138.04 11.0733L138.462 9.74335C138.491 9.65773 138.611 9.65773 138.639 9.74335L138.633 9.74907Z" fill="black"/>
<path d="M137.166 8.97897L137.691 9.68678L137.611 9.73244L137.514 9.59545L137.451 9.63541L137.531 9.78381L137.457 9.82948L137.052 9.04747L137.16 8.97897H137.166ZM137.411 9.5612L137.468 9.52695L137.206 9.15022L137.154 9.07601L137.194 9.15592L137.411 9.5612Z" fill="#231F20"/>
<path d="M137.371 8.86461L137.457 8.83037L137.668 9.32697C137.754 9.53817 137.788 9.57242 137.811 9.561C137.834 9.54958 137.834 9.50392 137.743 9.29843L137.531 8.80183L137.611 8.76758L137.84 9.30414C137.931 9.52105 137.92 9.59525 137.84 9.6295C137.754 9.66374 137.697 9.62379 137.606 9.40688L137.377 8.87032L137.371 8.86461Z" fill="#231F20"/>
<path d="M137.942 8.75585L138.137 9.52644L138.051 9.54927L137.857 8.77869L137.777 8.80152L137.754 8.7216L138.005 8.65881L138.028 8.73873L137.948 8.76155L137.942 8.75585Z" fill="#231F20"/>
<path d="M138.251 8.61358C138.336 8.60216 138.393 8.65924 138.433 9.04169C138.473 9.42413 138.433 9.48692 138.348 9.49833C138.262 9.50975 138.211 9.45267 138.171 9.07023C138.131 8.68779 138.171 8.625 138.256 8.61358H138.251ZM138.256 8.68779C138.256 8.68779 138.222 8.75057 138.256 9.05881C138.291 9.36705 138.308 9.42413 138.336 9.42413C138.365 9.42413 138.371 9.36134 138.336 9.0531C138.302 8.74487 138.285 8.68779 138.256 8.68779Z" fill="#231F20"/>
<path d="M138.548 8.60202H138.639L138.61 9.40116H138.719V9.48677H138.519L138.548 8.60202Z" fill="#231F20"/>
<path d="M138.753 9.49223L138.873 8.6246L138.965 8.63602L138.845 9.50936L138.753 9.49794V9.49223Z" fill="#231F20"/>
<path d="M139.233 8.77344L139.039 9.54403L138.953 9.52119L139.147 8.75061L139.067 8.72777L139.09 8.64786L139.341 8.71065L139.319 8.79056L139.239 8.76773L139.233 8.77344Z" fill="#231F20"/>
<path d="M139.313 9.64684L139.136 9.57835L139.461 8.76208L139.638 8.83059L139.61 8.90479L139.518 8.87054L139.41 9.14453L139.49 9.17878L139.456 9.25869L139.376 9.22445L139.25 9.53838L139.341 9.57264L139.313 9.64684Z" fill="#231F20"/>
<path d="M145.725 20.6578L145.154 20.224L144.595 20.6635L143.664 19.7274L142.733 20.6635L142.174 20.224L141.603 20.6578L140.461 20.2411L141.066 22.1248H143.664H146.262L146.867 20.2411L145.725 20.6578Z" fill="#FAF075"/>
<path d="M145.074 12.9399L144.954 13.5221C144.954 13.5221 144.949 13.5449 144.943 13.5563L143.795 15.7539C143.772 15.7996 143.727 15.8281 143.675 15.8281H142.962C142.859 15.8281 142.79 15.7197 142.842 15.6284L143.824 13.8018C143.852 13.7504 143.841 13.7162 143.795 13.7162H143.356C143.27 13.7162 143.201 13.6362 143.224 13.5506L143.367 12.8885C143.378 12.8257 143.435 12.78 143.498 12.78H144.949C145.034 12.78 145.097 12.8599 145.08 12.9456L145.074 12.9399Z" fill="white" stroke="black" stroke-width="0.15" stroke-miterlimit="10"/>
<path d="M144.954 14.9889L145.194 13.8587C145.325 13.2422 145.782 12.7513 146.764 12.7513C146.913 12.7513 147.107 12.7513 147.261 12.7913C147.335 12.8084 147.381 12.8826 147.364 12.9511L147.238 13.5447C147.221 13.6189 147.153 13.6646 147.073 13.6475C146.959 13.6247 146.804 13.6189 146.684 13.6189C146.513 13.6189 146.171 13.6475 146.119 13.8929L146.102 13.9728C146.091 14.0128 146.113 14.0242 146.153 14.0014C146.262 13.9386 146.365 13.8986 146.519 13.8986C147.278 13.8986 147.221 14.3553 147.13 14.7777L147.084 14.9889C146.993 15.4113 146.742 15.8679 145.828 15.8679C144.914 15.8679 144.857 15.4113 144.949 14.9889H144.954ZM145.862 15.0973C145.834 15.2515 146.091 15.2515 146.125 15.0973L146.228 14.6293C146.273 14.4409 146.011 14.4409 145.965 14.6293L145.862 15.0973Z" fill="white" stroke="black" stroke-width="0.15" stroke-miterlimit="10"/>
<path d="M159.909 16.564C159.932 16.604 159.96 16.6554 160 16.7239C160.092 16.8723 160.389 17.3175 161.177 17.8484C161.616 18.1452 161.765 18.168 162.17 18.4991C162.381 18.6703 162.49 18.7845 162.553 18.8587C162.815 19.1555 162.964 19.4523 163.044 19.6578C162.187 20.4969 161.336 21.3417 160.48 22.1808C160.406 21.9582 160.314 21.7812 160.24 21.6556C160.063 21.3588 159.863 21.1647 159.76 21.0734C159.681 20.9992 159.595 20.9307 159.458 20.8394C158.961 20.4969 158.818 20.5369 158.447 20.2857C158.299 20.1887 157.962 19.9375 157.682 19.5151C157.562 19.3325 157.482 19.1669 157.436 19.047C158.259 18.2194 159.081 17.3917 159.909 16.5583V16.564Z" fill="white"/>
<path d="M160.474 22.2208L160.463 22.1922C160.4 22.0096 160.32 21.8326 160.223 21.6728C160.092 21.4559 159.932 21.2561 159.749 21.0963C159.663 21.0164 159.572 20.9479 159.446 20.8623C159.178 20.6796 159.012 20.6054 158.858 20.5369C158.727 20.4798 158.607 20.4227 158.436 20.3143C158.224 20.1716 157.916 19.9204 157.665 19.538C157.568 19.3896 157.482 19.2297 157.419 19.0699V19.0585V19.0471L159.909 16.5412L159.92 16.5641C159.949 16.6154 159.983 16.6725 160.012 16.7239C160.246 17.0949 160.651 17.4831 161.182 17.8427C161.354 17.9568 161.485 18.0367 161.599 18.0995C161.776 18.2023 161.93 18.2936 162.176 18.4877C162.393 18.6589 162.501 18.7788 162.564 18.8473C162.775 19.0813 162.941 19.3553 163.061 19.6521V19.6635V19.675L160.474 22.2208ZM157.459 19.0585C157.522 19.2183 157.602 19.3667 157.699 19.5094C157.95 19.8919 158.253 20.1373 158.459 20.2743C158.624 20.3885 158.744 20.4399 158.875 20.4969C159.035 20.5654 159.201 20.6396 159.469 20.828C159.595 20.9136 159.686 20.9821 159.772 21.062C159.955 21.2276 160.12 21.4331 160.251 21.65C160.349 21.8098 160.423 21.9753 160.486 22.1466L163.015 19.6521C162.895 19.361 162.735 19.0985 162.536 18.8701C162.473 18.8016 162.364 18.6818 162.153 18.5105C161.907 18.3107 161.759 18.2251 161.582 18.1224C161.468 18.0539 161.336 17.9797 161.159 17.8598C160.623 17.5002 160.212 17.1063 159.977 16.7296C159.949 16.6839 159.92 16.6383 159.897 16.5926L157.454 19.0528L157.459 19.0585Z" fill="white"/>
<path d="M159.92 16.5313L153.868 22.5816L153.896 22.6098L159.949 16.5595L159.92 16.5313Z" fill="white"/>
<path d="M160.48 17.3348C160.406 17.2606 160.337 17.1807 160.263 17.0951C160.126 16.9295 160.006 16.7526 159.903 16.5642L159.937 16.5471C160.04 16.7297 160.154 16.9067 160.291 17.0722C160.68 17.546 161.091 17.78 161.485 18.0084C161.896 18.2424 162.279 18.465 162.638 18.9217C162.81 19.1386 162.947 19.384 163.061 19.6523L163.027 19.6694C162.918 19.4068 162.775 19.1614 162.61 18.9502C162.256 18.4993 161.873 18.2823 161.468 18.0483C161.142 17.8599 160.805 17.6659 160.48 17.3405V17.3348Z" fill="white"/>
<path d="M157.985 19.9439C157.945 19.9039 157.91 19.864 157.87 19.8183C157.676 19.5957 157.516 19.3446 157.402 19.0591L157.436 19.042C157.551 19.3217 157.711 19.5729 157.899 19.7898C158.236 20.1722 158.59 20.3492 158.938 20.5261C159.275 20.6974 159.623 20.8686 159.949 21.2282C160.183 21.4908 160.371 21.8047 160.497 22.17L160.463 22.1815C160.337 21.8219 160.154 21.5079 159.92 21.2568C159.601 20.9029 159.252 20.7316 158.921 20.5604C158.613 20.4063 158.293 20.2464 157.985 19.9382V19.9439Z" fill="white"/>
<path d="M160.371 17.1867L159.84 17.6947C159.903 17.7689 159.977 17.8545 160.069 17.9401C160.177 18.0372 160.28 18.1171 160.371 18.1741C160.543 18.0029 160.72 17.8317 160.891 17.6547C160.811 17.5919 160.72 17.5234 160.628 17.4435C160.531 17.3522 160.446 17.2666 160.371 17.1809V17.1867Z" fill="#231F20"/>
<path d="M160.006 17.8942C159.943 17.8314 159.886 17.7687 159.835 17.7002L160.383 17.1693H160.389C160.468 17.2663 160.554 17.3577 160.645 17.4376C160.731 17.5118 160.817 17.586 160.908 17.6488H160.92L160.383 18.1853H160.377C160.269 18.1111 160.172 18.0312 160.074 17.9456C160.057 17.9285 160.04 17.9114 160.017 17.8942H160.006ZM159.852 17.6945C159.92 17.7801 159.995 17.86 160.074 17.9342C160.166 18.0198 160.263 18.094 160.366 18.1625L160.874 17.6602C160.788 17.5974 160.703 17.5289 160.623 17.4547C160.537 17.3748 160.451 17.2892 160.371 17.2036L159.852 17.7002V17.6945Z" fill="#231F20"/>
<path d="M161.513 18.0537L161.011 18.556L161.633 18.9556L162.147 18.459L161.513 18.0537Z" fill="#231F20"/>
<path d="M160.994 18.5558L161.513 18.0421L162.17 18.4531L161.639 18.9668L160.999 18.5558H160.994ZM161.513 18.0649L161.022 18.5501L161.628 18.9382L162.13 18.4531L161.508 18.0592L161.513 18.0649Z" fill="#231F20"/>
<path d="M160.497 22.1982L160.469 22.1697L162.536 20.1319C162.49 20.0063 162.427 19.8865 162.359 19.7723C162.29 19.6582 162.21 19.5554 162.124 19.4527L162.113 19.4412L162.633 18.9503L162.661 18.9789L162.164 19.4412C162.25 19.5383 162.324 19.641 162.393 19.7495C162.461 19.8579 162.518 19.9778 162.564 20.0977L163.027 19.641L163.055 19.6696L160.491 22.1925L160.497 22.1982Z" fill="white"/>
<path d="M162.558 20.1321C162.507 20.0237 162.444 19.8981 162.37 19.7725C162.296 19.6469 162.216 19.5328 162.142 19.4415C162.313 19.2816 162.478 19.1218 162.65 18.962C162.718 19.0533 162.792 19.1675 162.867 19.293C162.941 19.4243 162.998 19.5442 163.044 19.6584C162.884 19.8182 162.724 19.978 162.558 20.1378V20.1321Z" fill="#231F20"/>
<path d="M158.339 20.2179C158.253 20.1551 158.156 20.0809 158.053 19.9839C157.956 19.8926 157.882 19.8069 157.819 19.727L158.31 19.1905C158.373 19.2704 158.447 19.356 158.544 19.4416C158.647 19.5387 158.75 19.6129 158.841 19.6642C158.676 19.8469 158.504 20.0296 158.339 20.2122V20.2179Z" fill="#231F20"/>
<path d="M159.629 20.965C159.543 20.9022 159.452 20.8337 159.344 20.7652C159.212 20.6853 159.081 20.6168 158.967 20.5712C159.132 20.4056 159.298 20.2401 159.464 20.0688C159.629 20.1373 159.812 20.2401 159.995 20.3885C160.029 20.417 160.057 20.4399 160.086 20.4684L159.629 20.965Z" fill="#231F20"/>
<path d="M160.48 22.1813C160.434 22.0557 160.377 21.913 160.297 21.7646C160.234 21.6448 160.166 21.5363 160.097 21.4507L160.606 20.9541C160.674 21.0283 160.754 21.1196 160.828 21.2395C160.925 21.3936 160.982 21.542 161.017 21.6562C160.84 21.8331 160.657 22.0101 160.48 22.187V22.1813Z" fill="#231F20"/>
<path d="M159.344 18.1911C159.275 18.1169 159.201 18.0198 159.132 17.9057C159.047 17.7687 158.99 17.6431 158.944 17.5347C159.115 17.3634 159.287 17.1979 159.458 17.0266C159.509 17.1465 159.572 17.2835 159.652 17.4262C159.709 17.529 159.772 17.6146 159.829 17.6945C159.663 17.86 159.498 18.0256 159.338 18.1911H159.344Z" fill="#231F20"/>
<path d="M160.491 19.065C160.389 19.0079 160.28 18.9451 160.166 18.8766C160.057 18.8082 159.96 18.7397 159.869 18.6712C160.035 18.5113 160.2 18.3515 160.366 18.1917C160.457 18.2545 160.554 18.3173 160.663 18.38C160.777 18.4485 160.891 18.5056 160.994 18.557C160.828 18.7282 160.657 18.8938 160.491 19.065Z" fill="#231F20"/>
<path d="M161.633 19.9374C161.576 19.8632 161.496 19.7719 161.399 19.6863C161.296 19.595 161.199 19.5208 161.114 19.4694C161.285 19.3096 161.462 19.144 161.633 18.9842C161.707 19.0413 161.787 19.1041 161.873 19.1783C161.97 19.2696 162.056 19.3609 162.124 19.4408C161.959 19.6064 161.799 19.7719 161.633 19.9374Z" fill="#231F20"/>
<path d="M161.097 19.4694L161.633 18.9671H161.639C161.725 19.0299 161.805 19.0984 161.879 19.1669C161.97 19.2468 162.05 19.3381 162.13 19.4352L161.628 19.9489V19.9375C161.553 19.8461 161.473 19.7605 161.388 19.6863C161.302 19.6064 161.205 19.5322 161.102 19.4694H161.091H161.097ZM161.633 18.9956L161.125 19.4694C161.222 19.5322 161.319 19.6007 161.405 19.6806C161.491 19.7548 161.565 19.8404 161.633 19.9261L162.107 19.4466C162.033 19.3552 161.953 19.2696 161.862 19.1897C161.787 19.1212 161.713 19.0584 161.633 19.0013V18.9956Z" fill="#231F20"/>
<path d="M159.349 19.1797C159.264 19.1226 159.172 19.0484 159.081 18.9571C158.984 18.8658 158.898 18.7744 158.835 18.6888C159.007 18.5233 159.178 18.3578 159.344 18.1865C159.412 18.2664 159.492 18.3521 159.589 18.4377C159.686 18.529 159.777 18.6032 159.869 18.666C159.698 18.8372 159.526 19.0085 159.355 19.1797H159.349Z" fill="#231F20"/>
<path d="M159.018 18.9167C158.95 18.8482 158.887 18.774 158.824 18.6998L159.349 18.1804H159.355C159.429 18.2774 159.515 18.3573 159.601 18.4372C159.686 18.5171 159.783 18.5913 159.875 18.6655H159.886L159.355 19.1964H159.349C159.252 19.1222 159.161 19.048 159.075 18.9738C159.058 18.9567 159.041 18.9395 159.024 18.9224L159.018 18.9167ZM158.847 18.6941C158.921 18.7854 159.001 18.871 159.087 18.9567C159.167 19.0366 159.258 19.1051 159.349 19.1736L159.852 18.677C159.76 18.6085 159.669 18.5343 159.583 18.4544C159.498 18.3801 159.418 18.2945 159.344 18.2089L158.847 18.6941Z" fill="#231F20"/>
<path d="M160.606 19.9725C160.52 19.904 160.429 19.8298 160.32 19.7613C160.206 19.6814 160.092 19.6186 159.989 19.5672C160.154 19.4017 160.326 19.2419 160.491 19.0763C160.588 19.1448 160.686 19.2076 160.788 19.2761C160.891 19.3446 160.988 19.4074 161.085 19.4702C160.925 19.6414 160.765 19.807 160.606 19.9782V19.9725Z" fill="#231F20"/>
<path d="M159.972 19.5726L160.491 19.0646H160.497C160.594 19.1388 160.697 19.2016 160.794 19.2701C160.891 19.3329 160.994 19.4014 161.091 19.4641H161.102L160.606 19.9893H160.6C160.508 19.9094 160.411 19.8352 160.314 19.7724C160.206 19.7039 160.097 19.6354 159.983 19.5783H159.972V19.5726ZM160.491 19.0931L160.006 19.5669C160.114 19.624 160.223 19.6868 160.326 19.7553C160.423 19.818 160.514 19.8865 160.606 19.9607L161.074 19.4699C160.977 19.4071 160.88 19.3443 160.783 19.2815C160.686 19.2187 160.588 19.1502 160.491 19.0874V19.0931Z" fill="#231F20"/>
<path d="M161.536 21.142C161.502 21.0393 161.451 20.908 161.365 20.7653C161.285 20.6283 161.199 20.5255 161.125 20.4456C161.291 20.2858 161.462 20.1203 161.628 19.9604C161.702 20.0404 161.787 20.1431 161.867 20.2801C161.947 20.4228 161.999 20.5484 162.033 20.6568C161.867 20.8224 161.702 20.9822 161.536 21.1477V21.142Z" fill="#231F20"/>
<path d="M161.531 21.1594V21.1423C161.485 21.011 161.428 20.8854 161.359 20.7655C161.291 20.6514 161.211 20.5429 161.119 20.4459H161.114L161.633 19.9379H161.639C161.73 20.0406 161.81 20.1491 161.879 20.2632C161.947 20.3831 162.004 20.5087 162.044 20.64L161.531 21.1537V21.1594ZM161.142 20.4459C161.234 20.5429 161.308 20.6457 161.376 20.7598C161.445 20.874 161.502 20.9939 161.542 21.1251L162.027 20.6514C161.987 20.5258 161.93 20.4002 161.867 20.2861C161.805 20.1776 161.725 20.0692 161.639 19.9778L161.148 20.4516L161.142 20.4459Z" fill="#231F20"/>
<path d="M158.31 19.1905C158.241 19.0934 158.162 18.9793 158.093 18.848C158.036 18.7395 157.99 18.6368 157.956 18.5398C158.127 18.3742 158.293 18.2087 158.464 18.0374C158.504 18.1402 158.556 18.2544 158.624 18.3799C158.687 18.4941 158.755 18.5968 158.818 18.6882C158.653 18.8537 158.487 19.0249 158.316 19.1905H158.31Z" fill="#231F20"/>
<path d="M158.31 19.1962C158.224 19.0878 158.15 18.9679 158.087 18.848C158.036 18.751 157.99 18.6482 157.95 18.5398L158.47 18.0204V18.0318C158.521 18.1459 158.573 18.2601 158.63 18.3685C158.687 18.4713 158.75 18.574 158.824 18.6711L158.31 19.1962ZM157.968 18.5455C158.007 18.6482 158.053 18.7453 158.105 18.8423C158.167 18.9565 158.236 19.0706 158.316 19.1791L158.801 18.6882C158.733 18.5912 158.67 18.4941 158.613 18.3857C158.556 18.2772 158.504 18.1688 158.459 18.0603L157.968 18.5455Z" fill="#231F20"/>
<path d="M159.463 20.07C159.372 20.0129 159.275 19.9558 159.178 19.893C159.064 19.8188 158.955 19.7446 158.852 19.6647C159.018 19.5106 159.184 19.3565 159.349 19.1966C159.441 19.248 159.526 19.3051 159.618 19.3565C159.732 19.4249 159.846 19.4934 159.955 19.5619C159.789 19.7275 159.623 19.893 159.458 20.0642L159.463 20.07Z" fill="#231F20"/>
<path d="M158.841 19.6699L159.355 19.1905H159.361C159.452 19.2475 159.538 19.2989 159.629 19.356C159.743 19.4245 159.858 19.493 159.966 19.5615H159.977L159.469 20.0809H159.464C159.366 20.0181 159.275 19.9611 159.178 19.8983C159.07 19.8241 158.961 19.7499 158.853 19.6699H158.841ZM159.355 19.2133L158.87 19.6642C158.972 19.7384 159.081 19.8126 159.184 19.8811C159.275 19.9382 159.366 20.001 159.458 20.0524L159.937 19.5672C159.829 19.4987 159.72 19.4302 159.612 19.3674C159.526 19.316 159.435 19.2647 159.349 19.2133H159.355Z" fill="#231F20"/>
<path d="M160.611 20.936C160.543 20.8618 160.463 20.7819 160.377 20.6963C160.28 20.6107 160.189 20.5308 160.103 20.468C160.274 20.3081 160.44 20.154 160.611 19.9942C160.691 20.0399 160.777 20.1084 160.868 20.1883C160.965 20.2796 161.045 20.3652 161.102 20.4451C160.937 20.6107 160.777 20.7762 160.611 20.936Z" fill="#231F20"/>
<path d="M160.086 20.4685L160.611 19.9833H160.617C160.708 20.0461 160.794 20.1089 160.874 20.1831C160.96 20.263 161.04 20.3487 161.114 20.44L161.108 20.4514L160.611 20.9537H160.606C160.531 20.8624 160.451 20.7825 160.371 20.7083C160.286 20.6284 160.189 20.5484 160.097 20.4799H160.086V20.4685ZM160.611 20.0062L160.114 20.4685C160.206 20.537 160.297 20.6169 160.383 20.6911C160.463 20.7653 160.537 20.8395 160.611 20.9195L161.091 20.44C161.022 20.3487 160.942 20.2687 160.862 20.1945C160.783 20.126 160.703 20.0633 160.611 20.0062Z" fill="#231F20"/>
<path d="M152.429 16.6607C152.406 16.7006 152.377 16.752 152.337 16.8205C152.246 16.9689 151.949 17.4141 151.161 17.945C150.721 18.2418 150.573 18.2646 150.168 18.5957C149.956 18.7669 149.848 18.8811 149.785 18.9553C149.522 19.2521 149.374 19.5489 149.294 19.7544C150.15 20.5935 151.001 21.4383 151.858 22.2774C151.932 22.0548 152.023 21.8778 152.098 21.7523C152.275 21.4554 152.474 21.2614 152.577 21.17C152.657 21.0958 152.743 21.0273 152.88 20.936C153.377 20.5935 153.519 20.6335 153.891 20.3823C154.039 20.2853 154.376 20.0341 154.656 19.6117C154.776 19.4291 154.856 19.2635 154.901 19.1437C154.079 18.316 153.257 17.4883 152.429 16.6549V16.6607Z" fill="white"/>
<path d="M151.863 22.3121L149.271 19.7549V19.7435C149.397 19.4467 149.562 19.1727 149.768 18.9387C149.831 18.8645 149.939 18.7503 150.156 18.5791C150.402 18.3793 150.556 18.2936 150.733 18.1909C150.847 18.1224 150.978 18.0482 151.15 17.934C151.681 17.5744 152.086 17.1863 152.32 16.8153C152.355 16.7639 152.383 16.7068 152.412 16.6554L152.423 16.6326L154.918 19.1442V19.1556C154.85 19.3211 154.764 19.4752 154.667 19.6236C154.416 20.0061 154.108 20.2572 153.896 20.3999C153.725 20.5141 153.605 20.5655 153.474 20.6226C153.314 20.691 153.154 20.7652 152.886 20.9479C152.76 21.0335 152.674 21.102 152.583 21.1819C152.4 21.3475 152.24 21.5473 152.109 21.7585C152.012 21.924 151.932 22.0952 151.869 22.2779L151.858 22.3064L151.863 22.3121ZM149.317 19.7435L151.846 22.2379C151.909 22.061 151.983 21.8954 152.08 21.7413C152.212 21.5244 152.377 21.3189 152.56 21.1534C152.646 21.0735 152.737 21.005 152.863 20.9194C153.137 20.731 153.302 20.6625 153.457 20.5883C153.582 20.5312 153.708 20.4798 153.873 20.3657C154.085 20.223 154.387 19.9775 154.633 19.6008C154.724 19.4581 154.804 19.3097 154.873 19.1499L152.429 16.6897C152.406 16.7353 152.377 16.781 152.349 16.8267C152.115 17.2034 151.704 17.5916 151.167 17.9569C150.99 18.0767 150.864 18.1509 150.744 18.2194C150.567 18.3222 150.419 18.4078 150.173 18.6076C149.962 18.7788 149.854 18.893 149.791 18.9672C149.585 19.1955 149.425 19.4581 149.311 19.7492L149.317 19.7435Z" fill="white"/>
<path d="M152.409 16.6235L152.38 16.6518L158.433 22.7021L158.461 22.6738L152.409 16.6235Z" fill="white"/>
<path d="M151.852 17.4319C151.926 17.3577 151.995 17.2778 152.069 17.1922C152.206 17.0267 152.326 16.8497 152.429 16.6613L152.395 16.6442C152.292 16.8269 152.178 17.0038 152.04 17.1694C151.652 17.6431 151.241 17.8772 150.847 18.1055C150.436 18.3395 150.053 18.5621 149.694 19.0188C149.522 19.2357 149.385 19.4811 149.271 19.7494L149.305 19.7665C149.414 19.504 149.557 19.2585 149.722 19.0473C150.076 18.5964 150.459 18.3795 150.864 18.1454C151.19 17.9571 151.527 17.763 151.852 17.4376V17.4319Z" fill="white"/>
<path d="M154.347 20.0403C154.387 20.0004 154.422 19.9604 154.462 19.9148C154.656 19.6921 154.816 19.441 154.93 19.1556L154.896 19.1385C154.781 19.4182 154.621 19.6693 154.433 19.8862C154.096 20.2687 153.742 20.4456 153.394 20.6226C153.057 20.7938 152.709 20.965 152.383 21.3247C152.149 21.5872 151.961 21.9012 151.835 22.2665L151.869 22.2779C151.995 21.9183 152.178 21.6044 152.412 21.3532C152.731 20.9993 153.08 20.8281 153.411 20.6568C153.719 20.5027 154.039 20.3429 154.347 20.0346V20.0403Z" fill="white"/>
<path d="M151.966 17.2777L152.497 17.7857C152.434 17.8599 152.36 17.9456 152.269 18.0312C152.16 18.1282 152.058 18.2081 151.966 18.2652C151.795 18.094 151.618 17.9227 151.447 17.7458C151.527 17.683 151.618 17.6145 151.709 17.5346C151.806 17.4432 151.892 17.3576 151.966 17.272V17.2777Z" fill="#231F20"/>
<path d="M152.275 18.043C152.183 18.1287 152.08 18.2086 151.972 18.2828H151.966L151.43 17.7576H151.441C151.532 17.6834 151.618 17.6149 151.704 17.5407C151.795 17.4608 151.881 17.3695 151.961 17.2782H151.966L152.514 17.7919C152.463 17.8661 152.4 17.9289 152.343 17.9917C152.326 18.0088 152.309 18.0259 152.286 18.043H152.275ZM151.966 17.2953C151.886 17.3866 151.806 17.4722 151.715 17.5464C151.635 17.6206 151.549 17.6891 151.464 17.7519L151.972 18.2542C152.075 18.1857 152.172 18.1058 152.263 18.0259C152.343 17.9517 152.417 17.8718 152.486 17.7862L151.966 17.2896V17.2953Z" fill="#231F20"/>
<path d="M150.824 18.1513L151.327 18.6536L150.704 19.0532L150.185 18.5566L150.824 18.1513Z" fill="#231F20"/>
<path d="M150.704 19.0644L150.173 18.5507L150.83 18.1397L151.35 18.6534L150.71 19.0644H150.704ZM150.202 18.5564L150.704 19.0416L151.31 18.6534L150.819 18.1682L150.196 18.5621L150.202 18.5564Z" fill="#231F20"/>
<path d="M151.841 22.2899L151.869 22.2614L149.802 20.2236C149.848 20.098 149.911 19.9781 149.979 19.864C150.048 19.7498 150.128 19.6471 150.213 19.5443L150.225 19.5329L149.705 19.042L149.677 19.0706L150.173 19.5329C150.088 19.63 150.013 19.7327 149.945 19.8412C149.876 19.9496 149.819 20.0695 149.774 20.1893L149.311 19.7327L149.283 19.7612L151.846 22.2842L151.841 22.2899Z" fill="white"/>
<path d="M149.774 20.2293C149.825 20.1208 149.888 19.9952 149.962 19.8697C150.036 19.7441 150.116 19.6299 150.19 19.5386C150.019 19.3788 149.854 19.2189 149.682 19.0591C149.614 19.1504 149.539 19.2646 149.465 19.3902C149.391 19.5215 149.334 19.6413 149.288 19.7555C149.448 19.9153 149.608 20.0751 149.774 20.235V20.2293Z" fill="#231F20"/>
<path d="M153.993 20.3151C154.079 20.2523 154.176 20.1781 154.279 20.081C154.376 19.9897 154.45 19.9041 154.513 19.8242L154.022 19.2876C153.959 19.3675 153.885 19.4531 153.788 19.5388C153.685 19.6358 153.582 19.71 153.491 19.7614C153.656 19.944 153.828 20.1267 153.993 20.3093V20.3151Z" fill="#231F20"/>
<path d="M152.709 21.0621C152.794 20.9994 152.886 20.9309 152.994 20.8624C153.125 20.7825 153.257 20.714 153.371 20.6683C153.205 20.5028 153.04 20.3372 152.874 20.166C152.709 20.2345 152.526 20.3372 152.343 20.4856C152.309 20.5142 152.28 20.537 152.252 20.5655L152.709 21.0621Z" fill="#231F20"/>
<path d="M151.852 22.2784C151.898 22.1529 151.955 22.0102 152.035 21.8618C152.098 21.7419 152.166 21.6334 152.235 21.5478L151.726 21.0512C151.658 21.1254 151.578 21.2167 151.504 21.3366C151.407 21.4907 151.35 21.6391 151.315 21.7533C151.492 21.9303 151.675 22.1072 151.852 22.2841V22.2784Z" fill="#231F20"/>
<path d="M152.988 18.2828C153.057 18.2086 153.131 18.1115 153.2 17.9974C153.285 17.8604 153.342 17.7348 153.388 17.6263C153.217 17.4551 153.045 17.2896 152.874 17.1183C152.823 17.2382 152.76 17.3752 152.68 17.5179C152.623 17.6206 152.56 17.7063 152.503 17.7862C152.669 17.9517 152.834 18.1172 152.994 18.2828H152.988Z" fill="#231F20"/>
<path d="M151.846 19.1615C151.949 19.1044 152.058 19.0416 152.172 18.9731C152.28 18.9046 152.377 18.8361 152.469 18.7676C152.303 18.6078 152.138 18.448 151.972 18.2881C151.881 18.3509 151.784 18.4137 151.675 18.4765C151.561 18.545 151.447 18.6021 151.344 18.6535C151.509 18.8247 151.681 18.9902 151.846 19.1615Z" fill="#231F20"/>
<path d="M150.704 20.0295C150.761 19.9553 150.841 19.864 150.938 19.7784C151.041 19.687 151.138 19.6128 151.224 19.5615C151.053 19.4016 150.876 19.2361 150.704 19.0763C150.63 19.1333 150.55 19.1961 150.464 19.2703C150.367 19.3617 150.282 19.453 150.213 19.5329C150.379 19.6984 150.539 19.864 150.704 20.0295Z" fill="#231F20"/>
<path d="M151.23 19.5728C151.127 19.6356 151.03 19.7098 150.944 19.7897C150.858 19.8639 150.779 19.9496 150.71 20.0409V20.0523L150.202 19.5443C150.276 19.4415 150.362 19.3559 150.453 19.2703C150.527 19.2018 150.607 19.1333 150.693 19.0762H150.699L151.235 19.5728H151.224H151.23ZM150.47 19.2817C150.385 19.3616 150.305 19.4473 150.225 19.5386L150.699 20.0181C150.767 19.9324 150.847 19.8468 150.927 19.7726C151.013 19.6927 151.104 19.6242 151.207 19.5614L150.699 19.0877C150.619 19.1447 150.539 19.2075 150.47 19.276V19.2817Z" fill="#231F20"/>
<path d="M152.983 19.2764C153.068 19.2193 153.16 19.1451 153.251 19.0538C153.348 18.9624 153.434 18.8711 153.497 18.7855C153.325 18.62 153.154 18.4544 152.988 18.2832C152.92 18.3631 152.84 18.4487 152.743 18.5343C152.646 18.6257 152.554 18.6999 152.463 18.7626C152.634 18.9339 152.806 19.1051 152.977 19.2764H152.983Z" fill="#231F20"/>
<path d="M153.262 19.0592C153.177 19.1391 153.085 19.2133 152.988 19.2818H152.983L152.452 18.7624H152.463C152.56 18.6882 152.651 18.6083 152.737 18.5283C152.823 18.4484 152.903 18.3685 152.983 18.2772H152.988L153.514 18.7852C153.457 18.8651 153.388 18.9393 153.32 19.0078C153.302 19.0249 153.285 19.0421 153.268 19.0592H153.262ZM152.994 18.3C152.92 18.3856 152.84 18.4655 152.754 18.5455C152.669 18.6254 152.577 18.6996 152.486 18.7681L152.988 19.2647C153.08 19.2019 153.171 19.1277 153.251 19.0478C153.337 18.9679 153.417 18.8822 153.491 18.7852L152.994 18.3Z" fill="#231F20"/>
<path d="M151.726 20.0687C151.812 20.0002 151.903 19.926 152.012 19.8575C152.126 19.7776 152.24 19.7148 152.343 19.6634C152.178 19.4979 152.006 19.3381 151.841 19.1725C151.744 19.241 151.646 19.3038 151.544 19.3723C151.441 19.4408 151.344 19.5036 151.247 19.5664C151.407 19.7376 151.567 19.9032 151.726 20.0744V20.0687Z" fill="#231F20"/>
<path d="M152.355 19.6691C152.24 19.7261 152.132 19.7889 152.023 19.8631C151.926 19.9259 151.829 20.0001 151.738 20.0743H151.732L151.235 19.5606H151.247C151.35 19.4921 151.447 19.4293 151.544 19.3608C151.641 19.298 151.744 19.2295 151.841 19.161H151.846L152.366 19.6634H152.355V19.6691ZM151.555 19.378C151.458 19.4407 151.361 19.5035 151.264 19.5663L151.732 20.0572C151.824 19.983 151.915 19.9145 152.012 19.8517C152.115 19.7832 152.223 19.7204 152.332 19.6634L151.846 19.1896C151.749 19.2524 151.652 19.3209 151.555 19.3837V19.378Z" fill="#231F20"/>
<path d="M150.796 21.2392C150.83 21.1364 150.881 21.0051 150.967 20.8624C151.047 20.7254 151.133 20.6227 151.207 20.5428C151.041 20.3829 150.87 20.2174 150.704 20.0576C150.63 20.1375 150.544 20.2402 150.465 20.3772C150.385 20.5199 150.333 20.6455 150.299 20.754C150.465 20.9195 150.63 21.0793 150.796 21.2449V21.2392Z" fill="#231F20"/>
<path d="M150.288 20.7487C150.328 20.6117 150.385 20.4862 150.453 20.3663C150.522 20.2521 150.602 20.1437 150.693 20.0466H150.699L151.218 20.5375H151.213C151.121 20.6403 151.041 20.7487 150.973 20.8629C150.904 20.9828 150.847 21.1083 150.807 21.2396V21.2567L150.288 20.7487ZM150.699 20.0695C150.613 20.1665 150.533 20.2692 150.47 20.3777C150.402 20.4919 150.35 20.6174 150.31 20.743L150.796 21.2168C150.836 21.0912 150.893 20.9656 150.961 20.8515C151.03 20.7373 151.11 20.6346 151.195 20.5375L150.704 20.0638L150.699 20.0695Z" fill="#231F20"/>
<path d="M154.028 19.2877C154.096 19.1907 154.176 19.0765 154.245 18.9452C154.302 18.8368 154.347 18.734 154.382 18.637C154.21 18.4714 154.045 18.3059 153.873 18.1347C153.833 18.2374 153.782 18.3516 153.713 18.4772C153.651 18.5913 153.582 18.6941 153.519 18.7854C153.685 18.9509 153.851 19.1222 154.022 19.2877H154.028Z" fill="#231F20"/>
<path d="M153.514 18.7852C153.582 18.6824 153.651 18.5797 153.708 18.4712C153.765 18.3628 153.822 18.2486 153.868 18.1345V18.123L154.393 18.6368C154.353 18.7452 154.307 18.848 154.256 18.9507C154.193 19.0706 154.119 19.1847 154.039 19.2989V19.3103L153.519 18.7909L153.514 18.7852ZM153.879 18.1573C153.833 18.2715 153.782 18.3799 153.725 18.4827C153.668 18.5854 153.605 18.6881 153.537 18.7852L154.022 19.2761C154.102 19.1676 154.17 19.0592 154.233 18.9393C154.285 18.8423 154.33 18.7452 154.37 18.6425L153.879 18.1573Z" fill="#231F20"/>
<path d="M152.868 20.1665C152.96 20.1094 153.057 20.0524 153.154 19.9896C153.268 19.9154 153.377 19.8412 153.479 19.7612C153.314 19.6071 153.148 19.453 152.983 19.2932C152.891 19.3446 152.806 19.4016 152.714 19.453C152.6 19.5215 152.486 19.59 152.377 19.6585C152.543 19.824 152.709 19.9896 152.874 20.1608L152.868 20.1665Z" fill="#231F20"/>
<path d="M153.485 19.7726C153.377 19.8525 153.268 19.9267 153.16 20.0009C153.068 20.0637 152.971 20.1208 152.874 20.1778H152.868L152.36 19.6698H152.372C152.486 19.5956 152.594 19.5214 152.709 19.4529C152.794 19.4015 152.886 19.3445 152.977 19.2931H152.983L153.497 19.7669H153.485V19.7726ZM152.72 19.47C152.611 19.5385 152.503 19.6013 152.394 19.6698L152.874 20.155C152.965 20.0979 153.063 20.0408 153.148 19.9838C153.257 19.9153 153.359 19.8411 153.462 19.7669L152.977 19.3159C152.891 19.3673 152.8 19.4187 152.714 19.47H152.72Z" fill="#231F20"/>
<path d="M151.726 21.0343C151.795 20.9601 151.875 20.8802 151.96 20.7946C152.058 20.709 152.149 20.6291 152.235 20.5663C152.063 20.4064 151.898 20.2523 151.726 20.0925C151.646 20.1382 151.561 20.2067 151.469 20.2866C151.372 20.3779 151.292 20.4635 151.235 20.5434C151.401 20.709 151.561 20.8745 151.726 21.0343Z" fill="#231F20"/>
<path d="M152.24 20.5715C152.143 20.6457 152.052 20.7199 151.966 20.7998C151.886 20.874 151.806 20.954 151.732 21.0396H151.726L151.23 20.5487H151.224V20.5373C151.292 20.4459 151.372 20.3603 151.464 20.2804C151.544 20.2062 151.629 20.1434 151.721 20.0863H151.726L152.252 20.5658H152.24V20.5715ZM151.475 20.2918C151.39 20.366 151.315 20.4516 151.247 20.5373L151.726 21.0167C151.801 20.9368 151.875 20.8569 151.955 20.7884C152.04 20.7085 152.132 20.6343 152.223 20.5658L151.726 20.1035C151.641 20.1605 151.555 20.2233 151.475 20.2918Z" fill="#231F20"/>
</svg>
