<svg width="178" height="114" viewBox="0 0 178 114" fill="none" xmlns="http://www.w3.org/2000/svg">
<path d="M62.7483 74.5568C62.6702 74.7316 62.6987 74.9356 62.8218 75.0822C62.945 75.2288 63.141 75.2923 63.3266 75.2456L73.8157 72.6096L80.5251 81.1783C80.6446 81.3309 80.8417 81.4007 81.0307 81.3573C81.2196 81.3139 81.3665 81.1652 81.4075 80.9757L87.689 51.9225C87.7304 51.731 87.6562 51.533 87.4991 51.4159L83.8558 48.7007C83.7695 48.6364 83.6647 48.6016 83.557 48.6016H77.1532L75.921 46.9069C75.8161 46.7625 75.6421 46.6851 75.4646 46.7036C75.2871 46.7222 75.1329 46.834 75.0601 46.997L62.7483 74.5568Z" fill="#BF2E2E" stroke="#BF2E2E" stroke-linejoin="round"/>
<path d="M115.252 74.5568C115.33 74.7316 115.301 74.9356 115.178 75.0822C115.055 75.2288 114.859 75.2923 114.673 75.2456L104.184 72.6096L97.4749 81.1783C97.3554 81.3309 97.1583 81.4007 96.9693 81.3573C96.7804 81.3139 96.6335 81.1652 96.5925 80.9757L90.311 51.9225C90.2696 51.731 90.3438 51.533 90.5009 51.4159L94.1442 48.7007C94.2305 48.6364 94.3353 48.6016 94.443 48.6016H100.847L102.079 46.9069C102.184 46.7625 102.358 46.6851 102.535 46.7036C102.713 46.7222 102.867 46.834 102.94 46.997L115.252 74.5568Z" fill="#BF2E2E" stroke="#BF2E2E" stroke-linejoin="round"/>
<path d="M62.005 27.9614L65.9342 21.7454V14.662L71.9007 11.3371L75.2478 5.26567H82.5241L88.6362 1.50714L95.4759 5.26567H102.461L105.808 10.9035L112.793 14.662L112.357 21.7454L115.995 27.9614" stroke="#F71010" stroke-width="3" stroke-linejoin="round"/>
<path d="M62.005 26.759L65.9342 32.975V40.0584L71.9007 43.3832L75.2478 49.4547H82.5241L88.6362 53.2133L95.4759 49.4547H102.461L105.808 43.8169L112.793 40.0584L112.357 32.975L115.995 26.759" stroke="#F71010" stroke-width="3" stroke-linejoin="round"/>
<path d="M89.5999 47.796C100.54 47.796 109.397 38.9094 109.397 27.9614C109.397 17.0135 100.54 8.12689 89.5999 8.12689C78.66 8.12689 69.803 17.0135 69.803 27.9614C69.803 38.9094 78.66 47.796 89.5999 47.796Z" stroke="#DE3939" stroke-width="6"/>
<ellipse cx="89.5999" cy="27.9614" rx="15.5971" ry="15.6321" fill="#DE3939"/>
<path d="M71.5728 11.439L73.2814 9.04163L78.0653 13.4938C77.3819 13.608 75.8784 14.1103 75.3316 15.2062C74.6482 16.5761 71.9146 20.0008 71.5728 20.6858C71.2311 21.3707 70.206 26.1654 70.206 26.8503C70.206 27.5353 72.598 37.8095 73.2814 38.152C73.9648 38.4945 85.5829 46.3714 86.2663 46.7139C86.8131 46.9878 94.2395 45.9148 97.8844 45.344L101.643 49.4537H99.2513L95.1508 49.7961L93.7839 50.4811L91.0503 51.5085L88.3166 52.8784L85.5829 51.5085C85.0362 51.2345 84.4439 50.4811 84.2161 50.1386C83.1909 49.9103 80.8673 49.3852 79.7739 49.1112C78.407 48.7687 76.3568 49.1112 75.3316 49.1112C74.5115 49.1112 74.0787 47.9696 73.9648 47.3988L72.598 45.344L71.2311 42.9466L68.8392 41.5767L65.7638 39.1794L66.4472 33.3573L62.6884 27.5353L65.7638 22.7406V20.0008L66.4472 14.5212L71.5728 11.439Z" fill="#DE3939"/>
<path d="M106.937 42.66L105.292 45.1016L100.393 40.7775C101.073 40.6453 102.563 40.1035 103.081 38.9935C103.728 37.606 106.37 34.1101 106.694 33.4164C107.017 32.7226 107.916 27.9025 107.898 27.2178C107.88 26.5331 105.218 16.3257 104.526 16.0014C103.834 15.6771 92.0125 8.11017 91.3203 7.78589C90.7666 7.52646 83.371 8.79556 79.7424 9.46253L75.8767 5.45366L78.2678 5.39041L82.3579 4.93962L83.7062 4.21876L86.4119 3.11941L89.1085 1.6777L91.8773 2.97483C92.4311 3.23426 93.043 3.97178 93.2797 4.30812C94.3105 4.50925 96.6471 4.97275 97.7474 5.21772C99.1228 5.52393 101.163 5.12736 102.188 5.10025C103.008 5.07856 103.471 6.2083 103.6 6.77588L105.02 8.79387L106.449 11.1542L108.877 12.4604L112.014 14.7756L111.484 20.6137L115.395 26.3343L112.447 31.2086L112.519 33.9475L111.98 39.4432L106.937 42.66Z" fill="#DE3939"/>
<rect width="6.84598" height="6.83771" transform="matrix(0.478854 -0.877895 0.87699 0.480508 72.4028 11.0891)" fill="#DE3939"/>
<rect width="8.01002" height="4.97769" transform="matrix(0.478854 -0.877895 0.87699 0.480508 98.2261 47.9292)" fill="#DE3939"/>
<path d="M83.4032 37.3157C83.5232 34.1717 85.4912 32.2517 87.3632 30.7877C89.4272 29.1557 91.6832 28.0037 91.6832 25.8917C91.6832 24.3557 90.8672 23.3237 89.4032 23.3237C87.7472 23.3237 86.7632 24.5237 86.7152 26.6597H83.6432C83.6432 22.9157 85.5632 20.5397 89.4752 20.5397C93.0512 20.5397 95.0672 22.9637 95.0672 25.7957C95.0672 28.8917 92.9552 30.3557 90.9392 31.6997C89.6672 32.5157 88.1792 33.5717 87.6272 34.6277H95.2112V37.3157H83.4032Z" fill="white"/>
<path d="M4.304 110.87V106.022L0.16 99.43H1.76L5.04 104.87H5.072L8.4 99.43H9.936L5.744 106.054V110.87H4.304ZM12.666 111.094C10.202 111.094 8.666 109.142 8.666 106.742C8.666 104.342 10.202 102.39 12.666 102.39C15.146 102.39 16.65 104.342 16.65 106.742C16.65 109.142 15.146 111.094 12.666 111.094ZM12.666 110.006C14.426 110.006 15.322 108.566 15.322 106.742C15.322 104.918 14.426 103.462 12.666 103.462C10.906 103.462 9.994 104.918 9.994 106.742C9.994 108.566 10.906 110.006 12.666 110.006ZM24.5025 110.87H23.2065V109.734H23.1745C22.5825 110.534 21.8785 111.062 20.6785 111.062C18.9825 111.062 17.8945 110.038 17.8945 108.326V102.598H19.1905V108.294C19.1905 109.366 19.8785 109.99 21.0465 109.99C22.3585 109.99 23.2065 108.998 23.2065 107.686V102.598H24.5025V110.87ZM33.1539 111.094C29.9379 111.094 28.4019 109.302 28.2739 106.998H29.6819C29.8739 108.934 31.0579 109.942 33.2179 109.942C34.8019 109.942 35.9379 109.222 35.9379 107.798C35.9379 106.23 34.5619 105.862 32.5139 105.414C30.4979 104.966 28.7699 104.39 28.7699 102.23C28.7699 100.342 30.3379 99.206 32.6579 99.206C35.5219 99.206 36.7059 100.662 36.9939 102.774H35.6339C35.4259 101.142 34.3699 100.326 32.6899 100.326C31.1379 100.326 30.1139 100.982 30.1139 102.166C30.1139 103.462 31.3939 103.846 33.1059 104.182C35.3299 104.63 37.3619 105.174 37.3619 107.75C37.3619 109.894 35.6179 111.094 33.1539 111.094ZM42.3535 111.094C39.8895 111.094 38.3535 109.142 38.3535 106.742C38.3535 104.342 39.8895 102.39 42.3535 102.39C44.3055 102.39 45.6015 103.51 45.8895 105.27H44.5775C44.3855 104.15 43.6015 103.462 42.3535 103.462C40.5935 103.462 39.6815 104.918 39.6815 106.742C39.6815 108.566 40.5935 110.006 42.3535 110.006C43.6975 110.006 44.4975 109.238 44.6095 107.958H45.8895C45.7135 109.942 44.4175 111.094 42.3535 111.094ZM50.6504 111.094C48.1864 111.094 46.6504 109.142 46.6504 106.742C46.6504 104.342 48.1864 102.39 50.6504 102.39C53.1304 102.39 54.6344 104.342 54.6344 106.742C54.6344 109.142 53.1304 111.094 50.6504 111.094ZM50.6504 110.006C52.4104 110.006 53.3064 108.566 53.3064 106.742C53.3064 104.918 52.4104 103.462 50.6504 103.462C48.8904 103.462 47.9784 104.918 47.9784 106.742C47.9784 108.566 48.8904 110.006 50.6504 110.006ZM57.2229 102.598V103.974H57.2549C57.7509 103.174 58.6149 102.502 59.7189 102.502C59.9589 102.502 60.0869 102.534 60.2469 102.598V103.846H60.1989C60.0069 103.782 59.8789 103.766 59.6229 103.766C58.3429 103.766 57.2229 104.726 57.2229 106.278V110.87H55.9269V102.598H57.2229ZM64.6348 111.094C62.1068 111.094 60.6348 109.142 60.6348 106.742C60.6348 104.342 62.2028 102.39 64.5548 102.39C67.0348 102.39 68.3628 104.31 68.3628 107.046H61.9628C62.0588 108.726 62.9708 110.006 64.6348 110.006C65.8348 110.006 66.6348 109.43 66.9228 108.31H68.1868C67.8028 110.086 66.5068 111.094 64.6348 111.094ZM64.5548 103.414C63.0188 103.414 62.1868 104.566 61.9948 106.07H66.9708C66.8908 104.422 66.0428 103.414 64.5548 103.414ZM72.83 111.11C70.574 111.11 69.166 109.414 69.166 106.758C69.166 104.006 70.75 102.406 72.798 102.406C73.966 102.406 74.862 102.982 75.39 103.766H75.422V99.43H76.718V110.87H75.422V109.862H75.39C74.766 110.662 73.998 111.11 72.83 111.11ZM72.878 110.022C74.718 110.022 75.502 108.646 75.502 106.774C75.502 104.854 74.574 103.51 72.862 103.51C71.294 103.51 70.494 104.918 70.494 106.774C70.494 108.646 71.294 110.022 72.878 110.022ZM85.3726 111.094C82.1566 111.094 80.6206 109.302 80.4926 106.998H81.9006C82.0926 108.934 83.2766 109.942 85.4366 109.942C87.0206 109.942 88.1566 109.222 88.1566 107.798C88.1566 106.23 86.7806 105.862 84.7326 105.414C82.7166 104.966 80.9886 104.39 80.9886 102.23C80.9886 100.342 82.5566 99.206 84.8766 99.206C87.7406 99.206 88.9246 100.662 89.2126 102.774H87.8526C87.6446 101.142 86.5886 100.326 84.9086 100.326C83.3566 100.326 82.3326 100.982 82.3326 102.166C82.3326 103.462 83.6126 103.846 85.3246 104.182C87.5486 104.63 89.5806 105.174 89.5806 107.75C89.5806 109.894 87.8366 111.094 85.3726 111.094ZM94.5723 111.094C92.0443 111.094 90.5723 109.142 90.5723 106.742C90.5723 104.342 92.1403 102.39 94.4923 102.39C96.9723 102.39 98.3003 104.31 98.3003 107.046H91.9003C91.9963 108.726 92.9083 110.006 94.5723 110.006C95.7723 110.006 96.5723 109.43 96.8603 108.31H98.1243C97.7403 110.086 96.4443 111.094 94.5723 111.094ZM94.4923 103.414C92.9563 103.414 92.1243 104.566 91.9323 106.07H96.9083C96.8283 104.422 95.9803 103.414 94.4923 103.414ZM103.104 111.094C100.64 111.094 99.1035 109.142 99.1035 106.742C99.1035 104.342 100.64 102.39 103.104 102.39C105.056 102.39 106.352 103.51 106.64 105.27H105.328C105.136 104.15 104.352 103.462 103.104 103.462C101.344 103.462 100.432 104.918 100.432 106.742C100.432 108.566 101.344 110.006 103.104 110.006C104.448 110.006 105.248 109.238 105.36 107.958H106.64C106.464 109.942 105.168 111.094 103.104 111.094ZM111.4 111.094C108.936 111.094 107.4 109.142 107.4 106.742C107.4 104.342 108.936 102.39 111.4 102.39C113.88 102.39 115.384 104.342 115.384 106.742C115.384 109.142 113.88 111.094 111.4 111.094ZM111.4 110.006C113.16 110.006 114.056 108.566 114.056 106.742C114.056 104.918 113.16 103.462 111.4 103.462C109.64 103.462 108.728 104.918 108.728 106.742C108.728 108.566 109.64 110.006 111.4 110.006ZM117.973 102.598V103.686H118.005C118.597 102.902 119.429 102.406 120.629 102.406C122.357 102.406 123.413 103.35 123.413 105.062V110.87H122.117V105.174C122.117 104.102 121.413 103.494 120.245 103.494C118.933 103.494 117.973 104.422 117.973 105.782V110.87H116.677V102.598H117.973ZM128.33 111.11C126.074 111.11 124.666 109.414 124.666 106.758C124.666 104.006 126.25 102.406 128.298 102.406C129.466 102.406 130.362 102.982 130.89 103.766H130.922V99.43H132.218V110.87H130.922V109.862H130.89C130.266 110.662 129.498 111.11 128.33 111.11ZM128.378 110.022C130.218 110.022 131.002 108.646 131.002 106.774C131.002 104.854 130.074 103.51 128.362 103.51C126.794 103.51 125.994 104.918 125.994 106.774C125.994 108.646 126.794 110.022 128.378 110.022ZM136.713 110.87V99.43H141.481C142.681 99.43 143.609 99.83 144.201 100.534C144.681 101.094 144.969 101.846 144.969 102.71C144.969 104.806 143.769 106.07 141.273 106.07H138.153V110.87H136.713ZM138.153 100.678V104.902H141.161C142.777 104.902 143.545 104.086 143.545 102.774C143.545 101.398 142.697 100.678 141.241 100.678H138.153ZM146.209 110.87V99.43H147.505V110.87H146.209ZM155.814 110.95C154.966 110.95 154.518 110.566 154.39 109.718H154.374C153.878 110.358 153.03 111.03 151.622 111.03C150.054 111.03 148.822 110.294 148.822 108.726C148.822 106.774 150.358 106.374 152.422 106.054C153.59 105.878 154.406 105.766 154.406 104.87C154.406 103.942 153.734 103.414 152.549 103.414C151.206 103.414 150.534 103.99 150.486 105.238H149.238C149.286 103.638 150.342 102.438 152.534 102.438C154.294 102.438 155.59 103.094 155.59 105.062V108.998C155.59 109.67 155.75 110.038 156.47 109.878H156.517V110.822C156.358 110.886 156.15 110.95 155.814 110.95ZM151.91 110.038C153.638 110.038 154.422 108.774 154.422 107.814V106.406C153.99 106.678 153.238 106.886 152.534 107.014C151.238 107.254 150.198 107.478 150.198 108.694C150.198 109.798 151.062 110.038 151.91 110.038ZM161.01 111.094C158.546 111.094 157.01 109.142 157.01 106.742C157.01 104.342 158.546 102.39 161.01 102.39C162.962 102.39 164.258 103.51 164.546 105.27H163.234C163.042 104.15 162.258 103.462 161.01 103.462C159.25 103.462 158.338 104.918 158.338 106.742C158.338 108.566 159.25 110.006 161.01 110.006C162.354 110.006 163.154 109.238 163.266 107.958H164.546C164.37 109.942 163.074 111.094 161.01 111.094ZM169.307 111.094C166.779 111.094 165.307 109.142 165.307 106.742C165.307 104.342 166.875 102.39 169.227 102.39C171.707 102.39 173.035 104.31 173.035 107.046H166.635C166.731 108.726 167.643 110.006 169.307 110.006C170.507 110.006 171.307 109.43 171.595 108.31H172.859C172.475 110.086 171.179 111.094 169.307 111.094ZM169.227 103.414C167.691 103.414 166.859 104.566 166.667 106.07H171.643C171.563 104.422 170.715 103.414 169.227 103.414ZM174.942 108.102L174.59 103.094V99.43H176.014V103.094L175.662 108.102H174.942ZM174.526 110.87V109.286H176.078V110.87H174.526Z" fill="#010101"/>
</svg>
