<svg width="321" height="90" viewBox="0 0 321 90" fill="none" xmlns="http://www.w3.org/2000/svg">
<path d="M316.308 3.51563L26.7888 3.54389L4 86.5148L293.584 86.5156L316.308 3.51563Z" stroke="#2D5FA8" stroke-width="6"/>
<path d="M89.9447 50.8438L93.3947 32.9687H99.0697C103.47 32.9687 106.345 35.5437 106.345 40.5437C106.345 43.9687 105.495 46.3687 103.745 48.2187C102.195 49.8687 99.6697 50.8438 96.9697 50.8438H89.9447ZM94.1197 47.7188H96.9947C100.745 47.7188 102.72 45.0437 102.72 40.6437C102.72 37.6937 101.345 36.0687 98.6197 36.0687H96.3697L94.1197 47.7188ZM113.14 51.2188C109.79 51.2188 107.115 49.1687 107.115 45.2437C107.115 41.1937 109.965 37.6687 114.34 37.6687C117.615 37.6687 120.265 39.7187 120.265 43.5187C120.265 47.6187 117.515 51.2188 113.14 51.2188ZM110.465 45.4437C110.465 47.1937 111.24 48.6937 113.215 48.6937C115.815 48.6937 116.915 45.8687 116.915 43.4187C116.915 41.7437 116.14 40.1937 114.165 40.1937C111.59 40.1937 110.465 42.9687 110.465 45.4437ZM122.722 50.8438L121.272 38.0187H124.522L124.997 43.9687C125.072 45.0187 125.122 46.4187 125.122 46.4187H125.172C125.172 46.4187 125.722 44.9937 126.172 43.9437L128.747 38.0187H131.597L132.297 43.9437C132.422 45.0187 132.472 46.4187 132.472 46.4187H132.522C132.522 46.4187 133.072 45.0187 133.497 43.9687L135.897 38.0187H139.197L133.472 50.8438H130.472L129.797 44.5437C129.697 43.5187 129.572 42.0437 129.572 42.0437H129.522C129.522 42.0437 128.972 43.5187 128.522 44.5437L125.747 50.8438H122.722ZM143.711 38.0187L143.336 40.0437H143.411C144.511 38.4687 145.586 37.6687 147.411 37.6687C149.961 37.6687 151.436 39.7437 150.861 42.7437L149.311 50.8438H145.961L147.461 43.1437C147.786 41.4437 147.136 40.5187 145.711 40.5187C144.136 40.5187 143.011 41.9687 142.661 43.8437L141.311 50.8438H137.961L140.436 38.0187H143.711ZM151.414 50.8438L154.864 32.9687H158.214L154.764 50.8438H151.414ZM163.58 51.2188C160.23 51.2188 157.555 49.1687 157.555 45.2437C157.555 41.1937 160.405 37.6687 164.78 37.6687C168.055 37.6687 170.705 39.7187 170.705 43.5187C170.705 47.6187 167.955 51.2188 163.58 51.2188ZM160.905 45.4437C160.905 47.1937 161.68 48.6937 163.655 48.6937C166.255 48.6937 167.355 45.8687 167.355 43.4187C167.355 41.7437 166.58 40.1937 164.605 40.1937C162.03 40.1937 160.905 42.9687 160.905 45.4437ZM179.091 50.8438C178.941 50.5687 178.891 50.0188 178.916 49.4437H178.866C178.091 50.2687 177.141 51.1438 175.291 51.1438C173.316 51.1438 171.216 50.0188 171.216 47.3687C171.216 43.9687 173.916 43.3437 177.041 43.0937C179.441 42.8937 180.366 42.7937 180.366 41.5187C180.366 40.5937 179.641 40.0937 178.366 40.0937C176.966 40.0937 176.041 40.6437 175.741 41.9187H172.741C173.166 39.2937 175.191 37.6937 178.491 37.6937C181.666 37.6937 184.066 39.0687 183.366 42.7937L182.166 48.9437C181.991 49.8187 182.066 50.4187 182.266 50.7187V50.8438H179.091ZM174.441 47.0687C174.441 48.2187 175.241 48.8187 176.366 48.8187C178.116 48.8187 179.241 47.7188 179.491 46.5437L179.891 44.5187C179.241 44.8187 178.541 44.9687 177.441 45.1687C176.216 45.3937 174.441 45.3187 174.441 47.0687ZM189.185 51.2188C186.285 51.2188 184.435 49.0187 184.435 45.5937C184.435 41.6437 186.835 37.6687 190.86 37.6687C192.56 37.6687 193.81 38.4187 194.46 39.7437H194.535L195.835 32.9687H199.185L195.735 50.8438H192.51L192.76 49.4437H192.71C191.81 50.5937 190.785 51.2188 189.185 51.2188ZM187.835 45.3937C187.835 47.0937 188.46 48.4437 190.285 48.4437C192.71 48.4437 193.835 45.7937 193.835 43.5687C193.835 41.7437 193.035 40.3937 191.235 40.3937C188.885 40.3937 187.835 43.1687 187.835 45.3937ZM213.293 50.8438L212.793 47.0187H206.618L204.818 50.8438H201.193L210.343 32.9687H214.043L216.993 50.8438H213.293ZM210.343 39.1937L207.918 44.2687H212.443L211.818 39.2437C211.693 38.2188 211.593 36.3937 211.593 36.3937H211.543C211.543 36.3937 210.793 38.2437 210.343 39.1937ZM218.138 50.8438L221.588 32.9687H224.938L221.488 50.8438H218.138ZM223.729 50.8438L227.179 32.9687H230.529L227.079 50.8438H223.729Z" fill="white"/>
</svg>
