<svg width="307" height="188" viewBox="0 0 307 188" fill="none" xmlns="http://www.w3.org/2000/svg">
<path d="M294.271 0.828125L-162.555 0.888409L-213.914 187.991L243.059 187.996L294.271 0.828125Z" fill="#2D5FA8"/>
<path d="M41.5391 50.2734L41.0391 46.4484H34.8641L33.0641 50.2734H29.4391L38.5891 32.3984H42.2891L45.2391 50.2734H41.5391ZM38.5891 38.6234L36.1641 43.6984H40.6891L40.0641 38.6734C39.9391 37.6484 39.8391 35.8234 39.8391 35.8234H39.7891C39.7891 35.8234 39.0391 37.6734 38.5891 38.6234ZM51.7549 50.6484C48.6299 50.6484 46.0299 48.8984 46.0299 44.9734C46.0299 41.0234 48.6549 37.0984 53.0299 37.0984C55.8799 37.0984 58.1799 38.4484 58.3549 41.7984H55.0799C54.9549 40.5734 54.2799 39.7984 52.9299 39.7984C50.4549 39.7984 49.3799 42.6234 49.3799 45.0734C49.3799 46.7234 50.1049 47.9484 51.9549 47.9484C53.2049 47.9484 54.1799 47.2734 54.6299 45.7484H57.8799C57.1799 48.8234 54.9049 50.6484 51.7549 50.6484ZM59.3775 39.6984L59.8025 37.4484H61.4275L62.2025 33.4484H65.4775L64.7025 37.4484H66.8525L66.4275 39.6984H64.2775L62.9775 46.3734C62.7775 47.3734 63.1025 47.7734 63.9275 47.7734C64.3025 47.7734 64.9275 47.7234 64.9275 47.7234L64.4525 50.2234C64.4525 50.2234 63.6025 50.2984 62.9275 50.2984C60.3275 50.2984 59.1025 49.3484 59.6275 46.6984L61.0025 39.6984H59.3775ZM66.1092 50.2734L68.5842 37.4484H71.9342L69.4592 50.2734H66.1092ZM68.9842 35.4484L69.5592 32.3984H72.9092L72.3342 35.4484H68.9842ZM75.0553 50.2734L72.9303 37.4484H76.3303L77.1303 43.9234C77.3053 45.3234 77.3553 46.2234 77.3553 46.2234H77.4053C77.4053 46.2234 77.7303 45.3234 78.3303 44.0984L81.4303 37.4484H84.7803L78.2553 50.2734H75.0553ZM83.4187 50.2734L85.8938 37.4484H89.2438L86.7688 50.2734H83.4187ZM86.2938 35.4484L86.8688 32.3984H90.2188L89.6438 35.4484H86.2938ZM90.2369 39.6984L90.6619 37.4484H92.2869L93.0619 33.4484H96.3369L95.5619 37.4484H97.7119L97.2869 39.6984H95.1369L93.8369 46.3734C93.6369 47.3734 93.9619 47.7734 94.7869 47.7734C95.1619 47.7734 95.7869 47.7234 95.7869 47.7234L95.3119 50.2234C95.3119 50.2234 94.4619 50.2984 93.7869 50.2984C91.1869 50.2984 89.9619 49.3484 90.4869 46.6984L91.8619 39.6984H90.2369ZM96.8186 54.4734L97.3436 51.8234H98.4186C99.8436 51.8234 100.644 51.0484 100.644 49.4484C100.644 48.8234 100.494 47.8734 100.219 46.5734L98.3686 37.4484H101.869L102.744 43.2734C102.919 44.4484 103.119 46.1734 103.119 46.1734H103.169C103.169 46.1734 103.794 44.4734 104.344 43.2734L106.994 37.4484H110.394L103.769 50.8984C102.494 53.4734 101.394 54.4734 98.9186 54.4734H96.8186ZM113.796 50.2734L117.246 32.3984H124.421C125.896 32.3984 127.196 32.7484 128.121 33.4984C128.996 34.1984 129.521 35.2734 129.521 36.7234C129.521 38.8234 128.321 40.2984 126.221 40.8984V40.9734C128.046 41.4734 128.996 42.7234 128.971 44.6984C128.971 46.1484 128.421 47.3984 127.321 48.4484C126.096 49.6234 124.471 50.2734 122.046 50.2734H113.796ZM118.921 42.2734L117.946 47.2984H122.071C124.046 47.2984 125.346 46.4234 125.346 44.5484C125.346 43.0234 124.321 42.2734 122.821 42.2734H118.921ZM119.446 39.6234H123.146C124.621 39.6234 126.046 39.1484 126.046 37.1984C126.046 36.0734 125.421 35.3234 123.946 35.3234H120.271L119.446 39.6234ZM136.26 50.6484C132.91 50.6484 130.235 48.5984 130.235 44.6734C130.235 40.6234 133.085 37.0984 137.46 37.0984C140.735 37.0984 143.385 39.1484 143.385 42.9484C143.385 47.0484 140.635 50.6484 136.26 50.6484ZM133.585 44.8734C133.585 46.6234 134.36 48.1234 136.335 48.1234C138.935 48.1234 140.035 45.2984 140.035 42.8484C140.035 41.1734 139.26 39.6234 137.285 39.6234C134.71 39.6234 133.585 42.3984 133.585 44.8734ZM150.273 50.6484C146.923 50.6484 144.248 48.5984 144.248 44.6734C144.248 40.6234 147.098 37.0984 151.473 37.0984C154.748 37.0984 157.398 39.1484 157.398 42.9484C157.398 47.0484 154.648 50.6484 150.273 50.6484ZM147.598 44.8734C147.598 46.6234 148.373 48.1234 150.348 48.1234C152.948 48.1234 154.048 45.2984 154.048 42.8484C154.048 41.1734 153.273 39.6234 151.298 39.6234C148.723 39.6234 147.598 42.3984 147.598 44.8734ZM166.112 50.2734L163.662 44.4734L161.762 46.1734L160.987 50.2734H157.662L161.112 32.3984H164.437L162.487 42.4234L167.512 37.4484H171.612L166.262 42.4734L169.837 50.2734H166.112ZM36.4641 80.6484C33.3141 80.6484 30.7641 79.0484 30.7641 75.7234C30.7641 72.8484 33.0891 71.0734 35.5141 70.1984C34.9141 69.2234 34.5391 68.1734 34.5391 66.9484C34.5391 64.3234 36.5391 62.5234 39.3391 62.5234C41.4641 62.5234 43.8641 63.6734 43.8641 66.4484C43.8641 68.7984 42.1641 70.0984 39.9641 71.0734L41.8891 74.3484C42.3641 73.4984 42.7891 72.3484 43.1141 71.0984H46.0891C45.5641 73.4984 44.5891 75.5234 43.4641 77.0234L45.4391 80.2734H41.5641L40.9391 79.2484C39.8641 79.9734 38.4141 80.6484 36.4641 80.6484ZM34.2891 75.4984C34.2891 76.9484 35.2141 77.9234 36.7641 77.9234C37.8391 77.9234 38.7391 77.5484 39.6141 76.9234L36.8391 72.3234C35.5641 72.8234 34.2891 73.8734 34.2891 75.4984ZM39.2641 65.0734C38.4141 65.0734 37.7391 65.7984 37.7391 66.7984C37.7391 67.5984 38.1141 68.3484 38.6641 69.0984C39.7141 68.5734 40.6641 67.8734 40.6641 66.5984C40.6641 65.8484 40.2391 65.0734 39.2641 65.0734ZM51.0277 80.2734L54.4777 62.3984H61.3527C64.7777 62.3984 67.0527 64.3234 67.0527 67.6734C67.0527 71.4984 64.3277 73.7984 60.3277 73.7984H55.9777L54.7277 80.2734H51.0277ZM57.5777 65.5234L56.5527 70.8734H60.1527C61.8277 70.8734 63.3527 69.9734 63.3527 67.8484C63.3527 66.3984 62.5027 65.5234 60.8777 65.5234H57.5777ZM74.2313 80.2734C74.0813 79.9984 74.0313 79.4484 74.0563 78.8734H74.0063C73.2313 79.6984 72.2813 80.5734 70.4313 80.5734C68.4563 80.5734 66.3562 79.4484 66.3562 76.7984C66.3562 73.3984 69.0563 72.7734 72.1813 72.5234C74.5813 72.3234 75.5063 72.2234 75.5063 70.9484C75.5063 70.0234 74.7813 69.5234 73.5063 69.5234C72.1063 69.5234 71.1813 70.0734 70.8813 71.3484H67.8813C68.3063 68.7234 70.3313 67.1234 73.6313 67.1234C76.8063 67.1234 79.2063 68.4984 78.5063 72.2234L77.3063 78.3734C77.1313 79.2484 77.2063 79.8484 77.4063 80.1484V80.2734H74.2313ZM69.5813 76.4984C69.5813 77.6484 70.3813 78.2484 71.5063 78.2484C73.2563 78.2484 74.3813 77.1484 74.6313 75.9734L75.0313 73.9484C74.3813 74.2484 73.6813 74.3984 72.5813 74.5984C71.3563 74.8234 69.5813 74.7484 69.5813 76.4984ZM84.576 84.6484C82.026 84.6484 79.526 83.5234 79.201 80.6484H82.601C82.801 81.5734 83.451 82.0984 84.651 82.0984C86.251 82.0984 87.126 81.0234 87.426 79.3984L87.676 78.0984H87.601C86.751 78.9484 85.951 79.4984 84.451 79.4984C81.551 79.4984 79.626 77.3484 79.626 74.2734C79.626 70.5234 82.001 67.0984 85.876 67.0984C87.526 67.0984 88.851 67.7984 89.476 68.9984H89.526L89.826 67.4484H93.051L90.676 79.7234C90.376 81.2734 89.776 82.3734 88.851 83.2234C87.826 84.1734 86.576 84.6484 84.576 84.6484ZM85.426 76.7984C87.551 76.7984 88.826 74.7734 88.801 72.6484C88.776 70.9984 87.901 69.7984 86.251 69.7984C84.176 69.7984 82.951 71.7484 82.951 74.0234C82.951 75.6234 83.776 76.7984 85.426 76.7984ZM105.546 74.7984H96.6205C96.6205 76.8234 97.2955 78.0484 99.2455 78.0484C100.421 78.0484 101.396 77.5484 101.871 76.4484H105.171C104.771 77.6484 104.096 78.6234 103.196 79.3234C102.121 80.1734 100.746 80.6234 99.1955 80.6484C95.8705 80.6484 93.2955 78.7984 93.2955 74.7484C93.2955 71.0234 96.0205 67.0984 100.171 67.0984C101.571 67.0984 102.546 67.3734 103.396 67.9234C105.321 69.1734 106.021 71.7234 105.546 74.7984ZM100.096 69.6984C98.3205 69.6984 97.3705 70.9734 96.9205 72.4734H102.446C102.496 70.9734 101.821 69.6984 100.096 69.6984ZM111.801 80.6484C108.701 80.6484 106.226 79.3484 106.001 76.1234H109.176C109.301 77.2234 110.051 78.1984 111.801 78.1984C113.026 78.1984 113.901 77.7734 113.901 76.7984C113.901 75.8734 112.801 75.5234 110.926 74.8984C108.976 74.2484 107.251 73.4234 107.251 71.1484C107.251 68.5484 109.326 67.0984 112.251 67.0984C115.126 67.0984 117.276 68.5484 117.501 71.3484H114.426C114.276 70.3484 113.576 69.4984 112.151 69.4984C111.251 69.4984 110.226 69.7984 110.226 70.7734C110.226 71.6484 111.376 71.8484 113.351 72.5234C115.201 73.1484 116.976 74.0984 116.976 76.3484C116.976 79.0984 115.051 80.6484 111.801 80.6484Z" fill="white"/>
<path d="M40.5341 108.203L40.1291 106.628H40.0841C39.2891 107.843 38.0891 108.443 36.6341 108.443C35.0741 108.443 33.7691 107.843 32.8541 106.823C31.9241 105.803 31.3991 104.363 31.3991 102.668C31.3991 100.988 31.8941 99.5031 32.8241 98.4531C33.7241 97.4331 35.0441 96.8181 36.7691 96.8181C39.3941 96.8181 40.9091 98.2281 41.3291 100.283H39.7391C39.4091 99.0231 38.4641 98.1381 36.7541 98.1381C34.1441 98.1381 32.9591 100.103 32.9591 102.668C32.9591 105.323 34.5041 107.108 36.7091 107.108C38.9291 107.108 39.9791 105.608 39.9941 103.838V103.598H36.7541V102.293H41.5091V108.203H40.5341ZM44.7228 100.148V101.603H44.7678C45.2628 100.673 46.0878 100.043 47.1528 100.043C47.3778 100.043 47.5128 100.073 47.6628 100.133V101.453H47.6178C47.4228 101.393 47.2878 101.378 47.0478 101.378C45.8028 101.378 44.7378 102.308 44.7378 103.823V108.203H43.3428V100.148H44.7228ZM51.1334 108.368C49.6034 108.368 48.4034 107.618 48.4034 106.073C48.4034 104.198 49.7834 103.793 51.8684 103.538C53.0534 103.403 53.8184 103.208 53.8184 102.383C53.8184 101.513 53.2034 100.973 52.0934 100.973C50.8184 100.973 50.2034 101.573 50.1584 102.533H48.8084C48.8684 101.168 49.9034 99.9531 52.0784 99.9531C52.8434 99.9531 53.5184 100.088 54.0284 100.388C54.7034 100.793 55.1084 101.498 55.1084 102.578V106.343C55.1084 106.988 55.2584 107.333 55.9634 107.183H56.0234V108.158C55.8284 108.218 55.6034 108.278 55.2734 108.278C54.4184 108.278 53.9984 107.873 53.8484 107.018H53.8334C53.3234 107.723 52.4984 108.368 51.1334 108.368ZM51.4784 107.348C53.0834 107.348 53.8334 106.163 53.8334 105.233V103.913C53.4284 104.168 52.7234 104.363 52.0634 104.483C50.7434 104.708 49.8734 104.948 49.8734 106.058C49.8734 107.093 50.6684 107.348 51.4784 107.348ZM61.1013 108.443C60.0213 108.443 59.1063 107.963 58.5813 107.063H58.5363V108.203H57.1563V97.0431H58.5513V99.8931C58.5513 100.508 58.5213 101.078 58.5063 101.423H58.5513C59.0763 100.568 59.9763 99.9531 61.1463 99.9531C63.1863 99.9531 64.5813 101.543 64.5813 104.198C64.5813 106.793 63.2763 108.443 61.1013 108.443ZM60.9513 107.288C62.4363 107.288 63.1563 105.983 63.1563 104.213C63.1563 102.443 62.4363 101.123 60.9663 101.123C59.2563 101.123 58.4763 102.503 58.4763 104.213C58.4763 105.968 59.3013 107.288 60.9513 107.288ZM72.4469 108.368C70.9169 108.368 69.7169 107.618 69.7169 106.073C69.7169 104.198 71.0969 103.793 73.1819 103.538C74.3669 103.403 75.1319 103.208 75.1319 102.383C75.1319 101.513 74.5169 100.973 73.4069 100.973C72.1319 100.973 71.5169 101.573 71.4719 102.533H70.1219C70.1819 101.168 71.2169 99.9531 73.3919 99.9531C74.1569 99.9531 74.8319 100.088 75.3419 100.388C76.0169 100.793 76.4219 101.498 76.4219 102.578V106.343C76.4219 106.988 76.5719 107.333 77.2769 107.183H77.3369V108.158C77.1419 108.218 76.9169 108.278 76.5869 108.278C75.7319 108.278 75.3119 107.873 75.1619 107.018H75.1469C74.6369 107.723 73.8119 108.368 72.4469 108.368ZM72.7919 107.348C74.3969 107.348 75.1469 106.163 75.1469 105.233V103.913C74.7419 104.168 74.0369 104.363 73.3769 104.483C72.0569 104.708 71.1869 104.948 71.1869 106.058C71.1869 107.093 71.9819 107.348 72.7919 107.348ZM79.8498 100.148V101.288H79.8948C80.4798 100.478 81.2748 99.9531 82.4448 99.9531C84.1248 99.9531 85.1598 100.898 85.1598 102.578V108.203H83.7798V102.743C83.7798 101.708 83.1048 101.123 82.0098 101.123C80.7648 101.123 79.8648 102.008 79.8648 103.298V108.203H78.4698V100.148H79.8498ZM93.4235 108.368C91.8935 108.368 90.6935 107.618 90.6935 106.073C90.6935 104.198 92.0735 103.793 94.1585 103.538C95.3435 103.403 96.1085 103.208 96.1085 102.383C96.1085 101.513 95.4935 100.973 94.3835 100.973C93.1085 100.973 92.4935 101.573 92.4485 102.533H91.0985C91.1585 101.168 92.1935 99.9531 94.3685 99.9531C95.1335 99.9531 95.8085 100.088 96.3185 100.388C96.9935 100.793 97.3985 101.498 97.3985 102.578V106.343C97.3985 106.988 97.5485 107.333 98.2535 107.183H98.3135V108.158C98.1185 108.218 97.8935 108.278 97.5635 108.278C96.7085 108.278 96.2885 107.873 96.1385 107.018H96.1235C95.6135 107.723 94.7885 108.368 93.4235 108.368ZM93.7685 107.348C95.3735 107.348 96.1235 106.163 96.1235 105.233V103.913C95.7185 104.168 95.0135 104.363 94.3535 104.483C93.0335 104.708 92.1635 104.948 92.1635 106.058C92.1635 107.093 92.9585 107.348 93.7685 107.348ZM102.941 108.428C100.526 108.428 99.0113 106.538 99.0113 104.183C99.0113 101.843 100.526 99.9531 102.941 99.9531C104.876 99.9531 106.136 101.048 106.421 102.773H105.026C104.831 101.723 104.111 101.078 102.941 101.078C101.291 101.078 100.436 102.443 100.436 104.183C100.436 105.923 101.291 107.288 102.941 107.288C104.201 107.288 104.951 106.553 105.056 105.353H106.436C106.256 107.273 104.981 108.428 102.941 108.428ZM107.345 101.228V100.148H108.605V97.6131H109.985V100.148H111.65V101.228H109.985V106.313C109.985 106.898 110.3 107.063 110.81 107.063C111.05 107.063 111.365 107.003 111.515 106.958H111.56V108.128C111.185 108.218 110.795 108.263 110.435 108.263C109.355 108.248 108.605 107.813 108.605 106.628V101.228H107.345ZM113.069 98.6631V97.0431H114.524V98.6631H113.069ZM113.099 108.203V100.148H114.494V108.203H113.099ZM118.329 108.203L115.524 100.148H117.009L118.419 104.498C118.764 105.578 119.154 107.063 119.154 107.063H119.184C119.184 107.063 119.529 105.578 119.889 104.498L121.329 100.148H122.769L119.874 108.203H118.329ZM123.777 98.6631V97.0431H125.232V98.6631H123.777ZM123.807 108.203V100.148H125.202V108.203H123.807ZM126.622 101.228V100.148H127.882V97.6131H129.262V100.148H130.927V101.228H129.262V106.313C129.262 106.898 129.577 107.063 130.087 107.063C130.327 107.063 130.642 107.003 130.792 106.958H130.837V108.128C130.462 108.218 130.072 108.263 129.712 108.263C128.632 108.248 127.882 107.813 127.882 106.628V101.228H126.622ZM133.366 111.008C132.916 111.008 132.406 110.933 132.181 110.843V109.643H132.241C132.391 109.733 132.736 109.793 133.081 109.793C133.636 109.793 133.996 109.583 134.281 108.818C134.281 108.788 134.596 107.888 134.566 107.798L131.491 100.148H133.006L134.671 104.618C135.001 105.533 135.346 106.793 135.346 106.793H135.376C135.376 106.793 135.751 105.518 136.066 104.618L137.671 100.148H139.126L135.706 108.938C135.046 110.633 134.401 111.008 133.366 111.008ZM148.084 108.443C147.004 108.443 146.089 107.963 145.564 107.063H145.519V108.203H144.139V97.0431H145.534V99.8931C145.534 100.508 145.504 101.078 145.489 101.423H145.534C146.059 100.568 146.959 99.9531 148.129 99.9531C150.169 99.9531 151.564 101.543 151.564 104.198C151.564 106.793 150.259 108.443 148.084 108.443ZM147.934 107.288C149.419 107.288 150.139 105.983 150.139 104.213C150.139 102.443 149.419 101.123 147.949 101.123C146.239 101.123 145.459 102.503 145.459 104.213C145.459 105.968 146.284 107.288 147.934 107.288ZM156.555 108.428C154.125 108.428 152.61 106.538 152.61 104.183C152.61 101.843 154.125 99.9531 156.555 99.9531C158.985 99.9531 160.47 101.843 160.47 104.183C160.47 106.538 158.985 108.428 156.555 108.428ZM156.54 107.288C158.19 107.288 159.045 105.923 159.045 104.183C159.045 102.443 158.19 101.063 156.54 101.063C154.89 101.063 154.035 102.443 154.035 104.183C154.035 105.923 154.89 107.288 156.54 107.288ZM165.461 108.428C163.031 108.428 161.516 106.538 161.516 104.183C161.516 101.843 163.031 99.9531 165.461 99.9531C167.891 99.9531 169.376 101.843 169.376 104.183C169.376 106.538 167.891 108.428 165.461 108.428ZM165.446 107.288C167.096 107.288 167.951 105.923 167.951 104.183C167.951 102.443 167.096 101.063 165.446 101.063C163.796 101.063 162.941 102.443 162.941 104.183C162.941 105.923 163.796 107.288 165.446 107.288ZM176.152 108.203L173.392 103.958L172.252 105.038V108.203H170.857V97.0431H172.252V102.338C172.252 102.623 172.222 103.193 172.192 103.583L175.687 100.148H177.427L174.352 103.043L177.787 108.203H176.152ZM185.372 108.368C183.842 108.368 182.642 107.618 182.642 106.073C182.642 104.198 184.022 103.793 186.107 103.538C187.292 103.403 188.057 103.208 188.057 102.383C188.057 101.513 187.442 100.973 186.332 100.973C185.057 100.973 184.442 101.573 184.397 102.533H183.047C183.107 101.168 184.142 99.9531 186.317 99.9531C187.082 99.9531 187.757 100.088 188.267 100.388C188.942 100.793 189.347 101.498 189.347 102.578V106.343C189.347 106.988 189.497 107.333 190.202 107.183H190.262V108.158C190.067 108.218 189.842 108.278 189.512 108.278C188.657 108.278 188.237 107.873 188.087 107.018H188.072C187.562 107.723 186.737 108.368 185.372 108.368ZM185.717 107.348C187.322 107.348 188.072 106.163 188.072 105.233V103.913C187.667 104.168 186.962 104.363 186.302 104.483C184.982 104.708 184.112 104.948 184.112 106.058C184.112 107.093 184.907 107.348 185.717 107.348ZM190.753 101.228V100.148H192.013V97.6131H193.393V100.148H195.058V101.228H193.393V106.313C193.393 106.898 193.708 107.063 194.218 107.063C194.458 107.063 194.773 107.003 194.923 106.958H194.968V108.128C194.593 108.218 194.203 108.263 193.843 108.263C192.763 108.248 192.013 107.813 192.013 106.628V101.228H190.753ZM199.996 101.228V100.148H201.256V97.6131H202.636V100.148H204.301V101.228H202.636V106.313C202.636 106.898 202.951 107.063 203.461 107.063C203.701 107.063 204.016 107.003 204.166 106.958H204.211V108.128C203.836 108.218 203.446 108.263 203.086 108.263C202.006 108.248 201.256 107.813 201.256 106.628V101.228H199.996ZM207.145 99.9681C207.145 100.373 207.115 100.928 207.1 101.318H207.145C207.745 100.463 208.555 99.9531 209.725 99.9531C211.405 99.9531 212.44 100.898 212.44 102.578V108.203H211.06V102.743C211.06 101.708 210.385 101.123 209.29 101.123C208.045 101.123 207.145 102.008 207.145 103.298V108.203H205.75V97.0431H207.145V99.9681ZM217.814 108.428C215.339 108.428 213.884 106.538 213.884 104.183C213.884 101.843 215.429 99.9531 217.739 99.9531C218.939 99.9531 219.869 100.418 220.499 101.198C221.159 101.993 221.489 103.148 221.489 104.513H215.309C215.414 106.088 216.269 107.288 217.829 107.288C218.939 107.288 219.704 106.763 219.959 105.908H221.324C220.964 107.408 219.674 108.428 217.814 108.428ZM217.739 101.033C216.284 101.033 215.519 102.083 215.339 103.508H220.004C219.929 101.963 219.134 101.033 217.739 101.033ZM33.0041 118.148V119.603H33.0491C33.5441 118.673 34.3691 118.043 35.4341 118.043C35.6591 118.043 35.7941 118.073 35.9441 118.133V119.453H35.8991C35.7041 119.393 35.5691 119.378 35.3291 119.378C34.0841 119.378 33.0191 120.308 33.0191 121.823V126.203H31.6241V118.148H33.0041ZM39.4147 126.368C37.8847 126.368 36.6847 125.618 36.6847 124.073C36.6847 122.198 38.0647 121.793 40.1497 121.538C41.3347 121.403 42.0997 121.208 42.0997 120.383C42.0997 119.513 41.4847 118.973 40.3747 118.973C39.0997 118.973 38.4847 119.573 38.4397 120.533H37.0897C37.1497 119.168 38.1847 117.953 40.3597 117.953C41.1247 117.953 41.7997 118.088 42.3097 118.388C42.9847 118.793 43.3897 119.498 43.3897 120.578V124.343C43.3897 124.988 43.5397 125.333 44.2447 125.183H44.3047V126.158C44.1097 126.218 43.8847 126.278 43.5547 126.278C42.6997 126.278 42.2797 125.873 42.1297 125.018H42.1147C41.6047 125.723 40.7797 126.368 39.4147 126.368ZM39.7597 125.348C41.3647 125.348 42.1147 124.163 42.1147 123.233V121.913C41.7097 122.168 41.0047 122.363 40.3447 122.483C39.0247 122.708 38.1547 122.948 38.1547 124.058C38.1547 125.093 38.9497 125.348 39.7597 125.348ZM48.9325 126.428C46.5175 126.428 45.0025 124.538 45.0025 122.183C45.0025 119.843 46.5175 117.953 48.9325 117.953C50.8675 117.953 52.1275 119.048 52.4125 120.773H51.0175C50.8225 119.723 50.1025 119.078 48.9325 119.078C47.2825 119.078 46.4275 120.443 46.4275 122.183C46.4275 123.923 47.2825 125.288 48.9325 125.288C50.1925 125.288 50.9425 124.553 51.0475 123.353H52.4275C52.2475 125.273 50.9725 126.428 48.9325 126.428ZM57.3261 126.428C54.8511 126.428 53.3961 124.538 53.3961 122.183C53.3961 119.843 54.9411 117.953 57.2511 117.953C58.4511 117.953 59.3811 118.418 60.0111 119.198C60.6711 119.993 61.0011 121.148 61.0011 122.513H54.8211C54.9261 124.088 55.7811 125.288 57.3411 125.288C58.4511 125.288 59.2161 124.763 59.4711 123.908H60.8361C60.4761 125.408 59.1861 126.428 57.3261 126.428ZM57.2511 119.033C55.7961 119.033 55.0311 120.083 54.8511 121.508H59.5161C59.4411 119.963 58.6461 119.033 57.2511 119.033ZM69.9827 126.428C67.5527 126.428 66.0377 124.538 66.0377 122.183C66.0377 119.843 67.5527 117.953 69.9827 117.953C72.4127 117.953 73.8977 119.843 73.8977 122.183C73.8977 124.538 72.4127 126.428 69.9827 126.428ZM69.9677 125.288C71.6177 125.288 72.4727 123.923 72.4727 122.183C72.4727 120.443 71.6177 119.063 69.9677 119.063C68.3177 119.063 67.4627 120.443 67.4627 122.183C67.4627 123.923 68.3177 125.288 69.9677 125.288ZM76.7589 118.148V119.603H76.8039C77.2989 118.673 78.1239 118.043 79.1889 118.043C79.4139 118.043 79.5489 118.073 79.6989 118.133V119.453H79.6539C79.4589 119.393 79.3239 119.378 79.0839 119.378C77.8389 119.378 76.7739 120.308 76.7739 121.823V126.203H75.3789V118.148H76.7589ZM88.1669 126.443C85.9919 126.443 84.6119 124.793 84.6119 122.198C84.6119 119.543 86.1419 117.953 88.1369 117.953C89.2769 117.953 90.1769 118.523 90.6869 119.378H90.7169C90.6869 119.018 90.6719 118.433 90.6719 117.893V115.043H92.0669V126.203H90.6869V125.048H90.6569C90.1469 125.918 89.2919 126.443 88.1669 126.443ZM88.2719 125.288C89.9969 125.288 90.7469 123.983 90.7469 122.213C90.7469 120.398 89.8919 119.123 88.2719 119.123C86.7869 119.123 86.0369 120.443 86.0369 122.213C86.0369 123.983 86.7869 125.288 88.2719 125.288ZM97.4925 126.428C95.0625 126.428 93.5475 124.538 93.5475 122.183C93.5475 119.843 95.0625 117.953 97.4925 117.953C99.9225 117.953 101.407 119.843 101.407 122.183C101.407 124.538 99.9225 126.428 97.4925 126.428ZM97.4775 125.288C99.1275 125.288 99.9825 123.923 99.9825 122.183C99.9825 120.443 99.1275 119.063 97.4775 119.063C95.8275 119.063 94.9725 120.443 94.9725 122.183C94.9725 123.923 95.8275 125.288 97.4775 125.288ZM104.482 126.203L101.932 118.148H103.417L104.677 122.618C104.932 123.533 105.202 124.973 105.202 124.973H105.232C105.232 124.973 105.502 123.623 105.772 122.648L106.987 118.148H108.307L109.507 122.648C109.732 123.503 110.017 124.988 110.017 124.988H110.047C110.047 124.988 110.272 123.608 110.572 122.618L111.907 118.148H113.347L110.722 126.203H109.327L108.142 121.763C107.947 120.983 107.632 119.513 107.632 119.513H107.602C107.602 119.513 107.302 120.998 107.107 121.763L105.892 126.203H104.482ZM115.841 118.148V119.288H115.886C116.471 118.478 117.266 117.953 118.436 117.953C120.116 117.953 121.151 118.898 121.151 120.578V126.203H119.771V120.743C119.771 119.708 119.096 119.123 118.001 119.123C116.756 119.123 115.856 120.008 115.856 121.298V126.203H114.461V118.148H115.841ZM123.075 126.203V115.043H124.47V126.203H123.075ZM129.939 126.428C127.509 126.428 125.994 124.538 125.994 122.183C125.994 119.843 127.509 117.953 129.939 117.953C132.369 117.953 133.854 119.843 133.854 122.183C133.854 124.538 132.369 126.428 129.939 126.428ZM129.924 125.288C131.574 125.288 132.429 123.923 132.429 122.183C132.429 120.443 131.574 119.063 129.924 119.063C128.274 119.063 127.419 120.443 127.419 122.183C127.419 123.923 128.274 125.288 129.924 125.288ZM137.735 126.368C136.205 126.368 135.005 125.618 135.005 124.073C135.005 122.198 136.385 121.793 138.47 121.538C139.655 121.403 140.42 121.208 140.42 120.383C140.42 119.513 139.805 118.973 138.695 118.973C137.42 118.973 136.805 119.573 136.76 120.533H135.41C135.47 119.168 136.505 117.953 138.68 117.953C139.445 117.953 140.12 118.088 140.63 118.388C141.305 118.793 141.71 119.498 141.71 120.578V124.343C141.71 124.988 141.86 125.333 142.565 125.183H142.625V126.158C142.43 126.218 142.205 126.278 141.875 126.278C141.02 126.278 140.6 125.873 140.45 125.018H140.435C139.925 125.723 139.1 126.368 137.735 126.368ZM138.08 125.348C139.685 125.348 140.435 124.163 140.435 123.233V121.913C140.03 122.168 139.325 122.363 138.665 122.483C137.345 122.708 136.475 122.948 136.475 124.058C136.475 125.093 137.27 125.348 138.08 125.348ZM146.878 126.443C144.703 126.443 143.323 124.793 143.323 122.198C143.323 119.543 144.853 117.953 146.848 117.953C147.988 117.953 148.888 118.523 149.398 119.378H149.428C149.398 119.018 149.383 118.433 149.383 117.893V115.043H150.778V126.203H149.398V125.048H149.368C148.858 125.918 148.003 126.443 146.878 126.443ZM146.983 125.288C148.708 125.288 149.458 123.983 149.458 122.213C149.458 120.398 148.603 119.123 146.983 119.123C145.498 119.123 144.748 120.443 144.748 122.213C144.748 123.983 145.498 125.288 146.983 125.288ZM156.183 119.243V118.148H157.428V117.038C157.428 116.288 157.623 115.763 157.998 115.433C158.388 115.103 158.988 114.968 159.768 114.968C159.978 114.968 160.233 114.983 160.488 114.998V116.153C159.168 116.063 158.823 116.273 158.823 117.098V118.148H160.473V119.243H158.823V126.203H157.428V119.243H156.183ZM164.102 126.368C162.572 126.368 161.372 125.618 161.372 124.073C161.372 122.198 162.752 121.793 164.837 121.538C166.022 121.403 166.787 121.208 166.787 120.383C166.787 119.513 166.172 118.973 165.062 118.973C163.787 118.973 163.172 119.573 163.127 120.533H161.777C161.837 119.168 162.872 117.953 165.047 117.953C165.812 117.953 166.487 118.088 166.997 118.388C167.672 118.793 168.077 119.498 168.077 120.578V124.343C168.077 124.988 168.227 125.333 168.932 125.183H168.992V126.158C168.797 126.218 168.572 126.278 168.242 126.278C167.387 126.278 166.967 125.873 166.817 125.018H166.802C166.292 125.723 165.467 126.368 164.102 126.368ZM164.447 125.348C166.052 125.348 166.802 124.163 166.802 123.233V121.913C166.397 122.168 165.692 122.363 165.032 122.483C163.712 122.708 162.842 122.948 162.842 124.058C162.842 125.093 163.637 125.348 164.447 125.348ZM170.125 126.203V118.148H171.505V119.348H171.55C172.045 118.478 172.9 117.953 173.935 117.953C174.91 117.953 175.69 118.463 176.02 119.453H176.05C176.62 118.448 177.565 117.953 178.54 117.953C180.01 117.953 181.03 118.898 181.03 120.578V126.203H179.635V120.698C179.635 119.708 178.99 119.123 178.18 119.123C177.16 119.123 176.275 120.008 176.275 121.238V126.203H174.895V120.698C174.895 119.708 174.34 119.123 173.515 119.123C172.555 119.123 171.52 120.008 171.52 121.238V126.203H170.125ZM182.868 116.663V115.043H184.323V116.663H182.868ZM182.898 126.203V118.148H184.293V126.203H182.898ZM186.254 126.203V115.043H187.649V126.203H186.254ZM190.597 129.008C190.147 129.008 189.637 128.933 189.412 128.843V127.643H189.472C189.622 127.733 189.967 127.793 190.312 127.793C190.867 127.793 191.227 127.583 191.512 126.818C191.512 126.788 191.827 125.888 191.797 125.798L188.722 118.148H190.237L191.902 122.618C192.232 123.533 192.577 124.793 192.577 124.793H192.607C192.607 124.793 192.982 123.518 193.297 122.618L194.902 118.148H196.357L192.937 126.938C192.277 128.633 191.632 129.008 190.597 129.008ZM196.853 122.558V121.298H201.023V122.558H196.853ZM31.1291 137.243V136.148H32.3741V135.038C32.3741 134.288 32.5691 133.763 32.9441 133.433C33.3341 133.103 33.9341 132.968 34.7141 132.968C34.9241 132.968 35.1791 132.983 35.4341 132.998V134.153C34.1141 134.063 33.7691 134.273 33.7691 135.098V136.148H35.4191V137.243H33.7691V144.203H32.3741V137.243H31.1291ZM38.2482 136.148V137.603H38.2932C38.7882 136.673 39.6132 136.043 40.6782 136.043C40.9032 136.043 41.0382 136.073 41.1882 136.133V137.453H41.1432C40.9482 137.393 40.8132 137.378 40.5732 137.378C39.3282 137.378 38.2632 138.308 38.2632 139.823V144.203H36.8682V136.148H38.2482ZM42.5218 134.663V133.043H43.9768V134.663H42.5218ZM42.5518 144.203V136.148H43.9468V144.203H42.5518ZM49.3573 144.428C46.8823 144.428 45.4273 142.538 45.4273 140.183C45.4273 137.843 46.9723 135.953 49.2823 135.953C50.4823 135.953 51.4123 136.418 52.0423 137.198C52.7023 137.993 53.0323 139.148 53.0323 140.513H46.8523C46.9573 142.088 47.8123 143.288 49.3723 143.288C50.4823 143.288 51.2473 142.763 51.5023 141.908H52.8673C52.5073 143.408 51.2173 144.428 49.3573 144.428ZM49.2823 137.033C47.8273 137.033 47.0623 138.083 46.8823 139.508H51.5473C51.4723 137.963 50.6773 137.033 49.2823 137.033ZM55.8996 136.148V137.288H55.9446C56.5296 136.478 57.3246 135.953 58.4946 135.953C60.1746 135.953 61.2096 136.898 61.2096 138.578V144.203H59.8296V138.743C59.8296 137.708 59.1546 137.123 58.0596 137.123C56.8146 137.123 55.9146 138.008 55.9146 139.298V144.203H54.5196V136.148H55.8996ZM66.2089 144.443C64.0339 144.443 62.6539 142.793 62.6539 140.198C62.6539 137.543 64.1839 135.953 66.1789 135.953C67.3189 135.953 68.2189 136.523 68.7289 137.378H68.7589C68.7289 137.018 68.7139 136.433 68.7139 135.893V133.043H70.1089V144.203H68.7289V143.048H68.6989C68.1889 143.918 67.3339 144.443 66.2089 144.443ZM66.3139 143.288C68.0389 143.288 68.7889 141.983 68.7889 140.213C68.7889 138.398 67.9339 137.123 66.3139 137.123C64.8289 137.123 64.0789 138.443 64.0789 140.213C64.0789 141.983 64.8289 143.288 66.3139 143.288ZM72.0695 144.203V133.043H73.4645V144.203H72.0695ZM76.4129 147.008C75.9629 147.008 75.4529 146.933 75.2279 146.843V145.643H75.2879C75.4379 145.733 75.7829 145.793 76.1279 145.793C76.6829 145.793 77.0429 145.583 77.3279 144.818C77.3279 144.788 77.6429 143.888 77.6129 143.798L74.5379 136.148H76.0529L77.7179 140.618C78.0479 141.533 78.3929 142.793 78.3929 142.793H78.4229C78.4229 142.793 78.7979 141.518 79.1129 140.618L80.7179 136.148H82.1729L78.7529 144.938C78.0929 146.633 77.4479 147.008 76.4129 147.008ZM90.6956 144.428C88.2656 144.428 86.7506 142.538 86.7506 140.183C86.7506 137.843 88.2656 135.953 90.6956 135.953C93.1256 135.953 94.6106 137.843 94.6106 140.183C94.6106 142.538 93.1256 144.428 90.6956 144.428ZM90.6806 143.288C92.3306 143.288 93.1856 141.923 93.1856 140.183C93.1856 138.443 92.3306 137.063 90.6806 137.063C89.0306 137.063 88.1756 138.443 88.1756 140.183C88.1756 141.923 89.0306 143.288 90.6806 143.288ZM97.4718 136.148V137.603H97.5168C98.0118 136.673 98.8368 136.043 99.9018 136.043C100.127 136.043 100.262 136.073 100.412 136.133V137.453H100.367C100.172 137.393 100.037 137.378 99.7968 137.378C98.5518 137.378 97.4868 138.308 97.4868 139.823V144.203H96.0918V136.148H97.4718ZM101.745 134.663V133.043H103.2V134.663H101.745ZM101.775 144.203V136.148H103.17V144.203H101.775ZM108.491 147.023C106.376 147.023 105.176 146.183 105.026 144.758H106.331C106.451 145.598 107.261 145.943 108.461 145.943C109.901 145.943 110.696 145.298 110.696 143.933V143.708C110.696 143.243 110.711 142.808 110.726 142.553H110.696C110.141 143.348 109.436 143.843 108.296 143.843C106.241 143.843 104.771 142.238 104.771 139.898C104.771 137.423 106.331 135.953 108.221 135.953C109.376 135.953 110.156 136.403 110.666 137.213H110.696V136.148H112.076V143.873C112.076 144.938 111.716 145.733 111.101 146.258C110.471 146.783 109.571 147.023 108.491 147.023ZM108.431 142.703C110.186 142.703 110.786 141.473 110.786 139.838C110.786 138.143 110.021 137.108 108.416 137.108C106.946 137.108 106.196 138.218 106.196 139.913C106.196 141.623 106.976 142.703 108.431 142.703ZM113.977 134.663V133.043H115.432V134.663H113.977ZM114.007 144.203V136.148H115.402V144.203H114.007ZM118.697 136.148V137.288H118.742C119.327 136.478 120.122 135.953 121.292 135.953C122.972 135.953 124.007 136.898 124.007 138.578V144.203H122.627V138.743C122.627 137.708 121.952 137.123 120.857 137.123C119.612 137.123 118.712 138.008 118.712 139.298V144.203H117.317V136.148H118.697ZM128.287 144.368C126.757 144.368 125.557 143.618 125.557 142.073C125.557 140.198 126.937 139.793 129.022 139.538C130.207 139.403 130.972 139.208 130.972 138.383C130.972 137.513 130.357 136.973 129.247 136.973C127.972 136.973 127.357 137.573 127.312 138.533H125.962C126.022 137.168 127.057 135.953 129.232 135.953C129.997 135.953 130.672 136.088 131.182 136.388C131.857 136.793 132.262 137.498 132.262 138.578V142.343C132.262 142.988 132.412 143.333 133.117 143.183H133.177V144.158C132.982 144.218 132.757 144.278 132.427 144.278C131.572 144.278 131.152 143.873 131.002 143.018H130.987C130.477 143.723 129.652 144.368 128.287 144.368ZM128.632 143.348C130.237 143.348 130.987 142.163 130.987 141.233V139.913C130.582 140.168 129.877 140.363 129.217 140.483C127.897 140.708 127.027 140.948 127.027 142.058C127.027 143.093 127.822 143.348 128.632 143.348ZM134.355 144.203V133.043H135.75V144.203H134.355ZM145.187 144.428C142.772 144.428 141.257 142.538 141.257 140.183C141.257 137.843 142.772 135.953 145.187 135.953C147.122 135.953 148.382 137.048 148.667 138.773H147.272C147.077 137.723 146.357 137.078 145.187 137.078C143.537 137.078 142.682 138.443 142.682 140.183C142.682 141.923 143.537 143.288 145.187 143.288C146.447 143.288 147.197 142.553 147.302 141.353H148.682C148.502 143.273 147.227 144.428 145.187 144.428ZM153.596 144.428C151.166 144.428 149.651 142.538 149.651 140.183C149.651 137.843 151.166 135.953 153.596 135.953C156.026 135.953 157.511 137.843 157.511 140.183C157.511 142.538 156.026 144.428 153.596 144.428ZM153.581 143.288C155.231 143.288 156.086 141.923 156.086 140.183C156.086 138.443 155.231 137.063 153.581 137.063C151.931 137.063 151.076 138.443 151.076 140.183C151.076 141.923 151.931 143.288 153.581 143.288ZM159.037 144.203V133.043H160.432V144.203H159.037ZM165.901 144.428C163.471 144.428 161.956 142.538 161.956 140.183C161.956 137.843 163.471 135.953 165.901 135.953C168.331 135.953 169.816 137.843 169.816 140.183C169.816 142.538 168.331 144.428 165.901 144.428ZM165.886 143.288C167.536 143.288 168.391 141.923 168.391 140.183C168.391 138.443 167.536 137.063 165.886 137.063C164.236 137.063 163.381 138.443 163.381 140.183C163.381 141.923 164.236 143.288 165.886 143.288ZM172.677 136.148V137.603H172.722C173.217 136.673 174.042 136.043 175.107 136.043C175.332 136.043 175.467 136.073 175.617 136.133V137.453H175.572C175.377 137.393 175.242 137.378 175.002 137.378C173.757 137.378 172.692 138.308 172.692 139.823V144.203H171.297V136.148H172.677ZM176.951 134.663V133.043H178.406V134.663H176.951ZM176.981 144.203V136.148H178.376V144.203H176.981ZM181.671 136.148V137.288H181.716C182.301 136.478 183.096 135.953 184.266 135.953C185.946 135.953 186.981 136.898 186.981 138.578V144.203H185.601V138.743C185.601 137.708 184.926 137.123 183.831 137.123C182.586 137.123 181.686 138.008 181.686 139.298V144.203H180.291V136.148H181.671ZM192.265 147.023C190.15 147.023 188.95 146.183 188.8 144.758H190.105C190.225 145.598 191.035 145.943 192.235 145.943C193.675 145.943 194.47 145.298 194.47 143.933V143.708C194.47 143.243 194.485 142.808 194.5 142.553H194.47C193.915 143.348 193.21 143.843 192.07 143.843C190.015 143.843 188.545 142.238 188.545 139.898C188.545 137.423 190.105 135.953 191.995 135.953C193.15 135.953 193.93 136.403 194.44 137.213H194.47V136.148H195.85V143.873C195.85 144.938 195.49 145.733 194.875 146.258C194.245 146.783 193.345 147.023 192.265 147.023ZM192.205 142.703C193.96 142.703 194.56 141.473 194.56 139.838C194.56 138.143 193.795 137.108 192.19 137.108C190.72 137.108 189.97 138.218 189.97 139.913C189.97 141.623 190.75 142.703 192.205 142.703ZM204.166 144.368C202.636 144.368 201.436 143.618 201.436 142.073C201.436 140.198 202.816 139.793 204.901 139.538C206.086 139.403 206.851 139.208 206.851 138.383C206.851 137.513 206.236 136.973 205.126 136.973C203.851 136.973 203.236 137.573 203.191 138.533H201.841C201.901 137.168 202.936 135.953 205.111 135.953C205.876 135.953 206.551 136.088 207.061 136.388C207.736 136.793 208.141 137.498 208.141 138.578V142.343C208.141 142.988 208.291 143.333 208.996 143.183H209.056V144.158C208.861 144.218 208.636 144.278 208.306 144.278C207.451 144.278 207.031 143.873 206.881 143.018H206.866C206.356 143.723 205.531 144.368 204.166 144.368ZM204.511 143.348C206.116 143.348 206.866 142.163 206.866 141.233V139.913C206.461 140.168 205.756 140.363 205.096 140.483C203.776 140.708 202.906 140.948 202.906 142.058C202.906 143.093 203.701 143.348 204.511 143.348ZM211.569 136.148V137.288H211.614C212.199 136.478 212.994 135.953 214.164 135.953C215.844 135.953 216.879 136.898 216.879 138.578V144.203H215.499V138.743C215.499 137.708 214.824 137.123 213.729 137.123C212.484 137.123 211.584 138.008 211.584 139.298V144.203H210.189V136.148H211.569ZM221.878 144.443C219.703 144.443 218.323 142.793 218.323 140.198C218.323 137.543 219.853 135.953 221.848 135.953C222.988 135.953 223.888 136.523 224.398 137.378H224.428C224.398 137.018 224.383 136.433 224.383 135.893V133.043H225.778V144.203H224.398V143.048H224.368C223.858 143.918 223.003 144.443 221.878 144.443ZM221.983 143.288C223.708 143.288 224.458 141.983 224.458 140.213C224.458 138.398 223.603 137.123 221.983 137.123C220.498 137.123 219.748 138.443 219.748 140.213C219.748 141.983 220.498 143.288 221.983 143.288ZM34.0241 162.368C32.4941 162.368 31.2941 161.618 31.2941 160.073C31.2941 158.198 32.6741 157.793 34.7591 157.538C35.9441 157.403 36.7091 157.208 36.7091 156.383C36.7091 155.513 36.0941 154.973 34.9841 154.973C33.7091 154.973 33.0941 155.573 33.0491 156.533H31.6991C31.7591 155.168 32.7941 153.953 34.9691 153.953C35.7341 153.953 36.4091 154.088 36.9191 154.388C37.5941 154.793 37.9991 155.498 37.9991 156.578V160.343C37.9991 160.988 38.1491 161.333 38.8541 161.183H38.9141V162.158C38.7191 162.218 38.4941 162.278 38.1641 162.278C37.3091 162.278 36.8891 161.873 36.7391 161.018H36.7241C36.2141 161.723 35.3891 162.368 34.0241 162.368ZM34.3691 161.348C35.9741 161.348 36.7241 160.163 36.7241 159.233V157.913C36.3191 158.168 35.6141 158.363 34.9541 158.483C33.6341 158.708 32.7641 158.948 32.7641 160.058C32.7641 161.093 33.5591 161.348 34.3691 161.348ZM43.5419 162.428C41.1269 162.428 39.6119 160.538 39.6119 158.183C39.6119 155.843 41.1269 153.953 43.5419 153.953C45.4769 153.953 46.7369 155.048 47.0219 156.773H45.6269C45.4319 155.723 44.7119 155.078 43.5419 155.078C41.8919 155.078 41.0369 156.443 41.0369 158.183C41.0369 159.923 41.8919 161.288 43.5419 161.288C44.8019 161.288 45.5519 160.553 45.6569 159.353H47.0369C46.8569 161.273 45.5819 162.428 43.5419 162.428ZM47.9455 155.228V154.148H49.2055V151.613H50.5855V154.148H52.2505V155.228H50.5855V160.313C50.5855 160.898 50.9005 161.063 51.4105 161.063C51.6505 161.063 51.9655 161.003 52.1155 160.958H52.1605V162.128C51.7855 162.218 51.3955 162.263 51.0355 162.263C49.9555 162.248 49.2055 161.813 49.2055 160.628V155.228H47.9455ZM53.6693 152.663V151.043H55.1243V152.663H53.6693ZM53.6993 162.203V154.148H55.0943V162.203H53.6993ZM58.9298 162.203L56.1248 154.148H57.6098L59.0198 158.498C59.3648 159.578 59.7548 161.063 59.7548 161.063H59.7848C59.7848 161.063 60.1298 159.578 60.4898 158.498L61.9298 154.148H63.3698L60.4748 162.203H58.9298ZM64.3773 152.663V151.043H65.8323V152.663H64.3773ZM64.4073 162.203V154.148H65.8023V162.203H64.4073ZM67.2228 155.228V154.148H68.4828V151.613H69.8628V154.148H71.5278V155.228H69.8628V160.313C69.8628 160.898 70.1778 161.063 70.6878 161.063C70.9278 161.063 71.2428 161.003 71.3928 160.958H71.4378V162.128C71.0628 162.218 70.6728 162.263 70.3128 162.263C69.2328 162.248 68.4828 161.813 68.4828 160.628V155.228H67.2228ZM73.9666 165.008C73.5166 165.008 73.0066 164.933 72.7816 164.843V163.643H72.8416C72.9916 163.733 73.3366 163.793 73.6816 163.793C74.2366 163.793 74.5966 163.583 74.8816 162.818C74.8816 162.788 75.1966 161.888 75.1666 161.798L72.0916 154.148H73.6066L75.2716 158.618C75.6016 159.533 75.9466 160.793 75.9466 160.793H75.9766C75.9766 160.793 76.3516 159.518 76.6666 158.618L78.2716 154.148H79.7266L76.3066 162.938C75.6466 164.633 75.0016 165.008 73.9666 165.008ZM84.7393 164.933V154.148H86.1193V155.408H86.1643C86.7643 154.493 87.5743 153.953 88.7293 153.953C90.7843 153.953 92.1943 155.543 92.1943 158.198C92.1943 160.778 90.8593 162.443 88.6843 162.443C87.5893 162.443 86.7043 161.993 86.1493 161.138H86.1043C86.1193 161.423 86.1343 161.873 86.1343 162.488V164.933H84.7393ZM88.5343 161.288C90.0193 161.288 90.7693 159.983 90.7693 158.228C90.7693 156.458 90.0343 155.138 88.5493 155.138C86.8393 155.138 86.0593 156.518 86.0593 158.228C86.0593 159.923 86.7493 161.288 88.5343 161.288ZM96.0748 162.368C94.5448 162.368 93.3448 161.618 93.3448 160.073C93.3448 158.198 94.7248 157.793 96.8098 157.538C97.9948 157.403 98.7598 157.208 98.7598 156.383C98.7598 155.513 98.1448 154.973 97.0348 154.973C95.7598 154.973 95.1448 155.573 95.0998 156.533H93.7498C93.8098 155.168 94.8448 153.953 97.0198 153.953C97.7848 153.953 98.4598 154.088 98.9698 154.388C99.6448 154.793 100.05 155.498 100.05 156.578V160.343C100.05 160.988 100.2 161.333 100.905 161.183H100.965V162.158C100.77 162.218 100.545 162.278 100.215 162.278C99.3598 162.278 98.9398 161.873 98.7898 161.018H98.7748C98.2648 161.723 97.4398 162.368 96.0748 162.368ZM96.4198 161.348C98.0248 161.348 98.7748 160.163 98.7748 159.233V157.913C98.3698 158.168 97.6648 158.363 97.0048 158.483C95.6848 158.708 94.8148 158.948 94.8148 160.058C94.8148 161.093 95.6098 161.348 96.4198 161.348ZM105.503 165.023C103.388 165.023 102.188 164.183 102.038 162.758H103.343C103.463 163.598 104.273 163.943 105.473 163.943C106.913 163.943 107.708 163.298 107.708 161.933V161.708C107.708 161.243 107.723 160.808 107.738 160.553H107.708C107.153 161.348 106.448 161.843 105.308 161.843C103.253 161.843 101.783 160.238 101.783 157.898C101.783 155.423 103.343 153.953 105.233 153.953C106.388 153.953 107.168 154.403 107.678 155.213H107.708V154.148H109.088V161.873C109.088 162.938 108.728 163.733 108.113 164.258C107.483 164.783 106.583 165.023 105.503 165.023ZM105.443 160.703C107.198 160.703 107.798 159.473 107.798 157.838C107.798 156.143 107.033 155.108 105.428 155.108C103.958 155.108 103.208 156.218 103.208 157.913C103.208 159.623 103.988 160.703 105.443 160.703ZM114.514 162.428C112.039 162.428 110.584 160.538 110.584 158.183C110.584 155.843 112.129 153.953 114.439 153.953C115.639 153.953 116.569 154.418 117.199 155.198C117.859 155.993 118.189 157.148 118.189 158.513H112.009C112.114 160.088 112.969 161.288 114.529 161.288C115.639 161.288 116.404 160.763 116.659 159.908H118.024C117.664 161.408 116.374 162.428 114.514 162.428ZM114.439 155.033C112.984 155.033 112.219 156.083 112.039 157.508H116.704C116.629 155.963 115.834 155.033 114.439 155.033ZM122.766 162.443C120.546 162.443 119.286 161.393 119.166 159.758H120.576C120.741 160.928 121.641 161.318 122.796 161.318C124.071 161.318 124.611 160.763 124.611 160.043C124.611 159.158 123.936 158.933 122.511 158.648C120.936 158.318 119.511 157.988 119.511 156.218C119.511 154.838 120.591 153.968 122.466 153.968C124.491 153.968 125.496 154.913 125.676 156.308H124.281C124.161 155.483 123.591 155.018 122.436 155.018C121.341 155.018 120.876 155.528 120.876 156.143C120.876 156.983 121.656 157.148 123.021 157.418C124.626 157.733 126.006 158.093 126.006 159.968C126.006 161.603 124.656 162.443 122.766 162.443ZM133.897 162.368C132.367 162.368 131.167 161.618 131.167 160.073C131.167 158.198 132.547 157.793 134.632 157.538C135.817 157.403 136.582 157.208 136.582 156.383C136.582 155.513 135.967 154.973 134.857 154.973C133.582 154.973 132.967 155.573 132.922 156.533H131.572C131.632 155.168 132.667 153.953 134.842 153.953C135.607 153.953 136.282 154.088 136.792 154.388C137.467 154.793 137.872 155.498 137.872 156.578V160.343C137.872 160.988 138.022 161.333 138.727 161.183H138.787V162.158C138.592 162.218 138.367 162.278 138.037 162.278C137.182 162.278 136.762 161.873 136.612 161.018H136.597C136.087 161.723 135.262 162.368 133.897 162.368ZM134.242 161.348C135.847 161.348 136.597 160.163 136.597 159.233V157.913C136.192 158.168 135.487 158.363 134.827 158.483C133.507 158.708 132.637 158.948 132.637 160.058C132.637 161.093 133.432 161.348 134.242 161.348ZM139.278 155.228V154.148H140.538V151.613H141.918V154.148H143.583V155.228H141.918V160.313C141.918 160.898 142.233 161.063 142.743 161.063C142.983 161.063 143.298 161.003 143.448 160.958H143.493V162.128C143.118 162.218 142.728 162.263 142.368 162.263C141.288 162.248 140.538 161.813 140.538 160.628V155.228H139.278ZM150.412 153.968C150.412 154.373 150.382 154.928 150.367 155.318H150.412C151.012 154.463 151.822 153.953 152.992 153.953C154.672 153.953 155.707 154.898 155.707 156.578V162.203H154.327V156.743C154.327 155.708 153.652 155.123 152.557 155.123C151.312 155.123 150.412 156.008 150.412 157.298V162.203H149.017V151.043H150.412V153.968ZM161.096 162.428C158.666 162.428 157.151 160.538 157.151 158.183C157.151 155.843 158.666 153.953 161.096 153.953C163.526 153.953 165.011 155.843 165.011 158.183C165.011 160.538 163.526 162.428 161.096 162.428ZM161.081 161.288C162.731 161.288 163.586 159.923 163.586 158.183C163.586 156.443 162.731 155.063 161.081 155.063C159.431 155.063 158.576 156.443 158.576 158.183C158.576 159.923 159.431 161.288 161.081 161.288ZM166.492 162.203V154.148H167.872V155.348H167.917C168.412 154.478 169.267 153.953 170.302 153.953C171.277 153.953 172.057 154.463 172.387 155.453H172.417C172.987 154.448 173.932 153.953 174.907 153.953C176.377 153.953 177.397 154.898 177.397 156.578V162.203H176.002V156.698C176.002 155.708 175.357 155.123 174.547 155.123C173.527 155.123 172.642 156.008 172.642 157.238V162.203H171.262V156.698C171.262 155.708 170.707 155.123 169.882 155.123C168.922 155.123 167.887 156.008 167.887 157.238V162.203H166.492ZM182.761 162.428C180.286 162.428 178.831 160.538 178.831 158.183C178.831 155.843 180.376 153.953 182.686 153.953C183.886 153.953 184.816 154.418 185.446 155.198C186.106 155.993 186.436 157.148 186.436 158.513H180.256C180.361 160.088 181.216 161.288 182.776 161.288C183.886 161.288 184.651 160.763 184.906 159.908H186.271C185.911 161.408 184.621 162.428 182.761 162.428ZM182.686 155.033C181.231 155.033 180.466 156.083 180.286 157.508H184.951C184.876 155.963 184.081 155.033 182.686 155.033ZM187.626 162.203V160.553H189.246V162.203H187.626Z" fill="white"/>
</svg>
