<svg width="33" height="23" viewBox="0 0 33 23" fill="none" xmlns="http://www.w3.org/2000/svg">
<path d="M31.266 4.36882C31.391 3.14555 31.266 1.21899 31.266 1.21899C31.266 1.21899 31.9095 3.45433 32.0275 4.93129C32.1044 5.89451 32.0924 6.442 32.0275 7.40616L32.0246 7.44845C31.9488 8.5754 31.9043 9.23609 31.5923 10.331C31.2485 11.5377 30.8773 12.1559 30.287 13.2558L30.2803 13.2684C29.7184 14.3154 29.3955 14.917 28.6553 15.8432C27.8705 16.8252 27.3342 17.2988 26.371 18.0931C25.1176 19.1266 24.3535 19.6663 22.8901 20.343C21.5528 20.9612 20.7496 21.2474 19.3004 21.4679C17.8714 21.6853 17.0408 21.5972 15.6019 21.4679C14.1407 21.3366 13.3032 21.2458 11.9034 20.7929C10.6149 20.3761 9.9167 20.031 8.74884 19.3305C7.56547 18.6208 6.94178 18.1345 5.92059 17.1931C5.04579 16.3867 3.8538 14.9433 3.8538 14.9433L0.699219 18.0931V7.96863H10.3805L7.11716 11.5684C7.11716 11.5684 8.53311 13.2103 9.61907 14.0433C10.9317 15.0501 11.7671 15.5338 13.3175 16.0682C14.8282 16.5888 15.7532 16.6399 17.3423 16.7432C18.3599 16.8092 18.9419 16.878 19.953 16.7432C20.9545 16.6096 21.5075 16.4292 22.4549 16.0682C23.6673 15.6062 24.3241 15.2454 25.392 14.4933C26.7335 13.5483 27.4256 12.8807 28.4378 11.5684C29.3055 10.4435 29.739 9.74138 30.287 8.4186C30.9078 6.92011 31.1004 5.99001 31.266 4.36882Z" fill="black" stroke="black" stroke-linejoin="round"/>
</svg>
