<svg viewBox="0 0 371 211" fill="none" xmlns="http://www.w3.org/2000/svg">
<path d="M310.354 210.738L370.354 0.738281H0.353516V210.738H310.354Z" fill="#FFDB3B"/>
<path d="M53.5535 137.185L54.4735 132.345H76.7135L75.7935 137.185H67.5135L62.9135 160.945H57.1935L61.7935 137.185H53.5535ZM79.1935 140.425L78.5535 143.705H78.6735C79.8735 141.665 81.5135 140.185 84.0735 140.185C84.8335 140.185 85.3135 140.265 85.5935 140.345L84.6735 145.065H84.5535C80.8335 144.585 78.2335 146.305 77.3535 150.945L75.4335 160.945H70.0735L74.0335 140.425H79.1935ZM83.9798 160.945L87.9398 140.425H93.2998L89.3398 160.945H83.9798ZM88.5798 137.225L89.4998 132.345H94.8598L93.9398 137.225H88.5798ZM98.2935 160.945L94.8935 140.425H100.334L101.614 150.785C101.894 153.025 101.974 154.465 101.974 154.465H102.054C102.054 154.465 102.574 153.025 103.534 151.065L108.494 140.425H113.854L103.414 160.945H98.2935ZM111.675 160.945L115.635 140.425H120.995L117.035 160.945H111.675ZM116.275 137.225L117.195 132.345H122.555L121.635 137.225H116.275ZM133.264 160.945C133.024 160.505 132.944 159.625 132.984 158.705H132.904C131.664 160.025 130.144 161.425 127.184 161.425C124.024 161.425 120.664 159.625 120.664 155.385C120.664 149.945 124.984 148.945 129.984 148.545C133.824 148.225 135.304 148.065 135.304 146.025C135.304 144.545 134.144 143.745 132.104 143.745C129.864 143.745 128.384 144.625 127.904 146.665H123.104C123.784 142.465 127.024 139.905 132.304 139.905C137.384 139.905 141.224 142.105 140.104 148.065L138.184 157.905C137.904 159.305 138.024 160.265 138.344 160.745V160.945H133.264ZM125.824 154.905C125.824 156.745 127.104 157.705 128.904 157.705C131.704 157.705 133.504 155.945 133.904 154.065L134.544 150.825C133.504 151.305 132.384 151.545 130.624 151.865C128.664 152.225 125.824 152.105 125.824 154.905Z" fill="black"/>
</svg>
