<svg width="48" height="48" viewBox="0 0 48 48" fill="none" xmlns="http://www.w3.org/2000/svg">
<circle cx="23.8267" cy="23.6665" r="23.3853" fill="white"/>
<path d="M22.2698 0.28125C23.3051 0.28125 24.3403 0.28125 25.3755 0.28125C25.9456 0.352754 26.5175 0.411864 27.0857 0.497668C32.5754 1.3233 37.2759 3.70867 41.0031 7.82538C46.2307 13.5991 48.1629 20.4043 46.7779 28.0562C45.7379 33.8042 42.8095 38.5082 38.1977 42.0957C33.0091 46.1324 27.0971 47.6692 20.5921 46.8293C16.7076 46.3269 13.1644 44.8834 10.0225 42.54C4.87211 38.6988 1.75784 33.5963 0.715942 27.2458C0.605365 26.5727 0.531965 25.8949 0.441406 25.2189C0.441406 24.1836 0.441406 23.1482 0.441406 22.1128C0.5129 21.5427 0.573908 20.9706 0.657794 20.4015C1.22116 16.5612 2.59861 13.0433 4.91214 9.92092C8.76613 4.72021 13.8956 1.58643 20.2928 0.550104C20.9486 0.443325 21.6102 0.369915 22.2698 0.28125ZM3.36311 23.6487C3.34119 34.912 12.5391 44.1207 23.817 44.1284C35.0729 44.136 44.2298 34.9968 44.2823 23.7059C44.3337 12.4579 35.1482 3.24056 23.8513 3.20433C12.5982 3.16715 3.38599 12.3606 3.36311 23.6497V23.6487Z" fill="#2D5FA8"/>
<path d="M25.1162 28.8672C26.1671 27.8161 27.1339 26.8475 28.1024 25.8797C28.8816 25.1004 29.6541 24.3152 30.4442 23.5469C30.8708 23.132 31.4783 23.0647 31.968 23.3356C32.4619 23.6091 32.7278 24.1149 32.6016 24.6939C32.5452 24.9531 32.3988 25.23 32.212 25.4185C29.8291 27.8237 27.4343 30.2188 25.0346 32.6071C24.4018 33.2366 23.2558 33.2366 22.623 32.6071C20.2232 30.2188 17.8293 27.8237 15.4405 25.4235C14.8893 24.8698 14.8843 24.0585 15.3967 23.5494C15.9091 23.0402 16.7144 23.0512 17.2706 23.6033C18.9013 25.2216 20.5228 26.85 22.1451 28.4767C22.2477 28.5802 22.3243 28.7107 22.4126 28.8285C22.4547 28.81 22.4968 28.7906 22.538 28.7721C22.538 28.6341 22.538 28.4961 22.538 28.3581C22.538 23.9904 22.5372 15.7122 22.5397 11.3445C22.5397 10.7141 22.8788 10.253 23.4526 10.0695C23.976 9.90287 24.5793 10.0762 24.8646 10.5601C25.0186 10.821 25.1036 11.1618 25.1052 11.4673C25.1204 15.7812 25.1153 24.0055 25.1153 28.3194V28.8681L25.1162 28.8672Z" fill="#2D5FA8"/>
<path d="M31.2812 37.3203H16.3711" stroke="#2D5FA8" stroke-width="2.5" stroke-linecap="round"/>
</svg>
