<svg width="541" height="121" viewBox="0 0 541 121" fill="none" xmlns="http://www.w3.org/2000/svg">
<path d="M540.663 0.890625L-189.632 0.92656L-222.59 120.994L507.8 121L540.663 0.890625Z" fill="white"/>
<path d="M50.66 72L56.18 43.4H67.18C72.66 43.4 76.3 46.48 76.3 51.84C76.3 57.96 71.94 61.64 65.54 61.64H58.58L56.58 72H50.66ZM61.14 48.4L59.5 56.96H65.26C67.94 56.96 70.38 55.52 70.38 52.12C70.38 49.8 69.02 48.4 66.42 48.4H61.14ZM84.1056 51.48L83.4656 54.76H83.5856C84.7856 52.72 86.4256 51.24 88.9856 51.24C89.7456 51.24 90.2256 51.32 90.5056 51.4L89.5856 56.12H89.4656C85.7456 55.64 83.1456 57.36 82.2656 62L80.3456 72H74.9856L78.9456 51.48H84.1056ZM99.2966 72.6C93.9366 72.6 89.6566 69.32 89.6566 63.04C89.6566 56.56 94.2166 50.92 101.217 50.92C106.457 50.92 110.697 54.2 110.697 60.28C110.697 66.84 106.297 72.6 99.2966 72.6ZM95.0166 63.36C95.0166 66.16 96.2566 68.56 99.4166 68.56C103.577 68.56 105.337 64.04 105.337 60.12C105.337 57.44 104.097 54.96 100.937 54.96C96.8166 54.96 95.0166 59.4 95.0166 63.36ZM121.198 72.6C116.198 72.6 112.038 69.8 112.038 63.52C112.038 57.2 116.238 50.92 123.238 50.92C127.798 50.92 131.478 53.08 131.758 58.44H126.518C126.318 56.48 125.238 55.24 123.078 55.24C119.118 55.24 117.398 59.76 117.398 63.68C117.398 66.32 118.558 68.28 121.518 68.28C123.518 68.28 125.078 67.2 125.798 64.76H130.998C129.878 69.68 126.238 72.6 121.198 72.6ZM152.185 63.24H137.905C137.905 66.48 138.985 68.44 142.105 68.44C143.985 68.44 145.545 67.64 146.305 65.88H151.585C150.945 67.8 149.865 69.36 148.425 70.48C146.705 71.84 144.505 72.56 142.025 72.6C136.705 72.6 132.585 69.64 132.585 63.16C132.585 57.2 136.945 50.92 143.585 50.92C145.825 50.92 147.385 51.36 148.745 52.24C151.825 54.24 152.945 58.32 152.185 63.24ZM143.465 55.08C140.625 55.08 139.105 57.12 138.385 59.52H147.225C147.305 57.12 146.225 55.08 143.465 55.08ZM162.194 72.6C157.234 72.6 153.274 70.52 152.914 65.36H157.994C158.194 67.12 159.394 68.68 162.194 68.68C164.154 68.68 165.554 68 165.554 66.44C165.554 64.96 163.794 64.4 160.794 63.4C157.674 62.36 154.914 61.04 154.914 57.4C154.914 53.24 158.234 50.92 162.914 50.92C167.514 50.92 170.954 53.24 171.314 57.72H166.394C166.154 56.12 165.034 54.76 162.754 54.76C161.314 54.76 159.674 55.24 159.674 56.8C159.674 58.2 161.514 58.52 164.674 59.6C167.634 60.6 170.474 62.12 170.474 65.72C170.474 70.12 167.394 72.6 162.194 72.6ZM180.866 72.6C175.906 72.6 171.946 70.52 171.586 65.36H176.666C176.866 67.12 178.066 68.68 180.866 68.68C182.826 68.68 184.226 68 184.226 66.44C184.226 64.96 182.466 64.4 179.466 63.4C176.346 62.36 173.586 61.04 173.586 57.4C173.586 53.24 176.906 50.92 181.586 50.92C186.186 50.92 189.626 53.24 189.986 57.72H185.066C184.826 56.12 183.706 54.76 181.426 54.76C179.986 54.76 178.346 55.24 178.346 56.8C178.346 58.2 180.186 58.52 183.346 59.6C186.306 60.6 189.146 62.12 189.146 65.72C189.146 70.12 186.066 72.6 180.866 72.6ZM192.613 59.96L193.733 54.16H199.493L198.373 59.96H192.613ZM190.293 72L191.413 66.2H197.173L196.053 72H190.293ZM223.916 72L223.116 65.88H213.236L210.356 72H204.556L219.196 43.4H225.116L229.836 72H223.916ZM219.196 53.36L215.316 61.48H222.556L221.556 53.44C221.356 51.8 221.196 48.88 221.196 48.88H221.116C221.116 48.88 219.916 51.84 219.196 53.36ZM240.261 72.6C235.261 72.6 231.101 69.8 231.101 63.52C231.101 57.2 235.301 50.92 242.301 50.92C246.861 50.92 250.541 53.08 250.821 58.44H245.581C245.381 56.48 244.301 55.24 242.141 55.24C238.181 55.24 236.461 59.76 236.461 63.68C236.461 66.32 237.621 68.28 240.581 68.28C242.581 68.28 244.141 67.2 244.861 64.76H250.061C248.941 69.68 245.301 72.6 240.261 72.6ZM252.457 55.08L253.137 51.48H255.737L256.977 45.08H262.217L260.977 51.48H264.417L263.737 55.08H260.297L258.217 65.76C257.897 67.36 258.417 68 259.737 68C260.337 68 261.337 67.92 261.337 67.92L260.577 71.92C260.577 71.92 259.217 72.04 258.137 72.04C253.977 72.04 252.017 70.52 252.857 66.28L255.057 55.08H252.457ZM263.228 72L267.188 51.48H272.548L268.588 72H263.228ZM267.828 48.28L268.748 43.4H274.108L273.188 48.28H267.828ZM277.542 72L274.142 51.48H279.582L280.862 61.84C281.142 64.08 281.222 65.52 281.222 65.52H281.302C281.302 65.52 281.822 64.08 282.782 62.12L287.742 51.48H293.102L282.662 72H277.542ZM290.923 72L294.883 51.48H300.243L296.283 72H290.923ZM295.523 48.28L296.443 43.4H301.803L300.883 48.28H295.523ZM301.832 55.08L302.512 51.48H305.112L306.352 45.08H311.592L310.352 51.48H313.792L313.112 55.08H309.672L307.592 65.76C307.272 67.36 307.792 68 309.112 68C309.712 68 310.712 67.92 310.712 67.92L309.952 71.92C309.952 71.92 308.592 72.04 307.512 72.04C303.352 72.04 301.392 70.52 302.232 66.28L304.432 55.08H301.832ZM312.363 78.72L313.203 74.48H314.923C317.203 74.48 318.483 73.24 318.483 70.68C318.483 69.68 318.243 68.16 317.803 66.08L314.843 51.48H320.443L321.843 60.8C322.123 62.68 322.443 65.44 322.443 65.44H322.523C322.523 65.44 323.523 62.72 324.403 60.8L328.643 51.48H334.083L323.483 73C321.443 77.12 319.683 78.72 315.723 78.72H312.363ZM339.527 72L345.047 43.4H356.527C358.887 43.4 360.967 43.96 362.447 45.16C363.847 46.28 364.687 48 364.687 50.32C364.687 53.68 362.767 56.04 359.407 57V57.12C362.327 57.92 363.847 59.92 363.807 63.08C363.807 65.4 362.927 67.4 361.167 69.08C359.207 70.96 356.607 72 352.727 72H339.527ZM347.727 59.2L346.167 67.24H352.767C355.927 67.24 358.007 65.84 358.007 62.84C358.007 60.4 356.367 59.2 353.967 59.2H347.727ZM348.567 54.96H354.487C356.847 54.96 359.127 54.2 359.127 51.08C359.127 49.28 358.127 48.08 355.767 48.08H349.887L348.567 54.96ZM375.468 72.6C370.108 72.6 365.828 69.32 365.828 63.04C365.828 56.56 370.388 50.92 377.388 50.92C382.628 50.92 386.868 54.2 386.868 60.28C386.868 66.84 382.468 72.6 375.468 72.6ZM371.188 63.36C371.188 66.16 372.428 68.56 375.588 68.56C379.748 68.56 381.508 64.04 381.508 60.12C381.508 57.44 380.268 54.96 377.108 54.96C372.988 54.96 371.188 59.4 371.188 63.36ZM397.89 72.6C392.53 72.6 388.25 69.32 388.25 63.04C388.25 56.56 392.81 50.92 399.81 50.92C405.05 50.92 409.29 54.2 409.29 60.28C409.29 66.84 404.89 72.6 397.89 72.6ZM393.61 63.36C393.61 66.16 394.85 68.56 398.01 68.56C402.17 68.56 403.93 64.04 403.93 60.12C403.93 57.44 402.69 54.96 399.53 54.96C395.41 54.96 393.61 59.4 393.61 63.36ZM423.232 72L419.312 62.72L416.272 65.44L415.032 72H409.712L415.232 43.4H420.552L417.432 59.44L425.472 51.48H432.032L423.472 59.52L429.192 72H423.232Z" fill="black"/>
</svg>
