<svg width="526" height="121" viewBox="0 0 526 121" fill="none" xmlns="http://www.w3.org/2000/svg">
<path d="M525.872 0.226562L-105.442 0.261635L-138.582 120.993L492.827 121L525.872 0.226562Z" fill="white"/>
<path d="M63.74 71.6C56.14 71.6 51.9 66.48 51.9 59.44C51.9 50.72 57.5 41.84 67.18 41.84C72.98 41.84 77.34 44.76 77.7 51.48H72.06C71.78 48.24 70.02 46.68 66.74 46.68C60.5 46.68 57.74 53.44 57.74 59.36C57.74 63.32 59.34 66.88 64.18 66.88C67.54 66.88 69.86 64.96 70.86 61.8H76.5C75.7 64.8 74.26 67.4 72.02 69.12C69.66 70.92 67.22 71.6 63.74 71.6ZM88.1247 71.6C82.7647 71.6 78.4847 68.32 78.4847 62.04C78.4847 55.56 83.0447 49.92 90.0447 49.92C95.2847 49.92 99.5247 53.2 99.5247 59.28C99.5247 65.84 95.1247 71.6 88.1247 71.6ZM83.8447 62.36C83.8447 65.16 85.0847 67.56 88.2447 67.56C92.4047 67.56 94.1647 63.04 94.1647 59.12C94.1647 56.44 92.9247 53.96 89.7647 53.96C85.6447 53.96 83.8447 58.4 83.8447 62.36ZM99.9466 71L103.907 50.48H109.067L108.507 53.48H108.627C110.027 51.28 111.867 49.92 114.387 49.92C117.147 49.92 118.707 51.56 119.307 53.84H119.387C121.227 51.04 123.467 49.92 126.187 49.92C129.867 49.92 132.667 52.8 131.587 58.24L129.147 71H123.787L126.227 58.4C126.707 55.84 125.667 54.48 123.787 54.48C121.507 54.48 119.987 56.52 119.387 59.68L117.227 71H111.867L114.307 58.4C114.787 55.84 113.747 54.48 111.867 54.48C109.587 54.48 108.067 56.52 107.467 59.68L105.307 71H99.9466ZM131.087 77.72L136.368 50.48H141.528L141.048 53H141.168C142.608 51.16 144.688 49.92 147.448 49.92C152.048 49.92 154.528 53.76 154.528 58.88C154.528 64.68 151.568 71.6 144.408 71.6C141.928 71.6 139.568 70.52 138.408 68.12H138.328L136.448 77.72H131.087ZM139.408 62.4C139.408 64.88 140.688 67.12 143.608 67.12C147.648 67.12 149.048 62.84 149.048 59.08C149.048 56.68 148.048 54.28 145.128 54.28C141.288 54.28 139.408 58.68 139.408 62.4ZM175.388 62.24H161.108C161.108 65.48 162.188 67.44 165.308 67.44C167.188 67.44 168.748 66.64 169.508 64.88H174.788C174.148 66.8 173.068 68.36 171.628 69.48C169.908 70.84 167.708 71.56 165.228 71.6C159.908 71.6 155.788 68.64 155.788 62.16C155.788 56.2 160.148 49.92 166.788 49.92C169.028 49.92 170.588 50.36 171.948 51.24C175.028 53.24 176.148 57.32 175.388 62.24ZM166.668 54.08C163.828 54.08 162.308 56.12 161.588 58.52H170.428C170.508 56.12 169.428 54.08 166.668 54.08ZM177.692 54.08L178.372 50.48H180.972L182.212 44.08H187.452L186.212 50.48H189.652L188.972 54.08H185.532L183.452 64.76C183.132 66.36 183.652 67 184.972 67C185.572 67 186.572 66.92 186.572 66.92L185.812 70.92C185.812 70.92 184.452 71.04 183.372 71.04C179.212 71.04 177.252 69.52 178.092 65.28L180.292 54.08H177.692ZM188.462 71L192.422 50.48H197.782L193.822 71H188.462ZM193.062 47.28L193.982 42.4H199.342L198.422 47.28H193.062ZM199.371 54.08L200.051 50.48H202.651L203.891 44.08H209.131L207.891 50.48H211.331L210.651 54.08H207.211L205.131 64.76C204.811 66.36 205.331 67 206.651 67C207.251 67 208.251 66.92 208.251 66.92L207.491 70.92C207.491 70.92 206.131 71.04 205.051 71.04C200.891 71.04 198.931 69.52 199.771 65.28L201.971 54.08H199.371ZM210.142 71L214.102 50.48H219.462L215.502 71H210.142ZM214.742 47.28L215.662 42.4H221.022L220.102 47.28H214.742ZM224.456 71L221.056 50.48H226.496L227.776 60.84C228.056 63.08 228.136 64.52 228.136 64.52H228.216C228.216 64.52 228.736 63.08 229.696 61.12L234.656 50.48H240.016L229.576 71H224.456ZM257.967 62.24H243.687C243.687 65.48 244.767 67.44 247.887 67.44C249.767 67.44 251.327 66.64 252.087 64.88H257.367C256.727 66.8 255.647 68.36 254.207 69.48C252.487 70.84 250.287 71.56 247.807 71.6C242.487 71.6 238.367 68.64 238.367 62.16C238.367 56.2 242.727 49.92 249.367 49.92C251.607 49.92 253.167 50.36 254.527 51.24C257.607 53.24 258.727 57.32 257.967 62.24ZM249.247 54.08C246.407 54.08 244.887 56.12 244.167 58.52H253.007C253.087 56.12 252.007 54.08 249.247 54.08ZM283.369 71L282.569 64.88H272.689L269.809 71H264.009L278.649 42.4H284.569L289.289 71H283.369ZM278.649 52.36L274.769 60.48H282.009L281.009 52.44C280.809 50.8 280.649 47.88 280.649 47.88H280.569C280.569 47.88 279.369 50.84 278.649 52.36ZM300.24 50.48L299.64 53.72H299.76C301.52 51.2 303.24 49.92 306.16 49.92C310.24 49.92 312.6 53.24 311.68 58.04L309.2 71H303.84L306.24 58.68C306.76 55.96 305.72 54.48 303.44 54.48C300.92 54.48 299.12 56.8 298.56 59.8L296.4 71H291.04L295 50.48H300.24ZM325.286 71C325.046 70.56 324.966 69.68 325.006 68.76H324.926C323.686 70.08 322.166 71.48 319.206 71.48C316.046 71.48 312.686 69.68 312.686 65.44C312.686 60 317.006 59 322.006 58.6C325.846 58.28 327.326 58.12 327.326 56.08C327.326 54.6 326.166 53.8 324.126 53.8C321.886 53.8 320.406 54.68 319.926 56.72H315.126C315.806 52.52 319.046 49.96 324.326 49.96C329.406 49.96 333.246 52.16 332.126 58.12L330.206 67.96C329.926 69.36 330.046 70.32 330.366 70.8V71H325.286ZM317.846 64.96C317.846 66.8 319.126 67.76 320.926 67.76C323.726 67.76 325.526 66 325.926 64.12L326.566 60.88C325.526 61.36 324.406 61.6 322.646 61.92C320.686 62.28 317.846 62.16 317.846 64.96ZM333.112 71L338.633 42.4H343.993L338.473 71H333.112ZM341.542 77.72L342.383 73.48H344.103C346.383 73.48 347.663 72.24 347.663 69.68C347.663 68.68 347.423 67.16 346.983 65.08L344.023 50.48H349.623L351.023 59.8C351.303 61.68 351.623 64.44 351.623 64.44H351.703C351.703 64.44 352.703 61.72 353.583 59.8L357.823 50.48H363.263L352.663 72C350.623 76.12 348.863 77.72 344.903 77.72H341.542ZM370.554 71.6C365.594 71.6 361.634 69.52 361.274 64.36H366.354C366.554 66.12 367.754 67.68 370.554 67.68C372.514 67.68 373.914 67 373.914 65.44C373.914 63.96 372.154 63.4 369.154 62.4C366.034 61.36 363.274 60.04 363.274 56.4C363.274 52.24 366.594 49.92 371.274 49.92C375.874 49.92 379.314 52.24 379.674 56.72H374.754C374.514 55.12 373.394 53.76 371.114 53.76C369.674 53.76 368.034 54.24 368.034 55.8C368.034 57.2 369.874 57.52 373.034 58.6C375.994 59.6 378.834 61.12 378.834 64.72C378.834 69.12 375.754 71.6 370.554 71.6ZM380.181 71L384.141 50.48H389.501L385.541 71H380.181ZM384.781 47.28L385.701 42.4H391.061L390.141 47.28H384.781ZM398.21 71.6C393.25 71.6 389.29 69.52 388.93 64.36H394.01C394.21 66.12 395.41 67.68 398.21 67.68C400.17 67.68 401.57 67 401.57 65.44C401.57 63.96 399.81 63.4 396.81 62.4C393.69 61.36 390.93 60.04 390.93 56.4C390.93 52.24 394.25 49.92 398.93 49.92C403.53 49.92 406.97 52.24 407.33 56.72H402.41C402.17 55.12 401.05 53.76 398.77 53.76C397.33 53.76 395.69 54.24 395.69 55.8C395.69 57.2 397.53 57.52 400.69 58.6C403.65 59.6 406.49 61.12 406.49 64.72C406.49 69.12 403.41 71.6 398.21 71.6Z" fill="black"/>
</svg>
