<svg width="526" height="121" viewBox="0 0 526 121" fill="none" xmlns="http://www.w3.org/2000/svg">
<path d="M525.872 0.226562L-105.442 0.261635L-138.582 120.993L492.827 121L525.872 0.226562Z" fill="white"/>
<path d="M63.74 71.6C56.14 71.6 51.9 66.48 51.9 59.44C51.9 50.72 57.5 41.84 67.18 41.84C72.98 41.84 77.34 44.76 77.7 51.48H72.06C71.78 48.24 70.02 46.68 66.74 46.68C60.5 46.68 57.74 53.44 57.74 59.36C57.74 63.32 59.34 66.88 64.18 66.88C67.54 66.88 69.86 64.96 70.86 61.8H76.5C75.7 64.8 74.26 67.4 72.02 69.12C69.66 70.92 67.22 71.6 63.74 71.6ZM88.1247 71.6C82.7647 71.6 78.4847 68.32 78.4847 62.04C78.4847 55.56 83.0447 49.92 90.0447 49.92C95.2847 49.92 99.5247 53.2 99.5247 59.28C99.5247 65.84 95.1247 71.6 88.1247 71.6ZM83.8447 62.36C83.8447 65.16 85.0847 67.56 88.2447 67.56C92.4047 67.56 94.1647 63.04 94.1647 59.12C94.1647 56.44 92.9247 53.96 89.7647 53.96C85.6447 53.96 83.8447 58.4 83.8447 62.36ZM99.9466 71L103.907 50.48H109.067L108.507 53.48H108.627C110.027 51.28 111.867 49.92 114.387 49.92C117.147 49.92 118.707 51.56 119.307 53.84H119.387C121.227 51.04 123.467 49.92 126.187 49.92C129.867 49.92 132.667 52.8 131.587 58.24L129.147 71H123.787L126.227 58.4C126.707 55.84 125.667 54.48 123.787 54.48C121.507 54.48 119.987 56.52 119.387 59.68L117.227 71H111.867L114.307 58.4C114.787 55.84 113.747 54.48 111.867 54.48C109.587 54.48 108.067 56.52 107.467 59.68L105.307 71H99.9466ZM131.087 77.72L136.368 50.48H141.528L141.048 53H141.168C142.608 51.16 144.688 49.92 147.448 49.92C152.048 49.92 154.528 53.76 154.528 58.88C154.528 64.68 151.568 71.6 144.408 71.6C141.928 71.6 139.568 70.52 138.408 68.12H138.328L136.448 77.72H131.087ZM139.408 62.4C139.408 64.88 140.688 67.12 143.608 67.12C147.648 67.12 149.048 62.84 149.048 59.08C149.048 56.68 148.048 54.28 145.128 54.28C141.288 54.28 139.408 58.68 139.408 62.4ZM175.388 62.24H161.108C161.108 65.48 162.188 67.44 165.308 67.44C167.188 67.44 168.748 66.64 169.508 64.88H174.788C174.148 66.8 173.068 68.36 171.628 69.48C169.908 70.84 167.708 71.56 165.228 71.6C159.908 71.6 155.788 68.64 155.788 62.16C155.788 56.2 160.148 49.92 166.788 49.92C169.028 49.92 170.588 50.36 171.948 51.24C175.028 53.24 176.148 57.32 175.388 62.24ZM166.668 54.08C163.828 54.08 162.308 56.12 161.588 58.52H170.428C170.508 56.12 169.428 54.08 166.668 54.08ZM177.692 54.08L178.372 50.48H180.972L182.212 44.08H187.452L186.212 50.48H189.652L188.972 54.08H185.532L183.452 64.76C183.132 66.36 183.652 67 184.972 67C185.572 67 186.572 66.92 186.572 66.92L185.812 70.92C185.812 70.92 184.452 71.04 183.372 71.04C179.212 71.04 177.252 69.52 178.092 65.28L180.292 54.08H177.692ZM208.787 62.24H194.507C194.507 65.48 195.587 67.44 198.707 67.44C200.587 67.44 202.147 66.64 202.907 64.88H208.187C207.547 66.8 206.467 68.36 205.027 69.48C203.307 70.84 201.107 71.56 198.627 71.6C193.307 71.6 189.187 68.64 189.187 62.16C189.187 56.2 193.547 49.92 200.187 49.92C202.427 49.92 203.987 50.36 205.347 51.24C208.427 53.24 209.547 57.32 208.787 62.24ZM200.067 54.08C197.227 54.08 195.707 56.12 194.987 58.52H203.827C203.907 56.12 202.827 54.08 200.067 54.08ZM211.09 54.08L211.77 50.48H214.37L215.61 44.08H220.85L219.61 50.48H223.05L222.37 54.08H218.93L216.85 64.76C216.53 66.36 217.05 67 218.37 67C218.97 67 219.97 66.92 219.97 66.92L219.21 70.92C219.21 70.92 217.85 71.04 216.77 71.04C212.61 71.04 210.65 69.52 211.49 65.28L213.69 54.08H211.09ZM221.861 71L225.821 50.48H231.181L227.221 71H221.861ZM226.461 47.28L227.381 42.4H232.741L231.821 47.28H226.461ZM236.174 71L232.774 50.48H238.214L239.494 60.84C239.774 63.08 239.854 64.52 239.854 64.52H239.934C239.934 64.52 240.454 63.08 241.414 61.12L246.374 50.48H251.734L241.294 71H236.174ZM269.685 62.24H255.405C255.405 65.48 256.485 67.44 259.605 67.44C261.485 67.44 263.045 66.64 263.805 64.88H269.085C268.445 66.8 267.365 68.36 265.925 69.48C264.205 70.84 262.005 71.56 259.525 71.6C254.205 71.6 250.085 68.64 250.085 62.16C250.085 56.2 254.445 49.92 261.085 49.92C263.325 49.92 264.885 50.36 266.245 51.24C269.325 53.24 270.445 57.32 269.685 62.24ZM260.965 54.08C258.125 54.08 256.605 56.12 255.885 58.52H264.725C264.805 56.12 263.725 54.08 260.965 54.08ZM295.088 71L294.288 64.88H284.408L281.528 71H275.727L290.368 42.4H296.288L301.008 71H295.088ZM290.368 52.36L286.488 60.48H293.728L292.728 52.44C292.528 50.8 292.368 47.88 292.368 47.88H292.288C292.288 47.88 291.088 50.84 290.368 52.36ZM311.959 50.48L311.359 53.72H311.479C313.239 51.2 314.959 49.92 317.879 49.92C321.959 49.92 324.319 53.24 323.399 58.04L320.919 71H315.559L317.959 58.68C318.479 55.96 317.439 54.48 315.159 54.48C312.639 54.48 310.839 56.8 310.279 59.8L308.119 71H302.759L306.719 50.48H311.959ZM337.004 71C336.764 70.56 336.684 69.68 336.724 68.76H336.644C335.404 70.08 333.884 71.48 330.924 71.48C327.764 71.48 324.404 69.68 324.404 65.44C324.404 60 328.724 59 333.724 58.6C337.564 58.28 339.044 58.12 339.044 56.08C339.044 54.6 337.884 53.8 335.844 53.8C333.604 53.8 332.124 54.68 331.644 56.72H326.844C327.524 52.52 330.764 49.96 336.044 49.96C341.124 49.96 344.964 52.16 343.844 58.12L341.924 67.96C341.644 69.36 341.764 70.32 342.084 70.8V71H337.004ZM329.564 64.96C329.564 66.8 330.844 67.76 332.644 67.76C335.444 67.76 337.244 66 337.644 64.12L338.284 60.88C337.244 61.36 336.124 61.6 334.364 61.92C332.404 62.28 329.564 62.16 329.564 64.96ZM353.951 50.48L353.351 53.72H353.471C355.231 51.2 356.951 49.92 359.871 49.92C363.951 49.92 366.311 53.24 365.391 58.04L362.911 71H357.551L359.951 58.68C360.471 55.96 359.431 54.48 357.151 54.48C354.631 54.48 352.831 56.8 352.271 59.8L350.111 71H344.751L348.711 50.48H353.951ZM366.277 71L371.797 42.4H377.157L371.637 71H366.277ZM374.707 77.72L375.547 73.48H377.267C379.547 73.48 380.827 72.24 380.827 69.68C380.827 68.68 380.587 67.16 380.147 65.08L377.187 50.48H382.787L384.187 59.8C384.467 61.68 384.787 64.44 384.787 64.44H384.867C384.867 64.44 385.867 61.72 386.747 59.8L390.987 50.48H396.427L385.827 72C383.787 76.12 382.027 77.72 378.067 77.72H374.707ZM403.718 71.6C398.758 71.6 394.798 69.52 394.438 64.36H399.518C399.718 66.12 400.918 67.68 403.718 67.68C405.678 67.68 407.078 67 407.078 65.44C407.078 63.96 405.318 63.4 402.318 62.4C399.198 61.36 396.438 60.04 396.438 56.4C396.438 52.24 399.758 49.92 404.438 49.92C409.038 49.92 412.478 52.24 412.838 56.72H407.918C407.678 55.12 406.558 53.76 404.278 53.76C402.838 53.76 401.198 54.24 401.198 55.8C401.198 57.2 403.038 57.52 406.198 58.6C409.158 59.6 411.998 61.12 411.998 64.72C411.998 69.12 408.918 71.6 403.718 71.6ZM413.345 71L417.305 50.48H422.665L418.705 71H413.345ZM417.945 47.28L418.865 42.4H424.225L423.305 47.28H417.945ZM431.374 71.6C426.414 71.6 422.454 69.52 422.094 64.36H427.174C427.374 66.12 428.574 67.68 431.374 67.68C433.334 67.68 434.734 67 434.734 65.44C434.734 63.96 432.974 63.4 429.974 62.4C426.854 61.36 424.094 60.04 424.094 56.4C424.094 52.24 427.414 49.92 432.094 49.92C436.694 49.92 440.134 52.24 440.494 56.72H435.574C435.334 55.12 434.214 53.76 431.934 53.76C430.494 53.76 428.854 54.24 428.854 55.8C428.854 57.2 430.694 57.52 433.854 58.6C436.814 59.6 439.654 61.12 439.654 64.72C439.654 69.12 436.574 71.6 431.374 71.6Z" fill="black"/>
</svg>
