<svg width="724" height="121" viewBox="0 0 724 121" fill="none" xmlns="http://www.w3.org/2000/svg">
<path d="M651.296 0.726562L-74.4391 0.762273L-107.191 120.08L618.638 120.086L651.296 0.726562Z" fill="white"/>
<path d="M54.2459 73.9062L59.7659 45.3062H79.3259L78.4059 50.1862H64.5659L63.2059 57.1062H75.2459L74.2859 62.0262H62.2459L59.9659 73.9062H54.2459ZM76.5403 73.9062L80.5003 53.3862H85.8603L81.9003 73.9062H76.5403ZM81.1403 50.1862L82.0603 45.3062H87.4203L86.5003 50.1862H81.1403ZM94.5294 53.3862L93.9294 56.6262H94.0494C95.8094 54.1062 97.5294 52.8262 100.449 52.8262C104.529 52.8262 106.889 56.1462 105.969 60.9462L103.489 73.9062H98.1294L100.529 61.5862C101.049 58.8662 100.009 57.3862 97.7294 57.3862C95.2094 57.3862 93.4094 59.7062 92.8494 62.7062L90.6894 73.9062H85.3294L89.2894 53.3862H94.5294ZM119.575 73.9062C119.335 73.4662 119.255 72.5863 119.295 71.6662H119.215C117.975 72.9862 116.455 74.3863 113.495 74.3863C110.335 74.3863 106.975 72.5863 106.975 68.3462C106.975 62.9062 111.295 61.9062 116.295 61.5062C120.135 61.1862 121.615 61.0262 121.615 58.9862C121.615 57.5062 120.455 56.7062 118.415 56.7062C116.175 56.7062 114.695 57.5862 114.215 59.6262H109.415C110.095 55.4262 113.335 52.8662 118.615 52.8662C123.695 52.8662 127.535 55.0662 126.415 61.0262L124.495 70.8662C124.215 72.2662 124.335 73.2262 124.655 73.7062V73.9062H119.575ZM112.135 67.8662C112.135 69.7062 113.415 70.6662 115.215 70.6662C118.015 70.6662 119.815 68.9062 120.215 67.0262L120.855 63.7862C119.815 64.2662 118.695 64.5062 116.935 64.8262C114.975 65.1862 112.135 65.0662 112.135 67.8662ZM127.402 73.9062L132.922 45.3062H138.282L132.762 73.9062H127.402ZM143.66 73.9062L149.18 45.3062H158.26C165.3 45.3062 169.9 49.4262 169.9 57.4262C169.9 62.9062 168.54 66.7462 165.74 69.7062C163.26 72.3462 159.22 73.9062 154.9 73.9062H143.66ZM150.34 68.9062H154.94C160.94 68.9062 164.1 64.6262 164.1 57.5862C164.1 52.8662 161.9 50.2662 157.54 50.2662H153.94L150.34 68.9062ZM190.693 65.1462H176.413C176.413 68.3862 177.493 70.3462 180.613 70.3462C182.493 70.3462 184.053 69.5462 184.813 67.7862H190.093C189.453 69.7062 188.373 71.2663 186.933 72.3862C185.213 73.7462 183.013 74.4663 180.533 74.5063C175.213 74.5063 171.093 71.5462 171.093 65.0662C171.093 59.1062 175.453 52.8262 182.093 52.8262C184.333 52.8262 185.893 53.2662 187.253 54.1462C190.333 56.1462 191.453 60.2262 190.693 65.1462ZM181.973 56.9862C179.133 56.9862 177.613 59.0262 176.893 61.4262H185.733C185.813 59.0262 184.733 56.9862 181.973 56.9862ZM191.542 73.9062L197.062 45.3062H202.422L196.902 73.9062H191.542ZM200.407 73.9062L204.368 53.3862H209.728L205.768 73.9062H200.407ZM205.008 50.1862L205.928 45.3062H211.288L210.368 50.1862H205.008ZM214.721 73.9062L211.321 53.3862H216.761L218.041 63.7462C218.321 65.9862 218.401 67.4262 218.401 67.4262H218.481C218.481 67.4262 219.001 65.9862 219.961 64.0262L224.921 53.3862H230.281L219.841 73.9062H214.721ZM248.232 65.1462H233.952C233.952 68.3862 235.032 70.3462 238.152 70.3462C240.032 70.3462 241.592 69.5462 242.352 67.7862H247.632C246.992 69.7062 245.912 71.2663 244.472 72.3862C242.752 73.7462 240.552 74.4663 238.072 74.5063C232.752 74.5063 228.632 71.5462 228.632 65.0662C228.632 59.1062 232.992 52.8262 239.632 52.8262C241.872 52.8262 243.432 53.2662 244.792 54.1462C247.872 56.1462 248.992 60.2262 248.232 65.1462ZM239.512 56.9862C236.672 56.9862 235.152 59.0262 234.432 61.4262H243.272C243.352 59.0262 242.272 56.9862 239.512 56.9862ZM258.121 53.3862L257.481 56.6662H257.601C258.801 54.6262 260.441 53.1462 263.001 53.1462C263.761 53.1462 264.241 53.2262 264.521 53.3062L263.601 58.0262H263.481C259.761 57.5462 257.161 59.2662 256.281 63.9062L254.361 73.9062H249.001L252.961 53.3862H258.121ZM275.512 73.9062C275.272 73.4662 275.192 72.5863 275.232 71.6662H275.152C273.912 72.9862 272.392 74.3863 269.432 74.3863C266.272 74.3863 262.912 72.5863 262.912 68.3462C262.912 62.9062 267.232 61.9062 272.232 61.5062C276.072 61.1862 277.552 61.0262 277.552 58.9862C277.552 57.5062 276.392 56.7062 274.352 56.7062C272.112 56.7062 270.632 57.5862 270.152 59.6262H265.352C266.032 55.4262 269.272 52.8662 274.552 52.8662C279.632 52.8662 283.472 55.0662 282.352 61.0262L280.432 70.8662C280.152 72.2662 280.272 73.2262 280.592 73.7062V73.9062H275.512ZM268.072 67.8662C268.072 69.7062 269.352 70.6662 271.152 70.6662C273.952 70.6662 275.752 68.9062 276.152 67.0262L276.792 63.7862C275.752 64.2662 274.632 64.5062 272.872 64.8262C270.912 65.1862 268.072 65.0662 268.072 67.8662ZM295.259 74.5063C292.699 74.5063 290.219 73.5062 289.059 70.9062H288.979L288.419 73.9062H283.259L288.779 45.3062H294.139L292.099 55.7862H292.219C293.579 54.1062 295.579 52.8262 298.099 52.8262C302.659 52.8262 305.259 56.4262 305.259 61.4662C305.259 68.0662 302.099 74.5063 295.259 74.5063ZM290.299 65.2662C290.299 67.7862 291.539 69.9862 294.499 69.9862C298.379 69.9862 299.739 65.5462 299.739 61.8662C299.739 59.4662 298.859 57.1862 295.939 57.1862C291.979 57.1862 290.299 61.7062 290.299 65.2662ZM305.683 73.9062L311.203 45.3062H316.563L311.043 73.9062H305.683ZM335.068 65.1462H320.788C320.788 68.3862 321.868 70.3462 324.988 70.3462C326.868 70.3462 328.428 69.5462 329.188 67.7862H334.468C333.828 69.7062 332.748 71.2663 331.308 72.3862C329.588 73.7462 327.388 74.4663 324.908 74.5063C319.588 74.5063 315.468 71.5462 315.468 65.0662C315.468 59.1062 319.828 52.8262 326.468 52.8262C328.708 52.8262 330.268 53.2662 331.628 54.1462C334.708 56.1462 335.828 60.2262 335.068 65.1462ZM326.348 56.9862C323.508 56.9862 321.988 59.0262 321.268 61.4262H330.108C330.188 59.0262 329.108 56.9862 326.348 56.9862ZM345.077 74.5063C340.117 74.5063 336.157 72.4262 335.797 67.2662H340.877C341.077 69.0262 342.277 70.5862 345.077 70.5862C347.037 70.5862 348.437 69.9062 348.437 68.3462C348.437 66.8662 346.677 66.3062 343.677 65.3062C340.557 64.2662 337.797 62.9462 337.797 59.3062C337.797 55.1462 341.117 52.8262 345.797 52.8262C350.397 52.8262 353.837 55.1462 354.197 59.6262H349.277C349.037 58.0262 347.917 56.6662 345.637 56.6662C344.197 56.6662 342.557 57.1462 342.557 58.7062C342.557 60.1062 344.397 60.4262 347.557 61.5062C350.517 62.5062 353.357 64.0262 353.357 67.6262C353.357 72.0262 350.277 74.5063 345.077 74.5063ZM379.338 73.9062L378.538 67.7862H368.658L365.778 73.9062H359.977L374.618 45.3062H380.538L385.258 73.9062H379.338ZM374.618 55.2662L370.738 63.3862H377.978L376.978 55.3462C376.778 53.7063 376.618 50.7862 376.618 50.7862H376.538C376.538 50.7862 375.338 53.7462 374.618 55.2662ZM395.683 74.5063C390.683 74.5063 386.523 71.7062 386.523 65.4262C386.523 59.1062 390.723 52.8262 397.723 52.8262C402.283 52.8262 405.963 54.9862 406.243 60.3462H401.003C400.803 58.3862 399.723 57.1462 397.563 57.1462C393.603 57.1462 391.883 61.6662 391.883 65.5862C391.883 68.2262 393.043 70.1862 396.003 70.1862C398.003 70.1862 399.563 69.1062 400.283 66.6662H405.483C404.363 71.5862 400.723 74.5063 395.683 74.5063ZM407.879 56.9862L408.559 53.3862H411.159L412.399 46.9862H417.639L416.399 53.3862H419.839L419.159 56.9862H415.719L413.639 67.6662C413.319 69.2662 413.839 69.9062 415.159 69.9062C415.759 69.9062 416.759 69.8262 416.759 69.8262L415.999 73.8262C415.999 73.8262 414.639 73.9463 413.559 73.9463C409.399 73.9463 407.439 72.4262 408.279 68.1862L410.479 56.9862H407.879ZM418.65 73.9062L422.61 53.3862H427.97L424.01 73.9062H418.65ZM423.25 50.1862L424.17 45.3062H429.53L428.61 50.1862H423.25ZM432.963 73.9062L429.563 53.3862H435.003L436.283 63.7462C436.563 65.9862 436.643 67.4262 436.643 67.4262H436.723C436.723 67.4262 437.243 65.9862 438.203 64.0262L443.163 53.3862H448.523L438.083 73.9062H432.963ZM446.345 73.9062L450.305 53.3862H455.665L451.705 73.9062H446.345ZM450.945 50.1862L451.865 45.3062H457.225L456.305 50.1862H450.945ZM457.254 56.9862L457.934 53.3862H460.534L461.774 46.9862H467.014L465.774 53.3862H469.214L468.534 56.9862H465.094L463.014 67.6662C462.694 69.2662 463.214 69.9062 464.534 69.9062C465.134 69.9062 466.134 69.8262 466.134 69.8262L465.374 73.8262C465.374 73.8262 464.014 73.9463 462.934 73.9463C458.774 73.9463 456.814 72.4262 457.654 68.1862L459.854 56.9862H457.254ZM467.785 80.6263L468.625 76.3863H470.345C472.625 76.3863 473.905 75.1463 473.905 72.5863C473.905 71.5862 473.665 70.0662 473.225 67.9862L470.265 53.3862H475.865L477.265 62.7062C477.545 64.5862 477.865 67.3462 477.865 67.3462H477.945C477.945 67.3462 478.945 64.6262 479.825 62.7062L484.065 53.3862H489.505L478.905 74.9063C476.865 79.0263 475.105 80.6263 471.145 80.6263H467.785ZM494.949 73.9062L500.469 45.3062H511.949C514.309 45.3062 516.389 45.8662 517.869 47.0662C519.269 48.1862 520.109 49.9062 520.109 52.2262C520.109 55.5862 518.189 57.9462 514.829 58.9062V59.0262C517.749 59.8262 519.269 61.8262 519.229 64.9862C519.229 67.3062 518.349 69.3062 516.589 70.9862C514.629 72.8662 512.029 73.9062 508.149 73.9062H494.949ZM503.149 61.1062L501.589 69.1462H508.189C511.349 69.1462 513.429 67.7462 513.429 64.7462C513.429 62.3062 511.789 61.1062 509.389 61.1062H503.149ZM503.989 56.8662H509.909C512.269 56.8662 514.549 56.1062 514.549 52.9862C514.549 51.1862 513.549 49.9862 511.189 49.9862H505.309L503.989 56.8662ZM530.89 74.5063C525.53 74.5063 521.25 71.2262 521.25 64.9462C521.25 58.4662 525.81 52.8262 532.81 52.8262C538.05 52.8262 542.29 56.1062 542.29 62.1862C542.29 68.7462 537.89 74.5063 530.89 74.5063ZM526.61 65.2662C526.61 68.0662 527.85 70.4662 531.01 70.4662C535.17 70.4662 536.93 65.9462 536.93 62.0262C536.93 59.3462 535.69 56.8662 532.53 56.8662C528.41 56.8662 526.61 61.3062 526.61 65.2662ZM553.312 74.5063C547.952 74.5063 543.672 71.2262 543.672 64.9462C543.672 58.4662 548.232 52.8262 555.232 52.8262C560.472 52.8262 564.712 56.1062 564.712 62.1862C564.712 68.7462 560.312 74.5063 553.312 74.5063ZM549.032 65.2662C549.032 68.0662 550.272 70.4662 553.432 70.4662C557.592 70.4662 559.352 65.9462 559.352 62.0262C559.352 59.3462 558.112 56.8662 554.952 56.8662C550.832 56.8662 549.032 61.3062 549.032 65.2662ZM578.654 73.9062L574.734 64.6262L571.694 67.3462L570.454 73.9062H565.134L570.654 45.3062H575.974L572.854 61.3462L580.894 53.3862H587.454L578.894 61.4262L584.614 73.9062H578.654Z" fill="black"/>
</svg>
