<svg width="724" height="120" viewBox="0 0 724 120" fill="none" xmlns="http://www.w3.org/2000/svg">
<path d="M548.327 0L-177.408 0.0357109L-210.16 119.353L515.669 119.359L548.327 0Z" fill="white"/>
<path d="M54.2459 73.1797L59.7659 44.5797H79.3259L78.4059 49.4597H64.5659L63.2059 56.3797H75.2459L74.2859 61.2997H62.2459L59.9659 73.1797H54.2459ZM76.5403 73.1797L80.5003 52.6597H85.8603L81.9003 73.1797H76.5403ZM81.1403 49.4597L82.0603 44.5797H87.4203L86.5003 49.4597H81.1403ZM94.5294 52.6597L93.9294 55.8997H94.0494C95.8094 53.3797 97.5294 52.0997 100.449 52.0997C104.529 52.0997 106.889 55.4197 105.969 60.2197L103.489 73.1797H98.1294L100.529 60.8597C101.049 58.1397 100.009 56.6597 97.7294 56.6597C95.2094 56.6597 93.4094 58.9797 92.8494 61.9797L90.6894 73.1797H85.3294L89.2894 52.6597H94.5294ZM119.575 73.1797C119.335 72.7397 119.255 71.8597 119.295 70.9397H119.215C117.975 72.2597 116.455 73.6597 113.495 73.6597C110.335 73.6597 106.975 71.8597 106.975 67.6197C106.975 62.1797 111.295 61.1797 116.295 60.7797C120.135 60.4597 121.615 60.2997 121.615 58.2597C121.615 56.7797 120.455 55.9797 118.415 55.9797C116.175 55.9797 114.695 56.8597 114.215 58.8997H109.415C110.095 54.6997 113.335 52.1397 118.615 52.1397C123.695 52.1397 127.535 54.3397 126.415 60.2997L124.495 70.1397C124.215 71.5397 124.335 72.4997 124.655 72.9797V73.1797H119.575ZM112.135 67.1397C112.135 68.9797 113.415 69.9397 115.215 69.9397C118.015 69.9397 119.815 68.1797 120.215 66.2997L120.855 63.0597C119.815 63.5397 118.695 63.7797 116.935 64.0997C114.975 64.4597 112.135 64.3397 112.135 67.1397ZM127.402 73.1797L132.922 44.5797H138.282L132.762 73.1797H127.402ZM143.66 73.1797L149.18 44.5797H158.26C165.3 44.5797 169.9 48.6997 169.9 56.6997C169.9 62.1797 168.54 66.0197 165.74 68.9797C163.26 71.6197 159.22 73.1797 154.9 73.1797H143.66ZM150.34 68.1797H154.94C160.94 68.1797 164.1 63.8997 164.1 56.8597C164.1 52.1397 161.9 49.5397 157.54 49.5397H153.94L150.34 68.1797ZM190.693 64.4197H176.413C176.413 67.6597 177.493 69.6197 180.613 69.6197C182.493 69.6197 184.053 68.8197 184.813 67.0597H190.093C189.453 68.9797 188.373 70.5397 186.933 71.6597C185.213 73.0197 183.013 73.7397 180.533 73.7797C175.213 73.7797 171.093 70.8197 171.093 64.3397C171.093 58.3797 175.453 52.0997 182.093 52.0997C184.333 52.0997 185.893 52.5397 187.253 53.4197C190.333 55.4197 191.453 59.4997 190.693 64.4197ZM181.973 56.2597C179.133 56.2597 177.613 58.2997 176.893 60.6997H185.733C185.813 58.2997 184.733 56.2597 181.973 56.2597ZM191.542 73.1797L197.062 44.5797H202.422L196.902 73.1797H191.542ZM200.407 73.1797L204.368 52.6597H209.728L205.768 73.1797H200.407ZM205.008 49.4597L205.928 44.5797H211.288L210.368 49.4597H205.008ZM214.721 73.1797L211.321 52.6597H216.761L218.041 63.0197C218.321 65.2597 218.401 66.6997 218.401 66.6997H218.481C218.481 66.6997 219.001 65.2597 219.961 63.2997L224.921 52.6597H230.281L219.841 73.1797H214.721ZM248.232 64.4197H233.952C233.952 67.6597 235.032 69.6197 238.152 69.6197C240.032 69.6197 241.592 68.8197 242.352 67.0597H247.632C246.992 68.9797 245.912 70.5397 244.472 71.6597C242.752 73.0197 240.552 73.7397 238.072 73.7797C232.752 73.7797 228.632 70.8197 228.632 64.3397C228.632 58.3797 232.992 52.0997 239.632 52.0997C241.872 52.0997 243.432 52.5397 244.792 53.4197C247.872 55.4197 248.992 59.4997 248.232 64.4197ZM239.512 56.2597C236.672 56.2597 235.152 58.2997 234.432 60.6997H243.272C243.352 58.2997 242.272 56.2597 239.512 56.2597ZM258.121 52.6597L257.481 55.9397H257.601C258.801 53.8997 260.441 52.4197 263.001 52.4197C263.761 52.4197 264.241 52.4997 264.521 52.5797L263.601 57.2997H263.481C259.761 56.8197 257.161 58.5397 256.281 63.1797L254.361 73.1797H249.001L252.961 52.6597H258.121ZM275.512 73.1797C275.272 72.7397 275.192 71.8597 275.232 70.9397H275.152C273.912 72.2597 272.392 73.6597 269.432 73.6597C266.272 73.6597 262.912 71.8597 262.912 67.6197C262.912 62.1797 267.232 61.1797 272.232 60.7797C276.072 60.4597 277.552 60.2997 277.552 58.2597C277.552 56.7797 276.392 55.9797 274.352 55.9797C272.112 55.9797 270.632 56.8597 270.152 58.8997H265.352C266.032 54.6997 269.272 52.1397 274.552 52.1397C279.632 52.1397 283.472 54.3397 282.352 60.2997L280.432 70.1397C280.152 71.5397 280.272 72.4997 280.592 72.9797V73.1797H275.512ZM268.072 67.1397C268.072 68.9797 269.352 69.9397 271.152 69.9397C273.952 69.9397 275.752 68.1797 276.152 66.2997L276.792 63.0597C275.752 63.5397 274.632 63.7797 272.872 64.0997C270.912 64.4597 268.072 64.3397 268.072 67.1397ZM295.259 73.7797C292.699 73.7797 290.219 72.7797 289.059 70.1797H288.979L288.419 73.1797H283.259L288.779 44.5797H294.139L292.099 55.0597H292.219C293.579 53.3797 295.579 52.0997 298.099 52.0997C302.659 52.0997 305.259 55.6997 305.259 60.7397C305.259 67.3397 302.099 73.7797 295.259 73.7797ZM290.299 64.5397C290.299 67.0597 291.539 69.2597 294.499 69.2597C298.379 69.2597 299.739 64.8197 299.739 61.1397C299.739 58.7397 298.859 56.4597 295.939 56.4597C291.979 56.4597 290.299 60.9797 290.299 64.5397ZM305.683 73.1797L311.203 44.5797H316.563L311.043 73.1797H305.683ZM335.068 64.4197H320.788C320.788 67.6597 321.868 69.6197 324.988 69.6197C326.868 69.6197 328.428 68.8197 329.188 67.0597H334.468C333.828 68.9797 332.748 70.5397 331.308 71.6597C329.588 73.0197 327.388 73.7397 324.908 73.7797C319.588 73.7797 315.468 70.8197 315.468 64.3397C315.468 58.3797 319.828 52.0997 326.468 52.0997C328.708 52.0997 330.268 52.5397 331.628 53.4197C334.708 55.4197 335.828 59.4997 335.068 64.4197ZM326.348 56.2597C323.508 56.2597 321.988 58.2997 321.268 60.6997H330.108C330.188 58.2997 329.108 56.2597 326.348 56.2597ZM345.077 73.7797C340.117 73.7797 336.157 71.6997 335.797 66.5397H340.877C341.077 68.2997 342.277 69.8597 345.077 69.8597C347.037 69.8597 348.437 69.1797 348.437 67.6197C348.437 66.1397 346.677 65.5797 343.677 64.5797C340.557 63.5397 337.797 62.2197 337.797 58.5797C337.797 54.4197 341.117 52.0997 345.797 52.0997C350.397 52.0997 353.837 54.4197 354.197 58.8997H349.277C349.037 57.2997 347.917 55.9397 345.637 55.9397C344.197 55.9397 342.557 56.4197 342.557 57.9797C342.557 59.3797 344.397 59.6997 347.557 60.7797C350.517 61.7797 353.357 63.2997 353.357 66.8997C353.357 71.2997 350.277 73.7797 345.077 73.7797ZM356.824 61.1397L357.944 55.3397H363.704L362.584 61.1397H356.824ZM354.504 73.1797L355.624 67.3797H361.384L360.264 73.1797H354.504ZM373.927 49.4197L374.847 44.5797H397.087L396.167 49.4197H387.887L383.287 73.1797H377.567L382.167 49.4197H373.927ZM399.567 52.6597L398.927 55.9397H399.047C400.247 53.8997 401.887 52.4197 404.447 52.4197C405.207 52.4197 405.687 52.4997 405.967 52.5797L405.047 57.2997H404.927C401.207 56.8197 398.607 58.5397 397.727 63.1797L395.807 73.1797H390.447L394.407 52.6597H399.567ZM404.353 73.1797L408.313 52.6597H413.673L409.713 73.1797H404.353ZM408.953 49.4597L409.873 44.5797H415.233L414.313 49.4597H408.953ZM418.667 73.1797L415.267 52.6597H420.707L421.987 63.0197C422.267 65.2597 422.347 66.6997 422.347 66.6997H422.427C422.427 66.6997 422.947 65.2597 423.907 63.2997L428.867 52.6597H434.227L423.787 73.1797H418.667ZM432.048 73.1797L436.008 52.6597H441.368L437.408 73.1797H432.048ZM436.648 49.4597L437.568 44.5797H442.928L442.008 49.4597H436.648ZM453.637 73.1797C453.397 72.7397 453.317 71.8597 453.357 70.9397H453.277C452.037 72.2597 450.517 73.6597 447.557 73.6597C444.397 73.6597 441.037 71.8597 441.037 67.6197C441.037 62.1797 445.357 61.1797 450.357 60.7797C454.197 60.4597 455.677 60.2997 455.677 58.2597C455.677 56.7797 454.517 55.9797 452.477 55.9797C450.237 55.9797 448.757 56.8597 448.277 58.8997H443.477C444.157 54.6997 447.397 52.1397 452.677 52.1397C457.757 52.1397 461.597 54.3397 460.477 60.2997L458.557 70.1397C458.277 71.5397 458.397 72.4997 458.717 72.9797V73.1797H453.637ZM446.197 67.1397C446.197 68.9797 447.477 69.9397 449.277 69.9397C452.077 69.9397 453.877 68.1797 454.277 66.2997L454.917 63.0597C453.877 63.5397 452.757 63.7797 450.997 64.0997C449.037 64.4597 446.197 64.3397 446.197 67.1397Z" fill="black"/>
</svg>
