<svg width="724" height="120" viewBox="0 0 724 120" fill="none" xmlns="http://www.w3.org/2000/svg">
<path d="M634.741 0L-90.9938 0.0357109L-123.746 119.353L602.083 119.359L634.741 0Z" fill="white"/>
<path d="M54.2459 73.1797L59.7659 44.5797H79.3259L78.4059 49.4597H64.5659L63.2059 56.3797H75.2459L74.2859 61.2997H62.2459L59.9659 73.1797H54.2459ZM76.5403 73.1797L80.5003 52.6597H85.8603L81.9003 73.1797H76.5403ZM81.1403 49.4597L82.0603 44.5797H87.4203L86.5003 49.4597H81.1403ZM94.5294 52.6597L93.9294 55.8997H94.0494C95.8094 53.3797 97.5294 52.0997 100.449 52.0997C104.529 52.0997 106.889 55.4197 105.969 60.2197L103.489 73.1797H98.1294L100.529 60.8597C101.049 58.1397 100.009 56.6597 97.7294 56.6597C95.2094 56.6597 93.4094 58.9797 92.8494 61.9797L90.6894 73.1797H85.3294L89.2894 52.6597H94.5294ZM119.575 73.1797C119.335 72.7397 119.255 71.8597 119.295 70.9397H119.215C117.975 72.2597 116.455 73.6597 113.495 73.6597C110.335 73.6597 106.975 71.8597 106.975 67.6197C106.975 62.1797 111.295 61.1797 116.295 60.7797C120.135 60.4597 121.615 60.2997 121.615 58.2597C121.615 56.7797 120.455 55.9797 118.415 55.9797C116.175 55.9797 114.695 56.8597 114.215 58.8997H109.415C110.095 54.6997 113.335 52.1397 118.615 52.1397C123.695 52.1397 127.535 54.3397 126.415 60.2997L124.495 70.1397C124.215 71.5397 124.335 72.4997 124.655 72.9797V73.1797H119.575ZM112.135 67.1397C112.135 68.9797 113.415 69.9397 115.215 69.9397C118.015 69.9397 119.815 68.1797 120.215 66.2997L120.855 63.0597C119.815 63.5397 118.695 63.7797 116.935 64.0997C114.975 64.4597 112.135 64.3397 112.135 67.1397ZM127.402 73.1797L132.922 44.5797H138.282L132.762 73.1797H127.402ZM143.66 73.1797L149.18 44.5797H158.26C165.3 44.5797 169.9 48.6997 169.9 56.6997C169.9 62.1797 168.54 66.0197 165.74 68.9797C163.26 71.6197 159.22 73.1797 154.9 73.1797H143.66ZM150.34 68.1797H154.94C160.94 68.1797 164.1 63.8997 164.1 56.8597C164.1 52.1397 161.9 49.5397 157.54 49.5397H153.94L150.34 68.1797ZM190.693 64.4197H176.413C176.413 67.6597 177.493 69.6197 180.613 69.6197C182.493 69.6197 184.053 68.8197 184.813 67.0597H190.093C189.453 68.9797 188.373 70.5397 186.933 71.6597C185.213 73.0197 183.013 73.7397 180.533 73.7797C175.213 73.7797 171.093 70.8197 171.093 64.3397C171.093 58.3797 175.453 52.0997 182.093 52.0997C184.333 52.0997 185.893 52.5397 187.253 53.4197C190.333 55.4197 191.453 59.4997 190.693 64.4197ZM181.973 56.2597C179.133 56.2597 177.613 58.2997 176.893 60.6997H185.733C185.813 58.2997 184.733 56.2597 181.973 56.2597ZM191.542 73.1797L197.062 44.5797H202.422L196.902 73.1797H191.542ZM200.407 73.1797L204.368 52.6597H209.728L205.768 73.1797H200.407ZM205.008 49.4597L205.928 44.5797H211.288L210.368 49.4597H205.008ZM214.721 73.1797L211.321 52.6597H216.761L218.041 63.0197C218.321 65.2597 218.401 66.6997 218.401 66.6997H218.481C218.481 66.6997 219.001 65.2597 219.961 63.2997L224.921 52.6597H230.281L219.841 73.1797H214.721ZM248.232 64.4197H233.952C233.952 67.6597 235.032 69.6197 238.152 69.6197C240.032 69.6197 241.592 68.8197 242.352 67.0597H247.632C246.992 68.9797 245.912 70.5397 244.472 71.6597C242.752 73.0197 240.552 73.7397 238.072 73.7797C232.752 73.7797 228.632 70.8197 228.632 64.3397C228.632 58.3797 232.992 52.0997 239.632 52.0997C241.872 52.0997 243.432 52.5397 244.792 53.4197C247.872 55.4197 248.992 59.4997 248.232 64.4197ZM239.512 56.2597C236.672 56.2597 235.152 58.2997 234.432 60.6997H243.272C243.352 58.2997 242.272 56.2597 239.512 56.2597ZM258.121 52.6597L257.481 55.9397H257.601C258.801 53.8997 260.441 52.4197 263.001 52.4197C263.761 52.4197 264.241 52.4997 264.521 52.5797L263.601 57.2997H263.481C259.761 56.8197 257.161 58.5397 256.281 63.1797L254.361 73.1797H249.001L252.961 52.6597H258.121ZM275.512 73.1797C275.272 72.7397 275.192 71.8597 275.232 70.9397H275.152C273.912 72.2597 272.392 73.6597 269.432 73.6597C266.272 73.6597 262.912 71.8597 262.912 67.6197C262.912 62.1797 267.232 61.1797 272.232 60.7797C276.072 60.4597 277.552 60.2997 277.552 58.2597C277.552 56.7797 276.392 55.9797 274.352 55.9797C272.112 55.9797 270.632 56.8597 270.152 58.8997H265.352C266.032 54.6997 269.272 52.1397 274.552 52.1397C279.632 52.1397 283.472 54.3397 282.352 60.2997L280.432 70.1397C280.152 71.5397 280.272 72.4997 280.592 72.9797V73.1797H275.512ZM268.072 67.1397C268.072 68.9797 269.352 69.9397 271.152 69.9397C273.952 69.9397 275.752 68.1797 276.152 66.2997L276.792 63.0597C275.752 63.5397 274.632 63.7797 272.872 64.0997C270.912 64.4597 268.072 64.3397 268.072 67.1397ZM295.259 73.7797C292.699 73.7797 290.219 72.7797 289.059 70.1797H288.979L288.419 73.1797H283.259L288.779 44.5797H294.139L292.099 55.0597H292.219C293.579 53.3797 295.579 52.0997 298.099 52.0997C302.659 52.0997 305.259 55.6997 305.259 60.7397C305.259 67.3397 302.099 73.7797 295.259 73.7797ZM290.299 64.5397C290.299 67.0597 291.539 69.2597 294.499 69.2597C298.379 69.2597 299.739 64.8197 299.739 61.1397C299.739 58.7397 298.859 56.4597 295.939 56.4597C291.979 56.4597 290.299 60.9797 290.299 64.5397ZM305.683 73.1797L311.203 44.5797H316.563L311.043 73.1797H305.683ZM335.068 64.4197H320.788C320.788 67.6597 321.868 69.6197 324.988 69.6197C326.868 69.6197 328.428 68.8197 329.188 67.0597H334.468C333.828 68.9797 332.748 70.5397 331.308 71.6597C329.588 73.0197 327.388 73.7397 324.908 73.7797C319.588 73.7797 315.468 70.8197 315.468 64.3397C315.468 58.3797 319.828 52.0997 326.468 52.0997C328.708 52.0997 330.268 52.5397 331.628 53.4197C334.708 55.4197 335.828 59.4997 335.068 64.4197ZM326.348 56.2597C323.508 56.2597 321.988 58.2997 321.268 60.6997H330.108C330.188 58.2997 329.108 56.2597 326.348 56.2597ZM345.077 73.7797C340.117 73.7797 336.157 71.6997 335.797 66.5397H340.877C341.077 68.2997 342.277 69.8597 345.077 69.8597C347.037 69.8597 348.437 69.1797 348.437 67.6197C348.437 66.1397 346.677 65.5797 343.677 64.5797C340.557 63.5397 337.797 62.2197 337.797 58.5797C337.797 54.4197 341.117 52.0997 345.797 52.0997C350.397 52.0997 353.837 54.4197 354.197 58.8997H349.277C349.037 57.2997 347.917 55.9397 345.637 55.9397C344.197 55.9397 342.557 56.4197 342.557 57.9797C342.557 59.3797 344.397 59.6997 347.557 60.7797C350.517 61.7797 353.357 63.2997 353.357 66.8997C353.357 71.2997 350.277 73.7797 345.077 73.7797ZM362.098 73.1797L367.618 44.5797H379.138C384.778 44.5797 387.778 47.6997 387.778 52.1797C387.778 56.2997 385.298 58.7397 381.498 59.6997V59.8197C383.778 60.5397 385.018 62.0597 385.018 64.7397C385.018 66.3797 384.698 68.8597 384.698 71.0597C384.698 71.9397 384.858 72.6997 385.258 72.8997V73.1797H379.738C379.418 72.8197 379.298 72.0197 379.298 71.0597C379.298 69.2597 379.538 67.1797 379.538 65.5397C379.538 62.9797 378.098 61.6997 375.218 61.6997H370.018L367.817 73.1797H362.098ZM372.458 49.2197L370.898 57.2597H376.858C379.618 57.2597 382.058 55.9797 382.058 52.8197C382.058 50.4997 380.778 49.2197 378.258 49.2197H372.458ZM407.256 64.4197H392.976C392.976 67.6597 394.056 69.6197 397.176 69.6197C399.056 69.6197 400.616 68.8197 401.376 67.0597H406.656C406.016 68.9797 404.936 70.5397 403.496 71.6597C401.776 73.0197 399.576 73.7397 397.096 73.7797C391.776 73.7797 387.656 70.8197 387.656 64.3397C387.656 58.3797 392.016 52.0997 398.656 52.0997C400.896 52.0997 402.456 52.5397 403.816 53.4197C406.896 55.4197 408.016 59.4997 407.256 64.4197ZM398.536 56.2597C395.696 56.2597 394.176 58.2997 393.456 60.6997H402.296C402.376 58.2997 401.296 56.2597 398.536 56.2597ZM409.479 56.4197L410.199 52.6597H412.879L413.359 50.2197C414.159 46.0997 416.799 44.5397 420.439 44.4997C421.359 44.4997 422.319 44.5797 423.319 44.7397L422.519 48.8997C421.959 48.8197 421.439 48.7797 420.999 48.7797C419.519 48.7797 418.879 49.3397 418.559 50.9397L418.199 52.6597H421.759L421.039 56.4197H417.479L414.239 73.1797H408.919L412.159 56.4197H409.479ZM420.279 73.1797L425.799 44.5797H431.159L425.639 73.1797H420.279ZM449.678 64.4197H435.398C435.398 67.6597 436.478 69.6197 439.598 69.6197C441.478 69.6197 443.038 68.8197 443.798 67.0597H449.078C448.438 68.9797 447.358 70.5397 445.918 71.6597C444.198 73.0197 441.998 73.7397 439.518 73.7797C434.198 73.7797 430.078 70.8197 430.078 64.3397C430.078 58.3797 434.438 52.0997 441.078 52.0997C443.318 52.0997 444.878 52.5397 446.238 53.4197C449.318 55.4197 450.438 59.4997 449.678 64.4197ZM440.958 56.2597C438.118 56.2597 436.598 58.2997 435.878 60.6997H444.718C444.798 58.2997 443.718 56.2597 440.958 56.2597ZM448.105 73.1797L457.105 62.2197L452.545 52.6597H458.345L460.825 58.8997H460.905L465.265 52.6597H471.105L463.105 62.7797L468.145 73.1797H462.185L459.425 66.3797H459.345L454.065 73.1797H448.105ZM497.929 73.1797L498.409 69.6597H498.329C496.449 72.2597 493.609 73.7797 490.089 73.7797C483.409 73.7797 478.689 69.4597 478.689 61.6197C478.689 52.7397 484.809 43.9797 494.289 44.0197C500.129 44.0597 504.889 46.9797 505.329 53.5797H499.769C499.449 50.5797 497.249 48.7797 493.849 48.7797C487.769 48.7797 484.529 55.1797 484.529 61.5397C484.529 66.2997 486.729 69.1397 491.329 69.1397C495.449 69.1397 498.529 66.4997 499.209 62.4197H492.449L493.289 57.9797H505.129L502.209 73.1797H497.929ZM518.442 73.1797C518.202 72.7397 518.122 71.8597 518.162 70.9397H518.082C516.842 72.2597 515.322 73.6597 512.362 73.6597C509.202 73.6597 505.842 71.8597 505.842 67.6197C505.842 62.1797 510.162 61.1797 515.162 60.7797C519.002 60.4597 520.482 60.2997 520.482 58.2597C520.482 56.7797 519.322 55.9797 517.282 55.9797C515.042 55.9797 513.562 56.8597 513.082 58.8997H508.282C508.962 54.6997 512.202 52.1397 517.482 52.1397C522.562 52.1397 526.402 54.3397 525.282 60.2997L523.362 70.1397C523.082 71.5397 523.202 72.4997 523.522 72.9797V73.1797H518.442ZM511.002 67.1397C511.002 68.9797 512.282 69.9397 514.082 69.9397C516.882 69.9397 518.682 68.1797 519.082 66.2997L519.722 63.0597C518.682 63.5397 517.562 63.7797 515.802 64.0997C513.842 64.4597 511.002 64.3397 511.002 67.1397ZM526.189 73.1797L530.149 52.6597H535.309L534.749 55.6597H534.869C536.269 53.4597 538.109 52.0997 540.629 52.0997C543.389 52.0997 544.949 53.7397 545.549 56.0197H545.629C547.469 53.2197 549.709 52.0997 552.429 52.0997C556.109 52.0997 558.909 54.9797 557.829 60.4197L555.389 73.1797H550.029L552.469 60.5797C552.949 58.0197 551.909 56.6597 550.029 56.6597C547.749 56.6597 546.229 58.6997 545.629 61.8597L543.469 73.1797H538.109L540.549 60.5797C541.029 58.0197 539.989 56.6597 538.109 56.6597C535.829 56.6597 534.309 58.6997 533.709 61.8597L531.549 73.1797H526.189ZM579.17 64.4197H564.89C564.89 67.6597 565.97 69.6197 569.09 69.6197C570.97 69.6197 572.53 68.8197 573.29 67.0597H578.57C577.93 68.9797 576.85 70.5397 575.41 71.6597C573.69 73.0197 571.49 73.7397 569.01 73.7797C563.69 73.7797 559.57 70.8197 559.57 64.3397C559.57 58.3797 563.93 52.0997 570.57 52.0997C572.81 52.0997 574.37 52.5397 575.73 53.4197C578.81 55.4197 579.93 59.4997 579.17 64.4197ZM570.45 56.2597C567.61 56.2597 566.09 58.2997 565.37 60.6997H574.21C574.29 58.2997 573.21 56.2597 570.45 56.2597Z" fill="black"/>
</svg>
