<svg width="487" height="122" viewBox="0 0 487 122" fill="none" xmlns="http://www.w3.org/2000/svg">
<path d="M380.606 0.71875L-207.661 0.757557L-240.734 121.247L347.627 121.25L380.606 0.71875Z" fill="white"/>
<path d="M62.46 71.73C55.42 71.73 50.98 68.33 52.34 61.21L55.94 42.65H61.66L57.98 61.65C57.3 65.05 58.58 67.13 62.58 67.13C66.18 67.13 67.74 65.13 68.3 62.37L72.1 42.65H77.78L73.86 62.89C72.74 68.57 69.02 71.73 62.46 71.73ZM85.1241 71.85C80.1641 71.85 76.2041 69.77 75.8441 64.61H80.9241C81.1241 66.37 82.3241 67.93 85.1241 67.93C87.0841 67.93 88.4841 67.25 88.4841 65.69C88.4841 64.21 86.7241 63.65 83.7241 62.65C80.6041 61.61 77.8441 60.29 77.8441 56.65C77.8441 52.49 81.1641 50.17 85.8441 50.17C90.4441 50.17 93.8841 52.49 94.2441 56.97H89.3241C89.0841 55.37 87.9641 54.01 85.6841 54.01C84.2441 54.01 82.6041 54.49 82.6041 56.05C82.6041 57.45 84.4441 57.77 87.6041 58.85C90.5641 59.85 93.4041 61.37 93.4041 64.97C93.4041 69.37 90.3241 71.85 85.1241 71.85ZM114.881 62.49H100.601C100.601 65.73 101.681 67.69 104.801 67.69C106.681 67.69 108.241 66.89 109.001 65.13H114.281C113.641 67.05 112.561 68.61 111.121 69.73C109.401 71.09 107.201 71.81 104.721 71.85C99.4006 71.85 95.2806 68.89 95.2806 62.41C95.2806 56.45 99.6406 50.17 106.281 50.17C108.521 50.17 110.081 50.61 111.441 51.49C114.521 53.49 115.641 57.57 114.881 62.49ZM106.161 54.33C103.321 54.33 101.801 56.37 101.081 58.77H109.921C110.001 56.37 108.921 54.33 106.161 54.33ZM124.77 50.73L124.13 54.01H124.25C125.45 51.97 127.09 50.49 129.65 50.49C130.41 50.49 130.89 50.57 131.17 50.65L130.25 55.37H130.13C126.41 54.89 123.81 56.61 122.93 61.25L121.01 71.25H115.65L119.61 50.73H124.77ZM136.989 71.25L142.509 42.65H148.229L142.709 71.25H136.989ZM155.826 50.73L155.226 53.97H155.346C157.106 51.45 158.826 50.17 161.746 50.17C165.826 50.17 168.186 53.49 167.266 58.29L164.786 71.25H159.426L161.826 58.93C162.346 56.21 161.306 54.73 159.026 54.73C156.506 54.73 154.706 57.05 154.146 60.05L151.986 71.25H146.626L150.586 50.73H155.826ZM169.606 54.33L170.286 50.73H172.886L174.126 44.33H179.366L178.126 50.73H181.566L180.886 54.33H177.446L175.366 65.01C175.046 66.61 175.566 67.25 176.886 67.25C177.486 67.25 178.486 67.17 178.486 67.17L177.726 71.17C177.726 71.17 176.366 71.29 175.286 71.29C171.126 71.29 169.166 69.77 170.006 65.53L172.206 54.33H169.606ZM200.701 62.49H186.421C186.421 65.73 187.501 67.69 190.621 67.69C192.501 67.69 194.061 66.89 194.821 65.13H200.101C199.461 67.05 198.381 68.61 196.941 69.73C195.221 71.09 193.021 71.81 190.541 71.85C185.221 71.85 181.101 68.89 181.101 62.41C181.101 56.45 185.461 50.17 192.101 50.17C194.341 50.17 195.901 50.61 197.261 51.49C200.341 53.49 201.461 57.57 200.701 62.49ZM191.981 54.33C189.141 54.33 187.621 56.37 186.901 58.77H195.741C195.821 56.37 194.741 54.33 191.981 54.33ZM210.59 50.73L209.95 54.01H210.07C211.27 51.97 212.91 50.49 215.47 50.49C216.23 50.49 216.71 50.57 216.99 50.65L216.07 55.37H215.95C212.23 54.89 209.63 56.61 208.75 61.25L206.83 71.25H201.47L205.43 50.73H210.59ZM221.682 71.25L218.282 50.73H223.722L225.002 61.09C225.282 63.33 225.362 64.77 225.362 64.77H225.442C225.442 64.77 225.962 63.33 226.922 61.37L231.882 50.73H237.242L226.802 71.25H221.682ZM235.064 71.25L239.024 50.73H244.384L240.424 71.25H235.064ZM239.664 47.53L240.584 42.65H245.944L245.024 47.53H239.664ZM264.373 62.49H250.093C250.093 65.73 251.173 67.69 254.293 67.69C256.173 67.69 257.733 66.89 258.493 65.13H263.773C263.133 67.05 262.053 68.61 260.613 69.73C258.893 71.09 256.693 71.81 254.213 71.85C248.893 71.85 244.773 68.89 244.773 62.41C244.773 56.45 249.133 50.17 255.773 50.17C258.013 50.17 259.573 50.61 260.933 51.49C264.013 53.49 265.133 57.57 264.373 62.49ZM255.653 54.33C252.813 54.33 251.293 56.37 250.573 58.77H259.413C259.493 56.37 258.413 54.33 255.653 54.33ZM268.846 71.25L266.526 50.73H271.726L272.486 60.25C272.606 61.93 272.686 64.17 272.686 64.17H272.766C272.766 64.17 273.646 61.89 274.366 60.21L278.486 50.73H283.046L284.166 60.21C284.366 61.93 284.446 64.17 284.446 64.17H284.526C284.526 64.17 285.406 61.93 286.086 60.25L289.926 50.73H295.206L286.046 71.25H281.246L280.166 61.17C280.006 59.53 279.806 57.17 279.806 57.17H279.726C279.726 57.17 278.846 59.53 278.126 61.17L273.686 71.25H268.846ZM302.663 71.85C297.703 71.85 293.743 69.77 293.383 64.61H298.463C298.663 66.37 299.863 67.93 302.663 67.93C304.623 67.93 306.023 67.25 306.023 65.69C306.023 64.21 304.263 63.65 301.263 62.65C298.143 61.61 295.383 60.29 295.383 56.65C295.383 52.49 298.703 50.17 303.383 50.17C307.983 50.17 311.423 52.49 311.783 56.97H306.863C306.623 55.37 305.503 54.01 303.223 54.01C301.783 54.01 300.143 54.49 300.143 56.05C300.143 57.45 301.983 57.77 305.143 58.85C308.103 59.85 310.943 61.37 310.943 64.97C310.943 69.37 307.863 71.85 302.663 71.85Z" fill="black"/>
</svg>
