<svg width="350" height="500" viewBox="0 0 350 500" fill="none" xmlns="http://www.w3.org/2000/svg">
<path d="M57.4144 141.172V115.432H62.6344V141.172H57.4144ZM76.2354 141.172L70.8354 122.704H75.6954L77.9274 131.272C78.3234 132.784 78.7554 134.728 78.7554 134.728H78.8274C78.8274 134.728 79.2234 132.748 79.6194 131.236L81.9234 122.704H86.0994L88.5114 131.236C88.9074 132.784 89.3754 134.728 89.3754 134.728H89.4474C89.4474 134.728 89.8794 132.784 90.2754 131.272L92.6154 122.704H97.3674L91.8594 141.172H87.3954L84.9474 132.1C84.5514 130.624 84.1194 128.896 84.1194 128.896H84.0474C84.0474 128.896 83.5794 130.624 83.1834 132.1L80.6634 141.172H76.2354ZM107.32 141.712C101.596 141.712 97.6723 137.464 97.6723 131.956C97.6723 126.448 101.596 122.2 107.32 122.2C113.044 122.2 116.968 126.448 116.968 131.956C116.968 137.464 113.044 141.712 107.32 141.712ZM107.32 137.968C110.308 137.968 112 135.556 112 131.956C112 128.356 110.308 125.908 107.32 125.908C104.296 125.908 102.64 128.356 102.64 131.956C102.64 135.556 104.296 137.968 107.32 137.968ZM135.624 141.172H130.908V139.012H130.8C129.54 140.704 128.1 141.676 125.508 141.676C121.404 141.676 119.1 139.048 119.1 135.016V122.704H123.96V134.188C123.96 136.348 124.932 137.536 127.02 137.536C129.324 137.536 130.728 135.808 130.728 133.36V122.704H135.624V141.172ZM138.863 141.172V115.432H143.759V141.172H138.863ZM153.894 141.712C149.25 141.712 146.082 137.932 146.082 131.956C146.082 126.196 149.358 122.2 153.966 122.2C156.558 122.2 158.178 123.388 159.186 124.936H159.294V115.432H164.19V141.172H159.474V138.76H159.402C158.322 140.524 156.486 141.712 153.894 141.712ZM154.974 137.608C157.89 137.608 159.402 135.448 159.402 132.064C159.402 128.536 158.25 126.16 155.118 126.16C152.418 126.16 151.05 128.536 151.05 131.956C151.05 135.52 152.454 137.608 154.974 137.608ZM177.38 141.172L171.98 122.704H176.84L179.072 131.272C179.468 132.784 179.9 134.728 179.9 134.728H179.972C179.972 134.728 180.368 132.748 180.764 131.236L183.068 122.704H187.244L189.656 131.236C190.052 132.784 190.52 134.728 190.52 134.728H190.592C190.592 134.728 191.024 132.784 191.42 131.272L193.76 122.704H198.512L193.004 141.172H188.54L186.092 132.1C185.696 130.624 185.264 128.896 185.264 128.896H185.192C185.192 128.896 184.724 130.624 184.328 132.1L181.808 141.172H177.38ZM211.345 141.172C211.057 140.812 210.877 139.948 210.769 139.12H210.697C209.761 140.524 208.429 141.604 205.261 141.604C201.481 141.604 198.817 139.624 198.817 135.952C198.817 131.884 202.129 130.588 206.233 130.012C209.293 129.58 210.697 129.328 210.697 127.924C210.697 126.592 209.653 125.728 207.601 125.728C205.297 125.728 204.181 126.556 204.037 128.32H199.681C199.825 125.08 202.237 122.236 207.637 122.236C213.181 122.236 215.413 124.72 215.413 129.04V138.436C215.413 139.84 215.629 140.668 216.061 140.992V141.172H211.345ZM206.449 138.184C209.257 138.184 210.805 136.456 210.805 134.656V131.884C209.941 132.388 208.609 132.676 207.385 132.964C204.829 133.54 203.569 134.116 203.569 135.844C203.569 137.572 204.721 138.184 206.449 138.184ZM223.313 122.704V125.224H223.421C224.681 123.244 226.373 122.2 228.893 122.2C232.709 122.2 235.265 125.08 235.265 129.112V141.172H230.369V129.832C230.369 127.852 229.217 126.448 227.165 126.448C225.005 126.448 223.421 128.176 223.421 130.696V141.172H218.525V122.704H223.313ZM236.852 125.944V122.704H239.408V116.944H244.196V122.704H247.364V125.944H244.196V135.736C244.196 137.104 244.952 137.572 246.032 137.572C246.644 137.572 247.472 137.536 247.472 137.536V141.136C247.472 141.136 246.356 141.208 244.412 141.208C242.036 141.208 239.408 140.272 239.408 136.78V125.944H236.852ZM56.9824 191.172V172.704H61.8784V191.172H56.9824ZM56.9824 169.824V165.432H61.8784V169.824H56.9824ZM69.8212 172.704V175.224H69.9292C71.1892 173.244 72.8812 172.2 75.4012 172.2C79.2172 172.2 81.7732 175.08 81.7732 179.112V191.172H76.8772V179.832C76.8772 177.852 75.7252 176.448 73.6732 176.448C71.5132 176.448 69.9292 178.176 69.9292 180.696V191.172H65.0332V172.704H69.8212ZM83.3595 175.944V172.704H85.9155V166.944H90.7035V172.704H93.8715V175.944H90.7035V185.736C90.7035 187.104 91.4595 187.572 92.5395 187.572C93.1515 187.572 93.9795 187.536 93.9795 187.536V191.136C93.9795 191.136 92.8635 191.208 90.9195 191.208C88.5435 191.208 85.9155 190.272 85.9155 186.78V175.944H83.3595ZM104.893 191.712C98.7728 191.712 95.3168 187.428 95.3168 181.92C95.3168 176.448 99.0248 172.2 104.425 172.2C110.365 172.2 113.533 176.736 113.533 183.324H100.141C100.501 186.168 102.085 187.932 104.857 187.932C106.765 187.932 107.881 187.068 108.421 185.664H113.245C112.561 188.94 109.645 191.712 104.893 191.712ZM104.497 175.98C101.905 175.98 100.645 177.528 100.213 179.94H108.421C108.277 177.6 106.729 175.98 104.497 175.98ZM120.515 172.704V175.656H120.623C121.739 173.568 122.999 172.488 125.159 172.488C125.699 172.488 126.023 172.524 126.311 172.632V176.916H126.203C122.999 176.592 120.695 178.284 120.695 182.172V191.172H115.799V172.704H120.515ZM139.521 191.172C139.233 190.812 139.053 189.948 138.945 189.12H138.873C137.937 190.524 136.605 191.604 133.437 191.604C129.657 191.604 126.993 189.624 126.993 185.952C126.993 181.884 130.305 180.588 134.409 180.012C137.469 179.58 138.873 179.328 138.873 177.924C138.873 176.592 137.829 175.728 135.777 175.728C133.473 175.728 132.357 176.556 132.213 178.32H127.857C128.001 175.08 130.413 172.236 135.813 172.236C141.357 172.236 143.589 174.72 143.589 179.04V188.436C143.589 189.84 143.805 190.668 144.237 190.992V191.172H139.521ZM134.625 188.184C137.433 188.184 138.981 186.456 138.981 184.656V181.884C138.117 182.388 136.785 182.676 135.561 182.964C133.005 183.54 131.745 184.116 131.745 185.844C131.745 187.572 132.897 188.184 134.625 188.184ZM155.269 191.712C149.437 191.712 145.801 187.464 145.801 181.956C145.801 176.448 149.401 172.2 155.017 172.2C159.805 172.2 162.757 174.972 163.405 178.968H158.617C158.293 177.348 157.033 176.124 155.233 176.124C152.281 176.124 150.769 178.392 150.769 181.956C150.769 185.448 152.173 187.788 155.161 187.788C157.141 187.788 158.545 186.744 158.869 184.656H163.585C163.261 188.58 160.201 191.712 155.269 191.712ZM164.641 175.944V172.704H167.197V166.944H171.985V172.704H175.153V175.944H171.985V185.736C171.985 187.104 172.741 187.572 173.821 187.572C174.433 187.572 175.261 187.536 175.261 187.536V191.136C175.261 191.136 174.145 191.208 172.201 191.208C169.825 191.208 167.197 190.272 167.197 186.78V175.944H164.641ZM177.674 191.172V172.704H182.57V191.172H177.674ZM177.674 169.824V165.432H182.57V169.824H177.674ZM190.621 191.172L184.213 172.704H189.181L192.133 182.28C192.673 184.044 192.961 185.232 192.961 185.232H193.033C193.033 185.232 193.285 184.044 193.825 182.28L196.849 172.704H201.745L195.301 191.172H190.621ZM211.557 191.712C205.437 191.712 201.981 187.428 201.981 181.92C201.981 176.448 205.689 172.2 211.089 172.2C217.029 172.2 220.197 176.736 220.197 183.324H206.805C207.165 186.168 208.749 187.932 211.521 187.932C213.429 187.932 214.545 187.068 215.085 185.664H219.909C219.225 188.94 216.309 191.712 211.557 191.712ZM211.161 175.98C208.569 175.98 207.309 177.528 206.877 179.94H215.085C214.941 177.6 213.393 175.98 211.161 175.98ZM65.6584 241.712C59.5384 241.712 56.0824 237.428 56.0824 231.92C56.0824 226.448 59.7904 222.2 65.1904 222.2C71.1304 222.2 74.2984 226.736 74.2984 233.324H60.9064C61.2664 236.168 62.8504 237.932 65.6224 237.932C67.5304 237.932 68.6464 237.068 69.1864 235.664H74.0104C73.3264 238.94 70.4104 241.712 65.6584 241.712ZM65.2624 225.98C62.6704 225.98 61.4104 227.528 60.9784 229.94H69.1864C69.0424 227.6 67.4944 225.98 65.2624 225.98ZM74.1786 241.172L80.9106 231.38L74.8986 222.704H80.4786L83.7546 227.996H83.8266L86.9226 222.704H91.9986L86.2746 231.344L92.8626 241.172H87.0306L83.6106 235.052H83.5386L79.5426 241.172H74.1786ZM94.7403 247.22V222.704H99.4563V225.008H99.5643C100.752 223.388 102.48 222.2 105 222.2C109.896 222.2 113.028 226.196 113.028 231.956C113.028 237.932 109.788 241.712 105.036 241.712C102.444 241.712 100.752 240.668 99.7083 239.084H99.6363V247.22H94.7403ZM103.992 237.644C106.476 237.644 108.06 235.592 108.06 232.1C108.06 228.608 106.836 226.16 103.812 226.16C100.752 226.16 99.5283 228.788 99.5283 232.1C99.5283 235.448 101.076 237.644 103.992 237.644ZM123.983 241.712C117.863 241.712 114.407 237.428 114.407 231.92C114.407 226.448 118.115 222.2 123.515 222.2C129.455 222.2 132.623 226.736 132.623 233.324H119.231C119.591 236.168 121.175 237.932 123.947 237.932C125.855 237.932 126.971 237.068 127.511 235.664H132.335C131.651 238.94 128.735 241.712 123.983 241.712ZM123.587 225.98C120.995 225.98 119.735 227.528 119.303 229.94H127.511C127.367 227.6 125.819 225.98 123.587 225.98ZM139.605 222.704V225.656H139.713C140.829 223.568 142.089 222.488 144.249 222.488C144.789 222.488 145.113 222.524 145.401 222.632V226.916H145.293C142.089 226.592 139.785 228.284 139.785 232.172V241.172H134.889V222.704H139.605ZM147.51 241.172V222.704H152.406V241.172H147.51ZM147.51 219.824V215.432H152.406V219.824H147.51ZM164.237 241.712C158.117 241.712 154.661 237.428 154.661 231.92C154.661 226.448 158.369 222.2 163.769 222.2C169.709 222.2 172.877 226.736 172.877 233.324H159.485C159.845 236.168 161.429 237.932 164.201 237.932C166.109 237.932 167.225 237.068 167.765 235.664H172.589C171.905 238.94 168.989 241.712 164.237 241.712ZM163.841 225.98C161.249 225.98 159.989 227.528 159.557 229.94H167.765C167.621 227.6 166.073 225.98 163.841 225.98ZM179.931 222.704V225.224H180.039C181.299 223.244 182.991 222.2 185.511 222.2C189.327 222.2 191.883 225.08 191.883 229.112V241.172H186.987V229.832C186.987 227.852 185.835 226.448 183.783 226.448C181.623 226.448 180.039 228.176 180.039 230.696V241.172H175.143V222.704H179.931ZM203.468 241.712C197.636 241.712 194 237.464 194 231.956C194 226.448 197.6 222.2 203.216 222.2C208.004 222.2 210.956 224.972 211.604 228.968H206.816C206.492 227.348 205.232 226.124 203.432 226.124C200.48 226.124 198.968 228.392 198.968 231.956C198.968 235.448 200.372 237.788 203.36 237.788C205.34 237.788 206.744 236.744 207.068 234.656H211.784C211.46 238.58 208.4 241.712 203.468 241.712ZM222.596 241.712C216.476 241.712 213.02 237.428 213.02 231.92C213.02 226.448 216.728 222.2 222.128 222.2C228.068 222.2 231.236 226.736 231.236 233.324H217.844C218.204 236.168 219.788 237.932 222.56 237.932C224.468 237.932 225.584 237.068 226.124 235.664H230.948C230.264 238.94 227.348 241.712 222.596 241.712ZM222.2 225.98C219.608 225.98 218.348 227.528 217.916 229.94H226.124C225.98 227.6 224.432 225.98 222.2 225.98ZM238.469 225.944V222.704H241.025V216.944H245.813V222.704H248.981V225.944H245.813V235.736C245.813 237.104 246.569 237.572 247.649 237.572C248.261 237.572 249.089 237.536 249.089 237.536V241.136C249.089 241.136 247.973 241.208 246.029 241.208C243.653 241.208 241.025 240.272 241.025 236.78V225.944H238.469ZM256.398 215.432V225.116H256.506C257.838 223.172 259.35 222.2 261.87 222.2C265.686 222.2 268.242 225.08 268.242 229.112V241.172H263.346V229.832C263.346 227.852 262.194 226.448 260.142 226.448C257.982 226.448 256.398 228.176 256.398 230.696V241.172H251.502V215.432H256.398ZM282.888 241.172C282.6 240.812 282.42 239.948 282.312 239.12H282.24C281.304 240.524 279.972 241.604 276.804 241.604C273.024 241.604 270.36 239.624 270.36 235.952C270.36 231.884 273.672 230.588 277.776 230.012C280.836 229.58 282.24 229.328 282.24 227.924C282.24 226.592 281.196 225.728 279.144 225.728C276.84 225.728 275.724 226.556 275.58 228.32H271.224C271.368 225.08 273.78 222.236 279.18 222.236C284.724 222.236 286.956 224.72 286.956 229.04V238.436C286.956 239.84 287.172 240.668 287.604 240.992V241.172H282.888ZM277.992 238.184C280.8 238.184 282.348 236.456 282.348 234.656V231.884C281.484 232.388 280.152 232.676 278.928 232.964C276.372 233.54 275.112 234.116 275.112 235.844C275.112 237.572 276.264 238.184 277.992 238.184ZM288.637 225.944V222.704H291.193V216.944H295.981V222.704H299.149V225.944H295.981V235.736C295.981 237.104 296.737 237.572 297.817 237.572C298.429 237.572 299.257 237.536 299.257 237.536V241.136C299.257 241.136 298.141 241.208 296.197 241.208C293.821 241.208 291.193 240.272 291.193 236.78V225.944H288.637ZM60.9424 291.172L55.5424 272.704H60.4024L62.6344 281.272C63.0304 282.784 63.4624 284.728 63.4624 284.728H63.5344C63.5344 284.728 63.9304 282.748 64.3264 281.236L66.6304 272.704H70.8064L73.2184 281.236C73.6144 282.784 74.0824 284.728 74.0824 284.728H74.1544C74.1544 284.728 74.5864 282.784 74.9824 281.272L77.3224 272.704H82.0744L76.5664 291.172H72.1024L69.6544 282.1C69.2584 280.624 68.8264 278.896 68.8264 278.896H68.7544C68.7544 278.896 68.2864 280.624 67.8904 282.1L65.3704 291.172H60.9424ZM92.0273 291.712C86.3033 291.712 82.3793 287.464 82.3793 281.956C82.3793 276.448 86.3033 272.2 92.0273 272.2C97.7513 272.2 101.675 276.448 101.675 281.956C101.675 287.464 97.7513 291.712 92.0273 291.712ZM92.0273 287.968C95.0153 287.968 96.7073 285.556 96.7073 281.956C96.7073 278.356 95.0153 275.908 92.0273 275.908C89.0033 275.908 87.3473 278.356 87.3473 281.956C87.3473 285.556 89.0033 287.968 92.0273 287.968ZM120.331 291.172H115.615V289.012H115.507C114.247 290.704 112.807 291.676 110.215 291.676C106.111 291.676 103.807 289.048 103.807 285.016V272.704H108.667V284.188C108.667 286.348 109.639 287.536 111.727 287.536C114.031 287.536 115.435 285.808 115.435 283.36V272.704H120.331V291.172ZM123.57 291.172V265.432H128.466V291.172H123.57ZM138.601 291.712C133.957 291.712 130.789 287.932 130.789 281.956C130.789 276.196 134.065 272.2 138.673 272.2C141.265 272.2 142.885 273.388 143.893 274.936H144.001V265.432H148.897V291.172H144.181V288.76H144.109C143.029 290.524 141.193 291.712 138.601 291.712ZM139.681 287.608C142.597 287.608 144.109 285.448 144.109 282.064C144.109 278.536 142.957 276.16 139.825 276.16C137.125 276.16 135.757 278.536 135.757 281.956C135.757 285.52 137.161 287.608 139.681 287.608ZM166.803 291.712C160.683 291.712 157.227 287.428 157.227 281.92C157.227 276.448 160.935 272.2 166.335 272.2C172.275 272.2 175.443 276.736 175.443 283.324H162.051C162.411 286.168 163.995 287.932 166.767 287.932C168.675 287.932 169.791 287.068 170.331 285.664H175.155C174.471 288.94 171.555 291.712 166.803 291.712ZM166.407 275.98C163.815 275.98 162.555 277.528 162.123 279.94H170.331C170.187 277.6 168.639 275.98 166.407 275.98ZM182.497 272.704V275.224H182.605C183.865 273.244 185.557 272.2 188.077 272.2C191.893 272.2 194.449 275.08 194.449 279.112V291.172H189.553V279.832C189.553 277.852 188.401 276.448 186.349 276.448C184.189 276.448 182.605 278.176 182.605 280.696V291.172H177.709V272.704H182.497ZM202.363 265.432V275.116H202.471C203.803 273.172 205.315 272.2 207.835 272.2C211.651 272.2 214.207 275.08 214.207 279.112V291.172H209.311V279.832C209.311 277.852 208.159 276.448 206.107 276.448C203.947 276.448 202.363 278.176 202.363 280.696V291.172H197.467V265.432H202.363ZM228.853 291.172C228.565 290.812 228.385 289.948 228.277 289.12H228.205C227.269 290.524 225.937 291.604 222.769 291.604C218.989 291.604 216.325 289.624 216.325 285.952C216.325 281.884 219.637 280.588 223.741 280.012C226.801 279.58 228.205 279.328 228.205 277.924C228.205 276.592 227.161 275.728 225.109 275.728C222.805 275.728 221.689 276.556 221.545 278.32H217.189C217.333 275.08 219.745 272.236 225.145 272.236C230.689 272.236 232.921 274.72 232.921 279.04V288.436C232.921 289.84 233.137 290.668 233.569 290.992V291.172H228.853ZM223.957 288.184C226.765 288.184 228.313 286.456 228.313 284.656V281.884C227.449 282.388 226.117 282.676 224.893 282.964C222.337 283.54 221.077 284.116 221.077 285.844C221.077 287.572 222.229 288.184 223.957 288.184ZM240.821 272.704V275.224H240.929C242.189 273.244 243.881 272.2 246.401 272.2C250.217 272.2 252.773 275.08 252.773 279.112V291.172H247.877V279.832C247.877 277.852 246.725 276.448 244.673 276.448C242.513 276.448 240.929 278.176 240.929 280.696V291.172H236.033V272.704H240.821ZM264.359 291.712C258.527 291.712 254.891 287.464 254.891 281.956C254.891 276.448 258.491 272.2 264.107 272.2C268.895 272.2 271.847 274.972 272.495 278.968H267.707C267.383 277.348 266.123 276.124 264.323 276.124C261.371 276.124 259.859 278.392 259.859 281.956C259.859 285.448 261.263 287.788 264.251 287.788C266.231 287.788 267.635 286.744 267.959 284.656H272.675C272.351 288.58 269.291 291.712 264.359 291.712ZM283.487 291.712C277.367 291.712 273.911 287.428 273.911 281.92C273.911 276.448 277.619 272.2 283.019 272.2C288.959 272.2 292.127 276.736 292.127 283.324H278.735C279.095 286.168 280.679 287.932 283.451 287.932C285.359 287.932 286.475 287.068 287.015 285.664H291.839C291.155 288.94 288.239 291.712 283.487 291.712ZM283.091 275.98C280.499 275.98 279.239 277.528 278.807 279.94H287.015C286.871 277.6 285.323 275.98 283.091 275.98ZM301.881 291.712C296.517 291.712 293.529 289.12 293.241 285.196H297.777C298.101 287.32 299.613 288.256 301.809 288.256C303.969 288.256 305.193 287.428 305.193 286.132C305.193 284.368 302.853 284.188 300.333 283.684C297.021 283.036 293.781 282.136 293.781 278.104C293.781 274.108 297.093 272.2 301.305 272.2C306.165 272.2 308.865 274.612 309.225 278.32H304.797C304.581 276.34 303.321 275.62 301.233 275.62C299.325 275.62 298.065 276.34 298.065 277.672C298.065 279.256 300.513 279.4 303.141 279.94C306.237 280.588 309.657 281.452 309.657 285.772C309.657 289.48 306.489 291.712 301.881 291.712ZM56.9824 341.172V322.704H61.6984V325.188H61.8064C62.8144 323.496 64.6144 322.2 67.1704 322.2C69.5104 322.2 71.3824 323.496 72.2824 325.44H72.3544C73.6144 323.424 75.5584 322.2 77.8984 322.2C81.7864 322.2 83.9824 324.72 83.9824 328.752V341.172H79.0864V329.58C79.0864 327.492 78.0424 326.412 76.2424 326.412C74.1904 326.412 72.9304 327.996 72.9304 330.444V341.172H68.0344V329.58C68.0344 327.492 66.9904 326.412 65.1904 326.412C63.2104 326.412 61.8784 327.996 61.8784 330.444V341.172H56.9824ZM87.0503 347.22V343.368H88.7783C90.7223 343.368 91.5143 342.36 91.5143 340.848C91.5143 339.84 91.1543 338.652 90.1103 335.844L85.1423 322.704H90.2903L93.0263 331.02C93.6023 332.712 94.2143 335.052 94.2143 335.052H94.2863C94.2863 335.052 94.7903 332.712 95.3663 331.02L97.9583 322.704H102.89L96.4463 341.64C95.0423 345.744 93.6743 347.22 89.9303 347.22H87.0503ZM110.596 341.172V322.704H115.312V325.188H115.42C116.428 323.496 118.228 322.2 120.784 322.2C123.124 322.2 124.996 323.496 125.896 325.44H125.968C127.228 323.424 129.172 322.2 131.512 322.2C135.4 322.2 137.596 324.72 137.596 328.752V341.172H132.7V329.58C132.7 327.492 131.656 326.412 129.856 326.412C127.804 326.412 126.544 327.996 126.544 330.444V341.172H121.648V329.58C121.648 327.492 120.604 326.412 118.804 326.412C116.824 326.412 115.492 327.996 115.492 330.444V341.172H110.596ZM149.295 341.712C143.175 341.712 139.719 337.428 139.719 331.92C139.719 326.448 143.427 322.2 148.827 322.2C154.767 322.2 157.935 326.736 157.935 333.324H144.543C144.903 336.168 146.487 337.932 149.259 337.932C151.167 337.932 152.283 337.068 152.823 335.664H157.647C156.963 338.94 154.047 341.712 149.295 341.712ZM148.899 325.98C146.307 325.98 145.047 327.528 144.615 329.94H152.823C152.679 327.6 151.131 325.98 148.899 325.98ZM160.201 341.172V322.704H164.917V325.188H165.025C166.033 323.496 167.833 322.2 170.389 322.2C172.729 322.2 174.601 323.496 175.501 325.44H175.573C176.833 323.424 178.777 322.2 181.117 322.2C185.005 322.2 187.201 324.72 187.201 328.752V341.172H182.305V329.58C182.305 327.492 181.261 326.412 179.461 326.412C177.409 326.412 176.149 327.996 176.149 330.444V341.172H171.253V329.58C171.253 327.492 170.209 326.412 168.409 326.412C166.429 326.412 165.097 327.996 165.097 330.444V341.172H160.201ZM198.973 341.712C193.249 341.712 189.325 337.464 189.325 331.956C189.325 326.448 193.249 322.2 198.973 322.2C204.697 322.2 208.621 326.448 208.621 331.956C208.621 337.464 204.697 341.712 198.973 341.712ZM198.973 337.968C201.961 337.968 203.653 335.556 203.653 331.956C203.653 328.356 201.961 325.908 198.973 325.908C195.949 325.908 194.293 328.356 194.293 331.956C194.293 335.556 195.949 337.968 198.973 337.968ZM215.613 322.704V325.656H215.721C216.837 323.568 218.097 322.488 220.257 322.488C220.797 322.488 221.121 322.524 221.409 322.632V326.916H221.301C218.097 326.592 215.793 328.284 215.793 332.172V341.172H210.897V322.704H215.613ZM224.089 347.22V343.368H225.817C227.761 343.368 228.553 342.36 228.553 340.848C228.553 339.84 228.193 338.652 227.149 335.844L222.181 322.704H227.329L230.065 331.02C230.641 332.712 231.253 335.052 231.253 335.052H231.325C231.325 335.052 231.829 332.712 232.405 331.02L234.997 322.704H239.929L233.485 341.64C232.081 345.744 230.713 347.22 226.969 347.22H224.089ZM256.383 341.712C250.659 341.712 246.735 337.464 246.735 331.956C246.735 326.448 250.659 322.2 256.383 322.2C262.107 322.2 266.031 326.448 266.031 331.956C266.031 337.464 262.107 341.712 256.383 341.712ZM256.383 337.968C259.371 337.968 261.063 335.556 261.063 331.956C261.063 328.356 259.371 325.908 256.383 325.908C253.359 325.908 251.703 328.356 251.703 331.956C251.703 335.556 253.359 337.968 256.383 337.968ZM266.875 326.088V322.704H269.395V321.048C269.395 316.548 272.887 314.964 277.603 315.468V319.248C275.299 319.14 274.291 319.428 274.291 321.336V322.704H277.603V326.088H274.291V341.172H269.395V326.088H266.875ZM55.9024 375.944V372.704H58.4584V366.944H63.2464V372.704H66.4144V375.944H63.2464V385.736C63.2464 387.104 64.0024 387.572 65.0824 387.572C65.6944 387.572 66.5224 387.536 66.5224 387.536V391.136C66.5224 391.136 65.4064 391.208 63.4624 391.208C61.0864 391.208 58.4584 390.272 58.4584 386.78V375.944H55.9024ZM73.8316 365.432V375.116H73.9396C75.2716 373.172 76.7836 372.2 79.3036 372.2C83.1196 372.2 85.6756 375.08 85.6756 379.112V391.172H80.7796V379.832C80.7796 377.852 79.6276 376.448 77.5756 376.448C75.4156 376.448 73.8316 378.176 73.8316 380.696V391.172H68.9356V365.432H73.8316ZM97.3694 391.712C91.2494 391.712 87.7934 387.428 87.7934 381.92C87.7934 376.448 91.5014 372.2 96.9014 372.2C102.841 372.2 106.009 376.736 106.009 383.324H92.6174C92.9774 386.168 94.5614 387.932 97.3334 387.932C99.2414 387.932 100.357 387.068 100.897 385.664H105.721C105.037 388.94 102.121 391.712 97.3694 391.712ZM96.9734 375.98C94.3814 375.98 93.1214 377.528 92.6894 379.94H100.897C100.753 377.6 99.2054 375.98 96.9734 375.98ZM113.242 376.088V372.704H115.762V371.048C115.762 366.548 119.254 364.964 123.97 365.468V369.248C121.666 369.14 120.658 369.428 120.658 371.336V372.704H123.97V376.088H120.658V391.172H115.762V376.088H113.242ZM134.354 391.712C128.234 391.712 124.778 387.428 124.778 381.92C124.778 376.448 128.486 372.2 133.886 372.2C139.826 372.2 142.994 376.736 142.994 383.324H129.602C129.962 386.168 131.546 387.932 134.318 387.932C136.226 387.932 137.342 387.068 137.882 385.664H142.706C142.022 388.94 139.106 391.712 134.354 391.712ZM133.958 375.98C131.366 375.98 130.106 377.528 129.674 379.94H137.882C137.738 377.6 136.19 375.98 133.958 375.98ZM152.748 391.712C147.384 391.712 144.396 389.12 144.108 385.196H148.644C148.968 387.32 150.48 388.256 152.676 388.256C154.836 388.256 156.06 387.428 156.06 386.132C156.06 384.368 153.72 384.188 151.2 383.684C147.888 383.036 144.648 382.136 144.648 378.104C144.648 374.108 147.96 372.2 152.172 372.2C157.032 372.2 159.732 374.612 160.092 378.32H155.664C155.448 376.34 154.188 375.62 152.1 375.62C150.192 375.62 148.932 376.34 148.932 377.672C148.932 379.256 151.38 379.4 154.008 379.94C157.104 380.588 160.524 381.452 160.524 385.772C160.524 389.48 157.356 391.712 152.748 391.712ZM161.301 375.944V372.704H163.857V366.944H168.645V372.704H171.813V375.944H168.645V385.736C168.645 387.104 169.401 387.572 170.481 387.572C171.093 387.572 171.921 387.536 171.921 387.536V391.136C171.921 391.136 170.805 391.208 168.861 391.208C166.485 391.208 163.857 390.272 163.857 386.78V375.944H161.301ZM174.334 391.172V372.704H179.23V391.172H174.334ZM174.334 369.824V365.432H179.23V369.824H174.334ZM187.281 391.172L180.873 372.704H185.841L188.793 382.28C189.333 384.044 189.621 385.232 189.621 385.232H189.693C189.693 385.232 189.945 384.044 190.485 382.28L193.509 372.704H198.405L191.961 391.172H187.281ZM211.169 391.172C210.881 390.812 210.701 389.948 210.593 389.12H210.521C209.585 390.524 208.253 391.604 205.085 391.604C201.305 391.604 198.641 389.624 198.641 385.952C198.641 381.884 201.953 380.588 206.057 380.012C209.117 379.58 210.521 379.328 210.521 377.924C210.521 376.592 209.477 375.728 207.425 375.728C205.121 375.728 204.005 376.556 203.861 378.32H199.505C199.649 375.08 202.061 372.236 207.461 372.236C213.005 372.236 215.237 374.72 215.237 379.04V388.436C215.237 389.84 215.453 390.668 215.885 390.992V391.172H211.169ZM206.273 388.184C209.081 388.184 210.629 386.456 210.629 384.656V381.884C209.765 382.388 208.433 382.676 207.209 382.964C204.653 383.54 203.393 384.116 203.393 385.844C203.393 387.572 204.545 388.184 206.273 388.184ZM218.422 391.172V365.432H223.318V391.172H218.422ZM226.253 391.172V385.952H231.509V391.172H226.253Z" fill="#F56311"/>
<path d="M56.5477 76.1719V42.7092C56.5477 16.9032 76.3984 3.29129 95.3984 0.171875V13.5002C86.6074 16.3361 76.1149 25.4107 76.1149 39.3062H94.8313V76.1719H56.5477ZM0.398438 76.1719V42.7092C0.398438 16.9032 20.2492 3.29129 39.2492 0.171875V13.5002C30.4581 16.3361 19.9656 25.4107 19.9656 39.3062H38.682V76.1719H0.398438Z" fill="#F56311"/>
<path d="M293.249 423.172L293.249 456.635C293.249 482.441 273.398 496.052 254.398 499.172L254.398 485.843C263.189 483.008 273.682 473.933 273.682 460.038L254.966 460.038L254.966 423.172L293.249 423.172ZM349.398 423.172L349.398 456.635C349.398 482.441 329.548 496.052 310.548 499.172L310.548 485.844C319.339 483.008 329.831 473.933 329.831 460.038L311.115 460.038L311.115 423.172L349.398 423.172Z" fill="#F56311"/>
</svg>
