<svg width="436" height="465" viewBox="0 0 436 465" fill="none" xmlns="http://www.w3.org/2000/svg">
<path d="M56.1805 76.1719V42.7092C56.1805 16.9032 76.0312 3.29129 95.0312 0.171875V13.5002C86.2402 16.3361 75.7477 25.4107 75.7477 39.3062H94.4641V76.1719H56.1805ZM0.03125 76.1719V42.7092C0.03125 16.9032 19.882 3.29129 38.882 0.171875V13.5002C30.091 16.3361 19.5984 25.4107 19.5984 39.3062H38.3148V76.1719H0.03125Z" fill="#F56311"/>
<path d="M364.882 388.172L364.882 421.635C364.882 447.441 345.031 461.052 326.031 464.172L326.031 450.843C334.822 448.008 345.315 438.933 345.315 425.038L326.598 425.038L326.598 388.172L364.882 388.172ZM421.031 388.172L421.031 421.635C421.031 447.441 401.181 461.052 382.181 464.172L382.181 450.844C390.972 448.008 401.464 438.933 401.464 425.038L382.748 425.038L382.748 388.172L421.031 388.172Z" fill="#F56311"/>
<path d="M62.3081 143.172V117.432H81.2441V121.824H67.5281V127.584H79.5521V131.868H67.5281V138.816H81.3521V143.172H62.3081ZM88.1831 143.172L81.7751 124.704H86.7431L89.6951 134.28C90.2351 136.044 90.5231 137.232 90.5231 137.232H90.5951C90.5951 137.232 90.8471 136.044 91.3871 134.28L94.4111 124.704H99.3071L92.8631 143.172H88.1831ZM109.119 143.712C102.999 143.712 99.5434 139.428 99.5434 133.92C99.5434 128.448 103.251 124.2 108.651 124.2C114.591 124.2 117.759 128.736 117.759 135.324H104.367C104.727 138.168 106.311 139.932 109.083 139.932C110.991 139.932 112.107 139.068 112.647 137.664H117.471C116.787 140.94 113.871 143.712 109.119 143.712ZM108.723 127.98C106.131 127.98 104.871 129.528 104.439 131.94H112.647C112.503 129.6 110.955 127.98 108.723 127.98ZM124.741 124.704V127.656H124.849C125.965 125.568 127.225 124.488 129.385 124.488C129.925 124.488 130.249 124.524 130.537 124.632V128.916H130.429C127.225 128.592 124.921 130.284 124.921 134.172V143.172H120.025V124.704H124.741ZM133.218 149.22V145.368H134.946C136.89 145.368 137.682 144.36 137.682 142.848C137.682 141.84 137.322 140.652 136.278 137.844L131.31 124.704H136.458L139.194 133.02C139.77 134.712 140.382 137.052 140.382 137.052H140.454C140.454 137.052 140.958 134.712 141.534 133.02L144.126 124.704H149.058L142.614 143.64C141.21 147.744 139.842 149.22 136.098 149.22H133.218ZM158.937 143.712C153.213 143.712 149.289 139.464 149.289 133.956C149.289 128.448 153.213 124.2 158.937 124.2C164.661 124.2 168.585 128.448 168.585 133.956C168.585 139.464 164.661 143.712 158.937 143.712ZM158.937 139.968C161.925 139.968 163.617 137.556 163.617 133.956C163.617 130.356 161.925 127.908 158.937 127.908C155.913 127.908 154.257 130.356 154.257 133.956C154.257 137.556 155.913 139.968 158.937 139.968ZM175.649 124.704V127.224H175.757C177.017 125.244 178.709 124.2 181.229 124.2C185.045 124.2 187.601 127.08 187.601 131.112V143.172H182.705V131.832C182.705 129.852 181.553 128.448 179.501 128.448C177.341 128.448 175.757 130.176 175.757 132.696V143.172H170.861V124.704H175.649ZM199.295 143.712C193.175 143.712 189.719 139.428 189.719 133.92C189.719 128.448 193.427 124.2 198.827 124.2C204.767 124.2 207.935 128.736 207.935 135.324H194.543C194.903 138.168 196.487 139.932 199.259 139.932C201.167 139.932 202.283 139.068 202.823 137.664H207.647C206.963 140.94 204.047 143.712 199.295 143.712ZM198.899 127.98C196.307 127.98 195.047 129.528 194.615 131.94H202.823C202.679 129.6 201.131 127.98 198.899 127.98ZM216.32 143.172V117.432H221.216V143.172H216.32ZM233.187 143.712C227.463 143.712 223.539 139.464 223.539 133.956C223.539 128.448 227.463 124.2 233.187 124.2C238.911 124.2 242.835 128.448 242.835 133.956C242.835 139.464 238.911 143.712 233.187 143.712ZM233.187 139.968C236.175 139.968 237.867 137.556 237.867 133.956C237.867 130.356 236.175 127.908 233.187 127.908C230.163 127.908 228.507 130.356 228.507 133.956C228.507 137.556 230.163 139.968 233.187 139.968ZM249.48 143.172L243.072 124.704H248.04L250.992 134.28C251.532 136.044 251.82 137.232 251.82 137.232H251.892C251.892 137.232 252.144 136.044 252.684 134.28L255.708 124.704H260.604L254.16 143.172H249.48ZM270.416 143.712C264.296 143.712 260.84 139.428 260.84 133.92C260.84 128.448 264.548 124.2 269.948 124.2C275.888 124.2 279.056 128.736 279.056 135.324H265.664C266.024 138.168 267.608 139.932 270.38 139.932C272.288 139.932 273.404 139.068 273.944 137.664H278.768C278.084 140.94 275.168 143.712 270.416 143.712ZM270.02 127.98C267.428 127.98 266.168 129.528 265.736 131.94H273.944C273.8 129.6 272.252 127.98 270.02 127.98ZM288.81 143.712C283.446 143.712 280.458 141.12 280.17 137.196H284.706C285.03 139.32 286.542 140.256 288.738 140.256C290.898 140.256 292.122 139.428 292.122 138.132C292.122 136.368 289.782 136.188 287.262 135.684C283.95 135.036 280.71 134.136 280.71 130.104C280.71 126.108 284.022 124.2 288.234 124.2C293.094 124.2 295.794 126.612 296.154 130.32H291.726C291.51 128.34 290.25 127.62 288.162 127.62C286.254 127.62 284.994 128.34 284.994 129.672C284.994 131.256 287.442 131.4 290.07 131.94C293.166 132.588 296.586 133.452 296.586 137.772C296.586 141.48 293.418 143.712 288.81 143.712ZM303.762 127.944V124.704H306.318V118.944H311.106V124.704H314.274V127.944H311.106V137.736C311.106 139.104 311.862 139.572 312.942 139.572C313.554 139.572 314.382 139.536 314.382 139.536V143.136C314.382 143.136 313.266 143.208 311.322 143.208C308.946 143.208 306.318 142.272 306.318 138.78V127.944H303.762ZM321.511 124.704V127.656H321.619C322.735 125.568 323.995 124.488 326.155 124.488C326.695 124.488 327.019 124.524 327.307 124.632V128.916H327.199C323.995 128.592 321.691 130.284 321.691 134.172V143.172H316.795V124.704H321.511ZM329.416 143.172V124.704H334.312V143.172H329.416ZM329.416 121.824V117.432H334.312V121.824H329.416ZM342.363 143.172L335.955 124.704H340.923L343.875 134.28C344.415 136.044 344.703 137.232 344.703 137.232H344.775C344.775 137.232 345.027 136.044 345.567 134.28L348.591 124.704H353.487L347.043 143.172H342.363ZM355.15 143.172V124.704H360.046V143.172H355.15ZM355.15 121.824V117.432H360.046V121.824H355.15ZM374.829 143.172C374.541 142.812 374.361 141.948 374.253 141.12H374.181C373.245 142.524 371.913 143.604 368.745 143.604C364.965 143.604 362.301 141.624 362.301 137.952C362.301 133.884 365.613 132.588 369.717 132.012C372.777 131.58 374.181 131.328 374.181 129.924C374.181 128.592 373.137 127.728 371.085 127.728C368.781 127.728 367.665 128.556 367.521 130.32H363.165C363.309 127.08 365.721 124.236 371.121 124.236C376.665 124.236 378.897 126.72 378.897 131.04V140.436C378.897 141.84 379.113 142.668 379.545 142.992V143.172H374.829ZM369.933 140.184C372.741 140.184 374.289 138.456 374.289 136.656V133.884C373.425 134.388 372.093 134.676 370.869 134.964C368.313 135.54 367.053 136.116 367.053 137.844C367.053 139.572 368.205 140.184 369.933 140.184ZM381.866 149.148V147.384C383.27 146.664 384.458 145.404 384.458 143.172H381.83V137.952H387.086V142.884C387.086 146.556 384.638 148.644 381.866 149.148ZM381.83 132.336V127.116H387.086V132.336H381.83ZM61.9121 193.172V174.704H66.8081V193.172H61.9121ZM61.9121 171.824V167.432H66.8081V171.824H61.9121ZM68.8829 177.944V174.704H71.4389V168.944H76.2269V174.704H79.3949V177.944H76.2269V187.736C76.2269 189.104 76.9829 189.572 78.0629 189.572C78.6749 189.572 79.5029 189.536 79.5029 189.536V193.136C79.5029 193.136 78.3869 193.208 76.4429 193.208C74.0669 193.208 71.4389 192.272 71.4389 188.78V177.944H68.8829ZM81.9838 176.468V167.432H86.2678V176.468H81.9838ZM95.2048 193.712C89.8408 193.712 86.8528 191.12 86.5648 187.196H91.1008C91.4248 189.32 92.9368 190.256 95.1328 190.256C97.2928 190.256 98.5168 189.428 98.5168 188.132C98.5168 186.368 96.1768 186.188 93.6568 185.684C90.3448 185.036 87.1048 184.136 87.1048 180.104C87.1048 176.108 90.4168 174.2 94.6288 174.2C99.4888 174.2 102.189 176.612 102.549 180.32H98.1208C97.9048 178.34 96.6448 177.62 94.5568 177.62C92.6488 177.62 91.3888 178.34 91.3888 179.672C91.3888 181.256 93.8368 181.4 96.4648 181.94C99.5608 182.588 102.981 183.452 102.981 187.772C102.981 191.48 99.8128 193.712 95.2048 193.712ZM110.156 178.088V174.704H112.676V173.048C112.676 168.548 116.168 166.964 120.884 167.468V171.248C118.58 171.14 117.572 171.428 117.572 173.336V174.704H120.884V178.088H117.572V193.172H112.676V178.088H110.156ZM139.499 193.172H134.783V191.012H134.675C133.415 192.704 131.975 193.676 129.383 193.676C125.279 193.676 122.975 191.048 122.975 187.016V174.704H127.835V186.188C127.835 188.348 128.807 189.536 130.895 189.536C133.199 189.536 134.603 187.808 134.603 185.36V174.704H139.499V193.172ZM147.454 174.704V177.224H147.562C148.822 175.244 150.514 174.2 153.034 174.2C156.85 174.2 159.406 177.08 159.406 181.112V193.172H154.51V181.832C154.51 179.852 153.358 178.448 151.306 178.448C149.146 178.448 147.562 180.176 147.562 182.696V193.172H142.666V174.704H147.454ZM162.172 199.148V197.384C163.576 196.664 164.764 195.404 164.764 193.172H162.136V187.952H167.392V192.884C167.392 196.556 164.944 198.644 162.172 199.148ZM184.879 193.712C179.047 193.712 175.411 189.464 175.411 183.956C175.411 178.448 179.011 174.2 184.627 174.2C189.415 174.2 192.367 176.972 193.015 180.968H188.227C187.903 179.348 186.643 178.124 184.843 178.124C181.891 178.124 180.379 180.392 180.379 183.956C180.379 187.448 181.783 189.788 184.771 189.788C186.751 189.788 188.155 188.744 188.479 186.656H193.195C192.871 190.58 189.811 193.712 184.879 193.712ZM204.078 193.712C198.354 193.712 194.43 189.464 194.43 183.956C194.43 178.448 198.354 174.2 204.078 174.2C209.802 174.2 213.726 178.448 213.726 183.956C213.726 189.464 209.802 193.712 204.078 193.712ZM204.078 189.968C207.066 189.968 208.758 187.556 208.758 183.956C208.758 180.356 207.066 177.908 204.078 177.908C201.054 177.908 199.398 180.356 199.398 183.956C199.398 187.556 201.054 189.968 204.078 189.968ZM216.002 193.172V174.704H220.718V177.188H220.826C221.834 175.496 223.634 174.2 226.19 174.2C228.53 174.2 230.402 175.496 231.302 177.44H231.374C232.634 175.424 234.578 174.2 236.918 174.2C240.806 174.2 243.002 176.72 243.002 180.752V193.172H238.106V181.58C238.106 179.492 237.062 178.412 235.262 178.412C233.21 178.412 231.95 179.996 231.95 182.444V193.172H227.054V181.58C227.054 179.492 226.01 178.412 224.21 178.412C222.23 178.412 220.898 179.996 220.898 182.444V193.172H216.002ZM246.025 199.22V174.704H250.741V177.008H250.849C252.037 175.388 253.765 174.2 256.285 174.2C261.181 174.2 264.313 178.196 264.313 183.956C264.313 189.932 261.073 193.712 256.321 193.712C253.729 193.712 252.037 192.668 250.993 191.084H250.921V199.22H246.025ZM255.277 189.644C257.761 189.644 259.345 187.592 259.345 184.1C259.345 180.608 258.121 178.16 255.097 178.16C252.037 178.16 250.813 180.788 250.813 184.1C250.813 187.448 252.361 189.644 255.277 189.644ZM275.268 193.712C269.148 193.712 265.692 189.428 265.692 183.92C265.692 178.448 269.4 174.2 274.8 174.2C280.74 174.2 283.908 178.736 283.908 185.324H270.516C270.876 188.168 272.46 189.932 275.232 189.932C277.14 189.932 278.256 189.068 278.796 187.664H283.62C282.936 190.94 280.02 193.712 275.268 193.712ZM274.872 177.98C272.28 177.98 271.02 179.528 270.588 181.94H278.796C278.652 179.6 277.104 177.98 274.872 177.98ZM284.742 177.944V174.704H287.298V168.944H292.086V174.704H295.254V177.944H292.086V187.736C292.086 189.104 292.842 189.572 293.922 189.572C294.534 189.572 295.362 189.536 295.362 189.536V193.136C295.362 193.136 294.246 193.208 292.302 193.208C289.926 193.208 287.298 192.272 287.298 188.78V177.944H284.742ZM297.775 193.172V174.704H302.671V193.172H297.775ZM297.775 171.824V167.432H302.671V171.824H297.775ZM304.746 177.944V174.704H307.302V168.944H312.09V174.704H315.258V177.944H312.09V187.736C312.09 189.104 312.846 189.572 313.926 189.572C314.538 189.572 315.366 189.536 315.366 189.536V193.136C315.366 193.136 314.25 193.208 312.306 193.208C309.93 193.208 307.302 192.272 307.302 188.78V177.944H304.746ZM317.779 193.172V174.704H322.675V193.172H317.779ZM317.779 171.824V167.432H322.675V171.824H317.779ZM330.726 193.172L324.318 174.704H329.286L332.238 184.28C332.778 186.044 333.066 187.232 333.066 187.232H333.138C333.138 187.232 333.39 186.044 333.93 184.28L336.954 174.704H341.85L335.406 193.172H330.726ZM351.662 193.712C345.542 193.712 342.086 189.428 342.086 183.92C342.086 178.448 345.794 174.2 351.194 174.2C357.134 174.2 360.302 178.736 360.302 185.324H346.91C347.27 188.168 348.854 189.932 351.626 189.932C353.534 189.932 354.65 189.068 355.19 187.664H360.014C359.33 190.94 356.414 193.712 351.662 193.712ZM351.266 177.98C348.674 177.98 347.414 179.528 346.982 181.94H355.19C355.046 179.6 353.498 177.98 351.266 177.98ZM362.141 199.148V197.384C363.545 196.664 364.733 195.404 364.733 193.172H362.105V187.952H367.361V192.884C367.361 196.556 364.913 198.644 362.141 199.148ZM69.5801 243.712C63.9281 243.712 61.0121 240.58 61.0121 236.548C61.0121 232.876 63.3521 230.572 66.7001 228.88C65.2241 227.08 64.5401 225.64 64.5401 223.552C64.5401 220.204 67.2041 217.612 71.2001 217.612C75.0881 217.612 77.9321 219.988 77.9321 223.516C77.9321 226.684 76.0961 228.268 73.3241 229.708L76.7441 234.136C77.2481 232.84 77.6081 231.364 77.7521 229.96H82.1081C81.8921 232.84 81.0641 235.612 79.6601 237.916L83.7281 243.172H77.7521L76.4201 241.48C74.5121 242.884 72.1721 243.712 69.5801 243.712ZM69.7601 239.68C71.3081 239.68 72.7121 239.14 73.8641 238.168L69.1481 232.012C66.9521 233.344 66.1961 234.784 66.1961 236.404C66.1961 238.348 67.7441 239.68 69.7601 239.68ZM69.2561 223.624C69.2561 224.776 70.0481 225.892 71.1281 226.936C72.8201 225.928 73.2881 224.812 73.2881 223.588C73.2881 222.328 72.3521 221.536 71.2721 221.536C70.1201 221.536 69.2561 222.4 69.2561 223.624ZM100.26 243.712C94.14 243.712 90.684 239.428 90.684 233.92C90.684 228.448 94.392 224.2 99.792 224.2C105.732 224.2 108.9 228.736 108.9 235.324H95.508C95.868 238.168 97.452 239.932 100.224 239.932C102.132 239.932 103.248 239.068 103.788 237.664H108.612C107.928 240.94 105.012 243.712 100.26 243.712ZM99.864 227.98C97.272 227.98 96.012 229.528 95.58 231.94H103.788C103.644 229.6 102.096 227.98 99.864 227.98ZM118.078 243.712C113.434 243.712 110.266 239.932 110.266 233.956C110.266 228.196 113.542 224.2 118.15 224.2C120.742 224.2 122.362 225.388 123.37 226.936H123.478V217.432H128.374V243.172H123.658V240.76H123.586C122.506 242.524 120.67 243.712 118.078 243.712ZM119.158 239.608C122.074 239.608 123.586 237.448 123.586 234.064C123.586 230.536 122.434 228.16 119.302 228.16C116.602 228.16 115.234 230.536 115.234 233.956C115.234 237.52 116.638 239.608 119.158 239.608ZM147.937 243.172H143.221V241.012H143.113C141.853 242.704 140.413 243.676 137.821 243.676C133.717 243.676 131.413 241.048 131.413 237.016V224.704H136.273V236.188C136.273 238.348 137.245 239.536 139.333 239.536C141.637 239.536 143.041 237.808 143.041 235.36V224.704H147.937V243.172ZM159.672 243.712C153.84 243.712 150.204 239.464 150.204 233.956C150.204 228.448 153.804 224.2 159.42 224.2C164.208 224.2 167.16 226.972 167.808 230.968H163.02C162.696 229.348 161.436 228.124 159.636 228.124C156.684 228.124 155.172 230.392 155.172 233.956C155.172 237.448 156.576 239.788 159.564 239.788C161.544 239.788 162.948 238.744 163.272 236.656H167.988C167.664 240.58 164.604 243.712 159.672 243.712ZM182.103 243.172C181.815 242.812 181.635 241.948 181.527 241.12H181.455C180.519 242.524 179.187 243.604 176.019 243.604C172.239 243.604 169.575 241.624 169.575 237.952C169.575 233.884 172.887 232.588 176.991 232.012C180.051 231.58 181.455 231.328 181.455 229.924C181.455 228.592 180.411 227.728 178.359 227.728C176.055 227.728 174.939 228.556 174.795 230.32H170.439C170.583 227.08 172.995 224.236 178.395 224.236C183.939 224.236 186.171 226.72 186.171 231.04V240.436C186.171 241.84 186.387 242.668 186.819 242.992V243.172H182.103ZM177.207 240.184C180.015 240.184 181.563 238.456 181.563 236.656V233.884C180.699 234.388 179.367 234.676 178.143 234.964C175.587 235.54 174.327 236.116 174.327 237.844C174.327 239.572 175.479 240.184 177.207 240.184ZM187.852 227.944V224.704H190.408V218.944H195.196V224.704H198.364V227.944H195.196V237.736C195.196 239.104 195.952 239.572 197.032 239.572C197.644 239.572 198.472 239.536 198.472 239.536V243.136C198.472 243.136 197.356 243.208 195.412 243.208C193.036 243.208 190.408 242.272 190.408 238.78V227.944H187.852ZM200.885 243.172V224.704H205.781V243.172H200.885ZM200.885 221.824V217.432H205.781V221.824H200.885ZM217.684 243.712C211.96 243.712 208.036 239.464 208.036 233.956C208.036 228.448 211.96 224.2 217.684 224.2C223.408 224.2 227.332 228.448 227.332 233.956C227.332 239.464 223.408 243.712 217.684 243.712ZM217.684 239.968C220.672 239.968 222.364 237.556 222.364 233.956C222.364 230.356 220.672 227.908 217.684 227.908C214.66 227.908 213.004 230.356 213.004 233.956C213.004 237.556 214.66 239.968 217.684 239.968ZM234.395 224.704V227.224H234.503C235.763 225.244 237.455 224.2 239.975 224.2C243.791 224.2 246.347 227.08 246.347 231.112V243.172H241.451V231.832C241.451 229.852 240.299 228.448 238.247 228.448C236.087 228.448 234.503 230.176 234.503 232.696V243.172H229.607V224.704H234.395ZM260.993 243.172C260.705 242.812 260.525 241.948 260.417 241.12H260.345C259.409 242.524 258.077 243.604 254.909 243.604C251.129 243.604 248.465 241.624 248.465 237.952C248.465 233.884 251.777 232.588 255.881 232.012C258.941 231.58 260.345 231.328 260.345 229.924C260.345 228.592 259.301 227.728 257.249 227.728C254.945 227.728 253.829 228.556 253.685 230.32H249.329C249.473 227.08 251.885 224.236 257.285 224.236C262.829 224.236 265.061 226.72 265.061 231.04V240.436C265.061 241.84 265.277 242.668 265.709 242.992V243.172H260.993ZM256.097 240.184C258.905 240.184 260.453 238.456 260.453 236.656V233.884C259.589 234.388 258.257 234.676 257.033 234.964C254.477 235.54 253.217 236.116 253.217 237.844C253.217 239.572 254.369 240.184 256.097 240.184ZM268.246 243.172V217.432H273.142V243.172H268.246ZM276.077 243.172V237.952H281.333V243.172H276.077ZM301.952 243.748C294.356 243.748 289.532 238.06 289.532 230.356C289.532 222.652 294.356 216.928 301.952 216.928C309.548 216.928 314.336 222.652 314.336 230.356C314.336 238.06 309.548 243.748 301.952 243.748ZM301.988 239.464C306.704 239.464 309.008 235.468 309.008 230.356C309.008 225.208 306.704 221.212 301.988 221.212C297.272 221.212 294.86 225.208 294.86 230.356C294.86 235.468 297.272 239.464 301.988 239.464ZM315.715 228.088V224.704H318.235V223.192C318.235 218.692 321.727 217.108 326.263 217.612V221.392C324.139 221.284 323.131 221.572 323.131 223.48V224.704H328.639V223.048C328.639 218.548 332.131 216.964 336.847 217.468V221.248C334.543 221.14 333.535 221.428 333.535 223.336V224.704H336.847V228.088H333.535V243.172H328.639V228.088H323.131V243.172H318.235V228.088H315.715ZM347.233 243.712C341.113 243.712 337.657 239.428 337.657 233.92C337.657 228.448 341.365 224.2 346.765 224.2C352.705 224.2 355.873 228.736 355.873 235.324H342.481C342.841 238.168 344.425 239.932 347.197 239.932C349.105 239.932 350.221 239.068 350.761 237.664H355.585C354.901 240.94 351.985 243.712 347.233 243.712ZM346.837 227.98C344.245 227.98 342.985 229.528 342.553 231.94H350.761C350.617 229.6 349.069 227.98 346.837 227.98ZM362.855 224.704V227.656H362.963C364.079 225.568 365.339 224.488 367.499 224.488C368.039 224.488 368.363 224.524 368.651 224.632V228.916H368.543C365.339 228.592 363.035 230.284 363.035 234.172V243.172H358.139V224.704H362.855ZM370.76 243.172V224.704H375.656V243.172H370.76ZM370.76 221.824V217.432H375.656V221.824H370.76ZM383.599 224.704V227.224H383.707C384.967 225.244 386.659 224.2 389.179 224.2C392.995 224.2 395.551 227.08 395.551 231.112V243.172H390.655V231.832C390.655 229.852 389.503 228.448 387.451 228.448C385.291 228.448 383.707 230.176 383.707 232.696V243.172H378.811V224.704H383.599ZM406.704 249.472C401.664 249.472 398.568 247.312 398.064 243.712H402.924C403.32 244.864 404.364 245.764 406.632 245.764C409.404 245.764 410.736 244.432 410.736 241.912V239.896H410.628C409.548 241.12 408.144 242.056 405.804 242.056C401.7 242.056 397.668 238.816 397.668 233.236C397.668 227.728 400.98 224.2 405.66 224.2C407.964 224.2 409.656 225.1 410.772 226.648H410.844V224.704H415.56V241.768C415.56 244.36 414.732 246.124 413.364 247.384C411.816 248.824 409.44 249.472 406.704 249.472ZM406.632 238.132C409.728 238.132 410.988 235.864 410.988 233.128C410.988 230.428 409.548 228.124 406.596 228.124C404.112 228.124 402.456 230.068 402.456 233.164C402.456 236.296 404.112 238.132 406.632 238.132ZM61.9121 299.22V274.704H66.6281V277.008H66.7361C67.9241 275.388 69.6521 274.2 72.1721 274.2C77.0681 274.2 80.2001 278.196 80.2001 283.956C80.2001 289.932 76.9601 293.712 72.2081 293.712C69.6161 293.712 67.9241 292.668 66.8801 291.084H66.8081V299.22H61.9121ZM71.1641 289.644C73.6481 289.644 75.2321 287.592 75.2321 284.1C75.2321 280.608 74.0081 278.16 70.9841 278.16C67.9241 278.16 66.7001 280.788 66.7001 284.1C66.7001 287.448 68.2481 289.644 71.1641 289.644ZM87.1945 274.704V277.656H87.3025C88.4185 275.568 89.6785 274.488 91.8385 274.488C92.3785 274.488 92.7025 274.524 92.9905 274.632V278.916H92.8825C89.6785 278.592 87.3745 280.284 87.3745 284.172V293.172H82.4785V274.704H87.1945ZM95.0996 293.172V274.704H99.9956V293.172H95.0996ZM95.0996 271.824V267.432H99.9956V271.824H95.0996ZM102.538 293.172V289.428L112.042 278.664V278.556H103.618V274.704H117.73V278.628L108.442 289.14V289.248H118.198V293.172H102.538ZM128.772 293.712C122.652 293.712 119.196 289.428 119.196 283.92C119.196 278.448 122.904 274.2 128.304 274.2C134.244 274.2 137.412 278.736 137.412 285.324H124.02C124.38 288.168 125.964 289.932 128.736 289.932C130.644 289.932 131.76 289.068 132.3 287.664H137.124C136.44 290.94 133.524 293.712 128.772 293.712ZM128.376 277.98C125.784 277.98 124.524 279.528 124.092 281.94H132.3C132.156 279.6 130.608 277.98 128.376 277.98ZM147.166 293.712C141.802 293.712 138.814 291.12 138.526 287.196H143.062C143.386 289.32 144.898 290.256 147.094 290.256C149.254 290.256 150.478 289.428 150.478 288.132C150.478 286.368 148.138 286.188 145.618 285.684C142.306 285.036 139.066 284.136 139.066 280.104C139.066 276.108 142.378 274.2 146.59 274.2C151.45 274.2 154.15 276.612 154.51 280.32H150.082C149.866 278.34 148.606 277.62 146.518 277.62C144.61 277.62 143.35 278.34 143.35 279.672C143.35 281.256 145.798 281.4 148.426 281.94C151.522 282.588 154.942 283.452 154.942 287.772C154.942 291.48 151.774 293.712 147.166 293.712ZM167.157 293.172L161.757 274.704H166.617L168.849 283.272C169.245 284.784 169.677 286.728 169.677 286.728H169.749C169.749 286.728 170.145 284.748 170.541 283.236L172.845 274.704H177.021L179.433 283.236C179.829 284.784 180.297 286.728 180.297 286.728H180.369C180.369 286.728 180.801 284.784 181.197 283.272L183.537 274.704H188.289L182.781 293.172H178.317L175.869 284.1C175.473 282.624 175.041 280.896 175.041 280.896H174.969C174.969 280.896 174.501 282.624 174.105 284.1L171.585 293.172H167.157ZM198.242 293.712C192.518 293.712 188.594 289.464 188.594 283.956C188.594 278.448 192.518 274.2 198.242 274.2C203.966 274.2 207.89 278.448 207.89 283.956C207.89 289.464 203.966 293.712 198.242 293.712ZM198.242 289.968C201.23 289.968 202.922 287.556 202.922 283.956C202.922 280.356 201.23 277.908 198.242 277.908C195.218 277.908 193.562 280.356 193.562 283.956C193.562 287.556 195.218 289.968 198.242 289.968ZM226.546 293.172H221.83V291.012H221.722C220.462 292.704 219.022 293.676 216.43 293.676C212.326 293.676 210.022 291.048 210.022 287.016V274.704H214.882V286.188C214.882 288.348 215.854 289.536 217.942 289.536C220.246 289.536 221.65 287.808 221.65 285.36V274.704H226.546V293.172ZM229.785 293.172V267.432H234.681V293.172H229.785ZM244.816 293.712C240.172 293.712 237.004 289.932 237.004 283.956C237.004 278.196 240.28 274.2 244.888 274.2C247.48 274.2 249.1 275.388 250.108 276.936H250.216V267.432H255.112V293.172H250.396V290.76H250.324C249.244 292.524 247.408 293.712 244.816 293.712ZM245.896 289.608C248.812 289.608 250.324 287.448 250.324 284.064C250.324 280.536 249.172 278.16 246.04 278.16C243.34 278.16 241.972 280.536 241.972 283.956C241.972 287.52 243.376 289.608 245.896 289.608ZM273.018 293.712C266.898 293.712 263.442 289.428 263.442 283.92C263.442 278.448 267.15 274.2 272.55 274.2C278.49 274.2 281.658 278.736 281.658 285.324H268.266C268.626 288.168 270.21 289.932 272.982 289.932C274.89 289.932 276.006 289.068 276.546 287.664H281.37C280.686 290.94 277.77 293.712 273.018 293.712ZM272.622 277.98C270.03 277.98 268.77 279.528 268.338 281.94H276.546C276.402 279.6 274.854 277.98 272.622 277.98ZM288.712 274.704V277.224H288.82C290.08 275.244 291.772 274.2 294.292 274.2C298.108 274.2 300.664 277.08 300.664 281.112V293.172H295.768V281.832C295.768 279.852 294.616 278.448 292.564 278.448C290.404 278.448 288.82 280.176 288.82 282.696V293.172H283.924V274.704H288.712ZM308.578 267.432V277.116H308.686C310.018 275.172 311.53 274.2 314.05 274.2C317.866 274.2 320.422 277.08 320.422 281.112V293.172H315.526V281.832C315.526 279.852 314.374 278.448 312.322 278.448C310.162 278.448 308.578 280.176 308.578 282.696V293.172H303.682V267.432H308.578ZM335.067 293.172C334.779 292.812 334.599 291.948 334.491 291.12H334.419C333.483 292.524 332.151 293.604 328.983 293.604C325.203 293.604 322.539 291.624 322.539 287.952C322.539 283.884 325.851 282.588 329.955 282.012C333.015 281.58 334.419 281.328 334.419 279.924C334.419 278.592 333.375 277.728 331.323 277.728C329.019 277.728 327.903 278.556 327.759 280.32H323.403C323.547 277.08 325.959 274.236 331.359 274.236C336.903 274.236 339.135 276.72 339.135 281.04V290.436C339.135 291.84 339.351 292.668 339.783 292.992V293.172H335.067ZM330.171 290.184C332.979 290.184 334.527 288.456 334.527 286.656V283.884C333.663 284.388 332.331 284.676 331.107 284.964C328.551 285.54 327.291 286.116 327.291 287.844C327.291 289.572 328.443 290.184 330.171 290.184ZM347.036 274.704V277.224H347.144C348.404 275.244 350.096 274.2 352.616 274.2C356.432 274.2 358.988 277.08 358.988 281.112V293.172H354.092V281.832C354.092 279.852 352.94 278.448 350.888 278.448C348.728 278.448 347.144 280.176 347.144 282.696V293.172H342.248V274.704H347.036ZM370.574 293.712C364.742 293.712 361.106 289.464 361.106 283.956C361.106 278.448 364.706 274.2 370.322 274.2C375.11 274.2 378.062 276.972 378.71 280.968H373.922C373.598 279.348 372.338 278.124 370.538 278.124C367.586 278.124 366.074 280.392 366.074 283.956C366.074 287.448 367.478 289.788 370.466 289.788C372.446 289.788 373.85 288.744 374.174 286.656H378.89C378.566 290.58 375.506 293.712 370.574 293.712ZM389.701 293.712C383.581 293.712 380.125 289.428 380.125 283.92C380.125 278.448 383.833 274.2 389.233 274.2C395.173 274.2 398.341 278.736 398.341 285.324H384.949C385.309 288.168 386.893 289.932 389.665 289.932C391.573 289.932 392.689 289.068 393.229 287.664H398.053C397.369 290.94 394.453 293.712 389.701 293.712ZM389.305 277.98C386.713 277.98 385.453 279.528 385.021 281.94H393.229C393.085 279.6 391.537 277.98 389.305 277.98ZM60.8321 327.944V324.704H63.3881V318.944H68.1761V324.704H71.3441V327.944H68.1761V337.736C68.1761 339.104 68.9321 339.572 70.0121 339.572C70.6241 339.572 71.4521 339.536 71.4521 339.536V343.136C71.4521 343.136 70.3361 343.208 68.3921 343.208C66.0161 343.208 63.3881 342.272 63.3881 338.78V327.944H60.8321ZM78.7613 317.432V327.116H78.8693C80.2013 325.172 81.7133 324.2 84.2333 324.2C88.0493 324.2 90.6053 327.08 90.6053 331.112V343.172H85.7093V331.832C85.7093 329.852 84.5573 328.448 82.5053 328.448C80.3453 328.448 78.7613 330.176 78.7613 332.696V343.172H73.8653V317.432H78.7613ZM102.299 343.712C96.1791 343.712 92.7231 339.428 92.7231 333.92C92.7231 328.448 96.4311 324.2 101.831 324.2C107.771 324.2 110.939 328.736 110.939 335.324H97.5471C97.9071 338.168 99.4911 339.932 102.263 339.932C104.171 339.932 105.287 339.068 105.827 337.664H110.651C109.967 340.94 107.051 343.712 102.299 343.712ZM101.903 327.98C99.3111 327.98 98.0511 329.528 97.6191 331.94H105.827C105.683 329.6 104.135 327.98 101.903 327.98ZM127.928 343.712C121.808 343.712 118.352 339.428 118.352 333.92C118.352 328.448 122.06 324.2 127.46 324.2C133.4 324.2 136.568 328.736 136.568 335.324H123.176C123.536 338.168 125.12 339.932 127.892 339.932C129.8 339.932 130.916 339.068 131.456 337.664H136.28C135.596 340.94 132.68 343.712 127.928 343.712ZM127.532 327.98C124.94 327.98 123.68 329.528 123.248 331.94H131.456C131.312 329.6 129.764 327.98 127.532 327.98ZM136.448 343.172L143.18 333.38L137.168 324.704H142.748L146.024 329.996H146.096L149.192 324.704H154.268L148.544 333.344L155.132 343.172H149.3L145.88 337.052H145.808L141.812 343.172H136.448ZM157.01 349.22V324.704H161.726V327.008H161.834C163.022 325.388 164.75 324.2 167.27 324.2C172.166 324.2 175.298 328.196 175.298 333.956C175.298 339.932 172.058 343.712 167.306 343.712C164.714 343.712 163.022 342.668 161.978 341.084H161.906V349.22H157.01ZM166.262 339.644C168.746 339.644 170.33 337.592 170.33 334.1C170.33 330.608 169.106 328.16 166.082 328.16C163.022 328.16 161.798 330.788 161.798 334.1C161.798 337.448 163.346 339.644 166.262 339.644ZM186.252 343.712C180.132 343.712 176.676 339.428 176.676 333.92C176.676 328.448 180.384 324.2 185.784 324.2C191.724 324.2 194.892 328.736 194.892 335.324H181.5C181.86 338.168 183.444 339.932 186.216 339.932C188.124 339.932 189.24 339.068 189.78 337.664H194.604C193.92 340.94 191.004 343.712 186.252 343.712ZM185.856 327.98C183.264 327.98 182.004 329.528 181.572 331.94H189.78C189.636 329.6 188.088 327.98 185.856 327.98ZM201.874 324.704V327.656H201.982C203.098 325.568 204.358 324.488 206.518 324.488C207.058 324.488 207.382 324.524 207.67 324.632V328.916H207.562C204.358 328.592 202.054 330.284 202.054 334.172V343.172H197.158V324.704H201.874ZM209.779 343.172V324.704H214.675V343.172H209.779ZM209.779 321.824V317.432H214.675V321.824H209.779ZM226.506 343.712C220.386 343.712 216.93 339.428 216.93 333.92C216.93 328.448 220.638 324.2 226.038 324.2C231.978 324.2 235.146 328.736 235.146 335.324H221.754C222.114 338.168 223.698 339.932 226.47 339.932C228.378 339.932 229.494 339.068 230.034 337.664H234.858C234.174 340.94 231.258 343.712 226.506 343.712ZM226.11 327.98C223.518 327.98 222.258 329.528 221.826 331.94H230.034C229.89 329.6 228.342 327.98 226.11 327.98ZM242.2 324.704V327.224H242.308C243.568 325.244 245.26 324.2 247.78 324.2C251.596 324.2 254.152 327.08 254.152 331.112V343.172H249.256V331.832C249.256 329.852 248.104 328.448 246.052 328.448C243.892 328.448 242.308 330.176 242.308 332.696V343.172H237.412V324.704H242.2ZM265.738 343.712C259.906 343.712 256.27 339.464 256.27 333.956C256.27 328.448 259.87 324.2 265.486 324.2C270.274 324.2 273.226 326.972 273.874 330.968H269.086C268.762 329.348 267.502 328.124 265.702 328.124C262.75 328.124 261.238 330.392 261.238 333.956C261.238 337.448 262.642 339.788 265.63 339.788C267.61 339.788 269.014 338.744 269.338 336.656H274.054C273.73 340.58 270.67 343.712 265.738 343.712ZM284.865 343.712C278.745 343.712 275.289 339.428 275.289 333.92C275.289 328.448 278.997 324.2 284.397 324.2C290.337 324.2 293.505 328.736 293.505 335.324H280.113C280.473 338.168 282.057 339.932 284.829 339.932C286.737 339.932 287.853 339.068 288.393 337.664H293.217C292.533 340.94 289.617 343.712 284.865 343.712ZM284.469 327.98C281.877 327.98 280.617 329.528 280.185 331.94H288.393C288.249 329.6 286.701 327.98 284.469 327.98ZM295.308 343.172V337.952H300.564V343.172H295.308Z" fill="#F56311"/>
</svg>
