<svg width="178" height="53" viewBox="0 0 178 53" fill="none" xmlns="http://www.w3.org/2000/svg">
<path d="M177.605 0.710938L15.2644 0.731946L0.65625 52.9746L163.039 52.9719L177.605 0.710938Z" fill="white"/>
<path d="M32.9123 36.3438L39.7123 17.7437H42.5623L49.4123 36.3438H46.6123L44.7623 30.9187H37.4373L35.5373 36.3438H32.9123ZM39.9623 23.7188L38.1373 28.9187H44.0873L42.3123 23.7188C41.6873 21.9187 41.1873 19.7687 41.1873 19.7687H41.1123C41.1123 19.7687 40.5623 21.9937 39.9623 23.7188ZM51.4934 40.8938V22.9187H53.7934V25.0187H53.8684C54.8684 23.4938 56.2184 22.5937 58.1434 22.5937C61.5684 22.5937 63.9184 25.2437 63.9184 29.6687C63.9184 33.9687 61.6934 36.7438 58.0684 36.7438C56.2434 36.7438 54.7684 35.9937 53.8434 34.5687H53.7684C53.7934 35.0437 53.8184 35.7937 53.8184 36.8188V40.8938H51.4934ZM57.8184 34.8187C60.2934 34.8187 61.5434 32.6437 61.5434 29.7187C61.5434 26.7687 60.3184 24.5687 57.8434 24.5687C54.9934 24.5687 53.6934 26.8687 53.6934 29.7187C53.6934 32.5437 54.8434 34.8187 57.8184 34.8187ZM66.386 40.8938V22.9187H68.686V25.0187H68.761C69.761 23.4938 71.111 22.5937 73.036 22.5937C76.461 22.5937 78.811 25.2437 78.811 29.6687C78.811 33.9687 76.586 36.7438 72.961 36.7438C71.136 36.7438 69.661 35.9937 68.736 34.5687H68.661C68.686 35.0437 68.711 35.7937 68.711 36.8188V40.8938H66.386ZM72.711 34.8187C75.186 34.8187 76.436 32.6437 76.436 29.7187C76.436 26.7687 75.211 24.5687 72.736 24.5687C69.886 24.5687 68.586 26.8687 68.586 29.7187C68.586 32.5437 69.736 34.8187 72.711 34.8187ZM83.5785 22.9187V25.3437H83.6535C84.4785 23.7937 85.8535 22.7437 87.6285 22.7437C88.0035 22.7437 88.2285 22.7937 88.4785 22.8937V25.0937H88.4035C88.0785 24.9937 87.8535 24.9687 87.4535 24.9687C85.3785 24.9687 83.6035 26.5187 83.6035 29.0437V36.3438H81.2785V22.9187H83.5785ZM96.1129 36.7188C92.0629 36.7188 89.5379 33.5687 89.5379 29.6437C89.5379 25.7437 92.0629 22.5937 96.1129 22.5937C100.163 22.5937 102.638 25.7437 102.638 29.6437C102.638 33.5687 100.163 36.7188 96.1129 36.7188ZM96.0879 34.8187C98.8379 34.8187 100.263 32.5437 100.263 29.6437C100.263 26.7437 98.8379 24.4437 96.0879 24.4437C93.3379 24.4437 91.9129 26.7437 91.9129 29.6437C91.9129 32.5437 93.3379 34.8187 96.0879 34.8187ZM109.107 36.6188C106.557 36.6188 104.557 35.3687 104.557 32.7937C104.557 29.6687 106.857 28.9938 110.332 28.5687C112.307 28.3437 113.582 28.0187 113.582 26.6437C113.582 25.1937 112.557 24.2937 110.707 24.2937C108.582 24.2937 107.557 25.2937 107.482 26.8937H105.232C105.332 24.6187 107.057 22.5937 110.682 22.5937C111.957 22.5937 113.082 22.8187 113.932 23.3187C115.057 23.9937 115.732 25.1687 115.732 26.9687V33.2437C115.732 34.3187 115.982 34.8937 117.157 34.6437H117.257V36.2687C116.932 36.3688 116.557 36.4688 116.007 36.4688C114.582 36.4688 113.882 35.7937 113.632 34.3687H113.607C112.757 35.5437 111.382 36.6188 109.107 36.6188ZM109.682 34.9187C112.357 34.9187 113.607 32.9437 113.607 31.3937V29.1937C112.932 29.6187 111.757 29.9437 110.657 30.1437C108.457 30.5187 107.007 30.9187 107.007 32.7687C107.007 34.4937 108.332 34.9187 109.682 34.9187ZM124.97 36.7188C120.945 36.7188 118.42 33.5687 118.42 29.6437C118.42 25.7437 120.945 22.5937 124.97 22.5937C128.195 22.5937 130.295 24.4187 130.77 27.2937H128.445C128.12 25.5437 126.92 24.4687 124.97 24.4687C122.22 24.4687 120.795 26.7437 120.795 29.6437C120.795 32.5437 122.22 34.8187 124.97 34.8187C127.07 34.8187 128.32 33.5937 128.495 31.5937H130.795C130.495 34.7937 128.37 36.7188 124.97 36.7188ZM135.459 22.6187C135.459 23.2937 135.409 24.2187 135.384 24.8687H135.459C136.459 23.4437 137.809 22.5937 139.759 22.5937C142.559 22.5937 144.284 24.1687 144.284 26.9687V36.3438H141.984V27.2437C141.984 25.5187 140.859 24.5437 139.034 24.5437C136.959 24.5437 135.459 26.0187 135.459 28.1687V36.3438H133.134V17.7437H135.459V22.6187Z" fill="black"/>
</svg>
