<svg width="261" height="53" viewBox="0 0 261 53" fill="none" xmlns="http://www.w3.org/2000/svg">
<path d="M260.433 0.710938H15.0828L0.474609 52.9536L245.867 52.9719L260.433 0.710938Z" fill="white"/>
<path d="M30.8095 36.3438V17.7437H43.5345V19.9937H33.3595V25.5687H41.8345V27.7437H33.3595V36.3438H30.8095ZM45.9862 20.4437V17.7437H48.4112V20.4437H45.9862ZM46.0362 36.3438V22.9187H48.3612V36.3438H46.0362ZM53.8538 22.9187V24.8187H53.9288C54.9038 23.4687 56.2288 22.5937 58.1788 22.5937C60.9788 22.5937 62.7038 24.1687 62.7038 26.9687V36.3438H60.4038V27.2437C60.4038 25.5187 59.2788 24.5437 57.4538 24.5437C55.3788 24.5437 53.8788 26.0187 53.8788 28.1687V36.3438H51.5538V22.9187H53.8538ZM69.836 36.6188C67.286 36.6188 65.286 35.3687 65.286 32.7937C65.286 29.6687 67.586 28.9938 71.061 28.5687C73.036 28.3437 74.311 28.0187 74.311 26.6437C74.311 25.1937 73.286 24.2937 71.436 24.2937C69.311 24.2937 68.286 25.2937 68.211 26.8937H65.961C66.061 24.6187 67.786 22.5937 71.411 22.5937C72.686 22.5937 73.811 22.8187 74.661 23.3187C75.786 23.9937 76.461 25.1687 76.461 26.9687V33.2437C76.461 34.3187 76.711 34.8937 77.886 34.6437H77.986V36.2687C77.661 36.3688 77.286 36.4688 76.736 36.4688C75.311 36.4688 74.611 35.7937 74.361 34.3687H74.336C73.486 35.5437 72.111 36.6188 69.836 36.6188ZM70.411 34.9187C73.086 34.9187 74.336 32.9437 74.336 31.3937V29.1937C73.661 29.6187 72.486 29.9437 71.386 30.1437C69.186 30.5187 67.736 30.9187 67.736 32.7687C67.736 34.4937 69.061 34.9187 70.411 34.9187ZM79.9491 36.3438V17.7437H82.2741V36.3438H79.9491ZM92.5038 36.3438V17.7437H99.3788C104.929 17.7437 107.679 21.5437 107.679 27.1187C107.679 32.6688 104.779 36.3438 99.2038 36.3438H92.5038ZM95.0788 34.1187H99.1038C103.304 34.1187 105.029 31.3937 105.029 27.1187C105.029 22.8437 103.479 19.9687 99.2538 19.9687H95.0788V34.1187ZM116.314 36.7188C112.189 36.7188 109.764 33.5687 109.764 29.6437C109.764 25.7437 112.339 22.5937 116.189 22.5937C118.189 22.5937 119.739 23.3687 120.789 24.6687C121.889 25.9937 122.439 27.9187 122.439 30.1937H112.139C112.314 32.8187 113.739 34.8187 116.339 34.8187C118.189 34.8187 119.464 33.9437 119.889 32.5187H122.164C121.564 35.0187 119.414 36.7188 116.314 36.7188ZM116.189 24.3937C113.764 24.3937 112.489 26.1437 112.189 28.5187H119.964C119.839 25.9437 118.514 24.3937 116.189 24.3937ZM124.993 36.3438V17.7437H127.318V36.3438H124.993ZM130.532 20.4437V17.7437H132.957V20.4437H130.532ZM130.582 36.3438V22.9187H132.907V36.3438H130.582ZM139.3 36.3438L134.625 22.9187H137.1L139.45 30.1687C140.025 31.9687 140.675 34.4437 140.675 34.4437H140.725C140.725 34.4437 141.3 31.9687 141.9 30.1687L144.3 22.9187H146.7L141.875 36.3438H139.3ZM154.01 36.7188C149.885 36.7188 147.46 33.5687 147.46 29.6437C147.46 25.7437 150.035 22.5937 153.885 22.5937C155.885 22.5937 157.435 23.3687 158.485 24.6687C159.585 25.9937 160.135 27.9187 160.135 30.1937H149.835C150.01 32.8187 151.435 34.8187 154.035 34.8187C155.885 34.8187 157.16 33.9437 157.585 32.5187H159.86C159.26 35.0187 157.11 36.7188 154.01 36.7188ZM153.885 24.3937C151.46 24.3937 150.185 26.1437 149.885 28.5187H157.66C157.535 25.9437 156.21 24.3937 153.885 24.3937ZM164.913 22.9187V25.3437H164.988C165.813 23.7937 167.188 22.7437 168.963 22.7437C169.338 22.7437 169.563 22.7937 169.813 22.8937V25.0937H169.738C169.413 24.9937 169.188 24.9687 168.788 24.9687C166.713 24.9687 164.938 26.5187 164.938 29.0437V36.3438H162.613V22.9187H164.913ZM175.598 36.6188C173.048 36.6188 171.048 35.3687 171.048 32.7937C171.048 29.6687 173.348 28.9938 176.823 28.5687C178.798 28.3437 180.073 28.0187 180.073 26.6437C180.073 25.1937 179.048 24.2937 177.198 24.2937C175.073 24.2937 174.048 25.2937 173.973 26.8937H171.723C171.823 24.6187 173.548 22.5937 177.173 22.5937C178.448 22.5937 179.573 22.8187 180.423 23.3187C181.548 23.9937 182.223 25.1687 182.223 26.9687V33.2437C182.223 34.3187 182.473 34.8937 183.648 34.6437H183.748V36.2687C183.423 36.3688 183.048 36.4688 182.498 36.4688C181.073 36.4688 180.373 35.7937 180.123 34.3687H180.098C179.248 35.5437 177.873 36.6188 175.598 36.6188ZM176.173 34.9187C178.848 34.9187 180.098 32.9437 180.098 31.3937V29.1937C179.423 29.6187 178.248 29.9437 177.148 30.1437C174.948 30.5187 173.498 30.9187 173.498 32.7687C173.498 34.4937 174.823 34.9187 176.173 34.9187ZM192.211 36.7438C190.411 36.7438 188.886 35.9437 188.011 34.4437H187.936V36.3438H185.636V17.7437H187.961V22.4937C187.961 23.5187 187.911 24.4687 187.886 25.0437H187.961C188.836 23.6187 190.336 22.5937 192.286 22.5937C195.686 22.5937 198.011 25.2437 198.011 29.6687C198.011 33.9937 195.836 36.7438 192.211 36.7438ZM191.961 34.8187C194.436 34.8187 195.636 32.6437 195.636 29.6937C195.636 26.7437 194.436 24.5437 191.986 24.5437C189.136 24.5437 187.836 26.8437 187.836 29.6937C187.836 32.6187 189.211 34.8187 191.961 34.8187ZM200.555 36.3438V17.7437H202.88V36.3438H200.555ZM211.969 36.7188C207.844 36.7188 205.419 33.5687 205.419 29.6437C205.419 25.7437 207.994 22.5937 211.844 22.5937C213.844 22.5937 215.394 23.3687 216.444 24.6687C217.544 25.9937 218.094 27.9187 218.094 30.1937H207.794C207.969 32.8187 209.394 34.8187 211.994 34.8187C213.844 34.8187 215.119 33.9437 215.544 32.5187H217.819C217.219 35.0187 215.069 36.7188 211.969 36.7188ZM211.844 24.3937C209.419 24.3937 208.144 26.1437 207.844 28.5187H215.619C215.494 25.9437 214.169 24.3937 211.844 24.3937ZM225.722 36.7438C222.022 36.7438 219.922 34.9937 219.722 32.2687H222.072C222.347 34.2187 223.847 34.8687 225.772 34.8687C227.897 34.8687 228.797 33.9437 228.797 32.7437C228.797 31.2687 227.672 30.8937 225.297 30.4187C222.672 29.8687 220.297 29.3187 220.297 26.3687C220.297 24.0687 222.097 22.6187 225.222 22.6187C228.597 22.6187 230.272 24.1937 230.572 26.5187H228.247C228.047 25.1437 227.097 24.3687 225.172 24.3687C223.347 24.3687 222.572 25.2187 222.572 26.2437C222.572 27.6437 223.872 27.9187 226.147 28.3687C228.822 28.8937 231.122 29.4937 231.122 32.6187C231.122 35.3437 228.872 36.7438 225.722 36.7438Z" fill="black"/>
</svg>
