<svg width="247" height="53" viewBox="0 0 247 53" fill="none" xmlns="http://www.w3.org/2000/svg">
<path d="M246.267 0.710938L15.1551 0.713288L0.546875 52.956L231.701 52.9719L246.267 0.710938Z" fill="white"/>
<path d="M40.0637 36.6188C35.8887 36.6188 32.8887 34.7687 32.8887 30.2937V17.7437H35.4387V30.0687C35.4387 33.1187 37.1387 34.4437 40.1137 34.4437C42.9887 34.4437 44.6887 33.1187 44.6887 30.0687V17.7437H47.2387V30.2937C47.2387 34.7687 44.1387 36.6188 40.0637 36.6188ZM55.6162 36.7438C51.9162 36.7438 49.8162 34.9937 49.6162 32.2687H51.9662C52.2412 34.2187 53.7412 34.8687 55.6662 34.8687C57.7912 34.8687 58.6912 33.9437 58.6912 32.7437C58.6912 31.2687 57.5662 30.8937 55.1912 30.4187C52.5662 29.8687 50.1912 29.3187 50.1912 26.3687C50.1912 24.0687 51.9912 22.6187 55.1162 22.6187C58.4912 22.6187 60.1662 24.1937 60.4662 26.5187H58.1412C57.9412 25.1437 56.9912 24.3687 55.0662 24.3687C53.2412 24.3687 52.4662 25.2187 52.4662 26.2437C52.4662 27.6437 53.7662 27.9187 56.0412 28.3687C58.7162 28.8937 61.0162 29.4937 61.0162 32.6187C61.0162 35.3437 58.7662 36.7438 55.6162 36.7438ZM69.5969 36.7188C65.4719 36.7188 63.0469 33.5687 63.0469 29.6437C63.0469 25.7437 65.6219 22.5937 69.4719 22.5937C71.4719 22.5937 73.0219 23.3687 74.0719 24.6687C75.1719 25.9937 75.7219 27.9187 75.7219 30.1937H65.4219C65.5969 32.8187 67.0219 34.8187 69.6219 34.8187C71.4719 34.8187 72.7469 33.9437 73.1719 32.5187H75.4469C74.8469 35.0187 72.6969 36.7188 69.5969 36.7188ZM69.4719 24.3937C67.0469 24.3937 65.7719 26.1437 65.4719 28.5187H73.2469C73.1219 25.9437 71.7969 24.3937 69.4719 24.3937ZM80.5006 22.9187V25.3437H80.5756C81.4006 23.7937 82.7756 22.7437 84.5506 22.7437C84.9256 22.7437 85.1506 22.7937 85.4006 22.8937V25.0937H85.3256C85.0006 24.9937 84.7756 24.9687 84.3756 24.9687C82.3006 24.9687 80.5256 26.5187 80.5256 29.0437V36.3438H78.2006V22.9187H80.5006ZM94.6889 36.3438V17.7437H97.2389V36.3438H94.6889ZM103.108 22.9187V24.8187H103.183C104.158 23.4687 105.483 22.5937 107.433 22.5937C110.233 22.5937 111.958 24.1687 111.958 26.9687V36.3438H109.658V27.2437C109.658 25.5187 108.533 24.5437 106.708 24.5437C104.633 24.5437 103.133 26.0187 103.133 28.1687V36.3438H100.808V22.9187H103.108ZM114.021 24.7187V22.9187H116.121V18.6937H118.421V22.9187H121.196V24.7187H118.421V33.1937C118.421 34.1687 118.946 34.4437 119.796 34.4437C120.196 34.4437 120.721 34.3437 120.971 34.2687H121.046V36.2187C120.421 36.3688 119.771 36.4438 119.171 36.4438C117.371 36.4188 116.121 35.6937 116.121 33.7187V24.7187H114.021ZM129.314 36.7188C125.189 36.7188 122.764 33.5687 122.764 29.6437C122.764 25.7437 125.339 22.5937 129.189 22.5937C131.189 22.5937 132.739 23.3687 133.789 24.6687C134.889 25.9937 135.439 27.9187 135.439 30.1937H125.139C125.314 32.8187 126.739 34.8187 129.339 34.8187C131.189 34.8187 132.464 33.9437 132.889 32.5187H135.164C134.564 35.0187 132.414 36.7188 129.314 36.7188ZM129.189 24.3937C126.764 24.3937 125.489 26.1437 125.189 28.5187H132.964C132.839 25.9437 131.514 24.3937 129.189 24.3937ZM140.217 22.9187V25.3437H140.292C141.117 23.7937 142.492 22.7437 144.267 22.7437C144.642 22.7437 144.867 22.7937 145.117 22.8937V25.0937H145.042C144.717 24.9937 144.492 24.9687 144.092 24.9687C142.017 24.9687 140.242 26.5187 140.242 29.0437V36.3438H137.917V22.9187H140.217ZM150.59 36.3438L145.915 22.9187H148.39L150.74 30.1687C151.315 31.9687 151.965 34.4437 151.965 34.4437H152.015C152.015 34.4437 152.59 31.9687 153.19 30.1687L155.59 22.9187H157.99L153.165 36.3438H150.59ZM159.669 20.4437V17.7437H162.094V20.4437H159.669ZM159.719 36.3438V22.9187H162.044V36.3438H159.719ZM171.062 36.7188C166.937 36.7188 164.512 33.5687 164.512 29.6437C164.512 25.7437 167.087 22.5937 170.937 22.5937C172.937 22.5937 174.487 23.3687 175.537 24.6687C176.637 25.9937 177.187 27.9187 177.187 30.1937H166.887C167.062 32.8187 168.487 34.8187 171.087 34.8187C172.937 34.8187 174.212 33.9437 174.637 32.5187H176.912C176.312 35.0187 174.162 36.7188 171.062 36.7188ZM170.937 24.3937C168.512 24.3937 167.237 26.1437 166.937 28.5187H174.712C174.587 25.9437 173.262 24.3937 170.937 24.3937ZM182.321 36.3438L178.071 22.9187H180.546L182.646 30.3687C183.071 31.8937 183.521 34.2937 183.521 34.2937H183.571C183.571 34.2937 184.021 32.0437 184.471 30.4187L186.496 22.9187H188.696L190.696 30.4187C191.071 31.8437 191.546 34.3187 191.546 34.3187H191.596C191.596 34.3187 191.971 32.0187 192.471 30.3687L194.696 22.9187H197.096L192.721 36.3438H190.396L188.421 28.9437C188.096 27.6437 187.571 25.1937 187.571 25.1937H187.521C187.521 25.1937 187.021 27.6687 186.696 28.9437L184.671 36.3438H182.321ZM203.98 36.7438C200.28 36.7438 198.18 34.9937 197.98 32.2687H200.33C200.605 34.2187 202.105 34.8687 204.03 34.8687C206.155 34.8687 207.055 33.9437 207.055 32.7437C207.055 31.2687 205.93 30.8937 203.555 30.4187C200.93 29.8687 198.555 29.3187 198.555 26.3687C198.555 24.0687 200.355 22.6187 203.48 22.6187C206.855 22.6187 208.53 24.1937 208.83 26.5187H206.505C206.305 25.1437 205.355 24.3687 203.43 24.3687C201.605 24.3687 200.83 25.2187 200.83 26.2437C200.83 27.6437 202.13 27.9187 204.405 28.3687C207.08 28.8937 209.38 29.4937 209.38 32.6187C209.38 35.3437 207.13 36.7438 203.98 36.7438Z" fill="black"/>
</svg>
