<svg width="175" height="53" viewBox="0 0 175 53" fill="none" xmlns="http://www.w3.org/2000/svg">
<path d="M174.345 0.710938L15.0965 0.731946L0.488281 52.9746L159.779 52.9719L174.345 0.710938Z" fill="white"/>
<path d="M43.6395 36.7438C38.0145 36.7438 34.5395 32.5937 34.5395 27.0437C34.5395 21.4687 38.0145 17.3437 43.6395 17.3437C49.2395 17.3437 52.7645 21.4687 52.7645 27.0437C52.7645 32.5937 49.2395 36.7438 43.6395 36.7438ZM43.6395 34.4937C47.8645 34.4937 50.1145 31.2937 50.1145 27.0437C50.1145 22.7687 47.8645 19.5437 43.6395 19.5437C39.4145 19.5437 37.1395 22.7687 37.1395 27.0437C37.1395 31.2937 39.4145 34.4937 43.6395 34.4937ZM58.7688 36.3438L54.0938 22.9187H56.5688L58.9188 30.1687C59.4938 31.9687 60.1438 34.4437 60.1438 34.4437H60.1938C60.1938 34.4437 60.7688 31.9687 61.3688 30.1687L63.7688 22.9187H66.1688L61.3438 36.3438H58.7688ZM73.4787 36.7188C69.3537 36.7188 66.9287 33.5687 66.9287 29.6437C66.9287 25.7437 69.5037 22.5937 73.3537 22.5937C75.3537 22.5937 76.9037 23.3687 77.9537 24.6687C79.0537 25.9937 79.6037 27.9187 79.6037 30.1937H69.3037C69.4787 32.8187 70.9037 34.8187 73.5037 34.8187C75.3537 34.8187 76.6287 33.9437 77.0537 32.5187H79.3287C78.7287 35.0187 76.5787 36.7188 73.4787 36.7188ZM73.3537 24.3937C70.9287 24.3937 69.6537 26.1437 69.3537 28.5187H77.1287C77.0037 25.9437 75.6787 24.3937 73.3537 24.3937ZM84.3824 22.9187V25.3437H84.4574C85.2824 23.7937 86.6574 22.7437 88.4324 22.7437C88.8074 22.7437 89.0324 22.7937 89.2824 22.8937V25.0937H89.2074C88.8824 24.9937 88.6574 24.9687 88.2574 24.9687C86.1824 24.9687 84.4074 26.5187 84.4074 29.0437V36.3438H82.0824V22.9187H84.3824ZM94.7551 36.3438L90.0801 22.9187H92.5551L94.9051 30.1687C95.4801 31.9687 96.1301 34.4437 96.1301 34.4437H96.1801C96.1801 34.4437 96.7551 31.9687 97.3551 30.1687L99.7551 22.9187H102.155L97.3301 36.3438H94.7551ZM103.834 20.4437V17.7437H106.259V20.4437H103.834ZM103.884 36.3438V22.9187H106.209V36.3438H103.884ZM115.227 36.7188C111.102 36.7188 108.677 33.5687 108.677 29.6437C108.677 25.7437 111.252 22.5937 115.102 22.5937C117.102 22.5937 118.652 23.3687 119.702 24.6687C120.802 25.9937 121.352 27.9187 121.352 30.1937H111.052C111.227 32.8187 112.652 34.8187 115.252 34.8187C117.102 34.8187 118.377 33.9437 118.802 32.5187H121.077C120.477 35.0187 118.327 36.7188 115.227 36.7188ZM115.102 24.3937C112.677 24.3937 111.402 26.1437 111.102 28.5187H118.877C118.752 25.9437 117.427 24.3937 115.102 24.3937ZM126.486 36.3438L122.236 22.9187H124.711L126.811 30.3687C127.236 31.8937 127.686 34.2937 127.686 34.2937H127.736C127.736 34.2937 128.186 32.0437 128.636 30.4187L130.661 22.9187H132.861L134.861 30.4187C135.236 31.8437 135.711 34.3187 135.711 34.3187H135.761C135.761 34.3187 136.136 32.0187 136.636 30.3687L138.861 22.9187H141.261L136.886 36.3438H134.561L132.586 28.9437C132.261 27.6437 131.736 25.1937 131.736 25.1937H131.686C131.686 25.1937 131.186 27.6687 130.861 28.9437L128.836 36.3438H126.486Z" fill="black"/>
</svg>
