<svg width="180" height="53" viewBox="0 0 180 53" fill="none" xmlns="http://www.w3.org/2000/svg">
<path d="M179.232 0.710938L14.6062 0.711337L-0.00195312 52.954L164.666 52.9719L179.232 0.710938Z" fill="white"/>
<path d="M32.6438 36.3438V17.7437H40.4688C42.4438 17.7437 43.9688 18.3937 44.9188 19.5437C45.7438 20.5187 46.2438 21.7187 46.2438 23.1937C46.2438 26.6187 44.2438 28.6937 40.2188 28.6937H35.2188V36.3438H32.6438ZM35.2188 19.9687V26.6187H39.9688C42.4938 26.6187 43.6938 25.3437 43.6938 23.2687C43.6938 21.0937 42.3688 19.9687 40.0688 19.9687H35.2188ZM53.9641 36.7188C49.8391 36.7188 47.4141 33.5687 47.4141 29.6437C47.4141 25.7437 49.9891 22.5937 53.8391 22.5937C55.8391 22.5937 57.3891 23.3687 58.4391 24.6687C59.5391 25.9937 60.0891 27.9187 60.0891 30.1937H49.7891C49.9641 32.8187 51.3891 34.8187 53.9891 34.8187C55.8391 34.8187 57.1141 33.9437 57.5391 32.5187H59.8141C59.2141 35.0187 57.0641 36.7188 53.9641 36.7188ZM53.8391 24.3937C51.4141 24.3937 50.1391 26.1437 49.8391 28.5187H57.6141C57.4891 25.9437 56.1641 24.3937 53.8391 24.3937ZM64.8678 22.9187V25.3437H64.9428C65.7678 23.7937 67.1428 22.7437 68.9178 22.7437C69.2928 22.7437 69.5178 22.7937 69.7678 22.8937V25.0937H69.6928C69.3678 24.9937 69.1428 24.9687 68.7428 24.9687C66.6678 24.9687 64.8928 26.5187 64.8928 29.0437V36.3438H62.5678V22.9187H64.8678ZM77.1904 36.7438C73.4904 36.7438 71.3904 34.9937 71.1904 32.2687H73.5404C73.8154 34.2187 75.3154 34.8687 77.2404 34.8687C79.3654 34.8687 80.2654 33.9437 80.2654 32.7437C80.2654 31.2687 79.1404 30.8937 76.7654 30.4187C74.1404 29.8687 71.7654 29.3187 71.7654 26.3687C71.7654 24.0687 73.5654 22.6187 76.6904 22.6187C80.0654 22.6187 81.7404 24.1937 82.0404 26.5187H79.7154C79.5154 25.1437 78.5654 24.3687 76.6404 24.3687C74.8154 24.3687 74.0404 25.2187 74.0404 26.2437C74.0404 27.6437 75.3404 27.9187 77.6154 28.3687C80.2904 28.8937 82.5904 29.4937 82.5904 32.6187C82.5904 35.3437 80.3404 36.7438 77.1904 36.7438ZM91.1961 36.7188C87.1461 36.7188 84.6211 33.5687 84.6211 29.6437C84.6211 25.7437 87.1461 22.5937 91.1961 22.5937C95.2461 22.5937 97.7211 25.7437 97.7211 29.6437C97.7211 33.5687 95.2461 36.7188 91.1961 36.7188ZM91.1711 34.8187C93.9211 34.8187 95.3461 32.5437 95.3461 29.6437C95.3461 26.7437 93.9211 24.4437 91.1711 24.4437C88.4211 24.4437 86.9961 26.7437 86.9961 29.6437C86.9961 32.5437 88.4211 34.8187 91.1711 34.8187ZM102.49 22.9187V24.8187H102.565C103.54 23.4687 104.865 22.5937 106.815 22.5937C109.615 22.5937 111.34 24.1687 111.34 26.9687V36.3438H109.04V27.2437C109.04 25.5187 107.915 24.5437 106.09 24.5437C104.015 24.5437 102.515 26.0187 102.515 28.1687V36.3438H100.19V22.9187H102.49ZM118.472 36.6188C115.922 36.6188 113.922 35.3687 113.922 32.7937C113.922 29.6687 116.222 28.9938 119.697 28.5687C121.672 28.3437 122.947 28.0187 122.947 26.6437C122.947 25.1937 121.922 24.2937 120.072 24.2937C117.947 24.2937 116.922 25.2937 116.847 26.8937H114.597C114.697 24.6187 116.422 22.5937 120.047 22.5937C121.322 22.5937 122.447 22.8187 123.297 23.3187C124.422 23.9937 125.097 25.1687 125.097 26.9687V33.2437C125.097 34.3187 125.347 34.8937 126.522 34.6437H126.622V36.2687C126.297 36.3688 125.922 36.4688 125.372 36.4688C123.947 36.4688 123.247 35.7937 122.997 34.3687H122.972C122.122 35.5437 120.747 36.6188 118.472 36.6188ZM119.047 34.9187C121.722 34.9187 122.972 32.9437 122.972 31.3937V29.1937C122.297 29.6187 121.122 29.9437 120.022 30.1437C117.822 30.5187 116.372 30.9187 116.372 32.7687C116.372 34.4937 117.697 34.9187 119.047 34.9187ZM133.66 36.7438C129.96 36.7438 127.86 34.9937 127.66 32.2687H130.01C130.285 34.2187 131.785 34.8687 133.71 34.8687C135.835 34.8687 136.735 33.9437 136.735 32.7437C136.735 31.2687 135.61 30.8937 133.235 30.4187C130.61 29.8687 128.235 29.3187 128.235 26.3687C128.235 24.0687 130.035 22.6187 133.16 22.6187C136.535 22.6187 138.21 24.1937 138.51 26.5187H136.185C135.985 25.1437 135.035 24.3687 133.11 24.3687C131.285 24.3687 130.51 25.2187 130.51 26.2437C130.51 27.6437 131.81 27.9187 134.085 28.3687C136.76 28.8937 139.06 29.4937 139.06 32.6187C139.06 35.3437 136.81 36.7438 133.66 36.7438Z" fill="black"/>
</svg>
