<svg width="167" height="53" viewBox="0 0 167 53" fill="none" xmlns="http://www.w3.org/2000/svg">
<path d="M166.166 0.710938L15.1863 0.713288L0.578125 52.956L151.6 52.9719L166.166 0.710938Z" fill="white"/>
<path d="M33.2199 36.3438V17.7437H41.0449C43.0199 17.7437 44.5449 18.3937 45.4949 19.5437C46.3199 20.5187 46.8199 21.7187 46.8199 23.1937C46.8199 26.6187 44.8199 28.6937 40.7949 28.6937H35.7949V36.3438H33.2199ZM35.7949 19.9687V26.6187H40.5449C43.0699 26.6187 44.2699 25.3437 44.2699 23.2687C44.2699 21.0937 42.9449 19.9687 40.6449 19.9687H35.7949ZM51.3814 22.9187V25.3437H51.4564C52.2814 23.7937 53.6564 22.7437 55.4314 22.7437C55.8064 22.7437 56.0314 22.7937 56.2814 22.8937V25.0937H56.2064C55.8814 24.9937 55.6564 24.9687 55.2564 24.9687C53.1814 24.9687 51.4064 26.5187 51.4064 29.0437V36.3438H49.0814V22.9187H51.3814ZM63.9158 36.7188C59.8658 36.7188 57.3408 33.5687 57.3408 29.6437C57.3408 25.7437 59.8658 22.5937 63.9158 22.5937C67.9658 22.5937 70.4408 25.7437 70.4408 29.6437C70.4408 33.5687 67.9658 36.7188 63.9158 36.7188ZM63.8908 34.8187C66.6408 34.8187 68.0658 32.5437 68.0658 29.6437C68.0658 26.7437 66.6408 24.4437 63.8908 24.4437C61.1408 24.4437 59.7158 26.7437 59.7158 29.6437C59.7158 32.5437 61.1408 34.8187 63.8908 34.8187ZM78.7346 36.7188C74.7096 36.7188 72.1846 33.5687 72.1846 29.6437C72.1846 25.7437 74.7096 22.5937 78.7346 22.5937C81.9596 22.5937 84.0596 24.4187 84.5346 27.2937H82.2096C81.8846 25.5437 80.6846 24.4687 78.7346 24.4687C75.9846 24.4687 74.5596 26.7437 74.5596 29.6437C74.5596 32.5437 75.9846 34.8187 78.7346 34.8187C80.8346 34.8187 82.0846 33.5937 82.2596 31.5937H84.5596C84.2596 34.7937 82.1346 36.7188 78.7346 36.7188ZM92.7238 36.7188C88.5988 36.7188 86.1738 33.5687 86.1738 29.6437C86.1738 25.7437 88.7488 22.5937 92.5988 22.5937C94.5988 22.5937 96.1488 23.3687 97.1988 24.6687C98.2988 25.9937 98.8488 27.9187 98.8488 30.1937H88.5488C88.7238 32.8187 90.1488 34.8187 92.7488 34.8187C94.5988 34.8187 95.8738 33.9437 96.2988 32.5187H98.5738C97.9738 35.0187 95.8238 36.7188 92.7238 36.7188ZM92.5988 24.3937C90.1738 24.3937 88.8988 26.1437 88.5988 28.5187H96.3738C96.2488 25.9437 94.9238 24.3937 92.5988 24.3937ZM106.478 36.7438C102.778 36.7438 100.678 34.9937 100.478 32.2687H102.828C103.103 34.2187 104.603 34.8687 106.528 34.8687C108.653 34.8687 109.553 33.9437 109.553 32.7437C109.553 31.2687 108.428 30.8937 106.053 30.4187C103.428 29.8687 101.053 29.3187 101.053 26.3687C101.053 24.0687 102.853 22.6187 105.978 22.6187C109.353 22.6187 111.028 24.1937 111.328 26.5187H109.003C108.803 25.1437 107.853 24.3687 105.928 24.3687C104.103 24.3687 103.328 25.2187 103.328 26.2437C103.328 27.6437 104.628 27.9187 106.903 28.3687C109.578 28.8937 111.878 29.4937 111.878 32.6187C111.878 35.3437 109.628 36.7438 106.478 36.7438ZM119.539 36.7438C115.839 36.7438 113.739 34.9937 113.539 32.2687H115.889C116.164 34.2187 117.664 34.8687 119.589 34.8687C121.714 34.8687 122.614 33.9437 122.614 32.7437C122.614 31.2687 121.489 30.8937 119.114 30.4187C116.489 29.8687 114.114 29.3187 114.114 26.3687C114.114 24.0687 115.914 22.6187 119.039 22.6187C122.414 22.6187 124.089 24.1937 124.389 26.5187H122.064C121.864 25.1437 120.914 24.3687 118.989 24.3687C117.164 24.3687 116.389 25.2187 116.389 26.2437C116.389 27.6437 117.689 27.9187 119.964 28.3687C122.639 28.8937 124.939 29.4937 124.939 32.6187C124.939 35.3437 122.689 36.7438 119.539 36.7438Z" fill="black"/>
</svg>
