<svg width="244" height="53" viewBox="0 0 244 53" fill="none" xmlns="http://www.w3.org/2000/svg">
<path d="M243.687 0.710938L15.5222 0.727942L0.914062 52.9706L229.121 52.9719L243.687 0.710938Z" fill="white"/>
<path d="M35.396 36.3438V17.7437H37.946V36.3438H35.396ZM43.8152 22.9187V24.8187H43.8902C44.8652 23.4687 46.1902 22.5937 48.1402 22.5937C50.9402 22.5937 52.6652 24.1687 52.6652 26.9687V36.3438H50.3652V27.2437C50.3652 25.5187 49.2402 24.5437 47.4152 24.5437C45.3402 24.5437 43.8402 26.0187 43.8402 28.1687V36.3438H41.5152V22.9187H43.8152ZM55.7474 20.4437V17.7437H58.1724V20.4437H55.7474ZM55.7974 36.3438V22.9187H58.1224V36.3438H55.7974ZM60.49 24.7187V22.9187H62.59V18.6937H64.89V22.9187H67.665V24.7187H64.89V33.1937C64.89 34.1687 65.415 34.4437 66.265 34.4437C66.665 34.4437 67.19 34.3437 67.44 34.2687H67.515V36.2187C66.89 36.3688 66.24 36.4438 65.64 36.4438C63.84 36.4188 62.59 35.6937 62.59 33.7187V24.7187H60.49ZM70.0296 20.4437V17.7437H72.4546V20.4437H70.0296ZM70.0796 36.3438V22.9187H72.4046V36.3438H70.0796ZM79.5972 36.6188C77.0472 36.6188 75.0472 35.3687 75.0472 32.7937C75.0472 29.6687 77.3472 28.9938 80.8222 28.5687C82.7972 28.3437 84.0722 28.0187 84.0722 26.6437C84.0722 25.1937 83.0472 24.2937 81.1972 24.2937C79.0722 24.2937 78.0472 25.2937 77.9722 26.8937H75.7222C75.8222 24.6187 77.5472 22.5937 81.1722 22.5937C82.4472 22.5937 83.5722 22.8187 84.4222 23.3187C85.5472 23.9937 86.2222 25.1687 86.2222 26.9687V33.2437C86.2222 34.3187 86.4722 34.8937 87.6472 34.6437H87.7472V36.2687C87.4222 36.3688 87.0472 36.4688 86.4972 36.4688C85.0722 36.4688 84.3722 35.7937 84.1222 34.3687H84.0972C83.2472 35.5437 81.8722 36.6188 79.5972 36.6188ZM80.1722 34.9187C82.8472 34.9187 84.0972 32.9437 84.0972 31.3937V29.1937C83.4222 29.6187 82.2472 29.9437 81.1472 30.1437C78.9472 30.5187 77.4972 30.9187 77.4972 32.7687C77.4972 34.4937 78.8222 34.9187 80.1722 34.9187ZM89.7103 36.3438V17.7437H92.0353V36.3438H89.7103ZM102.265 36.3438V17.7437H110.965C114.29 17.7437 116.54 19.7937 116.54 22.8687C116.54 25.1437 115.615 26.7437 113.14 27.5187V27.5937C115.24 28.2187 115.84 29.4687 116.015 32.1437C116.24 35.0687 116.49 35.9687 116.865 36.2187V36.3438H114.14C113.715 35.9937 113.665 35.1437 113.465 32.1687C113.29 29.5437 112.19 28.5937 109.765 28.5937H104.815V36.3438H102.265ZM104.815 19.9437V26.5437H110.14C112.665 26.5437 113.915 25.2687 113.915 23.2437C113.915 21.0687 112.89 19.9437 110.265 19.9437H104.815ZM125.148 36.7188C121.023 36.7188 118.598 33.5687 118.598 29.6437C118.598 25.7437 121.173 22.5937 125.023 22.5937C127.023 22.5937 128.573 23.3687 129.623 24.6687C130.723 25.9937 131.273 27.9187 131.273 30.1937H120.973C121.148 32.8187 122.573 34.8187 125.173 34.8187C127.023 34.8187 128.298 33.9437 128.723 32.5187H130.998C130.398 35.0187 128.248 36.7188 125.148 36.7188ZM125.023 24.3937C122.598 24.3937 121.323 26.1437 121.023 28.5187H128.798C128.673 25.9437 127.348 24.3937 125.023 24.3937ZM138.902 36.7438C135.202 36.7438 133.102 34.9937 132.902 32.2687H135.252C135.527 34.2187 137.027 34.8687 138.952 34.8687C141.077 34.8687 141.977 33.9437 141.977 32.7437C141.977 31.2687 140.852 30.8937 138.477 30.4187C135.852 29.8687 133.477 29.3187 133.477 26.3687C133.477 24.0687 135.277 22.6187 138.402 22.6187C141.777 22.6187 143.452 24.1937 143.752 26.5187H141.427C141.227 25.1437 140.277 24.3687 138.352 24.3687C136.527 24.3687 135.752 25.2187 135.752 26.2437C135.752 27.6437 137.052 27.9187 139.327 28.3687C142.002 28.8937 144.302 29.4937 144.302 32.6187C144.302 35.3437 142.052 36.7438 138.902 36.7438ZM152.882 36.7188C148.757 36.7188 146.332 33.5687 146.332 29.6437C146.332 25.7437 148.907 22.5937 152.757 22.5937C154.757 22.5937 156.307 23.3687 157.357 24.6687C158.457 25.9937 159.007 27.9187 159.007 30.1937H148.707C148.882 32.8187 150.307 34.8187 152.907 34.8187C154.757 34.8187 156.032 33.9437 156.457 32.5187H158.732C158.132 35.0187 155.982 36.7188 152.882 36.7188ZM152.757 24.3937C150.332 24.3937 149.057 26.1437 148.757 28.5187H156.532C156.407 25.9437 155.082 24.3937 152.757 24.3937ZM165.486 36.6188C162.936 36.6188 160.936 35.3687 160.936 32.7937C160.936 29.6687 163.236 28.9938 166.711 28.5687C168.686 28.3437 169.961 28.0187 169.961 26.6437C169.961 25.1937 168.936 24.2937 167.086 24.2937C164.961 24.2937 163.936 25.2937 163.861 26.8937H161.611C161.711 24.6187 163.436 22.5937 167.061 22.5937C168.336 22.5937 169.461 22.8187 170.311 23.3187C171.436 23.9937 172.111 25.1687 172.111 26.9687V33.2437C172.111 34.3187 172.361 34.8937 173.536 34.6437H173.636V36.2687C173.311 36.3688 172.936 36.4688 172.386 36.4688C170.961 36.4688 170.261 35.7937 170.011 34.3687H169.986C169.136 35.5437 167.761 36.6188 165.486 36.6188ZM166.061 34.9187C168.736 34.9187 169.986 32.9437 169.986 31.3937V29.1937C169.311 29.6187 168.136 29.9437 167.036 30.1437C164.836 30.5187 163.386 30.9187 163.386 32.7687C163.386 34.4937 164.711 34.9187 166.061 34.9187ZM177.824 22.9187V25.3437H177.899C178.724 23.7937 180.099 22.7437 181.874 22.7437C182.249 22.7437 182.474 22.7937 182.724 22.8937V25.0937H182.649C182.324 24.9937 182.099 24.9687 181.699 24.9687C179.624 24.9687 177.849 26.5187 177.849 29.0437V36.3438H175.524V22.9187H177.824ZM190.333 36.7188C186.308 36.7188 183.783 33.5687 183.783 29.6437C183.783 25.7437 186.308 22.5937 190.333 22.5937C193.558 22.5937 195.658 24.4187 196.133 27.2937H193.808C193.483 25.5437 192.283 24.4687 190.333 24.4687C187.583 24.4687 186.158 26.7437 186.158 29.6437C186.158 32.5437 187.583 34.8187 190.333 34.8187C192.433 34.8187 193.683 33.5937 193.858 31.5937H196.158C195.858 34.7937 193.733 36.7188 190.333 36.7188ZM200.823 22.6187C200.823 23.2937 200.773 24.2187 200.748 24.8687H200.823C201.823 23.4437 203.173 22.5937 205.123 22.5937C207.923 22.5937 209.648 24.1687 209.648 26.9687V36.3438H207.348V27.2437C207.348 25.5187 206.223 24.5437 204.398 24.5437C202.323 24.5437 200.823 26.0187 200.823 28.1687V36.3438H198.498V17.7437H200.823V22.6187Z" fill="black"/>
</svg>
