<svg width="180" height="54" viewBox="0 0 180 54" fill="none" xmlns="http://www.w3.org/2000/svg">
<path d="M179.891 0.921875L15.2644 0.922275L0.65625 53.1649L165.324 53.1828L179.891 0.921875Z" fill="#FFDB3B"/>
<path d="M36.175 36.5547V17.9547H44C45.975 17.9547 47.5 18.6047 48.45 19.7547C49.275 20.7297 49.775 21.9297 49.775 23.4047C49.775 26.8297 47.775 28.9047 43.75 28.9047H38.75V36.5547H36.175ZM38.75 20.1797V26.8297H43.5C46.025 26.8297 47.225 25.5547 47.225 23.4797C47.225 21.3047 45.9 20.1797 43.6 20.1797H38.75ZM57.4953 36.9297C53.3703 36.9297 50.9453 33.7797 50.9453 29.8547C50.9453 25.9547 53.5203 22.8047 57.3703 22.8047C59.3703 22.8047 60.9203 23.5797 61.9703 24.8797C63.0703 26.2047 63.6203 28.1297 63.6203 30.4047H53.3203C53.4953 33.0297 54.9203 35.0297 57.5203 35.0297C59.3703 35.0297 60.6453 34.1547 61.0703 32.7297H63.3453C62.7453 35.2297 60.5953 36.9297 57.4953 36.9297ZM57.3703 24.6047C54.9453 24.6047 53.6703 26.3547 53.3703 28.7297H61.1453C61.0203 26.1547 59.6953 24.6047 57.3703 24.6047ZM68.399 23.1297V25.5547H68.474C69.299 24.0047 70.674 22.9547 72.449 22.9547C72.824 22.9547 73.049 23.0047 73.299 23.1047V25.3047H73.224C72.899 25.2047 72.674 25.1797 72.274 25.1797C70.199 25.1797 68.424 26.7297 68.424 29.2547V36.5547H66.099V23.1297H68.399ZM80.7217 36.9547C77.0217 36.9547 74.9217 35.2047 74.7217 32.4797H77.0717C77.3467 34.4297 78.8467 35.0797 80.7717 35.0797C82.8967 35.0797 83.7967 34.1547 83.7967 32.9547C83.7967 31.4797 82.6717 31.1047 80.2967 30.6297C77.6717 30.0797 75.2967 29.5297 75.2967 26.5797C75.2967 24.2797 77.0967 22.8297 80.2217 22.8297C83.5967 22.8297 85.2717 24.4047 85.5717 26.7297H83.2467C83.0467 25.3547 82.0967 24.5797 80.1717 24.5797C78.3467 24.5797 77.5717 25.4297 77.5717 26.4547C77.5717 27.8547 78.8717 28.1297 81.1467 28.5797C83.8217 29.1047 86.1217 29.7047 86.1217 32.8297C86.1217 35.5547 83.8717 36.9547 80.7217 36.9547ZM94.7273 36.9297C90.6773 36.9297 88.1523 33.7797 88.1523 29.8547C88.1523 25.9547 90.6773 22.8047 94.7273 22.8047C98.7773 22.8047 101.252 25.9547 101.252 29.8547C101.252 33.7797 98.7773 36.9297 94.7273 36.9297ZM94.7023 35.0297C97.4523 35.0297 98.8773 32.7547 98.8773 29.8547C98.8773 26.9547 97.4523 24.6547 94.7023 24.6547C91.9523 24.6547 90.5273 26.9547 90.5273 29.8547C90.5273 32.7547 91.9523 35.0297 94.7023 35.0297ZM106.021 23.1297V25.0297H106.096C107.071 23.6797 108.396 22.8047 110.346 22.8047C113.146 22.8047 114.871 24.3797 114.871 27.1797V36.5547H112.571V27.4547C112.571 25.7297 111.446 24.7547 109.621 24.7547C107.546 24.7547 106.046 26.2297 106.046 28.3797V36.5547H103.721V23.1297H106.021ZM122.003 36.8297C119.453 36.8297 117.453 35.5797 117.453 33.0047C117.453 29.8797 119.753 29.2047 123.228 28.7797C125.203 28.5547 126.478 28.2297 126.478 26.8547C126.478 25.4047 125.453 24.5047 123.603 24.5047C121.478 24.5047 120.453 25.5047 120.378 27.1047H118.128C118.228 24.8297 119.953 22.8047 123.578 22.8047C124.853 22.8047 125.978 23.0297 126.828 23.5297C127.953 24.2047 128.628 25.3797 128.628 27.1797V33.4547C128.628 34.5297 128.878 35.1047 130.053 34.8547H130.153V36.4797C129.828 36.5797 129.453 36.6797 128.903 36.6797C127.478 36.6797 126.778 36.0047 126.528 34.5797H126.503C125.653 35.7547 124.278 36.8297 122.003 36.8297ZM122.578 35.1297C125.253 35.1297 126.503 33.1547 126.503 31.6047V29.4047C125.828 29.8297 124.653 30.1547 123.553 30.3547C121.353 30.7297 119.903 31.1297 119.903 32.9797C119.903 34.7047 121.228 35.1297 122.578 35.1297ZM137.191 36.9547C133.491 36.9547 131.391 35.2047 131.191 32.4797H133.541C133.816 34.4297 135.316 35.0797 137.241 35.0797C139.366 35.0797 140.266 34.1547 140.266 32.9547C140.266 31.4797 139.141 31.1047 136.766 30.6297C134.141 30.0797 131.766 29.5297 131.766 26.5797C131.766 24.2797 133.566 22.8297 136.691 22.8297C140.066 22.8297 141.741 24.4047 142.041 26.7297H139.716C139.516 25.3547 138.566 24.5797 136.641 24.5797C134.816 24.5797 134.041 25.4297 134.041 26.4547C134.041 27.8547 135.341 28.1297 137.616 28.5797C140.291 29.1047 142.591 29.7047 142.591 32.8297C142.591 35.5547 140.341 36.9547 137.191 36.9547Z" fill="black"/>
</svg>
