<svg width="244" height="54" viewBox="0 0 244 54" fill="none" xmlns="http://www.w3.org/2000/svg">
<path d="M243.347 0.867188L15.1824 0.884192L0.574219 53.1269L228.781 53.1281L243.347 0.867188Z" fill="#FFDB3B"/>
<path d="M35.0542 36.5V17.9H37.6042V36.5H35.0542ZM43.4734 23.075V24.975H43.5484C44.5234 23.625 45.8484 22.75 47.7984 22.75C50.5984 22.75 52.3234 24.325 52.3234 27.125V36.5H50.0234V27.4C50.0234 25.675 48.8984 24.7 47.0734 24.7C44.9984 24.7 43.4984 26.175 43.4984 28.325V36.5H41.1734V23.075H43.4734ZM55.4056 20.6V17.9H57.8306V20.6H55.4056ZM55.4556 36.5V23.075H57.7806V36.5H55.4556ZM60.1482 24.875V23.075H62.2482V18.85H64.5482V23.075H67.3232V24.875H64.5482V33.35C64.5482 34.325 65.0732 34.6 65.9232 34.6C66.3232 34.6 66.8482 34.5 67.0982 34.425H67.1732V36.375C66.5482 36.525 65.8982 36.6 65.2982 36.6C63.4982 36.575 62.2482 35.85 62.2482 33.875V24.875H60.1482ZM69.6878 20.6V17.9H72.1128V20.6H69.6878ZM69.7378 36.5V23.075H72.0628V36.5H69.7378ZM79.2554 36.775C76.7054 36.775 74.7054 35.525 74.7054 32.95C74.7054 29.825 77.0054 29.15 80.4804 28.725C82.4554 28.5 83.7304 28.175 83.7304 26.8C83.7304 25.35 82.7054 24.45 80.8554 24.45C78.7304 24.45 77.7054 25.45 77.6304 27.05H75.3804C75.4804 24.775 77.2054 22.75 80.8304 22.75C82.1054 22.75 83.2304 22.975 84.0804 23.475C85.2054 24.15 85.8804 25.325 85.8804 27.125V33.4C85.8804 34.475 86.1304 35.05 87.3054 34.8H87.4054V36.425C87.0804 36.525 86.7054 36.625 86.1554 36.625C84.7304 36.625 84.0304 35.95 83.7804 34.525H83.7554C82.9054 35.7 81.5304 36.775 79.2554 36.775ZM79.8304 35.075C82.5054 35.075 83.7554 33.1 83.7554 31.55V29.35C83.0804 29.775 81.9054 30.1 80.8054 30.3C78.6054 30.675 77.1554 31.075 77.1554 32.925C77.1554 34.65 78.4804 35.075 79.8304 35.075ZM89.3685 36.5V17.9H91.6935V36.5H89.3685ZM101.923 36.5V17.9H110.623C113.948 17.9 116.198 19.95 116.198 23.025C116.198 25.3 115.273 26.9 112.798 27.675V27.75C114.898 28.375 115.498 29.625 115.673 32.3C115.898 35.225 116.148 36.125 116.523 36.375V36.5H113.798C113.373 36.15 113.323 35.3 113.123 32.325C112.948 29.7 111.848 28.75 109.423 28.75H104.473V36.5H101.923ZM104.473 20.1V26.7H109.798C112.323 26.7 113.573 25.425 113.573 23.4C113.573 21.225 112.548 20.1 109.923 20.1H104.473ZM124.806 36.875C120.681 36.875 118.256 33.725 118.256 29.8C118.256 25.9 120.831 22.75 124.681 22.75C126.681 22.75 128.231 23.525 129.281 24.825C130.381 26.15 130.931 28.075 130.931 30.35H120.631C120.806 32.975 122.231 34.975 124.831 34.975C126.681 34.975 127.956 34.1 128.381 32.675H130.656C130.056 35.175 127.906 36.875 124.806 36.875ZM124.681 24.55C122.256 24.55 120.981 26.3 120.681 28.675H128.456C128.331 26.1 127.006 24.55 124.681 24.55ZM138.56 36.9C134.86 36.9 132.76 35.15 132.56 32.425H134.91C135.185 34.375 136.685 35.025 138.61 35.025C140.735 35.025 141.635 34.1 141.635 32.9C141.635 31.425 140.51 31.05 138.135 30.575C135.51 30.025 133.135 29.475 133.135 26.525C133.135 24.225 134.935 22.775 138.06 22.775C141.435 22.775 143.11 24.35 143.41 26.675H141.085C140.885 25.3 139.935 24.525 138.01 24.525C136.185 24.525 135.41 25.375 135.41 26.4C135.41 27.8 136.71 28.075 138.985 28.525C141.66 29.05 143.96 29.65 143.96 32.775C143.96 35.5 141.71 36.9 138.56 36.9ZM152.54 36.875C148.415 36.875 145.99 33.725 145.99 29.8C145.99 25.9 148.565 22.75 152.415 22.75C154.415 22.75 155.965 23.525 157.015 24.825C158.115 26.15 158.665 28.075 158.665 30.35H148.365C148.54 32.975 149.965 34.975 152.565 34.975C154.415 34.975 155.69 34.1 156.115 32.675H158.39C157.79 35.175 155.64 36.875 152.54 36.875ZM152.415 24.55C149.99 24.55 148.715 26.3 148.415 28.675H156.19C156.065 26.1 154.74 24.55 152.415 24.55ZM165.144 36.775C162.594 36.775 160.594 35.525 160.594 32.95C160.594 29.825 162.894 29.15 166.369 28.725C168.344 28.5 169.619 28.175 169.619 26.8C169.619 25.35 168.594 24.45 166.744 24.45C164.619 24.45 163.594 25.45 163.519 27.05H161.269C161.369 24.775 163.094 22.75 166.719 22.75C167.994 22.75 169.119 22.975 169.969 23.475C171.094 24.15 171.769 25.325 171.769 27.125V33.4C171.769 34.475 172.019 35.05 173.194 34.8H173.294V36.425C172.969 36.525 172.594 36.625 172.044 36.625C170.619 36.625 169.919 35.95 169.669 34.525H169.644C168.794 35.7 167.419 36.775 165.144 36.775ZM165.719 35.075C168.394 35.075 169.644 33.1 169.644 31.55V29.35C168.969 29.775 167.794 30.1 166.694 30.3C164.494 30.675 163.044 31.075 163.044 32.925C163.044 34.65 164.369 35.075 165.719 35.075ZM177.482 23.075V25.5H177.557C178.382 23.95 179.757 22.9 181.532 22.9C181.907 22.9 182.132 22.95 182.382 23.05V25.25H182.307C181.982 25.15 181.757 25.125 181.357 25.125C179.282 25.125 177.507 26.675 177.507 29.2V36.5H175.182V23.075H177.482ZM189.992 36.875C185.967 36.875 183.442 33.725 183.442 29.8C183.442 25.9 185.967 22.75 189.992 22.75C193.217 22.75 195.317 24.575 195.792 27.45H193.467C193.142 25.7 191.942 24.625 189.992 24.625C187.242 24.625 185.817 26.9 185.817 29.8C185.817 32.7 187.242 34.975 189.992 34.975C192.092 34.975 193.342 33.75 193.517 31.75H195.817C195.517 34.95 193.392 36.875 189.992 36.875ZM200.481 22.775C200.481 23.45 200.431 24.375 200.406 25.025H200.481C201.481 23.6 202.831 22.75 204.781 22.75C207.581 22.75 209.306 24.325 209.306 27.125V36.5H207.006V27.4C207.006 25.675 205.881 24.7 204.056 24.7C201.981 24.7 200.481 26.175 200.481 28.325V36.5H198.156V17.9H200.481V22.775Z" fill="black"/>
</svg>
