<svg width="166" height="53" viewBox="0 0 166 53" fill="none" xmlns="http://www.w3.org/2000/svg">
<path d="M165.826 0.117188L14.8465 0.119538L0.238281 52.3622L151.26 52.3781L165.826 0.117188Z" fill="#FFDB3B"/>
<path d="M32.8781 35.75V17.15H40.7031C42.6781 17.15 44.2031 17.8 45.1531 18.95C45.9781 19.925 46.4781 21.125 46.4781 22.6C46.4781 26.025 44.4781 28.1 40.4531 28.1H35.4531V35.75H32.8781ZM35.4531 19.375V26.025H40.2031C42.7281 26.025 43.9281 24.75 43.9281 22.675C43.9281 20.5 42.6031 19.375 40.3031 19.375H35.4531ZM51.0396 22.325V24.75H51.1146C51.9396 23.2 53.3146 22.15 55.0896 22.15C55.4646 22.15 55.6896 22.2 55.9396 22.3V24.5H55.8646C55.5396 24.4 55.3146 24.375 54.9146 24.375C52.8396 24.375 51.0646 25.925 51.0646 28.45V35.75H48.7396V22.325H51.0396ZM63.574 36.125C59.524 36.125 56.999 32.975 56.999 29.05C56.999 25.15 59.524 22 63.574 22C67.624 22 70.099 25.15 70.099 29.05C70.099 32.975 67.624 36.125 63.574 36.125ZM63.549 34.225C66.299 34.225 67.724 31.95 67.724 29.05C67.724 26.15 66.299 23.85 63.549 23.85C60.799 23.85 59.374 26.15 59.374 29.05C59.374 31.95 60.799 34.225 63.549 34.225ZM78.3928 36.125C74.3678 36.125 71.8428 32.975 71.8428 29.05C71.8428 25.15 74.3678 22 78.3928 22C81.6178 22 83.7178 23.825 84.1928 26.7H81.8678C81.5428 24.95 80.3428 23.875 78.3928 23.875C75.6428 23.875 74.2178 26.15 74.2178 29.05C74.2178 31.95 75.6428 34.225 78.3928 34.225C80.4928 34.225 81.7428 33 81.9178 31H84.2178C83.9178 34.2 81.7928 36.125 78.3928 36.125ZM92.382 36.125C88.257 36.125 85.832 32.975 85.832 29.05C85.832 25.15 88.407 22 92.257 22C94.257 22 95.807 22.775 96.857 24.075C97.957 25.4 98.507 27.325 98.507 29.6H88.207C88.382 32.225 89.807 34.225 92.407 34.225C94.257 34.225 95.532 33.35 95.957 31.925H98.232C97.632 34.425 95.482 36.125 92.382 36.125ZM92.257 23.8C89.832 23.8 88.557 25.55 88.257 27.925H96.032C95.907 25.35 94.582 23.8 92.257 23.8ZM106.136 36.15C102.436 36.15 100.336 34.4 100.136 31.675H102.486C102.761 33.625 104.261 34.275 106.186 34.275C108.311 34.275 109.211 33.35 109.211 32.15C109.211 30.675 108.086 30.3 105.711 29.825C103.086 29.275 100.711 28.725 100.711 25.775C100.711 23.475 102.511 22.025 105.636 22.025C109.011 22.025 110.686 23.6 110.986 25.925H108.661C108.461 24.55 107.511 23.775 105.586 23.775C103.761 23.775 102.986 24.625 102.986 25.65C102.986 27.05 104.286 27.325 106.561 27.775C109.236 28.3 111.536 28.9 111.536 32.025C111.536 34.75 109.286 36.15 106.136 36.15ZM119.197 36.15C115.497 36.15 113.397 34.4 113.197 31.675H115.547C115.822 33.625 117.322 34.275 119.247 34.275C121.372 34.275 122.272 33.35 122.272 32.15C122.272 30.675 121.147 30.3 118.772 29.825C116.147 29.275 113.772 28.725 113.772 25.775C113.772 23.475 115.572 22.025 118.697 22.025C122.072 22.025 123.747 23.6 124.047 25.925H121.722C121.522 24.55 120.572 23.775 118.647 23.775C116.822 23.775 116.047 24.625 116.047 25.65C116.047 27.05 117.347 27.325 119.622 27.775C122.297 28.3 124.597 28.9 124.597 32.025C124.597 34.75 122.347 36.15 119.197 36.15Z" fill="black"/>
</svg>
