<svg width="246" height="53" viewBox="0 0 246 53" fill="none" xmlns="http://www.w3.org/2000/svg">
<path d="M245.927 0.15625L14.8152 0.158601L0.207031 52.4013L231.361 52.4172L245.927 0.15625Z" fill="#FFDB3B"/>
<path d="M39.7219 36.0641C35.5469 36.0641 32.5469 34.2141 32.5469 29.7391V17.1891H35.0969V29.5141C35.0969 32.5641 36.7969 33.8891 39.7719 33.8891C42.6469 33.8891 44.3469 32.5641 44.3469 29.5141V17.1891H46.8969V29.7391C46.8969 34.2141 43.7969 36.0641 39.7219 36.0641ZM55.2744 36.1891C51.5744 36.1891 49.4744 34.4391 49.2744 31.7141H51.6244C51.8994 33.6641 53.3994 34.3141 55.3244 34.3141C57.4494 34.3141 58.3494 33.3891 58.3494 32.1891C58.3494 30.7141 57.2244 30.3391 54.8494 29.8641C52.2244 29.3141 49.8494 28.7641 49.8494 25.8141C49.8494 23.5141 51.6494 22.0641 54.7744 22.0641C58.1494 22.0641 59.8244 23.6391 60.1244 25.9641H57.7994C57.5994 24.5891 56.6494 23.8141 54.7244 23.8141C52.8994 23.8141 52.1244 24.6641 52.1244 25.6891C52.1244 27.0891 53.4244 27.3641 55.6994 27.8141C58.3744 28.3391 60.6744 28.9391 60.6744 32.0641C60.6744 34.7891 58.4244 36.1891 55.2744 36.1891ZM69.2551 36.1641C65.1301 36.1641 62.7051 33.0141 62.7051 29.0891C62.7051 25.1891 65.2801 22.0391 69.1301 22.0391C71.1301 22.0391 72.6801 22.8141 73.7301 24.1141C74.8301 25.4391 75.3801 27.3641 75.3801 29.6391H65.0801C65.2551 32.2641 66.6801 34.2641 69.2801 34.2641C71.1301 34.2641 72.4051 33.3891 72.8301 31.9641H75.1051C74.5051 34.4641 72.3551 36.1641 69.2551 36.1641ZM69.1301 23.8391C66.7051 23.8391 65.4301 25.5891 65.1301 27.9641H72.9051C72.7801 25.3891 71.4551 23.8391 69.1301 23.8391ZM80.1588 22.3641V24.7891H80.2338C81.0588 23.2391 82.4338 22.1891 84.2088 22.1891C84.5838 22.1891 84.8088 22.2391 85.0588 22.3391V24.5391H84.9838C84.6588 24.4391 84.4338 24.4141 84.0338 24.4141C81.9588 24.4141 80.1838 25.9641 80.1838 28.4891V35.7891H77.8588V22.3641H80.1588ZM94.3471 35.7891V17.1891H96.8971V35.7891H94.3471ZM102.766 22.3641V24.2641H102.841C103.816 22.9141 105.141 22.0391 107.091 22.0391C109.891 22.0391 111.616 23.6141 111.616 26.4141V35.7891H109.316V26.6891C109.316 24.9641 108.191 23.9891 106.366 23.9891C104.291 23.9891 102.791 25.4641 102.791 27.6141V35.7891H100.466V22.3641H102.766ZM113.679 24.1641V22.3641H115.779V18.1391H118.079V22.3641H120.854V24.1641H118.079V32.6391C118.079 33.6141 118.604 33.8891 119.454 33.8891C119.854 33.8891 120.379 33.7891 120.629 33.7141H120.704V35.6641C120.079 35.8141 119.429 35.8891 118.829 35.8891C117.029 35.8641 115.779 35.1391 115.779 33.1641V24.1641H113.679ZM128.972 36.1641C124.847 36.1641 122.422 33.0141 122.422 29.0891C122.422 25.1891 124.997 22.0391 128.847 22.0391C130.847 22.0391 132.397 22.8141 133.447 24.1141C134.547 25.4391 135.097 27.3641 135.097 29.6391H124.797C124.972 32.2641 126.397 34.2641 128.997 34.2641C130.847 34.2641 132.122 33.3891 132.547 31.9641H134.822C134.222 34.4641 132.072 36.1641 128.972 36.1641ZM128.847 23.8391C126.422 23.8391 125.147 25.5891 124.847 27.9641H132.622C132.497 25.3891 131.172 23.8391 128.847 23.8391ZM139.876 22.3641V24.7891H139.951C140.776 23.2391 142.151 22.1891 143.926 22.1891C144.301 22.1891 144.526 22.2391 144.776 22.3391V24.5391H144.701C144.376 24.4391 144.151 24.4141 143.751 24.4141C141.676 24.4141 139.901 25.9641 139.901 28.4891V35.7891H137.576V22.3641H139.876ZM150.248 35.7891L145.573 22.3641H148.048L150.398 29.6141C150.973 31.4141 151.623 33.8891 151.623 33.8891H151.673C151.673 33.8891 152.248 31.4141 152.848 29.6141L155.248 22.3641H157.648L152.823 35.7891H150.248ZM159.327 19.8891V17.1891H161.752V19.8891H159.327ZM159.377 35.7891V22.3641H161.702V35.7891H159.377ZM170.72 36.1641C166.595 36.1641 164.17 33.0141 164.17 29.0891C164.17 25.1891 166.745 22.0391 170.595 22.0391C172.595 22.0391 174.145 22.8141 175.195 24.1141C176.295 25.4391 176.845 27.3641 176.845 29.6391H166.545C166.72 32.2641 168.145 34.2641 170.745 34.2641C172.595 34.2641 173.87 33.3891 174.295 31.9641H176.57C175.97 34.4641 173.82 36.1641 170.72 36.1641ZM170.595 23.8391C168.17 23.8391 166.895 25.5891 166.595 27.9641H174.37C174.245 25.3891 172.92 23.8391 170.595 23.8391ZM181.979 35.7891L177.729 22.3641H180.204L182.304 29.8141C182.729 31.3391 183.179 33.7391 183.179 33.7391H183.229C183.229 33.7391 183.679 31.4891 184.129 29.8641L186.154 22.3641H188.354L190.354 29.8641C190.729 31.2891 191.204 33.7641 191.204 33.7641H191.254C191.254 33.7641 191.629 31.4641 192.129 29.8141L194.354 22.3641H196.754L192.379 35.7891H190.054L188.079 28.3891C187.754 27.0891 187.229 24.6391 187.229 24.6391H187.179C187.179 24.6391 186.679 27.1141 186.354 28.3891L184.329 35.7891H181.979ZM203.639 36.1891C199.939 36.1891 197.839 34.4391 197.639 31.7141H199.989C200.264 33.6641 201.764 34.3141 203.689 34.3141C205.814 34.3141 206.714 33.3891 206.714 32.1891C206.714 30.7141 205.589 30.3391 203.214 29.8641C200.589 29.3141 198.214 28.7641 198.214 25.8141C198.214 23.5141 200.014 22.0641 203.139 22.0641C206.514 22.0641 208.189 23.6391 208.489 25.9641H206.164C205.964 24.5891 205.014 23.8141 203.089 23.8141C201.264 23.8141 200.489 24.6641 200.489 25.6891C200.489 27.0891 201.789 27.3641 204.064 27.8141C206.739 28.3391 209.039 28.9391 209.039 32.0641C209.039 34.7891 206.789 36.1891 203.639 36.1891Z" fill="black"/>
</svg>
