<svg width="261" height="54" viewBox="0 0 261 54" fill="none" xmlns="http://www.w3.org/2000/svg">
<path d="M260.31 0.820312H14.9597L0.351562 53.063L245.744 53.0813L260.31 0.820312Z" fill="#FFDB3B"/>
<path d="M30.6845 36.4531V17.8531H43.4095V20.1031H33.2345V25.6781H41.7095V27.8531H33.2345V36.4531H30.6845ZM45.8612 20.5531V17.8531H48.2862V20.5531H45.8612ZM45.9112 36.4531V23.0281H48.2362V36.4531H45.9112ZM53.7288 23.0281V24.9281H53.8038C54.7788 23.5781 56.1038 22.7031 58.0538 22.7031C60.8538 22.7031 62.5788 24.2781 62.5788 27.0781V36.4531H60.2788V27.3531C60.2788 25.6281 59.1538 24.6531 57.3288 24.6531C55.2538 24.6531 53.7538 26.1281 53.7538 28.2781V36.4531H51.4288V23.0281H53.7288ZM69.711 36.7281C67.161 36.7281 65.161 35.4781 65.161 32.9031C65.161 29.7781 67.461 29.1031 70.936 28.6781C72.911 28.4531 74.186 28.1281 74.186 26.7531C74.186 25.3031 73.161 24.4031 71.311 24.4031C69.186 24.4031 68.161 25.4031 68.086 27.0031H65.836C65.936 24.7281 67.661 22.7031 71.286 22.7031C72.561 22.7031 73.686 22.9281 74.536 23.4281C75.661 24.1031 76.336 25.2781 76.336 27.0781V33.3531C76.336 34.4281 76.586 35.0031 77.761 34.7531H77.861V36.3781C77.536 36.4781 77.161 36.5781 76.611 36.5781C75.186 36.5781 74.486 35.9031 74.236 34.4781H74.211C73.361 35.6531 71.986 36.7281 69.711 36.7281ZM70.286 35.0281C72.961 35.0281 74.211 33.0531 74.211 31.5031V29.3031C73.536 29.7281 72.361 30.0531 71.261 30.2531C69.061 30.6281 67.611 31.0281 67.611 32.8781C67.611 34.6031 68.936 35.0281 70.286 35.0281ZM79.8241 36.4531V17.8531H82.1491V36.4531H79.8241ZM92.3788 36.4531V17.8531H99.2538C104.804 17.8531 107.554 21.6531 107.554 27.2281C107.554 32.7781 104.654 36.4531 99.0788 36.4531H92.3788ZM94.9538 34.2281H98.9788C103.179 34.2281 104.904 31.5031 104.904 27.2281C104.904 22.9531 103.354 20.0781 99.1288 20.0781H94.9538V34.2281ZM116.189 36.8281C112.064 36.8281 109.639 33.6781 109.639 29.7531C109.639 25.8531 112.214 22.7031 116.064 22.7031C118.064 22.7031 119.614 23.4781 120.664 24.7781C121.764 26.1031 122.314 28.0281 122.314 30.3031H112.014C112.189 32.9281 113.614 34.9281 116.214 34.9281C118.064 34.9281 119.339 34.0531 119.764 32.6281H122.039C121.439 35.1281 119.289 36.8281 116.189 36.8281ZM116.064 24.5031C113.639 24.5031 112.364 26.2531 112.064 28.6281H119.839C119.714 26.0531 118.389 24.5031 116.064 24.5031ZM124.868 36.4531V17.8531H127.193V36.4531H124.868ZM130.407 20.5531V17.8531H132.832V20.5531H130.407ZM130.457 36.4531V23.0281H132.782V36.4531H130.457ZM139.175 36.4531L134.5 23.0281H136.975L139.325 30.2781C139.9 32.0781 140.55 34.5531 140.55 34.5531H140.6C140.6 34.5531 141.175 32.0781 141.775 30.2781L144.175 23.0281H146.575L141.75 36.4531H139.175ZM153.885 36.8281C149.76 36.8281 147.335 33.6781 147.335 29.7531C147.335 25.8531 149.91 22.7031 153.76 22.7031C155.76 22.7031 157.31 23.4781 158.36 24.7781C159.46 26.1031 160.01 28.0281 160.01 30.3031H149.71C149.885 32.9281 151.31 34.9281 153.91 34.9281C155.76 34.9281 157.035 34.0531 157.46 32.6281H159.735C159.135 35.1281 156.985 36.8281 153.885 36.8281ZM153.76 24.5031C151.335 24.5031 150.06 26.2531 149.76 28.6281H157.535C157.41 26.0531 156.085 24.5031 153.76 24.5031ZM164.788 23.0281V25.4531H164.863C165.688 23.9031 167.063 22.8531 168.838 22.8531C169.213 22.8531 169.438 22.9031 169.688 23.0031V25.2031H169.613C169.288 25.1031 169.063 25.0781 168.663 25.0781C166.588 25.0781 164.813 26.6281 164.813 29.1531V36.4531H162.488V23.0281H164.788ZM175.473 36.7281C172.923 36.7281 170.923 35.4781 170.923 32.9031C170.923 29.7781 173.223 29.1031 176.698 28.6781C178.673 28.4531 179.948 28.1281 179.948 26.7531C179.948 25.3031 178.923 24.4031 177.073 24.4031C174.948 24.4031 173.923 25.4031 173.848 27.0031H171.598C171.698 24.7281 173.423 22.7031 177.048 22.7031C178.323 22.7031 179.448 22.9281 180.298 23.4281C181.423 24.1031 182.098 25.2781 182.098 27.0781V33.3531C182.098 34.4281 182.348 35.0031 183.523 34.7531H183.623V36.3781C183.298 36.4781 182.923 36.5781 182.373 36.5781C180.948 36.5781 180.248 35.9031 179.998 34.4781H179.973C179.123 35.6531 177.748 36.7281 175.473 36.7281ZM176.048 35.0281C178.723 35.0281 179.973 33.0531 179.973 31.5031V29.3031C179.298 29.7281 178.123 30.0531 177.023 30.2531C174.823 30.6281 173.373 31.0281 173.373 32.8781C173.373 34.6031 174.698 35.0281 176.048 35.0281ZM192.086 36.8531C190.286 36.8531 188.761 36.0531 187.886 34.5531H187.811V36.4531H185.511V17.8531H187.836V22.6031C187.836 23.6281 187.786 24.5781 187.761 25.1531H187.836C188.711 23.7281 190.211 22.7031 192.161 22.7031C195.561 22.7031 197.886 25.3531 197.886 29.7781C197.886 34.1031 195.711 36.8531 192.086 36.8531ZM191.836 34.9281C194.311 34.9281 195.511 32.7531 195.511 29.8031C195.511 26.8531 194.311 24.6531 191.861 24.6531C189.011 24.6531 187.711 26.9531 187.711 29.8031C187.711 32.7281 189.086 34.9281 191.836 34.9281ZM200.43 36.4531V17.8531H202.755V36.4531H200.43ZM211.844 36.8281C207.719 36.8281 205.294 33.6781 205.294 29.7531C205.294 25.8531 207.869 22.7031 211.719 22.7031C213.719 22.7031 215.269 23.4781 216.319 24.7781C217.419 26.1031 217.969 28.0281 217.969 30.3031H207.669C207.844 32.9281 209.269 34.9281 211.869 34.9281C213.719 34.9281 214.994 34.0531 215.419 32.6281H217.694C217.094 35.1281 214.944 36.8281 211.844 36.8281ZM211.719 24.5031C209.294 24.5031 208.019 26.2531 207.719 28.6281H215.494C215.369 26.0531 214.044 24.5031 211.719 24.5031ZM225.597 36.8531C221.897 36.8531 219.797 35.1031 219.597 32.3781H221.947C222.222 34.3281 223.722 34.9781 225.647 34.9781C227.772 34.9781 228.672 34.0531 228.672 32.8531C228.672 31.3781 227.547 31.0031 225.172 30.5281C222.547 29.9781 220.172 29.4281 220.172 26.4781C220.172 24.1781 221.972 22.7281 225.097 22.7281C228.472 22.7281 230.147 24.3031 230.447 26.6281H228.122C227.922 25.2531 226.972 24.4781 225.047 24.4781C223.222 24.4781 222.447 25.3281 222.447 26.3531C222.447 27.7531 223.747 28.0281 226.022 28.4781C228.697 29.0031 230.997 29.6031 230.997 32.7281C230.997 35.4531 228.747 36.8531 225.597 36.8531Z" fill="black"/>
</svg>
