<svg width="178" height="53" viewBox="0 0 178 53" fill="none" xmlns="http://www.w3.org/2000/svg">
<path d="M177.265 0.257812L14.9246 0.278821L0.316406 52.5215L162.699 52.5188L177.265 0.257812Z" fill="#FFDB3B"/>
<path d="M32.5725 35.8906L39.3725 17.2906H42.2225L49.0725 35.8906H46.2725L44.4225 30.4656H37.0975L35.1975 35.8906H32.5725ZM39.6225 23.2656L37.7975 28.4656H43.7475L41.9725 23.2656C41.3475 21.4656 40.8475 19.3156 40.8475 19.3156H40.7725C40.7725 19.3156 40.2225 21.5406 39.6225 23.2656ZM51.1535 40.4406V22.4656H53.4535V24.5656H53.5285C54.5285 23.0406 55.8785 22.1406 57.8035 22.1406C61.2285 22.1406 63.5785 24.7906 63.5785 29.2156C63.5785 33.5156 61.3535 36.2906 57.7285 36.2906C55.9035 36.2906 54.4285 35.5406 53.5035 34.1156H53.4285C53.4535 34.5906 53.4785 35.3406 53.4785 36.3656V40.4406H51.1535ZM57.4785 34.3656C59.9535 34.3656 61.2035 32.1906 61.2035 29.2656C61.2035 26.3156 59.9785 24.1156 57.5035 24.1156C54.6535 24.1156 53.3535 26.4156 53.3535 29.2656C53.3535 32.0906 54.5035 34.3656 57.4785 34.3656ZM66.0461 40.4406V22.4656H68.3461V24.5656H68.4211C69.4211 23.0406 70.7711 22.1406 72.6961 22.1406C76.1211 22.1406 78.4711 24.7906 78.4711 29.2156C78.4711 33.5156 76.2461 36.2906 72.6211 36.2906C70.7961 36.2906 69.3211 35.5406 68.3961 34.1156H68.3211C68.3461 34.5906 68.3711 35.3406 68.3711 36.3656V40.4406H66.0461ZM72.3711 34.3656C74.8461 34.3656 76.0961 32.1906 76.0961 29.2656C76.0961 26.3156 74.8711 24.1156 72.3961 24.1156C69.5461 24.1156 68.2461 26.4156 68.2461 29.2656C68.2461 32.0906 69.3961 34.3656 72.3711 34.3656ZM83.2387 22.4656V24.8906H83.3137C84.1387 23.3406 85.5137 22.2906 87.2887 22.2906C87.6637 22.2906 87.8887 22.3406 88.1387 22.4406V24.6406H88.0637C87.7387 24.5406 87.5137 24.5156 87.1137 24.5156C85.0387 24.5156 83.2637 26.0656 83.2637 28.5906V35.8906H80.9387V22.4656H83.2387ZM95.7731 36.2656C91.7231 36.2656 89.1981 33.1156 89.1981 29.1906C89.1981 25.2906 91.7231 22.1406 95.7731 22.1406C99.8231 22.1406 102.298 25.2906 102.298 29.1906C102.298 33.1156 99.8231 36.2656 95.7731 36.2656ZM95.7481 34.3656C98.4981 34.3656 99.9231 32.0906 99.9231 29.1906C99.9231 26.2906 98.4981 23.9906 95.7481 23.9906C92.9981 23.9906 91.5731 26.2906 91.5731 29.1906C91.5731 32.0906 92.9981 34.3656 95.7481 34.3656ZM108.767 36.1656C106.217 36.1656 104.217 34.9156 104.217 32.3406C104.217 29.2156 106.517 28.5406 109.992 28.1156C111.967 27.8906 113.242 27.5656 113.242 26.1906C113.242 24.7406 112.217 23.8406 110.367 23.8406C108.242 23.8406 107.217 24.8406 107.142 26.4406H104.892C104.992 24.1656 106.717 22.1406 110.342 22.1406C111.617 22.1406 112.742 22.3656 113.592 22.8656C114.717 23.5406 115.392 24.7156 115.392 26.5156V32.7906C115.392 33.8656 115.642 34.4406 116.817 34.1906H116.917V35.8156C116.592 35.9156 116.217 36.0156 115.667 36.0156C114.242 36.0156 113.542 35.3406 113.292 33.9156H113.267C112.417 35.0906 111.042 36.1656 108.767 36.1656ZM109.342 34.4656C112.017 34.4656 113.267 32.4906 113.267 30.9406V28.7406C112.592 29.1656 111.417 29.4906 110.317 29.6906C108.117 30.0656 106.667 30.4656 106.667 32.3156C106.667 34.0406 107.992 34.4656 109.342 34.4656ZM124.63 36.2656C120.605 36.2656 118.08 33.1156 118.08 29.1906C118.08 25.2906 120.605 22.1406 124.63 22.1406C127.855 22.1406 129.955 23.9656 130.43 26.8406H128.105C127.78 25.0906 126.58 24.0156 124.63 24.0156C121.88 24.0156 120.455 26.2906 120.455 29.1906C120.455 32.0906 121.88 34.3656 124.63 34.3656C126.73 34.3656 127.98 33.1406 128.155 31.1406H130.455C130.155 34.3406 128.03 36.2656 124.63 36.2656ZM135.119 22.1656C135.119 22.8406 135.069 23.7656 135.044 24.4156H135.119C136.119 22.9906 137.469 22.1406 139.419 22.1406C142.219 22.1406 143.944 23.7156 143.944 26.5156V35.8906H141.644V26.7906C141.644 25.0656 140.519 24.0906 138.694 24.0906C136.619 24.0906 135.119 25.5656 135.119 27.7156V35.8906H132.794V17.2906H135.119V22.1656Z" fill="black"/>
</svg>
