<svg width="174" height="53" viewBox="0 0 174 53" fill="none" xmlns="http://www.w3.org/2000/svg">
<path d="M174.005 0.367188L14.7566 0.388196L0.148438 52.6309L159.439 52.6281L174.005 0.367188Z" fill="#FFDB3B"/>
<path d="M43.2996 36.4C37.6746 36.4 34.1996 32.25 34.1996 26.7C34.1996 21.125 37.6746 17 43.2996 17C48.8996 17 52.4246 21.125 52.4246 26.7C52.4246 32.25 48.8996 36.4 43.2996 36.4ZM43.2996 34.15C47.5246 34.15 49.7746 30.95 49.7746 26.7C49.7746 22.425 47.5246 19.2 43.2996 19.2C39.0746 19.2 36.7996 22.425 36.7996 26.7C36.7996 30.95 39.0746 34.15 43.2996 34.15ZM58.4289 36L53.7539 22.575H56.2289L58.5789 29.825C59.1539 31.625 59.8039 34.1 59.8039 34.1H59.8539C59.8539 34.1 60.4289 31.625 61.0289 29.825L63.4289 22.575H65.8289L61.0039 36H58.4289ZM73.1389 36.375C69.0139 36.375 66.5889 33.225 66.5889 29.3C66.5889 25.4 69.1639 22.25 73.0139 22.25C75.0139 22.25 76.5639 23.025 77.6139 24.325C78.7139 25.65 79.2639 27.575 79.2639 29.85H68.9639C69.1389 32.475 70.5639 34.475 73.1639 34.475C75.0139 34.475 76.2889 33.6 76.7139 32.175H78.9889C78.3889 34.675 76.2389 36.375 73.1389 36.375ZM73.0139 24.05C70.5889 24.05 69.3139 25.8 69.0139 28.175H76.7889C76.6639 25.6 75.3389 24.05 73.0139 24.05ZM84.0426 22.575V25H84.1176C84.9426 23.45 86.3176 22.4 88.0926 22.4C88.4676 22.4 88.6926 22.45 88.9426 22.55V24.75H88.8676C88.5426 24.65 88.3176 24.625 87.9176 24.625C85.8426 24.625 84.0676 26.175 84.0676 28.7V36H81.7426V22.575H84.0426ZM94.4153 36L89.7403 22.575H92.2153L94.5653 29.825C95.1403 31.625 95.7903 34.1 95.7903 34.1H95.8403C95.8403 34.1 96.4153 31.625 97.0153 29.825L99.4153 22.575H101.815L96.9903 36H94.4153ZM103.494 20.1V17.4H105.919V20.1H103.494ZM103.544 36V22.575H105.869V36H103.544ZM114.887 36.375C110.762 36.375 108.337 33.225 108.337 29.3C108.337 25.4 110.912 22.25 114.762 22.25C116.762 22.25 118.312 23.025 119.362 24.325C120.462 25.65 121.012 27.575 121.012 29.85H110.712C110.887 32.475 112.312 34.475 114.912 34.475C116.762 34.475 118.037 33.6 118.462 32.175H120.737C120.137 34.675 117.987 36.375 114.887 36.375ZM114.762 24.05C112.337 24.05 111.062 25.8 110.762 28.175H118.537C118.412 25.6 117.087 24.05 114.762 24.05ZM126.147 36L121.897 22.575H124.372L126.472 30.025C126.897 31.55 127.347 33.95 127.347 33.95H127.397C127.397 33.95 127.847 31.7 128.297 30.075L130.322 22.575H132.522L134.522 30.075C134.897 31.5 135.372 33.975 135.372 33.975H135.422C135.422 33.975 135.797 31.675 136.297 30.025L138.522 22.575H140.922L136.547 36H134.222L132.247 28.6C131.922 27.3 131.397 24.85 131.397 24.85H131.347C131.347 24.85 130.847 27.325 130.522 28.6L128.497 36H126.147Z" fill="black"/>
</svg>
