<svg width="487" height="123" viewBox="0 0 487 123" fill="none" xmlns="http://www.w3.org/2000/svg">
<path d="M338.628 0.484375L-254.519 0.523504L-287.867 122.012L305.376 122.016L338.628 0.484375Z" fill="white"/>
<path d="M50.66 72.0156L56.18 43.4156H67.18C72.66 43.4156 76.3 46.4956 76.3 51.8556C76.3 57.9756 71.94 61.6556 65.54 61.6556H58.58L56.58 72.0156H50.66ZM61.14 48.4156L59.5 56.9756H65.26C67.94 56.9756 70.38 55.5356 70.38 52.1356C70.38 49.8156 69.02 48.4156 66.42 48.4156H61.14ZM95.3103 63.2556H81.0303C81.0303 66.4956 82.1103 68.4556 85.2303 68.4556C87.1103 68.4556 88.6703 67.6556 89.4303 65.8956H94.7103C94.0703 67.8156 92.9903 69.3756 91.5503 70.4956C89.8303 71.8556 87.6303 72.5756 85.1503 72.6156C79.8303 72.6156 75.7103 69.6556 75.7103 63.1756C75.7103 57.2156 80.0703 50.9356 86.7103 50.9356C88.9503 50.9356 90.5103 51.3756 91.8703 52.2556C94.9503 54.2556 96.0703 58.3356 95.3103 63.2556ZM86.5903 55.0956C83.7503 55.0956 82.2303 57.1356 81.5103 59.5356H90.3503C90.4303 57.1356 89.3503 55.0956 86.5903 55.0956ZM105.199 51.4956L104.559 54.7756H104.679C105.879 52.7356 107.519 51.2556 110.079 51.2556C110.839 51.2556 111.319 51.3356 111.599 51.4156L110.679 56.1356H110.559C106.839 55.6556 104.239 57.3756 103.359 62.0156L101.439 72.0156H96.0794L100.039 51.4956H105.199ZM119.812 72.6156C114.852 72.6156 110.892 70.5356 110.532 65.3756H115.612C115.812 67.1356 117.012 68.6956 119.812 68.6956C121.772 68.6956 123.172 68.0156 123.172 66.4556C123.172 64.9756 121.412 64.4156 118.412 63.4156C115.292 62.3756 112.532 61.0556 112.532 57.4156C112.532 53.2556 115.852 50.9356 120.532 50.9356C125.132 50.9356 128.572 53.2556 128.932 57.7356H124.012C123.772 56.1356 122.652 54.7756 120.372 54.7756C118.932 54.7756 117.292 55.2556 117.292 56.8156C117.292 58.2156 119.132 58.5356 122.292 59.6156C125.252 60.6156 128.092 62.1356 128.092 65.7356C128.092 70.1356 125.012 72.6156 119.812 72.6156ZM139.648 72.6156C134.288 72.6156 130.008 69.3356 130.008 63.0556C130.008 56.5756 134.568 50.9356 141.568 50.9356C146.808 50.9356 151.048 54.2156 151.048 60.2956C151.048 66.8556 146.648 72.6156 139.648 72.6156ZM135.368 63.3756C135.368 66.1756 136.608 68.5756 139.768 68.5756C143.928 68.5756 145.688 64.0556 145.688 60.1356C145.688 57.4556 144.448 54.9756 141.288 54.9756C137.168 54.9756 135.368 59.4156 135.368 63.3756ZM160.67 51.4956L160.07 54.7356H160.19C161.95 52.2156 163.67 50.9356 166.59 50.9356C170.67 50.9356 173.03 54.2556 172.11 59.0556L169.63 72.0156H164.27L166.67 59.6956C167.19 56.9756 166.15 55.4956 163.87 55.4956C161.35 55.4956 159.55 57.8156 158.99 60.8156L156.83 72.0156H151.47L155.43 51.4956H160.67ZM185.715 72.0156C185.475 71.5756 185.395 70.6956 185.435 69.7756H185.355C184.115 71.0956 182.595 72.4956 179.635 72.4956C176.475 72.4956 173.115 70.6956 173.115 66.4556C173.115 61.0156 177.435 60.0156 182.435 59.6156C186.275 59.2956 187.755 59.1356 187.755 57.0956C187.755 55.6156 186.595 54.8156 184.555 54.8156C182.315 54.8156 180.835 55.6956 180.355 57.7356H175.555C176.235 53.5356 179.475 50.9756 184.755 50.9756C189.835 50.9756 193.675 53.1756 192.555 59.1356L190.635 68.9756C190.355 70.3756 190.475 71.3356 190.795 71.8156V72.0156H185.715ZM178.275 65.9756C178.275 67.8156 179.555 68.7756 181.355 68.7756C184.155 68.7756 185.955 67.0156 186.355 65.1356L186.995 61.8956C185.955 62.3756 184.835 62.6156 183.075 62.9356C181.115 63.2956 178.275 63.1756 178.275 65.9756ZM202.507 72.6156C197.547 72.6156 193.587 70.5356 193.227 65.3756H198.307C198.507 67.1356 199.707 68.6956 202.507 68.6956C204.467 68.6956 205.867 68.0156 205.867 66.4556C205.867 64.9756 204.107 64.4156 201.107 63.4156C197.987 62.3756 195.227 61.0556 195.227 57.4156C195.227 53.2556 198.547 50.9356 203.227 50.9356C207.827 50.9356 211.267 53.2556 211.627 57.7356H206.707C206.467 56.1356 205.347 54.7756 203.067 54.7756C201.627 54.7756 199.987 55.2556 199.987 56.8156C199.987 58.2156 201.827 58.5356 204.987 59.6156C207.947 60.6156 210.787 62.1356 210.787 65.7356C210.787 70.1356 207.707 72.6156 202.507 72.6156Z" fill="black"/>
</svg>
