<svg width="490" height="120" viewBox="0 0 490 120" fill="none" xmlns="http://www.w3.org/2000/svg">
<path d="M483.284 0.351562L-242.451 0.387273L-275.203 119.705L450.626 119.711L483.284 0.351562Z" fill="white"/>
<path d="M53.66 70.7188L59.18 42.1187H70.18C75.66 42.1187 79.3 45.1987 79.3 50.5587C79.3 56.6787 74.94 60.3587 68.54 60.3587H61.58L59.58 70.7188H53.66ZM64.14 47.1187L62.5 55.6787H68.26C70.94 55.6787 73.38 54.2387 73.38 50.8387C73.38 48.5187 72.02 47.1187 69.42 47.1187H64.14ZM87.1056 50.1987L86.4656 53.4787H86.5856C87.7856 51.4387 89.4256 49.9587 91.9856 49.9587C92.7456 49.9587 93.2256 50.0387 93.5056 50.1187L92.5856 54.8387H92.4656C88.7456 54.3587 86.1456 56.0787 85.2656 60.7188L83.3456 70.7188H77.9856L81.9456 50.1987H87.1056ZM102.297 71.3188C96.9366 71.3188 92.6566 68.0387 92.6566 61.7587C92.6566 55.2787 97.2166 49.6387 104.217 49.6387C109.457 49.6387 113.697 52.9187 113.697 58.9987C113.697 65.5587 109.297 71.3188 102.297 71.3188ZM98.0166 62.0787C98.0166 64.8787 99.2566 67.2787 102.417 67.2787C106.577 67.2787 108.337 62.7587 108.337 58.8387C108.337 56.1587 107.097 53.6787 103.937 53.6787C99.8166 53.6787 98.0166 58.1187 98.0166 62.0787ZM124.198 71.3188C119.198 71.3188 115.038 68.5187 115.038 62.2387C115.038 55.9187 119.238 49.6387 126.238 49.6387C130.798 49.6387 134.478 51.7987 134.758 57.1587H129.518C129.318 55.1987 128.238 53.9587 126.078 53.9587C122.118 53.9587 120.398 58.4787 120.398 62.3987C120.398 65.0387 121.558 66.9987 124.518 66.9987C126.518 66.9987 128.078 65.9187 128.798 63.4787H133.998C132.878 68.3987 129.238 71.3188 124.198 71.3188ZM155.185 61.9587H140.905C140.905 65.1987 141.985 67.1587 145.105 67.1587C146.985 67.1587 148.545 66.3587 149.305 64.5987H154.585C153.945 66.5187 152.865 68.0788 151.425 69.1987C149.705 70.5587 147.505 71.2788 145.025 71.3188C139.705 71.3188 135.585 68.3587 135.585 61.8787C135.585 55.9187 139.945 49.6387 146.585 49.6387C148.825 49.6387 150.385 50.0787 151.745 50.9587C154.825 52.9587 155.945 57.0387 155.185 61.9587ZM146.465 53.7987C143.625 53.7987 142.105 55.8387 141.385 58.2387H150.225C150.305 55.8387 149.225 53.7987 146.465 53.7987ZM165.194 71.3188C160.234 71.3188 156.274 69.2387 155.914 64.0787H160.994C161.194 65.8387 162.394 67.3987 165.194 67.3987C167.154 67.3987 168.554 66.7187 168.554 65.1587C168.554 63.6787 166.794 63.1187 163.794 62.1187C160.674 61.0787 157.914 59.7587 157.914 56.1187C157.914 51.9587 161.234 49.6387 165.914 49.6387C170.514 49.6387 173.954 51.9587 174.314 56.4387H169.394C169.154 54.8387 168.034 53.4787 165.754 53.4787C164.314 53.4787 162.674 53.9587 162.674 55.5187C162.674 56.9187 164.514 57.2387 167.674 58.3187C170.634 59.3187 173.474 60.8387 173.474 64.4387C173.474 68.8387 170.394 71.3188 165.194 71.3188ZM183.866 71.3188C178.906 71.3188 174.946 69.2387 174.586 64.0787H179.666C179.866 65.8387 181.066 67.3987 183.866 67.3987C185.826 67.3987 187.226 66.7187 187.226 65.1587C187.226 63.6787 185.466 63.1187 182.466 62.1187C179.346 61.0787 176.586 59.7587 176.586 56.1187C176.586 51.9587 179.906 49.6387 184.586 49.6387C189.186 49.6387 192.626 51.9587 192.986 56.4387H188.066C187.826 54.8387 186.706 53.4787 184.426 53.4787C182.986 53.4787 181.346 53.9587 181.346 55.5187C181.346 56.9187 183.186 57.2387 186.346 58.3187C189.306 59.3187 192.146 60.8387 192.146 64.4387C192.146 68.8387 189.066 71.3188 183.866 71.3188ZM195.613 58.6787L196.733 52.8787H202.493L201.373 58.6787H195.613ZM193.293 70.7188L194.413 64.9187H200.173L199.053 70.7188H193.293ZM209.676 70.7188L215.196 42.1187H226.716C232.356 42.1187 235.356 45.2387 235.356 49.7187C235.356 53.8387 232.876 56.2787 229.076 57.2387V57.3587C231.356 58.0787 232.596 59.5987 232.596 62.2787C232.596 63.9187 232.276 66.3987 232.276 68.5987C232.276 69.4787 232.436 70.2387 232.836 70.4387V70.7188H227.316C226.996 70.3587 226.876 69.5587 226.876 68.5987C226.876 66.7987 227.116 64.7187 227.116 63.0787C227.116 60.5187 225.676 59.2387 222.796 59.2387H217.596L215.396 70.7188H209.676ZM220.036 46.7587L218.476 54.7987H224.436C227.196 54.7987 229.636 53.5187 229.636 50.3587C229.636 48.0387 228.356 46.7587 225.836 46.7587H220.036ZM254.834 61.9587H240.554C240.554 65.1987 241.634 67.1587 244.754 67.1587C246.634 67.1587 248.194 66.3587 248.954 64.5987H254.234C253.594 66.5187 252.514 68.0788 251.074 69.1987C249.354 70.5587 247.154 71.2788 244.674 71.3188C239.354 71.3188 235.234 68.3587 235.234 61.8787C235.234 55.9187 239.594 49.6387 246.234 49.6387C248.474 49.6387 250.034 50.0787 251.394 50.9587C254.474 52.9587 255.594 57.0387 254.834 61.9587ZM246.114 53.7987C243.274 53.7987 241.754 55.8387 241.034 58.2387H249.874C249.954 55.8387 248.874 53.7987 246.114 53.7987ZM257.057 53.9587L257.777 50.1987H260.457L260.937 47.7587C261.737 43.6387 264.377 42.0787 268.017 42.0387C268.937 42.0387 269.897 42.1187 270.897 42.2787L270.097 46.4387C269.537 46.3587 269.017 46.3187 268.577 46.3187C267.097 46.3187 266.457 46.8787 266.137 48.4787L265.777 50.1987H269.337L268.617 53.9587H265.057L261.817 70.7188H256.497L259.737 53.9587H257.057ZM267.857 70.7188L273.377 42.1187H278.737L273.217 70.7188H267.857ZM297.256 61.9587H282.976C282.976 65.1987 284.056 67.1587 287.176 67.1587C289.056 67.1587 290.616 66.3587 291.376 64.5987H296.656C296.016 66.5187 294.936 68.0788 293.496 69.1987C291.776 70.5587 289.576 71.2788 287.096 71.3188C281.776 71.3188 277.656 68.3587 277.656 61.8787C277.656 55.9187 282.016 49.6387 288.656 49.6387C290.896 49.6387 292.456 50.0787 293.816 50.9587C296.896 52.9587 298.016 57.0387 297.256 61.9587ZM288.536 53.7987C285.696 53.7987 284.176 55.8387 283.456 58.2387H292.296C292.376 55.8387 291.296 53.7987 288.536 53.7987ZM295.683 70.7188L304.683 59.7587L300.123 50.1987H305.923L308.403 56.4387H308.483L312.843 50.1987H318.683L310.683 60.3187L315.723 70.7188H309.763L307.003 63.9187H306.923L301.643 70.7188H295.683ZM345.507 70.7188L345.987 67.1987H345.907C344.027 69.7987 341.187 71.3188 337.667 71.3188C330.987 71.3188 326.267 66.9987 326.267 59.1587C326.267 50.2787 332.387 41.5187 341.867 41.5587C347.707 41.5987 352.467 44.5187 352.907 51.1187H347.347C347.027 48.1188 344.827 46.3187 341.427 46.3187C335.347 46.3187 332.107 52.7187 332.107 59.0787C332.107 63.8387 334.307 66.6787 338.907 66.6787C343.027 66.6787 346.107 64.0387 346.787 59.9587H340.027L340.867 55.5187H352.707L349.787 70.7188H345.507ZM366.02 70.7188C365.78 70.2787 365.7 69.3988 365.74 68.4787H365.66C364.42 69.7987 362.9 71.1988 359.94 71.1988C356.78 71.1988 353.42 69.3988 353.42 65.1587C353.42 59.7187 357.74 58.7187 362.74 58.3187C366.58 57.9987 368.06 57.8387 368.06 55.7987C368.06 54.3187 366.9 53.5187 364.86 53.5187C362.62 53.5187 361.14 54.3987 360.66 56.4387H355.86C356.54 52.2387 359.78 49.6787 365.06 49.6787C370.14 49.6787 373.98 51.8787 372.86 57.8387L370.94 67.6787C370.66 69.0787 370.78 70.0387 371.1 70.5187V70.7188H366.02ZM358.58 64.6787C358.58 66.5187 359.86 67.4787 361.66 67.4787C364.46 67.4787 366.26 65.7188 366.66 63.8387L367.3 60.5987C366.26 61.0787 365.14 61.3187 363.38 61.6387C361.42 61.9987 358.58 61.8787 358.58 64.6787ZM373.767 70.7188L377.727 50.1987H382.887L382.327 53.1987H382.447C383.847 50.9987 385.687 49.6387 388.207 49.6387C390.967 49.6387 392.527 51.2787 393.127 53.5587H393.207C395.047 50.7587 397.287 49.6387 400.007 49.6387C403.687 49.6387 406.487 52.5187 405.407 57.9587L402.967 70.7188H397.607L400.047 58.1187C400.527 55.5587 399.487 54.1987 397.607 54.1987C395.327 54.1987 393.807 56.2387 393.207 59.3987L391.047 70.7188H385.687L388.127 58.1187C388.607 55.5587 387.567 54.1987 385.687 54.1987C383.407 54.1987 381.887 56.2387 381.287 59.3987L379.127 70.7188H373.767ZM426.748 61.9587H412.468C412.468 65.1987 413.548 67.1587 416.668 67.1587C418.548 67.1587 420.108 66.3587 420.868 64.5987H426.148C425.508 66.5187 424.428 68.0788 422.988 69.1987C421.268 70.5587 419.068 71.2788 416.588 71.3188C411.268 71.3188 407.148 68.3587 407.148 61.8787C407.148 55.9187 411.508 49.6387 418.148 49.6387C420.388 49.6387 421.948 50.0787 423.308 50.9587C426.388 52.9587 427.508 57.0387 426.748 61.9587ZM418.028 53.7987C415.188 53.7987 413.668 55.8387 412.948 58.2387H421.788C421.868 55.8387 420.788 53.7987 418.028 53.7987Z" fill="black"/>
</svg>
