<svg width="368" height="124" viewBox="0 0 368 124" fill="none" xmlns="http://www.w3.org/2000/svg">
<path d="M367.202 0.429688L-234.181 0.46936L-267.992 123.645L333.488 123.648L367.202 0.429688Z" fill="white"/>
<path d="M49.8055 75.5391L55.3255 46.9391H61.0455L55.5255 75.5391H49.8055ZM68.6427 55.0191L68.0427 58.2591H68.1627C69.9227 55.7391 71.6427 54.4591 74.5627 54.4591C78.6427 54.4591 81.0027 57.7791 80.0827 62.5791L77.6027 75.5391H72.2427L74.6427 63.2191C75.1627 60.4991 74.1227 59.0191 71.8427 59.0191C69.3227 59.0191 67.5227 61.3391 66.9627 64.3391L64.8027 75.5391H59.4427L63.4027 55.0191H68.6427ZM80.888 75.5391L84.848 55.0191H90.208L86.248 75.5391H80.888ZM85.488 51.8191L86.408 46.9391H91.768L90.848 51.8191H85.488ZM91.797 58.6191L92.477 55.0191H95.077L96.317 48.6191H101.557L100.317 55.0191H103.757L103.077 58.6191H99.637L97.557 69.2991C97.237 70.8991 97.757 71.5391 99.077 71.5391C99.677 71.5391 100.677 71.4591 100.677 71.4591L99.917 75.4591C99.917 75.4591 98.557 75.5791 97.477 75.5791C93.317 75.5791 91.357 74.0591 92.197 69.8191L94.397 58.6191H91.797ZM102.568 75.5391L106.528 55.0191H111.888L107.928 75.5391H102.568ZM107.168 51.8191L108.088 46.9391H113.448L112.528 51.8191H107.168ZM124.157 75.5391C123.917 75.0991 123.837 74.2191 123.877 73.2991H123.797C122.557 74.6191 121.037 76.0191 118.077 76.0191C114.917 76.0191 111.557 74.2191 111.557 69.9791C111.557 64.5391 115.877 63.5391 120.877 63.1391C124.717 62.8191 126.197 62.6591 126.197 60.6191C126.197 59.1391 125.037 58.3391 122.997 58.3391C120.757 58.3391 119.277 59.2191 118.797 61.2591H113.997C114.677 57.0591 117.917 54.4991 123.197 54.4991C128.277 54.4991 132.117 56.6991 130.997 62.6591L129.077 72.4991C128.797 73.8991 128.917 74.8591 129.237 75.3391V75.5391H124.157ZM116.717 69.4991C116.717 71.3391 117.997 72.2991 119.797 72.2991C122.597 72.2991 124.397 70.5391 124.797 68.6591L125.437 65.4191C124.397 65.8991 123.277 66.1391 121.517 66.4591C119.557 66.8191 116.717 66.6991 116.717 69.4991ZM131.984 75.5391L137.504 46.9391H142.864L137.344 75.5391H131.984ZM148.242 75.5391L153.762 46.9391H165.282C170.922 46.9391 173.922 50.0591 173.922 54.5391C173.922 58.6591 171.442 61.0991 167.642 62.0591V62.1791C169.922 62.8991 171.162 64.4191 171.162 67.0991C171.162 68.7391 170.842 71.2191 170.842 73.4191C170.842 74.2991 171.002 75.0591 171.402 75.2591V75.5391H165.882C165.562 75.1791 165.442 74.3791 165.442 73.4191C165.442 71.6191 165.682 69.5391 165.682 67.8991C165.682 65.3391 164.242 64.0591 161.362 64.0591H156.162L153.962 75.5391H148.242ZM158.602 51.5791L157.042 59.6191H163.002C165.762 59.6191 168.202 58.3391 168.202 55.1791C168.202 52.8591 166.922 51.5791 164.402 51.5791H158.602ZM193.4 66.7791H179.12C179.12 70.0191 180.2 71.9791 183.32 71.9791C185.2 71.9791 186.76 71.1791 187.52 69.4191H192.8C192.16 71.3391 191.08 72.8991 189.64 74.0191C187.92 75.3791 185.72 76.0991 183.24 76.1391C177.92 76.1391 173.8 73.1791 173.8 66.6991C173.8 60.7391 178.16 54.4591 184.8 54.4591C187.04 54.4591 188.6 54.8991 189.96 55.7791C193.04 57.7791 194.16 61.8591 193.4 66.7791ZM184.68 58.6191C181.84 58.6191 180.32 60.6591 179.6 63.0591H188.44C188.52 60.6591 187.44 58.6191 184.68 58.6191ZM203.409 76.1391C198.449 76.1391 194.489 74.0591 194.129 68.8991H199.209C199.409 70.6591 200.609 72.2191 203.409 72.2191C205.369 72.2191 206.769 71.5391 206.769 69.9791C206.769 68.4991 205.009 67.9391 202.009 66.9391C198.889 65.8991 196.129 64.5791 196.129 60.9391C196.129 56.7791 199.449 54.4591 204.129 54.4591C208.729 54.4591 212.169 56.7791 212.529 61.2591H207.609C207.369 59.6591 206.249 58.2991 203.969 58.2991C202.529 58.2991 200.889 58.7791 200.889 60.3391C200.889 61.7391 202.729 62.0591 205.889 63.1391C208.849 64.1391 211.689 65.6591 211.689 69.2591C211.689 73.6591 208.609 76.1391 203.409 76.1391ZM233.166 66.7791H218.886C218.886 70.0191 219.966 71.9791 223.086 71.9791C224.966 71.9791 226.526 71.1791 227.286 69.4191H232.566C231.926 71.3391 230.846 72.8991 229.406 74.0191C227.686 75.3791 225.486 76.0991 223.006 76.1391C217.686 76.1391 213.566 73.1791 213.566 66.6991C213.566 60.7391 217.926 54.4591 224.566 54.4591C226.806 54.4591 228.366 54.8991 229.726 55.7791C232.806 57.7791 233.926 61.8591 233.166 66.7791ZM224.446 58.6191C221.606 58.6191 220.086 60.6591 219.366 63.0591H228.206C228.286 60.6591 227.206 58.6191 224.446 58.6191ZM246.93 75.5391C246.69 75.0991 246.61 74.2191 246.65 73.2991H246.57C245.33 74.6191 243.81 76.0191 240.85 76.0191C237.69 76.0191 234.33 74.2191 234.33 69.9791C234.33 64.5391 238.65 63.5391 243.65 63.1391C247.49 62.8191 248.97 62.6591 248.97 60.6191C248.97 59.1391 247.81 58.3391 245.77 58.3391C243.53 58.3391 242.05 59.2191 241.57 61.2591H236.77C237.45 57.0591 240.69 54.4991 245.97 54.4991C251.05 54.4991 254.89 56.6991 253.77 62.6591L251.85 72.4991C251.57 73.8991 251.69 74.8591 252.01 75.3391V75.5391H246.93ZM239.49 69.4991C239.49 71.3391 240.77 72.2991 242.57 72.2991C245.37 72.2991 247.17 70.5391 247.57 68.6591L248.21 65.4191C247.17 65.8991 246.05 66.1391 244.29 66.4591C242.33 66.8191 239.49 66.6991 239.49 69.4991ZM263.797 55.0191L263.157 58.2991H263.277C264.477 56.2591 266.117 54.7791 268.677 54.7791C269.437 54.7791 269.917 54.8591 270.197 54.9391L269.277 59.6591H269.157C265.437 59.1791 262.837 60.8991 261.957 65.5391L260.037 75.5391H254.677L258.637 55.0191H263.797ZM278.468 76.1391C273.468 76.1391 269.308 73.3391 269.308 67.0591C269.308 60.7391 273.508 54.4591 280.508 54.4591C285.068 54.4591 288.748 56.6191 289.028 61.9791H283.788C283.588 60.0191 282.508 58.7791 280.348 58.7791C276.388 58.7791 274.668 63.2991 274.668 67.2191C274.668 69.8591 275.828 71.8191 278.788 71.8191C280.788 71.8191 282.348 70.7391 283.068 68.2991H288.268C287.148 73.2191 283.508 76.1391 278.468 76.1391ZM299.815 46.9391L297.735 57.8591H297.855C299.535 55.5791 301.135 54.4591 304.055 54.4591C308.135 54.4591 310.495 57.7791 309.575 62.5791L307.095 75.5391H301.735L304.135 63.2191C304.655 60.4991 303.615 59.0191 301.335 59.0191C298.735 59.0191 297.015 61.3391 296.455 64.3391L294.295 75.5391H288.935L294.455 46.9391H299.815Z" fill="black"/>
</svg>
