<svg width="1422" height="402" viewBox="0 0 1422 402" fill="none" xmlns="http://www.w3.org/2000/svg">
<path d="M1396.76 1.70312L-188.957 1.83138L-297.391 400.036L1288.64 400.047L1396.76 1.70312Z" stroke="#ED2024" stroke-width="3"/>
<path d="M62.8455 86.2953C55.2455 86.2953 51.0055 81.1753 51.0055 74.1353C51.0055 65.4153 56.6055 56.5353 66.2855 56.5353C72.0855 56.5353 76.4455 59.4553 76.8055 66.1753H71.1655C70.8855 62.9353 69.1255 61.3753 65.8455 61.3753C59.6055 61.3753 56.8455 68.1353 56.8455 74.0553C56.8455 78.0153 58.4455 81.5753 63.2855 81.5753C66.6455 81.5753 68.9655 79.6553 69.9655 76.4953H75.6055C74.8055 79.4953 73.3655 82.0953 71.1255 83.8153C68.7655 85.6153 66.3255 86.2953 62.8455 86.2953ZM87.1195 57.0953L85.0395 68.0153H85.1595C86.8395 65.7353 88.4395 64.6153 91.3595 64.6153C95.4395 64.6153 97.7995 67.9353 96.8795 72.7353L94.3995 85.6953H89.0395L91.4395 73.3753C91.9595 70.6553 90.9195 69.1753 88.6395 69.1753C86.0395 69.1753 84.3195 71.4953 83.7595 74.4953L81.5995 85.6953H76.2395L81.7595 57.0953H87.1195ZM110.485 85.6953C110.245 85.2553 110.165 84.3753 110.205 83.4553H110.125C108.885 84.7753 107.365 86.1753 104.405 86.1753C101.245 86.1753 97.8848 84.3753 97.8848 80.1353C97.8848 74.6953 102.205 73.6953 107.205 73.2953C111.045 72.9753 112.525 72.8153 112.525 70.7753C112.525 69.2953 111.365 68.4953 109.325 68.4953C107.085 68.4953 105.605 69.3753 105.125 71.4153H100.325C101.005 67.2153 104.245 64.6553 109.525 64.6553C114.605 64.6553 118.445 66.8553 117.325 72.8153L115.405 82.6553C115.125 84.0553 115.245 85.0153 115.565 85.4953V85.6953H110.485ZM103.045 79.6553C103.045 81.4953 104.325 82.4553 106.125 82.4553C108.925 82.4553 110.725 80.6953 111.125 78.8153L111.765 75.5753C110.725 76.0553 109.605 76.2953 107.845 76.6153C105.885 76.9753 103.045 76.8553 103.045 79.6553ZM118.312 85.6953L123.832 57.0953H129.192L123.672 85.6953H118.312ZM127.257 85.6953L132.777 57.0953H138.137L132.617 85.6953H127.257ZM156.642 76.9353H142.362C142.362 80.1753 143.442 82.1353 146.562 82.1353C148.442 82.1353 150.002 81.3353 150.762 79.5753H156.042C155.402 81.4953 154.322 83.0553 152.882 84.1753C151.162 85.5353 148.962 86.2553 146.482 86.2953C141.162 86.2953 137.042 83.3353 137.042 76.8553C137.042 70.8953 141.402 64.6153 148.042 64.6153C150.282 64.6153 151.842 65.0553 153.202 65.9353C156.282 67.9353 157.402 72.0153 156.642 76.9353ZM147.922 68.7753C145.082 68.7753 143.562 70.8153 142.842 73.2153H151.682C151.762 70.8153 150.682 68.7753 147.922 68.7753ZM166.611 65.1753L166.011 68.4153H166.131C167.891 65.8953 169.611 64.6153 172.531 64.6153C176.611 64.6153 178.971 67.9353 178.051 72.7353L175.571 85.6953H170.211L172.611 73.3753C173.131 70.6553 172.091 69.1753 169.811 69.1753C167.291 69.1753 165.491 71.4953 164.931 74.4953L162.771 85.6953H157.411L161.371 65.1753H166.611ZM187.857 92.6953C183.777 92.6953 179.777 90.8953 179.257 86.2953H184.697C185.017 87.7753 186.057 88.6153 187.977 88.6153C190.537 88.6153 191.937 86.8953 192.417 84.2953L192.817 82.2153H192.697C191.337 83.5753 190.057 84.4553 187.657 84.4553C183.017 84.4553 179.937 81.0153 179.937 76.0953C179.937 70.0953 183.737 64.6153 189.937 64.6153C192.577 64.6153 194.697 65.7353 195.697 67.6553H195.777L196.257 65.1753H201.417L197.617 84.8153C197.137 87.2953 196.177 89.0553 194.697 90.4153C193.057 91.9353 191.057 92.6953 187.857 92.6953ZM189.217 80.1353C192.617 80.1353 194.657 76.8953 194.617 73.4953C194.577 70.8553 193.177 68.9353 190.537 68.9353C187.217 68.9353 185.257 72.0553 185.257 75.6953C185.257 78.2553 186.577 80.1353 189.217 80.1353ZM221.408 76.9353H207.128C207.128 80.1753 208.208 82.1353 211.328 82.1353C213.208 82.1353 214.768 81.3353 215.528 79.5753H220.808C220.168 81.4953 219.088 83.0553 217.648 84.1753C215.928 85.5353 213.728 86.2553 211.248 86.2953C205.928 86.2953 201.808 83.3353 201.808 76.8553C201.808 70.8953 206.168 64.6153 212.808 64.6153C215.048 64.6153 216.608 65.0553 217.968 65.9353C221.048 67.9353 222.168 72.0153 221.408 76.9353ZM212.688 68.7753C209.848 68.7753 208.328 70.8153 207.608 73.2153H216.448C216.528 70.8153 215.448 68.7753 212.688 68.7753Z" fill="white"/>
<path d="M51.5305 134.547V115.947H58.4055C63.9555 115.947 66.7055 119.747 66.7055 125.322C66.7055 130.872 63.8055 134.547 58.2305 134.547H51.5305ZM54.1055 132.322H58.1305C62.3305 132.322 64.0555 129.597 64.0555 125.322C64.0555 121.047 62.5055 118.172 58.2805 118.172H54.1055V132.322ZM75.341 134.922C71.216 134.922 68.791 131.772 68.791 127.847C68.791 123.947 71.366 120.797 75.216 120.797C77.216 120.797 78.766 121.572 79.816 122.872C80.916 124.197 81.466 126.122 81.466 128.397H71.166C71.341 131.022 72.766 133.022 75.366 133.022C77.216 133.022 78.491 132.147 78.916 130.722H81.191C80.591 133.222 78.441 134.922 75.341 134.922ZM75.216 122.597C72.791 122.597 71.516 124.347 71.216 126.722H78.991C78.866 124.147 77.541 122.597 75.216 122.597ZM86.9006 134.547L82.2256 121.122H84.7006L87.0506 128.372C87.6256 130.172 88.2756 132.647 88.2756 132.647H88.3256C88.3256 132.647 88.9006 130.172 89.5006 128.372L91.9006 121.122H94.3006L89.4756 134.547H86.9006ZM101.611 134.922C97.4855 134.922 95.0605 131.772 95.0605 127.847C95.0605 123.947 97.6355 120.797 101.486 120.797C103.486 120.797 105.036 121.572 106.086 122.872C107.186 124.197 107.736 126.122 107.736 128.397H97.4355C97.6105 131.022 99.0355 133.022 101.636 133.022C103.486 133.022 104.761 132.147 105.186 130.722H107.461C106.861 133.222 104.711 134.922 101.611 134.922ZM101.486 122.597C99.0605 122.597 97.7855 124.347 97.4855 126.722H105.261C105.136 124.147 103.811 122.597 101.486 122.597ZM110.289 134.547V115.947H112.614V134.547H110.289ZM121.728 134.922C117.678 134.922 115.153 131.772 115.153 127.847C115.153 123.947 117.678 120.797 121.728 120.797C125.778 120.797 128.253 123.947 128.253 127.847C128.253 131.772 125.778 134.922 121.728 134.922ZM121.703 133.022C124.453 133.022 125.878 130.747 125.878 127.847C125.878 124.947 124.453 122.647 121.703 122.647C118.953 122.647 117.528 124.947 117.528 127.847C117.528 130.747 118.953 133.022 121.703 133.022ZM130.722 139.097V121.122H133.022V123.222H133.097C134.097 121.697 135.447 120.797 137.372 120.797C140.797 120.797 143.147 123.447 143.147 127.872C143.147 132.172 140.922 134.947 137.297 134.947C135.472 134.947 133.997 134.197 133.072 132.772H132.997C133.022 133.247 133.047 133.997 133.047 135.022V139.097H130.722ZM137.047 133.022C139.522 133.022 140.772 130.847 140.772 127.922C140.772 124.972 139.547 122.772 137.072 122.772C134.222 122.772 132.922 125.072 132.922 127.922C132.922 130.747 134.072 133.022 137.047 133.022ZM156.255 134.822C153.705 134.822 151.705 133.572 151.705 130.997C151.705 127.872 154.005 127.197 157.48 126.772C159.455 126.547 160.73 126.222 160.73 124.847C160.73 123.397 159.705 122.497 157.855 122.497C155.73 122.497 154.705 123.497 154.63 125.097H152.38C152.48 122.822 154.205 120.797 157.83 120.797C159.105 120.797 160.23 121.022 161.08 121.522C162.205 122.197 162.88 123.372 162.88 125.172V131.447C162.88 132.522 163.13 133.097 164.305 132.847H164.405V134.472C164.08 134.572 163.705 134.672 163.155 134.672C161.73 134.672 161.03 133.997 160.78 132.572H160.755C159.905 133.747 158.53 134.822 156.255 134.822ZM156.83 133.122C159.505 133.122 160.755 131.147 160.755 129.597V127.397C160.08 127.822 158.905 128.147 157.805 128.347C155.605 128.722 154.155 129.122 154.155 130.972C154.155 132.697 155.48 133.122 156.83 133.122ZM175.834 134.547L171.584 121.122H174.059L176.159 128.572C176.584 130.097 177.034 132.497 177.034 132.497H177.084C177.084 132.497 177.534 130.247 177.984 128.622L180.009 121.122H182.209L184.209 128.622C184.584 130.047 185.059 132.522 185.059 132.522H185.109C185.109 132.522 185.484 130.222 185.984 128.572L188.209 121.122H190.609L186.234 134.547H183.909L181.934 127.147C181.609 125.847 181.084 123.397 181.084 123.397H181.034C181.034 123.397 180.534 125.872 180.209 127.147L178.184 134.547H175.834ZM198.046 134.922C193.921 134.922 191.496 131.772 191.496 127.847C191.496 123.947 194.071 120.797 197.921 120.797C199.921 120.797 201.471 121.572 202.521 122.872C203.621 124.197 204.171 126.122 204.171 128.397H193.871C194.046 131.022 195.471 133.022 198.071 133.022C199.921 133.022 201.196 132.147 201.621 130.722H203.896C203.296 133.222 201.146 134.922 198.046 134.922ZM197.921 122.597C195.496 122.597 194.221 124.347 193.921 126.722H201.696C201.571 124.147 200.246 122.597 197.921 122.597ZM213.225 134.947C211.425 134.947 209.9 134.147 209.025 132.647H208.95V134.547H206.65V115.947H208.975V120.697C208.975 121.722 208.925 122.672 208.9 123.247H208.975C209.85 121.822 211.35 120.797 213.3 120.797C216.7 120.797 219.025 123.447 219.025 127.872C219.025 132.197 216.85 134.947 213.225 134.947ZM212.975 133.022C215.45 133.022 216.65 130.847 216.65 127.897C216.65 124.947 215.45 122.747 213 122.747C210.15 122.747 208.85 125.047 208.85 127.897C208.85 130.822 210.225 133.022 212.975 133.022ZM221.094 128.472V126.372H228.044V128.472H221.094ZM237.419 134.947C235.619 134.947 234.094 134.147 233.219 132.647H233.144V134.547H230.844V115.947H233.169V120.697C233.169 121.722 233.119 122.672 233.094 123.247H233.169C234.044 121.822 235.544 120.797 237.494 120.797C240.894 120.797 243.219 123.447 243.219 127.872C243.219 132.197 241.044 134.947 237.419 134.947ZM237.169 133.022C239.644 133.022 240.844 130.847 240.844 127.897C240.844 124.947 239.644 122.747 237.194 122.747C234.344 122.747 233.044 125.047 233.044 127.897C233.044 130.822 234.419 133.022 237.169 133.022ZM249.688 134.822C247.138 134.822 245.138 133.572 245.138 130.997C245.138 127.872 247.438 127.197 250.913 126.772C252.888 126.547 254.163 126.222 254.163 124.847C254.163 123.397 253.138 122.497 251.288 122.497C249.163 122.497 248.138 123.497 248.063 125.097H245.813C245.913 122.822 247.638 120.797 251.263 120.797C252.538 120.797 253.663 121.022 254.513 121.522C255.638 122.197 256.313 123.372 256.313 125.172V131.447C256.313 132.522 256.563 133.097 257.738 132.847H257.838V134.472C257.513 134.572 257.138 134.672 256.588 134.672C255.163 134.672 254.463 133.997 254.213 132.572H254.188C253.338 133.747 251.963 134.822 249.688 134.822ZM250.263 133.122C252.938 133.122 254.188 131.147 254.188 129.597V127.397C253.513 127.822 252.338 128.147 251.238 128.347C249.038 128.722 247.588 129.122 247.588 130.972C247.588 132.697 248.913 133.122 250.263 133.122ZM264.876 134.947C261.176 134.947 259.076 133.197 258.876 130.472H261.226C261.501 132.422 263.001 133.072 264.926 133.072C267.051 133.072 267.951 132.147 267.951 130.947C267.951 129.472 266.826 129.097 264.451 128.622C261.826 128.072 259.451 127.522 259.451 124.572C259.451 122.272 261.251 120.822 264.376 120.822C267.751 120.822 269.426 122.397 269.726 124.722H267.401C267.201 123.347 266.251 122.572 264.326 122.572C262.501 122.572 261.726 123.422 261.726 124.447C261.726 125.847 263.026 126.122 265.301 126.572C267.976 127.097 270.276 127.697 270.276 130.822C270.276 133.547 268.026 134.947 264.876 134.947ZM278.857 134.922C274.732 134.922 272.307 131.772 272.307 127.847C272.307 123.947 274.882 120.797 278.732 120.797C280.732 120.797 282.282 121.572 283.332 122.872C284.432 124.197 284.982 126.122 284.982 128.397H274.682C274.857 131.022 276.282 133.022 278.882 133.022C280.732 133.022 282.007 132.147 282.432 130.722H284.707C284.107 133.222 281.957 134.922 278.857 134.922ZM278.732 122.597C276.307 122.597 275.032 124.347 274.732 126.722H282.507C282.382 124.147 281.057 122.597 278.732 122.597ZM292.66 134.947C289.035 134.947 286.735 132.197 286.735 127.872C286.735 123.447 289.285 120.797 292.61 120.797C294.51 120.797 296.01 121.747 296.86 123.172H296.91C296.86 122.572 296.835 121.597 296.835 120.697V115.947H299.16V134.547H296.86V132.622H296.81C295.96 134.072 294.535 134.947 292.66 134.947ZM292.835 133.022C295.71 133.022 296.96 130.847 296.96 127.897C296.96 124.872 295.535 122.747 292.835 122.747C290.36 122.747 289.11 124.947 289.11 127.897C289.11 130.847 290.36 133.022 292.835 133.022ZM312.994 134.822C310.444 134.822 308.444 133.572 308.444 130.997C308.444 127.872 310.744 127.197 314.219 126.772C316.194 126.547 317.469 126.222 317.469 124.847C317.469 123.397 316.444 122.497 314.594 122.497C312.469 122.497 311.444 123.497 311.369 125.097H309.119C309.219 122.822 310.944 120.797 314.569 120.797C315.844 120.797 316.969 121.022 317.819 121.522C318.944 122.197 319.619 123.372 319.619 125.172V131.447C319.619 132.522 319.869 133.097 321.044 132.847H321.144V134.472C320.819 134.572 320.444 134.672 319.894 134.672C318.469 134.672 317.769 133.997 317.519 132.572H317.494C316.644 133.747 315.269 134.822 312.994 134.822ZM313.569 133.122C316.244 133.122 317.494 131.147 317.494 129.597V127.397C316.819 127.822 315.644 128.147 314.544 128.347C312.344 128.722 310.894 129.122 310.894 130.972C310.894 132.697 312.219 133.122 313.569 133.122ZM323.032 139.097V121.122H325.332V123.222H325.407C326.407 121.697 327.757 120.797 329.682 120.797C333.107 120.797 335.457 123.447 335.457 127.872C335.457 132.172 333.232 134.947 329.607 134.947C327.782 134.947 326.307 134.197 325.382 132.772H325.307C325.332 133.247 325.357 133.997 325.357 135.022V139.097H323.032ZM329.357 133.022C331.832 133.022 333.082 130.847 333.082 127.922C333.082 124.972 331.857 122.772 329.382 122.772C326.532 122.772 325.232 125.072 325.232 127.922C325.232 130.747 326.382 133.022 329.357 133.022ZM337.924 139.097V121.122H340.224V123.222H340.299C341.299 121.697 342.649 120.797 344.574 120.797C347.999 120.797 350.349 123.447 350.349 127.872C350.349 132.172 348.124 134.947 344.499 134.947C342.674 134.947 341.199 134.197 340.274 132.772H340.199C340.224 133.247 340.249 133.997 340.249 135.022V139.097H337.924ZM344.249 133.022C346.724 133.022 347.974 130.847 347.974 127.922C347.974 124.972 346.749 122.772 344.274 122.772C341.424 122.772 340.124 125.072 340.124 127.922C340.124 130.747 341.274 133.022 344.249 133.022ZM358.632 122.947V121.122H360.707V119.272C360.707 118.022 361.032 117.147 361.657 116.597C362.307 116.047 363.307 115.822 364.607 115.822C364.957 115.822 365.382 115.847 365.807 115.872V117.797C363.607 117.647 363.032 117.997 363.032 119.372V121.122H365.782V122.947H363.032V134.547H360.707V122.947H358.632ZM373.656 134.922C369.531 134.922 367.106 131.772 367.106 127.847C367.106 123.947 369.681 120.797 373.531 120.797C375.531 120.797 377.081 121.572 378.131 122.872C379.231 124.197 379.781 126.122 379.781 128.397H369.481C369.656 131.022 371.081 133.022 373.681 133.022C375.531 133.022 376.806 132.147 377.231 130.722H379.506C378.906 133.222 376.756 134.922 373.656 134.922ZM373.531 122.597C371.106 122.597 369.831 124.347 369.531 126.722H377.306C377.181 124.147 375.856 122.597 373.531 122.597ZM386.26 134.822C383.71 134.822 381.71 133.572 381.71 130.997C381.71 127.872 384.01 127.197 387.485 126.772C389.46 126.547 390.735 126.222 390.735 124.847C390.735 123.397 389.71 122.497 387.86 122.497C385.735 122.497 384.71 123.497 384.635 125.097H382.385C382.485 122.822 384.21 120.797 387.835 120.797C389.11 120.797 390.235 121.022 391.085 121.522C392.21 122.197 392.885 123.372 392.885 125.172V131.447C392.885 132.522 393.135 133.097 394.31 132.847H394.41V134.472C394.085 134.572 393.71 134.672 393.16 134.672C391.735 134.672 391.035 133.997 390.785 132.572H390.76C389.91 133.747 388.535 134.822 386.26 134.822ZM386.835 133.122C389.51 133.122 390.76 131.147 390.76 129.597V127.397C390.085 127.822 388.91 128.147 387.81 128.347C385.61 128.722 384.16 129.122 384.16 130.972C384.16 132.697 385.485 133.122 386.835 133.122ZM395.229 122.922V121.122H397.329V116.897H399.629V121.122H402.404V122.922H399.629V131.397C399.629 132.372 400.154 132.647 401.004 132.647C401.404 132.647 401.929 132.547 402.179 132.472H402.254V134.422C401.629 134.572 400.979 134.647 400.379 134.647C398.579 134.622 397.329 133.897 397.329 131.922V122.922H395.229ZM415.694 134.547H413.394V132.672H413.344C412.394 133.997 411.219 134.847 409.294 134.847C406.519 134.847 404.744 133.172 404.744 130.372V121.122H407.069V130.247C407.069 131.947 408.144 132.947 409.994 132.947C412.044 132.947 413.369 131.372 413.369 129.297V121.122H415.694V134.547ZM421.23 121.122V123.547H421.305C422.13 121.997 423.505 120.947 425.28 120.947C425.655 120.947 425.88 120.997 426.13 121.097V123.297H426.055C425.73 123.197 425.505 123.172 425.105 123.172C423.03 123.172 421.255 124.722 421.255 127.247V134.547H418.93V121.122H421.23ZM428.353 118.647V115.947H430.778V118.647H428.353ZM428.403 134.547V121.122H430.728V134.547H428.403ZM436.22 121.122V123.022H436.295C437.27 121.672 438.595 120.797 440.545 120.797C443.345 120.797 445.07 122.372 445.07 125.172V134.547H442.77V125.447C442.77 123.722 441.645 122.747 439.82 122.747C437.745 122.747 436.245 124.222 436.245 126.372V134.547H433.92V121.122H436.22ZM453.878 139.247C450.353 139.247 448.353 137.847 448.103 135.472H450.278C450.478 136.872 451.828 137.447 453.828 137.447C456.228 137.447 457.553 136.372 457.553 134.097V133.722C457.553 132.947 457.578 132.222 457.603 131.797H457.553C456.628 133.122 455.453 133.947 453.553 133.947C450.128 133.947 447.678 131.272 447.678 127.372C447.678 123.247 450.278 120.797 453.428 120.797C455.353 120.797 456.653 121.547 457.503 122.897H457.553V121.122H459.853V133.997C459.853 135.772 459.253 137.097 458.228 137.972C457.178 138.847 455.678 139.247 453.878 139.247ZM453.778 132.047C456.703 132.047 457.703 129.997 457.703 127.272C457.703 124.447 456.428 122.722 453.753 122.722C451.303 122.722 450.053 124.572 450.053 127.397C450.053 130.247 451.353 132.047 453.778 132.047ZM468.886 122.947V121.122H470.961V119.272C470.961 118.022 471.286 117.147 471.911 116.597C472.561 116.047 473.561 115.822 474.861 115.822C475.211 115.822 475.636 115.847 476.061 115.872V117.797C473.861 117.647 473.286 117.997 473.286 119.372V121.122H476.036V122.947H473.286V134.547H470.961V122.947H468.886ZM482.085 134.822C479.535 134.822 477.535 133.572 477.535 130.997C477.535 127.872 479.835 127.197 483.31 126.772C485.285 126.547 486.56 126.222 486.56 124.847C486.56 123.397 485.535 122.497 483.685 122.497C481.56 122.497 480.535 123.497 480.46 125.097H478.21C478.31 122.822 480.035 120.797 483.66 120.797C484.935 120.797 486.06 121.022 486.91 121.522C488.035 122.197 488.71 123.372 488.71 125.172V131.447C488.71 132.522 488.96 133.097 490.135 132.847H490.235V134.472C489.91 134.572 489.535 134.672 488.985 134.672C487.56 134.672 486.86 133.997 486.61 132.572H486.585C485.735 133.747 484.36 134.822 482.085 134.822ZM482.66 133.122C485.335 133.122 486.585 131.147 486.585 129.597V127.397C485.91 127.822 484.735 128.147 483.635 128.347C481.435 128.722 479.985 129.122 479.985 130.972C479.985 132.697 481.31 133.122 482.66 133.122ZM492.123 134.547V121.122H494.423V123.122H494.498C495.323 121.672 496.748 120.797 498.473 120.797C500.098 120.797 501.398 121.647 501.948 123.297H501.998C502.948 121.622 504.523 120.797 506.148 120.797C508.598 120.797 510.298 122.372 510.298 125.172V134.547H507.973V125.372C507.973 123.722 506.898 122.747 505.548 122.747C503.848 122.747 502.373 124.222 502.373 126.272V134.547H500.073V125.372C500.073 123.722 499.148 122.747 497.773 122.747C496.173 122.747 494.448 124.222 494.448 126.272V134.547H492.123ZM513.363 118.647V115.947H515.788V118.647H513.363ZM513.413 134.547V121.122H515.738V134.547H513.413ZM519.005 134.547V115.947H521.33V134.547H519.005ZM526.244 139.222C525.494 139.222 524.644 139.097 524.269 138.947V136.947H524.369C524.619 137.097 525.194 137.197 525.769 137.197C526.694 137.197 527.294 136.847 527.769 135.572C527.769 135.522 528.294 134.022 528.244 133.872L523.119 121.122H525.644L528.419 128.572C528.969 130.097 529.544 132.197 529.544 132.197H529.594C529.594 132.197 530.219 130.072 530.744 128.572L533.419 121.122H535.844L530.144 135.772C529.044 138.597 527.969 139.222 526.244 139.222ZM536.67 128.472V126.372H543.62V128.472H536.67ZM545.595 122.947V121.122H547.67V119.272C547.67 118.022 547.995 117.147 548.62 116.597C549.27 116.047 550.27 115.822 551.57 115.822C551.92 115.822 552.345 115.847 552.77 115.872V117.797C550.57 117.647 549.995 117.997 549.995 119.372V121.122H552.745V122.947H549.995V134.547H547.67V122.947H545.595ZM557.461 121.122V123.547H557.536C558.361 121.997 559.736 120.947 561.511 120.947C561.886 120.947 562.111 120.997 562.361 121.097V123.297H562.286C561.961 123.197 561.736 123.172 561.336 123.172C559.261 123.172 557.486 124.722 557.486 127.247V134.547H555.161V121.122H557.461ZM564.583 118.647V115.947H567.008V118.647H564.583ZM564.633 134.547V121.122H566.958V134.547H564.633ZM575.976 134.922C571.851 134.922 569.426 131.772 569.426 127.847C569.426 123.947 572.001 120.797 575.851 120.797C577.851 120.797 579.401 121.572 580.451 122.872C581.551 124.197 582.101 126.122 582.101 128.397H571.801C571.976 131.022 573.401 133.022 576.001 133.022C577.851 133.022 579.126 132.147 579.551 130.722H581.826C581.226 133.222 579.076 134.922 575.976 134.922ZM575.851 122.597C573.426 122.597 572.151 124.347 571.851 126.722H579.626C579.501 124.147 578.176 122.597 575.851 122.597ZM586.879 121.122V123.022H586.954C587.929 121.672 589.254 120.797 591.204 120.797C594.004 120.797 595.729 122.372 595.729 125.172V134.547H593.429V125.447C593.429 123.722 592.304 122.747 590.479 122.747C588.404 122.747 586.904 124.222 586.904 126.372V134.547H584.579V121.122H586.879ZM604.062 134.947C600.437 134.947 598.137 132.197 598.137 127.872C598.137 123.447 600.687 120.797 604.012 120.797C605.912 120.797 607.412 121.747 608.262 123.172H608.312C608.262 122.572 608.237 121.597 608.237 120.697V115.947H610.562V134.547H608.262V132.622H608.212C607.362 134.072 605.937 134.947 604.062 134.947ZM604.237 133.022C607.112 133.022 608.362 130.847 608.362 127.897C608.362 124.872 606.937 122.747 604.237 122.747C601.762 122.747 600.512 124.947 600.512 127.897C600.512 130.847 601.762 133.022 604.237 133.022ZM613.829 134.547V115.947H616.154V134.547H613.829ZM621.068 139.222C620.318 139.222 619.468 139.097 619.093 138.947V136.947H619.193C619.443 137.097 620.018 137.197 620.593 137.197C621.518 137.197 622.118 136.847 622.593 135.572C622.593 135.522 623.118 134.022 623.068 133.872L617.943 121.122H620.468L623.243 128.572C623.793 130.097 624.368 132.197 624.368 132.197H624.418C624.418 132.197 625.043 130.072 625.568 128.572L628.243 121.122H630.668L624.968 135.772C623.868 138.597 622.793 139.222 621.068 139.222ZM643.023 134.822C640.473 134.822 638.473 133.572 638.473 130.997C638.473 127.872 640.773 127.197 644.248 126.772C646.223 126.547 647.498 126.222 647.498 124.847C647.498 123.397 646.473 122.497 644.623 122.497C642.498 122.497 641.473 123.497 641.398 125.097H639.148C639.248 122.822 640.973 120.797 644.598 120.797C645.873 120.797 646.998 121.022 647.848 121.522C648.973 122.197 649.648 123.372 649.648 125.172V131.447C649.648 132.522 649.898 133.097 651.073 132.847H651.173V134.472C650.848 134.572 650.473 134.672 649.923 134.672C648.498 134.672 647.798 133.997 647.548 132.572H647.523C646.673 133.747 645.298 134.822 643.023 134.822ZM643.598 133.122C646.273 133.122 647.523 131.147 647.523 129.597V127.397C646.848 127.822 645.673 128.147 644.573 128.347C642.373 128.722 640.923 129.122 640.923 130.972C640.923 132.697 642.248 133.122 643.598 133.122ZM658.886 134.922C654.861 134.922 652.336 131.772 652.336 127.847C652.336 123.947 654.861 120.797 658.886 120.797C662.111 120.797 664.211 122.622 664.686 125.497H662.361C662.036 123.747 660.836 122.672 658.886 122.672C656.136 122.672 654.711 124.947 654.711 127.847C654.711 130.747 656.136 133.022 658.886 133.022C660.986 133.022 662.236 131.797 662.411 129.797H664.711C664.411 132.997 662.286 134.922 658.886 134.922ZM666.225 122.922V121.122H668.325V116.897H670.625V121.122H673.4V122.922H670.625V131.397C670.625 132.372 671.15 132.647 672 132.647C672.4 132.647 672.925 132.547 673.175 132.472H673.25V134.422C672.625 134.572 671.975 134.647 671.375 134.647C669.575 134.622 668.325 133.897 668.325 131.922V122.922H666.225ZM675.765 118.647V115.947H678.19V118.647H675.765ZM675.815 134.547V121.122H678.14V134.547H675.815ZM684.532 134.547L679.857 121.122H682.332L684.682 128.372C685.257 130.172 685.907 132.647 685.907 132.647H685.957C685.957 132.647 686.532 130.172 687.132 128.372L689.532 121.122H691.932L687.107 134.547H684.532ZM693.612 118.647V115.947H696.037V118.647H693.612ZM693.662 134.547V121.122H695.987V134.547H693.662ZM698.354 122.922V121.122H700.454V116.897H702.754V121.122H705.529V122.922H702.754V131.397C702.754 132.372 703.279 132.647 704.129 132.647C704.529 132.647 705.054 132.547 705.304 132.472H705.379V134.422C704.754 134.572 704.104 134.647 703.504 134.647C701.704 134.622 700.454 133.897 700.454 131.922V122.922H698.354ZM707.894 118.647V115.947H710.319V118.647H707.894ZM707.944 134.547V121.122H710.269V134.547H707.944ZM719.286 134.922C715.161 134.922 712.736 131.772 712.736 127.847C712.736 123.947 715.311 120.797 719.161 120.797C721.161 120.797 722.711 121.572 723.761 122.872C724.861 124.197 725.411 126.122 725.411 128.397H715.111C715.286 131.022 716.711 133.022 719.311 133.022C721.161 133.022 722.436 132.147 722.861 130.722H725.136C724.536 133.222 722.386 134.922 719.286 134.922ZM719.161 122.597C716.736 122.597 715.461 124.347 715.161 126.722H722.936C722.811 124.147 721.486 122.597 719.161 122.597ZM733.04 134.947C729.34 134.947 727.24 133.197 727.04 130.472H729.39C729.665 132.422 731.165 133.072 733.09 133.072C735.215 133.072 736.115 132.147 736.115 130.947C736.115 129.472 734.99 129.097 732.615 128.622C729.99 128.072 727.615 127.522 727.615 124.572C727.615 122.272 729.415 120.822 732.54 120.822C735.915 120.822 737.59 122.397 737.89 124.722H735.565C735.365 123.347 734.415 122.572 732.49 122.572C730.665 122.572 729.89 123.422 729.89 124.447C729.89 125.847 731.19 126.122 733.465 126.572C736.14 127.097 738.44 127.697 738.44 130.822C738.44 133.547 736.19 134.947 733.04 134.947ZM751.592 134.822C749.042 134.822 747.042 133.572 747.042 130.997C747.042 127.872 749.342 127.197 752.817 126.772C754.792 126.547 756.067 126.222 756.067 124.847C756.067 123.397 755.042 122.497 753.192 122.497C751.067 122.497 750.042 123.497 749.967 125.097H747.717C747.817 122.822 749.542 120.797 753.167 120.797C754.442 120.797 755.567 121.022 756.417 121.522C757.542 122.197 758.217 123.372 758.217 125.172V131.447C758.217 132.522 758.467 133.097 759.642 132.847H759.742V134.472C759.417 134.572 759.042 134.672 758.492 134.672C757.067 134.672 756.367 133.997 756.117 132.572H756.092C755.242 133.747 753.867 134.822 751.592 134.822ZM752.167 133.122C754.842 133.122 756.092 131.147 756.092 129.597V127.397C755.417 127.822 754.242 128.147 753.142 128.347C750.942 128.722 749.492 129.122 749.492 130.972C749.492 132.697 750.817 133.122 752.167 133.122ZM763.93 121.122V123.022H764.005C764.98 121.672 766.305 120.797 768.255 120.797C771.055 120.797 772.78 122.372 772.78 125.172V134.547H770.48V125.447C770.48 123.722 769.355 122.747 767.53 122.747C765.455 122.747 763.955 124.222 763.955 126.372V134.547H761.63V121.122H763.93ZM781.113 134.947C777.488 134.947 775.188 132.197 775.188 127.872C775.188 123.447 777.738 120.797 781.063 120.797C782.963 120.797 784.463 121.747 785.313 123.172H785.363C785.313 122.572 785.288 121.597 785.288 120.697V115.947H787.613V134.547H785.313V132.622H785.263C784.413 134.072 782.988 134.947 781.113 134.947ZM781.288 133.022C784.163 133.022 785.413 130.847 785.413 127.897C785.413 124.872 783.988 122.747 781.288 122.747C778.813 122.747 777.563 124.947 777.563 127.897C777.563 130.847 778.813 133.022 781.288 133.022ZM803.121 139.247C799.596 139.247 797.596 137.847 797.346 135.472H799.521C799.721 136.872 801.071 137.447 803.071 137.447C805.471 137.447 806.796 136.372 806.796 134.097V133.722C806.796 132.947 806.821 132.222 806.846 131.797H806.796C805.871 133.122 804.696 133.947 802.796 133.947C799.371 133.947 796.921 131.272 796.921 127.372C796.921 123.247 799.521 120.797 802.671 120.797C804.596 120.797 805.896 121.547 806.746 122.897H806.796V121.122H809.096V133.997C809.096 135.772 808.496 137.097 807.471 137.972C806.421 138.847 804.921 139.247 803.121 139.247ZM803.021 132.047C805.946 132.047 806.946 129.997 806.946 127.272C806.946 124.447 805.671 122.722 802.996 122.722C800.546 122.722 799.296 124.572 799.296 127.397C799.296 130.247 800.596 132.047 803.021 132.047ZM816.314 134.822C813.764 134.822 811.764 133.572 811.764 130.997C811.764 127.872 814.064 127.197 817.539 126.772C819.514 126.547 820.789 126.222 820.789 124.847C820.789 123.397 819.764 122.497 817.914 122.497C815.789 122.497 814.764 123.497 814.689 125.097H812.439C812.539 122.822 814.264 120.797 817.889 120.797C819.164 120.797 820.289 121.022 821.139 121.522C822.264 122.197 822.939 123.372 822.939 125.172V131.447C822.939 132.522 823.189 133.097 824.364 132.847H824.464V134.472C824.139 134.572 823.764 134.672 823.214 134.672C821.789 134.672 821.089 133.997 820.839 132.572H820.814C819.964 133.747 818.589 134.822 816.314 134.822ZM816.889 133.122C819.564 133.122 820.814 131.147 820.814 129.597V127.397C820.139 127.822 818.964 128.147 817.864 128.347C815.664 128.722 814.214 129.122 814.214 130.972C814.214 132.697 815.539 133.122 816.889 133.122ZM826.352 134.547V121.122H828.652V123.122H828.727C829.552 121.672 830.977 120.797 832.702 120.797C834.327 120.797 835.627 121.647 836.177 123.297H836.227C837.177 121.622 838.752 120.797 840.377 120.797C842.827 120.797 844.527 122.372 844.527 125.172V134.547H842.202V125.372C842.202 123.722 841.127 122.747 839.777 122.747C838.077 122.747 836.602 124.222 836.602 126.272V134.547H834.302V125.372C834.302 123.722 833.377 122.747 832.002 122.747C830.402 122.747 828.677 124.222 828.677 126.272V134.547H826.352ZM853.466 134.922C849.341 134.922 846.916 131.772 846.916 127.847C846.916 123.947 849.491 120.797 853.341 120.797C855.341 120.797 856.891 121.572 857.941 122.872C859.041 124.197 859.591 126.122 859.591 128.397H849.291C849.466 131.022 850.891 133.022 853.491 133.022C855.341 133.022 856.616 132.147 857.041 130.722H859.316C858.716 133.222 856.566 134.922 853.466 134.922ZM853.341 122.597C850.916 122.597 849.641 124.347 849.341 126.722H857.116C856.991 124.147 855.666 122.597 853.341 122.597ZM867.22 134.947C863.52 134.947 861.42 133.197 861.22 130.472H863.57C863.845 132.422 865.345 133.072 867.27 133.072C869.395 133.072 870.295 132.147 870.295 130.947C870.295 129.472 869.17 129.097 866.795 128.622C864.17 128.072 861.795 127.522 861.795 124.572C861.795 122.272 863.595 120.822 866.72 120.822C870.095 120.822 871.77 122.397 872.07 124.722H869.745C869.545 123.347 868.595 122.572 866.67 122.572C864.845 122.572 864.07 123.422 864.07 124.447C864.07 125.847 865.37 126.122 867.645 126.572C870.32 127.097 872.62 127.697 872.62 130.822C872.62 133.547 870.37 134.947 867.22 134.947ZM874.881 134.547V131.797H877.581V134.547H874.881ZM50.3805 153.197V150.947H65.1805V153.197H59.0555V169.547H56.4805V153.197H50.3805ZM69.8879 155.822C69.8879 156.497 69.8379 157.422 69.8129 158.072H69.8879C70.8879 156.647 72.2379 155.797 74.1879 155.797C76.9879 155.797 78.7129 157.372 78.7129 160.172V169.547H76.4129V160.447C76.4129 158.722 75.2879 157.747 73.4629 157.747C71.3879 157.747 69.8879 159.222 69.8879 161.372V169.547H67.5629V150.947H69.8879V155.822ZM87.6701 169.922C83.5451 169.922 81.1201 166.772 81.1201 162.847C81.1201 158.947 83.6951 155.797 87.5451 155.797C89.5451 155.797 91.0951 156.572 92.1451 157.872C93.2451 159.197 93.7951 161.122 93.7951 163.397H83.4951C83.6701 166.022 85.0951 168.022 87.6951 168.022C89.5451 168.022 90.8201 167.147 91.2451 165.722H93.5201C92.9201 168.222 90.7701 169.922 87.6701 169.922ZM87.5451 157.597C85.1201 157.597 83.8451 159.347 83.5451 161.722H91.3201C91.1951 159.147 89.8701 157.597 87.5451 157.597ZM108.589 174.247C105.064 174.247 103.064 172.847 102.814 170.472H104.989C105.189 171.872 106.539 172.447 108.539 172.447C110.939 172.447 112.264 171.372 112.264 169.097V168.722C112.264 167.947 112.289 167.222 112.314 166.797H112.264C111.339 168.122 110.164 168.947 108.264 168.947C104.839 168.947 102.389 166.272 102.389 162.372C102.389 158.247 104.989 155.797 108.139 155.797C110.064 155.797 111.364 156.547 112.214 157.897H112.264V156.122H114.564V168.997C114.564 170.772 113.964 172.097 112.939 172.972C111.889 173.847 110.389 174.247 108.589 174.247ZM108.489 167.047C111.414 167.047 112.414 164.997 112.414 162.272C112.414 159.447 111.139 157.722 108.464 157.722C106.014 157.722 104.764 159.572 104.764 162.397C104.764 165.247 106.064 167.047 108.489 167.047ZM123.633 169.922C119.583 169.922 117.058 166.772 117.058 162.847C117.058 158.947 119.583 155.797 123.633 155.797C127.683 155.797 130.158 158.947 130.158 162.847C130.158 166.772 127.683 169.922 123.633 169.922ZM123.608 168.022C126.358 168.022 127.783 165.747 127.783 162.847C127.783 159.947 126.358 157.647 123.608 157.647C120.858 157.647 119.433 159.947 119.433 162.847C119.433 165.747 120.858 168.022 123.608 168.022ZM136.626 169.822C134.076 169.822 132.076 168.572 132.076 165.997C132.076 162.872 134.376 162.197 137.851 161.772C139.826 161.547 141.101 161.222 141.101 159.847C141.101 158.397 140.076 157.497 138.226 157.497C136.101 157.497 135.076 158.497 135.001 160.097H132.751C132.851 157.822 134.576 155.797 138.201 155.797C139.476 155.797 140.601 156.022 141.451 156.522C142.576 157.197 143.251 158.372 143.251 160.172V166.447C143.251 167.522 143.501 168.097 144.676 167.847H144.776V169.472C144.451 169.572 144.076 169.672 143.526 169.672C142.101 169.672 141.401 168.997 141.151 167.572H141.126C140.276 168.747 138.901 169.822 136.626 169.822ZM137.201 168.122C139.876 168.122 141.126 166.147 141.126 164.597V162.397C140.451 162.822 139.276 163.147 138.176 163.347C135.976 163.722 134.526 164.122 134.526 165.972C134.526 167.697 135.851 168.122 137.201 168.122ZM146.739 169.547V150.947H149.064V169.547H146.739ZM158.919 153.647V150.947H161.344V153.647H158.919ZM158.969 169.547V156.122H161.294V169.547H158.969ZM169.637 169.947C165.937 169.947 163.837 168.197 163.637 165.472H165.987C166.262 167.422 167.762 168.072 169.687 168.072C171.812 168.072 172.712 167.147 172.712 165.947C172.712 164.472 171.587 164.097 169.212 163.622C166.587 163.072 164.212 162.522 164.212 159.572C164.212 157.272 166.012 155.822 169.137 155.822C172.512 155.822 174.187 157.397 174.487 159.722H172.162C171.962 158.347 171.012 157.572 169.087 157.572C167.262 157.572 166.487 158.422 166.487 159.447C166.487 160.847 167.787 161.122 170.062 161.572C172.737 162.097 175.037 162.697 175.037 165.822C175.037 168.547 172.787 169.947 169.637 169.947ZM183.364 157.922V156.122H185.464V151.897H187.764V156.122H190.539V157.922H187.764V166.397C187.764 167.372 188.289 167.647 189.139 167.647C189.539 167.647 190.064 167.547 190.314 167.472H190.389V169.422C189.764 169.572 189.114 169.647 188.514 169.647C186.714 169.622 185.464 168.897 185.464 166.922V157.922H183.364ZM198.681 169.922C194.631 169.922 192.106 166.772 192.106 162.847C192.106 158.947 194.631 155.797 198.681 155.797C202.731 155.797 205.206 158.947 205.206 162.847C205.206 166.772 202.731 169.922 198.681 169.922ZM198.656 168.022C201.406 168.022 202.831 165.747 202.831 162.847C202.831 159.947 201.406 157.647 198.656 157.647C195.906 157.647 194.481 159.947 194.481 162.847C194.481 165.747 195.906 168.022 198.656 168.022ZM220.891 169.947C219.091 169.947 217.566 169.147 216.691 167.647H216.616V169.547H214.316V150.947H216.641V155.697C216.641 156.722 216.591 157.672 216.566 158.247H216.641C217.516 156.822 219.016 155.797 220.966 155.797C224.366 155.797 226.691 158.447 226.691 162.872C226.691 167.197 224.516 169.947 220.891 169.947ZM220.641 168.022C223.116 168.022 224.316 165.847 224.316 162.897C224.316 159.947 223.116 157.747 220.666 157.747C217.816 157.747 216.516 160.047 216.516 162.897C216.516 165.822 217.891 168.022 220.641 168.022ZM231.46 156.122V158.547H231.535C232.36 156.997 233.735 155.947 235.51 155.947C235.885 155.947 236.11 155.997 236.36 156.097V158.297H236.285C235.96 158.197 235.735 158.172 235.335 158.172C233.26 158.172 231.485 159.722 231.485 162.247V169.547H229.16V156.122H231.46ZM243.994 169.922C239.944 169.922 237.419 166.772 237.419 162.847C237.419 158.947 239.944 155.797 243.994 155.797C248.044 155.797 250.519 158.947 250.519 162.847C250.519 166.772 248.044 169.922 243.994 169.922ZM243.969 168.022C246.719 168.022 248.144 165.747 248.144 162.847C248.144 159.947 246.719 157.647 243.969 157.647C241.219 157.647 239.794 159.947 239.794 162.847C239.794 165.747 241.219 168.022 243.969 168.022ZM256.988 169.822C254.438 169.822 252.438 168.572 252.438 165.997C252.438 162.872 254.738 162.197 258.213 161.772C260.188 161.547 261.463 161.222 261.463 159.847C261.463 158.397 260.438 157.497 258.588 157.497C256.463 157.497 255.438 158.497 255.363 160.097H253.113C253.213 157.822 254.938 155.797 258.563 155.797C259.838 155.797 260.963 156.022 261.813 156.522C262.938 157.197 263.613 158.372 263.613 160.172V166.447C263.613 167.522 263.863 168.097 265.038 167.847H265.138V169.472C264.813 169.572 264.438 169.672 263.888 169.672C262.463 169.672 261.763 168.997 261.513 167.572H261.488C260.638 168.747 259.263 169.822 256.988 169.822ZM257.563 168.122C260.238 168.122 261.488 166.147 261.488 164.597V162.397C260.813 162.822 259.638 163.147 258.538 163.347C256.338 163.722 254.888 164.122 254.888 165.972C254.888 167.697 256.213 168.122 257.563 168.122ZM272.226 169.947C268.601 169.947 266.301 167.197 266.301 162.872C266.301 158.447 268.851 155.797 272.176 155.797C274.076 155.797 275.576 156.747 276.426 158.172H276.476C276.426 157.572 276.401 156.597 276.401 155.697V150.947H278.726V169.547H276.426V167.622H276.376C275.526 169.072 274.101 169.947 272.226 169.947ZM272.401 168.022C275.276 168.022 276.526 165.847 276.526 162.897C276.526 159.872 275.101 157.747 272.401 157.747C269.926 157.747 268.676 159.947 268.676 162.897C268.676 165.847 269.926 168.022 272.401 168.022ZM287.743 169.922C283.618 169.922 281.193 166.772 281.193 162.847C281.193 158.947 283.768 155.797 287.618 155.797C289.618 155.797 291.168 156.572 292.218 157.872C293.318 159.197 293.868 161.122 293.868 163.397H283.568C283.743 166.022 285.168 168.022 287.768 168.022C289.618 168.022 290.893 167.147 291.318 165.722H293.593C292.993 168.222 290.843 169.922 287.743 169.922ZM287.618 157.597C285.193 157.597 283.918 159.347 283.618 161.722H291.393C291.268 159.147 289.943 157.597 287.618 157.597ZM298.647 156.122V158.022H298.722C299.697 156.672 301.022 155.797 302.972 155.797C305.772 155.797 307.497 157.372 307.497 160.172V169.547H305.197V160.447C305.197 158.722 304.072 157.747 302.247 157.747C300.172 157.747 298.672 159.222 298.672 161.372V169.547H296.347V156.122H298.647ZM316.445 157.922V156.122H318.545V151.897H320.845V156.122H323.62V157.922H320.845V166.397C320.845 167.372 321.37 167.647 322.22 167.647C322.62 167.647 323.145 167.547 323.395 167.472H323.47V169.422C322.845 169.572 322.195 169.647 321.595 169.647C319.795 169.622 318.545 168.897 318.545 166.922V157.922H316.445ZM328.36 155.822C328.36 156.497 328.31 157.422 328.285 158.072H328.36C329.36 156.647 330.71 155.797 332.66 155.797C335.46 155.797 337.185 157.372 337.185 160.172V169.547H334.885V160.447C334.885 158.722 333.76 157.747 331.935 157.747C329.86 157.747 328.36 159.222 328.36 161.372V169.547H326.035V150.947H328.36V155.822ZM346.142 169.922C342.017 169.922 339.592 166.772 339.592 162.847C339.592 158.947 342.167 155.797 346.017 155.797C348.017 155.797 349.567 156.572 350.617 157.872C351.717 159.197 352.267 161.122 352.267 163.397H341.967C342.142 166.022 343.567 168.022 346.167 168.022C348.017 168.022 349.292 167.147 349.717 165.722H351.992C351.392 168.222 349.242 169.922 346.142 169.922ZM346.017 157.597C343.592 157.597 342.317 159.347 342.017 161.722H349.792C349.667 159.147 348.342 157.597 346.017 157.597ZM365.386 169.822C362.836 169.822 360.836 168.572 360.836 165.997C360.836 162.872 363.136 162.197 366.611 161.772C368.586 161.547 369.861 161.222 369.861 159.847C369.861 158.397 368.836 157.497 366.986 157.497C364.861 157.497 363.836 158.497 363.761 160.097H361.511C361.611 157.822 363.336 155.797 366.961 155.797C368.236 155.797 369.361 156.022 370.211 156.522C371.336 157.197 372.011 158.372 372.011 160.172V166.447C372.011 167.522 372.261 168.097 373.436 167.847H373.536V169.472C373.211 169.572 372.836 169.672 372.286 169.672C370.861 169.672 370.161 168.997 369.911 167.572H369.886C369.036 168.747 367.661 169.822 365.386 169.822ZM365.961 168.122C368.636 168.122 369.886 166.147 369.886 164.597V162.397C369.211 162.822 368.036 163.147 366.936 163.347C364.736 163.722 363.286 164.122 363.286 165.972C363.286 167.697 364.611 168.122 365.961 168.122ZM386.299 169.547H383.999V167.672H383.949C382.999 168.997 381.824 169.847 379.899 169.847C377.124 169.847 375.349 168.172 375.349 165.372V156.122H377.674V165.247C377.674 166.947 378.749 167.947 380.599 167.947C382.649 167.947 383.974 166.372 383.974 164.297V156.122H386.299V169.547ZM394.736 169.947C391.111 169.947 388.811 167.197 388.811 162.872C388.811 158.447 391.361 155.797 394.686 155.797C396.586 155.797 398.086 156.747 398.936 158.172H398.986C398.936 157.572 398.911 156.597 398.911 155.697V150.947H401.236V169.547H398.936V167.622H398.886C398.036 169.072 396.611 169.947 394.736 169.947ZM394.911 168.022C397.786 168.022 399.036 165.847 399.036 162.897C399.036 159.872 397.611 157.747 394.911 157.747C392.436 157.747 391.186 159.947 391.186 162.897C391.186 165.847 392.436 168.022 394.911 168.022ZM404.378 153.647V150.947H406.803V153.647H404.378ZM404.428 169.547V156.122H406.753V169.547H404.428ZM415.771 169.922C411.646 169.922 409.221 166.772 409.221 162.847C409.221 158.947 411.796 155.797 415.646 155.797C417.646 155.797 419.196 156.572 420.246 157.872C421.346 159.197 421.896 161.122 421.896 163.397H411.596C411.771 166.022 413.196 168.022 415.796 168.022C417.646 168.022 418.921 167.147 419.346 165.722H421.621C421.021 168.222 418.871 169.922 415.771 169.922ZM415.646 157.597C413.221 157.597 411.946 159.347 411.646 161.722H419.421C419.296 159.147 417.971 157.597 415.646 157.597ZM426.674 156.122V158.022H426.749C427.724 156.672 429.049 155.797 430.999 155.797C433.799 155.797 435.524 157.372 435.524 160.172V169.547H433.224V160.447C433.224 158.722 432.099 157.747 430.274 157.747C428.199 157.747 426.699 159.222 426.699 161.372V169.547H424.374V156.122H426.674ZM444.482 169.922C440.457 169.922 437.932 166.772 437.932 162.847C437.932 158.947 440.457 155.797 444.482 155.797C447.707 155.797 449.807 157.622 450.282 160.497H447.957C447.632 158.747 446.432 157.672 444.482 157.672C441.732 157.672 440.307 159.947 440.307 162.847C440.307 165.747 441.732 168.022 444.482 168.022C446.582 168.022 447.832 166.797 448.007 164.797H450.307C450.007 167.997 447.882 169.922 444.482 169.922ZM458.471 169.922C454.346 169.922 451.921 166.772 451.921 162.847C451.921 158.947 454.496 155.797 458.346 155.797C460.346 155.797 461.896 156.572 462.946 157.872C464.046 159.197 464.596 161.122 464.596 163.397H454.296C454.471 166.022 455.896 168.022 458.496 168.022C460.346 168.022 461.621 167.147 462.046 165.722H464.321C463.721 168.222 461.571 169.922 458.471 169.922ZM458.346 157.597C455.921 157.597 454.646 159.347 454.346 161.722H462.121C461.996 159.147 460.671 157.597 458.346 157.597ZM466.605 173.422V172.122C467.305 171.872 467.83 171.372 467.83 169.797V169.547H466.58V166.797H469.28V169.797C469.28 171.997 468.38 173.197 466.605 173.422ZM478.867 174.097V156.122H481.167V158.222H481.242C482.242 156.697 483.592 155.797 485.517 155.797C488.942 155.797 491.292 158.447 491.292 162.872C491.292 167.172 489.067 169.947 485.442 169.947C483.617 169.947 482.142 169.197 481.217 167.772H481.142C481.167 168.247 481.192 168.997 481.192 170.022V174.097H478.867ZM485.192 168.022C487.667 168.022 488.917 165.847 488.917 162.922C488.917 159.972 487.692 157.772 485.217 157.772C482.367 157.772 481.067 160.072 481.067 162.922C481.067 165.747 482.217 168.022 485.192 168.022ZM496.059 156.122V158.547H496.134C496.959 156.997 498.334 155.947 500.109 155.947C500.484 155.947 500.709 155.997 500.959 156.097V158.297H500.884C500.559 158.197 500.334 158.172 499.934 158.172C497.859 158.172 496.084 159.722 496.084 162.247V169.547H493.759V156.122H496.059ZM508.594 169.922C504.544 169.922 502.019 166.772 502.019 162.847C502.019 158.947 504.544 155.797 508.594 155.797C512.644 155.797 515.119 158.947 515.119 162.847C515.119 166.772 512.644 169.922 508.594 169.922ZM508.569 168.022C511.319 168.022 512.744 165.747 512.744 162.847C512.744 159.947 511.319 157.647 508.569 157.647C505.819 157.647 504.394 159.947 504.394 162.847C504.394 165.747 505.819 168.022 508.569 168.022ZM520.543 169.547L515.868 156.122H518.343L520.693 163.372C521.268 165.172 521.918 167.647 521.918 167.647H521.968C521.968 167.647 522.543 165.172 523.143 163.372L525.543 156.122H527.943L523.118 169.547H520.543ZM529.622 153.647V150.947H532.047V153.647H529.622ZM529.672 169.547V156.122H531.997V169.547H529.672ZM540.39 169.947C536.765 169.947 534.465 167.197 534.465 162.872C534.465 158.447 537.015 155.797 540.34 155.797C542.24 155.797 543.74 156.747 544.59 158.172H544.64C544.59 157.572 544.565 156.597 544.565 155.697V150.947H546.89V169.547H544.59V167.622H544.54C543.69 169.072 542.265 169.947 540.39 169.947ZM540.565 168.022C543.44 168.022 544.69 165.847 544.69 162.897C544.69 159.872 543.265 157.747 540.565 157.747C538.09 157.747 536.84 159.947 536.84 162.897C536.84 165.847 538.09 168.022 540.565 168.022ZM555.907 169.922C551.782 169.922 549.357 166.772 549.357 162.847C549.357 158.947 551.932 155.797 555.782 155.797C557.782 155.797 559.332 156.572 560.382 157.872C561.482 159.197 562.032 161.122 562.032 163.397H551.732C551.907 166.022 553.332 168.022 555.932 168.022C557.782 168.022 559.057 167.147 559.482 165.722H561.757C561.157 168.222 559.007 169.922 555.907 169.922ZM555.782 157.597C553.357 157.597 552.082 159.347 551.782 161.722H559.557C559.432 159.147 558.107 157.597 555.782 157.597ZM576.977 169.922C572.852 169.922 570.427 166.772 570.427 162.847C570.427 158.947 573.002 155.797 576.852 155.797C578.852 155.797 580.402 156.572 581.452 157.872C582.552 159.197 583.102 161.122 583.102 163.397H572.802C572.977 166.022 574.402 168.022 577.002 168.022C578.852 168.022 580.127 167.147 580.552 165.722H582.827C582.227 168.222 580.077 169.922 576.977 169.922ZM576.852 157.597C574.427 157.597 573.152 159.347 572.852 161.722H580.627C580.502 159.147 579.177 157.597 576.852 157.597ZM590.78 169.947C587.155 169.947 584.855 167.197 584.855 162.872C584.855 158.447 587.405 155.797 590.73 155.797C592.63 155.797 594.13 156.747 594.98 158.172H595.03C594.98 157.572 594.955 156.597 594.955 155.697V150.947H597.28V169.547H594.98V167.622H594.93C594.08 169.072 592.655 169.947 590.78 169.947ZM590.955 168.022C593.83 168.022 595.08 165.847 595.08 162.897C595.08 159.872 593.655 157.747 590.955 157.747C588.48 157.747 587.23 159.947 587.23 162.897C587.23 165.847 588.48 168.022 590.955 168.022ZM611.348 169.547H609.048V167.672H608.998C608.048 168.997 606.873 169.847 604.948 169.847C602.173 169.847 600.398 168.172 600.398 165.372V156.122H602.723V165.247C602.723 166.947 603.798 167.947 605.648 167.947C607.698 167.947 609.023 166.372 609.023 164.297V156.122H611.348V169.547ZM620.409 169.922C616.384 169.922 613.859 166.772 613.859 162.847C613.859 158.947 616.384 155.797 620.409 155.797C623.634 155.797 625.734 157.622 626.209 160.497H623.884C623.559 158.747 622.359 157.672 620.409 157.672C617.659 157.672 616.234 159.947 616.234 162.847C616.234 165.747 617.659 168.022 620.409 168.022C622.509 168.022 623.759 166.797 623.934 164.797H626.234C625.934 167.997 623.809 169.922 620.409 169.922ZM632.818 169.822C630.268 169.822 628.268 168.572 628.268 165.997C628.268 162.872 630.568 162.197 634.043 161.772C636.018 161.547 637.293 161.222 637.293 159.847C637.293 158.397 636.268 157.497 634.418 157.497C632.293 157.497 631.268 158.497 631.193 160.097H628.943C629.043 157.822 630.768 155.797 634.393 155.797C635.668 155.797 636.793 156.022 637.643 156.522C638.768 157.197 639.443 158.372 639.443 160.172V166.447C639.443 167.522 639.693 168.097 640.868 167.847H640.968V169.472C640.643 169.572 640.268 169.672 639.718 169.672C638.293 169.672 637.593 168.997 637.343 167.572H637.318C636.468 168.747 635.093 169.822 632.818 169.822ZM633.393 168.122C636.068 168.122 637.318 166.147 637.318 164.597V162.397C636.643 162.822 635.468 163.147 634.368 163.347C632.168 163.722 630.718 164.122 630.718 165.972C630.718 167.697 632.043 168.122 633.393 168.122ZM641.787 157.922V156.122H643.887V151.897H646.187V156.122H648.962V157.922H646.187V166.397C646.187 167.372 646.712 167.647 647.562 167.647C647.962 167.647 648.487 167.547 648.737 167.472H648.812V169.422C648.187 169.572 647.537 169.647 646.937 169.647C645.137 169.622 643.887 168.897 643.887 166.922V157.922H641.787ZM651.326 153.647V150.947H653.751V153.647H651.326ZM651.376 169.547V156.122H653.701V169.547H651.376ZM662.744 169.922C658.694 169.922 656.169 166.772 656.169 162.847C656.169 158.947 658.694 155.797 662.744 155.797C666.794 155.797 669.269 158.947 669.269 162.847C669.269 166.772 666.794 169.922 662.744 169.922ZM662.719 168.022C665.469 168.022 666.894 165.747 666.894 162.847C666.894 159.947 665.469 157.647 662.719 157.647C659.969 157.647 658.544 159.947 658.544 162.847C658.544 165.747 659.969 168.022 662.719 168.022ZM674.038 156.122V158.022H674.113C675.088 156.672 676.413 155.797 678.363 155.797C681.163 155.797 682.888 157.372 682.888 160.172V169.547H680.588V160.447C680.588 158.722 679.463 157.747 677.638 157.747C675.563 157.747 674.063 159.222 674.063 161.372V169.547H671.738V156.122H674.038ZM690.02 169.822C687.47 169.822 685.47 168.572 685.47 165.997C685.47 162.872 687.77 162.197 691.245 161.772C693.22 161.547 694.495 161.222 694.495 159.847C694.495 158.397 693.47 157.497 691.62 157.497C689.495 157.497 688.47 158.497 688.395 160.097H686.145C686.245 157.822 687.97 155.797 691.595 155.797C692.87 155.797 693.995 156.022 694.845 156.522C695.97 157.197 696.645 158.372 696.645 160.172V166.447C696.645 167.522 696.895 168.097 698.07 167.847H698.17V169.472C697.845 169.572 697.47 169.672 696.92 169.672C695.495 169.672 694.795 168.997 694.545 167.572H694.52C693.67 168.747 692.295 169.822 690.02 169.822ZM690.595 168.122C693.27 168.122 694.52 166.147 694.52 164.597V162.397C693.845 162.822 692.67 163.147 691.57 163.347C689.37 163.722 687.92 164.122 687.92 165.972C687.92 167.697 689.245 168.122 690.595 168.122ZM700.133 169.547V150.947H702.458V169.547H700.133ZM718.188 169.922C714.163 169.922 711.638 166.772 711.638 162.847C711.638 158.947 714.163 155.797 718.188 155.797C721.413 155.797 723.513 157.622 723.988 160.497H721.663C721.338 158.747 720.138 157.672 718.188 157.672C715.438 157.672 714.013 159.947 714.013 162.847C714.013 165.747 715.438 168.022 718.188 168.022C720.288 168.022 721.538 166.797 721.713 164.797H724.013C723.713 167.997 721.588 169.922 718.188 169.922ZM732.202 169.922C728.152 169.922 725.627 166.772 725.627 162.847C725.627 158.947 728.152 155.797 732.202 155.797C736.252 155.797 738.727 158.947 738.727 162.847C738.727 166.772 736.252 169.922 732.202 169.922ZM732.177 168.022C734.927 168.022 736.352 165.747 736.352 162.847C736.352 159.947 734.927 157.647 732.177 157.647C729.427 157.647 728.002 159.947 728.002 162.847C728.002 165.747 729.427 168.022 732.177 168.022ZM743.496 156.122V158.022H743.571C744.546 156.672 745.871 155.797 747.821 155.797C750.621 155.797 752.346 157.372 752.346 160.172V169.547H750.046V160.447C750.046 158.722 748.921 157.747 747.096 157.747C745.021 157.747 743.521 159.222 743.521 161.372V169.547H741.196V156.122H743.496ZM754.409 157.922V156.122H756.509V151.897H758.809V156.122H761.584V157.922H758.809V166.397C758.809 167.372 759.334 167.647 760.184 167.647C760.584 167.647 761.109 167.547 761.359 167.472H761.434V169.422C760.809 169.572 760.159 169.647 759.559 169.647C757.759 169.622 756.509 168.897 756.509 166.922V157.922H754.409ZM769.701 169.922C765.576 169.922 763.151 166.772 763.151 162.847C763.151 158.947 765.726 155.797 769.576 155.797C771.576 155.797 773.126 156.572 774.176 157.872C775.276 159.197 775.826 161.122 775.826 163.397H765.526C765.701 166.022 767.126 168.022 769.726 168.022C771.576 168.022 772.851 167.147 773.276 165.722H775.551C774.951 168.222 772.801 169.922 769.701 169.922ZM769.576 157.597C767.151 157.597 765.876 159.347 765.576 161.722H773.351C773.226 159.147 771.901 157.597 769.576 157.597ZM780.605 156.122V158.022H780.68C781.655 156.672 782.98 155.797 784.93 155.797C787.73 155.797 789.455 157.372 789.455 160.172V169.547H787.155V160.447C787.155 158.722 786.03 157.747 784.205 157.747C782.13 157.747 780.63 159.222 780.63 161.372V169.547H778.305V156.122H780.605ZM791.518 157.922V156.122H793.618V151.897H795.918V156.122H798.693V157.922H795.918V166.397C795.918 167.372 796.443 167.647 797.293 167.647C797.693 167.647 798.218 167.547 798.468 167.472H798.543V169.422C797.918 169.572 797.268 169.647 796.668 169.647C794.868 169.622 793.618 168.897 793.618 166.922V157.922H791.518ZM801.127 173.422V172.122C801.827 171.872 802.352 171.372 802.352 169.797V169.547H801.102V166.797H803.802V169.797C803.802 171.997 802.902 173.197 801.127 173.422Z" fill="white"/>
<path d="M61.2855 259.203C54.6855 259.203 49.3255 256.322 49.6855 249.722H55.2455C55.0455 253.362 57.7255 254.562 61.4455 254.562C64.2855 254.562 66.9255 253.482 66.9255 250.842C66.9255 248.842 65.5655 247.962 60.7255 246.202C55.6455 244.362 52.6455 242.602 52.6455 238.122C52.6455 232.642 56.8055 229.442 63.0855 229.442C68.9255 229.442 74.0055 231.922 73.7255 238.363H68.2455C68.3655 235.562 66.4455 234.002 62.8855 234.002C60.7655 234.002 58.1255 234.802 58.0855 237.362C58.0455 239.282 59.3655 239.842 63.8855 241.402C69.5655 243.362 72.6055 245.522 72.6055 250.082C72.6055 256.122 67.8055 259.203 61.2855 259.203ZM83.8977 259.163C78.8977 259.163 74.7377 256.362 74.7377 250.082C74.7377 243.762 78.9377 237.482 85.9377 237.482C90.4977 237.482 94.1777 239.642 94.4577 245.002H89.2177C89.0177 243.042 87.9377 241.802 85.7777 241.802C81.8177 241.802 80.0977 246.322 80.0977 250.242C80.0977 252.882 81.2577 254.842 84.2177 254.842C86.2177 254.842 87.7777 253.762 88.4977 251.322H93.6977C92.5777 256.242 88.9377 259.163 83.8977 259.163ZM104.965 259.163C99.6045 259.163 95.3245 255.882 95.3245 249.602C95.3245 243.122 99.8845 237.482 106.885 237.482C112.125 237.482 116.365 240.762 116.365 246.842C116.365 253.402 111.965 259.163 104.965 259.163ZM100.685 249.922C100.685 252.722 101.925 255.122 105.085 255.122C109.245 255.122 111.005 250.602 111.005 246.682C111.005 244.002 109.765 241.522 106.605 241.522C102.485 241.522 100.685 245.962 100.685 249.922ZM115.466 265.283L120.746 238.042H125.906L125.426 240.562H125.546C126.986 238.722 129.066 237.482 131.826 237.482C136.426 237.482 138.906 241.322 138.906 246.442C138.906 252.242 135.946 259.163 128.786 259.163C126.306 259.163 123.946 258.082 122.786 255.682H122.706L120.826 265.283H115.466ZM123.786 249.962C123.786 252.442 125.066 254.682 127.986 254.682C132.026 254.682 133.426 250.402 133.426 246.642C133.426 244.242 132.426 241.842 129.506 241.842C125.666 241.842 123.786 246.242 123.786 249.962ZM159.767 249.802H145.487C145.487 253.042 146.567 255.002 149.687 255.002C151.567 255.002 153.127 254.202 153.887 252.442H159.167C158.527 254.362 157.447 255.923 156.007 257.042C154.287 258.402 152.087 259.123 149.607 259.163C144.287 259.163 140.167 256.202 140.167 249.722C140.167 243.762 144.527 237.482 151.167 237.482C153.407 237.482 154.967 237.922 156.327 238.802C159.407 240.802 160.527 244.882 159.767 249.802ZM151.047 241.642C148.207 241.642 146.687 243.682 145.967 246.082H154.807C154.887 243.682 153.807 241.642 151.047 241.642Z" fill="white"/>
<path d="M51.5305 311.562V292.962H60.2305C63.5555 292.962 65.8055 295.012 65.8055 298.087C65.8055 300.362 64.8805 301.962 62.4055 302.737V302.812C64.5055 303.437 65.1055 304.687 65.2805 307.362C65.5055 310.287 65.7555 311.187 66.1305 311.437V311.562H63.4055C62.9805 311.212 62.9305 310.362 62.7305 307.387C62.5555 304.762 61.4555 303.812 59.0305 303.812H54.0805V311.562H51.5305ZM54.0805 295.162V301.762H59.4055C61.9305 301.762 63.1805 300.487 63.1805 298.462C63.1805 296.287 62.1555 295.162 59.5305 295.162H54.0805ZM74.4133 311.938C70.2883 311.938 67.8633 308.787 67.8633 304.862C67.8633 300.962 70.4383 297.812 74.2883 297.812C76.2883 297.812 77.8383 298.587 78.8883 299.887C79.9883 301.212 80.5383 303.137 80.5383 305.412H70.2383C70.4133 308.037 71.8383 310.037 74.4383 310.037C76.2883 310.037 77.5633 309.162 77.9883 307.737H80.2633C79.6633 310.237 77.5133 311.938 74.4133 311.938ZM74.2883 299.612C71.8633 299.612 70.5883 301.362 70.2883 303.737H78.0633C77.9383 301.162 76.6133 299.612 74.2883 299.612ZM88.167 311.963C84.467 311.963 82.367 310.212 82.167 307.487H84.517C84.792 309.437 86.292 310.087 88.217 310.087C90.342 310.087 91.242 309.162 91.242 307.962C91.242 306.487 90.117 306.112 87.742 305.637C85.117 305.087 82.742 304.537 82.742 301.587C82.742 299.287 84.542 297.837 87.667 297.837C91.042 297.837 92.717 299.412 93.017 301.737H90.692C90.492 300.362 89.542 299.587 87.617 299.587C85.792 299.587 85.017 300.437 85.017 301.462C85.017 302.862 86.317 303.137 88.592 303.587C91.267 304.112 93.567 304.712 93.567 307.837C93.567 310.562 91.317 311.963 88.167 311.963ZM102.148 311.938C98.0227 311.938 95.5977 308.787 95.5977 304.862C95.5977 300.962 98.1727 297.812 102.023 297.812C104.023 297.812 105.573 298.587 106.623 299.887C107.723 301.212 108.273 303.137 108.273 305.412H97.9727C98.1477 308.037 99.5727 310.037 102.173 310.037C104.023 310.037 105.298 309.162 105.723 307.737H107.998C107.398 310.237 105.248 311.938 102.148 311.938ZM102.023 299.612C99.5977 299.612 98.3227 301.362 98.0227 303.737H105.798C105.673 301.162 104.348 299.612 102.023 299.612ZM114.751 311.838C112.201 311.838 110.201 310.587 110.201 308.012C110.201 304.887 112.501 304.213 115.976 303.787C117.951 303.562 119.226 303.237 119.226 301.862C119.226 300.412 118.201 299.512 116.351 299.512C114.226 299.512 113.201 300.512 113.126 302.112H110.876C110.976 299.837 112.701 297.812 116.326 297.812C117.601 297.812 118.726 298.037 119.576 298.537C120.701 299.212 121.376 300.387 121.376 302.187V308.462C121.376 309.537 121.626 310.112 122.801 309.862H122.901V311.487C122.576 311.588 122.201 311.688 121.651 311.688C120.226 311.688 119.526 311.012 119.276 309.587H119.251C118.401 310.762 117.026 311.838 114.751 311.838ZM115.326 310.137C118.001 310.137 119.251 308.162 119.251 306.612V304.412C118.576 304.837 117.401 305.162 116.301 305.362C114.101 305.737 112.651 306.137 112.651 307.987C112.651 309.712 113.976 310.137 115.326 310.137ZM127.089 298.137V300.562H127.164C127.989 299.012 129.364 297.962 131.139 297.962C131.514 297.962 131.739 298.012 131.989 298.112V300.312H131.914C131.589 300.212 131.364 300.187 130.964 300.187C128.889 300.187 127.114 301.737 127.114 304.262V311.562H124.789V298.137H127.089ZM139.599 311.938C135.574 311.938 133.049 308.787 133.049 304.862C133.049 300.962 135.574 297.812 139.599 297.812C142.824 297.812 144.924 299.637 145.399 302.512H143.074C142.749 300.762 141.549 299.687 139.599 299.687C136.849 299.687 135.424 301.962 135.424 304.862C135.424 307.762 136.849 310.037 139.599 310.037C141.699 310.037 142.949 308.812 143.124 306.812H145.424C145.124 310.012 142.999 311.938 139.599 311.938ZM150.088 297.837C150.088 298.512 150.038 299.437 150.013 300.087H150.088C151.088 298.662 152.438 297.812 154.388 297.812C157.188 297.812 158.913 299.387 158.913 302.187V311.562H156.613V302.462C156.613 300.737 155.488 299.762 153.663 299.762C151.588 299.762 150.088 301.237 150.088 303.387V311.562H147.763V292.962H150.088V297.837ZM161.82 315.438V314.138C162.52 313.888 163.045 313.388 163.045 311.813V311.562H161.795V308.812H164.495V311.813C164.495 314.013 163.595 315.213 161.82 315.438ZM174.456 311.562V292.962H177.006V311.562H174.456ZM185.776 311.963C182.151 311.963 179.851 309.212 179.851 304.887C179.851 300.462 182.401 297.812 185.726 297.812C187.626 297.812 189.126 298.762 189.976 300.187H190.026C189.976 299.587 189.951 298.612 189.951 297.712V292.962H192.276V311.562H189.976V309.637H189.926C189.076 311.087 187.651 311.963 185.776 311.963ZM185.951 310.037C188.826 310.037 190.076 307.862 190.076 304.912C190.076 301.887 188.651 299.762 185.951 299.762C183.476 299.762 182.226 301.962 182.226 304.912C182.226 307.862 183.476 310.037 185.951 310.037ZM201.293 311.938C197.168 311.938 194.743 308.787 194.743 304.862C194.743 300.962 197.318 297.812 201.168 297.812C203.168 297.812 204.718 298.587 205.768 299.887C206.868 301.212 207.418 303.137 207.418 305.412H197.118C197.293 308.037 198.718 310.037 201.318 310.037C203.168 310.037 204.443 309.162 204.868 307.737H207.143C206.543 310.237 204.393 311.938 201.293 311.938ZM201.168 299.612C198.743 299.612 197.468 301.362 197.168 303.737H204.943C204.818 301.162 203.493 299.612 201.168 299.612ZM213.897 311.838C211.347 311.838 209.347 310.587 209.347 308.012C209.347 304.887 211.647 304.213 215.122 303.787C217.097 303.562 218.372 303.237 218.372 301.862C218.372 300.412 217.347 299.512 215.497 299.512C213.372 299.512 212.347 300.512 212.272 302.112H210.022C210.122 299.837 211.847 297.812 215.472 297.812C216.747 297.812 217.872 298.037 218.722 298.537C219.847 299.212 220.522 300.387 220.522 302.187V308.462C220.522 309.537 220.772 310.112 221.947 309.862H222.047V311.487C221.722 311.588 221.347 311.688 220.797 311.688C219.372 311.688 218.672 311.012 218.422 309.587H218.397C217.547 310.762 216.172 311.838 213.897 311.838ZM214.472 310.137C217.147 310.137 218.397 308.162 218.397 306.612V304.412C217.722 304.837 216.547 305.162 215.447 305.362C213.247 305.737 211.797 306.137 211.797 307.987C211.797 309.712 213.122 310.137 214.472 310.137ZM222.866 299.937V298.137H224.966V293.912H227.266V298.137H230.041V299.937H227.266V308.412C227.266 309.387 227.791 309.662 228.641 309.662C229.041 309.662 229.566 309.562 229.816 309.487H229.891V311.437C229.266 311.588 228.616 311.663 228.016 311.663C226.216 311.638 224.966 310.912 224.966 308.937V299.937H222.866ZM232.405 295.662V292.962H234.83V295.662H232.405ZM232.455 311.562V298.137H234.78V311.562H232.455ZM243.823 311.938C239.773 311.938 237.248 308.787 237.248 304.862C237.248 300.962 239.773 297.812 243.823 297.812C247.873 297.812 250.348 300.962 250.348 304.862C250.348 308.787 247.873 311.938 243.823 311.938ZM243.798 310.037C246.548 310.037 247.973 307.762 247.973 304.862C247.973 301.962 246.548 299.662 243.798 299.662C241.048 299.662 239.623 301.962 239.623 304.862C239.623 307.762 241.048 310.037 243.798 310.037ZM255.117 298.137V300.037H255.192C256.167 298.687 257.492 297.812 259.442 297.812C262.242 297.812 263.967 299.387 263.967 302.187V311.562H261.667V302.462C261.667 300.737 260.542 299.762 258.717 299.762C256.642 299.762 255.142 301.237 255.142 303.387V311.562H252.817V298.137H255.117ZM266.874 315.438V314.138C267.574 313.888 268.099 313.388 268.099 311.813V311.562H266.849V308.812H269.549V311.813C269.549 314.013 268.649 315.213 266.874 315.438ZM279.46 311.562V292.962H287.46C289.385 292.962 290.86 293.487 291.91 294.537C292.685 295.337 293.16 296.412 293.16 297.762C293.16 299.787 292.01 301.087 290.01 301.662V301.737C292.285 302.262 293.91 303.762 293.91 306.212C293.91 307.687 293.385 308.937 292.485 309.837C291.435 310.937 289.835 311.562 287.835 311.562H279.46ZM282.01 300.887H287.11C289.285 300.887 290.585 299.812 290.585 297.937C290.585 296.187 289.41 295.162 287.41 295.162H282.01V300.887ZM282.01 309.312H287.685C288.96 309.312 289.885 308.987 290.485 308.387C291.01 307.888 291.31 307.162 291.31 306.287C291.31 304.062 289.735 302.962 287.535 302.962H282.01V309.312ZM298.72 298.137V300.562H298.795C299.62 299.012 300.995 297.962 302.77 297.962C303.145 297.962 303.37 298.012 303.62 298.112V300.312H303.545C303.22 300.212 302.995 300.187 302.595 300.187C300.52 300.187 298.745 301.737 298.745 304.262V311.562H296.42V298.137H298.72ZM309.405 311.838C306.855 311.838 304.855 310.587 304.855 308.012C304.855 304.887 307.155 304.213 310.63 303.787C312.605 303.562 313.88 303.237 313.88 301.862C313.88 300.412 312.855 299.512 311.005 299.512C308.88 299.512 307.855 300.512 307.78 302.112H305.53C305.63 299.837 307.355 297.812 310.98 297.812C312.255 297.812 313.38 298.037 314.23 298.537C315.355 299.212 316.03 300.387 316.03 302.187V308.462C316.03 309.537 316.28 310.112 317.455 309.862H317.555V311.487C317.23 311.588 316.855 311.688 316.305 311.688C314.88 311.688 314.18 311.012 313.93 309.587H313.905C313.055 310.762 311.68 311.838 309.405 311.838ZM309.98 310.137C312.655 310.137 313.905 308.162 313.905 306.612V304.412C313.23 304.837 312.055 305.162 310.955 305.362C308.755 305.737 307.305 306.137 307.305 307.987C307.305 309.712 308.63 310.137 309.98 310.137ZM321.743 298.137V300.037H321.818C322.793 298.687 324.118 297.812 326.068 297.812C328.868 297.812 330.593 299.387 330.593 302.187V311.562H328.293V302.462C328.293 300.737 327.168 299.762 325.343 299.762C323.268 299.762 321.768 301.237 321.768 303.387V311.562H319.443V298.137H321.743ZM338.925 311.963C335.3 311.963 333 309.212 333 304.887C333 300.462 335.55 297.812 338.875 297.812C340.775 297.812 342.275 298.762 343.125 300.187H343.175C343.125 299.587 343.1 298.612 343.1 297.712V292.962H345.425V311.562H343.125V309.637H343.075C342.225 311.087 340.8 311.963 338.925 311.963ZM339.1 310.037C341.975 310.037 343.225 307.862 343.225 304.912C343.225 301.887 341.8 299.762 339.1 299.762C336.625 299.762 335.375 301.962 335.375 304.912C335.375 307.862 336.625 310.037 339.1 310.037ZM355.583 311.562V292.962H362.458C368.008 292.962 370.758 296.762 370.758 302.337C370.758 307.888 367.858 311.562 362.283 311.562H355.583ZM358.158 309.337H362.183C366.383 309.337 368.108 306.612 368.108 302.337C368.108 298.062 366.558 295.187 362.333 295.187H358.158V309.337ZM379.394 311.938C375.269 311.938 372.844 308.787 372.844 304.862C372.844 300.962 375.419 297.812 379.269 297.812C381.269 297.812 382.819 298.587 383.869 299.887C384.969 301.212 385.519 303.137 385.519 305.412H375.219C375.394 308.037 376.819 310.037 379.419 310.037C381.269 310.037 382.544 309.162 382.969 307.737H385.244C384.644 310.237 382.494 311.938 379.394 311.938ZM379.269 299.612C376.844 299.612 375.569 301.362 375.269 303.737H383.044C382.919 301.162 381.594 299.612 379.269 299.612ZM393.147 311.963C389.447 311.963 387.347 310.212 387.147 307.487H389.497C389.772 309.437 391.272 310.087 393.197 310.087C395.322 310.087 396.222 309.162 396.222 307.962C396.222 306.487 395.097 306.112 392.722 305.637C390.097 305.087 387.722 304.537 387.722 301.587C387.722 299.287 389.522 297.837 392.647 297.837C396.022 297.837 397.697 299.412 397.997 301.737H395.672C395.472 300.362 394.522 299.587 392.597 299.587C390.772 299.587 389.997 300.437 389.997 301.462C389.997 302.862 391.297 303.137 393.572 303.587C396.247 304.112 398.547 304.712 398.547 307.837C398.547 310.562 396.297 311.963 393.147 311.963ZM401.009 295.662V292.962H403.434V295.662H401.009ZM401.059 311.562V298.137H403.384V311.562H401.059ZM412.252 316.263C408.727 316.263 406.727 314.862 406.477 312.488H408.652C408.852 313.888 410.202 314.463 412.202 314.463C414.602 314.463 415.927 313.388 415.927 311.112V310.738C415.927 309.962 415.952 309.237 415.977 308.812H415.927C415.002 310.137 413.827 310.962 411.927 310.962C408.502 310.962 406.052 308.287 406.052 304.387C406.052 300.262 408.652 297.812 411.802 297.812C413.727 297.812 415.027 298.562 415.877 299.912H415.927V298.137H418.227V311.012C418.227 312.788 417.627 314.113 416.602 314.988C415.552 315.863 414.052 316.263 412.252 316.263ZM412.152 309.062C415.077 309.062 416.077 307.012 416.077 304.287C416.077 301.462 414.802 299.737 412.127 299.737C409.677 299.737 408.427 301.587 408.427 304.412C408.427 307.262 409.727 309.062 412.152 309.062ZM423.745 298.137V300.037H423.82C424.795 298.687 426.12 297.812 428.07 297.812C430.87 297.812 432.595 299.387 432.595 302.187V311.562H430.295V302.462C430.295 300.737 429.17 299.762 427.345 299.762C425.27 299.762 423.77 301.237 423.77 303.387V311.562H421.445V298.137H423.745ZM435.502 315.438V314.138C436.202 313.888 436.727 313.388 436.727 311.813V311.562H435.477V308.812H438.177V311.813C438.177 314.013 437.277 315.213 435.502 315.438ZM454.963 311.838C450.788 311.838 447.788 309.987 447.788 305.512V292.962H450.338V305.287C450.338 308.337 452.038 309.662 455.013 309.662C457.888 309.662 459.588 308.337 459.588 305.287V292.962H462.138V305.512C462.138 309.987 459.038 311.838 454.963 311.838ZM465.741 311.562V292.962H468.291V311.562H465.741ZM478.825 311.562V292.962H485.7C491.25 292.962 494 296.762 494 302.337C494 307.888 491.1 311.562 485.525 311.562H478.825ZM481.4 309.337H485.425C489.625 309.337 491.35 306.612 491.35 302.337C491.35 298.062 489.8 295.187 485.575 295.187H481.4V309.337ZM502.636 311.938C498.511 311.938 496.086 308.787 496.086 304.862C496.086 300.962 498.661 297.812 502.511 297.812C504.511 297.812 506.061 298.587 507.111 299.887C508.211 301.212 508.761 303.137 508.761 305.412H498.461C498.636 308.037 500.061 310.037 502.661 310.037C504.511 310.037 505.786 309.162 506.211 307.737H508.486C507.886 310.237 505.736 311.938 502.636 311.938ZM502.511 299.612C500.086 299.612 498.811 301.362 498.511 303.737H506.286C506.161 301.162 504.836 299.612 502.511 299.612ZM516.39 311.963C512.69 311.963 510.59 310.212 510.39 307.487H512.74C513.015 309.437 514.515 310.087 516.44 310.087C518.565 310.087 519.465 309.162 519.465 307.962C519.465 306.487 518.34 306.112 515.965 305.637C513.34 305.087 510.965 304.537 510.965 301.587C510.965 299.287 512.765 297.837 515.89 297.837C519.265 297.837 520.94 299.412 521.24 301.737H518.915C518.715 300.362 517.765 299.587 515.84 299.587C514.015 299.587 513.24 300.437 513.24 301.462C513.24 302.862 514.54 303.137 516.815 303.587C519.49 304.112 521.79 304.712 521.79 307.837C521.79 310.562 519.54 311.963 516.39 311.963ZM524.251 295.662V292.962H526.676V295.662H524.251ZM524.301 311.562V298.137H526.626V311.562H524.301ZM535.494 316.263C531.969 316.263 529.969 314.862 529.719 312.488H531.894C532.094 313.888 533.444 314.463 535.444 314.463C537.844 314.463 539.169 313.388 539.169 311.112V310.738C539.169 309.962 539.194 309.237 539.219 308.812H539.169C538.244 310.137 537.069 310.962 535.169 310.962C531.744 310.962 529.294 308.287 529.294 304.387C529.294 300.262 531.894 297.812 535.044 297.812C536.969 297.812 538.269 298.562 539.119 299.912H539.169V298.137H541.469V311.012C541.469 312.788 540.869 314.113 539.844 314.988C538.794 315.863 537.294 316.263 535.494 316.263ZM535.394 309.062C538.319 309.062 539.319 307.012 539.319 304.287C539.319 301.462 538.044 299.737 535.369 299.737C532.919 299.737 531.669 301.587 531.669 304.412C531.669 307.262 532.969 309.062 535.394 309.062ZM546.987 298.137V300.037H547.062C548.037 298.687 549.362 297.812 551.312 297.812C554.112 297.812 555.837 299.387 555.837 302.187V311.562H553.537V302.462C553.537 300.737 552.412 299.762 550.587 299.762C548.512 299.762 547.012 301.237 547.012 303.387V311.562H544.687V298.137H546.987ZM558.744 315.438V314.138C559.444 313.888 559.969 313.388 559.969 311.813V311.562H558.719V308.812H561.419V311.813C561.419 314.013 560.519 315.213 558.744 315.438ZM571.33 311.562V292.962H579.155C581.13 292.962 582.655 293.612 583.605 294.762C584.43 295.737 584.93 296.937 584.93 298.412C584.93 301.837 582.93 303.912 578.905 303.912H573.905V311.562H571.33ZM573.905 295.187V301.837H578.655C581.18 301.837 582.38 300.562 582.38 298.487C582.38 296.312 581.055 295.187 578.755 295.187H573.905ZM598.067 311.562H595.767V309.687H595.717C594.767 311.012 593.592 311.863 591.667 311.863C588.892 311.863 587.117 310.187 587.117 307.387V298.137H589.442V307.262C589.442 308.962 590.517 309.962 592.367 309.962C594.417 309.962 595.742 308.387 595.742 306.312V298.137H598.067V311.562ZM607.878 311.963C606.078 311.963 604.553 311.162 603.678 309.662H603.603V311.562H601.303V292.962H603.628V297.712C603.628 298.737 603.578 299.687 603.553 300.262H603.628C604.503 298.837 606.003 297.812 607.953 297.812C611.353 297.812 613.678 300.462 613.678 304.887C613.678 309.212 611.503 311.963 607.878 311.963ZM607.628 310.037C610.103 310.037 611.303 307.862 611.303 304.912C611.303 301.962 610.103 299.762 607.653 299.762C604.803 299.762 603.503 302.062 603.503 304.912C603.503 307.837 604.878 310.037 607.628 310.037ZM616.222 311.562V292.962H618.547V311.562H616.222ZM621.761 295.662V292.962H624.186V295.662H621.761ZM621.811 311.562V298.137H624.136V311.562H621.811ZM633.154 311.938C629.129 311.938 626.604 308.787 626.604 304.862C626.604 300.962 629.129 297.812 633.154 297.812C636.379 297.812 638.479 299.637 638.954 302.512H636.629C636.304 300.762 635.104 299.687 633.154 299.687C630.404 299.687 628.979 301.962 628.979 304.862C628.979 307.762 630.404 310.037 633.154 310.037C635.254 310.037 636.504 308.812 636.679 306.812H638.979C638.679 310.012 636.554 311.938 633.154 311.938ZM645.562 311.838C643.012 311.838 641.012 310.587 641.012 308.012C641.012 304.887 643.312 304.213 646.787 303.787C648.762 303.562 650.037 303.237 650.037 301.862C650.037 300.412 649.012 299.512 647.162 299.512C645.037 299.512 644.012 300.512 643.937 302.112H641.687C641.787 299.837 643.512 297.812 647.137 297.812C648.412 297.812 649.537 298.037 650.387 298.537C651.512 299.212 652.187 300.387 652.187 302.187V308.462C652.187 309.537 652.437 310.112 653.612 309.862H653.712V311.487C653.387 311.588 653.012 311.688 652.462 311.688C651.037 311.688 650.337 311.012 650.087 309.587H650.062C649.212 310.762 647.837 311.838 645.562 311.838ZM646.137 310.137C648.812 310.137 650.062 308.162 650.062 306.612V304.412C649.387 304.837 648.212 305.162 647.112 305.362C644.912 305.737 643.462 306.137 643.462 307.987C643.462 309.712 644.787 310.137 646.137 310.137ZM654.531 299.937V298.137H656.631V293.912H658.931V298.137H661.706V299.937H658.931V308.412C658.931 309.387 659.456 309.662 660.306 309.662C660.706 309.662 661.231 309.562 661.481 309.487H661.556V311.437C660.931 311.588 660.281 311.663 659.681 311.663C657.881 311.638 656.631 310.912 656.631 308.937V299.937H654.531ZM664.071 295.662V292.962H666.496V295.662H664.071ZM664.121 311.562V298.137H666.446V311.562H664.121ZM675.488 311.938C671.438 311.938 668.913 308.787 668.913 304.862C668.913 300.962 671.438 297.812 675.488 297.812C679.538 297.812 682.013 300.962 682.013 304.862C682.013 308.787 679.538 311.938 675.488 311.938ZM675.463 310.037C678.213 310.037 679.638 307.762 679.638 304.862C679.638 301.962 678.213 299.662 675.463 299.662C672.713 299.662 671.288 301.962 671.288 304.862C671.288 307.762 672.713 310.037 675.463 310.037ZM686.782 298.137V300.037H686.857C687.832 298.687 689.157 297.812 691.107 297.812C693.907 297.812 695.632 299.387 695.632 302.187V311.562H693.332V302.462C693.332 300.737 692.207 299.762 690.382 299.762C688.307 299.762 686.807 301.237 686.807 303.387V311.562H684.482V298.137H686.782ZM705.73 311.562V292.962H712.605C718.155 292.962 720.905 296.762 720.905 302.337C720.905 307.888 718.005 311.562 712.43 311.562H705.73ZM708.305 309.337H712.33C716.53 309.337 718.255 306.612 718.255 302.337C718.255 298.062 716.705 295.187 712.48 295.187H708.305V309.337ZM729.54 311.938C725.415 311.938 722.99 308.787 722.99 304.862C722.99 300.962 725.565 297.812 729.415 297.812C731.415 297.812 732.965 298.587 734.015 299.887C735.115 301.212 735.665 303.137 735.665 305.412H725.365C725.54 308.037 726.965 310.037 729.565 310.037C731.415 310.037 732.69 309.162 733.115 307.737H735.39C734.79 310.237 732.64 311.938 729.54 311.938ZM729.415 299.612C726.99 299.612 725.715 301.362 725.415 303.737H733.19C733.065 301.162 731.74 299.612 729.415 299.612ZM743.294 311.963C739.594 311.963 737.494 310.212 737.294 307.487H739.644C739.919 309.437 741.419 310.087 743.344 310.087C745.469 310.087 746.369 309.162 746.369 307.962C746.369 306.487 745.244 306.112 742.869 305.637C740.244 305.087 737.869 304.537 737.869 301.587C737.869 299.287 739.669 297.837 742.794 297.837C746.169 297.837 747.844 299.412 748.144 301.737H745.819C745.619 300.362 744.669 299.587 742.744 299.587C740.919 299.587 740.144 300.437 740.144 301.462C740.144 302.862 741.444 303.137 743.719 303.587C746.394 304.112 748.694 304.712 748.694 307.837C748.694 310.562 746.444 311.963 743.294 311.963ZM751.155 295.662V292.962H753.58V295.662H751.155ZM751.205 311.562V298.137H753.53V311.562H751.205ZM762.398 316.263C758.873 316.263 756.873 314.862 756.623 312.488H758.798C758.998 313.888 760.348 314.463 762.348 314.463C764.748 314.463 766.073 313.388 766.073 311.112V310.738C766.073 309.962 766.098 309.237 766.123 308.812H766.073C765.148 310.137 763.973 310.962 762.073 310.962C758.648 310.962 756.198 308.287 756.198 304.387C756.198 300.262 758.798 297.812 761.948 297.812C763.873 297.812 765.173 298.562 766.023 299.912H766.073V298.137H768.373V311.012C768.373 312.788 767.773 314.113 766.748 314.988C765.698 315.863 764.198 316.263 762.398 316.263ZM762.298 309.062C765.223 309.062 766.223 307.012 766.223 304.287C766.223 301.462 764.948 299.737 762.273 299.737C759.823 299.737 758.573 301.587 758.573 304.412C758.573 307.262 759.873 309.062 762.298 309.062ZM773.891 298.137V300.037H773.966C774.941 298.687 776.266 297.812 778.216 297.812C781.016 297.812 782.741 299.387 782.741 302.187V311.562H780.441V302.462C780.441 300.737 779.316 299.762 777.491 299.762C775.416 299.762 773.916 301.237 773.916 303.387V311.562H771.591V298.137H773.891ZM785.648 315.438V314.138C786.348 313.888 786.873 313.388 786.873 311.813V311.562H785.623V308.812H788.323V311.813C788.323 314.013 787.423 315.213 785.648 315.438ZM51.5305 346.562V327.962H59.3555C61.3305 327.962 62.8555 328.612 63.8055 329.762C64.6305 330.737 65.1305 331.937 65.1305 333.412C65.1305 336.837 63.1305 338.912 59.1055 338.912H54.1055V346.562H51.5305ZM54.1055 330.187V336.837H58.8555C61.3805 336.837 62.5805 335.562 62.5805 333.487C62.5805 331.312 61.2555 330.187 58.9555 330.187H54.1055ZM69.692 333.137V335.562H69.767C70.592 334.012 71.967 332.962 73.742 332.962C74.117 332.962 74.342 333.012 74.592 333.112V335.312H74.517C74.192 335.212 73.967 335.187 73.567 335.187C71.492 335.187 69.717 336.737 69.717 339.262V346.562H67.392V333.137H69.692ZM82.2264 346.938C78.1764 346.938 75.6514 343.787 75.6514 339.862C75.6514 335.962 78.1764 332.812 82.2264 332.812C86.2764 332.812 88.7514 335.962 88.7514 339.862C88.7514 343.787 86.2764 346.938 82.2264 346.938ZM82.2014 345.037C84.9514 345.037 86.3764 342.762 86.3764 339.862C86.3764 336.962 84.9514 334.662 82.2014 334.662C79.4514 334.662 78.0264 336.962 78.0264 339.862C78.0264 342.762 79.4514 345.037 82.2014 345.037ZM90.151 334.937V333.137H92.251V328.912H94.551V333.137H97.326V334.937H94.551V343.412C94.551 344.387 95.076 344.662 95.926 344.662C96.326 344.662 96.851 344.562 97.101 344.487H97.176V346.437C96.551 346.588 95.901 346.663 95.301 346.663C93.501 346.638 92.251 345.912 92.251 343.937V334.937H90.151ZM105.469 346.938C101.419 346.938 98.8936 343.787 98.8936 339.862C98.8936 335.962 101.419 332.812 105.469 332.812C109.519 332.812 111.994 335.962 111.994 339.862C111.994 343.787 109.519 346.938 105.469 346.938ZM105.444 345.037C108.194 345.037 109.619 342.762 109.619 339.862C109.619 336.962 108.194 334.662 105.444 334.662C102.694 334.662 101.269 336.962 101.269 339.862C101.269 342.762 102.694 345.037 105.444 345.037ZM113.393 334.937V333.137H115.493V328.912H117.793V333.137H120.568V334.937H117.793V343.412C117.793 344.387 118.318 344.662 119.168 344.662C119.568 344.662 120.093 344.562 120.343 344.487H120.418V346.437C119.793 346.588 119.143 346.663 118.543 346.663C116.743 346.638 115.493 345.912 115.493 343.937V334.937H113.393ZM124.633 351.238C123.883 351.238 123.033 351.113 122.658 350.963V348.963H122.758C123.008 349.113 123.583 349.213 124.158 349.213C125.083 349.213 125.683 348.863 126.158 347.588C126.158 347.538 126.683 346.037 126.633 345.887L121.508 333.137H124.033L126.808 340.587C127.358 342.112 127.933 344.212 127.933 344.212H127.983C127.983 344.212 128.608 342.087 129.133 340.587L131.808 333.137H134.233L128.533 347.788C127.433 350.613 126.358 351.238 124.633 351.238ZM135.947 351.113V333.137H138.247V335.237H138.322C139.322 333.713 140.672 332.812 142.597 332.812C146.022 332.812 148.372 335.462 148.372 339.887C148.372 344.187 146.147 346.963 142.522 346.963C140.697 346.963 139.222 346.212 138.297 344.787H138.222C138.247 345.262 138.272 346.012 138.272 347.038V351.113H135.947ZM142.272 345.037C144.747 345.037 145.997 342.862 145.997 339.937C145.997 336.987 144.772 334.787 142.297 334.787C139.447 334.787 138.147 337.087 138.147 339.937C138.147 342.762 139.297 345.037 142.272 345.037ZM150.789 330.662V327.962H153.214V330.662H150.789ZM150.839 346.562V333.137H153.164V346.562H150.839ZM158.657 333.137V335.037H158.732C159.707 333.687 161.032 332.812 162.982 332.812C165.782 332.812 167.507 334.387 167.507 337.187V346.562H165.207V337.462C165.207 335.737 164.082 334.762 162.257 334.762C160.182 334.762 158.682 336.237 158.682 338.387V346.562H156.357V333.137H158.657ZM176.314 351.263C172.789 351.263 170.789 349.862 170.539 347.488H172.714C172.914 348.888 174.264 349.463 176.264 349.463C178.664 349.463 179.989 348.388 179.989 346.112V345.738C179.989 344.962 180.014 344.237 180.039 343.812H179.989C179.064 345.137 177.889 345.962 175.989 345.962C172.564 345.962 170.114 343.287 170.114 339.387C170.114 335.262 172.714 332.812 175.864 332.812C177.789 332.812 179.089 333.562 179.939 334.912H179.989V333.137H182.289V346.012C182.289 347.788 181.689 349.113 180.664 349.988C179.614 350.863 178.114 351.263 176.314 351.263ZM176.214 344.062C179.139 344.062 180.139 342.012 180.139 339.287C180.139 336.462 178.864 334.737 176.189 334.737C173.739 334.737 172.489 336.587 172.489 339.412C172.489 342.262 173.789 344.062 176.214 344.062ZM185.282 350.438V349.138C185.982 348.888 186.507 348.388 186.507 346.813V346.562H185.257V343.812H187.957V346.813C187.957 349.013 187.057 350.213 185.282 350.438ZM204.743 346.838C200.568 346.838 197.568 344.987 197.568 340.512V327.962H200.118V340.287C200.118 343.337 201.818 344.662 204.793 344.662C207.668 344.662 209.368 343.337 209.368 340.287V327.962H211.918V340.512C211.918 344.987 208.818 346.838 204.743 346.838ZM220.296 346.963C216.596 346.963 214.496 345.212 214.296 342.487H216.646C216.921 344.437 218.421 345.087 220.346 345.087C222.471 345.087 223.371 344.162 223.371 342.962C223.371 341.487 222.246 341.112 219.871 340.637C217.246 340.087 214.871 339.537 214.871 336.587C214.871 334.287 216.671 332.837 219.796 332.837C223.171 332.837 224.846 334.412 225.146 336.737H222.821C222.621 335.362 221.671 334.587 219.746 334.587C217.921 334.587 217.146 335.437 217.146 336.462C217.146 337.862 218.446 338.137 220.721 338.587C223.396 339.112 225.696 339.712 225.696 342.837C225.696 345.562 223.446 346.963 220.296 346.963ZM234.277 346.938C230.152 346.938 227.727 343.787 227.727 339.862C227.727 335.962 230.302 332.812 234.152 332.812C236.152 332.812 237.702 333.587 238.752 334.887C239.852 336.212 240.402 338.137 240.402 340.412H230.102C230.277 343.037 231.702 345.037 234.302 345.037C236.152 345.037 237.427 344.162 237.852 342.737H240.127C239.527 345.237 237.377 346.938 234.277 346.938ZM234.152 334.612C231.727 334.612 230.452 336.362 230.152 338.737H237.927C237.802 336.162 236.477 334.612 234.152 334.612ZM245.18 333.137V335.562H245.255C246.08 334.012 247.455 332.962 249.23 332.962C249.605 332.962 249.83 333.012 250.08 333.112V335.312H250.005C249.68 335.212 249.455 335.187 249.055 335.187C246.98 335.187 245.205 336.737 245.205 339.262V346.562H242.88V333.137H245.18ZM258.169 330.212V327.962H272.969V330.212H266.844V346.562H264.269V330.212H258.169ZM278.417 346.938C274.292 346.938 271.867 343.787 271.867 339.862C271.867 335.962 274.442 332.812 278.292 332.812C280.292 332.812 281.842 333.587 282.892 334.887C283.992 336.212 284.542 338.137 284.542 340.412H274.242C274.417 343.037 275.842 345.037 278.442 345.037C280.292 345.037 281.567 344.162 281.992 342.737H284.267C283.667 345.237 281.517 346.938 278.417 346.938ZM278.292 334.612C275.867 334.612 274.592 336.362 274.292 338.737H282.067C281.942 336.162 280.617 334.612 278.292 334.612ZM292.171 346.963C288.471 346.963 286.371 345.212 286.171 342.487H288.521C288.796 344.437 290.296 345.087 292.221 345.087C294.346 345.087 295.246 344.162 295.246 342.962C295.246 341.487 294.121 341.112 291.746 340.637C289.121 340.087 286.746 339.537 286.746 336.587C286.746 334.287 288.546 332.837 291.671 332.837C295.046 332.837 296.721 334.412 297.021 336.737H294.696C294.496 335.362 293.546 334.587 291.621 334.587C289.796 334.587 289.021 335.437 289.021 336.462C289.021 337.862 290.321 338.137 292.596 338.587C295.271 339.112 297.571 339.712 297.571 342.837C297.571 345.562 295.321 346.963 292.171 346.963ZM299.013 334.937V333.137H301.113V328.912H303.413V333.137H306.188V334.937H303.413V343.412C303.413 344.387 303.938 344.662 304.788 344.662C305.188 344.662 305.713 344.562 305.963 344.487H306.038V346.437C305.413 346.588 304.763 346.663 304.163 346.663C302.363 346.638 301.113 345.912 301.113 343.937V334.937H299.013ZM308.553 330.662V327.962H310.978V330.662H308.553ZM308.603 346.562V333.137H310.928V346.562H308.603ZM316.421 333.137V335.037H316.496C317.471 333.687 318.796 332.812 320.746 332.812C323.546 332.812 325.271 334.387 325.271 337.187V346.562H322.971V337.462C322.971 335.737 321.846 334.762 320.021 334.762C317.946 334.762 316.446 336.237 316.446 338.387V346.562H314.121V333.137H316.421ZM334.078 351.263C330.553 351.263 328.553 349.862 328.303 347.488H330.478C330.678 348.888 332.028 349.463 334.028 349.463C336.428 349.463 337.753 348.388 337.753 346.112V345.738C337.753 344.962 337.778 344.237 337.803 343.812H337.753C336.828 345.137 335.653 345.962 333.753 345.962C330.328 345.962 327.878 343.287 327.878 339.387C327.878 335.262 330.478 332.812 333.628 332.812C335.553 332.812 336.853 333.562 337.703 334.912H337.753V333.137H340.053V346.012C340.053 347.788 339.453 349.113 338.428 349.988C337.378 350.863 335.878 351.263 334.078 351.263ZM333.978 344.062C336.903 344.062 337.903 342.012 337.903 339.287C337.903 336.462 336.628 334.737 333.953 334.737C331.503 334.737 330.253 336.587 330.253 339.412C330.253 342.262 331.553 344.062 333.978 344.062ZM343.046 350.438V349.138C343.746 348.888 344.271 348.388 344.271 346.813V346.562H343.021V343.812H345.721V346.813C345.721 349.013 344.821 350.213 343.046 350.438ZM355.632 346.562V327.962H363.457C365.432 327.962 366.957 328.612 367.907 329.762C368.732 330.737 369.232 331.937 369.232 333.412C369.232 336.837 367.232 338.912 363.207 338.912H358.207V346.562H355.632ZM358.207 330.187V336.837H362.957C365.482 336.837 366.682 335.562 366.682 333.487C366.682 331.312 365.357 330.187 363.057 330.187H358.207ZM373.794 333.137V335.562H373.869C374.694 334.012 376.069 332.962 377.844 332.962C378.219 332.962 378.444 333.012 378.694 333.112V335.312H378.619C378.294 335.212 378.069 335.187 377.669 335.187C375.594 335.187 373.819 336.737 373.819 339.262V346.562H371.494V333.137H373.794ZM386.328 346.938C382.278 346.938 379.753 343.787 379.753 339.862C379.753 335.962 382.278 332.812 386.328 332.812C390.378 332.812 392.853 335.962 392.853 339.862C392.853 343.787 390.378 346.938 386.328 346.938ZM386.303 345.037C389.053 345.037 390.478 342.762 390.478 339.862C390.478 336.962 389.053 334.662 386.303 334.662C383.553 334.662 382.128 336.962 382.128 339.862C382.128 342.762 383.553 345.037 386.303 345.037ZM400.997 351.263C397.472 351.263 395.472 349.862 395.222 347.488H397.397C397.597 348.888 398.947 349.463 400.947 349.463C403.347 349.463 404.672 348.388 404.672 346.112V345.738C404.672 344.962 404.697 344.237 404.722 343.812H404.672C403.747 345.137 402.572 345.962 400.672 345.962C397.247 345.962 394.797 343.287 394.797 339.387C394.797 335.262 397.397 332.812 400.547 332.812C402.472 332.812 403.772 333.562 404.622 334.912H404.672V333.137H406.972V346.012C406.972 347.788 406.372 349.113 405.347 349.988C404.297 350.863 402.797 351.263 400.997 351.263ZM400.897 344.062C403.822 344.062 404.822 342.012 404.822 339.287C404.822 336.462 403.547 334.737 400.872 334.737C398.422 334.737 397.172 336.587 397.172 339.412C397.172 342.262 398.472 344.062 400.897 344.062ZM412.49 333.137V335.562H412.565C413.39 334.012 414.765 332.962 416.54 332.962C416.915 332.962 417.14 333.012 417.39 333.112V335.312H417.315C416.99 335.212 416.765 335.187 416.365 335.187C414.29 335.187 412.515 336.737 412.515 339.262V346.562H410.19V333.137H412.49ZM423.174 346.838C420.624 346.838 418.624 345.587 418.624 343.012C418.624 339.887 420.924 339.213 424.399 338.787C426.374 338.562 427.649 338.237 427.649 336.862C427.649 335.412 426.624 334.512 424.774 334.512C422.649 334.512 421.624 335.512 421.549 337.112H419.299C419.399 334.837 421.124 332.812 424.749 332.812C426.024 332.812 427.149 333.037 427.999 333.537C429.124 334.212 429.799 335.387 429.799 337.187V343.462C429.799 344.537 430.049 345.112 431.224 344.862H431.324V346.487C430.999 346.588 430.624 346.688 430.074 346.688C428.649 346.688 427.949 346.012 427.699 344.587H427.674C426.824 345.762 425.449 346.838 423.174 346.838ZM423.749 345.137C426.424 345.137 427.674 343.162 427.674 341.612V339.412C426.999 339.837 425.824 340.162 424.724 340.362C422.524 340.737 421.074 341.137 421.074 342.987C421.074 344.712 422.399 345.137 423.749 345.137ZM433.212 346.562V333.137H435.512V335.137H435.587C436.412 333.687 437.837 332.812 439.562 332.812C441.187 332.812 442.487 333.662 443.037 335.312H443.087C444.037 333.637 445.612 332.812 447.237 332.812C449.687 332.812 451.387 334.387 451.387 337.187V346.562H449.062V337.387C449.062 335.737 447.987 334.762 446.637 334.762C444.937 334.762 443.462 336.237 443.462 338.287V346.562H441.162V337.387C441.162 335.737 440.237 334.762 438.862 334.762C437.262 334.762 435.537 336.237 435.537 338.287V346.562H433.212ZM454.501 346.562V333.137H456.801V335.137H456.876C457.701 333.687 459.126 332.812 460.851 332.812C462.476 332.812 463.776 333.662 464.326 335.312H464.376C465.326 333.637 466.901 332.812 468.526 332.812C470.976 332.812 472.676 334.387 472.676 337.187V346.562H470.351V337.387C470.351 335.737 469.276 334.762 467.926 334.762C466.226 334.762 464.751 336.237 464.751 338.287V346.562H462.451V337.387C462.451 335.737 461.526 334.762 460.151 334.762C458.551 334.762 456.826 336.237 456.826 338.287V346.562H454.501ZM475.74 330.662V327.962H478.165V330.662H475.74ZM475.79 346.562V333.137H478.115V346.562H475.79ZM483.608 333.137V335.037H483.683C484.658 333.687 485.983 332.812 487.933 332.812C490.733 332.812 492.458 334.387 492.458 337.187V346.562H490.158V337.462C490.158 335.737 489.033 334.762 487.208 334.762C485.133 334.762 483.633 336.237 483.633 338.387V346.562H481.308V333.137H483.608ZM501.265 351.263C497.74 351.263 495.74 349.862 495.49 347.488H497.665C497.865 348.888 499.215 349.463 501.215 349.463C503.615 349.463 504.94 348.388 504.94 346.112V345.738C504.94 344.962 504.965 344.237 504.99 343.812H504.94C504.015 345.137 502.84 345.962 500.94 345.962C497.515 345.962 495.065 343.287 495.065 339.387C495.065 335.262 497.665 332.812 500.815 332.812C502.74 332.812 504.04 333.562 504.89 334.912H504.94V333.137H507.24V346.012C507.24 347.788 506.64 349.113 505.615 349.988C504.565 350.863 503.065 351.263 501.265 351.263ZM501.165 344.062C504.09 344.062 505.09 342.012 505.09 339.287C505.09 336.462 503.815 334.737 501.14 334.737C498.69 334.737 497.44 336.587 497.44 339.412C497.44 342.262 498.74 344.062 501.165 344.062ZM510.233 350.438V349.138C510.933 348.888 511.458 348.388 511.458 346.813V346.562H510.208V343.812H512.908V346.813C512.908 349.013 512.008 350.213 510.233 350.438ZM526.495 346.838C523.945 346.838 521.945 345.587 521.945 343.012C521.945 339.887 524.245 339.213 527.72 338.787C529.695 338.562 530.97 338.237 530.97 336.862C530.97 335.412 529.945 334.512 528.095 334.512C525.97 334.512 524.945 335.512 524.87 337.112H522.62C522.72 334.837 524.445 332.812 528.07 332.812C529.345 332.812 530.47 333.037 531.32 333.537C532.445 334.212 533.12 335.387 533.12 337.187V343.462C533.12 344.537 533.37 345.112 534.545 344.862H534.645V346.487C534.32 346.588 533.945 346.688 533.395 346.688C531.97 346.688 531.27 346.012 531.02 344.587H530.995C530.145 345.762 528.77 346.838 526.495 346.838ZM527.07 345.137C529.745 345.137 530.995 343.162 530.995 341.612V339.412C530.32 339.837 529.145 340.162 528.045 340.362C525.845 340.737 524.395 341.137 524.395 342.987C524.395 344.712 525.72 345.137 527.07 345.137ZM538.833 333.137V335.037H538.908C539.883 333.687 541.208 332.812 543.158 332.812C545.958 332.812 547.683 334.387 547.683 337.187V346.562H545.383V337.462C545.383 335.737 544.258 334.762 542.433 334.762C540.358 334.762 538.858 336.237 538.858 338.387V346.562H536.533V333.137H538.833ZM556.015 346.963C552.39 346.963 550.09 344.212 550.09 339.887C550.09 335.462 552.64 332.812 555.965 332.812C557.865 332.812 559.365 333.762 560.215 335.187H560.265C560.215 334.587 560.19 333.612 560.19 332.712V327.962H562.515V346.562H560.215V344.637H560.165C559.315 346.087 557.89 346.963 556.015 346.963ZM556.19 345.037C559.065 345.037 560.315 342.862 560.315 339.912C560.315 336.887 558.89 334.762 556.19 334.762C553.715 334.762 552.465 336.962 552.465 339.912C552.465 342.862 553.715 345.037 556.19 345.037ZM572.723 346.562V327.962H575.273V346.562H572.723ZM578.842 346.562V333.137H581.142V335.137H581.217C582.042 333.687 583.467 332.812 585.192 332.812C586.817 332.812 588.117 333.662 588.667 335.312H588.717C589.667 333.637 591.242 332.812 592.867 332.812C595.317 332.812 597.017 334.387 597.017 337.187V346.562H594.692V337.387C594.692 335.737 593.617 334.762 592.267 334.762C590.567 334.762 589.092 336.237 589.092 338.287V346.562H586.792V337.387C586.792 335.737 585.867 334.762 584.492 334.762C582.892 334.762 581.167 336.237 581.167 338.287V346.562H578.842ZM600.131 351.113V333.137H602.431V335.237H602.506C603.506 333.713 604.856 332.812 606.781 332.812C610.206 332.812 612.556 335.462 612.556 339.887C612.556 344.187 610.331 346.963 606.706 346.963C604.881 346.963 603.406 346.212 602.481 344.787H602.406C602.431 345.262 602.456 346.012 602.456 347.038V351.113H600.131ZM606.456 345.037C608.931 345.037 610.181 342.862 610.181 339.937C610.181 336.987 608.956 334.787 606.481 334.787C603.631 334.787 602.331 337.087 602.331 339.937C602.331 342.762 603.481 345.037 606.456 345.037ZM615.099 346.562V327.962H617.424V346.562H615.099ZM626.513 346.938C622.388 346.938 619.963 343.787 619.963 339.862C619.963 335.962 622.538 332.812 626.388 332.812C628.388 332.812 629.938 333.587 630.988 334.887C632.088 336.212 632.638 338.137 632.638 340.412H622.338C622.513 343.037 623.938 345.037 626.538 345.037C628.388 345.037 629.663 344.162 630.088 342.737H632.363C631.763 345.237 629.613 346.938 626.513 346.938ZM626.388 334.612C623.963 334.612 622.688 336.362 622.388 338.737H630.163C630.038 336.162 628.713 334.612 626.388 334.612ZM635.117 346.562V333.137H637.417V335.137H637.492C638.317 333.687 639.742 332.812 641.467 332.812C643.092 332.812 644.392 333.662 644.942 335.312H644.992C645.942 333.637 647.517 332.812 649.142 332.812C651.592 332.812 653.292 334.387 653.292 337.187V346.562H650.967V337.387C650.967 335.737 649.892 334.762 648.542 334.762C646.842 334.762 645.367 336.237 645.367 338.287V346.562H643.067V337.387C643.067 335.737 642.142 334.762 640.767 334.762C639.167 334.762 637.442 336.237 637.442 338.287V346.562H635.117ZM662.231 346.938C658.106 346.938 655.681 343.787 655.681 339.862C655.681 335.962 658.256 332.812 662.106 332.812C664.106 332.812 665.656 333.587 666.706 334.887C667.806 336.212 668.356 338.137 668.356 340.412H658.056C658.231 343.037 659.656 345.037 662.256 345.037C664.106 345.037 665.381 344.162 665.806 342.737H668.081C667.481 345.237 665.331 346.938 662.231 346.938ZM662.106 334.612C659.681 334.612 658.406 336.362 658.106 338.737H665.881C665.756 336.162 664.431 334.612 662.106 334.612ZM673.134 333.137V335.037H673.209C674.184 333.687 675.509 332.812 677.459 332.812C680.259 332.812 681.984 334.387 681.984 337.187V346.562H679.684V337.462C679.684 335.737 678.559 334.762 676.734 334.762C674.659 334.762 673.159 336.237 673.159 338.387V346.562H670.834V333.137H673.134ZM684.047 334.937V333.137H686.147V328.912H688.447V333.137H691.222V334.937H688.447V343.412C688.447 344.387 688.972 344.662 689.822 344.662C690.222 344.662 690.747 344.562 690.997 344.487H691.072V346.437C690.447 346.588 689.797 346.663 689.197 346.663C687.397 346.638 686.147 345.912 686.147 343.937V334.937H684.047ZM697.637 346.838C695.087 346.838 693.087 345.587 693.087 343.012C693.087 339.887 695.387 339.213 698.862 338.787C700.837 338.562 702.112 338.237 702.112 336.862C702.112 335.412 701.087 334.512 699.237 334.512C697.112 334.512 696.087 335.512 696.012 337.112H693.762C693.862 334.837 695.587 332.812 699.212 332.812C700.487 332.812 701.612 333.037 702.462 333.537C703.587 334.212 704.262 335.387 704.262 337.187V343.462C704.262 344.537 704.512 345.112 705.687 344.862H705.787V346.487C705.462 346.588 705.087 346.688 704.537 346.688C703.112 346.688 702.412 346.012 702.162 344.587H702.137C701.287 345.762 699.912 346.838 697.637 346.838ZM698.212 345.137C700.887 345.137 702.137 343.162 702.137 341.612V339.412C701.462 339.837 700.287 340.162 699.187 340.362C696.987 340.737 695.537 341.137 695.537 342.987C695.537 344.712 696.862 345.137 698.212 345.137ZM706.606 334.937V333.137H708.706V328.912H711.006V333.137H713.781V334.937H711.006V343.412C711.006 344.387 711.531 344.662 712.381 344.662C712.781 344.662 713.306 344.562 713.556 344.487H713.631V346.437C713.006 346.588 712.356 346.663 711.756 346.663C709.956 346.638 708.706 345.912 708.706 343.937V334.937H706.606ZM716.146 330.662V327.962H718.571V330.662H716.146ZM716.196 346.562V333.137H718.521V346.562H716.196ZM727.563 346.938C723.513 346.938 720.988 343.787 720.988 339.862C720.988 335.962 723.513 332.812 727.563 332.812C731.613 332.812 734.088 335.962 734.088 339.862C734.088 343.787 731.613 346.938 727.563 346.938ZM727.538 345.037C730.288 345.037 731.713 342.762 731.713 339.862C731.713 336.962 730.288 334.662 727.538 334.662C724.788 334.662 723.363 336.962 723.363 339.862C723.363 342.762 724.788 345.037 727.538 345.037ZM738.857 333.137V335.037H738.932C739.907 333.687 741.232 332.812 743.182 332.812C745.982 332.812 747.707 334.387 747.707 337.187V346.562H745.407V337.462C745.407 335.737 744.282 334.762 742.457 334.762C740.382 334.762 738.882 336.237 738.882 338.387V346.562H736.557V333.137H738.857ZM750.589 346.562V343.812H753.289V346.562H750.589Z" fill="white"/>
</svg>
