<svg width="293" height="122" viewBox="0 0 293 122" fill="none" xmlns="http://www.w3.org/2000/svg">
<path d="M292.117 0.4375L-297.103 0.47637L-330.23 121.161L259.085 121.164L292.117 0.4375Z" fill="white"/>
<path d="M60.2855 74.9369C53.6855 74.9369 48.3255 72.0569 48.6855 65.4569H54.2455C54.0455 69.0969 56.7255 70.2969 60.4455 70.2969C63.2855 70.2969 65.9255 69.2169 65.9255 66.5769C65.9255 64.5769 64.5655 63.6969 59.7255 61.9369C54.6455 60.0969 51.6455 58.3369 51.6455 53.8569C51.6455 48.3769 55.8055 45.1769 62.0855 45.1769C67.9255 45.1769 73.0055 47.6569 72.7255 54.0969H67.2455C67.3655 51.2969 65.4455 49.7369 61.8855 49.7369C59.7655 49.7369 57.1255 50.5369 57.0855 53.0969C57.0455 55.0169 58.3655 55.5769 62.8855 57.1369C68.5655 59.0969 71.6055 61.2569 71.6055 65.8169C71.6055 71.8569 66.8055 74.9369 60.2855 74.9369ZM82.8977 74.8969C77.8977 74.8969 73.7377 72.0969 73.7377 65.8169C73.7377 59.4969 77.9377 53.2169 84.9377 53.2169C89.4977 53.2169 93.1777 55.3769 93.4577 60.7369H88.2177C88.0177 58.7769 86.9377 57.5369 84.7777 57.5369C80.8177 57.5369 79.0977 62.0569 79.0977 65.9769C79.0977 68.6169 80.2577 70.5769 83.2177 70.5769C85.2177 70.5769 86.7777 69.4969 87.4977 67.0569H92.6977C91.5777 71.9769 87.9377 74.8969 82.8977 74.8969ZM102.485 53.7769L101.845 57.0569H101.965C103.165 55.0169 104.805 53.5369 107.365 53.5369C108.125 53.5369 108.605 53.6169 108.885 53.6969L107.965 58.4169H107.845C104.125 57.9369 101.525 59.6569 100.645 64.2969L98.7245 74.2969H93.3645L97.3245 53.7769H102.485ZM127.595 65.5369H113.315C113.315 68.7769 114.395 70.7369 117.515 70.7369C119.395 70.7369 120.955 69.9369 121.715 68.1769H126.995C126.355 70.0969 125.275 71.6569 123.835 72.7769C122.115 74.1369 119.915 74.8569 117.435 74.8969C112.115 74.8969 107.995 71.9369 107.995 65.4569C107.995 59.4969 112.355 53.2169 118.995 53.2169C121.235 53.2169 122.795 53.6569 124.155 54.5369C127.235 56.5369 128.355 60.6169 127.595 65.5369ZM118.875 57.3769C116.035 57.3769 114.515 59.4169 113.795 61.8169H122.635C122.715 59.4169 121.635 57.3769 118.875 57.3769ZM148.885 65.5369H134.605C134.605 68.7769 135.685 70.7369 138.805 70.7369C140.685 70.7369 142.245 69.9369 143.005 68.1769H148.285C147.645 70.0969 146.565 71.6569 145.125 72.7769C143.405 74.1369 141.205 74.8569 138.725 74.8969C133.405 74.8969 129.285 71.9369 129.285 65.4569C129.285 59.4969 133.645 53.2169 140.285 53.2169C142.525 53.2169 144.085 53.6569 145.445 54.5369C148.525 56.5369 149.645 60.6169 148.885 65.5369ZM140.165 57.3769C137.325 57.3769 135.805 59.4169 135.085 61.8169H143.925C144.005 59.4169 142.925 57.3769 140.165 57.3769ZM158.854 53.7769L158.254 57.0169H158.374C160.134 54.4969 161.854 53.2169 164.774 53.2169C168.854 53.2169 171.214 56.5369 170.294 61.3369L167.814 74.2969H162.454L164.854 61.9769C165.374 59.2569 164.334 57.7769 162.054 57.7769C159.534 57.7769 157.734 60.0969 157.174 63.0969L155.014 74.2969H149.654L153.614 53.7769H158.854ZM191.619 65.5369H177.339C177.339 68.7769 178.419 70.7369 181.539 70.7369C183.419 70.7369 184.979 69.9369 185.739 68.1769H191.019C190.379 70.0969 189.299 71.6569 187.859 72.7769C186.139 74.1369 183.939 74.8569 181.459 74.8969C176.139 74.8969 172.019 71.9369 172.019 65.4569C172.019 59.4969 176.379 53.2169 183.019 53.2169C185.259 53.2169 186.819 53.6569 188.179 54.5369C191.259 56.5369 192.379 60.6169 191.619 65.5369ZM182.899 57.3769C180.059 57.3769 178.539 59.4169 177.819 61.8169H186.659C186.739 59.4169 185.659 57.3769 182.899 57.3769ZM201.508 53.7769L200.868 57.0569H200.988C202.188 55.0169 203.828 53.5369 206.388 53.5369C207.148 53.5369 207.628 53.6169 207.908 53.6969L206.988 58.4169H206.868C203.148 57.9369 200.548 59.6569 199.668 64.2969L197.748 74.2969H192.388L196.348 53.7769H201.508ZM216.12 74.8969C211.16 74.8969 207.2 72.8169 206.84 67.6569H211.92C212.12 69.4169 213.32 70.9769 216.12 70.9769C218.08 70.9769 219.48 70.2969 219.48 68.7369C219.48 67.2569 217.72 66.6969 214.72 65.6969C211.6 64.6569 208.84 63.3369 208.84 59.6969C208.84 55.5369 212.16 53.2169 216.84 53.2169C221.44 53.2169 224.88 55.5369 225.24 60.0169H220.32C220.08 58.4169 218.96 57.0569 216.68 57.0569C215.24 57.0569 213.6 57.5369 213.6 59.0969C213.6 60.4969 215.44 60.8169 218.6 61.8969C221.56 62.8969 224.4 64.4169 224.4 68.0169C224.4 72.4169 221.32 74.8969 216.12 74.8969Z" fill="black"/>
</svg>
