<svg width="423" height="122" viewBox="0 0 423 122" fill="none" xmlns="http://www.w3.org/2000/svg">
<path d="M422.789 0.0703125L-171.121 0.109492L-204.512 121.754L389.494 121.758L422.789 0.0703125Z" fill="white"/>
<path d="M60.2855 71.64C53.6855 71.64 48.3255 68.76 48.6855 62.16H54.2455C54.0455 65.8 56.7255 67 60.4455 67C63.2855 67 65.9255 65.92 65.9255 63.28C65.9255 61.28 64.5655 60.4 59.7255 58.64C54.6455 56.8 51.6455 55.04 51.6455 50.56C51.6455 45.08 55.8055 41.88 62.0855 41.88C67.9255 41.88 73.0055 44.36 72.7255 50.8H67.2455C67.3655 48 65.4455 46.44 61.8855 46.44C59.7655 46.44 57.1255 47.24 57.0855 49.8C57.0455 51.72 58.3655 52.28 62.8855 53.84C68.5655 55.8 71.6055 57.96 71.6055 62.52C71.6055 68.56 66.8055 71.64 60.2855 71.64ZM77.4655 71L74.6255 42.4H80.4255L81.2655 56.6C81.4255 59.28 81.3855 62.92 81.3855 62.92H81.4655C81.4655 62.92 82.7855 59.36 83.8655 56.64L89.5455 42.4H94.9455L95.6255 56.6C95.7455 59.16 95.7855 62.92 95.7855 62.92H95.8655C95.8655 62.92 97.3055 59.16 98.3855 56.56L104.305 42.4H109.945L97.1455 71H91.8255L90.9855 55.6C90.8655 53.32 90.8655 50.32 90.8655 50.32H90.7855C90.7855 50.32 89.8655 53.24 88.9055 55.6L82.7055 71H77.4655ZM120.024 71.64C112.664 71.64 107.584 67.04 107.584 59.36C107.584 50.16 112.904 41.84 122.504 41.84C129.904 41.84 134.824 46.76 134.824 54.32C134.824 63.32 129.784 71.64 120.024 71.64ZM113.424 59.24C113.424 63.52 115.344 66.92 120.264 66.92C126.704 66.92 128.984 60 128.984 54.48C128.984 50.04 126.904 46.56 122.144 46.56C115.824 46.56 113.424 53.48 113.424 59.24ZM135.282 47.24L136.202 42.4H158.442L157.522 47.24H149.242L144.642 71H138.922L143.522 47.24H135.282ZM172.754 71.6C167.394 71.6 163.114 68.32 163.114 62.04C163.114 55.56 167.674 49.92 174.674 49.92C179.914 49.92 184.154 53.2 184.154 59.28C184.154 65.84 179.754 71.6 172.754 71.6ZM168.474 62.36C168.474 65.16 169.714 67.56 172.874 67.56C177.034 67.56 178.794 63.04 178.794 59.12C178.794 56.44 177.554 53.96 174.394 53.96C170.274 53.96 168.474 58.4 168.474 62.36ZM193.775 50.48L193.175 53.72H193.295C195.055 51.2 196.775 49.92 199.695 49.92C203.775 49.92 206.135 53.24 205.215 58.04L202.735 71H197.375L199.775 58.68C200.295 55.96 199.255 54.48 196.975 54.48C194.455 54.48 192.655 56.8 192.095 59.8L189.935 71H184.575L188.535 50.48H193.775ZM213.414 71L218.934 42.4H224.654L230.494 58.36C231.134 60.08 231.654 62.52 231.654 62.52H231.734C231.734 62.52 232.174 59.56 232.574 57.56L235.494 42.4H241.054L235.534 71H230.094L223.974 55.08C223.254 53.2 222.774 51.08 222.774 51.08H222.694C222.694 51.08 222.254 54.08 221.854 56.08L218.974 71H213.414ZM257.099 71L256.299 64.88H246.419L243.539 71H237.739L252.379 42.4H258.299L263.019 71H257.099ZM252.379 52.36L248.499 60.48H255.739L254.739 52.44C254.539 50.8 254.379 47.88 254.379 47.88H254.299C254.299 47.88 253.099 50.84 252.379 52.36ZM275.715 71.64C269.115 71.64 263.755 68.76 264.115 62.16H269.675C269.475 65.8 272.155 67 275.875 67C278.715 67 281.355 65.92 281.355 63.28C281.355 61.28 279.995 60.4 275.155 58.64C270.075 56.8 267.075 55.04 267.075 50.56C267.075 45.08 271.235 41.88 277.515 41.88C283.355 41.88 288.435 44.36 288.155 50.8H282.675C282.795 48 280.875 46.44 277.315 46.44C275.195 46.44 272.555 47.24 272.515 49.8C272.475 51.72 273.795 52.28 278.315 53.84C283.995 55.8 287.035 57.96 287.035 62.52C287.035 68.56 282.235 71.64 275.715 71.64ZM301.377 71.6C293.777 71.6 289.537 66.48 289.537 59.44C289.537 50.72 295.137 41.84 304.817 41.84C310.617 41.84 314.977 44.76 315.337 51.48H309.697C309.417 48.24 307.657 46.68 304.377 46.68C298.137 46.68 295.377 53.44 295.377 59.36C295.377 63.32 296.977 66.88 301.817 66.88C305.177 66.88 307.497 64.96 308.497 61.8H314.137C313.337 64.8 311.897 67.4 309.657 69.12C307.297 70.92 304.857 71.6 301.377 71.6ZM332.06 71L331.26 64.88H321.38L318.5 71H312.7L327.34 42.4H333.26L337.98 71H332.06ZM327.34 52.36L323.46 60.48H330.7L329.7 52.44C329.5 50.8 329.34 47.88 329.34 47.88H329.26C329.26 47.88 328.06 50.84 327.34 52.36ZM340.172 71L345.692 42.4H357.212C362.852 42.4 365.852 45.52 365.852 50C365.852 54.12 363.372 56.56 359.572 57.52V57.64C361.852 58.36 363.092 59.88 363.092 62.56C363.092 64.2 362.772 66.68 362.772 68.88C362.772 69.76 362.932 70.52 363.332 70.72V71H357.812C357.492 70.64 357.372 69.84 357.372 68.88C357.372 67.08 357.612 65 357.612 63.36C357.612 60.8 356.172 59.52 353.292 59.52H348.092L345.892 71H340.172ZM350.532 47.04L348.972 55.08H354.932C357.692 55.08 360.132 53.8 360.132 50.64C360.132 48.32 358.852 47.04 356.332 47.04H350.532Z" fill="black"/>
</svg>
