<svg width="805" height="171" viewBox="0 0 805 171" fill="none" xmlns="http://www.w3.org/2000/svg">
<path d="M549.683 0.046875L-281.584 0.101713L-328.32 170.362L503.082 170.367L549.683 0.046875Z" fill="white"/>
<path d="M51.3133 53.24L52.2333 48.4H74.4733L73.5533 53.24H65.2733L60.6733 77H54.9533L59.5533 53.24H51.3133ZM71.2317 77L75.1917 56.48H80.5517L76.5917 77H71.2317ZM75.8317 53.28L76.7517 48.4H82.1117L81.1917 53.28H75.8317ZM80.0208 77L83.9808 56.48H89.1408L88.5808 59.48H88.7008C90.1008 57.28 91.9408 55.92 94.4608 55.92C97.2208 55.92 98.7808 57.56 99.3808 59.84H99.4608C101.301 57.04 103.541 55.92 106.261 55.92C109.941 55.92 112.741 58.8 111.661 64.24L109.221 77H103.861L106.301 64.4C106.781 61.84 105.741 60.48 103.861 60.48C101.581 60.48 100.061 62.52 99.4608 65.68L97.3008 77H91.9408L94.3808 64.4C94.8608 61.84 93.8208 60.48 91.9408 60.48C89.6608 60.48 88.1408 62.52 87.5408 65.68L85.3808 77H80.0208ZM133.002 68.24H118.722C118.722 71.48 119.802 73.44 122.922 73.44C124.802 73.44 126.362 72.64 127.122 70.88H132.402C131.762 72.8 130.682 74.36 129.242 75.48C127.522 76.84 125.322 77.56 122.842 77.6C117.522 77.6 113.402 74.64 113.402 68.16C113.402 62.2 117.762 55.92 124.402 55.92C126.642 55.92 128.202 56.36 129.562 57.24C132.642 59.24 133.762 63.32 133.002 68.24ZM124.282 60.08C121.442 60.08 119.922 62.12 119.202 64.52H128.042C128.122 62.12 127.042 60.08 124.282 60.08ZM133.851 77L139.371 48.4H144.731L139.211 77H133.851ZM142.716 77L146.676 56.48H152.036L148.076 77H142.716ZM147.316 53.28L148.236 48.4H153.596L152.676 53.28H147.316ZM160.705 56.48L160.105 59.72H160.225C161.985 57.2 163.705 55.92 166.625 55.92C170.705 55.92 173.065 59.24 172.145 64.04L169.665 77H164.305L166.705 64.68C167.225 61.96 166.185 60.48 163.905 60.48C161.385 60.48 159.585 62.8 159.025 65.8L156.865 77H151.505L155.465 56.48H160.705ZM193.47 68.24H179.19C179.19 71.48 180.27 73.44 183.39 73.44C185.27 73.44 186.83 72.64 187.59 70.88H192.87C192.23 72.8 191.15 74.36 189.71 75.48C187.99 76.84 185.79 77.56 183.31 77.6C177.99 77.6 173.87 74.64 173.87 68.16C173.87 62.2 178.23 55.92 184.87 55.92C187.11 55.92 188.67 56.36 190.03 57.24C193.11 59.24 194.23 63.32 193.47 68.24ZM184.75 60.08C181.91 60.08 180.39 62.12 179.67 64.52H188.51C188.59 62.12 187.51 60.08 184.75 60.08Z" fill="black"/>
<path d="M53.3133 118.289V105.464H49.1883V103.864C51.4383 103.814 53.5383 102.964 53.8633 100.364H55.7383V118.289H53.3133ZM65.2271 118.664C61.4771 118.664 58.9771 116.389 58.7521 113.514H61.1271C61.5021 115.314 62.7521 116.589 65.1771 116.589C67.6521 116.589 69.2271 114.939 69.2271 112.414C69.2271 109.839 67.5021 108.314 65.3771 108.314C63.4021 108.314 62.1521 109.114 61.4771 109.964H59.1771L61.1021 100.489H70.6021V102.589H62.8021L61.6521 107.889H61.7021C62.7021 106.864 64.0021 106.289 65.8271 106.289C68.8271 106.289 71.6771 108.539 71.6771 112.464C71.6771 116.289 68.9271 118.664 65.2271 118.664ZM83.8389 118.289L79.5889 104.864H82.0639L84.1639 112.314C84.5889 113.839 85.0389 116.239 85.0389 116.239H85.0889C85.0889 116.239 85.5389 113.989 85.9889 112.364L88.0139 104.864H90.2139L92.2139 112.364C92.5889 113.789 93.0639 116.264 93.0639 116.264H93.1139C93.1139 116.264 93.4889 113.964 93.9889 112.314L96.2139 104.864H98.6139L94.2389 118.289H91.9139L89.9389 110.889C89.6139 109.589 89.0889 107.139 89.0889 107.139H89.0389C89.0389 107.139 88.5389 109.614 88.2139 110.889L86.1889 118.289H83.8389ZM106.051 118.664C101.926 118.664 99.501 115.514 99.501 111.589C99.501 107.689 102.076 104.539 105.926 104.539C107.926 104.539 109.476 105.314 110.526 106.614C111.626 107.939 112.176 109.864 112.176 112.139H101.876C102.051 114.764 103.476 116.764 106.076 116.764C107.926 116.764 109.201 115.889 109.626 114.464H111.901C111.301 116.964 109.151 118.664 106.051 118.664ZM105.926 106.339C103.501 106.339 102.226 108.089 101.926 110.464H109.701C109.576 107.889 108.251 106.339 105.926 106.339ZM120.48 118.664C116.355 118.664 113.93 115.514 113.93 111.589C113.93 107.689 116.505 104.539 120.355 104.539C122.355 104.539 123.905 105.314 124.955 106.614C126.055 107.939 126.605 109.864 126.605 112.139H116.305C116.48 114.764 117.905 116.764 120.505 116.764C122.355 116.764 123.63 115.889 124.055 114.464H126.33C125.73 116.964 123.58 118.664 120.48 118.664ZM120.355 106.339C117.93 106.339 116.655 108.089 116.355 110.464H124.13C124.005 107.889 122.68 106.339 120.355 106.339ZM137.908 118.289L133.308 111.214L131.408 113.014V118.289H129.083V99.6891H131.408V108.514C131.408 108.989 131.358 109.939 131.308 110.589L137.133 104.864H140.033L134.908 109.689L140.633 118.289H137.908ZM147.417 118.689C143.717 118.689 141.617 116.939 141.417 114.214H143.767C144.042 116.164 145.542 116.814 147.467 116.814C149.592 116.814 150.492 115.889 150.492 114.689C150.492 113.214 149.367 112.839 146.992 112.364C144.367 111.814 141.992 111.264 141.992 108.314C141.992 106.014 143.792 104.564 146.917 104.564C150.292 104.564 151.967 106.139 152.267 108.464H149.942C149.742 107.089 148.792 106.314 146.867 106.314C145.042 106.314 144.267 107.164 144.267 108.189C144.267 109.589 145.567 109.864 147.842 110.314C150.517 110.839 152.817 111.439 152.817 114.564C152.817 117.289 150.567 118.689 147.417 118.689ZM155.104 122.164V120.864C155.804 120.614 156.329 120.114 156.329 118.539V118.289H155.079V115.539H157.779V118.539C157.779 120.739 156.879 121.939 155.104 122.164ZM172.115 118.664C168.64 118.664 166.54 116.789 166.54 112.539V112.139H169.04V112.464C169.04 115.589 170.065 116.539 172.14 116.539C173.965 116.539 175.015 115.589 175.015 113.364V99.6891H177.565V113.514C177.565 114.989 177.14 116.264 176.24 117.164C175.34 118.089 173.965 118.664 172.115 118.664ZM184.841 118.564C182.291 118.564 180.291 117.314 180.291 114.739C180.291 111.614 182.591 110.939 186.066 110.514C188.041 110.289 189.316 109.964 189.316 108.589C189.316 107.139 188.291 106.239 186.441 106.239C184.316 106.239 183.291 107.239 183.216 108.839H180.966C181.066 106.564 182.791 104.539 186.416 104.539C187.691 104.539 188.816 104.764 189.666 105.264C190.791 105.939 191.466 107.114 191.466 108.914V115.189C191.466 116.264 191.716 116.839 192.891 116.589H192.991V118.214C192.666 118.314 192.291 118.414 191.741 118.414C190.316 118.414 189.616 117.739 189.366 116.314H189.341C188.491 117.489 187.116 118.564 184.841 118.564ZM185.416 116.864C188.091 116.864 189.341 114.889 189.341 113.339V111.139C188.666 111.564 187.491 111.889 186.391 112.089C184.191 112.464 182.741 112.864 182.741 114.714C182.741 116.439 184.066 116.864 185.416 116.864ZM197.179 104.864V106.764H197.254C198.229 105.414 199.554 104.539 201.504 104.539C204.304 104.539 206.029 106.114 206.029 108.914V118.289H203.729V109.189C203.729 107.464 202.604 106.489 200.779 106.489C198.704 106.489 197.204 107.964 197.204 110.114V118.289H194.879V104.864H197.179ZM220.037 118.289H217.737V116.414H217.687C216.737 117.739 215.562 118.589 213.637 118.589C210.862 118.589 209.087 116.914 209.087 114.114V104.864H211.412V113.989C211.412 115.689 212.487 116.689 214.337 116.689C216.387 116.689 217.712 115.114 217.712 113.039V104.864H220.037V118.289ZM227.273 118.564C224.723 118.564 222.723 117.314 222.723 114.739C222.723 111.614 225.023 110.939 228.498 110.514C230.473 110.289 231.748 109.964 231.748 108.589C231.748 107.139 230.723 106.239 228.873 106.239C226.748 106.239 225.723 107.239 225.648 108.839H223.398C223.498 106.564 225.223 104.539 228.848 104.539C230.123 104.539 231.248 104.764 232.098 105.264C233.223 105.939 233.898 107.114 233.898 108.914V115.189C233.898 116.264 234.148 116.839 235.323 116.589H235.423V118.214C235.098 118.314 234.723 118.414 234.173 118.414C232.748 118.414 232.048 117.739 231.798 116.314H231.773C230.923 117.489 229.548 118.564 227.273 118.564ZM227.848 116.864C230.523 116.864 231.773 114.889 231.773 113.339V111.139C231.098 111.564 229.923 111.889 228.823 112.089C226.623 112.464 225.173 112.864 225.173 114.714C225.173 116.439 226.498 116.864 227.848 116.864ZM239.611 104.864V107.289H239.686C240.511 105.739 241.886 104.689 243.661 104.689C244.036 104.689 244.261 104.739 244.511 104.839V107.039H244.436C244.111 106.939 243.886 106.914 243.486 106.914C241.411 106.914 239.636 108.464 239.636 110.989V118.289H237.311V104.864H239.611ZM248.434 122.964C247.684 122.964 246.834 122.839 246.459 122.689V120.689H246.559C246.809 120.839 247.384 120.939 247.959 120.939C248.884 120.939 249.484 120.589 249.959 119.314C249.959 119.264 250.484 117.764 250.434 117.614L245.309 104.864H247.834L250.609 112.314C251.159 113.839 251.734 115.939 251.734 115.939H251.784C251.784 115.939 252.409 113.814 252.934 112.314L255.609 104.864H258.034L252.334 119.514C251.234 122.339 250.159 122.964 248.434 122.964ZM265.788 118.289C265.888 116.139 266.613 114.614 267.688 113.389C269.038 111.889 270.888 110.864 272.588 109.839C274.813 108.564 276.113 107.664 276.113 105.614C276.113 103.514 274.688 102.089 272.413 102.089C271.213 102.089 270.338 102.464 269.688 103.189C268.988 103.914 268.688 104.889 268.688 106.389H266.213C266.213 104.389 266.788 102.964 267.863 101.864C268.963 100.689 270.663 100.089 272.613 100.089C276.263 100.089 278.613 102.414 278.613 105.564C278.613 108.864 276.438 110.014 273.763 111.539C271.913 112.664 269.488 114.014 268.788 115.864L268.738 116.064H278.288V118.289H265.788ZM288.054 118.689C283.654 118.689 281.054 115.039 281.054 109.364C281.054 103.614 283.829 100.064 288.079 100.064C292.354 100.064 295.079 103.564 295.079 109.364C295.079 115.039 292.529 118.689 288.054 118.689ZM288.079 116.639C291.179 116.639 292.579 113.864 292.579 109.364C292.579 104.939 291.104 102.089 288.079 102.089C285.029 102.089 283.529 104.889 283.529 109.364C283.529 113.789 285.029 116.639 288.079 116.639ZM297.282 118.289C297.382 116.139 298.107 114.614 299.182 113.389C300.532 111.889 302.382 110.864 304.082 109.839C306.307 108.564 307.607 107.664 307.607 105.614C307.607 103.514 306.182 102.089 303.907 102.089C302.707 102.089 301.832 102.464 301.182 103.189C300.482 103.914 300.182 104.889 300.182 106.389H297.707C297.707 104.389 298.282 102.964 299.357 101.864C300.457 100.689 302.157 100.089 304.107 100.089C307.757 100.089 310.107 102.414 310.107 105.564C310.107 108.864 307.932 110.014 305.257 111.539C303.407 112.664 300.982 114.014 300.282 115.864L300.232 116.064H309.782V118.289H297.282ZM320.264 118.289V113.964H311.639V111.814L320.639 100.289H322.614V112.089H325.514V113.964H322.614V118.289H320.264ZM313.589 112.189C313.589 112.189 315.214 112.089 316.239 112.089H320.264V106.039C320.264 105.089 320.389 103.414 320.389 103.414H320.339C320.339 103.414 319.514 104.814 318.789 105.739L315.489 109.939C314.789 110.814 313.589 112.139 313.589 112.139V112.189ZM334.006 112.214V110.114H340.956V112.214H334.006ZM350.722 118.289V99.6891H354.022L357.897 109.789C358.647 111.814 359.772 115.614 359.772 115.614H359.822C359.822 115.614 360.972 111.839 361.722 109.789L365.522 99.6891H368.922V118.289H366.472V107.039C366.472 105.389 366.622 102.264 366.622 102.264H366.572C366.572 102.264 365.822 105.064 365.272 106.514L360.747 118.289H358.747L354.222 106.514C353.697 105.064 352.922 102.264 352.922 102.264H352.872C352.872 102.264 353.022 105.389 353.022 107.039V118.289H350.722ZM376.418 118.564C373.868 118.564 371.868 117.314 371.868 114.739C371.868 111.614 374.168 110.939 377.643 110.514C379.618 110.289 380.893 109.964 380.893 108.589C380.893 107.139 379.868 106.239 378.018 106.239C375.893 106.239 374.868 107.239 374.793 108.839H372.543C372.643 106.564 374.368 104.539 377.993 104.539C379.268 104.539 380.393 104.764 381.243 105.264C382.368 105.939 383.043 107.114 383.043 108.914V115.189C383.043 116.264 383.293 116.839 384.468 116.589H384.568V118.214C384.243 118.314 383.868 118.414 383.318 118.414C381.893 118.414 381.193 117.739 380.943 116.314H380.918C380.068 117.489 378.693 118.564 376.418 118.564ZM376.993 116.864C379.668 116.864 380.918 114.889 380.918 113.339V111.139C380.243 111.564 379.068 111.889 377.968 112.089C375.768 112.464 374.318 112.864 374.318 114.714C374.318 116.439 375.643 116.864 376.993 116.864ZM387.984 122.964C387.234 122.964 386.384 122.839 386.009 122.689V120.689H386.109C386.359 120.839 386.934 120.939 387.509 120.939C388.434 120.939 389.034 120.589 389.509 119.314C389.509 119.264 390.034 117.764 389.984 117.614L384.859 104.864H387.384L390.159 112.314C390.709 113.839 391.284 115.939 391.284 115.939H391.334C391.334 115.939 391.959 113.814 392.484 112.314L395.159 104.864H397.584L391.884 119.514C390.784 122.339 389.709 122.964 387.984 122.964ZM405.339 118.289C405.439 116.139 406.164 114.614 407.239 113.389C408.589 111.889 410.439 110.864 412.139 109.839C414.364 108.564 415.664 107.664 415.664 105.614C415.664 103.514 414.239 102.089 411.964 102.089C410.764 102.089 409.889 102.464 409.239 103.189C408.539 103.914 408.239 104.889 408.239 106.389H405.764C405.764 104.389 406.339 102.964 407.414 101.864C408.514 100.689 410.214 100.089 412.164 100.089C415.814 100.089 418.164 102.414 418.164 105.564C418.164 108.864 415.989 110.014 413.314 111.539C411.464 112.664 409.039 114.014 408.339 115.864L408.289 116.064H417.839V118.289H405.339ZM427.605 118.689C423.205 118.689 420.605 115.039 420.605 109.364C420.605 103.614 423.38 100.064 427.63 100.064C431.905 100.064 434.63 103.564 434.63 109.364C434.63 115.039 432.08 118.689 427.605 118.689ZM427.63 116.639C430.73 116.639 432.13 113.864 432.13 109.364C432.13 104.939 430.655 102.089 427.63 102.089C424.58 102.089 423.08 104.889 423.08 109.364C423.08 113.789 424.58 116.639 427.63 116.639ZM436.833 118.289C436.933 116.139 437.658 114.614 438.733 113.389C440.083 111.889 441.933 110.864 443.633 109.839C445.858 108.564 447.158 107.664 447.158 105.614C447.158 103.514 445.733 102.089 443.458 102.089C442.258 102.089 441.383 102.464 440.733 103.189C440.033 103.914 439.733 104.889 439.733 106.389H437.258C437.258 104.389 437.833 102.964 438.908 101.864C440.008 100.689 441.708 100.089 443.658 100.089C447.308 100.089 449.658 102.414 449.658 105.564C449.658 108.864 447.483 110.014 444.808 111.539C442.958 112.664 440.533 114.014 439.833 115.864L439.783 116.064H449.333V118.289H436.833ZM459.815 118.289V113.964H451.19V111.814L460.19 100.289H462.165V112.089H465.065V113.964H462.165V118.289H459.815ZM453.14 112.189C453.14 112.189 454.765 112.089 455.79 112.089H459.815V106.039C459.815 105.089 459.94 103.414 459.94 103.414H459.89C459.89 103.414 459.065 104.814 458.34 105.739L455.04 109.939C454.34 110.814 453.14 112.139 453.14 112.139V112.189Z" fill="black"/>
</svg>
