<svg width="487" height="121" viewBox="0 0 487 121" fill="none" xmlns="http://www.w3.org/2000/svg">
<path d="M401.14 0L-329.155 0.0359353L-362.113 120.103L368.277 120.109L401.14 0Z" fill="white"/>
<path d="M50.66 71.1094L56.18 42.5094H67.18C72.66 42.5094 76.3 45.5894 76.3 50.9494C76.3 57.0694 71.94 60.7494 65.54 60.7494H58.58L56.58 71.1094H50.66ZM61.14 47.5094L59.5 56.0694H65.26C67.94 56.0694 70.38 54.6294 70.38 51.2294C70.38 48.9094 69.02 47.5094 66.42 47.5094H61.14ZM84.1056 50.5894L83.4656 53.8694H83.5856C84.7856 51.8294 86.4256 50.3494 88.9856 50.3494C89.7456 50.3494 90.2256 50.4294 90.5056 50.5094L89.5856 55.2294H89.4656C85.7456 54.7494 83.1456 56.4694 82.2656 61.1094L80.3456 71.1094H74.9856L78.9456 50.5894H84.1056ZM99.2966 71.7094C93.9366 71.7094 89.6566 68.4294 89.6566 62.1494C89.6566 55.6694 94.2166 50.0294 101.217 50.0294C106.457 50.0294 110.697 53.3094 110.697 59.3894C110.697 65.9494 106.297 71.7094 99.2966 71.7094ZM95.0166 62.4694C95.0166 65.2694 96.2566 67.6694 99.4166 67.6694C103.577 67.6694 105.337 63.1494 105.337 59.2294C105.337 56.5494 104.097 54.0694 100.937 54.0694C96.8166 54.0694 95.0166 58.5094 95.0166 62.4694ZM121.198 71.7094C116.198 71.7094 112.038 68.9094 112.038 62.6294C112.038 56.3094 116.238 50.0294 123.238 50.0294C127.798 50.0294 131.478 52.1894 131.758 57.5494H126.518C126.318 55.5894 125.238 54.3494 123.078 54.3494C119.118 54.3494 117.398 58.8694 117.398 62.7894C117.398 65.4294 118.558 67.3894 121.518 67.3894C123.518 67.3894 125.078 66.3094 125.798 63.8694H130.998C129.878 68.7894 126.238 71.7094 121.198 71.7094ZM152.185 62.3494H137.905C137.905 65.5894 138.985 67.5494 142.105 67.5494C143.985 67.5494 145.545 66.7494 146.305 64.9894H151.585C150.945 66.9094 149.865 68.4694 148.425 69.5894C146.705 70.9494 144.505 71.6694 142.025 71.7094C136.705 71.7094 132.585 68.7494 132.585 62.2694C132.585 56.3094 136.945 50.0294 143.585 50.0294C145.825 50.0294 147.385 50.4694 148.745 51.3494C151.825 53.3494 152.945 57.4294 152.185 62.3494ZM143.465 54.1894C140.625 54.1894 139.105 56.2294 138.385 58.6294H147.225C147.305 56.2294 146.225 54.1894 143.465 54.1894ZM162.194 71.7094C157.234 71.7094 153.274 69.6294 152.914 64.4694H157.994C158.194 66.2294 159.394 67.7894 162.194 67.7894C164.154 67.7894 165.554 67.1094 165.554 65.5494C165.554 64.0694 163.794 63.5094 160.794 62.5094C157.674 61.4694 154.914 60.1494 154.914 56.5094C154.914 52.3494 158.234 50.0294 162.914 50.0294C167.514 50.0294 170.954 52.3494 171.314 56.8294H166.394C166.154 55.2294 165.034 53.8694 162.754 53.8694C161.314 53.8694 159.674 54.3494 159.674 55.9094C159.674 57.3094 161.514 57.6294 164.674 58.7094C167.634 59.7094 170.474 61.2294 170.474 64.8294C170.474 69.2294 167.394 71.7094 162.194 71.7094ZM180.866 71.7094C175.906 71.7094 171.946 69.6294 171.586 64.4694H176.666C176.866 66.2294 178.066 67.7894 180.866 67.7894C182.826 67.7894 184.226 67.1094 184.226 65.5494C184.226 64.0694 182.466 63.5094 179.466 62.5094C176.346 61.4694 173.586 60.1494 173.586 56.5094C173.586 52.3494 176.906 50.0294 181.586 50.0294C186.186 50.0294 189.626 52.3494 189.986 56.8294H185.066C184.826 55.2294 183.706 53.8694 181.426 53.8694C179.986 53.8694 178.346 54.3494 178.346 55.9094C178.346 57.3094 180.186 57.6294 183.346 58.7094C186.306 59.7094 189.146 61.2294 189.146 64.8294C189.146 69.2294 186.066 71.7094 180.866 71.7094ZM192.613 59.0694L193.733 53.2694H199.493L198.373 59.0694H192.613ZM190.293 71.1094L191.413 65.3094H197.173L196.053 71.1094H190.293ZM209.716 47.3494L210.636 42.5094H232.876L231.956 47.3494H223.676L219.076 71.1094H213.356L217.956 47.3494H209.716ZM235.356 50.5894L234.716 53.8694H234.836C236.036 51.8294 237.676 50.3494 240.236 50.3494C240.996 50.3494 241.476 50.4294 241.756 50.5094L240.836 55.2294H240.716C236.996 54.7494 234.396 56.4694 233.516 61.1094L231.596 71.1094H226.236L230.196 50.5894H235.356ZM240.142 71.1094L244.102 50.5894H249.462L245.502 71.1094H240.142ZM244.742 47.3894L245.662 42.5094H251.022L250.102 47.3894H244.742ZM254.456 71.1094L251.056 50.5894H256.496L257.776 60.9494C258.056 63.1894 258.136 64.6294 258.136 64.6294H258.216C258.216 64.6294 258.736 63.1894 259.696 61.2294L264.656 50.5894H270.016L259.576 71.1094H254.456ZM267.837 71.1094L271.797 50.5894H277.157L273.197 71.1094H267.837ZM272.437 47.3894L273.357 42.5094H278.717L277.797 47.3894H272.437ZM289.426 71.1094C289.186 70.6694 289.106 69.7894 289.146 68.8694H289.066C287.826 70.1894 286.306 71.5894 283.346 71.5894C280.186 71.5894 276.826 69.7894 276.826 65.5494C276.826 60.1094 281.146 59.1094 286.146 58.7094C289.986 58.3894 291.466 58.2294 291.466 56.1894C291.466 54.7094 290.306 53.9094 288.266 53.9094C286.026 53.9094 284.546 54.7894 284.066 56.8294H279.266C279.946 52.6294 283.186 50.0694 288.466 50.0694C293.546 50.0694 297.386 52.2694 296.266 58.2294L294.346 68.0694C294.066 69.4694 294.186 70.4294 294.506 70.9094V71.1094H289.426ZM281.986 65.0694C281.986 66.9094 283.266 67.8694 285.066 67.8694C287.866 67.8694 289.666 66.1094 290.066 64.2294L290.706 60.9894C289.666 61.4694 288.546 61.7094 286.786 62.0294C284.826 62.3894 281.986 62.2694 281.986 65.0694Z" fill="black"/>
</svg>
