<svg width="490" height="120" viewBox="0 0 490 120" fill="none" xmlns="http://www.w3.org/2000/svg">
<path d="M483.284 0L-242.451 0.0357109L-275.203 119.353L450.626 119.359L483.284 0Z" fill="white"/>
<path d="M53.66 73.1797L59.18 44.5797H70.18C75.66 44.5797 79.3 47.6597 79.3 53.0197C79.3 59.1397 74.94 62.8197 68.54 62.8197H61.58L59.58 73.1797H53.66ZM64.14 49.5797L62.5 58.1397H68.26C70.94 58.1397 73.38 56.6997 73.38 53.2997C73.38 50.9797 72.02 49.5797 69.42 49.5797H64.14ZM87.1056 52.6597L86.4656 55.9397H86.5856C87.7856 53.8997 89.4256 52.4197 91.9856 52.4197C92.7456 52.4197 93.2256 52.4997 93.5056 52.5797L92.5856 57.2997H92.4656C88.7456 56.8197 86.1456 58.5397 85.2656 63.1797L83.3456 73.1797H77.9856L81.9456 52.6597H87.1056ZM102.297 73.7797C96.9366 73.7797 92.6566 70.4997 92.6566 64.2197C92.6566 57.7397 97.2166 52.0997 104.217 52.0997C109.457 52.0997 113.697 55.3797 113.697 61.4597C113.697 68.0197 109.297 73.7797 102.297 73.7797ZM98.0166 64.5397C98.0166 67.3397 99.2566 69.7397 102.417 69.7397C106.577 69.7397 108.337 65.2197 108.337 61.2997C108.337 58.6197 107.097 56.1397 103.937 56.1397C99.8166 56.1397 98.0166 60.5797 98.0166 64.5397ZM124.198 73.7797C119.198 73.7797 115.038 70.9797 115.038 64.6997C115.038 58.3797 119.238 52.0997 126.238 52.0997C130.798 52.0997 134.478 54.2597 134.758 59.6197H129.518C129.318 57.6597 128.238 56.4197 126.078 56.4197C122.118 56.4197 120.398 60.9397 120.398 64.8597C120.398 67.4997 121.558 69.4597 124.518 69.4597C126.518 69.4597 128.078 68.3797 128.798 65.9397H133.998C132.878 70.8597 129.238 73.7797 124.198 73.7797ZM155.185 64.4197H140.905C140.905 67.6597 141.985 69.6197 145.105 69.6197C146.985 69.6197 148.545 68.8197 149.305 67.0597H154.585C153.945 68.9797 152.865 70.5397 151.425 71.6597C149.705 73.0197 147.505 73.7397 145.025 73.7797C139.705 73.7797 135.585 70.8197 135.585 64.3397C135.585 58.3797 139.945 52.0997 146.585 52.0997C148.825 52.0997 150.385 52.5397 151.745 53.4197C154.825 55.4197 155.945 59.4997 155.185 64.4197ZM146.465 56.2597C143.625 56.2597 142.105 58.2997 141.385 60.6997H150.225C150.305 58.2997 149.225 56.2597 146.465 56.2597ZM165.194 73.7797C160.234 73.7797 156.274 71.6997 155.914 66.5397H160.994C161.194 68.2997 162.394 69.8597 165.194 69.8597C167.154 69.8597 168.554 69.1797 168.554 67.6197C168.554 66.1397 166.794 65.5797 163.794 64.5797C160.674 63.5397 157.914 62.2197 157.914 58.5797C157.914 54.4197 161.234 52.0997 165.914 52.0997C170.514 52.0997 173.954 54.4197 174.314 58.8997H169.394C169.154 57.2997 168.034 55.9397 165.754 55.9397C164.314 55.9397 162.674 56.4197 162.674 57.9797C162.674 59.3797 164.514 59.6997 167.674 60.7797C170.634 61.7797 173.474 63.2997 173.474 66.8997C173.474 71.2997 170.394 73.7797 165.194 73.7797ZM183.866 73.7797C178.906 73.7797 174.946 71.6997 174.586 66.5397H179.666C179.866 68.2997 181.066 69.8597 183.866 69.8597C185.826 69.8597 187.226 69.1797 187.226 67.6197C187.226 66.1397 185.466 65.5797 182.466 64.5797C179.346 63.5397 176.586 62.2197 176.586 58.5797C176.586 54.4197 179.906 52.0997 184.586 52.0997C189.186 52.0997 192.626 54.4197 192.986 58.8997H188.066C187.826 57.2997 186.706 55.9397 184.426 55.9397C182.986 55.9397 181.346 56.4197 181.346 57.9797C181.346 59.3797 183.186 59.6997 186.346 60.7797C189.306 61.7797 192.146 63.2997 192.146 66.8997C192.146 71.2997 189.066 73.7797 183.866 73.7797ZM195.613 61.1397L196.733 55.3397H202.493L201.373 61.1397H195.613ZM193.293 73.1797L194.413 67.3797H200.173L199.053 73.1797H193.293ZM215.876 73.1797L213.036 44.5797H218.836L219.676 58.7797C219.836 61.4597 219.796 65.0997 219.796 65.0997H219.876C219.876 65.0997 221.196 61.5397 222.276 58.8197L227.956 44.5797H233.356L234.036 58.7797C234.156 61.3397 234.196 65.0997 234.196 65.0997H234.276C234.276 65.0997 235.716 61.3397 236.796 58.7397L242.716 44.5797H248.356L235.556 73.1797H230.236L229.396 57.7797C229.276 55.4997 229.276 52.4997 229.276 52.4997H229.196C229.196 52.4997 228.276 55.4197 227.316 57.7797L221.116 73.1797H215.876ZM263.623 64.4197H249.343C249.343 67.6597 250.423 69.6197 253.543 69.6197C255.423 69.6197 256.983 68.8197 257.743 67.0597H263.023C262.383 68.9797 261.303 70.5397 259.863 71.6597C258.143 73.0197 255.943 73.7397 253.463 73.7797C248.143 73.7797 244.023 70.8197 244.023 64.3397C244.023 58.3797 248.383 52.0997 255.023 52.0997C257.263 52.0997 258.823 52.5397 260.183 53.4197C263.263 55.4197 264.383 59.4997 263.623 64.4197ZM254.903 56.2597C252.063 56.2597 250.543 58.2997 249.823 60.6997H258.663C258.743 58.2997 257.663 56.2597 254.903 56.2597ZM276.392 73.7797C273.832 73.7797 271.352 72.7797 270.192 70.1797H270.112L269.552 73.1797H264.392L269.912 44.5797H275.272L273.232 55.0597H273.352C274.712 53.3797 276.712 52.0997 279.232 52.0997C283.792 52.0997 286.392 55.6997 286.392 60.7397C286.392 67.3397 283.232 73.7797 276.392 73.7797ZM271.432 64.5397C271.432 67.0597 272.672 69.2597 275.632 69.2597C279.512 69.2597 280.872 64.8197 280.872 61.1397C280.872 58.7397 279.992 56.4597 277.072 56.4597C273.112 56.4597 271.432 60.9797 271.432 64.5397ZM311.369 73.1797L310.569 67.0597H300.689L297.809 73.1797H292.009L306.649 44.5797H312.569L317.289 73.1797H311.369ZM306.649 54.5397L302.769 62.6597H310.009L309.009 54.6197C308.809 52.9797 308.649 50.0597 308.649 50.0597H308.569C308.569 50.0597 307.369 53.0197 306.649 54.5397ZM317.72 79.8997L323 52.6597H328.16L327.68 55.1797H327.8C329.24 53.3397 331.32 52.0997 334.08 52.0997C338.68 52.0997 341.16 55.9397 341.16 61.0597C341.16 66.8597 338.2 73.7797 331.04 73.7797C328.56 73.7797 326.2 72.6997 325.04 70.2997H324.96L323.08 79.8997H317.72ZM326.04 64.5797C326.04 67.0597 327.32 69.2997 330.24 69.2997C334.28 69.2997 335.68 65.0197 335.68 61.2597C335.68 58.8597 334.68 56.4597 331.76 56.4597C327.92 56.4597 326.04 60.8597 326.04 64.5797ZM340.181 79.8997L345.461 52.6597H350.621L350.141 55.1797H350.261C351.701 53.3397 353.781 52.0997 356.541 52.0997C361.141 52.0997 363.621 55.9397 363.621 61.0597C363.621 66.8597 360.661 73.7797 353.501 73.7797C351.021 73.7797 348.661 72.6997 347.501 70.2997H347.421L345.541 79.8997H340.181ZM348.501 64.5797C348.501 67.0597 349.781 69.2997 352.701 69.2997C356.741 69.2997 358.141 65.0197 358.141 61.2597C358.141 58.8597 357.141 56.4597 354.221 56.4597C350.381 56.4597 348.501 60.8597 348.501 64.5797Z" fill="black"/>
</svg>
