<svg width="1414" height="363" viewBox="0 0 1414 363" fill="none" xmlns="http://www.w3.org/2000/svg">
<rect x="0.605469" y="206.812" width="195.877" height="101.811" rx="20" fill="#DAEFFC"/>
<rect x="233.32" y="210.266" width="195.877" height="101.811" rx="50.9056" fill="#FAF075"/>
<rect x="984.676" y="210.266" width="195.877" height="101.811" rx="20" fill="#DAEFFC"/>
<rect x="485.066" y="211.344" width="270.141" height="101.811" rx="50.9056" fill="#FAF075"/>
<rect x="1217.39" y="210.266" width="195.877" height="101.811" rx="20" fill="#DAEFFC"/>
<path d="M15.7478 249.359L22.5478 230.759H25.3978L32.2478 249.359H29.4478L27.5978 243.934H20.2728L18.3728 249.359H15.7478ZM22.7978 236.734L20.9728 241.934H26.9228L25.1478 236.734C24.5228 234.934 24.0228 232.784 24.0228 232.784H23.9478C23.9478 232.784 23.3978 235.009 22.7978 236.734ZM39.6655 249.734C35.6405 249.734 33.1155 246.584 33.1155 242.659C33.1155 238.759 35.6405 235.609 39.6655 235.609C42.8905 235.609 44.9905 237.434 45.4655 240.309H43.1405C42.8155 238.559 41.6155 237.484 39.6655 237.484C36.9155 237.484 35.4905 239.759 35.4905 242.659C35.4905 245.559 36.9155 247.834 39.6655 247.834C41.7655 247.834 43.0155 246.609 43.1905 244.609H45.4905C45.1905 247.809 43.0655 249.734 39.6655 249.734ZM47.0048 237.734V235.934H49.1048V231.709H51.4048V235.934H54.1798V237.734H51.4048V246.209C51.4048 247.184 51.9298 247.459 52.7798 247.459C53.1798 247.459 53.7048 247.359 53.9548 247.284H54.0298V249.234C53.4048 249.384 52.7548 249.459 52.1548 249.459C50.3548 249.434 49.1048 248.709 49.1048 246.734V237.734H47.0048ZM56.5444 233.459V230.759H58.9694V233.459H56.5444ZM56.5944 249.359V235.934H58.9194V249.359H56.5944ZM65.312 249.359L60.637 235.934H63.112L65.462 243.184C66.037 244.984 66.687 247.459 66.687 247.459H66.737C66.737 247.459 67.312 244.984 67.912 243.184L70.312 235.934H72.712L67.887 249.359H65.312ZM74.3911 233.459V230.759H76.8161V233.459H74.3911ZM74.4411 249.359V235.934H76.7661V249.359H74.4411ZM79.1337 237.734V235.934H81.2337V231.709H83.5337V235.934H86.3087V237.734H83.5337V246.209C83.5337 247.184 84.0587 247.459 84.9087 247.459C85.3087 247.459 85.8337 247.359 86.0837 247.284H86.1587V249.234C85.5337 249.384 84.8837 249.459 84.2837 249.459C82.4837 249.434 81.2337 248.709 81.2337 246.734V237.734H79.1337ZM90.3733 254.034C89.6233 254.034 88.7733 253.909 88.3983 253.759V251.759H88.4983C88.7483 251.909 89.3233 252.009 89.8983 252.009C90.8233 252.009 91.4233 251.659 91.8983 250.384C91.8983 250.334 92.4233 248.834 92.3733 248.684L87.2483 235.934H89.7733L92.5483 243.384C93.0983 244.909 93.6733 247.009 93.6733 247.009H93.7233C93.7233 247.009 94.3483 244.884 94.8733 243.384L97.5483 235.934H99.9733L94.2733 250.584C93.1733 253.409 92.0983 254.034 90.3733 254.034ZM108.653 249.359V230.759H116.478C118.453 230.759 119.978 231.409 120.928 232.559C121.753 233.534 122.253 234.734 122.253 236.209C122.253 239.634 120.253 241.709 116.228 241.709H111.228V249.359H108.653ZM111.228 232.984V239.634H115.978C118.503 239.634 119.703 238.359 119.703 236.284C119.703 234.109 118.378 232.984 116.078 232.984H111.228ZM128.026 249.634C125.476 249.634 123.476 248.384 123.476 245.809C123.476 242.684 125.776 242.009 129.251 241.584C131.226 241.359 132.501 241.034 132.501 239.659C132.501 238.209 131.476 237.309 129.626 237.309C127.501 237.309 126.476 238.309 126.401 239.909H124.151C124.251 237.634 125.976 235.609 129.601 235.609C130.876 235.609 132.001 235.834 132.851 236.334C133.976 237.009 134.651 238.184 134.651 239.984V246.259C134.651 247.334 134.901 247.909 136.076 247.659H136.176V249.284C135.851 249.384 135.476 249.484 134.926 249.484C133.501 249.484 132.801 248.809 132.551 247.384H132.526C131.676 248.559 130.301 249.634 128.026 249.634ZM128.601 247.934C131.276 247.934 132.526 245.959 132.526 244.409V242.209C131.851 242.634 130.676 242.959 129.576 243.159C127.376 243.534 125.926 243.934 125.926 245.784C125.926 247.509 127.251 247.934 128.601 247.934ZM143.739 254.059C140.214 254.059 138.214 252.659 137.964 250.284H140.139C140.339 251.684 141.689 252.259 143.689 252.259C146.089 252.259 147.414 251.184 147.414 248.909V248.534C147.414 247.759 147.439 247.034 147.464 246.609H147.414C146.489 247.934 145.314 248.759 143.414 248.759C139.989 248.759 137.539 246.084 137.539 242.184C137.539 238.059 140.139 235.609 143.289 235.609C145.214 235.609 146.514 236.359 147.364 237.709H147.414V235.934H149.714V248.809C149.714 250.584 149.114 251.909 148.089 252.784C147.039 253.659 145.539 254.059 143.739 254.059ZM143.639 246.859C146.564 246.859 147.564 244.809 147.564 242.084C147.564 239.259 146.289 237.534 143.614 237.534C141.164 237.534 139.914 239.384 139.914 242.209C139.914 245.059 141.214 246.859 143.639 246.859ZM158.757 249.734C154.632 249.734 152.207 246.584 152.207 242.659C152.207 238.759 154.782 235.609 158.632 235.609C160.632 235.609 162.182 236.384 163.232 237.684C164.332 239.009 164.882 240.934 164.882 243.209H154.582C154.757 245.834 156.182 247.834 158.782 247.834C160.632 247.834 161.907 246.959 162.332 245.534H164.607C164.007 248.034 161.857 249.734 158.757 249.734ZM158.632 237.409C156.207 237.409 154.932 239.159 154.632 241.534H162.407C162.282 238.959 160.957 237.409 158.632 237.409ZM172.511 249.759C168.811 249.759 166.711 248.009 166.511 245.284H168.861C169.136 247.234 170.636 247.884 172.561 247.884C174.686 247.884 175.586 246.959 175.586 245.759C175.586 244.284 174.461 243.909 172.086 243.434C169.461 242.884 167.086 242.334 167.086 239.384C167.086 237.084 168.886 235.634 172.011 235.634C175.386 235.634 177.061 237.209 177.361 239.534H175.036C174.836 238.159 173.886 237.384 171.961 237.384C170.136 237.384 169.361 238.234 169.361 239.259C169.361 240.659 170.661 240.934 172.936 241.384C175.611 241.909 177.911 242.509 177.911 245.634C177.911 248.359 175.661 249.759 172.511 249.759ZM21.7851 272.759V270.934H23.8601V269.084C23.8601 267.834 24.1851 266.959 24.8101 266.409C25.4601 265.859 26.4601 265.634 27.7601 265.634C28.1101 265.634 28.5351 265.659 28.9601 265.684V267.609C26.7601 267.459 26.1851 267.809 26.1851 269.184V270.934H28.9351V272.759H26.1851V284.359H23.8601V272.759H21.7851ZM36.8341 284.734C32.7841 284.734 30.2591 281.584 30.2591 277.659C30.2591 273.759 32.7841 270.609 36.8341 270.609C40.8841 270.609 43.3591 273.759 43.3591 277.659C43.3591 281.584 40.8841 284.734 36.8341 284.734ZM36.8091 282.834C39.5591 282.834 40.9841 280.559 40.9841 277.659C40.9841 274.759 39.5591 272.459 36.8091 272.459C34.0591 272.459 32.6341 274.759 32.6341 277.659C32.6341 280.559 34.0591 282.834 36.8091 282.834ZM48.1278 270.934V273.359H48.2028C49.0278 271.809 50.4028 270.759 52.1778 270.759C52.5528 270.759 52.7778 270.809 53.0278 270.909V273.109H52.9528C52.6278 273.009 52.4028 272.984 52.0028 272.984C49.9278 272.984 48.1528 274.534 48.1528 277.059V284.359H45.8278V270.934H48.1278ZM67.1411 284.759C63.5161 284.759 61.2161 282.009 61.2161 277.684C61.2161 273.259 63.7661 270.609 67.0911 270.609C68.9911 270.609 70.4911 271.559 71.3411 272.984H71.3911C71.3411 272.384 71.3161 271.409 71.3161 270.509V265.759H73.6411V284.359H71.3411V282.434H71.2911C70.4411 283.884 69.0161 284.759 67.1411 284.759ZM67.3161 282.834C70.1911 282.834 71.4411 280.659 71.4411 277.709C71.4411 274.684 70.0161 272.559 67.3161 272.559C64.8411 272.559 63.5911 274.759 63.5911 277.709C63.5911 280.659 64.8411 282.834 67.3161 282.834ZM82.6837 284.734C78.6337 284.734 76.1087 281.584 76.1087 277.659C76.1087 273.759 78.6337 270.609 82.6837 270.609C86.7337 270.609 89.2087 273.759 89.2087 277.659C89.2087 281.584 86.7337 284.734 82.6837 284.734ZM82.6587 282.834C85.4087 282.834 86.8337 280.559 86.8337 277.659C86.8337 274.759 85.4087 272.459 82.6587 272.459C79.9087 272.459 78.4837 274.759 78.4837 277.659C78.4837 280.559 79.9087 282.834 82.6587 282.834ZM94.3333 284.359L90.0833 270.934H92.5583L94.6583 278.384C95.0833 279.909 95.5333 282.309 95.5333 282.309H95.5833C95.5833 282.309 96.0333 280.059 96.4833 278.434L98.5083 270.934H100.708L102.708 278.434C103.083 279.859 103.558 282.334 103.558 282.334H103.608C103.608 282.334 103.983 280.034 104.483 278.384L106.708 270.934H109.108L104.733 284.359H102.408L100.433 276.959C100.108 275.659 99.5833 273.209 99.5833 273.209H99.5333C99.5333 273.209 99.0333 275.684 98.7083 276.959L96.6833 284.359H94.3333ZM113.265 270.934V272.834H113.34C114.315 271.484 115.64 270.609 117.59 270.609C120.39 270.609 122.115 272.184 122.115 274.984V284.359H119.815V275.259C119.815 273.534 118.69 272.559 116.865 272.559C114.79 272.559 113.29 274.034 113.29 276.184V284.359H110.965V270.934H113.265ZM125.322 284.359V265.759H127.647V284.359H125.322ZM136.761 284.734C132.711 284.734 130.186 281.584 130.186 277.659C130.186 273.759 132.711 270.609 136.761 270.609C140.811 270.609 143.286 273.759 143.286 277.659C143.286 281.584 140.811 284.734 136.761 284.734ZM136.736 282.834C139.486 282.834 140.911 280.559 140.911 277.659C140.911 274.759 139.486 272.459 136.736 272.459C133.986 272.459 132.561 274.759 132.561 277.659C132.561 280.559 133.986 282.834 136.736 282.834ZM149.755 284.634C147.205 284.634 145.205 283.384 145.205 280.809C145.205 277.684 147.505 277.009 150.98 276.584C152.955 276.359 154.23 276.034 154.23 274.659C154.23 273.209 153.205 272.309 151.355 272.309C149.23 272.309 148.205 273.309 148.13 274.909H145.88C145.98 272.634 147.705 270.609 151.33 270.609C152.605 270.609 153.73 270.834 154.58 271.334C155.705 272.009 156.38 273.184 156.38 274.984V281.259C156.38 282.334 156.63 282.909 157.805 282.659H157.905V284.284C157.58 284.384 157.205 284.484 156.655 284.484C155.23 284.484 154.53 283.809 154.28 282.384H154.255C153.405 283.559 152.03 284.634 149.755 284.634ZM150.33 282.934C153.005 282.934 154.255 280.959 154.255 279.409V277.209C153.58 277.634 152.405 277.959 151.305 278.159C149.105 278.534 147.655 278.934 147.655 280.784C147.655 282.509 148.98 282.934 150.33 282.934ZM164.993 284.759C161.368 284.759 159.068 282.009 159.068 277.684C159.068 273.259 161.618 270.609 164.943 270.609C166.843 270.609 168.343 271.559 169.193 272.984H169.243C169.193 272.384 169.168 271.409 169.168 270.509V265.759H171.493V284.359H169.193V282.434H169.143C168.293 283.884 166.868 284.759 164.993 284.759ZM165.168 282.834C168.043 282.834 169.293 280.659 169.293 277.709C169.293 274.684 167.868 272.559 165.168 272.559C162.693 272.559 161.443 274.759 161.443 277.709C161.443 280.659 162.693 282.834 165.168 282.834Z" fill="black"/>
<path d="M298.292 258.119V255.869H313.092V258.119H306.967V274.469H304.392V258.119H298.292ZM315.895 261.044V263.469H315.97C316.795 261.919 318.17 260.869 319.945 260.869C320.32 260.869 320.545 260.919 320.795 261.019V263.219H320.72C320.395 263.119 320.17 263.094 319.77 263.094C317.695 263.094 315.92 264.644 315.92 267.169V274.469H313.595V261.044H315.895ZM323.017 258.569V255.869H325.442V258.569H323.017ZM323.067 274.469V261.044H325.392V274.469H323.067ZM331.785 274.469L327.11 261.044H329.585L331.935 268.294C332.51 270.094 333.16 272.569 333.16 272.569H333.21C333.21 272.569 333.785 270.094 334.385 268.294L336.785 261.044H339.185L334.36 274.469H331.785ZM340.864 258.569V255.869H343.289V258.569H340.864ZM340.914 274.469V261.044H343.239V274.469H340.914ZM350.432 274.744C347.882 274.744 345.882 273.494 345.882 270.919C345.882 267.794 348.182 267.119 351.657 266.694C353.632 266.469 354.907 266.144 354.907 264.769C354.907 263.319 353.882 262.419 352.032 262.419C349.907 262.419 348.882 263.419 348.807 265.019H346.557C346.657 262.744 348.382 260.719 352.007 260.719C353.282 260.719 354.407 260.944 355.257 261.444C356.382 262.119 357.057 263.294 357.057 265.094V271.369C357.057 272.444 357.307 273.019 358.482 272.769H358.582V274.394C358.257 274.494 357.882 274.594 357.332 274.594C355.907 274.594 355.207 273.919 354.957 272.494H354.932C354.082 273.669 352.707 274.744 350.432 274.744ZM351.007 273.044C353.682 273.044 354.932 271.069 354.932 269.519V267.319C354.257 267.744 353.082 268.069 351.982 268.269C349.782 268.644 348.332 269.044 348.332 270.894C348.332 272.619 349.657 273.044 351.007 273.044Z" fill="black"/>
<path d="M298.292 346.009V343.759H313.092V346.009H306.967V362.359H304.392V346.009H298.292ZM315.895 348.934V351.359H315.97C316.795 349.809 318.17 348.759 319.945 348.759C320.32 348.759 320.545 348.809 320.795 348.909V351.109H320.72C320.395 351.009 320.17 350.984 319.77 350.984C317.695 350.984 315.92 352.534 315.92 355.059V362.359H313.595V348.934H315.895ZM323.017 346.459V343.759H325.442V346.459H323.017ZM323.067 362.359V348.934H325.392V362.359H323.067ZM331.785 362.359L327.11 348.934H329.585L331.935 356.184C332.51 357.984 333.16 360.459 333.16 360.459H333.21C333.21 360.459 333.785 357.984 334.385 356.184L336.785 348.934H339.185L334.36 362.359H331.785ZM340.864 346.459V343.759H343.289V346.459H340.864ZM340.914 362.359V348.934H343.239V362.359H340.914ZM350.432 362.634C347.882 362.634 345.882 361.384 345.882 358.809C345.882 355.684 348.182 355.009 351.657 354.584C353.632 354.359 354.907 354.034 354.907 352.659C354.907 351.209 353.882 350.309 352.032 350.309C349.907 350.309 348.882 351.309 348.807 352.909H346.557C346.657 350.634 348.382 348.609 352.007 348.609C353.282 348.609 354.407 348.834 355.257 349.334C356.382 350.009 357.057 351.184 357.057 352.984V359.259C357.057 360.334 357.307 360.909 358.482 360.659H358.582V362.284C358.257 362.384 357.882 362.484 357.332 362.484C355.907 362.484 355.207 361.809 354.957 360.384H354.932C354.082 361.559 352.707 362.634 350.432 362.634ZM351.007 360.934C353.682 360.934 354.932 358.959 354.932 357.409V355.209C354.257 355.634 353.082 355.959 351.982 356.159C349.782 356.534 348.332 356.934 348.332 358.784C348.332 360.509 349.657 360.934 351.007 360.934Z" fill="black"/>
<path d="M510.037 257.719L516.837 239.119H519.687L526.537 257.719H523.737L521.887 252.294H514.562L512.662 257.719H510.037ZM517.087 245.094L515.262 250.294H521.212L519.437 245.094C518.812 243.294 518.312 241.144 518.312 241.144H518.237C518.237 241.144 517.687 243.369 517.087 245.094ZM530.918 244.294V246.719H530.993C531.818 245.169 533.193 244.119 534.968 244.119C535.343 244.119 535.568 244.169 535.818 244.269V246.469H535.743C535.418 246.369 535.193 246.344 534.793 246.344C532.718 246.344 530.943 247.894 530.943 250.419V257.719H528.618V244.294H530.918ZM543.427 258.094C539.302 258.094 536.877 254.944 536.877 251.019C536.877 247.119 539.452 243.969 543.302 243.969C545.302 243.969 546.852 244.744 547.902 246.044C549.002 247.369 549.552 249.294 549.552 251.569H539.252C539.427 254.194 540.852 256.194 543.452 256.194C545.302 256.194 546.577 255.319 547.002 253.894H549.277C548.677 256.394 546.527 258.094 543.427 258.094ZM543.302 245.769C540.877 245.769 539.602 247.519 539.302 249.894H547.077C546.952 247.319 545.627 245.769 543.302 245.769ZM560.322 262.394C559.572 262.394 558.722 262.269 558.347 262.119V260.119H558.447C558.697 260.269 559.272 260.369 559.847 260.369C560.772 260.369 561.372 260.019 561.847 258.744C561.847 258.694 562.372 257.194 562.322 257.044L557.197 244.294H559.722L562.497 251.744C563.047 253.269 563.622 255.369 563.622 255.369H563.672C563.672 255.369 564.297 253.244 564.822 251.744L567.497 244.294H569.922L564.222 258.944C563.122 261.769 562.047 262.394 560.322 262.394ZM577.242 258.094C573.192 258.094 570.667 254.944 570.667 251.019C570.667 247.119 573.192 243.969 577.242 243.969C581.292 243.969 583.767 247.119 583.767 251.019C583.767 254.944 581.292 258.094 577.242 258.094ZM577.217 256.194C579.967 256.194 581.392 253.919 581.392 251.019C581.392 248.119 579.967 245.819 577.217 245.819C574.467 245.819 573.042 248.119 573.042 251.019C573.042 253.919 574.467 256.194 577.217 256.194ZM597.11 257.719H594.81V255.844H594.76C593.81 257.169 592.635 258.019 590.71 258.019C587.935 258.019 586.16 256.344 586.16 253.544V244.294H588.485V253.419C588.485 255.119 589.56 256.119 591.41 256.119C593.46 256.119 594.785 254.544 594.785 252.469V244.294H597.11V257.719ZM606.162 246.119V244.294H608.237V242.444C608.237 241.194 608.562 240.319 609.187 239.769C609.837 239.219 610.837 238.994 612.137 238.994C612.487 238.994 612.912 239.019 613.337 239.044V240.969C611.137 240.819 610.562 241.169 610.562 242.544V244.294H613.312V246.119H610.562V257.719H608.237V246.119H606.162ZM619.361 257.994C616.811 257.994 614.811 256.744 614.811 254.169C614.811 251.044 617.111 250.369 620.586 249.944C622.561 249.719 623.836 249.394 623.836 248.019C623.836 246.569 622.811 245.669 620.961 245.669C618.836 245.669 617.811 246.669 617.736 248.269H615.486C615.586 245.994 617.311 243.969 620.936 243.969C622.211 243.969 623.336 244.194 624.186 244.694C625.311 245.369 625.986 246.544 625.986 248.344V254.619C625.986 255.694 626.236 256.269 627.411 256.019H627.511V257.644C627.186 257.744 626.811 257.844 626.261 257.844C624.836 257.844 624.136 257.169 623.886 255.744H623.861C623.011 256.919 621.636 257.994 619.361 257.994ZM619.936 256.294C622.611 256.294 623.861 254.319 623.861 252.769V250.569C623.186 250.994 622.011 251.319 620.911 251.519C618.711 251.894 617.261 252.294 617.261 254.144C617.261 255.869 618.586 256.294 619.936 256.294ZM634.549 258.119C630.849 258.119 628.749 256.369 628.549 253.644H630.899C631.174 255.594 632.674 256.244 634.599 256.244C636.724 256.244 637.624 255.319 637.624 254.119C637.624 252.644 636.499 252.269 634.124 251.794C631.499 251.244 629.124 250.694 629.124 247.744C629.124 245.444 630.924 243.994 634.049 243.994C637.424 243.994 639.099 245.569 639.399 247.894H637.074C636.874 246.519 635.924 245.744 633.999 245.744C632.174 245.744 631.399 246.594 631.399 247.619C631.399 249.019 632.699 249.294 634.974 249.744C637.649 250.269 639.949 250.869 639.949 253.994C639.949 256.719 637.699 258.119 634.549 258.119ZM641.392 246.094V244.294H643.492V240.069H645.792V244.294H648.567V246.094H645.792V254.569C645.792 255.544 646.317 255.819 647.167 255.819C647.567 255.819 648.092 255.719 648.342 255.644H648.417V257.594C647.792 257.744 647.142 257.819 646.542 257.819C644.742 257.794 643.492 257.069 643.492 255.094V246.094H641.392ZM656.684 258.094C652.559 258.094 650.134 254.944 650.134 251.019C650.134 247.119 652.709 243.969 656.559 243.969C658.559 243.969 660.109 244.744 661.159 246.044C662.259 247.369 662.809 249.294 662.809 251.569H652.509C652.684 254.194 654.109 256.194 656.709 256.194C658.559 256.194 659.834 255.319 660.259 253.894H662.534C661.934 256.394 659.784 258.094 656.684 258.094ZM656.559 245.769C654.134 245.769 652.859 247.519 652.559 249.894H660.334C660.209 247.319 658.884 245.769 656.559 245.769ZM667.588 244.294V246.719H667.663C668.488 245.169 669.863 244.119 671.638 244.119C672.013 244.119 672.238 244.169 672.488 244.269V246.469H672.413C672.088 246.369 671.863 246.344 671.463 246.344C669.388 246.344 667.613 247.894 667.613 250.419V257.719H665.288V244.294H667.588ZM680.576 246.094V244.294H682.676V240.069H684.976V244.294H687.751V246.094H684.976V254.569C684.976 255.544 685.501 255.819 686.351 255.819C686.751 255.819 687.276 255.719 687.526 255.644H687.601V257.594C686.976 257.744 686.326 257.819 685.726 257.819C683.926 257.794 682.676 257.069 682.676 255.094V246.094H680.576ZM692.491 243.994C692.491 244.669 692.441 245.594 692.416 246.244H692.491C693.491 244.819 694.841 243.969 696.791 243.969C699.591 243.969 701.316 245.544 701.316 248.344V257.719H699.016V248.619C699.016 246.894 697.891 245.919 696.066 245.919C693.991 245.919 692.491 247.394 692.491 249.544V257.719H690.166V239.119H692.491V243.994ZM708.448 257.994C705.898 257.994 703.898 256.744 703.898 254.169C703.898 251.044 706.198 250.369 709.673 249.944C711.648 249.719 712.923 249.394 712.923 248.019C712.923 246.569 711.898 245.669 710.048 245.669C707.923 245.669 706.898 246.669 706.823 248.269H704.573C704.673 245.994 706.398 243.969 710.023 243.969C711.298 243.969 712.423 244.194 713.273 244.694C714.398 245.369 715.073 246.544 715.073 248.344V254.619C715.073 255.694 715.323 256.269 716.498 256.019H716.598V257.644C716.273 257.744 715.898 257.844 715.348 257.844C713.923 257.844 713.223 257.169 712.973 255.744H712.948C712.098 256.919 710.723 257.994 708.448 257.994ZM709.023 256.294C711.698 256.294 712.948 254.319 712.948 252.769V250.569C712.273 250.994 711.098 251.319 709.998 251.519C707.798 251.894 706.348 252.294 706.348 254.144C706.348 255.869 707.673 256.294 709.023 256.294ZM720.786 244.294V246.194H720.861C721.836 244.844 723.161 243.969 725.111 243.969C727.911 243.969 729.636 245.544 729.636 248.344V257.719H727.336V248.619C727.336 246.894 726.211 245.919 724.386 245.919C722.311 245.919 720.811 247.394 720.811 249.544V257.719H718.486V244.294H720.786ZM534.229 292.994C531.679 292.994 529.679 291.744 529.679 289.169C529.679 286.044 531.979 285.369 535.454 284.944C537.429 284.719 538.704 284.394 538.704 283.019C538.704 281.569 537.679 280.669 535.829 280.669C533.704 280.669 532.679 281.669 532.604 283.269H530.354C530.454 280.994 532.179 278.969 535.804 278.969C537.079 278.969 538.204 279.194 539.054 279.694C540.179 280.369 540.854 281.544 540.854 283.344V289.619C540.854 290.694 541.104 291.269 542.279 291.019H542.379V292.644C542.054 292.744 541.679 292.844 541.129 292.844C539.704 292.844 539.004 292.169 538.754 290.744H538.729C537.879 291.919 536.504 292.994 534.229 292.994ZM534.804 291.294C537.479 291.294 538.729 289.319 538.729 287.769V285.569C538.054 285.994 536.879 286.319 535.779 286.519C533.579 286.894 532.129 287.294 532.129 289.144C532.129 290.869 533.454 291.294 534.804 291.294ZM551.233 292.719V274.119H553.908L561.533 285.769C562.433 287.144 563.608 289.469 563.608 289.469H563.683C563.683 289.469 563.508 287.044 563.508 285.494V274.119H565.908V292.719H563.258L555.658 281.069C554.758 279.669 553.533 277.394 553.533 277.394H553.483C553.483 277.394 553.633 279.819 553.633 281.319V292.719H551.233ZM568.313 292.719L575.113 274.119H577.963L584.813 292.719H582.013L580.163 287.294H572.838L570.938 292.719H568.313ZM575.363 280.094L573.538 285.294H579.488L577.713 280.094C577.088 278.294 576.588 276.144 576.588 276.144H576.513C576.513 276.144 575.963 278.369 575.363 280.094ZM593.8 293.094C588.6 293.094 586.025 290.244 585.825 286.694H588.35C588.65 289.494 590.5 291.044 593.875 291.044C596.35 291.044 598.15 289.944 598.15 287.694C598.15 285.269 596 284.694 592.75 283.969C589.425 283.269 586.6 282.319 586.6 278.744C586.6 275.619 589.225 273.769 593.05 273.769C597.625 273.769 599.675 276.069 600.125 279.244H597.65C597.325 276.994 595.7 275.769 593.075 275.769C590.625 275.769 589.025 276.769 589.025 278.619C589.025 280.644 591.05 281.219 593.85 281.794C597.45 282.519 600.725 283.444 600.725 287.594C600.725 291.119 597.825 293.094 593.8 293.094ZM611.822 293.094C606.522 293.094 603.072 289.044 603.072 283.419C603.072 277.944 606.372 273.719 611.897 273.719C614.072 273.719 615.822 274.344 617.072 275.369C618.397 276.444 619.197 277.969 619.447 279.744H616.897C616.472 277.469 614.697 275.944 611.847 275.944C607.897 275.944 605.672 279.144 605.672 283.419C605.672 287.869 608.122 290.869 611.872 290.869C615.247 290.869 616.872 288.594 617.097 285.944H619.647C619.622 287.794 618.747 289.844 617.422 291.119C616.122 292.419 614.222 293.094 611.822 293.094ZM620.852 292.719L627.652 274.119H630.502L637.352 292.719H634.552L632.702 287.294H625.377L623.477 292.719H620.852ZM627.902 280.094L626.077 285.294H632.027L630.252 280.094C629.627 278.294 629.127 276.144 629.127 276.144H629.052C629.052 276.144 628.502 278.369 627.902 280.094ZM639.758 292.719V274.119H648.458C651.783 274.119 654.033 276.169 654.033 279.244C654.033 281.519 653.108 283.119 650.633 283.894V283.969C652.733 284.594 653.333 285.844 653.508 288.519C653.733 291.444 653.983 292.344 654.358 292.594V292.719H651.633C651.208 292.369 651.158 291.519 650.958 288.544C650.783 285.919 649.683 284.969 647.258 284.969H642.308V292.719H639.758ZM642.308 276.319V282.919H647.633C650.158 282.919 651.408 281.644 651.408 279.619C651.408 277.444 650.383 276.319 647.758 276.319H642.308ZM662.754 281.119V279.294H664.829V277.444C664.829 276.194 665.154 275.319 665.779 274.769C666.429 274.219 667.429 273.994 668.729 273.994C669.079 273.994 669.504 274.019 669.929 274.044V275.969C667.729 275.819 667.154 276.169 667.154 277.544V279.294H669.904V281.119H667.154V292.719H664.829V281.119H662.754ZM675.953 292.994C673.403 292.994 671.403 291.744 671.403 289.169C671.403 286.044 673.703 285.369 677.178 284.944C679.153 284.719 680.428 284.394 680.428 283.019C680.428 281.569 679.403 280.669 677.553 280.669C675.428 280.669 674.403 281.669 674.328 283.269H672.078C672.178 280.994 673.903 278.969 677.528 278.969C678.803 278.969 679.928 279.194 680.778 279.694C681.903 280.369 682.578 281.544 682.578 283.344V289.619C682.578 290.694 682.828 291.269 684.003 291.019H684.103V292.644C683.778 292.744 683.403 292.844 682.853 292.844C681.428 292.844 680.728 292.169 680.478 290.744H680.453C679.603 291.919 678.228 292.994 675.953 292.994ZM676.528 291.294C679.203 291.294 680.453 289.319 680.453 287.769V285.569C679.778 285.994 678.603 286.319 677.503 286.519C675.303 286.894 673.853 287.294 673.853 289.144C673.853 290.869 675.178 291.294 676.528 291.294ZM688.291 279.294V281.194H688.366C689.341 279.844 690.666 278.969 692.616 278.969C695.416 278.969 697.141 280.544 697.141 283.344V292.719H694.841V283.619C694.841 281.894 693.716 280.919 691.891 280.919C689.816 280.919 688.316 282.394 688.316 284.544V292.719H685.991V279.294H688.291ZM703.529 292.719V289.969H706.254V292.719H703.529ZM703.804 287.319C703.829 284.819 704.554 283.719 706.454 282.069C707.604 281.069 708.679 280.244 708.679 278.644C708.679 277.069 707.504 275.844 705.404 275.844C702.804 275.844 701.504 277.544 701.429 279.819H699.079C699.154 276.794 701.079 273.794 705.404 273.794C708.954 273.794 711.129 275.894 711.129 278.594C711.129 280.644 710.004 281.819 708.779 282.819C707.704 283.719 707.029 284.319 706.579 284.919C706.129 285.544 706.004 286.219 705.979 287.319H703.804Z" fill="black"/>
<path d="M1051.71 259.197V256.947H1066.51V259.197H1060.39V275.547H1057.81V259.197H1051.71ZM1071.96 275.922C1067.84 275.922 1065.41 272.772 1065.41 268.847C1065.41 264.947 1067.99 261.797 1071.84 261.797C1073.84 261.797 1075.39 262.572 1076.44 263.872C1077.54 265.197 1078.09 267.122 1078.09 269.397H1067.79C1067.96 272.022 1069.39 274.022 1071.99 274.022C1073.84 274.022 1075.11 273.147 1075.54 271.722H1077.81C1077.21 274.222 1075.06 275.922 1071.96 275.922ZM1071.84 263.597C1069.41 263.597 1068.14 265.347 1067.84 267.722H1075.61C1075.49 265.147 1074.16 263.597 1071.84 263.597ZM1084.57 275.822C1082.02 275.822 1080.02 274.572 1080.02 271.997C1080.02 268.872 1082.32 268.197 1085.79 267.772C1087.77 267.547 1089.04 267.222 1089.04 265.847C1089.04 264.397 1088.02 263.497 1086.17 263.497C1084.04 263.497 1083.02 264.497 1082.94 266.097H1080.69C1080.79 263.822 1082.52 261.797 1086.14 261.797C1087.42 261.797 1088.54 262.022 1089.39 262.522C1090.52 263.197 1091.19 264.372 1091.19 266.172V272.447C1091.19 273.522 1091.44 274.097 1092.62 273.847H1092.72V275.472C1092.39 275.572 1092.02 275.672 1091.47 275.672C1090.04 275.672 1089.34 274.997 1089.09 273.572H1089.07C1088.22 274.747 1086.84 275.822 1084.57 275.822ZM1085.14 274.122C1087.82 274.122 1089.07 272.147 1089.07 270.597V268.397C1088.39 268.822 1087.22 269.147 1086.12 269.347C1083.92 269.722 1082.47 270.122 1082.47 271.972C1082.47 273.697 1083.79 274.122 1085.14 274.122ZM1094.6 275.547V262.122H1096.9V264.122H1096.98C1097.8 262.672 1099.23 261.797 1100.95 261.797C1102.58 261.797 1103.88 262.647 1104.43 264.297H1104.48C1105.43 262.622 1107 261.797 1108.63 261.797C1111.08 261.797 1112.78 263.372 1112.78 266.172V275.547H1110.45V266.372C1110.45 264.722 1109.38 263.747 1108.03 263.747C1106.33 263.747 1104.85 265.222 1104.85 267.272V275.547H1102.55V266.372C1102.55 264.722 1101.63 263.747 1100.25 263.747C1098.65 263.747 1096.93 265.222 1096.93 267.272V275.547H1094.6Z" fill="black"/>
<path d="M1274.1 275.156V256.556H1281.92C1283.9 256.556 1285.42 257.206 1286.37 258.356C1287.2 259.331 1287.7 260.531 1287.7 262.006C1287.7 265.431 1285.7 267.506 1281.67 267.506H1276.67V275.156H1274.1ZM1276.67 258.781V265.431H1281.42C1283.95 265.431 1285.15 264.156 1285.15 262.081C1285.15 259.906 1283.82 258.781 1281.52 258.781H1276.67ZM1292.26 261.731V264.156H1292.34C1293.16 262.606 1294.54 261.556 1296.31 261.556C1296.69 261.556 1296.91 261.606 1297.16 261.706V263.906H1297.09C1296.76 263.806 1296.54 263.781 1296.14 263.781C1294.06 263.781 1292.29 265.331 1292.29 267.856V275.156H1289.96V261.731H1292.26ZM1304.79 275.531C1300.74 275.531 1298.22 272.381 1298.22 268.456C1298.22 264.556 1300.74 261.406 1304.79 261.406C1308.84 261.406 1311.32 264.556 1311.32 268.456C1311.32 272.381 1308.84 275.531 1304.79 275.531ZM1304.77 273.631C1307.52 273.631 1308.94 271.356 1308.94 268.456C1308.94 265.556 1307.52 263.256 1304.77 263.256C1302.02 263.256 1300.59 265.556 1300.59 268.456C1300.59 271.356 1302.02 273.631 1304.77 273.631ZM1319.61 275.531C1315.59 275.531 1313.06 272.381 1313.06 268.456C1313.06 264.556 1315.59 261.406 1319.61 261.406C1322.84 261.406 1324.94 263.231 1325.41 266.106H1323.09C1322.76 264.356 1321.56 263.281 1319.61 263.281C1316.86 263.281 1315.44 265.556 1315.44 268.456C1315.44 271.356 1316.86 273.631 1319.61 273.631C1321.71 273.631 1322.96 272.406 1323.14 270.406H1325.44C1325.14 273.606 1323.01 275.531 1319.61 275.531ZM1333.6 275.531C1329.48 275.531 1327.05 272.381 1327.05 268.456C1327.05 264.556 1329.63 261.406 1333.48 261.406C1335.48 261.406 1337.03 262.181 1338.08 263.481C1339.18 264.806 1339.73 266.731 1339.73 269.006H1329.43C1329.6 271.631 1331.03 273.631 1333.63 273.631C1335.48 273.631 1336.75 272.756 1337.18 271.331H1339.45C1338.85 273.831 1336.7 275.531 1333.6 275.531ZM1333.48 263.206C1331.05 263.206 1329.78 264.956 1329.48 267.331H1337.25C1337.13 264.756 1335.8 263.206 1333.48 263.206ZM1347.36 275.556C1343.66 275.556 1341.56 273.806 1341.36 271.081H1343.71C1343.98 273.031 1345.48 273.681 1347.41 273.681C1349.53 273.681 1350.43 272.756 1350.43 271.556C1350.43 270.081 1349.31 269.706 1346.93 269.231C1344.31 268.681 1341.93 268.131 1341.93 265.181C1341.93 262.881 1343.73 261.431 1346.86 261.431C1350.23 261.431 1351.91 263.006 1352.21 265.331H1349.88C1349.68 263.956 1348.73 263.181 1346.81 263.181C1344.98 263.181 1344.21 264.031 1344.21 265.056C1344.21 266.456 1345.51 266.731 1347.78 267.181C1350.46 267.706 1352.76 268.306 1352.76 271.431C1352.76 274.156 1350.51 275.556 1347.36 275.556ZM1360.42 275.556C1356.72 275.556 1354.62 273.806 1354.42 271.081H1356.77C1357.04 273.031 1358.54 273.681 1360.47 273.681C1362.59 273.681 1363.49 272.756 1363.49 271.556C1363.49 270.081 1362.37 269.706 1359.99 269.231C1357.37 268.681 1354.99 268.131 1354.99 265.181C1354.99 262.881 1356.79 261.431 1359.92 261.431C1363.29 261.431 1364.97 263.006 1365.27 265.331H1362.94C1362.74 263.956 1361.79 263.181 1359.87 263.181C1358.04 263.181 1357.27 264.031 1357.27 265.056C1357.27 266.456 1358.57 266.731 1360.84 267.181C1363.52 267.706 1365.82 268.306 1365.82 271.431C1365.82 274.156 1363.57 275.556 1360.42 275.556Z" fill="black"/>
<line x1="98.543" y1="81.7031" x2="748.559" y2="81.7031" stroke="white" stroke-width="3"/>
<line x1="902.496" y1="81.7031" x2="1315.1" y2="81.7032" stroke="white" stroke-width="3"/>
<path d="M97.4823 198.307C98.0681 198.893 99.0178 198.893 99.6036 198.307L109.15 188.761C109.735 188.175 109.735 187.226 109.15 186.64C108.564 186.054 107.614 186.054 107.028 186.64L98.543 195.125L90.0577 186.64C89.4719 186.054 88.5221 186.054 87.9364 186.64C87.3506 187.226 87.3506 188.175 87.9364 188.761L97.4823 198.307ZM97.043 81.8906L97.043 197.246L100.043 197.246L100.043 81.8906L97.043 81.8906Z" fill="white"/>
<path d="M330.205 198.307C330.791 198.893 331.74 198.893 332.326 198.307L341.872 188.761C342.458 188.175 342.458 187.226 341.872 186.64C341.286 186.054 340.337 186.054 339.751 186.64L331.266 195.125L322.78 186.64C322.195 186.054 321.245 186.054 320.659 186.64C320.073 187.226 320.073 188.175 320.659 188.761L330.205 198.307ZM329.766 81.8906L329.766 197.246L332.766 197.246L332.766 81.8906L329.766 81.8906Z" fill="white"/>
<path d="M619.076 198.307C619.662 198.893 620.612 198.893 621.197 198.307L630.743 188.761C631.329 188.175 631.329 187.226 630.743 186.64C630.158 186.054 629.208 186.054 628.622 186.64L620.137 195.125L611.651 186.64C611.066 186.054 610.116 186.054 609.53 186.64C608.944 187.226 608.944 188.175 609.53 188.761L619.076 198.307ZM618.637 81.8906L618.637 197.246L621.637 197.246L621.637 81.8906L618.637 81.8906Z" fill="white"/>
<path d="M1081.55 198.307C1082.14 198.893 1083.09 198.893 1083.67 198.307L1093.22 188.761C1093.81 188.175 1093.81 187.226 1093.22 186.64C1092.63 186.054 1091.68 186.054 1091.1 186.64L1082.61 195.125L1074.13 186.64C1073.54 186.054 1072.59 186.054 1072.01 186.64C1071.42 187.226 1071.42 188.175 1072.01 188.761L1081.55 198.307ZM1081.11 81.8906L1081.11 197.246L1084.11 197.246L1084.11 81.8906L1081.11 81.8906Z" fill="white"/>
<path d="M1314.27 198.307C1314.86 198.893 1315.81 198.893 1316.39 198.307L1325.94 188.761C1326.52 188.175 1326.52 187.226 1325.94 186.64C1325.35 186.054 1324.4 186.054 1323.82 186.64L1315.33 195.125L1306.85 186.64C1306.26 186.054 1305.31 186.054 1304.73 186.64C1304.14 187.226 1304.14 188.175 1304.73 188.761L1314.27 198.307ZM1313.83 81.8906L1313.83 197.246L1316.83 197.246L1316.83 81.8906L1313.83 81.8906Z" fill="white"/>
<rect x="748.559" y="0.296875" width="162.777" height="163.188" rx="81.3887" fill="#ED2024"/>
<path d="M778.58 96.2656V60.5536H787.364L793.22 77.5456C794.612 81.7216 796.34 89.5456 796.34 89.5456H796.484C796.484 89.5456 798.212 81.7696 799.556 77.5456L805.316 60.5536H814.292V96.2656H808.1V77.6416C808.1 73.7536 808.532 66.5056 808.532 66.5056H808.436C808.436 66.5056 806.948 73.0816 805.796 76.6336L799.028 96.2656H793.652L786.836 76.6336C785.684 73.0816 784.196 66.5056 784.196 66.5056H784.1C784.1 66.5056 784.532 73.7536 784.532 77.6416V96.2656H778.58ZM836.987 96.2656C836.555 95.6896 836.219 94.6816 836.123 92.9536H836.027C834.347 95.2096 832.043 96.8896 827.963 96.8896C822.971 96.8896 819.227 94.2976 819.227 89.3056C819.227 83.4976 823.643 82.1056 829.739 81.3856C833.963 80.8576 836.075 80.1856 836.075 77.8816C836.075 75.6736 834.539 74.1856 831.467 74.1856C828.059 74.1856 826.379 75.7696 826.235 78.3136H820.475C820.667 73.9456 824.123 69.9616 831.419 69.9616C834.347 69.9616 836.603 70.3936 838.283 71.4496C840.683 72.8896 841.931 75.3376 841.931 78.7456V92.2336C841.931 94.3456 842.315 95.4496 842.891 95.8336V96.2656H836.987ZM829.739 92.7136C833.915 92.7136 836.219 89.8336 836.219 86.9536V83.1616C835.019 83.9296 833.099 84.4576 831.227 84.8416C827.483 85.5616 825.323 86.3296 825.323 89.1616C825.323 91.8976 827.387 92.7136 829.739 92.7136ZM847.47 66.4576V60.5536H853.71V66.4576H847.47ZM847.566 96.2656V70.6336H853.662V96.2656H847.566ZM865.143 70.6336V74.3776H865.287C866.967 71.5456 869.655 69.9616 873.255 69.9616C878.775 69.9616 882.087 73.3696 882.087 78.8896V96.2656H875.991V79.8976C875.991 76.8736 874.215 75.0016 871.095 75.0016C867.687 75.0016 865.287 77.5936 865.287 81.2416V96.2656H859.191V70.6336H865.143Z" fill="white"/>
</svg>
