<svg width="316" height="67" viewBox="0 0 316 67" fill="none" xmlns="http://www.w3.org/2000/svg">
<path d="M337.767 0.515625H18.1826L0.164062 66.1579L320.234 66.6148L337.767 0.515625Z" fill="#2D5FA8"/>
<path d="M39.3086 26.7164L39.8836 23.6914H53.7836L53.2086 26.7164H48.0336L45.1586 41.5664H41.5836L44.4586 26.7164H39.3086ZM58.5576 23.6914L57.2576 30.5164H57.3326C58.3826 29.0914 59.3826 28.3914 61.2076 28.3914C63.7576 28.3914 65.2326 30.4664 64.6576 33.4664L63.1076 41.5664H59.7576L61.2576 33.8664C61.5826 32.1664 60.9326 31.2414 59.5076 31.2414C57.8826 31.2414 56.8076 32.6914 56.4576 34.5664L55.1076 41.5664H51.7576L55.2076 23.6914H58.5576ZM77.9859 36.0914H69.0609C69.0609 38.1164 69.7359 39.3414 71.6859 39.3414C72.8609 39.3414 73.8359 38.8414 74.3109 37.7414H77.6109C77.2109 38.9414 76.5359 39.9164 75.6359 40.6164C74.5609 41.4664 73.1859 41.9164 71.6359 41.9414C68.3109 41.9414 65.7359 40.0914 65.7359 36.0414C65.7359 32.3164 68.4609 28.3914 72.6109 28.3914C74.0109 28.3914 74.9859 28.6664 75.8359 29.2164C77.7609 30.4664 78.4609 33.0164 77.9859 36.0914ZM72.5359 30.9914C70.7609 30.9914 69.8109 32.2664 69.3609 33.7664H74.8859C74.9359 32.2664 74.2609 30.9914 72.5359 30.9914ZM93.8623 41.5664L93.3623 37.7414H87.1873L85.3873 41.5664H81.7623L90.9123 23.6914H94.6123L97.5623 41.5664H93.8623ZM90.9123 29.9164L88.4873 34.9914H93.0123L92.3873 29.9664C92.2623 28.9414 92.1623 27.1164 92.1623 27.1164H92.1123C92.1123 27.1164 91.3623 28.9664 90.9123 29.9164ZM104.078 41.9414C100.953 41.9414 98.3531 40.1914 98.3531 36.2664C98.3531 32.3164 100.978 28.3914 105.353 28.3914C108.203 28.3914 110.503 29.7414 110.678 33.0914H107.403C107.278 31.8664 106.603 31.0914 105.253 31.0914C102.778 31.0914 101.703 33.9164 101.703 36.3664C101.703 38.0164 102.428 39.2414 104.278 39.2414C105.528 39.2414 106.503 38.5664 106.953 37.0414H110.203C109.503 40.1164 107.228 41.9414 104.078 41.9414ZM111.701 30.9914L112.126 28.7414H113.751L114.526 24.7414H117.801L117.026 28.7414H119.176L118.751 30.9914H116.601L115.301 37.6664C115.101 38.6664 115.426 39.0664 116.251 39.0664C116.626 39.0664 117.251 39.0164 117.251 39.0164L116.776 41.5164C116.776 41.5164 115.926 41.5914 115.251 41.5914C112.651 41.5914 111.426 40.6414 111.951 37.9914L113.326 30.9914H111.701ZM118.432 41.5664L120.907 28.7414H124.257L121.782 41.5664H118.432ZM121.307 26.7414L121.882 23.6914H125.232L124.657 26.7414H121.307ZM127.379 41.5664L125.254 28.7414H128.654L129.454 35.2164C129.629 36.6164 129.679 37.5164 129.679 37.5164H129.729C129.729 37.5164 130.054 36.6164 130.654 35.3914L133.754 28.7414H137.104L130.579 41.5664H127.379ZM135.742 41.5664L138.217 28.7414H141.567L139.092 41.5664H135.742ZM138.617 26.7414L139.192 23.6914H142.542L141.967 26.7414H138.617ZM142.56 30.9914L142.985 28.7414H144.61L145.385 24.7414H148.66L147.885 28.7414H150.035L149.61 30.9914H147.46L146.16 37.6664C145.96 38.6664 146.285 39.0664 147.11 39.0664C147.485 39.0664 148.11 39.0164 148.11 39.0164L147.635 41.5164C147.635 41.5164 146.785 41.5914 146.11 41.5914C143.51 41.5914 142.285 40.6414 142.81 37.9914L144.185 30.9914H142.56ZM149.142 45.7664L149.667 43.1164H150.742C152.167 43.1164 152.967 42.3414 152.967 40.7414C152.967 40.1164 152.817 39.1664 152.542 37.8664L150.692 28.7414H154.192L155.067 34.5664C155.242 35.7414 155.442 37.4664 155.442 37.4664H155.492C155.492 37.4664 156.117 35.7664 156.667 34.5664L159.317 28.7414H162.717L156.092 42.1914C154.817 44.7664 153.717 45.7664 151.242 45.7664H149.142ZM166.12 41.5664L169.57 23.6914H176.745C178.22 23.6914 179.52 24.0414 180.445 24.7914C181.32 25.4914 181.845 26.5664 181.845 28.0164C181.845 30.1164 180.645 31.5914 178.545 32.1914V32.2664C180.37 32.7664 181.32 34.0164 181.295 35.9914C181.295 37.4414 180.745 38.6914 179.645 39.7414C178.42 40.9164 176.795 41.5664 174.37 41.5664H166.12ZM171.245 33.5664L170.27 38.5914H174.395C176.37 38.5914 177.67 37.7164 177.67 35.8414C177.67 34.3164 176.645 33.5664 175.145 33.5664H171.245ZM171.77 30.9164H175.47C176.945 30.9164 178.37 30.4414 178.37 28.4914C178.37 27.3664 177.745 26.6164 176.27 26.6164H172.595L171.77 30.9164ZM188.583 41.9414C185.233 41.9414 182.558 39.8914 182.558 35.9664C182.558 31.9164 185.408 28.3914 189.783 28.3914C193.058 28.3914 195.708 30.4414 195.708 34.2414C195.708 38.3414 192.958 41.9414 188.583 41.9414ZM185.908 36.1664C185.908 37.9164 186.683 39.4164 188.658 39.4164C191.258 39.4164 192.358 36.5914 192.358 34.1414C192.358 32.4664 191.583 30.9164 189.608 30.9164C187.033 30.9164 185.908 33.6914 185.908 36.1664ZM202.596 41.9414C199.246 41.9414 196.571 39.8914 196.571 35.9664C196.571 31.9164 199.421 28.3914 203.796 28.3914C207.071 28.3914 209.721 30.4414 209.721 34.2414C209.721 38.3414 206.971 41.9414 202.596 41.9414ZM199.921 36.1664C199.921 37.9164 200.696 39.4164 202.671 39.4164C205.271 39.4164 206.371 36.5914 206.371 34.1414C206.371 32.4664 205.596 30.9164 203.621 30.9164C201.046 30.9164 199.921 33.6914 199.921 36.1664ZM218.435 41.5664L215.985 35.7664L214.085 37.4664L213.31 41.5664H209.985L213.435 23.6914H216.76L214.81 33.7164L219.835 28.7414H223.935L218.585 33.7664L222.16 41.5664H218.435ZM229.592 26.7164L230.167 23.6914H244.067L243.492 26.7164H238.317L235.442 41.5664H231.867L234.742 26.7164H229.592ZM252.498 36.0914H243.573C243.573 38.1164 244.248 39.3414 246.198 39.3414C247.373 39.3414 248.348 38.8414 248.823 37.7414H252.123C251.723 38.9414 251.048 39.9164 250.148 40.6164C249.073 41.4664 247.698 41.9164 246.148 41.9414C242.823 41.9414 240.248 40.0914 240.248 36.0414C240.248 32.3164 242.973 28.3914 247.123 28.3914C248.523 28.3914 249.498 28.6664 250.348 29.2164C252.273 30.4664 252.973 33.0164 252.498 36.0914ZM247.048 30.9914C245.273 30.9914 244.323 32.2664 243.873 33.7664H249.398C249.448 32.2664 248.773 30.9914 247.048 30.9914ZM261.1 41.5664C260.95 41.2914 260.9 40.7414 260.925 40.1664H260.875C260.1 40.9914 259.15 41.8664 257.3 41.8664C255.325 41.8664 253.225 40.7414 253.225 38.0914C253.225 34.6914 255.925 34.0664 259.05 33.8164C261.45 33.6164 262.375 33.5164 262.375 32.2414C262.375 31.3164 261.65 30.8164 260.375 30.8164C258.975 30.8164 258.05 31.3664 257.75 32.6414H254.75C255.175 30.0164 257.2 28.4164 260.5 28.4164C263.675 28.4164 266.075 29.7914 265.375 33.5164L264.175 39.6664C264 40.5414 264.075 41.1414 264.275 41.4414V41.5664H261.1ZM256.45 37.7914C256.45 38.9414 257.25 39.5414 258.375 39.5414C260.125 39.5414 261.25 38.4414 261.5 37.2664L261.9 35.2414C261.25 35.5414 260.55 35.6914 259.45 35.8914C258.225 36.1164 256.45 36.0414 256.45 37.7914ZM265.942 41.5664L268.417 28.7414H271.642L271.292 30.6164H271.367C272.242 29.2414 273.392 28.3914 274.967 28.3914C276.692 28.3914 277.667 29.4164 278.042 30.8414H278.092C279.242 29.0914 280.642 28.3914 282.342 28.3914C284.642 28.3914 286.392 30.1914 285.717 33.5914L284.192 41.5664H280.842L282.367 33.6914C282.667 32.0914 282.017 31.2414 280.842 31.2414C279.417 31.2414 278.467 32.5164 278.092 34.4914L276.742 41.5664H273.392L274.917 33.6914C275.217 32.0914 274.567 31.2414 273.392 31.2414C271.967 31.2414 271.017 32.5164 270.642 34.4914L269.292 41.5664H265.942Z" fill="white"/>
</svg>
