<svg width="1007" height="93" viewBox="0 0 1007 93" fill="none" xmlns="http://www.w3.org/2000/svg">
<path d="M1168.68 0.484375L125.24 0.513907L100.07 92.2067L1143.58 92.2092L1168.68 0.484375Z" fill="#14B253"/>
<path d="M153.166 60.2109V31.6109H161.326L165.366 45.9709C166.366 49.5709 167.166 53.6909 167.166 53.6909H167.246C167.246 53.6909 168.006 49.5709 169.006 45.9709L173.046 31.6109H181.326V60.2109H175.926V43.8109C175.926 41.4909 176.166 37.8909 176.166 37.8909H176.086C176.086 37.8909 175.446 41.2509 174.846 43.3309L169.926 60.2109H164.366L159.566 43.3309C158.966 41.2509 158.326 37.8909 158.326 37.8909H158.246C158.246 37.8909 158.486 41.4909 158.486 43.8109V60.2109H153.166ZM194.944 60.8109C188.144 60.8109 184.304 56.0509 184.304 49.9309C184.304 43.8509 188.424 39.1309 194.424 39.1309C201.024 39.1309 204.544 44.1709 204.544 51.4909H189.664C190.064 54.6509 191.824 56.6109 194.904 56.6109C197.024 56.6109 198.264 55.6509 198.864 54.0909H204.224C203.464 57.7309 200.224 60.8109 194.944 60.8109ZM194.504 43.3309C191.624 43.3309 190.224 45.0509 189.744 47.7309H198.864C198.704 45.1309 196.984 43.3309 194.504 43.3309ZM212.382 39.6909V42.4909H212.502C213.902 40.2909 215.782 39.1309 218.582 39.1309C222.822 39.1309 225.662 42.3309 225.662 46.8109V60.2109H220.222V47.6109C220.222 45.4109 218.942 43.8509 216.662 43.8509C214.262 43.8509 212.502 45.7709 212.502 48.5709V60.2109H207.062V39.6909H212.382ZM227.425 43.2909V39.6909H230.265V33.2909H235.585V39.6909H239.105V43.2909H235.585V54.1709C235.585 55.6909 236.425 56.2109 237.625 56.2109C238.305 56.2109 239.225 56.1709 239.225 56.1709V60.1709C239.225 60.1709 237.985 60.2509 235.825 60.2509C233.185 60.2509 230.265 59.2109 230.265 55.3309V43.2909H227.425ZM251.431 60.8109C245.071 60.8109 240.711 56.0909 240.711 49.9709C240.711 43.8509 245.071 39.1309 251.431 39.1309C257.791 39.1309 262.151 43.8509 262.151 49.9709C262.151 56.0909 257.791 60.8109 251.431 60.8109ZM251.431 56.6509C254.751 56.6509 256.631 53.9709 256.631 49.9709C256.631 45.9709 254.751 43.2509 251.431 43.2509C248.071 43.2509 246.231 45.9709 246.231 49.9709C246.231 53.9709 248.071 56.6509 251.431 56.6509ZM269.919 39.6909V42.9709H270.039C271.279 40.6509 272.679 39.4509 275.079 39.4509C275.679 39.4509 276.039 39.4909 276.359 39.6109V44.3709H276.239C272.679 44.0109 270.119 45.8909 270.119 50.2109V60.2109H264.679V39.6909H269.919ZM287.023 60.8109C281.063 60.8109 277.743 57.9309 277.423 53.5709H282.463C282.823 55.9309 284.503 56.9709 286.943 56.9709C289.343 56.9709 290.703 56.0509 290.703 54.6109C290.703 52.6509 288.103 52.4509 285.303 51.8909C281.623 51.1709 278.023 50.1709 278.023 45.6909C278.023 41.2509 281.703 39.1309 286.383 39.1309C291.783 39.1309 294.783 41.8109 295.183 45.9309H290.263C290.023 43.7309 288.623 42.9309 286.303 42.9309C284.183 42.9309 282.783 43.7309 282.783 45.2109C282.783 46.9709 285.503 47.1309 288.423 47.7309C291.863 48.4509 295.663 49.4109 295.663 54.2109C295.663 58.3309 292.143 60.8109 287.023 60.8109ZM303.557 31.6109V42.3709H303.677C305.157 40.2109 306.837 39.1309 309.637 39.1309C313.877 39.1309 316.717 42.3309 316.717 46.8109V60.2109H311.277V47.6109C311.277 45.4109 309.997 43.8509 307.717 43.8509C305.317 43.8509 303.557 45.7709 303.557 48.5709V60.2109H298.117V31.6109H303.557ZM320.07 60.2109V39.6909H325.51V60.2109H320.07ZM320.07 36.4909V31.6109H325.51V36.4909H320.07ZM329.015 66.9309V39.6909H334.255V42.2509H334.375C335.695 40.4509 337.615 39.1309 340.415 39.1309C345.855 39.1309 349.335 43.5709 349.335 49.9709C349.335 56.6109 345.735 60.8109 340.455 60.8109C337.575 60.8109 335.695 59.6509 334.535 57.8909H334.455V66.9309H329.015ZM339.295 56.2909C342.055 56.2909 343.815 54.0109 343.815 50.1309C343.815 46.2509 342.455 43.5309 339.095 43.5309C335.695 43.5309 334.335 46.4509 334.335 50.1309C334.335 53.8509 336.055 56.2909 339.295 56.2909Z" fill="white"/>
</svg>
