<svg width="944" height="93" viewBox="0 0 944 93" fill="none" xmlns="http://www.w3.org/2000/svg">
<path d="M974.137 0.835938L25.5248 0.86547L0.355469 92.5582L949.04 92.5608L974.137 0.835938Z" fill="#FFDB3B"/>
<path d="M52.4798 36.2253V31.3453H75.4798V36.2253H66.8798V59.9453H61.0798V36.2253H52.4798ZM83.4129 31.3453V42.1053H83.5329C85.0129 39.9453 86.6929 38.8653 89.4929 38.8653C93.7329 38.8653 96.5729 42.0653 96.5729 46.5453V59.9453H91.1329V47.3453C91.1329 45.1453 89.8529 43.5853 87.5729 43.5853C85.1729 43.5853 83.4129 45.5053 83.4129 48.3053V59.9453H77.9729V31.3453H83.4129ZM109.566 60.5453C102.766 60.5453 98.926 55.7853 98.926 49.6653C98.926 43.5853 103.046 38.8653 109.046 38.8653C115.646 38.8653 119.166 43.9053 119.166 51.2253H104.286C104.686 54.3853 106.446 56.3453 109.526 56.3453C111.646 56.3453 112.886 55.3853 113.486 53.8253H118.846C118.086 57.4653 114.846 60.5453 109.566 60.5453ZM109.126 43.0653C106.246 43.0653 104.846 44.7853 104.366 47.4653H113.486C113.326 44.8653 111.606 43.0653 109.126 43.0653ZM127.363 36.2253V31.3453H150.363V36.2253H141.763V59.9453H135.963V36.2253H127.363ZM155.283 39.4253V42.7053H155.403C156.643 40.3853 158.043 39.1853 160.443 39.1853C161.043 39.1853 161.403 39.2253 161.723 39.3453V44.1053H161.603C158.043 43.7453 155.483 45.6253 155.483 49.9453V59.9453H150.043V39.4253H155.283ZM164.067 59.9453V39.4253H169.507V59.9453H164.067ZM164.067 36.2253V31.3453H169.507V36.2253H164.067ZM178.452 59.9453L171.332 39.4253H176.852L180.132 50.0653C180.732 52.0253 181.052 53.3453 181.052 53.3453H181.132C181.132 53.3453 181.412 52.0253 182.012 50.0653L185.372 39.4253H190.812L183.652 59.9453H178.452ZM192.66 59.9453V39.4253H198.1V59.9453H192.66ZM192.66 36.2253V31.3453H198.1V36.2253H192.66ZM214.526 59.9453C214.206 59.5453 214.006 58.5853 213.886 57.6653H213.806C212.766 59.2253 211.286 60.4253 207.766 60.4253C203.566 60.4253 200.606 58.2253 200.606 54.1453C200.606 49.6253 204.286 48.1853 208.846 47.5453C212.246 47.0653 213.806 46.7853 213.806 45.2253C213.806 43.7453 212.646 42.7853 210.366 42.7853C207.806 42.7853 206.566 43.7053 206.406 45.6653H201.566C201.726 42.0653 204.406 38.9053 210.406 38.9053C216.566 38.9053 219.046 41.6653 219.046 46.4653V56.9053C219.046 58.4653 219.286 59.3853 219.766 59.7453V59.9453H214.526ZM209.086 56.6253C212.206 56.6253 213.926 54.7053 213.926 52.7053V49.6253C212.966 50.1853 211.486 50.5053 210.126 50.8253C207.286 51.4653 205.886 52.1053 205.886 54.0253C205.886 55.9453 207.166 56.6253 209.086 56.6253ZM228.183 36.2253V31.3453H251.183V36.2253H242.583V59.9453H236.783V36.2253H228.183ZM258.707 60.5453C251.907 60.5453 248.067 55.7853 248.067 49.6653C248.067 43.5853 252.187 38.8653 258.187 38.8653C264.787 38.8653 268.307 43.9053 268.307 51.2253H253.427C253.827 54.3853 255.587 56.3453 258.667 56.3453C260.787 56.3453 262.027 55.3853 262.627 53.8253H267.987C267.227 57.4653 263.987 60.5453 258.707 60.5453ZM258.267 43.0653C255.387 43.0653 253.987 44.7853 253.507 47.4653H262.627C262.467 44.8653 260.747 43.0653 258.267 43.0653ZM283.744 59.9453C283.424 59.5453 283.224 58.5853 283.104 57.6653H283.024C281.984 59.2253 280.504 60.4253 276.984 60.4253C272.784 60.4253 269.824 58.2253 269.824 54.1453C269.824 49.6253 273.504 48.1853 278.064 47.5453C281.464 47.0653 283.024 46.7853 283.024 45.2253C283.024 43.7453 281.864 42.7853 279.584 42.7853C277.024 42.7853 275.784 43.7053 275.624 45.6653H270.784C270.944 42.0653 273.624 38.9053 279.624 38.9053C285.784 38.9053 288.264 41.6653 288.264 46.4653V56.9053C288.264 58.4653 288.504 59.3853 288.984 59.7453V59.9453H283.744ZM278.304 56.6253C281.424 56.6253 283.144 54.7053 283.144 52.7053V49.6253C282.184 50.1853 280.704 50.5053 279.344 50.8253C276.504 51.4653 275.104 52.1053 275.104 54.0253C275.104 55.9453 276.384 56.6253 278.304 56.6253ZM291.723 59.9453V39.4253H296.963V42.1853H297.083C298.203 40.3053 300.203 38.8653 303.043 38.8653C305.643 38.8653 307.723 40.3053 308.723 42.4653H308.803C310.203 40.2253 312.363 38.8653 314.963 38.8653C319.283 38.8653 321.723 41.6653 321.723 46.1453V59.9453H316.283V47.0653C316.283 44.7453 315.123 43.5453 313.123 43.5453C310.843 43.5453 309.443 45.3053 309.443 48.0253V59.9453H304.003V47.0653C304.003 44.7453 302.843 43.5453 300.843 43.5453C298.643 43.5453 297.163 45.3053 297.163 48.0253V59.9453H291.723Z" fill="black"/>
</svg>
