<svg width="1007" height="93" viewBox="0 0 1007 93" fill="none" xmlns="http://www.w3.org/2000/svg">
<path d="M1068.73 0.375L25.2945 0.404532L0.125181 92.0973L1043.64 92.0998L1068.73 0.375Z" fill="#2D5FA8"/>
<path d="M46.4168 35.5183V30.6383H69.4168V35.5183H60.8168V59.2383H55.0168V35.5183H46.4168ZM77.3499 30.6383V41.3983H77.4699C78.9499 39.2383 80.6299 38.1583 83.4299 38.1583C87.6699 38.1583 90.5099 41.3583 90.5099 45.8383V59.2383H85.0699V46.6383C85.0699 44.4383 83.7899 42.8783 81.5099 42.8783C79.1099 42.8783 77.3499 44.7983 77.3499 47.5983V59.2383H71.9099V30.6383H77.3499ZM103.503 59.8383C96.703 59.8383 92.863 55.0783 92.863 48.9583C92.863 42.8783 96.983 38.1583 102.983 38.1583C109.583 38.1583 113.103 43.1983 113.103 50.5183H98.223C98.623 53.6783 100.383 55.6383 103.463 55.6383C105.583 55.6383 106.823 54.6783 107.423 53.1183H112.783C112.023 56.7583 108.783 59.8383 103.503 59.8383ZM103.063 42.3583C100.183 42.3583 98.783 44.0783 98.303 46.7583H107.423C107.263 44.1583 105.543 42.3583 103.063 42.3583ZM120.7 59.2383L130.66 30.6383H136.66L146.74 59.2383H140.7L138.78 53.1583H128.46L126.58 59.2383H120.7ZM132.38 40.4783L129.82 48.7183H137.38L134.82 40.4783C134.34 38.9583 133.66 36.0783 133.66 36.0783H133.58C133.58 36.0783 132.86 38.9583 132.38 40.4783ZM157.446 59.8383C150.966 59.8383 146.926 55.1183 146.926 48.9983C146.926 42.8783 150.926 38.1583 157.166 38.1583C162.486 38.1583 165.766 41.2383 166.486 45.6783H161.166C160.806 43.8783 159.406 42.5183 157.406 42.5183C154.126 42.5183 152.446 45.0383 152.446 48.9983C152.446 52.8783 154.006 55.4783 157.326 55.4783C159.526 55.4783 161.086 54.3183 161.446 51.9983H166.686C166.326 56.3583 162.926 59.8383 157.446 59.8383ZM167.858 42.3183V38.7183H170.698V32.3183H176.018V38.7183H179.538V42.3183H176.018V53.1983C176.018 54.7183 176.858 55.2383 178.058 55.2383C178.738 55.2383 179.658 55.1983 179.658 55.1983V59.1983C179.658 59.1983 178.418 59.2783 176.258 59.2783C173.618 59.2783 170.698 58.2383 170.698 54.3583V42.3183H167.858ZM182.34 59.2383V38.7183H187.78V59.2383H182.34ZM182.34 35.5183V30.6383H187.78V35.5183H182.34ZM196.725 59.2383L189.605 38.7183H195.125L198.405 49.3583C199.005 51.3183 199.325 52.6383 199.325 52.6383H199.405C199.405 52.6383 199.685 51.3183 200.285 49.3583L203.645 38.7183H209.085L201.925 59.2383H196.725ZM210.933 59.2383V38.7183H216.373V59.2383H210.933ZM210.933 35.5183V30.6383H216.373V35.5183H210.933ZM218.679 42.3183V38.7183H221.519V32.3183H226.839V38.7183H230.359V42.3183H226.839V53.1983C226.839 54.7183 227.679 55.2383 228.879 55.2383C229.559 55.2383 230.479 55.1983 230.479 55.1983V59.1983C230.479 59.1983 229.239 59.2783 227.079 59.2783C224.439 59.2783 221.519 58.2383 221.519 54.3583V42.3183H218.679ZM233.991 65.9583V61.6783H235.911C238.071 61.6783 238.951 60.5583 238.951 58.8783C238.951 57.7583 238.551 56.4383 237.391 53.3183L231.871 38.7183H237.591L240.631 47.9583C241.271 49.8383 241.951 52.4383 241.951 52.4383H242.031C242.031 52.4383 242.591 49.8383 243.231 47.9583L246.111 38.7183H251.591L244.431 59.7583C242.871 64.3183 241.351 65.9583 237.191 65.9583H233.991ZM260.592 59.2383V30.6383H273.392C276.472 30.6383 278.832 31.3983 280.312 32.7183C281.872 34.1183 282.592 35.8383 282.592 38.0783C282.592 40.9983 280.792 42.8783 278.112 43.7983V43.9183C281.272 44.8383 283.432 47.4783 283.432 50.9983C283.432 53.6783 282.592 55.5183 280.912 56.9583C279.272 58.3983 276.752 59.2383 273.712 59.2383H260.592ZM266.392 46.4383V54.4383H273.072C275.872 54.4383 277.552 52.8783 277.552 50.5583C277.552 47.8383 275.552 46.4383 272.912 46.4383H266.392ZM266.392 42.1583H272.672C275.192 42.1583 276.912 40.9583 276.912 38.7183C276.912 36.5983 275.352 35.3583 272.792 35.3583H266.392V42.1583ZM296.513 59.8383C290.153 59.8383 285.793 55.1183 285.793 48.9983C285.793 42.8783 290.153 38.1583 296.513 38.1583C302.873 38.1583 307.233 42.8783 307.233 48.9983C307.233 55.1183 302.873 59.8383 296.513 59.8383ZM296.513 55.6783C299.833 55.6783 301.713 52.9983 301.713 48.9983C301.713 44.9983 299.833 42.2783 296.513 42.2783C293.153 42.2783 291.313 44.9983 291.313 48.9983C291.313 52.9983 293.153 55.6783 296.513 55.6783ZM319.481 59.8383C313.121 59.8383 308.761 55.1183 308.761 48.9983C308.761 42.8783 313.121 38.1583 319.481 38.1583C325.841 38.1583 330.201 42.8783 330.201 48.9983C330.201 55.1183 325.841 59.8383 319.481 59.8383ZM319.481 55.6783C322.801 55.6783 324.681 52.9983 324.681 48.9983C324.681 44.9983 322.801 42.2783 319.481 42.2783C316.121 42.2783 314.281 44.9983 314.281 48.9983C314.281 52.9983 316.121 55.6783 319.481 55.6783ZM346.25 59.2383L340.49 49.8783L338.13 52.3183V59.2383H332.73V30.6383H338.13V46.4783L345.41 38.7183H351.93L344.37 46.5183L352.85 59.2383H346.25ZM360.245 35.5183V30.6383H383.245V35.5183H374.645V59.2383H368.845V35.5183H360.245ZM390.769 59.8383C383.969 59.8383 380.129 55.0783 380.129 48.9583C380.129 42.8783 384.249 38.1583 390.249 38.1583C396.849 38.1583 400.369 43.1983 400.369 50.5183H385.489C385.889 53.6783 387.649 55.6383 390.729 55.6383C392.849 55.6383 394.089 54.6783 394.689 53.1183H400.049C399.289 56.7583 396.049 59.8383 390.769 59.8383ZM390.329 42.3583C387.449 42.3583 386.049 44.0783 385.569 46.7583H394.689C394.529 44.1583 392.809 42.3583 390.329 42.3583ZM415.806 59.2383C415.486 58.8383 415.286 57.8783 415.166 56.9583H415.086C414.046 58.5183 412.566 59.7183 409.046 59.7183C404.846 59.7183 401.886 57.5183 401.886 53.4383C401.886 48.9183 405.566 47.4783 410.126 46.8383C413.526 46.3583 415.086 46.0783 415.086 44.5183C415.086 43.0383 413.926 42.0783 411.646 42.0783C409.086 42.0783 407.846 42.9983 407.686 44.9583H402.846C403.006 41.3583 405.686 38.1983 411.686 38.1983C417.846 38.1983 420.326 40.9583 420.326 45.7583V56.1983C420.326 57.7583 420.566 58.6783 421.046 59.0383V59.2383H415.806ZM410.366 55.9183C413.486 55.9183 415.206 53.9983 415.206 51.9983V48.9183C414.246 49.4783 412.766 49.7983 411.406 50.1183C408.566 50.7583 407.166 51.3983 407.166 53.3183C407.166 55.2383 408.446 55.9183 410.366 55.9183ZM423.785 59.2383V38.7183H429.025V41.4783H429.145C430.265 39.5983 432.265 38.1583 435.105 38.1583C437.705 38.1583 439.785 39.5983 440.785 41.7583H440.865C442.265 39.5183 444.425 38.1583 447.025 38.1583C451.345 38.1583 453.785 40.9583 453.785 45.4383V59.2383H448.345V46.3583C448.345 44.0383 447.185 42.8383 445.185 42.8383C442.905 42.8383 441.505 44.5983 441.505 47.3183V59.2383H436.065V46.3583C436.065 44.0383 434.905 42.8383 432.905 42.8383C430.705 42.8383 429.225 44.5983 429.225 47.3183V59.2383H423.785Z" fill="white"/>
</svg>
