<svg width="1014" height="93" viewBox="0 0 1014 93" fill="none" xmlns="http://www.w3.org/2000/svg">
<path d="M1069.48 0.597656L26.0406 0.627189L0.871275 92.32L1044.38 92.3225L1069.48 0.597656Z" fill="#F2000A"/>
<path d="M57.7913 35.7409V30.8609H80.7913V35.7409H72.1913V59.4609H66.3913V35.7409H57.7913ZM88.7244 30.8609V41.6209H88.8444C90.3244 39.4609 92.0044 38.3809 94.8044 38.3809C99.0444 38.3809 101.884 41.5809 101.884 46.0609V59.4609H96.4444V46.8609C96.4444 44.6609 95.1644 43.1009 92.8844 43.1009C90.4844 43.1009 88.7244 45.0209 88.7244 47.8209V59.4609H83.2844V30.8609H88.7244ZM114.878 60.0609C108.078 60.0609 104.238 55.3009 104.238 49.1809C104.238 43.1009 108.358 38.3809 114.358 38.3809C120.958 38.3809 124.478 43.4209 124.478 50.7409H109.598C109.998 53.9009 111.758 55.8609 114.838 55.8609C116.958 55.8609 118.198 54.9009 118.798 53.3409H124.158C123.398 56.9809 120.158 60.0609 114.878 60.0609ZM114.438 42.5809C111.558 42.5809 110.158 44.3009 109.678 46.9809H118.798C118.638 44.3809 116.918 42.5809 114.438 42.5809ZM134.154 59.4609V30.8609H147.274C152.794 30.8609 156.474 34.0609 156.474 38.8209C156.474 42.1809 154.914 44.7409 151.234 45.7409V45.8609C153.874 46.6209 155.234 48.1409 155.594 51.6209C155.994 55.6609 155.834 58.7409 156.834 59.1809V59.4609H151.274C150.554 59.1409 150.474 55.9409 150.234 52.8609C149.994 49.7409 148.234 47.9809 144.634 47.9809H139.954V59.4609H134.154ZM139.954 35.5409V43.5009H146.114C149.274 43.5009 150.834 41.8609 150.834 39.5809C150.834 37.2609 149.354 35.5409 146.274 35.5409H139.954ZM169.213 60.0609C162.413 60.0609 158.573 55.3009 158.573 49.1809C158.573 43.1009 162.693 38.3809 168.693 38.3809C175.293 38.3809 178.813 43.4209 178.813 50.7409H163.933C164.333 53.9009 166.093 55.8609 169.173 55.8609C171.293 55.8609 172.533 54.9009 173.133 53.3409H178.493C177.733 56.9809 174.493 60.0609 169.213 60.0609ZM168.773 42.5809C165.893 42.5809 164.493 44.3009 164.013 46.9809H173.133C172.973 44.3809 171.253 42.5809 168.773 42.5809ZM179.741 42.7009V38.9409H182.541V37.1009C182.541 32.1009 186.421 30.3409 191.661 30.9009V35.1009C189.101 34.9809 187.981 35.3009 187.981 37.4209V38.9409H191.661V42.7009H187.981V59.4609H182.541V42.7009H179.741ZM194.101 59.4609V30.8609H199.541V59.4609H194.101ZM212.768 60.0609C205.968 60.0609 202.128 55.3009 202.128 49.1809C202.128 43.1009 206.248 38.3809 212.248 38.3809C218.848 38.3809 222.368 43.4209 222.368 50.7409H207.488C207.888 53.9009 209.648 55.8609 212.728 55.8609C214.848 55.8609 216.088 54.9009 216.688 53.3409H222.048C221.288 56.9809 218.048 60.0609 212.768 60.0609ZM212.328 42.5809C209.448 42.5809 208.048 44.3009 207.568 46.9809H216.688C216.528 44.3809 214.808 42.5809 212.328 42.5809ZM222.235 59.4609L229.715 48.5809L223.035 38.9409H229.235L232.875 44.8209H232.955L236.395 38.9409H242.035L235.675 48.5409L242.995 59.4609H236.515L232.715 52.6609H232.635L228.195 59.4609H222.235ZM273.2 59.4609L273 55.6209H272.92C270.96 58.9009 268.28 60.0609 264.88 60.0609C260.56 60.0609 257.2 58.5009 254.84 55.9009C252.48 53.2609 251.12 49.5809 251.12 45.2609C251.12 40.5009 252.8 36.3409 255.8 33.5809C258.12 31.4609 261.16 30.3009 265 30.3009C272.2 30.3009 276.32 34.2609 277.24 39.8609H271.56C270.92 37.1009 268.8 35.1009 265.12 35.1009C259.72 35.1009 257.04 39.5809 257.04 45.2609C257.04 51.1009 260.12 55.3809 265.04 55.3809C269.48 55.3809 272.4 52.0609 272.4 48.9009V48.7409H265.52V44.2609H277.56V59.4609H273.2ZM294.095 59.4609C293.775 59.0609 293.575 58.1009 293.455 57.1809H293.375C292.335 58.7409 290.855 59.9409 287.335 59.9409C283.135 59.9409 280.175 57.7409 280.175 53.6609C280.175 49.1409 283.855 47.7009 288.415 47.0609C291.815 46.5809 293.375 46.3009 293.375 44.7409C293.375 43.2609 292.215 42.3009 289.935 42.3009C287.375 42.3009 286.135 43.2209 285.975 45.1809H281.135C281.295 41.5809 283.975 38.4209 289.975 38.4209C296.135 38.4209 298.615 41.1809 298.615 45.9809V56.4209C298.615 57.9809 298.855 58.9009 299.335 59.2609V59.4609H294.095ZM288.655 56.1409C291.775 56.1409 293.495 54.2209 293.495 52.2209V49.1409C292.535 49.7009 291.055 50.0209 289.695 50.3409C286.855 50.9809 285.455 51.6209 285.455 53.5409C285.455 55.4609 286.735 56.1409 288.655 56.1409ZM302.073 59.4609V38.9409H307.313V41.7009H307.433C308.553 39.8209 310.553 38.3809 313.393 38.3809C315.993 38.3809 318.073 39.8209 319.073 41.9809H319.153C320.553 39.7409 322.713 38.3809 325.313 38.3809C329.633 38.3809 332.073 41.1809 332.073 45.6609V59.4609H326.633V46.5809C326.633 44.2609 325.473 43.0609 323.473 43.0609C321.193 43.0609 319.793 44.8209 319.793 47.5409V59.4609H314.353V46.5809C314.353 44.2609 313.193 43.0609 311.193 43.0609C308.993 43.0609 307.513 44.8209 307.513 47.5409V59.4609H302.073ZM345.073 60.0609C338.273 60.0609 334.433 55.3009 334.433 49.1809C334.433 43.1009 338.553 38.3809 344.553 38.3809C351.153 38.3809 354.673 43.4209 354.673 50.7409H339.793C340.193 53.9009 341.953 55.8609 345.033 55.8609C347.153 55.8609 348.393 54.9009 348.993 53.3409H354.353C353.593 56.9809 350.353 60.0609 345.073 60.0609ZM344.633 42.5809C341.753 42.5809 340.353 44.3009 339.873 46.9809H348.993C348.833 44.3809 347.113 42.5809 344.633 42.5809ZM362.869 35.7409V30.8609H385.869V35.7409H377.269V59.4609H371.469V35.7409H362.869ZM393.393 60.0609C386.593 60.0609 382.753 55.3009 382.753 49.1809C382.753 43.1009 386.873 38.3809 392.873 38.3809C399.473 38.3809 402.993 43.4209 402.993 50.7409H388.113C388.513 53.9009 390.273 55.8609 393.353 55.8609C395.473 55.8609 396.713 54.9009 397.313 53.3409H402.673C401.913 56.9809 398.673 60.0609 393.393 60.0609ZM392.953 42.5809C390.073 42.5809 388.673 44.3009 388.193 46.9809H397.313C397.153 44.3809 395.433 42.5809 392.953 42.5809ZM418.431 59.4609C418.111 59.0609 417.911 58.1009 417.791 57.1809H417.711C416.671 58.7409 415.191 59.9409 411.671 59.9409C407.471 59.9409 404.511 57.7409 404.511 53.6609C404.511 49.1409 408.191 47.7009 412.751 47.0609C416.151 46.5809 417.711 46.3009 417.711 44.7409C417.711 43.2609 416.551 42.3009 414.271 42.3009C411.711 42.3009 410.471 43.2209 410.311 45.1809H405.471C405.631 41.5809 408.311 38.4209 414.311 38.4209C420.471 38.4209 422.951 41.1809 422.951 45.9809V56.4209C422.951 57.9809 423.191 58.9009 423.671 59.2609V59.4609H418.431ZM412.991 56.1409C416.111 56.1409 417.831 54.2209 417.831 52.2209V49.1409C416.871 49.7009 415.391 50.0209 414.031 50.3409C411.191 50.9809 409.791 51.6209 409.791 53.5409C409.791 55.4609 411.071 56.1409 412.991 56.1409ZM426.409 59.4609V38.9409H431.649V41.7009H431.769C432.889 39.8209 434.889 38.3809 437.729 38.3809C440.329 38.3809 442.409 39.8209 443.409 41.9809H443.489C444.889 39.7409 447.049 38.3809 449.649 38.3809C453.969 38.3809 456.409 41.1809 456.409 45.6609V59.4609H450.969V46.5809C450.969 44.2609 449.809 43.0609 447.809 43.0609C445.529 43.0609 444.129 44.8209 444.129 47.5409V59.4609H438.689V46.5809C438.689 44.2609 437.529 43.0609 435.529 43.0609C433.329 43.0609 431.849 44.8209 431.849 47.5409V59.4609H426.409Z" fill="white"/>
</svg>
