<svg width="30" height="30" viewBox="0 0 30 30" fill="none" xmlns="http://www.w3.org/2000/svg">
<path d="M8.79059 0.363281H21.2389C25.9811 0.363281 29.8342 4.19443 29.8342 8.90969V21.2873C29.8342 23.5539 28.9286 25.7277 27.3167 27.3305C25.7048 28.9333 23.5185 29.8337 21.2389 29.8337H8.79059C4.04837 29.8337 0.195312 26.0025 0.195312 21.2873V8.90969C0.195313 6.64304 1.10088 4.46923 2.71281 2.86647C4.32474 1.2637 6.51098 0.363281 8.79059 0.363281ZM8.4942 3.31032C7.07927 3.31032 5.72229 3.8692 4.72179 4.86402C3.72128 5.85884 3.1592 7.2081 3.1592 8.61499V21.582C3.1592 24.5143 5.54513 26.8866 8.4942 26.8866H21.5353C22.9502 26.8866 24.3072 26.3278 25.3077 25.3329C26.3082 24.3381 26.8703 22.9888 26.8703 21.582V8.61499C26.8703 5.68269 24.4844 3.31032 21.5353 3.31032H8.4942ZM22.795 5.5206C23.2863 5.5206 23.7574 5.71466 24.1048 6.06008C24.4522 6.4055 24.6474 6.874 24.6474 7.3625C24.6474 7.851 24.4522 8.3195 24.1048 8.66492C23.7574 9.01034 23.2863 9.2044 22.795 9.2044C22.3037 9.2044 21.8325 9.01034 21.4851 8.66492C21.1377 8.3195 20.9425 7.851 20.9425 7.3625C20.9425 6.874 21.1377 6.4055 21.4851 6.06008C21.8325 5.71466 22.3037 5.5206 22.795 5.5206ZM15.0148 7.73088C16.9799 7.73088 18.8646 8.50711 20.2542 9.8888C21.6438 11.2705 22.4245 13.1445 22.4245 15.0985C22.4245 17.0525 21.6438 18.9265 20.2542 20.3082C18.8646 21.6898 16.9799 22.4661 15.0148 22.4661C13.0496 22.4661 11.1649 21.6898 9.77529 20.3082C8.3857 18.9265 7.60503 17.0525 7.60503 15.0985C7.60503 13.1445 8.3857 11.2705 9.77529 9.8888C11.1649 8.50711 13.0496 7.73088 15.0148 7.73088ZM15.0148 10.6779C13.8356 10.6779 12.7048 11.1437 11.8711 11.9727C11.0373 12.8017 10.5689 13.9261 10.5689 15.0985C10.5689 16.2709 11.0373 17.3953 11.8711 18.2243C12.7048 19.0533 13.8356 19.519 15.0148 19.519C16.1939 19.519 17.3247 19.0533 18.1584 18.2243C18.9922 17.3953 19.4606 16.2709 19.4606 15.0985C19.4606 13.9261 18.9922 12.8017 18.1584 11.9727C17.3247 11.1437 16.1939 10.6779 15.0148 10.6779Z" fill="black"/>
</svg>
