<svg width="30" height="30" viewBox="0 0 30 30" fill="none" xmlns="http://www.w3.org/2000/svg">
<path d="M8.89996 0.363281H21.3483C26.0905 0.363281 29.9436 4.19443 29.9436 8.90969V21.2873C29.9436 23.5539 29.038 25.7277 27.4261 27.3305C25.8141 28.9333 23.6279 29.8337 21.3483 29.8337H8.89996C4.15774 29.8337 0.304688 26.0025 0.304688 21.2873V8.90969C0.304688 6.64304 1.21026 4.46923 2.82219 2.86647C4.43411 1.2637 6.62035 0.363281 8.89996 0.363281Z" fill="black"/>
<path d="M19.5234 6.14453C20.6385 6.15399 21.6092 6.47914 22.4353 7.16143C23.6596 8.17293 24.2189 9.48887 24.1066 11.066C24.0382 12.0307 23.6695 12.8877 23.0323 13.624C22.8987 13.7785 22.7569 13.9271 22.612 14.0712C21.5829 15.0967 20.5588 16.1266 19.5203 17.1426C18.7575 17.8884 17.8326 18.3104 16.766 18.4113C15.669 18.5149 14.6635 18.2501 13.7527 17.638C13.4669 17.4457 13.1915 17.2359 12.9831 16.9544C12.6629 16.5212 12.7145 15.8871 13.1032 15.4988C13.4949 15.1075 14.1367 15.0543 14.5747 15.3809C14.7659 15.5236 14.9389 15.693 15.1404 15.8182C16.0336 16.373 17.185 16.246 17.9332 15.5079C19.0216 14.4347 20.1127 13.3637 21.1821 12.2721C21.8361 11.6046 22.0173 10.7926 21.6984 9.91445C21.3791 9.03581 20.7155 8.53682 19.7843 8.43143C19.0759 8.35127 18.4559 8.5859 17.9463 9.08355C17.4064 9.61091 16.8761 10.1482 16.3389 10.6787C15.9702 11.0426 15.4135 11.1191 14.9728 10.8724C14.3206 10.5071 14.1807 9.63163 14.7029 9.09706C15.2673 8.51925 15.8343 7.94325 16.4236 7.39021C17.3005 6.56696 18.3549 6.15849 19.5234 6.14453Z" fill="white"/>
<path d="M10.7231 24.0499C9.60752 24.0404 8.63689 23.7157 7.81075 23.0334C6.58648 22.0219 6.02711 20.706 6.13899 19.1289C6.20738 18.1642 6.57606 17.3072 7.21288 16.5709C7.3465 16.4164 7.48827 16.2678 7.6332 16.1236C8.65411 15.1063 9.67229 14.0862 10.7 13.0756C11.4727 12.3159 12.4066 11.8822 13.4905 11.7827C14.6432 11.6768 15.6895 11.9727 16.6211 12.6492C16.8548 12.8189 17.0745 13.0216 17.2561 13.2445C17.5967 13.662 17.5315 14.3069 17.1429 14.6956C16.7516 15.0869 16.1089 15.141 15.6713 14.8145C15.4802 14.6722 15.3072 14.5024 15.1056 14.3772C14.2156 13.8241 13.0656 13.9466 12.3215 14.6789C11.2263 15.7562 10.1298 16.8325 9.05631 17.9309C8.40635 18.5956 8.22971 19.4067 8.54721 20.28C8.86653 21.1586 9.52962 21.6581 10.4608 21.7634C11.1692 21.8436 11.7893 21.6094 12.2988 21.1118C12.8387 20.5844 13.3691 20.0471 13.9063 19.5166C14.2754 19.1523 14.8316 19.0757 15.2723 19.3225C15.9245 19.6873 16.0654 20.5628 15.5432 21.0978C14.9788 21.6756 14.4117 22.2516 13.8225 22.8047C12.9456 23.6279 11.8912 24.0364 10.7231 24.0508V24.0499Z" fill="white"/>
</svg>
