<svg width="30" height="30" viewBox="0 0 30 30" fill="none" xmlns="http://www.w3.org/2000/svg">
<path d="M8.84528 0.363281H21.2936C26.0358 0.363281 29.8889 4.19443 29.8889 8.90969V21.2873C29.8889 23.5539 28.9833 25.7277 27.3714 27.3305C25.7595 28.9333 23.5732 29.8337 21.2936 29.8337H8.84528C4.10305 29.8337 0.25 26.0025 0.25 21.2873V8.90969C0.25 6.64304 1.15557 4.46923 2.7675 2.86647C4.37942 1.2637 6.56567 0.363281 8.84528 0.363281Z" fill="black"/>
<path d="M24.3731 22.3946H20.6944C20.6944 22.3155 20.6944 22.2476 20.6944 22.1797C20.6937 20.1831 20.6958 18.1864 20.6902 16.1898C20.6888 15.706 20.6217 15.23 20.4212 14.781C20.1818 14.2444 19.7699 13.9323 19.186 13.8404C18.021 13.6565 17.2394 14.2983 16.8566 15.191C16.7274 15.4922 16.7253 15.8617 16.7236 16.2002C16.7123 18.2317 16.7187 20.2632 16.7183 22.2943C16.7183 22.3402 16.7141 22.3859 16.7109 22.4475H12.9922V11.2249H16.7134V12.6507C16.726 12.6545 16.7383 12.658 16.751 12.6618C16.8328 12.5535 16.9118 12.4435 16.9964 12.3376C17.7913 11.3398 18.8503 10.9051 20.1112 10.9142C21.0469 10.9212 21.9163 11.1496 22.6776 11.7131C23.4806 12.3076 23.9374 13.1268 24.1568 14.0716C24.2794 14.5996 24.3644 15.1481 24.37 15.6883C24.3935 17.882 24.3802 20.0761 24.3802 22.2702C24.3802 22.3044 24.3766 22.3385 24.3735 22.3946H24.3731Z" fill="white"/>
<path d="M7.07031 22.396V11.1602H10.7845V22.396H7.07031Z" fill="white"/>
<path d="M8.98598 5.74219C9.77495 5.74184 10.3975 6.04727 10.8139 6.71839C11.4396 7.72663 11.0636 9.41469 9.35677 9.61634C8.76934 9.68565 8.21983 9.59127 7.71878 9.25101C7.03584 8.78711 6.73774 7.99027 6.94244 7.11751C7.0994 6.44848 7.7423 5.89821 8.49792 5.7906C8.65944 5.76761 8.82306 5.75786 8.98598 5.74219Z" fill="white"/>
</svg>
