<svg width="194" height="67" viewBox="0 0 194 67" fill="none" xmlns="http://www.w3.org/2000/svg">
<path d="M336.612 0.898438L18.0186 0.900139L0 66.5424L319.079 66.9976L336.612 0.898438Z" fill="#14B253"/>
<path d="M42.4125 41.9453L45.8625 24.0703H50.8375L51.5125 32.8953C51.7125 35.3953 51.7375 37.9703 51.7375 37.9703H51.7625C51.7625 37.9703 52.5625 35.5703 53.5875 33.3453L57.8875 24.0703H63.0375L59.5875 41.9453H56.2625L58.2375 31.6953C58.5375 30.1453 59.1125 27.9453 59.1125 27.9453H59.0625C59.0625 27.9453 58.2875 29.8703 57.5875 31.3703L52.6625 41.9453H49.2625L48.4125 31.3953C48.3125 30.0703 48.2875 27.9453 48.2875 27.9453H48.2375C48.2375 27.9453 47.9375 30.2453 47.6625 31.6953L45.6875 41.9453H42.4125ZM74.982 36.4703H66.057C66.057 38.4953 66.732 39.7203 68.682 39.7203C69.857 39.7203 70.832 39.2203 71.307 38.1203H74.607C74.207 39.3203 73.532 40.2953 72.632 40.9953C71.557 41.8453 70.182 42.2953 68.632 42.3203C65.307 42.3203 62.732 40.4703 62.732 36.4203C62.732 32.6953 65.457 28.7703 69.607 28.7703C71.007 28.7703 71.982 29.0453 72.832 29.5953C74.757 30.8453 75.457 33.3953 74.982 36.4703ZM69.532 31.3703C67.757 31.3703 66.807 32.6453 66.357 34.1453H71.882C71.932 32.6453 71.257 31.3703 69.532 31.3703ZM81.2127 29.1203L80.8377 31.1453H80.9127C82.0127 29.5703 83.0877 28.7703 84.9127 28.7703C87.4627 28.7703 88.9377 30.8453 88.3627 33.8453L86.8127 41.9453H83.4627L84.9627 34.2453C85.2877 32.5453 84.6377 31.6203 83.2127 31.6203C81.6377 31.6203 80.5127 33.0703 80.1627 34.9453L78.8127 41.9453H75.4627L77.9377 29.1203H81.2127ZM89.8248 31.3703L90.2498 29.1203H91.8748L92.6498 25.1203H95.9248L95.1498 29.1203H97.2998L96.8748 31.3703H94.7248L93.4248 38.0453C93.2248 39.0453 93.5498 39.4453 94.3748 39.4453C94.7498 39.4453 95.3748 39.3953 95.3748 39.3953L94.8998 41.8953C94.8998 41.8953 94.0498 41.9703 93.3748 41.9703C90.7748 41.9703 89.5498 41.0203 90.0748 38.3703L91.4498 31.3703H89.8248ZM103.059 42.3203C99.7094 42.3203 97.0344 40.2703 97.0344 36.3453C97.0344 32.2953 99.8844 28.7703 104.259 28.7703C107.534 28.7703 110.184 30.8203 110.184 34.6203C110.184 38.7203 107.434 42.3203 103.059 42.3203ZM100.384 36.5453C100.384 38.2953 101.159 39.7953 103.134 39.7953C105.734 39.7953 106.834 36.9703 106.834 34.5203C106.834 32.8453 106.059 31.2953 104.084 31.2953C101.509 31.2953 100.384 34.0703 100.384 36.5453ZM116.148 29.1203L115.748 31.1703H115.823C116.573 29.8953 117.598 28.9703 119.198 28.9703C119.673 28.9703 119.973 29.0203 120.148 29.0703L119.573 32.0203H119.498C117.173 31.7203 115.548 32.7953 114.998 35.6953L113.798 41.9453H110.448L112.923 29.1203H116.148ZM125.281 42.3203C122.181 42.3203 119.706 41.0203 119.481 37.7953H122.656C122.781 38.8953 123.531 39.8703 125.281 39.8703C126.506 39.8703 127.381 39.4453 127.381 38.4703C127.381 37.5453 126.281 37.1953 124.406 36.5703C122.456 35.9203 120.731 35.0953 120.731 32.8203C120.731 30.2203 122.806 28.7703 125.731 28.7703C128.606 28.7703 130.756 30.2203 130.981 33.0203H127.906C127.756 32.0203 127.056 31.1703 125.631 31.1703C124.731 31.1703 123.706 31.4703 123.706 32.4453C123.706 33.3203 124.856 33.5203 126.831 34.1953C128.681 34.8203 130.456 35.7703 130.456 38.0203C130.456 40.7703 128.531 42.3203 125.281 42.3203ZM138.098 24.0703L136.798 30.8953H136.873C137.923 29.4703 138.923 28.7703 140.748 28.7703C143.298 28.7703 144.773 30.8453 144.198 33.8453L142.648 41.9453H139.298L140.798 34.2453C141.123 32.5453 140.473 31.6203 139.048 31.6203C137.423 31.6203 136.348 33.0703 135.998 34.9453L134.648 41.9453H131.298L134.748 24.0703H138.098ZM144.701 41.9453L147.176 29.1203H150.526L148.051 41.9453H144.701ZM147.576 27.1203L148.151 24.0703H151.501L150.926 27.1203H147.576ZM149.369 46.1453L152.669 29.1203H155.894L155.594 30.6953H155.669C156.569 29.5453 157.869 28.7703 159.594 28.7703C162.469 28.7703 164.019 31.1703 164.019 34.3703C164.019 37.9953 162.169 42.3203 157.694 42.3203C156.144 42.3203 154.669 41.6453 153.944 40.1453H153.894L152.719 46.1453H149.369ZM154.569 36.5703C154.569 38.1203 155.369 39.5203 157.194 39.5203C159.719 39.5203 160.594 36.8453 160.594 34.4953C160.594 32.9953 159.969 31.4953 158.144 31.4953C155.744 31.4953 154.569 34.2453 154.569 36.5703Z" fill="white"/>
</svg>
