<svg width="310" height="67" viewBox="0 0 310 67" fill="none" xmlns="http://www.w3.org/2000/svg">
<path d="M336.609 0.515625L18.0147 0.517326L-0.00390625 66.1596L319.075 66.6148L336.609 0.515625Z" fill="#F2000A"/>
<path d="M37.7617 26.7164L38.3367 23.6914H52.2367L51.6617 26.7164H46.4867L43.6117 41.5664H40.0367L42.9117 26.7164H37.7617ZM57.0107 23.6914L55.7107 30.5164H55.7857C56.8357 29.0914 57.8357 28.3914 59.6607 28.3914C62.2107 28.3914 63.6857 30.4664 63.1107 33.4664L61.5607 41.5664H58.2107L59.7107 33.8664C60.0357 32.1664 59.3857 31.2414 57.9607 31.2414C56.3357 31.2414 55.2607 32.6914 54.9107 34.5664L53.5607 41.5664H50.2107L53.6607 23.6914H57.0107ZM76.4391 36.0914H67.5141C67.5141 38.1164 68.1891 39.3414 70.1391 39.3414C71.3141 39.3414 72.2891 38.8414 72.7641 37.7414H76.0641C75.6641 38.9414 74.9891 39.9164 74.0891 40.6164C73.0141 41.4664 71.6391 41.9164 70.0891 41.9414C66.7641 41.9414 64.1891 40.0914 64.1891 36.0414C64.1891 32.3164 66.9141 28.3914 71.0641 28.3914C72.4641 28.3914 73.4391 28.6664 74.2891 29.2164C76.2141 30.4664 76.9141 33.0164 76.4391 36.0914ZM70.9891 30.9914C69.2141 30.9914 68.2641 32.2664 67.8141 33.7664H73.3391C73.3891 32.2664 72.7141 30.9914 70.9891 30.9914ZM81.5404 41.5664L84.9904 23.6914H92.1904C95.7154 23.6914 97.5904 25.6414 97.5904 28.4414C97.5904 31.0164 96.0404 32.5414 93.6654 33.1414V33.2164C95.0904 33.6664 95.8654 34.6164 95.8654 36.2914C95.8654 37.3164 95.6654 38.8664 95.6654 40.2414C95.6654 40.7914 95.7654 41.2664 96.0154 41.3914V41.5664H92.5654C92.3654 41.3414 92.2904 40.8414 92.2904 40.2414C92.2904 39.1164 92.4404 37.8164 92.4404 36.7914C92.4404 35.1914 91.5404 34.3914 89.7404 34.3914H86.4904L85.1154 41.5664H81.5404ZM88.0154 26.5914L87.0404 31.6164H90.7654C92.4904 31.6164 94.0154 30.8164 94.0154 28.8414C94.0154 27.3914 93.2154 26.5914 91.6404 26.5914H88.0154ZM109.764 36.0914H100.839C100.839 38.1164 101.514 39.3414 103.464 39.3414C104.639 39.3414 105.614 38.8414 106.089 37.7414H109.389C108.989 38.9414 108.314 39.9164 107.414 40.6164C106.339 41.4664 104.964 41.9164 103.414 41.9414C100.089 41.9414 97.5143 40.0914 97.5143 36.0414C97.5143 32.3164 100.239 28.3914 104.389 28.3914C105.789 28.3914 106.764 28.6664 107.614 29.2164C109.539 30.4664 110.239 33.0164 109.764 36.0914ZM104.314 30.9914C102.539 30.9914 101.589 32.2664 101.139 33.7664H106.664C106.714 32.2664 106.039 30.9914 104.314 30.9914ZM111.154 31.0914L111.604 28.7414H113.279L113.579 27.2164C114.079 24.6414 115.729 23.6664 118.004 23.6414C118.579 23.6414 119.179 23.6914 119.804 23.7914L119.304 26.3914C118.954 26.3414 118.629 26.3164 118.354 26.3164C117.429 26.3164 117.029 26.6664 116.829 27.6664L116.604 28.7414H118.829L118.379 31.0914H116.154L114.129 41.5664H110.804L112.829 31.0914H111.154ZM117.904 41.5664L121.354 23.6914H124.704L121.254 41.5664H117.904ZM136.278 36.0914H127.353C127.353 38.1164 128.028 39.3414 129.978 39.3414C131.153 39.3414 132.128 38.8414 132.603 37.7414H135.903C135.503 38.9414 134.828 39.9164 133.928 40.6164C132.853 41.4664 131.478 41.9164 129.928 41.9414C126.603 41.9414 124.028 40.0914 124.028 36.0414C124.028 32.3164 126.753 28.3914 130.903 28.3914C132.303 28.3914 133.278 28.6664 134.128 29.2164C136.053 30.4664 136.753 33.0164 136.278 36.0914ZM130.828 30.9914C129.053 30.9914 128.103 32.2664 127.653 33.7664H133.178C133.228 32.2664 132.553 30.9914 130.828 30.9914ZM135.295 41.5664L140.92 34.7164L138.07 28.7414H141.695L143.245 32.6414H143.295L146.02 28.7414H149.67L144.67 35.0664L147.82 41.5664H144.095L142.37 37.3164H142.32L139.02 41.5664H135.295ZM166.435 41.5664L166.735 39.3664H166.685C165.51 40.9914 163.735 41.9414 161.535 41.9414C157.36 41.9414 154.41 39.2414 154.41 34.3414C154.41 28.7914 158.235 23.3164 164.16 23.3414C167.81 23.3664 170.785 25.1914 171.06 29.3164H167.585C167.385 27.4414 166.01 26.3164 163.885 26.3164C160.085 26.3164 158.06 30.3164 158.06 34.2914C158.06 37.2664 159.435 39.0414 162.31 39.0414C164.885 39.0414 166.81 37.3914 167.235 34.8414H163.01L163.535 32.0664H170.935L169.11 41.5664H166.435ZM179.256 41.5664C179.106 41.2914 179.056 40.7414 179.081 40.1664H179.031C178.256 40.9914 177.306 41.8664 175.456 41.8664C173.481 41.8664 171.381 40.7414 171.381 38.0914C171.381 34.6914 174.081 34.0664 177.206 33.8164C179.606 33.6164 180.531 33.5164 180.531 32.2414C180.531 31.3164 179.806 30.8164 178.531 30.8164C177.131 30.8164 176.206 31.3664 175.906 32.6414H172.906C173.331 30.0164 175.356 28.4164 178.656 28.4164C181.831 28.4164 184.231 29.7914 183.531 33.5164L182.331 39.6664C182.156 40.5414 182.231 41.1414 182.431 41.4414V41.5664H179.256ZM174.606 37.7914C174.606 38.9414 175.406 39.5414 176.531 39.5414C178.281 39.5414 179.406 38.4414 179.656 37.2664L180.056 35.2414C179.406 35.5414 178.706 35.6914 177.606 35.8914C176.381 36.1164 174.606 36.0414 174.606 37.7914ZM184.097 41.5664L186.572 28.7414H189.797L189.447 30.6164H189.522C190.397 29.2414 191.547 28.3914 193.122 28.3914C194.847 28.3914 195.822 29.4164 196.197 30.8414H196.247C197.397 29.0914 198.797 28.3914 200.497 28.3914C202.797 28.3914 204.547 30.1914 203.872 33.5914L202.347 41.5664H198.997L200.522 33.6914C200.822 32.0914 200.172 31.2414 198.997 31.2414C197.572 31.2414 196.622 32.5164 196.247 34.4914L194.897 41.5664H191.547L193.072 33.6914C193.372 32.0914 192.722 31.2414 191.547 31.2414C190.122 31.2414 189.172 32.5164 188.797 34.4914L187.447 41.5664H184.097ZM217.211 36.0914H208.286C208.286 38.1164 208.961 39.3414 210.911 39.3414C212.086 39.3414 213.061 38.8414 213.536 37.7414H216.836C216.436 38.9414 215.761 39.9164 214.861 40.6164C213.786 41.4664 212.411 41.9164 210.861 41.9414C207.536 41.9414 204.961 40.0914 204.961 36.0414C204.961 32.3164 207.686 28.3914 211.836 28.3914C213.236 28.3914 214.211 28.6664 215.061 29.2164C216.986 30.4664 217.686 33.0164 217.211 36.0914ZM211.761 30.9914C209.986 30.9914 209.036 32.2664 208.586 33.7664H214.111C214.161 32.2664 213.486 30.9914 211.761 30.9914ZM224.212 26.7164L224.787 23.6914H238.687L238.112 26.7164H232.937L230.062 41.5664H226.487L229.362 26.7164H224.212ZM247.118 36.0914H238.193C238.193 38.1164 238.868 39.3414 240.818 39.3414C241.993 39.3414 242.968 38.8414 243.443 37.7414H246.743C246.343 38.9414 245.668 39.9164 244.768 40.6164C243.693 41.4664 242.318 41.9164 240.768 41.9414C237.443 41.9414 234.868 40.0914 234.868 36.0414C234.868 32.3164 237.593 28.3914 241.743 28.3914C243.143 28.3914 244.118 28.6664 244.968 29.2164C246.893 30.4664 247.593 33.0164 247.118 36.0914ZM241.668 30.9914C239.893 30.9914 238.943 32.2664 238.493 33.7664H244.018C244.068 32.2664 243.393 30.9914 241.668 30.9914ZM255.721 41.5664C255.571 41.2914 255.521 40.7414 255.546 40.1664H255.496C254.721 40.9914 253.771 41.8664 251.921 41.8664C249.946 41.8664 247.846 40.7414 247.846 38.0914C247.846 34.6914 250.546 34.0664 253.671 33.8164C256.071 33.6164 256.996 33.5164 256.996 32.2414C256.996 31.3164 256.271 30.8164 254.996 30.8164C253.596 30.8164 252.671 31.3664 252.371 32.6414H249.371C249.796 30.0164 251.821 28.4164 255.121 28.4164C258.296 28.4164 260.696 29.7914 259.996 33.5164L258.796 39.6664C258.621 40.5414 258.696 41.1414 258.896 41.4414V41.5664H255.721ZM251.071 37.7914C251.071 38.9414 251.871 39.5414 252.996 39.5414C254.746 39.5414 255.871 38.4414 256.121 37.2664L256.521 35.2414C255.871 35.5414 255.171 35.6914 254.071 35.8914C252.846 36.1164 251.071 36.0414 251.071 37.7914ZM260.562 41.5664L263.037 28.7414H266.262L265.912 30.6164H265.987C266.862 29.2414 268.012 28.3914 269.587 28.3914C271.312 28.3914 272.287 29.4164 272.662 30.8414H272.712C273.862 29.0914 275.262 28.3914 276.962 28.3914C279.262 28.3914 281.012 30.1914 280.337 33.5914L278.812 41.5664H275.462L276.987 33.6914C277.287 32.0914 276.637 31.2414 275.462 31.2414C274.037 31.2414 273.087 32.5164 272.712 34.4914L271.362 41.5664H268.012L269.537 33.6914C269.837 32.0914 269.187 31.2414 268.012 31.2414C266.587 31.2414 265.637 32.5164 265.262 34.4914L263.912 41.5664H260.562Z" fill="white"/>
</svg>
