<svg width="650" height="233" viewBox="0 0 650 233" fill="none" xmlns="http://www.w3.org/2000/svg">
<path d="M649.697 -0.00390625L-14.8557 0.0698712L-64.0195 232.828L600.675 232.836L649.697 -0.00390625Z" fill="#14B253"/>
<path d="M62.5703 72.7891C57.1703 72.7891 53.8203 68.8141 53.8203 63.4641C53.8203 58.1141 57.1703 54.1391 62.5703 54.1391C67.9703 54.1391 71.3203 58.1141 71.3203 63.4641C71.3203 68.8141 67.9703 72.7891 62.5703 72.7891ZM62.5703 70.8141C66.7703 70.8141 69.0203 67.6641 69.0203 63.4641C69.0203 59.2641 66.7703 56.0891 62.5703 56.0891C58.3703 56.0891 56.1203 59.2641 56.1203 63.4641C56.1203 67.6641 58.3703 70.8141 62.5703 70.8141ZM83.9521 72.4141H81.9271V70.6391H81.8771C80.9521 71.8891 79.8521 72.7141 77.9771 72.7141C75.3271 72.7141 73.6271 71.1141 73.6271 68.4391V59.4891H75.6521V68.3891C75.6521 70.0641 76.7271 71.0391 78.5521 71.0391C80.6021 71.0391 81.9271 69.4891 81.9271 67.4391V59.4891H83.9521V72.4141ZM88.7154 59.4891V61.6391H88.7654C89.5404 60.3891 90.8904 59.3391 92.6154 59.3391C92.9904 59.3391 93.1904 59.3891 93.4404 59.4891V61.4391H93.3654C93.0654 61.3391 92.8654 61.3141 92.4654 61.3141C90.4654 61.3141 88.7154 62.8141 88.7154 65.2391V72.4141H86.6904V59.4891H88.7154ZM99.2393 72.4141V59.4891H101.264V61.3391H101.314C102.114 60.0891 103.489 59.1891 105.114 59.1891C106.689 59.1891 107.939 59.9891 108.489 61.4891H108.539C109.364 60.0141 110.914 59.1891 112.489 59.1891C114.789 59.1891 116.414 60.6641 116.414 63.3391V72.4141H114.389V63.4391C114.389 61.8391 113.314 60.8891 112.014 60.8891C110.339 60.8891 108.839 62.3391 108.839 64.3641V72.4141H106.814V63.4391C106.814 61.8391 105.914 60.8891 104.589 60.8891C103.014 60.8891 101.264 62.3391 101.264 64.3641V72.4141H99.2393ZM129.338 72.4141H127.313V70.6391H127.263C126.338 71.8891 125.238 72.7141 123.363 72.7141C120.713 72.7141 119.013 71.1141 119.013 68.4391V59.4891H121.038V68.3891C121.038 70.0641 122.113 71.0391 123.938 71.0391C125.988 71.0391 127.313 69.4891 127.313 67.4391V59.4891H129.338V72.4141ZM132.151 72.4141V54.5391H134.176V72.4141H132.151ZM136.183 61.1391V59.4891H138.058V55.4141H140.083V59.4891H142.583V61.1391H140.083V69.5391C140.083 70.4391 140.558 70.7391 141.383 70.7391C141.783 70.7391 142.233 70.6391 142.458 70.5641H142.533V72.3141C142.058 72.4141 141.508 72.4891 140.908 72.4891C139.258 72.4891 138.058 71.8141 138.058 69.9891V61.1391H136.183ZM144.674 72.4141V59.4891H146.699V72.4141H144.674ZM144.674 57.0391V54.5391H146.699V57.0391H144.674ZM149.034 66.4391V64.5891H155.734V66.4391H149.034ZM163.053 72.7891C159.528 72.7891 157.328 70.1391 157.328 65.9891C157.328 61.6891 159.803 59.1891 163.003 59.1891C164.828 59.1891 166.228 60.0891 167.053 61.3141H167.103V54.5391H169.128V72.4141H167.103V70.8391H167.053C166.078 72.0891 164.878 72.7891 163.053 72.7891ZM163.128 71.0891C166.003 71.0891 167.228 68.9391 167.228 66.0141C167.228 63.0141 165.778 60.9141 163.103 60.9141C160.653 60.9141 159.403 63.1141 159.403 66.0141C159.403 68.9391 160.653 71.0891 163.128 71.0891ZM171.871 72.4141V59.4891H173.896V72.4141H171.871ZM171.871 57.0391V54.5391H173.896V57.0391H171.871ZM181.556 72.7891C178.006 72.7891 176.031 71.1141 175.831 68.2141H177.906C178.181 70.4641 179.681 71.0891 181.606 71.0891C183.731 71.0891 184.606 70.1641 184.606 68.9641C184.606 67.5141 183.606 67.1391 181.231 66.6391C178.681 66.1141 176.406 65.5891 176.406 62.7641C176.406 60.6141 178.056 59.2141 181.056 59.2141C184.256 59.2141 185.831 60.7391 186.131 63.2641H184.056C183.856 61.5641 182.931 60.8141 181.006 60.8141C179.156 60.8141 178.406 61.6391 178.406 62.6641C178.406 64.0641 179.656 64.3391 181.881 64.7891C184.481 65.3141 186.656 65.8891 186.656 68.8641C186.656 71.4641 184.531 72.7891 181.556 72.7891ZM194.364 72.7641C190.514 72.7641 188.114 69.7141 188.114 65.9641C188.114 62.2141 190.514 59.1641 194.364 59.1641C197.414 59.1641 199.439 60.9141 199.889 63.6641H197.839C197.539 61.9141 196.314 60.8391 194.364 60.8391C191.614 60.8391 190.189 63.1141 190.189 65.9641C190.189 68.8141 191.614 71.0641 194.364 71.0641C196.464 71.0641 197.714 69.8641 197.889 67.8641H199.889C199.614 70.9641 197.589 72.7641 194.364 72.7641ZM201.803 72.4141V59.4891H203.828V72.4141H201.803ZM201.803 57.0391V54.5391H203.828V57.0391H201.803ZM206.588 76.5641V59.4891H208.613V61.3141H208.663C209.638 59.9891 210.938 59.1891 212.813 59.1891C216.088 59.1891 218.363 61.6891 218.363 65.9891C218.363 70.1391 216.238 72.7891 212.738 72.7891C210.988 72.7891 209.738 72.2641 208.663 70.8891H208.613V76.5641H206.588ZM212.588 71.0891C215.063 71.0891 216.288 68.9391 216.288 66.0141C216.288 63.1141 215.063 60.9141 212.613 60.9141C209.788 60.9141 208.488 63.2141 208.488 66.0141C208.488 68.8141 209.613 71.0891 212.588 71.0891ZM220.457 72.4141V54.5391H222.482V72.4141H220.457ZM225.313 72.4141V59.4891H227.338V72.4141H225.313ZM225.313 57.0391V54.5391H227.338V57.0391H225.313ZM232.124 59.4891V61.1891H232.174C233.099 59.9641 234.399 59.1891 236.274 59.1891C238.974 59.1891 240.624 60.6641 240.624 63.3391V72.4141H238.599V63.5141C238.599 61.8391 237.499 60.8891 235.674 60.8891C233.624 60.8891 232.124 62.3391 232.124 64.4641V72.4141H230.099V59.4891H232.124ZM248.832 72.7641C244.882 72.7641 242.582 69.7141 242.582 65.9641C242.582 62.2141 245.032 59.1641 248.707 59.1641C252.582 59.1641 254.657 62.1641 254.657 66.4391H244.657C244.807 69.0641 246.232 71.0641 248.832 71.0641C250.707 71.0641 251.957 70.1641 252.407 68.4141H254.382C253.782 71.1891 251.757 72.7641 248.832 72.7641ZM248.707 60.7641C246.307 60.7641 245.007 62.5641 244.707 64.9141H252.482C252.357 62.3391 251.032 60.7641 248.707 60.7641ZM261.637 72.7891C258.112 72.7891 255.912 70.1391 255.912 65.9891C255.912 61.6891 258.387 59.1891 261.587 59.1891C263.412 59.1891 264.812 60.0891 265.637 61.3141H265.687V54.5391H267.712V72.4141H265.687V70.8391H265.637C264.662 72.0891 263.462 72.7891 261.637 72.7891ZM261.712 71.0891C264.587 71.0891 265.812 68.9391 265.812 66.0141C265.812 63.0141 264.362 60.9141 261.687 60.9141C259.237 60.9141 257.987 63.1141 257.987 66.0141C257.987 68.9391 259.237 71.0891 261.712 71.0891ZM273.61 61.1391V59.4891H275.485V55.4141H277.51V59.4891H280.01V61.1391H277.51V69.5391C277.51 70.4391 277.985 70.7391 278.81 70.7391C279.21 70.7391 279.66 70.6391 279.885 70.5641H279.96V72.3141C279.485 72.4141 278.935 72.4891 278.335 72.4891C276.685 72.4891 275.485 71.8141 275.485 69.9891V61.1391H273.61ZM287.504 72.7641C283.554 72.7641 281.254 69.7141 281.254 65.9641C281.254 62.2141 283.704 59.1641 287.379 59.1641C291.254 59.1641 293.329 62.1641 293.329 66.4391H283.329C283.479 69.0641 284.904 71.0641 287.504 71.0641C289.379 71.0641 290.629 70.1641 291.079 68.4141H293.054C292.454 71.1891 290.429 72.7641 287.504 72.7641ZM287.379 60.7641C284.979 60.7641 283.679 62.5641 283.379 64.9141H291.154C291.029 62.3391 289.704 60.7641 287.379 60.7641ZM305.459 72.5391C304.134 72.5391 303.434 71.9391 303.234 70.6141H303.209C302.434 71.6141 301.109 72.6641 298.909 72.6641C296.459 72.6641 294.534 71.5141 294.534 69.0641C294.534 66.0141 296.934 65.3891 300.159 64.8891C301.984 64.6141 303.259 64.4391 303.259 63.0391C303.259 61.5891 302.209 60.7641 300.359 60.7641C298.259 60.7641 297.209 61.6641 297.134 63.6141H295.184C295.259 61.1141 296.909 59.2391 300.334 59.2391C303.084 59.2391 305.109 60.2641 305.109 63.3391V69.4891C305.109 70.5391 305.359 71.1141 306.484 70.8641H306.559V72.3391C306.309 72.4391 305.984 72.5391 305.459 72.5391ZM299.359 71.1141C302.059 71.1141 303.284 69.1391 303.284 67.6391V65.4391C302.609 65.8641 301.434 66.1891 300.334 66.3891C298.309 66.7641 296.684 67.1141 296.684 69.0141C296.684 70.7391 298.034 71.1141 299.359 71.1141ZM308.053 72.4141V59.4891H310.078V61.3391H310.128C310.928 60.0891 312.303 59.1891 313.928 59.1891C315.503 59.1891 316.753 59.9891 317.303 61.4891H317.353C318.178 60.0141 319.728 59.1891 321.303 59.1891C323.603 59.1891 325.228 60.6641 325.228 63.3391V72.4141H323.203V63.4391C323.203 61.8391 322.128 60.8891 320.828 60.8891C319.153 60.8891 317.653 62.3391 317.653 64.3641V72.4141H315.628V63.4391C315.628 61.8391 314.728 60.8891 313.403 60.8891C311.828 60.8891 310.078 62.3391 310.078 64.3641V72.4141H308.053ZM331.881 72.4141V59.4891H333.906V72.4141H331.881ZM331.881 57.0391V54.5391H333.906V57.0391H331.881ZM338.691 59.4891V61.1891H338.741C339.666 59.9641 340.966 59.1891 342.841 59.1891C345.541 59.1891 347.191 60.6641 347.191 63.3391V72.4141H345.166V63.5141C345.166 61.8391 344.066 60.8891 342.241 60.8891C340.191 60.8891 338.691 62.3391 338.691 64.4641V72.4141H336.666V59.4891H338.691ZM355.399 72.7641C351.549 72.7641 349.149 69.7141 349.149 65.9641C349.149 62.2141 351.549 59.1641 355.399 59.1641C358.449 59.1641 360.474 60.9141 360.924 63.6641H358.874C358.574 61.9141 357.349 60.8391 355.399 60.8391C352.649 60.8391 351.224 63.1141 351.224 65.9641C351.224 68.8141 352.649 71.0641 355.399 71.0641C357.499 71.0641 358.749 69.8641 358.924 67.8641H360.924C360.649 70.9641 358.624 72.7641 355.399 72.7641ZM362.913 72.4141V54.5391H364.938V72.4141H362.913ZM378.02 72.4141H375.995V70.6391H375.945C375.02 71.8891 373.92 72.7141 372.045 72.7141C369.395 72.7141 367.695 71.1141 367.695 68.4391V59.4891H369.72V68.3891C369.72 70.0641 370.795 71.0391 372.62 71.0391C374.67 71.0391 375.995 69.4891 375.995 67.4391V59.4891H378.02V72.4141ZM385.758 72.7891C382.233 72.7891 380.033 70.1391 380.033 65.9891C380.033 61.6891 382.508 59.1891 385.708 59.1891C387.533 59.1891 388.933 60.0891 389.758 61.3141H389.808V54.5391H391.833V72.4141H389.808V70.8391H389.758C388.783 72.0891 387.583 72.7891 385.758 72.7891ZM385.833 71.0891C388.708 71.0891 389.933 68.9391 389.933 66.0141C389.933 63.0141 388.483 60.9141 385.808 60.9141C383.358 60.9141 382.108 63.1141 382.108 66.0141C382.108 68.9391 383.358 71.0891 385.833 71.0891ZM400.101 72.7641C396.151 72.7641 393.851 69.7141 393.851 65.9641C393.851 62.2141 396.301 59.1641 399.976 59.1641C403.851 59.1641 405.926 62.1641 405.926 66.4391H395.926C396.076 69.0641 397.501 71.0641 400.101 71.0641C401.976 71.0641 403.226 70.1641 403.676 68.4141H405.651C405.051 71.1891 403.026 72.7641 400.101 72.7641ZM399.976 60.7641C397.576 60.7641 396.276 62.5641 395.976 64.9141H403.751C403.626 62.3391 402.301 60.7641 399.976 60.7641ZM412.806 72.7891C409.256 72.7891 407.281 71.1141 407.081 68.2141H409.156C409.431 70.4641 410.931 71.0891 412.856 71.0891C414.981 71.0891 415.856 70.1641 415.856 68.9641C415.856 67.5141 414.856 67.1391 412.481 66.6391C409.931 66.1141 407.656 65.5891 407.656 62.7641C407.656 60.6141 409.306 59.2141 412.306 59.2141C415.506 59.2141 417.081 60.7391 417.381 63.2641H415.306C415.106 61.5641 414.181 60.8141 412.256 60.8141C410.406 60.8141 409.656 61.6391 409.656 62.6641C409.656 64.0641 410.906 64.3391 413.131 64.7891C415.731 65.3141 417.906 65.8891 417.906 68.8641C417.906 71.4641 415.781 72.7891 412.806 72.7891ZM422.874 76.0891C422.424 76.0891 422.074 76.0391 421.749 75.9891V74.3391H421.799C422.049 74.3891 422.274 74.4141 422.499 74.4141C423.374 74.4141 423.824 74.0391 423.824 73.1641V59.4891H425.849V73.2641C425.849 75.6641 424.524 76.0891 422.874 76.0891ZM423.824 57.0391V54.5391H425.849V57.0391H423.824ZM438.859 72.4141H436.834V70.6391H436.784C435.859 71.8891 434.759 72.7141 432.884 72.7141C430.234 72.7141 428.534 71.1141 428.534 68.4391V59.4891H430.559V68.3891C430.559 70.0641 431.634 71.0391 433.459 71.0391C435.509 71.0391 436.834 69.4891 436.834 67.4391V59.4891H438.859V72.4141ZM443.623 59.4891V61.1891H443.673C444.598 59.9641 445.898 59.1891 447.773 59.1891C450.473 59.1891 452.123 60.6641 452.123 63.3391V72.4141H450.098V63.5141C450.098 61.8391 448.998 60.8891 447.173 60.8891C445.123 60.8891 443.623 62.3391 443.623 64.4641V72.4141H441.598V59.4891H443.623ZM454.806 72.4141V59.4891H456.831V72.4141H454.806ZM454.806 57.0391V54.5391H456.831V57.0391H454.806ZM465.116 72.7641C461.266 72.7641 458.866 69.7141 458.866 65.9641C458.866 62.2141 461.266 59.1641 465.116 59.1641C468.991 59.1641 471.341 62.2141 471.341 65.9641C471.341 69.7141 468.991 72.7641 465.116 72.7641ZM465.116 71.0641C467.866 71.0641 469.266 68.8141 469.266 65.9641C469.266 63.1141 467.866 60.8391 465.116 60.8391C462.366 60.8391 460.941 63.1141 460.941 65.9641C460.941 68.8141 462.366 71.0641 465.116 71.0641ZM475.385 59.4891V61.6391H475.435C476.21 60.3891 477.56 59.3391 479.285 59.3391C479.66 59.3391 479.86 59.3891 480.11 59.4891V61.4391H480.035C479.735 61.3391 479.535 61.3141 479.135 61.3141C477.135 61.3141 475.385 62.8141 475.385 65.2391V72.4141H473.36V59.4891H475.385ZM496.059 72.5391C494.734 72.5391 494.034 71.9391 493.834 70.6141H493.809C493.034 71.6141 491.709 72.6641 489.509 72.6641C487.059 72.6641 485.134 71.5141 485.134 69.0641C485.134 66.0141 487.534 65.3891 490.759 64.8891C492.584 64.6141 493.859 64.4391 493.859 63.0391C493.859 61.5891 492.809 60.7641 490.959 60.7641C488.859 60.7641 487.809 61.6641 487.734 63.6141H485.784C485.859 61.1141 487.509 59.2391 490.934 59.2391C493.684 59.2391 495.709 60.2641 495.709 63.3391V69.4891C495.709 70.5391 495.959 71.1141 497.084 70.8641H497.159V72.3391C496.909 72.4391 496.584 72.5391 496.059 72.5391ZM489.959 71.1141C492.659 71.1141 493.884 69.1391 493.884 67.6391V65.4391C493.209 65.8641 492.034 66.1891 490.934 66.3891C488.909 66.7641 487.284 67.1141 487.284 69.0141C487.284 70.7391 488.634 71.1141 489.959 71.1141ZM500.678 59.4891V61.1891H500.728C501.653 59.9641 502.953 59.1891 504.828 59.1891C507.528 59.1891 509.178 60.6641 509.178 63.3391V72.4141H507.153V63.5141C507.153 61.8391 506.053 60.8891 504.228 60.8891C502.178 60.8891 500.678 62.3391 500.678 64.4641V72.4141H498.653V59.4891H500.678ZM516.861 72.7891C513.336 72.7891 511.136 70.1391 511.136 65.9891C511.136 61.6891 513.611 59.1891 516.811 59.1891C518.636 59.1891 520.036 60.0891 520.861 61.3141H520.911V54.5391H522.936V72.4141H520.911V70.8391H520.861C519.886 72.0891 518.686 72.7891 516.861 72.7891ZM516.936 71.0891C519.811 71.0891 521.036 68.9391 521.036 66.0141C521.036 63.0141 519.586 60.9141 516.911 60.9141C514.461 60.9141 513.211 63.1141 513.211 66.0141C513.211 68.9391 514.461 71.0891 516.936 71.0891ZM59.0953 107.789C55.5453 107.789 53.5703 106.114 53.3703 103.214H55.4453C55.7203 105.464 57.2203 106.089 59.1453 106.089C61.2703 106.089 62.1453 105.164 62.1453 103.964C62.1453 102.514 61.1453 102.139 58.7703 101.639C56.2203 101.114 53.9453 100.589 53.9453 97.7641C53.9453 95.6141 55.5953 94.2141 58.5953 94.2141C61.7953 94.2141 63.3703 95.7391 63.6703 98.2641H61.5953C61.3953 96.5641 60.4703 95.8141 58.5453 95.8141C56.6953 95.8141 55.9453 96.6391 55.9453 97.6641C55.9453 99.0641 57.1953 99.3391 59.4203 99.7891C62.0203 100.314 64.1953 100.889 64.1953 103.864C64.1953 106.464 62.0703 107.789 59.0953 107.789ZM71.9029 107.764C67.9529 107.764 65.6529 104.714 65.6529 100.964C65.6529 97.2141 68.1029 94.1641 71.7779 94.1641C75.6529 94.1641 77.7279 97.1641 77.7279 101.439H67.7279C67.8779 104.064 69.3029 106.064 71.9029 106.064C73.7779 106.064 75.0279 105.164 75.4779 103.414H77.4529C76.8529 106.189 74.8279 107.764 71.9029 107.764ZM71.7779 95.7641C69.3779 95.7641 68.0779 97.5641 67.7779 99.9141H75.5529C75.4279 97.3391 74.1029 95.7641 71.7779 95.7641ZM81.733 94.4891V96.1891H81.783C82.708 94.9641 84.008 94.1891 85.883 94.1891C88.583 94.1891 90.233 95.6641 90.233 98.3391V107.414H88.208V98.5141C88.208 96.8391 87.108 95.8891 85.283 95.8891C83.233 95.8891 81.733 97.3391 81.733 99.4641V107.414H79.708V94.4891H81.733ZM92.916 107.414V94.4891H94.941V107.414H92.916ZM92.916 92.0391V89.5391H94.941V92.0391H92.916ZM103.226 107.764C99.3762 107.764 96.9762 104.714 96.9762 100.964C96.9762 97.2141 99.3762 94.1641 103.226 94.1641C107.101 94.1641 109.451 97.2141 109.451 100.964C109.451 104.714 107.101 107.764 103.226 107.764ZM103.226 106.064C105.976 106.064 107.376 103.814 107.376 100.964C107.376 98.1141 105.976 95.8391 103.226 95.8391C100.476 95.8391 99.0512 98.1141 99.0512 100.964C99.0512 103.814 100.476 106.064 103.226 106.064ZM113.496 94.4891V96.6391H113.546C114.321 95.3891 115.671 94.3391 117.396 94.3391C117.771 94.3391 117.971 94.3891 118.221 94.4891V96.4391H118.146C117.846 96.3391 117.646 96.3141 117.246 96.3141C115.246 96.3141 113.496 97.8141 113.496 100.239V107.414H111.471V94.4891H113.496ZM129.545 107.764C125.695 107.764 123.295 104.714 123.295 100.964C123.295 97.2141 125.695 94.1641 129.545 94.1641C132.595 94.1641 134.62 95.9141 135.07 98.6641H133.02C132.72 96.9141 131.495 95.8391 129.545 95.8391C126.795 95.8391 125.37 98.1141 125.37 100.964C125.37 103.814 126.795 106.064 129.545 106.064C131.645 106.064 132.895 104.864 133.07 102.864H135.07C134.795 105.964 132.77 107.764 129.545 107.764ZM142.508 107.764C138.658 107.764 136.258 104.714 136.258 100.964C136.258 97.2141 138.658 94.1641 142.508 94.1641C146.383 94.1641 148.733 97.2141 148.733 100.964C148.733 104.714 146.383 107.764 142.508 107.764ZM142.508 106.064C145.258 106.064 146.658 103.814 146.658 100.964C146.658 98.1141 145.258 95.8391 142.508 95.8391C139.758 95.8391 138.333 98.1141 138.333 100.964C138.333 103.814 139.758 106.064 142.508 106.064ZM150.828 107.414V89.5391H152.853V107.414H150.828ZM155.76 107.414V89.5391H157.785V107.414H155.76ZM170.766 107.539C169.441 107.539 168.741 106.939 168.541 105.614H168.516C167.741 106.614 166.416 107.664 164.216 107.664C161.766 107.664 159.841 106.514 159.841 104.064C159.841 101.014 162.241 100.389 165.466 99.8891C167.291 99.6141 168.566 99.4391 168.566 98.0391C168.566 96.5891 167.516 95.7641 165.666 95.7641C163.566 95.7641 162.516 96.6641 162.441 98.6141H160.491C160.566 96.1141 162.216 94.2391 165.641 94.2391C168.391 94.2391 170.416 95.2641 170.416 98.3391V104.489C170.416 105.539 170.666 106.114 171.791 105.864H171.866V107.339C171.616 107.439 171.291 107.539 170.766 107.539ZM164.666 106.114C167.366 106.114 168.591 104.139 168.591 102.639V100.439C167.916 100.864 166.741 101.189 165.641 101.389C163.616 101.764 161.991 102.114 161.991 104.014C161.991 105.739 163.341 106.114 164.666 106.114ZM179.51 107.789C177.76 107.789 176.485 107.164 175.435 105.714H175.385V107.414H173.36V89.5391H175.385V96.3391H175.435C176.41 95.0141 177.71 94.1891 179.585 94.1891C182.86 94.1891 185.085 96.6891 185.085 100.989C185.085 105.139 183.01 107.789 179.51 107.789ZM179.36 106.089C181.835 106.089 183.01 103.939 183.01 101.014C183.01 98.1141 181.835 95.9141 179.385 95.9141C176.56 95.9141 175.26 98.2141 175.26 101.014C175.26 103.914 176.61 106.089 179.36 106.089ZM192.63 107.764C188.78 107.764 186.38 104.714 186.38 100.964C186.38 97.2141 188.78 94.1641 192.63 94.1641C196.505 94.1641 198.855 97.2141 198.855 100.964C198.855 104.714 196.505 107.764 192.63 107.764ZM192.63 106.064C195.38 106.064 196.78 103.814 196.78 100.964C196.78 98.1141 195.38 95.8391 192.63 95.8391C189.88 95.8391 188.455 98.1141 188.455 100.964C188.455 103.814 189.88 106.064 192.63 106.064ZM202.9 94.4891V96.6391H202.95C203.725 95.3891 205.075 94.3391 206.8 94.3391C207.175 94.3391 207.375 94.3891 207.625 94.4891V96.4391H207.55C207.25 96.3391 207.05 96.3141 206.65 96.3141C204.65 96.3141 202.9 97.8141 202.9 100.239V107.414H200.875V94.4891H202.9ZM219.106 107.539C217.781 107.539 217.081 106.939 216.881 105.614H216.856C216.081 106.614 214.756 107.664 212.556 107.664C210.106 107.664 208.181 106.514 208.181 104.064C208.181 101.014 210.581 100.389 213.806 99.8891C215.631 99.6141 216.906 99.4391 216.906 98.0391C216.906 96.5891 215.856 95.7641 214.006 95.7641C211.906 95.7641 210.856 96.6641 210.781 98.6141H208.831C208.906 96.1141 210.556 94.2391 213.981 94.2391C216.731 94.2391 218.756 95.2641 218.756 98.3391V104.489C218.756 105.539 219.006 106.114 220.131 105.864H220.206V107.339C219.956 107.439 219.631 107.539 219.106 107.539ZM213.006 106.114C215.706 106.114 216.931 104.139 216.931 102.639V100.439C216.256 100.864 215.081 101.189 213.981 101.389C211.956 101.764 210.331 102.114 210.331 104.014C210.331 105.739 211.681 106.114 213.006 106.114ZM220.631 96.1391V94.4891H222.506V90.4141H224.531V94.4891H227.031V96.1391H224.531V104.539C224.531 105.439 225.006 105.739 225.831 105.739C226.231 105.739 226.681 105.639 226.906 105.564H226.981V107.314C226.506 107.414 225.956 107.489 225.356 107.489C223.706 107.489 222.506 106.814 222.506 104.989V96.1391H220.631ZM229.122 107.414V94.4891H231.147V107.414H229.122ZM229.122 92.0391V89.5391H231.147V92.0391H229.122ZM235.932 94.4891V96.1891H235.982C236.907 94.9641 238.207 94.1891 240.082 94.1891C242.782 94.1891 244.432 95.6641 244.432 98.3391V107.414H242.407V98.5141C242.407 96.8391 241.307 95.8891 239.482 95.8891C237.432 95.8891 235.932 97.3391 235.932 99.4641V107.414H233.907V94.4891H235.932ZM252.265 111.714C248.915 111.714 247.015 110.364 246.79 108.139H248.665C248.865 109.564 250.215 110.114 252.215 110.114C254.59 110.114 255.915 109.039 255.915 106.789V104.964H255.865C254.915 106.189 253.89 106.964 252.04 106.964C248.69 106.964 246.39 104.289 246.39 100.564C246.39 96.5391 248.915 94.1891 251.915 94.1891C253.79 94.1891 254.99 94.9141 255.865 96.1391H255.915V94.4891H257.94V106.714C257.94 110.114 255.69 111.714 252.265 111.714ZM252.14 105.264C255.115 105.264 256.065 103.189 256.065 100.464C256.065 97.6391 254.865 95.8891 252.115 95.8891C249.69 95.8891 248.465 97.7891 248.465 100.589C248.465 103.414 249.74 105.264 252.14 105.264ZM269.569 107.789C266.019 107.789 264.044 106.114 263.844 103.214H265.919C266.194 105.464 267.694 106.089 269.619 106.089C271.744 106.089 272.619 105.164 272.619 103.964C272.619 102.514 271.619 102.139 269.244 101.639C266.694 101.114 264.419 100.589 264.419 97.7641C264.419 95.6141 266.069 94.2141 269.069 94.2141C272.269 94.2141 273.844 95.7391 274.144 98.2641H272.069C271.869 96.5641 270.944 95.8141 269.019 95.8141C267.169 95.8141 266.419 96.6391 266.419 97.6641C266.419 99.0641 267.669 99.3391 269.894 99.7891C272.494 100.314 274.669 100.889 274.669 103.864C274.669 106.464 272.544 107.789 269.569 107.789ZM275.538 96.1391V94.4891H277.413V90.4141H279.438V94.4891H281.938V96.1391H279.438V104.539C279.438 105.439 279.913 105.739 280.738 105.739C281.138 105.739 281.588 105.639 281.813 105.564H281.888V107.314C281.413 107.414 280.863 107.489 280.263 107.489C278.613 107.489 277.413 106.814 277.413 104.989V96.1391H275.538ZM294.279 107.414H292.254V105.639H292.204C291.279 106.889 290.179 107.714 288.304 107.714C285.654 107.714 283.954 106.114 283.954 103.439V94.4891H285.979V103.389C285.979 105.064 287.054 106.039 288.879 106.039C290.929 106.039 292.254 104.489 292.254 102.439V94.4891H294.279V107.414ZM302.018 107.789C298.493 107.789 296.293 105.139 296.293 100.989C296.293 96.6891 298.768 94.1891 301.968 94.1891C303.793 94.1891 305.193 95.0891 306.018 96.3141H306.068V89.5391H308.093V107.414H306.068V105.839H306.018C305.043 107.089 303.843 107.789 302.018 107.789ZM302.093 106.089C304.968 106.089 306.193 103.939 306.193 101.014C306.193 98.0141 304.743 95.9141 302.068 95.9141C299.618 95.9141 298.368 98.1141 298.368 101.014C298.368 103.939 299.618 106.089 302.093 106.089ZM316.361 107.764C312.411 107.764 310.111 104.714 310.111 100.964C310.111 97.2141 312.561 94.1641 316.236 94.1641C320.111 94.1641 322.186 97.1641 322.186 101.439H312.186C312.336 104.064 313.761 106.064 316.361 106.064C318.236 106.064 319.486 105.164 319.936 103.414H321.911C321.311 106.189 319.286 107.764 316.361 107.764ZM316.236 95.7641C313.836 95.7641 312.536 97.5641 312.236 99.9141H320.011C319.886 97.3391 318.561 95.7641 316.236 95.7641ZM326.191 94.4891V96.1891H326.241C327.166 94.9641 328.466 94.1891 330.341 94.1891C333.041 94.1891 334.691 95.6641 334.691 98.3391V107.414H332.666V98.5141C332.666 96.8391 331.566 95.8891 329.741 95.8891C327.691 95.8891 326.191 97.3391 326.191 99.4641V107.414H324.166V94.4891H326.191ZM336.305 96.1391V94.4891H338.18V90.4141H340.205V94.4891H342.705V96.1391H340.205V104.539C340.205 105.439 340.68 105.739 341.505 105.739C341.905 105.739 342.355 105.639 342.58 105.564H342.655V107.314C342.18 107.414 341.63 107.489 341.03 107.489C339.38 107.489 338.18 106.814 338.18 104.989V96.1391H336.305ZM349.696 107.789C346.146 107.789 344.171 106.114 343.971 103.214H346.046C346.321 105.464 347.821 106.089 349.746 106.089C351.871 106.089 352.746 105.164 352.746 103.964C352.746 102.514 351.746 102.139 349.371 101.639C346.821 101.114 344.546 100.589 344.546 97.7641C344.546 95.6141 346.196 94.2141 349.196 94.2141C352.396 94.2141 353.971 95.7391 354.271 98.2641H352.196C351.996 96.5641 351.071 95.8141 349.146 95.8141C347.296 95.8141 346.546 96.6391 346.546 97.6641C346.546 99.0641 347.796 99.3391 350.021 99.7891C352.621 100.314 354.796 100.889 354.796 103.864C354.796 106.464 352.671 107.789 349.696 107.789ZM359.889 96.1391V94.4891H361.664V92.4141C361.664 90.1891 362.939 89.3891 365.089 89.3891C365.514 89.3891 365.839 89.4141 366.114 89.4391V91.1641C365.764 91.1391 365.664 91.1391 365.464 91.1391C364.164 91.1391 363.689 91.4641 363.689 92.5141V94.4891H366.089V96.1391H363.689V107.414H361.664V96.1391H359.889ZM370.088 94.4891V96.6391H370.138C370.913 95.3891 372.263 94.3391 373.988 94.3391C374.363 94.3391 374.563 94.3891 374.813 94.4891V96.4391H374.738C374.438 96.3391 374.238 96.3141 373.838 96.3141C371.838 96.3141 370.088 97.8141 370.088 100.239V107.414H368.063V94.4891H370.088ZM381.669 107.764C377.819 107.764 375.419 104.714 375.419 100.964C375.419 97.2141 377.819 94.1641 381.669 94.1641C385.544 94.1641 387.894 97.2141 387.894 100.964C387.894 104.714 385.544 107.764 381.669 107.764ZM381.669 106.064C384.419 106.064 385.819 103.814 385.819 100.964C385.819 98.1141 384.419 95.8391 381.669 95.8391C378.919 95.8391 377.494 98.1141 377.494 100.964C377.494 103.814 378.919 106.064 381.669 106.064ZM389.913 107.414V94.4891H391.938V96.3391H391.988C392.788 95.0891 394.163 94.1891 395.788 94.1891C397.363 94.1891 398.613 94.9891 399.163 96.4891H399.213C400.038 95.0141 401.588 94.1891 403.163 94.1891C405.463 94.1891 407.088 95.6641 407.088 98.3391V107.414H405.063V98.4391C405.063 96.8391 403.988 95.8891 402.688 95.8891C401.013 95.8891 399.513 97.3391 399.513 99.3641V107.414H397.488V98.4391C397.488 96.8391 396.588 95.8891 395.263 95.8891C393.688 95.8891 391.938 97.3391 391.938 99.3641V107.414H389.913ZM420.591 107.689C416.691 107.689 413.741 105.964 413.741 101.639V89.5391H415.991V101.414C415.991 104.464 417.716 105.764 420.666 105.764C423.491 105.764 425.191 104.464 425.191 101.414V89.5391H427.441V101.639C427.441 105.964 424.416 107.689 420.591 107.689ZM435.096 107.789C431.546 107.789 429.571 106.114 429.371 103.214H431.446C431.721 105.464 433.221 106.089 435.146 106.089C437.271 106.089 438.146 105.164 438.146 103.964C438.146 102.514 437.146 102.139 434.771 101.639C432.221 101.114 429.946 100.589 429.946 97.7641C429.946 95.6141 431.596 94.2141 434.596 94.2141C437.796 94.2141 439.371 95.7391 439.671 98.2641H437.596C437.396 96.5641 436.471 95.8141 434.546 95.8141C432.696 95.8141 431.946 96.6391 431.946 97.6641C431.946 99.0641 433.196 99.3391 435.421 99.7891C438.021 100.314 440.196 100.889 440.196 103.864C440.196 106.464 438.071 107.789 435.096 107.789ZM447.904 107.764C443.954 107.764 441.654 104.714 441.654 100.964C441.654 97.2141 444.104 94.1641 447.779 94.1641C451.654 94.1641 453.729 97.1641 453.729 101.439H443.729C443.879 104.064 445.304 106.064 447.904 106.064C449.779 106.064 451.029 105.164 451.479 103.414H453.454C452.854 106.189 450.829 107.764 447.904 107.764ZM447.779 95.7641C445.379 95.7641 444.079 97.5641 443.779 99.9141H451.554C451.429 97.3391 450.104 95.7641 447.779 95.7641ZM457.734 94.4891V96.6391H457.784C458.559 95.3891 459.909 94.3391 461.634 94.3391C462.009 94.3391 462.209 94.3891 462.459 94.4891V96.4391H462.384C462.084 96.3391 461.884 96.3141 461.484 96.3141C459.484 96.3141 457.734 97.8141 457.734 100.239V107.414H455.709V94.4891H457.734ZM54.4953 142.414V124.539H67.1203V126.514H56.7453V132.164H66.1703V134.064H56.7453V140.339H67.4203V142.414H54.4953ZM68.5221 142.414L73.3971 135.639L69.0971 129.489H71.4471L74.5221 134.189H74.5721L77.7721 129.489H79.9971L75.7471 135.414L80.7971 142.414H78.4221L74.5971 136.864H74.5471L70.7971 142.414H68.5221ZM82.3203 146.564V129.489H84.3453V131.314H84.3953C85.3703 129.989 86.6703 129.189 88.5453 129.189C91.8203 129.189 94.0953 131.689 94.0953 135.989C94.0953 140.139 91.9703 142.789 88.4703 142.789C86.7203 142.789 85.4703 142.264 84.3953 140.889H84.3453V146.564H82.3203ZM88.3203 141.089C90.7953 141.089 92.0203 138.939 92.0203 136.014C92.0203 133.114 90.7953 130.914 88.3453 130.914C85.5203 130.914 84.2203 133.214 84.2203 136.014C84.2203 138.814 85.3453 141.089 88.3203 141.089ZM101.639 142.764C97.6893 142.764 95.3893 139.714 95.3893 135.964C95.3893 132.214 97.8393 129.164 101.514 129.164C105.389 129.164 107.464 132.164 107.464 136.439H97.4643C97.6143 139.064 99.0393 141.064 101.639 141.064C103.514 141.064 104.764 140.164 105.214 138.414H107.189C106.589 141.189 104.564 142.764 101.639 142.764ZM101.514 130.764C99.1143 130.764 97.8143 132.564 97.5143 134.914H105.289C105.164 132.339 103.839 130.764 101.514 130.764ZM111.469 129.489V131.639H111.519C112.294 130.389 113.644 129.339 115.369 129.339C115.744 129.339 115.944 129.389 116.194 129.489V131.439H116.119C115.819 131.339 115.619 131.314 115.219 131.314C113.219 131.314 111.469 132.814 111.469 135.239V142.414H109.444V129.489H111.469ZM118.014 142.414V129.489H120.039V142.414H118.014ZM118.014 127.039V124.539H120.039V127.039H118.014ZM128.324 142.764C124.374 142.764 122.074 139.714 122.074 135.964C122.074 132.214 124.524 129.164 128.199 129.164C132.074 129.164 134.149 132.164 134.149 136.439H124.149C124.299 139.064 125.724 141.064 128.324 141.064C130.199 141.064 131.449 140.164 131.899 138.414H133.874C133.274 141.189 131.249 142.764 128.324 142.764ZM128.199 130.764C125.799 130.764 124.499 132.564 124.199 134.914H131.974C131.849 132.339 130.524 130.764 128.199 130.764ZM138.154 129.489V131.189H138.204C139.129 129.964 140.429 129.189 142.304 129.189C145.004 129.189 146.654 130.664 146.654 133.339V142.414H144.629V133.514C144.629 131.839 143.529 130.889 141.704 130.889C139.654 130.889 138.154 132.339 138.154 134.464V142.414H136.129V129.489H138.154ZM154.862 142.764C151.012 142.764 148.612 139.714 148.612 135.964C148.612 132.214 151.012 129.164 154.862 129.164C157.912 129.164 159.937 130.914 160.387 133.664H158.337C158.037 131.914 156.812 130.839 154.862 130.839C152.112 130.839 150.687 133.114 150.687 135.964C150.687 138.814 152.112 141.064 154.862 141.064C156.962 141.064 158.212 139.864 158.387 137.864H160.387C160.112 140.964 158.087 142.764 154.862 142.764ZM167.826 142.764C163.876 142.764 161.576 139.714 161.576 135.964C161.576 132.214 164.026 129.164 167.701 129.164C171.576 129.164 173.651 132.164 173.651 136.439H163.651C163.801 139.064 165.226 141.064 167.826 141.064C169.701 141.064 170.951 140.164 171.401 138.414H173.376C172.776 141.189 170.751 142.764 167.826 142.764ZM167.701 130.764C165.301 130.764 164.001 132.564 163.701 134.914H171.476C171.351 132.339 170.026 130.764 167.701 130.764ZM179.91 142.414V124.539H186.41C191.785 124.539 194.335 128.189 194.335 133.539C194.335 138.889 191.61 142.414 186.235 142.414H179.91ZM182.16 140.439H186.16C190.36 140.439 192.035 137.739 192.035 133.539C192.035 129.339 190.535 126.489 186.335 126.489H182.16V140.439ZM202.225 142.764C198.275 142.764 195.975 139.714 195.975 135.964C195.975 132.214 198.425 129.164 202.1 129.164C205.975 129.164 208.05 132.164 208.05 136.439H198.05C198.2 139.064 199.625 141.064 202.225 141.064C204.1 141.064 205.35 140.164 205.8 138.414H207.775C207.175 141.189 205.15 142.764 202.225 142.764ZM202.1 130.764C199.7 130.764 198.4 132.564 198.1 134.914H205.875C205.75 132.339 204.425 130.764 202.1 130.764ZM214.93 142.789C211.38 142.789 209.405 141.114 209.205 138.214H211.28C211.555 140.464 213.055 141.089 214.98 141.089C217.105 141.089 217.98 140.164 217.98 138.964C217.98 137.514 216.98 137.139 214.605 136.639C212.055 136.114 209.78 135.589 209.78 132.764C209.78 130.614 211.43 129.214 214.43 129.214C217.63 129.214 219.205 130.739 219.505 133.264H217.43C217.23 131.564 216.305 130.814 214.38 130.814C212.53 130.814 211.78 131.639 211.78 132.664C211.78 134.064 213.03 134.339 215.255 134.789C217.855 135.314 220.03 135.889 220.03 138.864C220.03 141.464 217.905 142.789 214.93 142.789ZM221.969 142.414V129.489H223.994V142.414H221.969ZM221.969 127.039V124.539H223.994V127.039H221.969ZM231.904 146.714C228.554 146.714 226.654 145.364 226.429 143.139H228.304C228.504 144.564 229.854 145.114 231.854 145.114C234.229 145.114 235.554 144.039 235.554 141.789V139.964H235.504C234.554 141.189 233.529 141.964 231.679 141.964C228.329 141.964 226.029 139.289 226.029 135.564C226.029 131.539 228.554 129.189 231.554 129.189C233.429 129.189 234.629 129.914 235.504 131.139H235.554V129.489H237.579V141.714C237.579 145.114 235.329 146.714 231.904 146.714ZM231.779 140.264C234.754 140.264 235.704 138.189 235.704 135.464C235.704 132.639 234.504 130.889 231.754 130.889C229.329 130.889 228.104 132.789 228.104 135.589C228.104 138.414 229.379 140.264 231.779 140.264ZM242.353 129.489V131.189H242.403C243.328 129.964 244.628 129.189 246.503 129.189C249.203 129.189 250.853 130.664 250.853 133.339V142.414H248.828V133.514C248.828 131.839 247.728 130.889 245.903 130.889C243.853 130.889 242.353 132.339 242.353 134.464V142.414H240.328V129.489H242.353ZM253.286 145.614V144.489C253.836 144.289 254.411 143.814 254.411 142.414H253.261V139.939H255.686V142.489C255.686 144.314 254.711 145.339 253.286 145.614ZM276.43 142.414L275.78 140.064H275.73C274.43 141.889 272.505 142.789 270.155 142.789C265.13 142.789 261.755 138.964 261.755 133.539C261.755 128.289 264.73 124.164 270.355 124.164C274.505 124.164 277.055 126.414 277.63 129.914H275.305C274.805 127.539 273.13 126.114 270.305 126.114C266.005 126.114 264.055 129.339 264.055 133.539C264.055 137.914 266.605 140.839 270.23 140.839C273.905 140.839 275.63 138.339 275.63 135.339V134.914H270.255V132.964H277.88V142.414H276.43ZM282.71 129.489V131.639H282.76C283.535 130.389 284.885 129.339 286.61 129.339C286.985 129.339 287.185 129.389 287.435 129.489V131.439H287.36C287.06 131.339 286.86 131.314 286.46 131.314C284.46 131.314 282.71 132.814 282.71 135.239V142.414H280.685V129.489H282.71ZM298.916 142.539C297.591 142.539 296.891 141.939 296.691 140.614H296.666C295.891 141.614 294.566 142.664 292.366 142.664C289.916 142.664 287.991 141.514 287.991 139.064C287.991 136.014 290.391 135.389 293.616 134.889C295.441 134.614 296.716 134.439 296.716 133.039C296.716 131.589 295.666 130.764 293.816 130.764C291.716 130.764 290.666 131.664 290.591 133.614H288.641C288.716 131.114 290.366 129.239 293.791 129.239C296.541 129.239 298.566 130.264 298.566 133.339V139.489C298.566 140.539 298.816 141.114 299.941 140.864H300.016V142.339C299.766 142.439 299.441 142.539 298.916 142.539ZM292.816 141.114C295.516 141.114 296.741 139.139 296.741 137.639V135.439C296.066 135.864 294.891 136.189 293.791 136.389C291.766 136.764 290.141 137.114 290.141 139.014C290.141 140.739 291.491 141.114 292.816 141.114ZM301.51 146.564V129.489H303.535V131.314H303.585C304.56 129.989 305.86 129.189 307.735 129.189C311.01 129.189 313.285 131.689 313.285 135.989C313.285 140.139 311.16 142.789 307.66 142.789C305.91 142.789 304.66 142.264 303.585 140.889H303.535V146.564H301.51ZM307.51 141.089C309.985 141.089 311.21 138.939 311.21 136.014C311.21 133.114 309.985 130.914 307.535 130.914C304.71 130.914 303.41 133.214 303.41 136.014C303.41 138.814 304.535 141.089 307.51 141.089ZM317.329 124.539V131.189H317.379C318.304 129.964 319.604 129.189 321.479 129.189C324.179 129.189 325.829 130.664 325.829 133.339V142.414H323.804V133.514C323.804 131.839 322.704 130.889 320.879 130.889C318.829 130.889 317.329 132.339 317.329 134.464V142.414H315.304V124.539H317.329ZM328.512 142.414V129.489H330.537V142.414H328.512ZM328.512 127.039V124.539H330.537V127.039H328.512ZM338.822 142.764C334.972 142.764 332.572 139.714 332.572 135.964C332.572 132.214 334.972 129.164 338.822 129.164C341.872 129.164 343.897 130.914 344.347 133.664H342.297C341.997 131.914 340.772 130.839 338.822 130.839C336.072 130.839 334.647 133.114 334.647 135.964C334.647 138.814 336.072 141.064 338.822 141.064C340.922 141.064 342.172 139.864 342.347 137.864H344.347C344.072 140.964 342.047 142.764 338.822 142.764ZM350.54 142.414V124.539H357.04C362.415 124.539 364.965 128.189 364.965 133.539C364.965 138.889 362.24 142.414 356.865 142.414H350.54ZM352.79 140.439H356.79C360.99 140.439 362.665 137.739 362.665 133.539C362.665 129.339 361.165 126.489 356.965 126.489H352.79V140.439ZM372.855 142.764C368.905 142.764 366.605 139.714 366.605 135.964C366.605 132.214 369.055 129.164 372.73 129.164C376.605 129.164 378.68 132.164 378.68 136.439H368.68C368.83 139.064 370.255 141.064 372.855 141.064C374.73 141.064 375.98 140.164 376.43 138.414H378.405C377.805 141.189 375.78 142.764 372.855 142.764ZM372.73 130.764C370.33 130.764 369.03 132.564 368.73 134.914H376.505C376.38 132.339 375.055 130.764 372.73 130.764ZM385.56 142.789C382.01 142.789 380.035 141.114 379.835 138.214H381.91C382.185 140.464 383.685 141.089 385.61 141.089C387.735 141.089 388.61 140.164 388.61 138.964C388.61 137.514 387.61 137.139 385.235 136.639C382.685 136.114 380.41 135.589 380.41 132.764C380.41 130.614 382.06 129.214 385.06 129.214C388.26 129.214 389.835 130.739 390.135 133.264H388.06C387.86 131.564 386.935 130.814 385.01 130.814C383.16 130.814 382.41 131.639 382.41 132.664C382.41 134.064 383.66 134.339 385.885 134.789C388.485 135.314 390.66 135.889 390.66 138.864C390.66 141.464 388.535 142.789 385.56 142.789ZM392.599 142.414V129.489H394.624V142.414H392.599ZM392.599 127.039V124.539H394.624V127.039H392.599ZM402.534 146.714C399.184 146.714 397.284 145.364 397.059 143.139H398.934C399.134 144.564 400.484 145.114 402.484 145.114C404.859 145.114 406.184 144.039 406.184 141.789V139.964H406.134C405.184 141.189 404.159 141.964 402.309 141.964C398.959 141.964 396.659 139.289 396.659 135.564C396.659 131.539 399.184 129.189 402.184 129.189C404.059 129.189 405.259 129.914 406.134 131.139H406.184V129.489H408.209V141.714C408.209 145.114 405.959 146.714 402.534 146.714ZM402.409 140.264C405.384 140.264 406.334 138.189 406.334 135.464C406.334 132.639 405.134 130.889 402.384 130.889C399.959 130.889 398.734 132.789 398.734 135.589C398.734 138.414 400.009 140.264 402.409 140.264ZM412.983 129.489V131.189H413.033C413.958 129.964 415.258 129.189 417.133 129.189C419.833 129.189 421.483 130.664 421.483 133.339V142.414H419.458V133.514C419.458 131.839 418.358 130.889 416.533 130.889C414.483 130.889 412.983 132.339 412.983 134.464V142.414H410.958V129.489H412.983ZM423.916 145.614V144.489C424.466 144.289 425.041 143.814 425.041 142.414H423.891V139.939H426.316V142.489C426.316 144.314 425.341 145.339 423.916 145.614ZM447.06 142.414L446.41 140.064H446.36C445.06 141.889 443.135 142.789 440.785 142.789C435.76 142.789 432.385 138.964 432.385 133.539C432.385 128.289 435.36 124.164 440.985 124.164C445.135 124.164 447.685 126.414 448.26 129.914H445.935C445.435 127.539 443.76 126.114 440.935 126.114C436.635 126.114 434.685 129.339 434.685 133.539C434.685 137.914 437.235 140.839 440.86 140.839C444.535 140.839 446.26 138.339 446.26 135.339V134.914H440.885V132.964H448.51V142.414H447.06ZM461.464 142.539C460.139 142.539 459.439 141.939 459.239 140.614H459.214C458.439 141.614 457.114 142.664 454.914 142.664C452.464 142.664 450.539 141.514 450.539 139.064C450.539 136.014 452.939 135.389 456.164 134.889C457.989 134.614 459.264 134.439 459.264 133.039C459.264 131.589 458.214 130.764 456.364 130.764C454.264 130.764 453.214 131.664 453.139 133.614H451.189C451.264 131.114 452.914 129.239 456.339 129.239C459.089 129.239 461.114 130.264 461.114 133.339V139.489C461.114 140.539 461.364 141.114 462.489 140.864H462.564V142.339C462.314 142.439 461.989 142.539 461.464 142.539ZM455.364 141.114C458.064 141.114 459.289 139.139 459.289 137.639V135.439C458.614 135.864 457.439 136.189 456.339 136.389C454.314 136.764 452.689 137.114 452.689 139.014C452.689 140.739 454.039 141.114 455.364 141.114ZM464.059 142.414V129.489H466.084V131.339H466.134C466.934 130.089 468.309 129.189 469.934 129.189C471.509 129.189 472.759 129.989 473.309 131.489H473.359C474.184 130.014 475.734 129.189 477.309 129.189C479.609 129.189 481.234 130.664 481.234 133.339V142.414H479.209V133.439C479.209 131.839 478.134 130.889 476.834 130.889C475.159 130.889 473.659 132.339 473.659 134.364V142.414H471.634V133.439C471.634 131.839 470.734 130.889 469.409 130.889C467.834 130.889 466.084 132.339 466.084 134.364V142.414H464.059ZM489.432 142.764C485.482 142.764 483.182 139.714 483.182 135.964C483.182 132.214 485.632 129.164 489.307 129.164C493.182 129.164 495.257 132.164 495.257 136.439H485.257C485.407 139.064 486.832 141.064 489.432 141.064C491.307 141.064 492.557 140.164 493.007 138.414H494.982C494.382 141.189 492.357 142.764 489.432 142.764ZM489.307 130.764C486.907 130.764 485.607 132.564 485.307 134.914H493.082C492.957 132.339 491.632 130.764 489.307 130.764ZM500.092 142.414L506.667 124.539H509.192L515.792 142.414H513.342L511.442 136.964H504.317L502.392 142.414H500.092ZM507.092 129.139L504.967 135.139H510.817L508.767 129.139C508.417 128.139 507.967 126.614 507.967 126.614H507.917C507.917 126.614 507.442 128.114 507.092 129.139ZM519.453 129.489V131.639H519.503C520.278 130.389 521.628 129.339 523.353 129.339C523.728 129.339 523.928 129.389 524.178 129.489V131.439H524.103C523.803 131.339 523.603 131.314 523.203 131.314C521.203 131.314 519.453 132.814 519.453 135.239V142.414H517.428V129.489H519.453ZM525.172 131.139V129.489H527.047V125.414H529.072V129.489H531.572V131.139H529.072V139.539C529.072 140.439 529.547 140.739 530.372 140.739C530.772 140.739 531.222 140.639 531.447 140.564H531.522V142.314C531.047 142.414 530.497 142.489 529.897 142.489C528.247 142.489 527.047 141.814 527.047 139.989V131.139H525.172ZM533.657 145.614V144.489C534.207 144.289 534.782 143.814 534.782 142.414H533.632V139.939H536.057V142.489C536.057 144.314 535.082 145.339 533.657 145.614ZM64.3453 177.539C63.0203 177.539 62.3203 176.939 62.1203 175.614H62.0953C61.3203 176.614 59.9953 177.664 57.7953 177.664C55.3453 177.664 53.4203 176.514 53.4203 174.064C53.4203 171.014 55.8203 170.389 59.0453 169.889C60.8703 169.614 62.1453 169.439 62.1453 168.039C62.1453 166.589 61.0953 165.764 59.2453 165.764C57.1453 165.764 56.0953 166.664 56.0203 168.614H54.0703C54.1453 166.114 55.7953 164.239 59.2203 164.239C61.9703 164.239 63.9953 165.264 63.9953 168.339V174.489C63.9953 175.539 64.2453 176.114 65.3703 175.864H65.4453V177.339C65.1953 177.439 64.8703 177.539 64.3453 177.539ZM58.2453 176.114C60.9453 176.114 62.1703 174.139 62.1703 172.639V170.439C61.4953 170.864 60.3203 171.189 59.2203 171.389C57.1953 171.764 55.5703 172.114 55.5703 174.014C55.5703 175.739 56.9203 176.114 58.2453 176.114ZM68.9645 164.489V166.189H69.0145C69.9395 164.964 71.2395 164.189 73.1145 164.189C75.8145 164.189 77.4645 165.664 77.4645 168.339V177.414H75.4395V168.514C75.4395 166.839 74.3395 165.889 72.5145 165.889C70.4645 165.889 68.9645 167.339 68.9645 169.464V177.414H66.9395V164.489H68.9645ZM85.1475 177.789C81.6225 177.789 79.4225 175.139 79.4225 170.989C79.4225 166.689 81.8975 164.189 85.0975 164.189C86.9225 164.189 88.3225 165.089 89.1475 166.314H89.1975V159.539H91.2225V177.414H89.1975V175.839H89.1475C88.1725 177.089 86.9725 177.789 85.1475 177.789ZM85.2225 176.089C88.0975 176.089 89.3225 173.939 89.3225 171.014C89.3225 168.014 87.8725 165.914 85.1975 165.914C82.7475 165.914 81.4975 168.114 81.4975 171.014C81.4975 173.939 82.7475 176.089 85.2225 176.089ZM105.945 177.764C100.87 177.764 97.5703 173.889 97.5703 168.464C97.5703 163.214 100.72 159.139 106.045 159.139C110.22 159.139 112.745 161.539 113.22 164.839H111.02C110.595 162.614 108.82 161.089 105.995 161.089C102.07 161.089 99.8703 164.264 99.8703 168.464C99.8703 172.839 102.295 175.789 106.02 175.789C109.395 175.789 110.995 173.489 111.22 170.864H113.445C113.42 172.639 112.57 174.639 111.295 175.889C110.045 177.114 108.22 177.764 105.945 177.764ZM121.195 177.764C117.345 177.764 114.945 174.714 114.945 170.964C114.945 167.214 117.345 164.164 121.195 164.164C125.07 164.164 127.42 167.214 127.42 170.964C127.42 174.714 125.07 177.764 121.195 177.764ZM121.195 176.064C123.945 176.064 125.345 173.814 125.345 170.964C125.345 168.114 123.945 165.839 121.195 165.839C118.445 165.839 117.02 168.114 117.02 170.964C117.02 173.814 118.445 176.064 121.195 176.064ZM129.439 177.414V164.489H131.464V166.339H131.514C132.314 165.089 133.689 164.189 135.314 164.189C136.889 164.189 138.139 164.989 138.689 166.489H138.739C139.564 165.014 141.114 164.189 142.689 164.189C144.989 164.189 146.614 165.664 146.614 168.339V177.414H144.589V168.439C144.589 166.839 143.514 165.889 142.214 165.889C140.539 165.889 139.039 167.339 139.039 169.364V177.414H137.014V168.439C137.014 166.839 136.114 165.889 134.789 165.889C133.214 165.889 131.464 167.339 131.464 169.364V177.414H129.439ZM149.288 181.564V164.489H151.313V166.314H151.363C152.338 164.989 153.638 164.189 155.513 164.189C158.788 164.189 161.063 166.689 161.063 170.989C161.063 175.139 158.938 177.789 155.438 177.789C153.688 177.789 152.438 177.264 151.363 175.889H151.313V181.564H149.288ZM155.288 176.089C157.763 176.089 158.988 173.939 158.988 171.014C158.988 168.114 157.763 165.914 155.313 165.914C152.488 165.914 151.188 168.214 151.188 171.014C151.188 173.814 152.313 176.089 155.288 176.089ZM173.332 177.414H171.307V175.639H171.257C170.332 176.889 169.232 177.714 167.357 177.714C164.707 177.714 163.007 176.114 163.007 173.439V164.489H165.032V173.389C165.032 175.064 166.107 176.039 167.932 176.039C169.982 176.039 171.307 174.489 171.307 172.439V164.489H173.332V177.414ZM175.245 166.139V164.489H177.12V160.414H179.145V164.489H181.645V166.139H179.145V174.539C179.145 175.439 179.62 175.739 180.445 175.739C180.845 175.739 181.295 175.639 181.52 175.564H181.595V177.314C181.12 177.414 180.57 177.489 179.97 177.489C178.32 177.489 177.12 176.814 177.12 174.989V166.139H175.245ZM189.139 177.764C185.189 177.764 182.889 174.714 182.889 170.964C182.889 167.214 185.339 164.164 189.014 164.164C192.889 164.164 194.964 167.164 194.964 171.439H184.964C185.114 174.064 186.539 176.064 189.139 176.064C191.014 176.064 192.264 175.164 192.714 173.414H194.689C194.089 176.189 192.064 177.764 189.139 177.764ZM189.014 165.764C186.614 165.764 185.314 167.564 185.014 169.914H192.789C192.664 167.339 191.339 165.764 189.014 165.764ZM198.969 164.489V166.639H199.019C199.794 165.389 201.144 164.339 202.869 164.339C203.244 164.339 203.444 164.389 203.694 164.489V166.439H203.619C203.319 166.339 203.119 166.314 202.719 166.314C200.719 166.314 198.969 167.814 198.969 170.239V177.414H196.944V164.489H198.969ZM209.793 177.414V159.539H217.243C219.118 159.539 220.568 160.164 221.493 161.264C222.243 162.139 222.693 163.314 222.693 164.664C222.693 167.939 220.818 169.914 216.918 169.914H212.043V177.414H209.793ZM212.043 161.489V168.089H216.743C219.268 168.089 220.468 166.814 220.468 164.764C220.468 162.614 219.143 161.489 216.868 161.489H212.043ZM226.582 164.489V166.639H226.632C227.407 165.389 228.757 164.339 230.482 164.339C230.857 164.339 231.057 164.389 231.307 164.489V166.439H231.232C230.932 166.339 230.732 166.314 230.332 166.314C228.332 166.314 226.582 167.814 226.582 170.239V177.414H224.557V164.489H226.582ZM238.163 177.764C234.313 177.764 231.913 174.714 231.913 170.964C231.913 167.214 234.313 164.164 238.163 164.164C242.038 164.164 244.388 167.214 244.388 170.964C244.388 174.714 242.038 177.764 238.163 177.764ZM238.163 176.064C240.913 176.064 242.313 173.814 242.313 170.964C242.313 168.114 240.913 165.839 238.163 165.839C235.413 165.839 233.988 168.114 233.988 170.964C233.988 173.814 235.413 176.064 238.163 176.064ZM251.557 181.714C248.207 181.714 246.307 180.364 246.082 178.139H247.957C248.157 179.564 249.507 180.114 251.507 180.114C253.882 180.114 255.207 179.039 255.207 176.789V174.964H255.157C254.207 176.189 253.182 176.964 251.332 176.964C247.982 176.964 245.682 174.289 245.682 170.564C245.682 166.539 248.207 164.189 251.207 164.189C253.082 164.189 254.282 164.914 255.157 166.139H255.207V164.489H257.232V176.714C257.232 180.114 254.982 181.714 251.557 181.714ZM251.432 175.264C254.407 175.264 255.357 173.189 255.357 170.464C255.357 167.639 254.157 165.889 251.407 165.889C248.982 165.889 247.757 167.789 247.757 170.589C247.757 173.414 249.032 175.264 251.432 175.264ZM262.006 164.489V166.639H262.056C262.831 165.389 264.181 164.339 265.906 164.339C266.281 164.339 266.481 164.389 266.731 164.489V166.439H266.656C266.356 166.339 266.156 166.314 265.756 166.314C263.756 166.314 262.006 167.814 262.006 170.239V177.414H259.981V164.489H262.006ZM278.213 177.539C276.888 177.539 276.188 176.939 275.988 175.614H275.963C275.188 176.614 273.863 177.664 271.663 177.664C269.213 177.664 267.288 176.514 267.288 174.064C267.288 171.014 269.688 170.389 272.913 169.889C274.738 169.614 276.013 169.439 276.013 168.039C276.013 166.589 274.963 165.764 273.112 165.764C271.013 165.764 269.963 166.664 269.888 168.614H267.938C268.013 166.114 269.663 164.239 273.088 164.239C275.838 164.239 277.863 165.264 277.863 168.339V174.489C277.863 175.539 278.113 176.114 279.238 175.864H279.312V177.339C279.063 177.439 278.738 177.539 278.213 177.539ZM272.113 176.114C274.813 176.114 276.038 174.139 276.038 172.639V170.439C275.363 170.864 274.188 171.189 273.088 171.389C271.063 171.764 269.438 172.114 269.438 174.014C269.438 175.739 270.788 176.114 272.113 176.114ZM280.807 177.414V164.489H282.832V166.339H282.882C283.682 165.089 285.057 164.189 286.682 164.189C288.257 164.189 289.507 164.989 290.057 166.489H290.107C290.932 165.014 292.482 164.189 294.057 164.189C296.357 164.189 297.982 165.664 297.982 168.339V177.414H295.957V168.439C295.957 166.839 294.882 165.889 293.582 165.889C291.907 165.889 290.407 167.339 290.407 169.364V177.414H288.382V168.439C288.382 166.839 287.482 165.889 286.157 165.889C284.582 165.889 282.832 167.339 282.832 169.364V177.414H280.807ZM300.655 177.414V164.489H302.68V166.339H302.73C303.53 165.089 304.905 164.189 306.53 164.189C308.105 164.189 309.355 164.989 309.905 166.489H309.955C310.78 165.014 312.33 164.189 313.905 164.189C316.205 164.189 317.83 165.664 317.83 168.339V177.414H315.805V168.439C315.805 166.839 314.73 165.889 313.43 165.889C311.755 165.889 310.255 167.339 310.255 169.364V177.414H308.23V168.439C308.23 166.839 307.33 165.889 306.005 165.889C304.43 165.889 302.68 167.339 302.68 169.364V177.414H300.655ZM320.504 177.414V164.489H322.529V177.414H320.504ZM320.504 162.039V159.539H322.529V162.039H320.504ZM327.314 164.489V166.189H327.364C328.289 164.964 329.589 164.189 331.464 164.189C334.164 164.189 335.814 165.664 335.814 168.339V177.414H333.789V168.514C333.789 166.839 332.689 165.889 330.864 165.889C328.814 165.889 327.314 167.339 327.314 169.464V177.414H325.289V164.489H327.314ZM343.647 181.714C340.297 181.714 338.397 180.364 338.172 178.139H340.047C340.247 179.564 341.597 180.114 343.597 180.114C345.972 180.114 347.297 179.039 347.297 176.789V174.964H347.247C346.297 176.189 345.272 176.964 343.422 176.964C340.072 176.964 337.772 174.289 337.772 170.564C337.772 166.539 340.297 164.189 343.297 164.189C345.172 164.189 346.372 164.914 347.247 166.139H347.297V164.489H349.322V176.714C349.322 180.114 347.072 181.714 343.647 181.714ZM343.522 175.264C346.497 175.264 347.447 173.189 347.447 170.464C347.447 167.639 346.247 165.889 343.497 165.889C341.072 165.889 339.847 167.789 339.847 170.589C339.847 173.414 341.122 175.264 343.522 175.264ZM351.796 177.414V174.939H354.221V177.414H351.796Z" fill="black"/>
</svg>
