<svg width="230" height="67" viewBox="0 0 230 67" fill="none" xmlns="http://www.w3.org/2000/svg">
<path d="M277.648 0.273438L18.6514 0.273666L0.632812 65.916L260.115 66.3726L277.648 0.273438Z" fill="#FFDB3B"/>
<path d="M37.3984 26.4742L37.9734 23.4492H51.8734L51.2984 26.4742H46.1234L43.2484 41.3242H39.6734L42.5484 26.4742H37.3984ZM56.6475 23.4492L55.3475 30.2742H55.4225C56.4725 28.8492 57.4725 28.1492 59.2975 28.1492C61.8475 28.1492 63.3225 30.2242 62.7475 33.2242L61.1975 41.3242H57.8475L59.3475 33.6242C59.6725 31.9242 59.0225 30.9992 57.5975 30.9992C55.9725 30.9992 54.8975 32.4492 54.5475 34.3242L53.1975 41.3242H49.8475L53.2975 23.4492H56.6475ZM76.0758 35.8492H67.1508C67.1508 37.8742 67.8258 39.0992 69.7758 39.0992C70.9508 39.0992 71.9258 38.5992 72.4008 37.4992H75.7008C75.3008 38.6992 74.6258 39.6742 73.7258 40.3742C72.6508 41.2242 71.2758 41.6742 69.7258 41.6992C66.4008 41.6992 63.8258 39.8492 63.8258 35.7992C63.8258 32.0742 66.5508 28.1492 70.7008 28.1492C72.1008 28.1492 73.0758 28.4242 73.9258 28.9742C75.8508 30.2242 76.5508 32.7742 76.0758 35.8492ZM70.6258 30.7492C68.8508 30.7492 67.9008 32.0242 67.4508 33.5242H72.9758C73.0258 32.0242 72.3508 30.7492 70.6258 30.7492ZM83.0771 26.4742L83.6521 23.4492H97.5521L96.9771 26.4742H91.8021L88.9271 41.3242H85.3521L88.2271 26.4742H83.0771ZM99.1021 28.4992L98.7021 30.5492H98.7771C99.5271 29.2742 100.552 28.3492 102.152 28.3492C102.627 28.3492 102.927 28.3992 103.102 28.4492L102.527 31.3992H102.452C100.127 31.0992 98.5021 32.1742 97.9521 35.0742L96.7521 41.3242H93.4021L95.8771 28.4992H99.1021ZM102.094 41.3242L104.569 28.4992H107.919L105.444 41.3242H102.094ZM104.969 26.4992L105.544 23.4492H108.894L108.319 26.4992H104.969ZM111.04 41.3242L108.915 28.4992H112.315L113.115 34.9742C113.29 36.3742 113.34 37.2742 113.34 37.2742H113.39C113.39 37.2742 113.715 36.3742 114.315 35.1492L117.415 28.4992H120.765L114.24 41.3242H111.04ZM119.403 41.3242L121.878 28.4992H125.228L122.753 41.3242H119.403ZM122.278 26.4992L122.853 23.4492H126.203L125.628 26.4992H122.278ZM132.896 41.3242C132.746 41.0492 132.696 40.4992 132.721 39.9242H132.671C131.896 40.7492 130.946 41.6242 129.096 41.6242C127.121 41.6242 125.021 40.4992 125.021 37.8492C125.021 34.4492 127.721 33.8242 130.846 33.5742C133.246 33.3742 134.171 33.2742 134.171 31.9992C134.171 31.0742 133.446 30.5742 132.171 30.5742C130.771 30.5742 129.846 31.1242 129.546 32.3992H126.546C126.971 29.7742 128.996 28.1742 132.296 28.1742C135.471 28.1742 137.871 29.5492 137.171 33.2742L135.971 39.4242C135.796 40.2992 135.871 40.8992 136.071 41.1992V41.3242H132.896ZM128.246 37.5492C128.246 38.6992 129.046 39.2992 130.171 39.2992C131.921 39.2992 133.046 38.1992 133.296 37.0242L133.696 34.9992C133.046 35.2992 132.346 35.4492 131.246 35.6492C130.021 35.8742 128.246 35.7992 128.246 37.5492ZM144.259 26.4742L144.834 23.4492H158.734L158.159 26.4742H152.984L150.109 41.3242H146.534L149.409 26.4742H144.259ZM167.165 35.8492H158.24C158.24 37.8742 158.915 39.0992 160.865 39.0992C162.04 39.0992 163.015 38.5992 163.49 37.4992H166.79C166.39 38.6992 165.715 39.6742 164.815 40.3742C163.74 41.2242 162.365 41.6742 160.815 41.6992C157.49 41.6992 154.915 39.8492 154.915 35.7992C154.915 32.0742 157.64 28.1492 161.79 28.1492C163.19 28.1492 164.165 28.4242 165.015 28.9742C166.94 30.2242 167.64 32.7742 167.165 35.8492ZM161.715 30.7492C159.94 30.7492 158.99 32.0242 158.54 33.5242H164.065C164.115 32.0242 163.44 30.7492 161.715 30.7492ZM175.767 41.3242C175.617 41.0492 175.567 40.4992 175.592 39.9242H175.542C174.767 40.7492 173.817 41.6242 171.967 41.6242C169.992 41.6242 167.892 40.4992 167.892 37.8492C167.892 34.4492 170.592 33.8242 173.717 33.5742C176.117 33.3742 177.042 33.2742 177.042 31.9992C177.042 31.0742 176.317 30.5742 175.042 30.5742C173.642 30.5742 172.717 31.1242 172.417 32.3992H169.417C169.842 29.7742 171.867 28.1742 175.167 28.1742C178.342 28.1742 180.742 29.5492 180.042 33.2742L178.842 39.4242C178.667 40.2992 178.742 40.8992 178.942 41.1992V41.3242H175.767ZM171.117 37.5492C171.117 38.6992 171.917 39.2992 173.042 39.2992C174.792 39.2992 175.917 38.1992 176.167 37.0242L176.567 34.9992C175.917 35.2992 175.217 35.4492 174.117 35.6492C172.892 35.8742 171.117 35.7992 171.117 37.5492ZM180.609 41.3242L183.084 28.4992H186.309L185.959 30.3742H186.034C186.909 28.9992 188.059 28.1492 189.634 28.1492C191.359 28.1492 192.334 29.1742 192.709 30.5992H192.759C193.909 28.8492 195.309 28.1492 197.009 28.1492C199.309 28.1492 201.059 29.9492 200.384 33.3492L198.859 41.3242H195.509L197.034 33.4492C197.334 31.8492 196.684 30.9992 195.509 30.9992C194.084 30.9992 193.134 32.2742 192.759 34.2492L191.409 41.3242H188.059L189.584 33.4492C189.884 31.8492 189.234 30.9992 188.059 30.9992C186.634 30.9992 185.684 32.2742 185.309 34.2492L183.959 41.3242H180.609Z" fill="black"/>
</svg>
