<svg width="492" height="147" viewBox="0 0 492 147" fill="none" xmlns="http://www.w3.org/2000/svg">
<path d="M19.5484 37.0938L18.7484 30.9737H8.86844L5.98844 37.0938H0.188437L14.8284 8.49375H20.7484L25.4684 37.0938H19.5484ZM14.8284 18.4537L10.9484 26.5737H18.1884L17.1884 18.5337C16.9884 16.8938 16.8284 13.9737 16.8284 13.9737H16.7484C16.7484 13.9737 15.5484 16.9337 14.8284 18.4537ZM35.8938 37.6938C30.8938 37.6938 26.7338 34.8937 26.7338 28.6137C26.7338 22.2937 30.9338 16.0137 37.9338 16.0137C42.4938 16.0137 46.1738 18.1737 46.4538 23.5337H41.2138C41.0138 21.5737 39.9338 20.3337 37.7738 20.3337C33.8138 20.3337 32.0938 24.8537 32.0938 28.7737C32.0938 31.4137 33.2538 33.3737 36.2138 33.3737C38.2138 33.3737 39.7738 32.2937 40.4938 29.8537H45.6938C44.5738 34.7737 40.9338 37.6938 35.8938 37.6938ZM48.09 20.1737L48.77 16.5737H51.37L52.61 10.1737H57.85L56.61 16.5737H60.05L59.37 20.1737H55.93L53.85 30.8537C53.53 32.4537 54.05 33.0937 55.37 33.0937C55.97 33.0937 56.97 33.0137 56.97 33.0137L56.21 37.0137C56.21 37.0137 54.85 37.1338 53.77 37.1338C49.61 37.1338 47.65 35.6137 48.49 31.3737L50.69 20.1737H48.09ZM58.8606 37.0938L62.8206 16.5737H68.1806L64.2206 37.0938H58.8606ZM63.4606 13.3737L64.3806 8.49375H69.7406L68.8206 13.3737H63.4606ZM73.1744 37.0938L69.7744 16.5737H75.2144L76.4944 26.9337C76.7744 29.1737 76.8544 30.6137 76.8544 30.6137H76.9344C76.9344 30.6137 77.4544 29.1737 78.4144 27.2137L83.3744 16.5737H88.7344L78.2944 37.0938H73.1744ZM86.5559 37.0938L90.5159 16.5737H95.8759L91.9159 37.0938H86.5559ZM91.1559 13.3737L92.0759 8.49375H97.4359L96.5159 13.3737H91.1559ZM97.465 20.1737L98.145 16.5737H100.745L101.985 10.1737H107.225L105.985 16.5737H109.425L108.745 20.1737H105.305L103.225 30.8537C102.905 32.4537 103.425 33.0937 104.745 33.0937C105.345 33.0937 106.345 33.0137 106.345 33.0137L105.585 37.0137C105.585 37.0137 104.225 37.1338 103.145 37.1338C98.985 37.1338 97.025 35.6137 97.865 31.3737L100.065 20.1737H97.465ZM107.996 43.8138L108.836 39.5738H110.556C112.836 39.5738 114.116 38.3338 114.116 35.7738C114.116 34.7737 113.876 33.2537 113.436 31.1737L110.476 16.5737H116.076L117.476 25.8937C117.756 27.7737 118.076 30.5337 118.076 30.5337H118.156C118.156 30.5337 119.156 27.8137 120.036 25.8937L124.276 16.5737H129.716L119.116 38.0938C117.076 42.2138 115.316 43.8138 111.356 43.8138H107.996ZM135.16 37.0938L140.68 8.49375H152.16C154.52 8.49375 156.6 9.05375 158.08 10.2537C159.48 11.3737 160.32 13.0937 160.32 15.4137C160.32 18.7737 158.4 21.1337 155.04 22.0937V22.2137C157.96 23.0137 159.48 25.0137 159.44 28.1737C159.44 30.4937 158.56 32.4937 156.8 34.1737C154.84 36.0537 152.24 37.0938 148.36 37.0938H135.16ZM143.36 24.2937L141.8 32.3337H148.4C151.56 32.3337 153.64 30.9337 153.64 27.9337C153.64 25.4937 152 24.2937 149.6 24.2937H143.36ZM144.2 20.0537H150.12C152.48 20.0537 154.76 19.2937 154.76 16.1737C154.76 14.3737 153.76 13.1737 151.4 13.1737H145.52L144.2 20.0537ZM171.101 37.6938C165.741 37.6938 161.461 34.4137 161.461 28.1337C161.461 21.6537 166.021 16.0137 173.021 16.0137C178.261 16.0137 182.501 19.2937 182.501 25.3737C182.501 31.9337 178.101 37.6938 171.101 37.6938ZM166.821 28.4537C166.821 31.2537 168.061 33.6537 171.221 33.6537C175.381 33.6537 177.141 29.1337 177.141 25.2137C177.141 22.5337 175.901 20.0537 172.741 20.0537C168.621 20.0537 166.821 24.4937 166.821 28.4537ZM193.523 37.6938C188.163 37.6938 183.883 34.4137 183.883 28.1337C183.883 21.6537 188.443 16.0137 195.443 16.0137C200.683 16.0137 204.923 19.2937 204.923 25.3737C204.923 31.9337 200.523 37.6938 193.523 37.6938ZM189.243 28.4537C189.243 31.2537 190.483 33.6537 193.643 33.6537C197.803 33.6537 199.563 29.1337 199.563 25.2137C199.563 22.5337 198.323 20.0537 195.163 20.0537C191.043 20.0537 189.243 24.4937 189.243 28.4537ZM218.865 37.0938L214.945 27.8137L211.905 30.5337L210.665 37.0938H205.345L210.865 8.49375H216.185L213.065 24.5337L221.105 16.5737H227.665L219.105 24.6137L224.825 37.0938H218.865ZM242.796 37.6938C237.756 37.6938 233.676 35.1337 233.676 29.8137C233.676 25.2137 237.396 22.3737 241.276 20.9737C240.316 19.4137 239.716 17.7337 239.716 15.7737C239.716 11.5737 242.916 8.69375 247.396 8.69375C250.796 8.69375 254.636 10.5337 254.636 14.9737C254.636 18.7337 251.916 20.8137 248.396 22.3737L251.476 27.6137C252.236 26.2537 252.916 24.4137 253.436 22.4137H258.196C257.356 26.2537 255.796 29.4937 253.996 31.8937L257.156 37.0938H250.956L249.956 35.4537C248.236 36.6137 245.916 37.6938 242.796 37.6938ZM239.316 29.4537C239.316 31.7737 240.796 33.3337 243.276 33.3337C244.996 33.3337 246.436 32.7337 247.836 31.7337L243.396 24.3737C241.356 25.1737 239.316 26.8537 239.316 29.4537ZM247.276 12.7737C245.916 12.7737 244.836 13.9337 244.836 15.5337C244.836 16.8137 245.436 18.0137 246.316 19.2137C247.996 18.3737 249.516 17.2537 249.516 15.2137C249.516 14.0137 248.836 12.7737 247.276 12.7737ZM266.098 37.0938L271.618 8.49375H282.618C288.098 8.49375 291.738 11.5737 291.738 16.9337C291.738 23.0537 287.378 26.7337 280.978 26.7337H274.018L272.018 37.0938H266.098ZM276.578 13.4937L274.938 22.0537H280.698C283.378 22.0537 285.818 20.6137 285.818 17.2137C285.818 14.8937 284.458 13.4937 281.858 13.4937H276.578ZM303.223 37.0938C302.983 36.6537 302.903 35.7738 302.943 34.8537H302.863C301.623 36.1737 300.103 37.5738 297.143 37.5738C293.983 37.5738 290.623 35.7738 290.623 31.5337C290.623 26.0937 294.943 25.0937 299.943 24.6937C303.783 24.3737 305.263 24.2137 305.263 22.1737C305.263 20.6937 304.103 19.8937 302.063 19.8937C299.823 19.8937 298.343 20.7737 297.863 22.8137H293.063C293.743 18.6137 296.983 16.0537 302.263 16.0537C307.343 16.0537 311.183 18.2537 310.063 24.2137L308.143 34.0537C307.863 35.4537 307.983 36.4137 308.303 36.8937V37.0938H303.223ZM295.783 31.0537C295.783 32.8937 297.063 33.8537 298.863 33.8537C301.663 33.8537 303.463 32.0938 303.863 30.2137L304.503 26.9737C303.463 27.4537 302.343 27.6937 300.583 28.0137C298.623 28.3737 295.783 28.2537 295.783 31.0537ZM319.775 44.0938C315.695 44.0938 311.695 42.2938 311.175 37.6938H316.615C316.935 39.1738 317.975 40.0138 319.895 40.0138C322.455 40.0138 323.855 38.2938 324.335 35.6937L324.735 33.6137H324.615C323.255 34.9737 321.975 35.8537 319.575 35.8537C314.935 35.8537 311.855 32.4137 311.855 27.4937C311.855 21.4937 315.655 16.0137 321.855 16.0137C324.495 16.0137 326.615 17.1337 327.615 19.0537H327.695L328.175 16.5737H333.335L329.535 36.2137C329.055 38.6938 328.095 40.4538 326.615 41.8138C324.975 43.3338 322.975 44.0938 319.775 44.0938ZM321.135 31.5337C324.535 31.5337 326.575 28.2937 326.535 24.8937C326.495 22.2537 325.095 20.3337 322.455 20.3337C319.135 20.3337 317.175 23.4537 317.175 27.0938C317.175 29.6537 318.495 31.5337 321.135 31.5337ZM353.326 28.3337H339.046C339.046 31.5737 340.126 33.5337 343.246 33.5337C345.126 33.5337 346.686 32.7337 347.446 30.9737H352.726C352.086 32.8937 351.006 34.4538 349.566 35.5737C347.846 36.9337 345.646 37.6538 343.166 37.6938C337.846 37.6938 333.726 34.7337 333.726 28.2537C333.726 22.2937 338.086 16.0137 344.726 16.0137C346.966 16.0137 348.526 16.4537 349.886 17.3337C352.966 19.3337 354.086 23.4137 353.326 28.3337ZM344.606 20.1737C341.766 20.1737 340.246 22.2137 339.526 24.6137H348.366C348.446 22.2137 347.366 20.1737 344.606 20.1737ZM363.335 37.6938C358.375 37.6938 354.415 35.6137 354.055 30.4537H359.135C359.335 32.2137 360.535 33.7737 363.335 33.7737C365.295 33.7737 366.695 33.0937 366.695 31.5337C366.695 30.0537 364.935 29.4937 361.935 28.4937C358.815 27.4537 356.055 26.1337 356.055 22.4937C356.055 18.3337 359.375 16.0137 364.055 16.0137C368.655 16.0137 372.095 18.3337 372.455 22.8137H367.535C367.295 21.2137 366.175 19.8537 363.895 19.8537C362.455 19.8537 360.815 20.3337 360.815 21.8937C360.815 23.2937 362.655 23.6137 365.815 24.6937C368.775 25.6937 371.615 27.2137 371.615 30.8137C371.615 35.2137 368.535 37.6938 363.335 37.6938Z" fill="white"/>
<path d="M11.2484 85.4438C6.02344 85.4438 3.04844 81.5187 3.04844 76.1687C3.04844 70.8937 6.07344 66.8687 11.4984 66.8687C15.1734 66.8687 17.8984 68.7687 18.5484 72.3937H16.8234C16.2734 69.7187 14.2234 68.3187 11.4984 68.3187C6.89844 68.3187 4.79844 71.8437 4.79844 76.1687C4.79844 80.5687 7.02344 83.9687 11.2734 83.9687C15.3984 83.9687 17.1734 81.1187 17.1734 78.0187V77.3937H11.4234V75.9187H18.8234V85.0938H17.6484L17.2984 82.2437H17.2234C16.2984 83.6937 14.5484 85.4438 11.2484 85.4438ZM21.4904 85.0938V72.1687H23.0404V74.5687H23.0904C23.8904 73.0687 25.2404 72.0687 27.0404 72.0687C27.2404 72.0687 27.3654 72.0937 27.4654 72.1187V73.6437C26.5404 73.4937 25.5154 73.6937 24.7154 74.2687C23.7154 75.0187 23.0404 76.2187 23.0404 77.7438V85.0938H21.4904ZM32.0461 85.3938C29.6461 85.3938 27.8211 84.1937 27.8211 81.7938C27.8211 78.7187 30.2211 78.0937 33.1461 77.7438C35.6961 77.4437 36.6211 77.2937 36.6211 75.9937V75.7437C36.6211 73.9937 35.5211 73.1437 33.5211 73.1437C31.2211 73.1437 30.0211 74.0937 29.8961 76.0187H28.3711C28.5461 73.5187 30.1961 71.8938 33.5211 71.8938C36.3461 71.8938 38.0961 73.0687 38.0961 75.8937V82.9187C38.0961 83.6937 38.3961 84.0187 38.9461 84.0437C39.1211 84.0437 39.2961 83.9937 39.5211 83.9437H39.5961V85.0687C39.3711 85.1688 39.0461 85.2688 38.5461 85.2688C37.4211 85.2688 36.7211 84.6937 36.6461 83.4438V83.1687H36.5711C35.8461 84.1937 34.5211 85.3938 32.0461 85.3938ZM32.3211 84.1437C35.1461 84.1437 36.6461 82.1937 36.6461 80.4187V78.0937C35.8211 78.5437 34.5461 78.7687 33.2961 78.9437C31.1211 79.2437 29.4461 79.5687 29.4461 81.7938C29.4461 83.5937 30.7961 84.1437 32.3211 84.1437ZM46.8967 85.4438C44.9217 85.4438 43.6217 84.6687 42.6217 83.1437H42.5717V85.0938H41.0217V67.2187H42.5717V74.3937H42.6217C43.5217 72.8937 44.9467 71.8938 46.9967 71.8938C50.0967 71.8938 52.3217 74.3687 52.3217 78.6688C52.3217 82.6437 50.2967 85.4438 46.8967 85.4438ZM46.8217 84.1437C49.4717 84.1437 50.7467 81.7187 50.7467 78.6937C50.7467 75.4687 49.3717 73.1937 46.7967 73.1937C43.9467 73.1937 42.4467 75.6187 42.4467 78.6937C42.4467 81.9187 43.9467 84.1437 46.8217 84.1437ZM61.5383 85.3938C59.1383 85.3938 57.3133 84.1937 57.3133 81.7938C57.3133 78.7187 59.7133 78.0937 62.6383 77.7438C65.1883 77.4437 66.1133 77.2937 66.1133 75.9937V75.7437C66.1133 73.9937 65.0133 73.1437 63.0133 73.1437C60.7133 73.1437 59.5133 74.0937 59.3883 76.0187H57.8633C58.0383 73.5187 59.6883 71.8938 63.0133 71.8938C65.8383 71.8938 67.5883 73.0687 67.5883 75.8937V82.9187C67.5883 83.6937 67.8883 84.0187 68.4383 84.0437C68.6133 84.0437 68.7883 83.9937 69.0133 83.9437H69.0883V85.0687C68.8633 85.1688 68.5383 85.2688 68.0383 85.2688C66.9133 85.2688 66.2133 84.6937 66.1383 83.4438V83.1687H66.0633C65.3383 84.1937 64.0133 85.3938 61.5383 85.3938ZM61.8133 84.1437C64.6383 84.1437 66.1383 82.1937 66.1383 80.4187V78.0937C65.3133 78.5437 64.0383 78.7687 62.7883 78.9437C60.6133 79.2437 58.9383 79.5687 58.9383 81.7938C58.9383 83.5937 60.2883 84.1437 61.8133 84.1437ZM70.5139 85.0938V72.1687H72.0639V74.1437H72.1139C72.9889 72.8437 74.3889 71.8938 76.4389 71.8938C78.8389 71.8938 80.5639 73.3187 80.5639 75.9187V85.0938H79.0139V76.0687C79.0139 74.1187 77.8889 73.2187 76.0639 73.2187C73.8639 73.2187 72.0639 74.7687 72.0639 76.8937V85.0938H70.5139ZM90.3225 85.3938C87.9225 85.3938 86.0975 84.1937 86.0975 81.7938C86.0975 78.7187 88.4975 78.0937 91.4225 77.7438C93.9725 77.4437 94.8975 77.2937 94.8975 75.9937V75.7437C94.8975 73.9937 93.7975 73.1437 91.7975 73.1437C89.4975 73.1437 88.2975 74.0937 88.1725 76.0187H86.6475C86.8225 73.5187 88.4725 71.8938 91.7975 71.8938C94.6225 71.8938 96.3725 73.0687 96.3725 75.8937V82.9187C96.3725 83.6937 96.6725 84.0187 97.2225 84.0437C97.3975 84.0437 97.5725 83.9937 97.7975 83.9437H97.8725V85.0687C97.6475 85.1688 97.3225 85.2688 96.8225 85.2688C95.6975 85.2688 94.9975 84.6937 94.9225 83.4438V83.1687H94.8475C94.1225 84.1937 92.7975 85.3938 90.3225 85.3938ZM90.5975 84.1437C93.4225 84.1437 94.9225 82.1937 94.9225 80.4187V78.0937C94.0975 78.5437 92.8225 78.7687 91.5725 78.9437C89.3975 79.2437 87.7225 79.5687 87.7225 81.7938C87.7225 83.5937 89.0725 84.1437 90.5975 84.1437ZM104.376 85.4188C100.601 85.4188 98.501 82.4937 98.501 78.6437C98.501 74.7937 100.651 71.8687 104.401 71.8687C107.251 71.8687 109.176 73.4187 109.601 76.0687H108.051C107.676 74.1437 106.401 73.1687 104.401 73.1687C101.426 73.1687 100.101 75.6437 100.101 78.6437C100.101 81.6437 101.451 84.0937 104.376 84.0937C106.576 84.0937 107.951 82.7187 108.201 80.6437H109.676C109.376 83.5687 107.451 85.4188 104.376 85.4188ZM115.006 85.1938C113.531 85.1938 112.531 84.5187 112.531 82.8687V73.4437H110.581V72.1687H112.531V68.1937H114.081V72.1687H116.481V73.4437H114.081V82.6187C114.081 83.5437 114.506 83.8437 115.331 83.8437C115.681 83.8437 116.131 83.7437 116.356 83.6437H116.431V84.9687C116.006 85.1188 115.556 85.1938 115.006 85.1938ZM118.562 85.0938V72.1687H120.112V85.0938H118.562ZM118.562 69.4187V67.2187H120.112V69.4187H118.562ZM126.161 85.0938L121.586 72.1687H123.236L126.011 80.3687C126.436 81.6187 127.061 83.6437 127.061 83.6437H127.111C127.111 83.6437 127.761 81.6187 128.186 80.3687L131.086 72.1687H132.661L127.986 85.0938H126.161ZM134.187 85.0938V72.1687H135.737V85.0938H134.187ZM134.187 69.4187V67.2187H135.737V69.4187H134.187ZM141.911 85.1938C140.436 85.1938 139.436 84.5187 139.436 82.8687V73.4437H137.486V72.1687H139.436V68.1937H140.986V72.1687H143.386V73.4437H140.986V82.6187C140.986 83.5437 141.411 83.8437 142.236 83.8437C142.586 83.8437 143.036 83.7437 143.261 83.6437H143.336V84.9687C142.911 85.1188 142.461 85.1938 141.911 85.1938ZM146.766 89.3688C146.191 89.3688 145.841 89.2938 145.441 89.1688V87.7938H145.516C145.741 87.8688 146.091 87.9688 146.691 87.9688C147.666 87.9688 148.366 87.5438 148.841 86.2188L149.266 85.0687L144.291 72.1687H145.941L149.041 80.5187C149.491 81.7187 150.066 83.4687 150.066 83.4687H150.116C150.116 83.4687 150.666 81.7187 151.091 80.5187L154.066 72.1687H155.666L150.341 86.4438C149.466 88.7687 148.441 89.3688 146.766 89.3688ZM166.77 85.4438C164.795 85.4438 163.495 84.6687 162.495 83.1437H162.445V85.0938H160.895V67.2187H162.445V74.3937H162.495C163.395 72.8937 164.82 71.8938 166.87 71.8938C169.97 71.8938 172.195 74.3687 172.195 78.6688C172.195 82.6437 170.17 85.4438 166.77 85.4438ZM166.695 84.1437C169.345 84.1437 170.62 81.7187 170.62 78.6937C170.62 75.4687 169.245 73.1937 166.67 73.1937C163.82 73.1937 162.32 75.6187 162.32 78.6937C162.32 81.9187 163.82 84.1437 166.695 84.1437ZM179.477 84.1187C182.352 84.1187 183.852 81.6687 183.852 78.6437C183.852 75.6187 182.352 73.1687 179.477 73.1687C176.577 73.1687 175.077 75.6187 175.077 78.6437C175.077 81.6687 176.577 84.1187 179.477 84.1187ZM179.477 85.4188C175.752 85.4188 173.477 82.4937 173.477 78.6437C173.477 74.7937 175.752 71.8687 179.477 71.8687C183.202 71.8687 185.427 74.7937 185.427 78.6437C185.427 82.4937 183.202 85.4188 179.477 85.4188ZM192.709 84.1187C195.584 84.1187 197.084 81.6687 197.084 78.6437C197.084 75.6187 195.584 73.1687 192.709 73.1687C189.809 73.1687 188.309 75.6187 188.309 78.6437C188.309 81.6687 189.809 84.1187 192.709 84.1187ZM192.709 85.4188C188.984 85.4188 186.709 82.4937 186.709 78.6437C186.709 74.7937 188.984 71.8687 192.709 71.8687C196.434 71.8687 198.659 74.7937 198.659 78.6437C198.659 82.4937 196.434 85.4188 192.709 85.4188ZM200.616 85.0938V67.2187H202.166V78.3937L208.591 72.1687H210.566L205.616 76.8437L211.166 85.0938H209.366L204.541 77.8437L202.166 80.1187V85.0938H200.616ZM219.766 85.3938C217.366 85.3938 215.541 84.1937 215.541 81.7938C215.541 78.7187 217.941 78.0937 220.866 77.7438C223.416 77.4437 224.341 77.2937 224.341 75.9937V75.7437C224.341 73.9937 223.241 73.1437 221.241 73.1437C218.941 73.1437 217.741 74.0937 217.616 76.0187H216.091C216.266 73.5187 217.916 71.8938 221.241 71.8938C224.066 71.8938 225.816 73.0687 225.816 75.8937V82.9187C225.816 83.6937 226.116 84.0187 226.666 84.0437C226.841 84.0437 227.016 83.9937 227.241 83.9437H227.316V85.0687C227.091 85.1688 226.766 85.2688 226.266 85.2688C225.141 85.2688 224.441 84.6937 224.366 83.4438V83.1687H224.291C223.566 84.1937 222.241 85.3938 219.766 85.3938ZM220.041 84.1437C222.866 84.1437 224.366 82.1937 224.366 80.4187V78.0937C223.541 78.5437 222.266 78.7687 221.016 78.9437C218.841 79.2437 217.166 79.5687 217.166 81.7938C217.166 83.5937 218.516 84.1437 220.041 84.1437ZM231.925 85.1938C230.45 85.1938 229.45 84.5187 229.45 82.8687V73.4437H227.5V72.1687H229.45V68.1937H231V72.1687H233.4V73.4437H231V82.6187C231 83.5437 231.425 83.8437 232.25 83.8437C232.6 83.8437 233.05 83.7437 233.275 83.6437H233.35V84.9687C232.925 85.1188 232.475 85.1938 231.925 85.1938ZM242.741 85.1938C241.266 85.1938 240.266 84.5187 240.266 82.8687V73.4437H238.316V72.1687H240.266V68.1937H241.816V72.1687H244.216V73.4437H241.816V82.6187C241.816 83.5437 242.241 83.8437 243.066 83.8437C243.416 83.8437 243.866 83.7437 244.091 83.6437H244.166V84.9687C243.741 85.1188 243.291 85.1938 242.741 85.1938ZM246.321 85.0938V67.2187H247.871V74.1437H247.921C248.796 72.8437 250.196 71.8938 252.246 71.8938C254.646 71.8938 256.371 73.3187 256.371 75.9187V85.0938H254.821V76.0687C254.821 74.1187 253.696 73.2187 251.871 73.2187C249.671 73.2187 247.871 74.7687 247.871 76.8937V85.0938H246.321ZM264.218 85.4188C260.343 85.4188 258.193 82.5187 258.193 78.6437C258.193 74.7687 260.518 71.8687 264.093 71.8687C268.243 71.8687 269.668 75.2937 269.643 78.9187H259.793C259.868 81.8187 261.268 84.0937 264.218 84.0937C266.368 84.0937 267.493 82.9437 267.993 81.1937H269.493C268.943 83.7437 267.118 85.4188 264.218 85.4188ZM259.818 77.6937H268.018C267.943 75.1437 266.743 73.1437 264.093 73.1437C261.468 73.1437 260.093 75.1187 259.818 77.6937ZM275.323 85.0938V72.1687H276.873V74.5687H276.923C277.723 73.0687 279.073 72.0687 280.873 72.0687C281.073 72.0687 281.198 72.0937 281.298 72.1187V73.6437C280.373 73.4937 279.348 73.6937 278.548 74.2687C277.548 75.0187 276.873 76.2187 276.873 77.7438V85.0938H275.323ZM285.879 85.3938C283.479 85.3938 281.654 84.1937 281.654 81.7938C281.654 78.7187 284.054 78.0937 286.979 77.7438C289.529 77.4437 290.454 77.2937 290.454 75.9937V75.7437C290.454 73.9937 289.354 73.1437 287.354 73.1437C285.054 73.1437 283.854 74.0937 283.729 76.0187H282.204C282.379 73.5187 284.029 71.8938 287.354 71.8938C290.179 71.8938 291.929 73.0687 291.929 75.8937V82.9187C291.929 83.6937 292.229 84.0187 292.779 84.0437C292.954 84.0437 293.129 83.9937 293.354 83.9437H293.429V85.0687C293.204 85.1688 292.879 85.2688 292.379 85.2688C291.254 85.2688 290.554 84.6937 290.479 83.4438V83.1687H290.404C289.679 84.1937 288.354 85.3938 285.879 85.3938ZM286.154 84.1437C288.979 84.1437 290.479 82.1937 290.479 80.4187V78.0937C289.654 78.5437 288.379 78.7687 287.129 78.9437C284.954 79.2437 283.279 79.5687 283.279 81.7938C283.279 83.5937 284.629 84.1437 286.154 84.1437ZM299.933 85.4188C296.158 85.4188 294.058 82.4937 294.058 78.6437C294.058 74.7937 296.208 71.8687 299.958 71.8687C302.808 71.8687 304.733 73.4187 305.158 76.0687H303.608C303.233 74.1437 301.958 73.1687 299.958 73.1687C296.983 73.1687 295.658 75.6437 295.658 78.6437C295.658 81.6437 297.008 84.0937 299.933 84.0937C302.133 84.0937 303.508 82.7187 303.758 80.6437H305.233C304.933 83.5687 303.008 85.4188 299.933 85.4188ZM312.363 85.4188C308.488 85.4188 306.338 82.5187 306.338 78.6437C306.338 74.7687 308.663 71.8687 312.238 71.8687C316.388 71.8687 317.813 75.2937 317.788 78.9187H307.938C308.013 81.8187 309.413 84.0937 312.363 84.0937C314.513 84.0937 315.638 82.9437 316.138 81.1937H317.638C317.088 83.7437 315.263 85.4188 312.363 85.4188ZM307.963 77.6937H316.163C316.088 75.1437 314.888 73.1437 312.238 73.1437C309.613 73.1437 308.238 75.1187 307.963 77.6937ZM328.793 84.1187C331.668 84.1187 333.168 81.6687 333.168 78.6437C333.168 75.6187 331.668 73.1687 328.793 73.1687C325.893 73.1687 324.393 75.6187 324.393 78.6437C324.393 81.6687 325.893 84.1187 328.793 84.1187ZM328.793 85.4188C325.068 85.4188 322.793 82.4937 322.793 78.6437C322.793 74.7937 325.068 71.8687 328.793 71.8687C332.518 71.8687 334.743 74.7937 334.743 78.6437C334.743 82.4937 332.518 85.4188 328.793 85.4188ZM336.7 85.0938V72.1687H338.25V74.5687H338.3C339.1 73.0687 340.45 72.0687 342.25 72.0687C342.45 72.0687 342.575 72.0937 342.675 72.1187V73.6437C341.75 73.4937 340.725 73.6937 339.925 74.2687C338.925 75.0187 338.25 76.2187 338.25 77.7438V85.0938H336.7ZM353.051 85.4438C349.576 85.4438 347.476 82.6437 347.476 78.6688C347.476 74.3687 349.926 71.8938 353.001 71.8938C354.976 71.8938 356.426 72.8187 357.251 74.3187H357.301V67.2187H358.851V85.0938H357.301V83.1687H357.251C356.301 84.6437 355.001 85.4438 353.051 85.4438ZM353.101 84.1437C355.926 84.1437 357.426 81.9187 357.426 78.6937C357.426 75.5187 355.901 73.1937 353.101 73.1937C350.551 73.1937 349.076 75.4687 349.076 78.6937C349.076 81.7187 350.376 84.1437 353.101 84.1437ZM366.781 84.1187C369.656 84.1187 371.156 81.6687 371.156 78.6437C371.156 75.6187 369.656 73.1687 366.781 73.1687C363.881 73.1687 362.381 75.6187 362.381 78.6437C362.381 81.6687 363.881 84.1187 366.781 84.1187ZM366.781 85.4188C363.056 85.4188 360.781 82.4937 360.781 78.6437C360.781 74.7937 363.056 71.8687 366.781 71.8687C370.506 71.8687 372.731 74.7937 372.731 78.6437C372.731 82.4937 370.506 85.4188 366.781 85.4188ZM377.122 85.0938L373.272 72.1687H374.897L377.147 80.1687C377.497 81.4437 377.972 83.5437 377.972 83.5437H378.022C378.022 83.5437 378.522 81.4687 378.847 80.2937L381.047 72.1687H382.722L384.847 80.2937C385.147 81.4687 385.622 83.5437 385.622 83.5437H385.672C385.672 83.5437 386.197 81.4188 386.572 80.1687L388.972 72.1687H390.547L386.472 85.0938H384.772L382.547 76.8437C382.222 75.6187 381.872 73.9187 381.872 73.9187H381.822C381.822 73.9187 381.472 75.6187 381.147 76.8437L378.872 85.0938H377.122ZM392.096 85.0938V72.1687H393.646V74.1437H393.696C394.571 72.8437 395.971 71.8938 398.021 71.8938C400.421 71.8938 402.146 73.3187 402.146 75.9187V85.0938H400.596V76.0687C400.596 74.1187 399.471 73.2187 397.646 73.2187C395.446 73.2187 393.646 74.7687 393.646 76.8937V85.0938H392.096ZM404.72 85.0938V67.2187H406.27V85.0938H404.72ZM414.267 84.1187C417.142 84.1187 418.642 81.6687 418.642 78.6437C418.642 75.6187 417.142 73.1687 414.267 73.1687C411.367 73.1687 409.867 75.6187 409.867 78.6437C409.867 81.6687 411.367 84.1187 414.267 84.1187ZM414.267 85.4188C410.542 85.4188 408.267 82.4937 408.267 78.6437C408.267 74.7937 410.542 71.8687 414.267 71.8687C417.992 71.8687 420.217 74.7937 420.217 78.6437C420.217 82.4937 417.992 85.4188 414.267 85.4188ZM425.552 85.3938C423.152 85.3938 421.327 84.1937 421.327 81.7938C421.327 78.7187 423.727 78.0937 426.652 77.7438C429.202 77.4437 430.127 77.2937 430.127 75.9937V75.7437C430.127 73.9937 429.027 73.1437 427.027 73.1437C424.727 73.1437 423.527 74.0937 423.402 76.0187H421.877C422.052 73.5187 423.702 71.8938 427.027 71.8938C429.852 71.8938 431.602 73.0687 431.602 75.8937V82.9187C431.602 83.6937 431.902 84.0187 432.452 84.0437C432.627 84.0437 432.802 83.9937 433.027 83.9437H433.102V85.0687C432.877 85.1688 432.552 85.2688 432.052 85.2688C430.927 85.2688 430.227 84.6937 430.152 83.4438V83.1687H430.077C429.352 84.1937 428.027 85.3938 425.552 85.3938ZM425.827 84.1437C428.652 84.1437 430.152 82.1937 430.152 80.4187V78.0937C429.327 78.5437 428.052 78.7687 426.802 78.9437C424.627 79.2437 422.952 79.5687 422.952 81.7938C422.952 83.5937 424.302 84.1437 425.827 84.1437ZM439.305 85.4438C435.83 85.4438 433.73 82.6437 433.73 78.6688C433.73 74.3687 436.18 71.8938 439.255 71.8938C441.23 71.8938 442.68 72.8187 443.505 74.3187H443.555V67.2187H445.105V85.0938H443.555V83.1687H443.505C442.555 84.6437 441.255 85.4438 439.305 85.4438ZM439.355 84.1437C442.18 84.1437 443.68 81.9187 443.68 78.6937C443.68 75.5187 442.155 73.1937 439.355 73.1937C436.805 73.1937 435.33 75.4687 435.33 78.6937C435.33 81.7187 436.63 84.1437 439.355 84.1437ZM4.42344 113.094V101.444H2.54844V100.169H4.42344V97.8687C4.42344 95.9437 5.47344 95.0937 7.44844 95.0937C7.62344 95.0937 8.22344 95.1187 8.32344 95.1187V96.4437H7.64844C6.34844 96.4437 5.94844 96.9437 5.94844 97.9187V100.169H8.34844V101.444H5.94844V113.094H4.42344ZM13.174 113.394C10.774 113.394 8.94902 112.194 8.94902 109.794C8.94902 106.719 11.349 106.094 14.274 105.744C16.824 105.444 17.749 105.294 17.749 103.994V103.744C17.749 101.994 16.649 101.144 14.649 101.144C12.349 101.144 11.149 102.094 11.024 104.019H9.49902C9.67402 101.519 11.324 99.8938 14.649 99.8938C17.474 99.8938 19.224 101.069 19.224 103.894V110.919C19.224 111.694 19.524 112.019 20.074 112.044C20.249 112.044 20.424 111.994 20.649 111.944H20.724V113.069C20.499 113.169 20.174 113.269 19.674 113.269C18.549 113.269 17.849 112.694 17.774 111.444V111.169H17.699C16.974 112.194 15.649 113.394 13.174 113.394ZM13.449 112.144C16.274 112.144 17.774 110.194 17.774 108.419V106.094C16.949 106.544 15.674 106.769 14.424 106.944C12.249 107.244 10.574 107.569 10.574 109.794C10.574 111.594 11.924 112.144 13.449 112.144ZM22.1496 113.094V100.169H23.6996V102.119H23.7496C24.5746 100.819 25.8246 99.8938 27.6746 99.8938C29.2496 99.8938 30.5996 100.694 31.1246 102.244H31.1746C32.0246 100.769 33.4996 99.8938 35.3246 99.8938C37.5246 99.8938 39.2246 101.319 39.2246 103.919V113.094H37.6996V104.044C37.6996 102.119 36.5496 101.219 34.9746 101.219C33.0746 101.219 31.4746 102.569 31.4746 104.869V113.094H29.9246V104.044C29.9246 102.119 28.8246 101.219 27.3246 101.219C25.4746 101.219 23.6996 102.769 23.6996 104.869V113.094H22.1496ZM41.8041 113.094V100.169H43.3541V113.094H41.8041ZM41.8041 97.4187V95.2187H43.3541V97.4187H41.8041ZM46.0527 113.094V95.2187H47.6027V113.094H46.0527ZM51.6246 117.369C51.0496 117.369 50.6996 117.294 50.2996 117.169V115.794H50.3746C50.5996 115.869 50.9496 115.969 51.5496 115.969C52.5246 115.969 53.2246 115.544 53.6996 114.219L54.1246 113.069L49.1496 100.169H50.7996L53.8996 108.519C54.3496 109.719 54.9246 111.469 54.9246 111.469H54.9746C54.9746 111.469 55.5246 109.719 55.9496 108.519L58.9246 100.169H60.5246L55.1996 114.444C54.3246 116.769 53.2996 117.369 51.6246 117.369ZM66.7281 113.094V101.444H64.8531V100.169H66.7281V97.8687C66.7281 95.9437 67.7781 95.0937 69.7531 95.0937C69.9281 95.0937 70.5281 95.1187 70.6281 95.1187V96.4437H69.9531C68.6531 96.4437 68.2531 96.9437 68.2531 97.9187V100.169H70.6531V101.444H68.2531V113.094H66.7281ZM72.467 113.094V100.169H74.017V102.569H74.067C74.867 101.069 76.217 100.069 78.017 100.069C78.217 100.069 78.342 100.094 78.442 100.119V101.644C77.517 101.494 76.492 101.694 75.692 102.269C74.692 103.019 74.017 104.219 74.017 105.744V113.094H72.467ZM80.2074 113.094V100.169H81.7574V113.094H80.2074ZM80.2074 97.4187V95.2187H81.7574V97.4187H80.2074ZM89.7311 113.419C85.8561 113.419 83.7061 110.519 83.7061 106.644C83.7061 102.769 86.0311 99.8687 89.6061 99.8687C93.7561 99.8687 95.1811 103.294 95.1561 106.919H85.3061C85.3811 109.819 86.7811 112.094 89.7311 112.094C91.8811 112.094 93.0061 110.944 93.5061 109.194H95.0061C94.4561 111.744 92.6311 113.419 89.7311 113.419ZM85.3311 105.694H93.5311C93.4561 103.144 92.2561 101.144 89.6061 101.144C86.9811 101.144 85.6061 103.119 85.3311 105.694ZM97.0764 113.094V100.169H98.6264V102.144H98.6764C99.5514 100.844 100.951 99.8938 103.001 99.8938C105.401 99.8938 107.126 101.319 107.126 103.919V113.094H105.576V104.069C105.576 102.119 104.451 101.219 102.626 101.219C100.426 101.219 98.6264 102.769 98.6264 104.894V113.094H97.0764ZM114.525 113.444C111.05 113.444 108.95 110.644 108.95 106.669C108.95 102.369 111.4 99.8938 114.475 99.8938C116.45 99.8938 117.9 100.819 118.725 102.319H118.775V95.2187H120.325V113.094H118.775V111.169H118.725C117.775 112.644 116.475 113.444 114.525 113.444ZM114.575 112.144C117.4 112.144 118.9 109.919 118.9 106.694C118.9 103.519 117.375 101.194 114.575 101.194C112.025 101.194 110.55 103.469 110.55 106.694C110.55 109.719 111.85 112.144 114.575 112.144ZM123.006 113.094V95.2187H124.556V113.094H123.006ZM128.578 117.369C128.003 117.369 127.653 117.294 127.253 117.169V115.794H127.328C127.553 115.869 127.903 115.969 128.503 115.969C129.478 115.969 130.178 115.544 130.653 114.219L131.078 113.069L126.103 100.169H127.753L130.853 108.519C131.303 109.719 131.878 111.469 131.878 111.469H131.928C131.928 111.469 132.478 109.719 132.903 108.519L135.878 100.169H137.478L132.153 114.444C131.278 116.769 130.253 117.369 128.578 117.369ZM148.031 112.119C150.906 112.119 152.406 109.669 152.406 106.644C152.406 103.619 150.906 101.169 148.031 101.169C145.131 101.169 143.631 103.619 143.631 106.644C143.631 109.669 145.131 112.119 148.031 112.119ZM148.031 113.419C144.306 113.419 142.031 110.494 142.031 106.644C142.031 102.794 144.306 99.8687 148.031 99.8687C151.756 99.8687 153.981 102.794 153.981 106.644C153.981 110.494 151.756 113.419 148.031 113.419ZM155.939 113.094V100.169H157.489V102.569H157.539C158.339 101.069 159.689 100.069 161.489 100.069C161.689 100.069 161.814 100.094 161.914 100.119V101.644C160.989 101.494 159.964 101.694 159.164 102.269C158.164 103.019 157.489 104.219 157.489 105.744V113.094H155.939ZM163.679 113.094V100.169H165.229V113.094H163.679ZM163.679 97.4187V95.2187H165.229V97.4187H163.679ZM172.903 117.619C169.728 117.619 167.953 116.169 167.728 114.244H169.228C169.503 115.744 170.978 116.344 172.853 116.344C175.603 116.344 176.903 114.919 176.903 112.644V110.594H176.828C175.878 112.044 174.678 112.844 172.728 112.844C169.328 112.844 167.178 110.194 167.178 106.394C167.178 102.194 169.728 99.8938 172.728 99.8938C174.728 99.8938 175.978 100.769 176.828 102.169H176.903V100.169H178.428V112.594C178.428 114.044 178.003 115.219 177.228 116.069C176.253 117.094 174.828 117.619 172.903 117.619ZM172.803 111.544C175.678 111.544 177.003 109.469 177.003 106.369C177.003 103.319 175.653 101.194 172.828 101.194C170.278 101.194 168.778 103.269 168.778 106.419C168.778 109.369 170.078 111.544 172.803 111.544ZM181.086 113.094V100.169H182.636V113.094H181.086ZM181.086 97.4187V95.2187H182.636V97.4187H181.086ZM185.26 113.094V100.169H186.81V102.144H186.86C187.735 100.844 189.135 99.8938 191.185 99.8938C193.585 99.8938 195.31 101.319 195.31 103.919V113.094H193.76V104.069C193.76 102.119 192.635 101.219 190.81 101.219C188.61 101.219 186.81 102.769 186.81 104.894V113.094H185.26ZM201.309 113.394C198.909 113.394 197.084 112.194 197.084 109.794C197.084 106.719 199.484 106.094 202.409 105.744C204.959 105.444 205.884 105.294 205.884 103.994V103.744C205.884 101.994 204.784 101.144 202.784 101.144C200.484 101.144 199.284 102.094 199.159 104.019H197.634C197.809 101.519 199.459 99.8938 202.784 99.8938C205.609 99.8938 207.359 101.069 207.359 103.894V110.919C207.359 111.694 207.659 112.019 208.209 112.044C208.384 112.044 208.559 111.994 208.784 111.944H208.859V113.069C208.634 113.169 208.309 113.269 207.809 113.269C206.684 113.269 205.984 112.694 205.909 111.444V111.169H205.834C205.109 112.194 203.784 113.394 201.309 113.394ZM201.584 112.144C204.409 112.144 205.909 110.194 205.909 108.419V106.094C205.084 106.544 203.809 106.769 202.559 106.944C200.384 107.244 198.709 107.569 198.709 109.794C198.709 111.594 200.059 112.144 201.584 112.144ZM210.359 113.094V95.2187H211.909V113.094H210.359ZM223.541 113.419C219.766 113.419 217.666 110.494 217.666 106.644C217.666 102.794 219.816 99.8687 223.566 99.8687C226.416 99.8687 228.341 101.419 228.766 104.069H227.216C226.841 102.144 225.566 101.169 223.566 101.169C220.591 101.169 219.266 103.644 219.266 106.644C219.266 109.644 220.616 112.094 223.541 112.094C225.741 112.094 227.116 110.719 227.366 108.644H228.841C228.541 111.569 226.616 113.419 223.541 113.419ZM235.946 112.119C238.821 112.119 240.321 109.669 240.321 106.644C240.321 103.619 238.821 101.169 235.946 101.169C233.046 101.169 231.546 103.619 231.546 106.644C231.546 109.669 233.046 112.119 235.946 112.119ZM235.946 113.419C232.221 113.419 229.946 110.494 229.946 106.644C229.946 102.794 232.221 99.8687 235.946 99.8687C239.671 99.8687 241.896 102.794 241.896 106.644C241.896 110.494 239.671 113.419 235.946 113.419ZM243.929 113.094V95.2187H245.479V113.094H243.929ZM253.476 112.119C256.351 112.119 257.851 109.669 257.851 106.644C257.851 103.619 256.351 101.169 253.476 101.169C250.576 101.169 249.076 103.619 249.076 106.644C249.076 109.669 250.576 112.119 253.476 112.119ZM253.476 113.419C249.751 113.419 247.476 110.494 247.476 106.644C247.476 102.794 249.751 99.8687 253.476 99.8687C257.201 99.8687 259.426 102.794 259.426 106.644C259.426 110.494 257.201 113.419 253.476 113.419ZM261.383 113.094V100.169H262.933V102.569H262.983C263.783 101.069 265.133 100.069 266.933 100.069C267.133 100.069 267.258 100.094 267.358 100.119V101.644C266.433 101.494 265.408 101.694 264.608 102.269C263.608 103.019 262.933 104.219 262.933 105.744V113.094H261.383ZM269.123 113.094V100.169H270.673V113.094H269.123ZM269.123 97.4187V95.2187H270.673V97.4187H269.123ZM273.297 113.094V100.169H274.847V102.144H274.897C275.772 100.844 277.172 99.8938 279.222 99.8938C281.622 99.8938 283.347 101.319 283.347 103.919V113.094H281.797V104.069C281.797 102.119 280.672 101.219 278.847 101.219C276.647 101.219 274.847 102.769 274.847 104.894V113.094H273.297ZM290.896 117.619C287.721 117.619 285.946 116.169 285.721 114.244H287.221C287.496 115.744 288.971 116.344 290.846 116.344C293.596 116.344 294.896 114.919 294.896 112.644V110.594H294.821C293.871 112.044 292.671 112.844 290.721 112.844C287.321 112.844 285.171 110.194 285.171 106.394C285.171 102.194 287.721 99.8938 290.721 99.8938C292.721 99.8938 293.971 100.769 294.821 102.169H294.896V100.169H296.421V112.594C296.421 114.044 295.996 115.219 295.221 116.069C294.246 117.094 292.821 117.619 290.896 117.619ZM290.796 111.544C293.671 111.544 294.996 109.469 294.996 106.369C294.996 103.319 293.646 101.194 290.821 101.194C288.271 101.194 286.771 103.269 286.771 106.419C286.771 109.369 288.071 111.544 290.796 111.544ZM306.289 113.394C303.889 113.394 302.064 112.194 302.064 109.794C302.064 106.719 304.464 106.094 307.389 105.744C309.939 105.444 310.864 105.294 310.864 103.994V103.744C310.864 101.994 309.764 101.144 307.764 101.144C305.464 101.144 304.264 102.094 304.139 104.019H302.614C302.789 101.519 304.439 99.8938 307.764 99.8938C310.589 99.8938 312.339 101.069 312.339 103.894V110.919C312.339 111.694 312.639 112.019 313.189 112.044C313.364 112.044 313.539 111.994 313.764 111.944H313.839V113.069C313.614 113.169 313.289 113.269 312.789 113.269C311.664 113.269 310.964 112.694 310.889 111.444V111.169H310.814C310.089 112.194 308.764 113.394 306.289 113.394ZM306.564 112.144C309.389 112.144 310.889 110.194 310.889 108.419V106.094C310.064 106.544 308.789 106.769 307.539 106.944C305.364 107.244 303.689 107.569 303.689 109.794C303.689 111.594 305.039 112.144 306.564 112.144ZM315.265 113.094V100.169H316.815V102.144H316.865C317.74 100.844 319.14 99.8938 321.19 99.8938C323.59 99.8938 325.315 101.319 325.315 103.919V113.094H323.765V104.069C323.765 102.119 322.64 101.219 320.815 101.219C318.615 101.219 316.815 102.769 316.815 104.894V113.094H315.265ZM332.714 113.444C329.239 113.444 327.139 110.644 327.139 106.669C327.139 102.369 329.589 99.8938 332.664 99.8938C334.639 99.8938 336.089 100.819 336.914 102.319H336.964V95.2187H338.514V113.094H336.964V111.169H336.914C335.964 112.644 334.664 113.444 332.714 113.444ZM332.764 112.144C335.589 112.144 337.089 109.919 337.089 106.694C337.089 103.519 335.564 101.194 332.764 101.194C330.214 101.194 328.739 103.469 328.739 106.694C328.739 109.719 330.039 112.144 332.764 112.144ZM352.139 113.394C349.739 113.394 347.914 112.194 347.914 109.794C347.914 106.719 350.314 106.094 353.239 105.744C355.789 105.444 356.714 105.294 356.714 103.994V103.744C356.714 101.994 355.614 101.144 353.614 101.144C351.314 101.144 350.114 102.094 349.989 104.019H348.464C348.639 101.519 350.289 99.8938 353.614 99.8938C356.439 99.8938 358.189 101.069 358.189 103.894V110.919C358.189 111.694 358.489 112.019 359.039 112.044C359.214 112.044 359.389 111.994 359.614 111.944H359.689V113.069C359.464 113.169 359.139 113.269 358.639 113.269C357.514 113.269 356.814 112.694 356.739 111.444V111.169H356.664C355.939 112.194 354.614 113.394 352.139 113.394ZM352.414 112.144C355.239 112.144 356.739 110.194 356.739 108.419V106.094C355.914 106.544 354.639 106.769 353.389 106.944C351.214 107.244 349.539 107.569 349.539 109.794C349.539 111.594 350.889 112.144 352.414 112.144ZM366.192 113.419C362.417 113.419 360.317 110.494 360.317 106.644C360.317 102.794 362.467 99.8687 366.217 99.8687C369.067 99.8687 370.992 101.419 371.417 104.069H369.867C369.492 102.144 368.217 101.169 366.217 101.169C363.242 101.169 361.917 103.644 361.917 106.644C361.917 109.644 363.267 112.094 366.192 112.094C368.392 112.094 369.767 110.719 370.017 108.644H371.492C371.192 111.569 369.267 113.419 366.192 113.419ZM376.823 113.194C375.348 113.194 374.348 112.519 374.348 110.869V101.444H372.398V100.169H374.348V96.1937H375.898V100.169H378.298V101.444H375.898V110.619C375.898 111.544 376.323 111.844 377.148 111.844C377.498 111.844 377.948 111.744 378.173 111.644H378.248V112.969C377.823 113.119 377.373 113.194 376.823 113.194ZM380.378 113.094V100.169H381.928V113.094H380.378ZM380.378 97.4187V95.2187H381.928V97.4187H380.378ZM387.977 113.094L383.402 100.169H385.052L387.827 108.369C388.252 109.619 388.877 111.644 388.877 111.644H388.927C388.927 111.644 389.577 109.619 390.002 108.369L392.902 100.169H394.477L389.802 113.094H387.977ZM396.003 113.094V100.169H397.553V113.094H396.003ZM396.003 97.4187V95.2187H397.553V97.4187H396.003ZM403.727 113.194C402.252 113.194 401.252 112.519 401.252 110.869V101.444H399.302V100.169H401.252V96.1937H402.802V100.169H405.202V101.444H402.802V110.619C402.802 111.544 403.227 111.844 404.052 111.844C404.402 111.844 404.852 111.744 405.077 111.644H405.152V112.969C404.727 113.119 404.277 113.194 403.727 113.194ZM408.583 117.369C408.008 117.369 407.658 117.294 407.258 117.169V115.794H407.333C407.558 115.869 407.908 115.969 408.508 115.969C409.483 115.969 410.183 115.544 410.658 114.219L411.083 113.069L406.108 100.169H407.758L410.858 108.519C411.308 109.719 411.883 111.469 411.883 111.469H411.933C411.933 111.469 412.483 109.719 412.908 108.519L415.883 100.169H417.483L412.158 114.444C411.283 116.769 410.258 117.369 408.583 117.369ZM3.44844 145.244V128.169H4.99844V130.394H5.04844C5.94844 128.869 7.37344 127.894 9.42344 127.894C12.5234 127.894 14.7734 130.344 14.7734 134.644C14.7734 138.619 12.7234 141.419 9.32344 141.419C7.34844 141.419 6.02344 140.644 5.04844 139.219H4.99844V145.244H3.44844ZM9.24844 140.119C11.8984 140.119 13.1984 137.669 13.1984 134.669C13.1984 131.444 11.7984 129.194 9.22344 129.194C6.37344 129.194 4.87344 131.619 4.87344 134.694C4.87344 137.869 6.29844 140.119 9.24844 140.119ZM20.0832 141.394C17.6832 141.394 15.8582 140.194 15.8582 137.794C15.8582 134.719 18.2582 134.094 21.1832 133.744C23.7332 133.444 24.6582 133.294 24.6582 131.994V131.744C24.6582 129.994 23.5582 129.144 21.5582 129.144C19.2582 129.144 18.0582 130.094 17.9332 132.019H16.4082C16.5832 129.519 18.2332 127.894 21.5582 127.894C24.3832 127.894 26.1332 129.069 26.1332 131.894V138.919C26.1332 139.694 26.4332 140.019 26.9832 140.044C27.1582 140.044 27.3332 139.994 27.5582 139.944H27.6332V141.069C27.4082 141.169 27.0832 141.269 26.5832 141.269C25.4582 141.269 24.7582 140.694 24.6832 139.444V139.169H24.6082C23.8832 140.194 22.5582 141.394 20.0832 141.394ZM20.3582 140.144C23.1832 140.144 24.6832 138.194 24.6832 136.419V134.094C23.8582 134.544 22.5832 134.769 21.3332 134.944C19.1582 135.244 17.4832 135.569 17.4832 137.794C17.4832 139.594 18.8332 140.144 20.3582 140.144ZM33.9867 145.619C30.8117 145.619 29.0367 144.169 28.8117 142.244H30.3117C30.5867 143.744 32.0617 144.344 33.9367 144.344C36.6867 144.344 37.9867 142.919 37.9867 140.644V138.594H37.9117C36.9617 140.044 35.7617 140.844 33.8117 140.844C30.4117 140.844 28.2617 138.194 28.2617 134.394C28.2617 130.194 30.8117 127.894 33.8117 127.894C35.8117 127.894 37.0617 128.769 37.9117 130.169H37.9867V128.169H39.5117V140.594C39.5117 142.044 39.0867 143.219 38.3117 144.069C37.3367 145.094 35.9117 145.619 33.9867 145.619ZM33.8867 139.544C36.7617 139.544 38.0867 137.469 38.0867 134.369C38.0867 131.319 36.7367 129.194 33.9117 129.194C31.3617 129.194 29.8617 131.269 29.8617 134.419C29.8617 137.369 31.1617 139.544 33.8867 139.544ZM47.4703 141.419C43.5953 141.419 41.4453 138.519 41.4453 134.644C41.4453 130.769 43.7703 127.869 47.3453 127.869C51.4953 127.869 52.9203 131.294 52.8953 134.919H43.0453C43.1203 137.819 44.5203 140.094 47.4703 140.094C49.6203 140.094 50.7453 138.944 51.2453 137.194H52.7453C52.1953 139.744 50.3703 141.419 47.4703 141.419ZM43.0703 133.694H51.2703C51.1953 131.144 49.9953 129.144 47.3453 129.144C44.7203 129.144 43.3453 131.119 43.0703 133.694ZM59.3406 141.444C55.8906 141.444 54.1406 139.569 53.9906 137.069H55.5656C55.7906 139.244 57.2906 140.119 59.3656 140.119C61.5156 140.119 62.6406 139.119 62.6406 137.619C62.6406 136.194 61.8406 135.719 59.1906 135.119C56.5656 134.519 54.4656 133.894 54.4656 131.394C54.4656 129.244 56.3156 127.894 58.9656 127.894C62.0406 127.894 63.4656 129.444 63.7656 131.719H62.2156C62.0406 130.044 60.8906 129.169 58.9656 129.169C56.9656 129.169 56.0156 130.119 56.0156 131.319C56.0156 132.794 57.2406 133.144 59.7156 133.719C62.3156 134.269 64.1906 134.919 64.1906 137.594C64.1906 139.894 62.3406 141.444 59.3406 141.444ZM73.3547 141.394C70.9547 141.394 69.1297 140.194 69.1297 137.794C69.1297 134.719 71.5297 134.094 74.4547 133.744C77.0047 133.444 77.9297 133.294 77.9297 131.994V131.744C77.9297 129.994 76.8297 129.144 74.8297 129.144C72.5297 129.144 71.3297 130.094 71.2047 132.019H69.6797C69.8547 129.519 71.5047 127.894 74.8297 127.894C77.6547 127.894 79.4047 129.069 79.4047 131.894V138.919C79.4047 139.694 79.7047 140.019 80.2547 140.044C80.4297 140.044 80.6047 139.994 80.8297 139.944H80.9047V141.069C80.6797 141.169 80.3547 141.269 79.8547 141.269C78.7297 141.269 78.0297 140.694 77.9547 139.444V139.169H77.8797C77.1547 140.194 75.8297 141.394 73.3547 141.394ZM73.6297 140.144C76.4547 140.144 77.9547 138.194 77.9547 136.419V134.094C77.1297 134.544 75.8547 134.769 74.6047 134.944C72.4297 135.244 70.7547 135.569 70.7547 137.794C70.7547 139.594 72.1047 140.144 73.6297 140.144ZM85.5141 141.194C84.0391 141.194 83.0391 140.519 83.0391 138.869V129.444H81.0891V128.169H83.0391V124.194H84.5891V128.169H86.9891V129.444H84.5891V138.619C84.5891 139.544 85.0141 139.844 85.8391 139.844C86.1891 139.844 86.6391 139.744 86.8641 139.644H86.9391V140.969C86.5141 141.119 86.0641 141.194 85.5141 141.194ZM92.8545 141.094V123.219H94.4045V130.144H94.4545C95.3295 128.844 96.7295 127.894 98.7795 127.894C101.179 127.894 102.904 129.319 102.904 131.919V141.094H101.354V132.069C101.354 130.119 100.229 129.219 98.4045 129.219C96.2045 129.219 94.4045 130.769 94.4045 132.894V141.094H92.8545ZM110.727 140.119C113.602 140.119 115.102 137.669 115.102 134.644C115.102 131.619 113.602 129.169 110.727 129.169C107.827 129.169 106.327 131.619 106.327 134.644C106.327 137.669 107.827 140.119 110.727 140.119ZM110.727 141.419C107.002 141.419 104.727 138.494 104.727 134.644C104.727 130.794 107.002 127.869 110.727 127.869C114.452 127.869 116.677 130.794 116.677 134.644C116.677 138.494 114.452 141.419 110.727 141.419ZM118.634 141.094V128.169H120.184V130.119H120.234C121.059 128.819 122.309 127.894 124.159 127.894C125.734 127.894 127.084 128.694 127.609 130.244H127.659C128.509 128.769 129.984 127.894 131.809 127.894C134.009 127.894 135.709 129.319 135.709 131.919V141.094H134.184V132.044C134.184 130.119 133.034 129.219 131.459 129.219C129.559 129.219 127.959 130.569 127.959 132.869V141.094H126.409V132.044C126.409 130.119 125.309 129.219 123.809 129.219C121.959 129.219 120.184 130.769 120.184 132.869V141.094H118.634ZM143.588 141.419C139.713 141.419 137.563 138.519 137.563 134.644C137.563 130.769 139.888 127.869 143.463 127.869C147.613 127.869 149.038 131.294 149.013 134.919H139.163C139.238 137.819 140.638 140.094 143.588 140.094C145.738 140.094 146.863 138.944 147.363 137.194H148.863C148.313 139.744 146.488 141.419 143.588 141.419ZM139.188 133.694H147.388C147.313 131.144 146.113 129.144 143.463 129.144C140.838 129.144 139.463 131.119 139.188 133.694ZM150.44 141.094V138.919H152.34V141.094H150.44Z" fill="white"/>
</svg>
