<svg width="48" height="47" viewBox="0 0 48 47" fill="none" xmlns="http://www.w3.org/2000/svg">
<circle cx="23.8267" cy="23.4399" r="23.3853" fill="#2D5FA8"/>
<path d="M22.2698 0.0546875C23.3051 0.0546875 24.3403 0.0546875 25.3755 0.0546875C25.9456 0.126191 26.5175 0.185301 27.0857 0.271106C32.5754 1.09674 37.2759 3.4821 41.0031 7.59882C46.2307 13.3725 48.1629 20.1778 46.7779 27.8296C45.7379 33.5776 42.8095 38.2816 38.1977 41.8692C33.0091 45.9058 27.0971 47.4427 20.5921 46.6027C16.7076 46.1003 13.1644 44.6569 10.0225 42.3135C4.87211 38.4723 1.75784 33.3698 0.715942 27.0193C0.605365 26.3462 0.531965 25.6683 0.441406 24.9924C0.441406 23.957 0.441406 22.9216 0.441406 21.8862C0.5129 21.3161 0.573908 20.7441 0.657794 20.1749C1.22116 16.3347 2.59861 12.8167 4.91214 9.69436C8.76613 4.49365 13.8956 1.35987 20.2928 0.323542C20.9486 0.216763 21.6102 0.143352 22.2698 0.0546875ZM3.36311 23.4221C3.34119 34.6854 12.5391 43.8942 23.817 43.9018C35.0729 43.9094 44.2298 34.7703 44.2823 23.4793C44.3337 12.2313 35.1482 3.01399 23.8513 2.97776C12.5982 2.94058 3.38599 12.1341 3.36311 23.4231V23.4221Z" fill="white"/>
<path d="M25.1162 28.6406C26.1671 27.5895 27.1339 26.6209 28.1024 25.6531C28.8816 24.8738 29.6541 24.0887 30.4442 23.3203C30.8708 22.9054 31.4783 22.8381 31.968 23.1091C32.4619 23.3826 32.7278 23.8884 32.6016 24.4674C32.5452 24.7266 32.3988 25.0034 32.212 25.1919C29.8291 27.5971 27.4343 29.9922 25.0346 32.3805C24.4018 33.01 23.2558 33.01 22.623 32.3805C20.2232 29.9922 17.8293 27.5971 15.4405 25.197C14.8893 24.6432 14.8843 23.832 15.3967 23.3228C15.9091 22.8137 16.7144 22.8246 17.2706 23.3767C18.9013 24.995 20.5228 26.6234 22.1451 28.2502C22.2477 28.3537 22.3243 28.4841 22.4126 28.6019C22.4547 28.5834 22.4968 28.5641 22.538 28.5455C22.538 28.4075 22.538 28.2695 22.538 28.1315C22.538 23.7638 22.5372 15.4856 22.5397 11.1179C22.5397 10.4876 22.8788 10.0264 23.4526 9.84294C23.976 9.67631 24.5793 9.84967 24.8646 10.3336C25.0186 10.5945 25.1036 10.9353 25.1052 11.2408C25.1204 15.5546 25.1153 23.779 25.1153 28.0928V28.6415L25.1162 28.6406Z" fill="white"/>
<path d="M31.2812 37.0938H16.3711" stroke="white" stroke-width="2.5" stroke-linecap="round"/>
</svg>
