<svg width="161" height="39" viewBox="0 0 161 39" fill="none" xmlns="http://www.w3.org/2000/svg">
<path d="M160.223 0L-29.2822 0.00099297L-40 38.3121L149.794 38.5778L160.223 0Z" fill="white"/>
<path d="M41.4492 24.6797L40.9492 20.8547H34.7742L32.9742 24.6797H29.3492L38.4992 6.80469H42.1992L45.1492 24.6797H41.4492ZM38.4992 13.0297L36.0742 18.1047H40.5992L39.9742 13.0797C39.8492 12.0547 39.7492 10.2297 39.7492 10.2297H39.6992C39.6992 10.2297 38.9492 12.0797 38.4992 13.0297ZM45.4189 28.8797L48.7189 11.8547H51.9439L51.6439 13.4297H51.7189C52.6189 12.2797 53.9189 11.5047 55.6439 11.5047C58.5189 11.5047 60.0689 13.9047 60.0689 17.1047C60.0689 20.7297 58.2189 25.0547 53.7439 25.0547C52.1939 25.0547 50.7189 24.3797 49.9939 22.8797H49.9439L48.7689 28.8797H45.4189ZM50.6189 19.3047C50.6189 20.8547 51.4189 22.2547 53.2439 22.2547C55.7689 22.2547 56.6439 19.5797 56.6439 17.2297C56.6439 15.7297 56.0189 14.2297 54.1939 14.2297C51.7939 14.2297 50.6189 16.9797 50.6189 19.3047ZM59.457 28.8797L62.757 11.8547H65.982L65.682 13.4297H65.757C66.657 12.2797 67.957 11.5047 69.682 11.5047C72.557 11.5047 74.107 13.9047 74.107 17.1047C74.107 20.7297 72.257 25.0547 67.782 25.0547C66.232 25.0547 64.757 24.3797 64.032 22.8797H63.982L62.807 28.8797H59.457ZM64.657 19.3047C64.657 20.8547 65.457 22.2547 67.282 22.2547C69.807 22.2547 70.682 19.5797 70.682 17.2297C70.682 15.7297 70.057 14.2297 68.232 14.2297C65.832 14.2297 64.657 16.9797 64.657 19.3047ZM80.0201 11.8547L79.6201 13.9047H79.6951C80.4451 12.6297 81.4701 11.7047 83.0701 11.7047C83.5451 11.7047 83.8451 11.7547 84.0201 11.8047L83.4451 14.7547H83.3701C81.0451 14.4547 79.4201 15.5297 78.8701 18.4297L77.6701 24.6797H74.3201L76.7951 11.8547H80.0201ZM89.5145 25.0547C86.1645 25.0547 83.4895 23.0047 83.4895 19.0797C83.4895 15.0297 86.3395 11.5047 90.7145 11.5047C93.9895 11.5047 96.6395 13.5547 96.6395 17.3547C96.6395 21.4547 93.8895 25.0547 89.5145 25.0547ZM86.8395 19.2797C86.8395 21.0297 87.6145 22.5297 89.5895 22.5297C92.1895 22.5297 93.2895 19.7047 93.2895 17.2547C93.2895 15.5797 92.5145 14.0297 90.5395 14.0297C87.9645 14.0297 86.8395 16.8047 86.8395 19.2797ZM105.025 24.6797C104.875 24.4047 104.825 23.8547 104.85 23.2797H104.8C104.025 24.1047 103.075 24.9797 101.225 24.9797C99.2502 24.9797 97.1502 23.8547 97.1502 21.2047C97.1502 17.8047 99.8502 17.1797 102.975 16.9297C105.375 16.7297 106.3 16.6297 106.3 15.3547C106.3 14.4297 105.575 13.9297 104.3 13.9297C102.9 13.9297 101.975 14.4797 101.675 15.7547H98.6752C99.1002 13.1297 101.125 11.5297 104.425 11.5297C107.6 11.5297 110 12.9047 109.3 16.6297L108.1 22.7797C107.925 23.6547 108 24.2547 108.2 24.5547V24.6797H105.025ZM100.375 20.9047C100.375 22.0547 101.175 22.6547 102.3 22.6547C104.05 22.6547 105.175 21.5547 105.425 20.3797L105.825 18.3547C105.175 18.6547 104.475 18.8047 103.375 19.0047C102.15 19.2297 100.375 19.1547 100.375 20.9047ZM116.045 25.0547C112.92 25.0547 110.32 23.3047 110.32 19.3797C110.32 15.4297 112.945 11.5047 117.32 11.5047C120.17 11.5047 122.47 12.8547 122.645 16.2047H119.37C119.245 14.9797 118.57 14.2047 117.22 14.2047C114.745 14.2047 113.67 17.0297 113.67 19.4797C113.67 21.1297 114.395 22.3547 116.245 22.3547C117.495 22.3547 118.47 21.6797 118.92 20.1547H122.17C121.47 23.2297 119.195 25.0547 116.045 25.0547ZM129.387 6.80469L128.087 13.6297H128.162C129.212 12.2047 130.212 11.5047 132.037 11.5047C134.587 11.5047 136.062 13.5797 135.487 16.5797L133.937 24.6797H130.587L132.087 16.9797C132.412 15.2797 131.762 14.3547 130.337 14.3547C128.712 14.3547 127.637 15.8047 127.287 17.6797L125.937 24.6797H122.587L126.037 6.80469H129.387Z" fill="black"/>
</svg>
