<svg width="306" height="39" viewBox="0 0 306 39" fill="none" xmlns="http://www.w3.org/2000/svg">
<path d="M295.464 0.265625L23.2373 0.272667L12.5195 38.5838L285.035 38.8434L295.464 0.265625Z" fill="#2D5FA8"/>
<path d="M34.0692 27.6094L37.5192 9.73437H44.3942C47.8192 9.73437 50.0942 11.6594 50.0942 15.0094C50.0942 18.8344 47.3692 21.1344 43.3692 21.1344H39.0192L37.7692 27.6094H34.0692ZM40.6192 12.8594L39.5942 18.2094H43.1942C44.8692 18.2094 46.3942 17.3094 46.3942 15.1844C46.3942 13.7344 45.5442 12.8594 43.9192 12.8594H40.6192ZM54.9728 14.7844L54.5728 16.8344H54.6478C55.3978 15.5594 56.4228 14.6344 58.0228 14.6344C58.4978 14.6344 58.7978 14.6844 58.9728 14.7344L58.3978 17.6844H58.3228C55.9978 17.3844 54.3728 18.4594 53.8228 21.3594L52.6228 27.6094H49.2728L51.7478 14.7844H54.9728ZM64.4671 27.9844C61.1171 27.9844 58.4421 25.9344 58.4421 22.0094C58.4421 17.9594 61.2921 14.4344 65.6671 14.4344C68.9421 14.4344 71.5921 16.4844 71.5921 20.2844C71.5921 24.3844 68.8421 27.9844 64.4671 27.9844ZM61.7921 22.2094C61.7921 23.9594 62.5671 25.4594 64.5421 25.4594C67.1421 25.4594 68.2421 22.6344 68.2421 20.1844C68.2421 18.5094 67.4671 16.9594 65.4921 16.9594C62.9171 16.9594 61.7921 19.7344 61.7921 22.2094ZM78.1558 27.9844C75.0308 27.9844 72.4308 26.2344 72.4308 22.3094C72.4308 18.3594 75.0558 14.4344 79.4308 14.4344C82.2808 14.4344 84.5808 15.7844 84.7558 19.1344H81.4808C81.3558 17.9094 80.6808 17.1344 79.3308 17.1344C76.8558 17.1344 75.7808 19.9594 75.7808 22.4094C75.7808 24.0594 76.5058 25.2844 78.3558 25.2844C79.6058 25.2844 80.5808 24.6094 81.0308 23.0844H84.2808C83.5808 26.1594 81.3058 27.9844 78.1558 27.9844ZM97.5226 22.1344H88.5976C88.5976 24.1594 89.2726 25.3844 91.2226 25.3844C92.3976 25.3844 93.3726 24.8844 93.8476 23.7844H97.1476C96.7476 24.9844 96.0726 25.9594 95.1726 26.6594C94.0976 27.5094 92.7226 27.9594 91.1726 27.9844C87.8476 27.9844 85.2726 26.1344 85.2726 22.0844C85.2726 18.3594 87.9976 14.4344 92.1476 14.4344C93.5476 14.4344 94.5226 14.7094 95.3726 15.2594C97.2976 16.5094 97.9976 19.0594 97.5226 22.1344ZM92.0726 17.0344C90.2976 17.0344 89.3476 18.3094 88.8976 19.8094H94.4226C94.4726 18.3094 93.7976 17.0344 92.0726 17.0344ZM103.778 27.9844C100.678 27.9844 98.2032 26.6844 97.9782 23.4594H101.153C101.278 24.5594 102.028 25.5344 103.778 25.5344C105.003 25.5344 105.878 25.1094 105.878 24.1344C105.878 23.2094 104.778 22.8594 102.903 22.2344C100.953 21.5844 99.2282 20.7594 99.2282 18.4844C99.2282 15.8844 101.303 14.4344 104.228 14.4344C107.103 14.4344 109.253 15.8844 109.478 18.6844H106.403C106.253 17.6844 105.553 16.8344 104.128 16.8344C103.228 16.8344 102.203 17.1344 102.203 18.1094C102.203 18.9844 103.353 19.1844 105.328 19.8594C107.178 20.4844 108.953 21.4344 108.953 23.6844C108.953 26.4344 107.028 27.9844 103.778 27.9844ZM115.448 27.9844C112.348 27.9844 109.873 26.6844 109.648 23.4594H112.823C112.948 24.5594 113.698 25.5344 115.448 25.5344C116.673 25.5344 117.548 25.1094 117.548 24.1344C117.548 23.2094 116.448 22.8594 114.573 22.2344C112.623 21.5844 110.898 20.7594 110.898 18.4844C110.898 15.8844 112.973 14.4344 115.898 14.4344C118.773 14.4344 120.923 15.8844 121.148 18.6844H118.073C117.923 17.6844 117.223 16.8344 115.798 16.8344C114.898 16.8344 113.873 17.1344 113.873 18.1094C113.873 18.9844 115.023 19.1844 116.998 19.8594C118.848 20.4844 120.623 21.4344 120.623 23.6844C120.623 26.4344 118.698 27.9844 115.448 27.9844ZM122.79 20.0844L123.49 16.4594H127.09L126.39 20.0844H122.79ZM121.34 27.6094L122.04 23.9844H125.64L124.94 27.6094H121.34ZM142.354 27.6094L141.854 23.7844H135.679L133.879 27.6094H130.254L139.404 9.73437H143.104L146.054 27.6094H142.354ZM139.404 15.9594L136.979 21.0344H141.504L140.879 16.0094C140.754 14.9844 140.654 13.1594 140.654 13.1594H140.604C140.604 13.1594 139.854 15.0094 139.404 15.9594ZM152.57 27.9844C149.445 27.9844 146.845 26.2344 146.845 22.3094C146.845 18.3594 149.47 14.4344 153.845 14.4344C156.695 14.4344 158.995 15.7844 159.17 19.1344H155.895C155.77 17.9094 155.095 17.1344 153.745 17.1344C151.27 17.1344 150.195 19.9594 150.195 22.4094C150.195 24.0594 150.92 25.2844 152.77 25.2844C154.02 25.2844 154.995 24.6094 155.445 23.0844H158.695C157.995 26.1594 155.72 27.9844 152.57 27.9844ZM160.192 17.0344L160.617 14.7844H162.242L163.017 10.7844H166.292L165.517 14.7844H167.667L167.242 17.0344H165.092L163.792 23.7094C163.592 24.7094 163.917 25.1094 164.742 25.1094C165.117 25.1094 165.742 25.0594 165.742 25.0594L165.267 27.5594C165.267 27.5594 164.417 27.6344 163.742 27.6344C161.142 27.6344 159.917 26.6844 160.442 24.0344L161.817 17.0344H160.192ZM166.924 27.6094L169.399 14.7844H172.749L170.274 27.6094H166.924ZM169.799 12.7844L170.374 9.73437H173.724L173.149 12.7844H169.799ZM175.87 27.6094L173.745 14.7844H177.145L177.945 21.2594C178.12 22.6594 178.17 23.5594 178.17 23.5594H178.22C178.22 23.5594 178.545 22.6594 179.145 21.4344L182.245 14.7844H185.595L179.07 27.6094H175.87ZM184.234 27.6094L186.709 14.7844H190.059L187.584 27.6094H184.234ZM187.109 12.7844L187.684 9.73437H191.034L190.459 12.7844H187.109ZM191.052 17.0344L191.477 14.7844H193.102L193.877 10.7844H197.152L196.377 14.7844H198.527L198.102 17.0344H195.952L194.652 23.7094C194.452 24.7094 194.777 25.1094 195.602 25.1094C195.977 25.1094 196.602 25.0594 196.602 25.0594L196.127 27.5594C196.127 27.5594 195.277 27.6344 194.602 27.6344C192.002 27.6344 190.777 26.6844 191.302 24.0344L192.677 17.0344H191.052ZM197.633 31.8094L198.158 29.1594H199.233C200.658 29.1594 201.458 28.3844 201.458 26.7844C201.458 26.1594 201.308 25.2094 201.033 23.9094L199.183 14.7844H202.683L203.558 20.6094C203.733 21.7844 203.933 23.5094 203.933 23.5094H203.983C203.983 23.5094 204.608 21.8094 205.158 20.6094L207.808 14.7844H211.208L204.583 28.2344C203.308 30.8094 202.208 31.8094 199.733 31.8094H197.633ZM214.611 27.6094L218.061 9.73437H225.236C226.711 9.73437 228.011 10.0844 228.936 10.8344C229.811 11.5344 230.336 12.6094 230.336 14.0594C230.336 16.1594 229.136 17.6344 227.036 18.2344V18.3094C228.861 18.8094 229.811 20.0594 229.786 22.0344C229.786 23.4844 229.236 24.7344 228.136 25.7844C226.911 26.9594 225.286 27.6094 222.861 27.6094H214.611ZM219.736 19.6094L218.761 24.6344H222.886C224.861 24.6344 226.161 23.7594 226.161 21.8844C226.161 20.3594 225.136 19.6094 223.636 19.6094H219.736ZM220.261 16.9594H223.961C225.436 16.9594 226.861 16.4844 226.861 14.5344C226.861 13.4094 226.236 12.6594 224.761 12.6594H221.086L220.261 16.9594ZM237.075 27.9844C233.725 27.9844 231.05 25.9344 231.05 22.0094C231.05 17.9594 233.9 14.4344 238.275 14.4344C241.55 14.4344 244.2 16.4844 244.2 20.2844C244.2 24.3844 241.45 27.9844 237.075 27.9844ZM234.4 22.2094C234.4 23.9594 235.175 25.4594 237.15 25.4594C239.75 25.4594 240.85 22.6344 240.85 20.1844C240.85 18.5094 240.075 16.9594 238.1 16.9594C235.525 16.9594 234.4 19.7344 234.4 22.2094ZM251.088 27.9844C247.738 27.9844 245.063 25.9344 245.063 22.0094C245.063 17.9594 247.913 14.4344 252.288 14.4344C255.563 14.4344 258.213 16.4844 258.213 20.2844C258.213 24.3844 255.463 27.9844 251.088 27.9844ZM248.413 22.2094C248.413 23.9594 249.188 25.4594 251.163 25.4594C253.763 25.4594 254.863 22.6344 254.863 20.1844C254.863 18.5094 254.088 16.9594 252.113 16.9594C249.538 16.9594 248.413 19.7344 248.413 22.2094ZM266.927 27.6094L264.477 21.8094L262.577 23.5094L261.802 27.6094H258.477L261.927 9.73437H265.252L263.302 19.7594L268.327 14.7844H272.427L267.077 19.8094L270.652 27.6094H266.927Z" fill="white"/>
</svg>
