<svg width="279" height="39" viewBox="0 0 279 39" fill="none" xmlns="http://www.w3.org/2000/svg">
<path d="M160.223 0L-29.2822 0.00099297L-40 38.3121L149.794 38.5778L160.223 0Z" fill="#14B253"/>
<path d="M37.5406 26.3203C32.7906 26.3203 30.1406 23.1203 30.1406 18.7203C30.1406 13.2703 33.6406 7.72031 39.6906 7.72031C43.3156 7.72031 46.0406 9.54531 46.2656 13.7453H42.7406C42.5656 11.7203 41.4656 10.7453 39.4156 10.7453C35.5156 10.7453 33.7906 14.9703 33.7906 18.6703C33.7906 21.1453 34.7906 23.3703 37.8156 23.3703C39.9156 23.3703 41.3656 22.1703 41.9906 20.1953H45.5156C45.0156 22.0703 44.1156 23.6953 42.7156 24.7703C41.2406 25.8953 39.7156 26.3203 37.5406 26.3203ZM52.7119 8.07031L51.4119 14.8953H51.4869C52.5369 13.4703 53.5369 12.7703 55.3619 12.7703C57.9119 12.7703 59.3869 14.8453 58.8119 17.8453L57.2619 25.9453H53.9119L55.4119 18.2453C55.7369 16.5453 55.0869 15.6203 53.6619 15.6203C52.0369 15.6203 50.9619 17.0703 50.6119 18.9453L49.2619 25.9453H45.9119L49.3619 8.07031H52.7119ZM67.3152 25.9453C67.1652 25.6703 67.1152 25.1203 67.1402 24.5453H67.0902C66.3152 25.3703 65.3652 26.2453 63.5152 26.2453C61.5402 26.2453 59.4402 25.1203 59.4402 22.4703C59.4402 19.0703 62.1402 18.4453 65.2652 18.1953C67.6652 17.9953 68.5902 17.8953 68.5902 16.6203C68.5902 15.6953 67.8652 15.1953 66.5902 15.1953C65.1902 15.1953 64.2652 15.7453 63.9652 17.0203H60.9652C61.3902 14.3953 63.4152 12.7953 66.7152 12.7953C69.8902 12.7953 72.2902 14.1703 71.5902 17.8953L70.3902 24.0453C70.2152 24.9203 70.2902 25.5203 70.4902 25.8203V25.9453H67.3152ZM62.6652 22.1703C62.6652 23.3203 63.4652 23.9203 64.5902 23.9203C66.3402 23.9203 67.4652 22.8203 67.7152 21.6453L68.1152 19.6203C67.4652 19.9203 66.7652 20.0703 65.6652 20.2703C64.4402 20.4953 62.6652 20.4203 62.6652 22.1703ZM72.207 25.9453L75.657 8.07031H79.007L75.557 25.9453H72.207ZM77.7979 25.9453L81.2479 8.07031H84.5979L81.1479 25.9453H77.7979ZM96.1637 20.4703H87.2387C87.2387 22.4953 87.9137 23.7203 89.8637 23.7203C91.0387 23.7203 92.0137 23.2203 92.4887 22.1203H95.7887C95.3887 23.3203 94.7137 24.2953 93.8137 24.9953C92.7387 25.8453 91.3637 26.2953 89.8137 26.3203C86.4887 26.3203 83.9137 24.4703 83.9137 20.4203C83.9137 16.6953 86.6387 12.7703 90.7887 12.7703C92.1887 12.7703 93.1637 13.0453 94.0137 13.5953C95.9387 14.8453 96.6387 17.3953 96.1637 20.4703ZM90.7137 15.3703C88.9387 15.3703 87.9887 16.6453 87.5387 18.1453H93.0637C93.1137 16.6453 92.4387 15.3703 90.7137 15.3703ZM102.394 13.1203L102.019 15.1453H102.094C103.194 13.5703 104.269 12.7703 106.094 12.7703C108.644 12.7703 110.119 14.8453 109.544 17.8453L107.994 25.9453H104.644L106.144 18.2453C106.469 16.5453 105.819 15.6203 104.394 15.6203C102.819 15.6203 101.694 17.0703 101.344 18.9453L99.9943 25.9453H96.6443L99.1193 13.1203H102.394ZM115.673 30.3203C113.123 30.3203 110.623 29.1953 110.298 26.3203H113.698C113.898 27.2453 114.548 27.7703 115.748 27.7703C117.348 27.7703 118.223 26.6953 118.523 25.0703L118.773 23.7703H118.698C117.848 24.6203 117.048 25.1703 115.548 25.1703C112.648 25.1703 110.723 23.0203 110.723 19.9453C110.723 16.1953 113.098 12.7703 116.973 12.7703C118.623 12.7703 119.948 13.4703 120.573 14.6703H120.623L120.923 13.1203H124.148L121.773 25.3953C121.473 26.9453 120.873 28.0453 119.948 28.8953C118.923 29.8453 117.673 30.3203 115.673 30.3203ZM116.523 22.4703C118.648 22.4703 119.923 20.4453 119.898 18.3203C119.873 16.6703 118.998 15.4703 117.348 15.4703C115.273 15.4703 114.048 17.4203 114.048 19.6953C114.048 21.2953 114.873 22.4703 116.523 22.4703ZM136.642 20.4703H127.717C127.717 22.4953 128.392 23.7203 130.342 23.7203C131.517 23.7203 132.492 23.2203 132.967 22.1203H136.267C135.867 23.3203 135.192 24.2953 134.292 24.9953C133.217 25.8453 131.842 26.2953 130.292 26.3203C126.967 26.3203 124.392 24.4703 124.392 20.4203C124.392 16.6953 127.117 12.7703 131.267 12.7703C132.667 12.7703 133.642 13.0453 134.492 13.5953C136.417 14.8453 137.117 17.3953 136.642 20.4703ZM131.192 15.3703C129.417 15.3703 128.467 16.6453 128.017 18.1453H133.542C133.592 16.6453 132.917 15.3703 131.192 15.3703Z" fill="white"/>
</svg>
