<svg width="336" height="39" viewBox="0 0 336 39" fill="none" xmlns="http://www.w3.org/2000/svg">
<path d="M308.009 0.015625L-17.4854 0.020721L-28.2031 38.3319L297.58 38.5934L308.009 0.015625Z" fill="white"/>
<path d="M37.9742 27.7344C33.2242 27.7344 30.5742 24.5344 30.5742 20.1344C30.5742 14.6844 34.0742 9.13437 40.1242 9.13437C43.7492 9.13437 46.4742 10.9594 46.6992 15.1594H43.1742C42.9992 13.1344 41.8992 12.1594 39.8492 12.1594C35.9492 12.1594 34.2242 16.3844 34.2242 20.0844C34.2242 22.5594 35.2242 24.7844 38.2492 24.7844C40.3492 24.7844 41.7992 23.5844 42.4242 21.6094H45.9492C45.4492 23.4844 44.5492 25.1094 43.1492 26.1844C41.6742 27.3094 40.1492 27.7344 37.9742 27.7344ZM53.2146 27.7344C49.8646 27.7344 47.1896 25.6844 47.1896 21.7594C47.1896 17.7094 50.0396 14.1844 54.4146 14.1844C57.6896 14.1844 60.3396 16.2344 60.3396 20.0344C60.3396 24.1344 57.5896 27.7344 53.2146 27.7344ZM50.5396 21.9594C50.5396 23.7094 51.3146 25.2094 53.2896 25.2094C55.8896 25.2094 56.9896 22.3844 56.9896 19.9344C56.9896 18.2594 56.2146 16.7094 54.2396 16.7094C51.6646 16.7094 50.5396 19.4844 50.5396 21.9594ZM60.6033 27.3594L63.0783 14.5344H66.3033L65.9533 16.4094H66.0283C66.9033 15.0344 68.0533 14.1844 69.6283 14.1844C71.3533 14.1844 72.3283 15.2094 72.7033 16.6344H72.7533C73.9033 14.8844 75.3033 14.1844 77.0033 14.1844C79.3033 14.1844 81.0533 15.9844 80.3783 19.3844L78.8533 27.3594H75.5033L77.0283 19.4844C77.3283 17.8844 76.6783 17.0344 75.5033 17.0344C74.0783 17.0344 73.1283 18.3094 72.7533 20.2844L71.4033 27.3594H68.0533L69.5783 19.4844C69.8783 17.8844 69.2283 17.0344 68.0533 17.0344C66.6283 17.0344 65.6783 18.3094 65.3033 20.2844L63.9533 27.3594H60.6033ZM80.0664 31.5594L83.3664 14.5344H86.5914L86.2914 16.1094H86.3664C87.2664 14.9594 88.5664 14.1844 90.2914 14.1844C93.1664 14.1844 94.7164 16.5844 94.7164 19.7844C94.7164 23.4094 92.8664 27.7344 88.3914 27.7344C86.8414 27.7344 85.3664 27.0594 84.6414 25.5594H84.5914L83.4164 31.5594H80.0664ZM85.2664 21.9844C85.2664 23.5344 86.0664 24.9344 87.8914 24.9344C90.4164 24.9344 91.2914 22.2594 91.2914 19.9094C91.2914 18.4094 90.6664 16.9094 88.8414 16.9094C86.4414 16.9094 85.2664 19.6594 85.2664 21.9844ZM107.754 21.8844H98.8295C98.8295 23.9094 99.5045 25.1344 101.454 25.1344C102.629 25.1344 103.604 24.6344 104.079 23.5344H107.379C106.979 24.7344 106.304 25.7094 105.404 26.4094C104.329 27.2594 102.954 27.7094 101.404 27.7344C98.0795 27.7344 95.5045 25.8844 95.5045 21.8344C95.5045 18.1094 98.2295 14.1844 102.379 14.1844C103.779 14.1844 104.754 14.4594 105.604 15.0094C107.529 16.2594 108.229 18.8094 107.754 21.8844ZM102.304 16.7844C100.529 16.7844 99.5795 18.0594 99.1295 19.5594H104.654C104.704 18.0594 104.029 16.7844 102.304 16.7844ZM109.194 16.7844L109.619 14.5344H111.244L112.019 10.5344H115.294L114.519 14.5344H116.669L116.244 16.7844H114.094L112.794 23.4594C112.594 24.4594 112.919 24.8594 113.744 24.8594C114.119 24.8594 114.744 24.8094 114.744 24.8094L114.269 27.3094C114.269 27.3094 113.419 27.3844 112.744 27.3844C110.144 27.3844 108.919 26.4344 109.444 23.7844L110.819 16.7844H109.194ZM128.629 21.8844H119.704C119.704 23.9094 120.379 25.1344 122.329 25.1344C123.504 25.1344 124.479 24.6344 124.954 23.5344H128.254C127.854 24.7344 127.179 25.7094 126.279 26.4094C125.204 27.2594 123.829 27.7094 122.279 27.7344C118.954 27.7344 116.379 25.8844 116.379 21.8344C116.379 18.1094 119.104 14.1844 123.254 14.1844C124.654 14.1844 125.629 14.4594 126.479 15.0094C128.404 16.2594 129.104 18.8094 128.629 21.8844ZM123.179 16.7844C121.404 16.7844 120.454 18.0594 120.004 19.5594H125.529C125.579 18.0594 124.904 16.7844 123.179 16.7844ZM130.068 16.7844L130.493 14.5344H132.118L132.893 10.5344H136.168L135.393 14.5344H137.543L137.118 16.7844H134.968L133.668 23.4594C133.468 24.4594 133.793 24.8594 134.618 24.8594C134.993 24.8594 135.618 24.8094 135.618 24.8094L135.143 27.3094C135.143 27.3094 134.293 27.3844 133.618 27.3844C131.018 27.3844 129.793 26.4344 130.318 23.7844L131.693 16.7844H130.068ZM136.8 27.3594L139.275 14.5344H142.625L140.15 27.3594H136.8ZM139.675 12.5344L140.25 9.48437H143.6L143.025 12.5344H139.675ZM145.746 27.3594L143.621 14.5344H147.021L147.821 21.0094C147.996 22.4094 148.046 23.3094 148.046 23.3094H148.096C148.096 23.3094 148.421 22.4094 149.021 21.1844L152.121 14.5344H155.471L148.946 27.3594H145.746ZM166.69 21.8844H157.765C157.765 23.9094 158.44 25.1344 160.39 25.1344C161.565 25.1344 162.54 24.6344 163.015 23.5344H166.315C165.915 24.7344 165.24 25.7094 164.34 26.4094C163.265 27.2594 161.89 27.7094 160.34 27.7344C157.015 27.7344 154.44 25.8844 154.44 21.8344C154.44 18.1094 157.165 14.1844 161.315 14.1844C162.715 14.1844 163.69 14.4594 164.54 15.0094C166.465 16.2594 167.165 18.8094 166.69 21.8844ZM161.24 16.7844C159.465 16.7844 158.515 18.0594 158.065 19.5594H163.59C163.64 18.0594 162.965 16.7844 161.24 16.7844ZM182.566 27.3594L182.066 23.5344H175.891L174.091 27.3594H170.466L179.616 9.48437H183.316L186.266 27.3594H182.566ZM179.616 15.7094L177.191 20.7844H181.716L181.091 15.7594C180.966 14.7344 180.866 12.9094 180.866 12.9094H180.816C180.816 12.9094 180.066 14.7594 179.616 15.7094ZM193.111 14.5344L192.736 16.5594H192.811C193.911 14.9844 194.986 14.1844 196.811 14.1844C199.361 14.1844 200.836 16.2594 200.261 19.2594L198.711 27.3594H195.361L196.861 19.6594C197.186 17.9594 196.536 17.0344 195.111 17.0344C193.536 17.0344 192.411 18.4844 192.061 20.3594L190.711 27.3594H187.361L189.836 14.5344H193.111ZM208.764 27.3594C208.614 27.0844 208.564 26.5344 208.589 25.9594H208.539C207.764 26.7844 206.814 27.6594 204.964 27.6594C202.989 27.6594 200.889 26.5344 200.889 23.8844C200.889 20.4844 203.589 19.8594 206.714 19.6094C209.114 19.4094 210.039 19.3094 210.039 18.0344C210.039 17.1094 209.314 16.6094 208.039 16.6094C206.639 16.6094 205.714 17.1594 205.414 18.4344H202.414C202.839 15.8094 204.864 14.2094 208.164 14.2094C211.339 14.2094 213.739 15.5844 213.039 19.3094L211.839 25.4594C211.664 26.3344 211.739 26.9344 211.939 27.2344V27.3594H208.764ZM204.114 23.5844C204.114 24.7344 204.914 25.3344 206.039 25.3344C207.789 25.3344 208.914 24.2344 209.164 23.0594L209.564 21.0344C208.914 21.3344 208.214 21.4844 207.114 21.6844C205.889 21.9094 204.114 21.8344 204.114 23.5844ZM213.656 27.3594L217.106 9.48437H220.456L217.006 27.3594H213.656ZM218.925 31.5594L219.45 28.9094H220.525C221.95 28.9094 222.75 28.1344 222.75 26.5344C222.75 25.9094 222.6 24.9594 222.325 23.6594L220.475 14.5344H223.975L224.85 20.3594C225.025 21.5344 225.225 23.2594 225.225 23.2594H225.275C225.275 23.2594 225.9 21.5594 226.45 20.3594L229.1 14.5344H232.5L225.875 27.9844C224.6 30.5594 223.5 31.5594 221.025 31.5594H218.925ZM237.057 27.7344C233.957 27.7344 231.482 26.4344 231.257 23.2094H234.432C234.557 24.3094 235.307 25.2844 237.057 25.2844C238.282 25.2844 239.157 24.8594 239.157 23.8844C239.157 22.9594 238.057 22.6094 236.182 21.9844C234.232 21.3344 232.507 20.5094 232.507 18.2344C232.507 15.6344 234.582 14.1844 237.507 14.1844C240.382 14.1844 242.532 15.6344 242.757 18.4344H239.682C239.532 17.4344 238.832 16.5844 237.407 16.5844C236.507 16.5844 235.482 16.8844 235.482 17.8594C235.482 18.7344 236.632 18.9344 238.607 19.6094C240.457 20.2344 242.232 21.1844 242.232 23.4344C242.232 26.1844 240.307 27.7344 237.057 27.7344ZM243.074 27.3594L245.549 14.5344H248.899L246.424 27.3594H243.074ZM245.949 12.5344L246.524 9.48437H249.874L249.299 12.5344H245.949ZM254.342 27.7344C251.242 27.7344 248.767 26.4344 248.542 23.2094H251.717C251.842 24.3094 252.592 25.2844 254.342 25.2844C255.567 25.2844 256.442 24.8594 256.442 23.8844C256.442 22.9594 255.342 22.6094 253.467 21.9844C251.517 21.3344 249.792 20.5094 249.792 18.2344C249.792 15.6344 251.867 14.1844 254.792 14.1844C257.667 14.1844 259.817 15.6344 260.042 18.4344H256.967C256.817 17.4344 256.117 16.5844 254.692 16.5844C253.792 16.5844 252.767 16.8844 252.767 17.8594C252.767 18.7344 253.917 18.9344 255.892 19.6094C257.742 20.2344 259.517 21.1844 259.517 23.4344C259.517 26.1844 257.592 27.7344 254.342 27.7344Z" fill="black"/>
</svg>
