<svg width="158" height="39" viewBox="0 0 158 39" fill="none" xmlns="http://www.w3.org/2000/svg">
<path d="M157.223 0L-32.2822 0.00099297L-43 38.3121L146.794 38.5778L157.223 0Z" fill="white"/>
<path d="M29.5742 12.9781L30.1492 9.95312H44.0492L43.4742 12.9781H38.2992L35.4242 27.8281H31.8492L34.7242 12.9781H29.5742ZM42.0232 27.8281L44.4982 15.0031H47.8482L45.3732 27.8281H42.0232ZM44.8982 13.0031L45.4732 9.95312H48.8232L48.2482 13.0031H44.8982ZM47.5164 27.8281L49.9914 15.0031H53.2164L52.8664 16.8781H52.9414C53.8164 15.5031 54.9664 14.6531 56.5414 14.6531C58.2664 14.6531 59.2414 15.6781 59.6164 17.1031H59.6664C60.8164 15.3531 62.2164 14.6531 63.9164 14.6531C66.2164 14.6531 67.9664 16.4531 67.2914 19.8531L65.7664 27.8281H62.4164L63.9414 19.9531C64.2414 18.3531 63.5914 17.5031 62.4164 17.5031C60.9914 17.5031 60.0414 18.7781 59.6664 20.7531L58.3164 27.8281H54.9664L56.4914 19.9531C56.7914 18.3531 56.1414 17.5031 54.9664 17.5031C53.5414 17.5031 52.5914 18.7781 52.2164 20.7531L50.8664 27.8281H47.5164ZM80.6295 22.3531H71.7045C71.7045 24.3781 72.3795 25.6031 74.3295 25.6031C75.5045 25.6031 76.4795 25.1031 76.9545 24.0031H80.2545C79.8545 25.2031 79.1795 26.1781 78.2795 26.8781C77.2045 27.7281 75.8295 28.1781 74.2795 28.2031C70.9545 28.2031 68.3795 26.3531 68.3795 22.3031C68.3795 18.5781 71.1045 14.6531 75.2545 14.6531C76.6545 14.6531 77.6295 14.9281 78.4795 15.4781C80.4045 16.7281 81.1045 19.2781 80.6295 22.3531ZM75.1795 17.2531C73.4045 17.2531 72.4545 18.5281 72.0045 20.0281H77.5295C77.5795 18.5281 76.9045 17.2531 75.1795 17.2531ZM81.1602 27.8281L84.6102 9.95312H87.9602L84.5102 27.8281H81.1602ZM86.701 27.8281L89.176 15.0031H92.526L90.051 27.8281H86.701ZM89.576 13.0031L90.151 9.95312H93.501L92.926 13.0031H89.576ZM97.9441 15.0031L97.5691 17.0281H97.6441C98.7441 15.4531 99.8191 14.6531 101.644 14.6531C104.194 14.6531 105.669 16.7281 105.094 19.7281L103.544 27.8281H100.194L101.694 20.1281C102.019 18.4281 101.369 17.5031 99.9441 17.5031C98.3691 17.5031 97.2441 18.9531 96.8941 20.8281L95.5441 27.8281H92.1941L94.6691 15.0031H97.9441ZM118.422 22.3531H109.497C109.497 24.3781 110.172 25.6031 112.122 25.6031C113.297 25.6031 114.272 25.1031 114.747 24.0031H118.047C117.647 25.2031 116.972 26.1781 116.072 26.8781C114.997 27.7281 113.622 28.1781 112.072 28.2031C108.747 28.2031 106.172 26.3531 106.172 22.3031C106.172 18.5781 108.897 14.6531 113.047 14.6531C114.447 14.6531 115.422 14.9281 116.272 15.4781C118.197 16.7281 118.897 19.2781 118.422 22.3531ZM112.972 17.2531C111.197 17.2531 110.247 18.5281 109.797 20.0281H115.322C115.372 18.5281 114.697 17.2531 112.972 17.2531Z" fill="black"/>
</svg>
