<svg width="336" height="40" viewBox="0 0 336 40" fill="none" xmlns="http://www.w3.org/2000/svg">
<path d="M241.876 0.609375L-17.4854 0.617188L-28.2031 38.9283L231.447 39.1871L241.876 0.609375Z" fill="white"/>
<path d="M29.7992 27.9531L33.2492 10.0781H45.4742L44.8992 13.1281H36.2492L35.3992 17.4531H42.9242L42.3242 20.5281H34.7992L33.3742 27.9531H29.7992ZM43.7332 27.9531L46.2082 15.1281H49.5582L47.0832 27.9531H43.7332ZM46.6082 13.1281L47.1832 10.0781H50.5332L49.9582 13.1281H46.6082ZM54.9764 15.1281L54.6014 17.1531H54.6764C55.7764 15.5781 56.8514 14.7781 58.6764 14.7781C61.2264 14.7781 62.7014 16.8531 62.1264 19.8531L60.5764 27.9531H57.2264L58.7264 20.2531C59.0514 18.5531 58.4014 17.6281 56.9764 17.6281C55.4014 17.6281 54.2764 19.0781 53.9264 20.9531L52.5764 27.9531H49.2264L51.7014 15.1281H54.9764ZM70.6297 27.9531C70.4797 27.6781 70.4297 27.1281 70.4547 26.5531H70.4047C69.6297 27.3781 68.6797 28.2531 66.8297 28.2531C64.8547 28.2531 62.7547 27.1281 62.7547 24.4781C62.7547 21.0781 65.4547 20.4531 68.5797 20.2031C70.9797 20.0031 71.9047 19.9031 71.9047 18.6281C71.9047 17.7031 71.1797 17.2031 69.9047 17.2031C68.5047 17.2031 67.5797 17.7531 67.2797 19.0281H64.2797C64.7047 16.4031 66.7297 14.8031 70.0297 14.8031C73.2047 14.8031 75.6047 16.1781 74.9047 19.9031L73.7047 26.0531C73.5297 26.9281 73.6047 27.5281 73.8047 27.8281V27.9531H70.6297ZM65.9797 24.1781C65.9797 25.3281 66.7797 25.9281 67.9047 25.9281C69.6547 25.9281 70.7797 24.8281 71.0297 23.6531L71.4297 21.6281C70.7797 21.9281 70.0797 22.0781 68.9797 22.2781C67.7547 22.5031 65.9797 22.4281 65.9797 24.1781ZM75.5215 27.9531L78.9715 10.0781H82.3215L78.8715 27.9531H75.5215ZM85.683 27.9531L89.133 10.0781H94.808C99.208 10.0781 102.083 12.6531 102.083 17.6531C102.083 21.0781 101.233 23.4781 99.483 25.3281C97.933 26.9781 95.408 27.9531 92.708 27.9531H85.683ZM89.858 24.8281H92.733C96.483 24.8281 98.458 22.1531 98.458 17.7531C98.458 14.8031 97.083 13.1781 94.358 13.1781H92.108L89.858 24.8281ZM115.079 22.4781H106.154C106.154 24.5031 106.829 25.7281 108.779 25.7281C109.954 25.7281 110.929 25.2281 111.404 24.1281H114.704C114.304 25.3281 113.629 26.3031 112.729 27.0031C111.654 27.8531 110.279 28.3031 108.729 28.3281C105.404 28.3281 102.829 26.4781 102.829 22.4281C102.829 18.7031 105.554 14.7781 109.704 14.7781C111.104 14.7781 112.079 15.0531 112.929 15.6031C114.854 16.8531 115.554 19.4031 115.079 22.4781ZM109.629 17.3781C107.854 17.3781 106.904 18.6531 106.454 20.1531H111.979C112.029 18.6531 111.354 17.3781 109.629 17.3781ZM115.609 27.9531L119.059 10.0781H122.409L118.959 27.9531H115.609ZM121.15 27.9531L123.625 15.1281H126.975L124.5 27.9531H121.15ZM124.025 13.1281L124.6 10.0781H127.95L127.375 13.1281H124.025ZM130.096 27.9531L127.971 15.1281H131.371L132.171 21.6031C132.346 23.0031 132.396 23.9031 132.396 23.9031H132.446C132.446 23.9031 132.771 23.0031 133.371 21.7781L136.471 15.1281H139.821L133.296 27.9531H130.096ZM151.041 22.4781H142.116C142.116 24.5031 142.791 25.7281 144.741 25.7281C145.916 25.7281 146.891 25.2281 147.366 24.1281H150.666C150.266 25.3281 149.591 26.3031 148.691 27.0031C147.616 27.8531 146.241 28.3031 144.691 28.3281C141.366 28.3281 138.791 26.4781 138.791 22.4281C138.791 18.7031 141.516 14.7781 145.666 14.7781C147.066 14.7781 148.041 15.0531 148.891 15.6031C150.816 16.8531 151.516 19.4031 151.041 22.4781ZM145.591 17.3781C143.816 17.3781 142.866 18.6531 142.416 20.1531H147.941C147.991 18.6531 147.316 17.3781 145.591 17.3781ZM157.221 15.1281L156.821 17.1781H156.896C157.646 15.9031 158.671 14.9781 160.271 14.9781C160.746 14.9781 161.046 15.0281 161.221 15.0781L160.646 18.0281H160.571C158.246 17.7281 156.621 18.8031 156.071 21.7031L154.871 27.9531H151.521L153.996 15.1281H157.221ZM168.091 27.9531C167.941 27.6781 167.891 27.1281 167.916 26.5531H167.866C167.091 27.3781 166.141 28.2531 164.291 28.2531C162.316 28.2531 160.216 27.1281 160.216 24.4781C160.216 21.0781 162.916 20.4531 166.041 20.2031C168.441 20.0031 169.366 19.9031 169.366 18.6281C169.366 17.7031 168.641 17.2031 167.366 17.2031C165.966 17.2031 165.041 17.7531 164.741 19.0281H161.741C162.166 16.4031 164.191 14.8031 167.491 14.8031C170.666 14.8031 173.066 16.1781 172.366 19.9031L171.166 26.0531C170.991 26.9281 171.066 27.5281 171.266 27.8281V27.9531H168.091ZM163.441 24.1781C163.441 25.3281 164.241 25.9281 165.366 25.9281C167.116 25.9281 168.241 24.8281 168.491 23.6531L168.891 21.6281C168.241 21.9281 167.541 22.0781 166.441 22.2781C165.216 22.5031 163.441 22.4281 163.441 24.1781ZM180.432 28.3281C178.832 28.3281 177.282 27.7031 176.557 26.0781H176.507L176.157 27.9531H172.932L176.382 10.0781H179.732L178.457 16.6281H178.532C179.382 15.5781 180.632 14.7781 182.207 14.7781C185.057 14.7781 186.682 17.0281 186.682 20.1781C186.682 24.3031 184.707 28.3281 180.432 28.3281ZM177.332 22.5531C177.332 24.1281 178.107 25.5031 179.957 25.5031C182.382 25.5031 183.232 22.7281 183.232 20.4281C183.232 18.9281 182.682 17.5031 180.857 17.5031C178.382 17.5031 177.332 20.3281 177.332 22.5531ZM186.947 27.9531L190.397 10.0781H193.747L190.297 27.9531H186.947ZM205.313 22.4781H196.388C196.388 24.5031 197.063 25.7281 199.013 25.7281C200.188 25.7281 201.163 25.2281 201.638 24.1281H204.938C204.538 25.3281 203.863 26.3031 202.963 27.0031C201.888 27.8531 200.513 28.3031 198.963 28.3281C195.638 28.3281 193.063 26.4781 193.063 22.4281C193.063 18.7031 195.788 14.7781 199.938 14.7781C201.338 14.7781 202.313 15.0531 203.163 15.6031C205.088 16.8531 205.788 19.4031 205.313 22.4781ZM199.863 17.3781C198.088 17.3781 197.138 18.6531 196.688 20.1531H202.213C202.263 18.6531 201.588 17.3781 199.863 17.3781ZM211.569 28.3281C208.469 28.3281 205.994 27.0281 205.769 23.8031H208.944C209.069 24.9031 209.819 25.8781 211.569 25.8781C212.794 25.8781 213.669 25.4531 213.669 24.4781C213.669 23.5531 212.569 23.2031 210.694 22.5781C208.744 21.9281 207.019 21.1031 207.019 18.8281C207.019 16.2281 209.094 14.7781 212.019 14.7781C214.894 14.7781 217.044 16.2281 217.269 19.0281H214.194C214.044 18.0281 213.344 17.1781 211.919 17.1781C211.019 17.1781 209.994 17.4781 209.994 18.4531C209.994 19.3281 211.144 19.5281 213.119 20.2031C214.969 20.8281 216.744 21.7781 216.744 24.0281C216.744 26.7781 214.819 28.3281 211.569 28.3281Z" fill="black"/>
</svg>
