<svg width="336" height="40" viewBox="0 0 336 40" fill="none" xmlns="http://www.w3.org/2000/svg">
<path d="M215.546 0.507812L-17.4854 0.515625L-28.2031 38.8268L205.117 39.0856L215.546 0.507812Z" fill="white"/>
<path d="M37.1742 28.1516C32.7742 28.1516 29.9992 26.0266 30.8492 21.5766L33.0992 9.97656H36.6742L34.3742 21.8516C33.9492 23.9766 34.7492 25.2766 37.2492 25.2766C39.4992 25.2766 40.4742 24.0266 40.8242 22.3016L43.1992 9.97656H46.7492L44.2992 22.6266C43.5992 26.1766 41.2742 28.1516 37.1742 28.1516ZM51.3393 28.2266C48.2393 28.2266 45.7643 26.9266 45.5393 23.7016H48.7143C48.8393 24.8016 49.5893 25.7766 51.3393 25.7766C52.5643 25.7766 53.4393 25.3516 53.4393 24.3766C53.4393 23.4516 52.3393 23.1016 50.4643 22.4766C48.5143 21.8266 46.7893 21.0016 46.7893 18.7266C46.7893 16.1266 48.8643 14.6766 51.7893 14.6766C54.6643 14.6766 56.8143 16.1266 57.0393 18.9266H53.9643C53.8143 17.9266 53.1143 17.0766 51.6893 17.0766C50.7893 17.0766 49.7643 17.3766 49.7643 18.3516C49.7643 19.2266 50.9143 19.4266 52.8893 20.1016C54.7393 20.7266 56.5143 21.6766 56.5143 23.9266C56.5143 26.6766 54.5893 28.2266 51.3393 28.2266ZM69.9371 22.3766H61.0121C61.0121 24.4016 61.6871 25.6266 63.6371 25.6266C64.8121 25.6266 65.7871 25.1266 66.2621 24.0266H69.5621C69.1621 25.2266 68.4871 26.2016 67.5871 26.9016C66.5121 27.7516 65.1371 28.2016 63.5871 28.2266C60.2621 28.2266 57.6871 26.3766 57.6871 22.3266C57.6871 18.6016 60.4121 14.6766 64.5621 14.6766C65.9621 14.6766 66.9371 14.9516 67.7871 15.5016C69.7121 16.7516 70.4121 19.3016 69.9371 22.3766ZM64.4871 17.2766C62.7121 17.2766 61.7621 18.5516 61.3121 20.0516H66.8371C66.8871 18.5516 66.2121 17.2766 64.4871 17.2766ZM76.1178 15.0266L75.7178 17.0766H75.7928C76.5428 15.8016 77.5678 14.8766 79.1678 14.8766C79.6428 14.8766 79.9428 14.9266 80.1178 14.9766L79.5428 17.9266H79.4678C77.1428 17.6266 75.5178 18.7016 74.9678 21.6016L73.7678 27.8516H70.4178L72.8928 15.0266H76.1178ZM83.7549 27.8516L87.2049 9.97656H90.7799L87.3299 27.8516H83.7549ZM95.5281 15.0266L95.1531 17.0516H95.2281C96.3281 15.4766 97.4031 14.6766 99.2281 14.6766C101.778 14.6766 103.253 16.7516 102.678 19.7516L101.128 27.8516H97.7781L99.2781 20.1516C99.6031 18.4516 98.9531 17.5266 97.5281 17.5266C95.9531 17.5266 94.8281 18.9766 94.4781 20.8516L93.1281 27.8516H89.7781L92.2531 15.0266H95.5281ZM104.14 17.2766L104.565 15.0266H106.19L106.965 11.0266H110.24L109.465 15.0266H111.615L111.19 17.2766H109.04L107.74 23.9516C107.54 24.9516 107.865 25.3516 108.69 25.3516C109.065 25.3516 109.69 25.3016 109.69 25.3016L109.215 27.8016C109.215 27.8016 108.365 27.8766 107.69 27.8766C105.09 27.8766 103.865 26.9266 104.39 24.2766L105.765 17.2766H104.14ZM123.575 22.3766H114.65C114.65 24.4016 115.325 25.6266 117.275 25.6266C118.45 25.6266 119.425 25.1266 119.9 24.0266H123.2C122.8 25.2266 122.125 26.2016 121.225 26.9016C120.15 27.7516 118.775 28.2016 117.225 28.2266C113.9 28.2266 111.325 26.3766 111.325 22.3266C111.325 18.6016 114.05 14.6766 118.2 14.6766C119.6 14.6766 120.575 14.9516 121.425 15.5016C123.35 16.7516 124.05 19.3016 123.575 22.3766ZM118.125 17.2766C116.35 17.2766 115.4 18.5516 114.95 20.0516H120.475C120.525 18.5516 119.85 17.2766 118.125 17.2766ZM129.755 15.0266L129.355 17.0766H129.43C130.18 15.8016 131.205 14.8766 132.805 14.8766C133.28 14.8766 133.58 14.9266 133.755 14.9766L133.18 17.9266H133.105C130.78 17.6266 129.155 18.7016 128.605 21.6016L127.405 27.8516H124.055L126.53 15.0266H129.755ZM136.688 27.8516L134.563 15.0266H137.963L138.763 21.5016C138.938 22.9016 138.988 23.8016 138.988 23.8016H139.038C139.038 23.8016 139.363 22.9016 139.963 21.6766L143.063 15.0266H146.413L139.888 27.8516H136.688ZM145.052 27.8516L147.527 15.0266H150.877L148.402 27.8516H145.052ZM147.927 13.0266L148.502 9.97656H151.852L151.277 13.0266H147.927ZM163.37 22.3766H154.445C154.445 24.4016 155.12 25.6266 157.07 25.6266C158.245 25.6266 159.22 25.1266 159.695 24.0266H162.995C162.595 25.2266 161.92 26.2016 161.02 26.9016C159.945 27.7516 158.57 28.2016 157.02 28.2266C153.695 28.2266 151.12 26.3766 151.12 22.3266C151.12 18.6016 153.845 14.6766 157.995 14.6766C159.395 14.6766 160.37 14.9516 161.22 15.5016C163.145 16.7516 163.845 19.3016 163.37 22.3766ZM157.92 17.2766C156.145 17.2766 155.195 18.5516 154.745 20.0516H160.27C160.32 18.5516 159.645 17.2766 157.92 17.2766ZM166.166 27.8516L164.716 15.0266H167.966L168.441 20.9766C168.516 22.0266 168.566 23.4266 168.566 23.4266H168.616C168.616 23.4266 169.166 22.0016 169.616 20.9516L172.191 15.0266H175.041L175.741 20.9516C175.866 22.0266 175.916 23.4266 175.916 23.4266H175.966C175.966 23.4266 176.516 22.0266 176.941 20.9766L179.341 15.0266H182.641L176.916 27.8516H173.916L173.241 21.5516C173.141 20.5266 173.016 19.0516 173.016 19.0516H172.966C172.966 19.0516 172.416 20.5266 171.966 21.5516L169.191 27.8516H166.166ZM187.301 28.2266C184.201 28.2266 181.726 26.9266 181.501 23.7016H184.676C184.801 24.8016 185.551 25.7766 187.301 25.7766C188.526 25.7766 189.401 25.3516 189.401 24.3766C189.401 23.4516 188.301 23.1016 186.426 22.4766C184.476 21.8266 182.751 21.0016 182.751 18.7266C182.751 16.1266 184.826 14.6766 187.751 14.6766C190.626 14.6766 192.776 16.1266 193.001 18.9266H189.926C189.776 17.9266 189.076 17.0766 187.651 17.0766C186.751 17.0766 185.726 17.3766 185.726 18.3516C185.726 19.2266 186.876 19.4266 188.851 20.1016C190.701 20.7266 192.476 21.6766 192.476 23.9266C192.476 26.6766 190.551 28.2266 187.301 28.2266Z" fill="black"/>
</svg>
