<svg width="306" height="40" viewBox="0 0 306 40" fill="none" xmlns="http://www.w3.org/2000/svg">
<path d="M160.223 0L-29.2822 0.001012L-40 39.0462L149.794 39.317L160.223 0Z" fill="#FFDB3B"/>
<path d="M38.2242 27.4781C33.6242 27.4781 30.4492 24.6031 30.4492 19.8031C30.4492 14.0531 33.7742 8.85312 39.7742 8.85312C44.3992 8.85312 47.4742 11.9281 47.4742 16.6531C47.4742 22.2781 44.3242 27.4781 38.2242 27.4781ZM34.0992 19.7281C34.0992 22.4031 35.2992 24.5281 38.3742 24.5281C42.3992 24.5281 43.8242 20.2031 43.8242 16.7531C43.8242 13.9781 42.5242 11.8031 39.5492 11.8031C35.5992 11.8031 34.0992 16.1281 34.0992 19.7281ZM50.6744 27.0781L48.5494 14.2531H51.9494L52.7494 20.7281C52.9244 22.1281 52.9744 23.0281 52.9744 23.0281H53.0244C53.0244 23.0281 53.3494 22.1281 53.9494 20.9031L57.0494 14.2531H60.3994L53.8744 27.0781H50.6744ZM71.6188 21.6031H62.6938C62.6938 23.6281 63.3688 24.8531 65.3188 24.8531C66.4938 24.8531 67.4688 24.3531 67.9438 23.2531H71.2438C70.8438 24.4531 70.1688 25.4281 69.2688 26.1281C68.1938 26.9781 66.8188 27.4281 65.2688 27.4531C61.9438 27.4531 59.3688 25.6031 59.3688 21.5531C59.3688 17.8281 62.0938 13.9031 66.2438 13.9031C67.6438 13.9031 68.6188 14.1781 69.4688 14.7281C71.3938 15.9781 72.0938 18.5281 71.6188 21.6031ZM66.1688 16.5031C64.3938 16.5031 63.4438 17.7781 62.9938 19.2781H68.5188C68.5688 17.7781 67.8938 16.5031 66.1688 16.5031ZM77.7994 14.2531L77.3994 16.3031H77.4744C78.2244 15.0281 79.2494 14.1031 80.8494 14.1031C81.3244 14.1031 81.6244 14.1531 81.7994 14.2031L81.2244 17.1531H81.1494C78.8244 16.8531 77.1994 17.9281 76.6494 20.8281L75.4494 27.0781H72.0994L74.5744 14.2531H77.7994ZM84.732 27.0781L82.607 14.2531H86.007L86.807 20.7281C86.982 22.1281 87.032 23.0281 87.032 23.0281H87.082C87.082 23.0281 87.407 22.1281 88.007 20.9031L91.107 14.2531H94.457L87.932 27.0781H84.732ZM93.0955 27.0781L95.5705 14.2531H98.9205L96.4455 27.0781H93.0955ZM95.9705 12.2531L96.5455 9.20312H99.8955L99.3205 12.2531H95.9705ZM111.414 21.6031H102.489C102.489 23.6281 103.164 24.8531 105.114 24.8531C106.289 24.8531 107.264 24.3531 107.739 23.2531H111.039C110.639 24.4531 109.964 25.4281 109.064 26.1281C107.989 26.9781 106.614 27.4281 105.064 27.4531C101.739 27.4531 99.1637 25.6031 99.1637 21.5531C99.1637 17.8281 101.889 13.9031 106.039 13.9031C107.439 13.9031 108.414 14.1781 109.264 14.7281C111.189 15.9781 111.889 18.5281 111.414 21.6031ZM105.964 16.5031C104.189 16.5031 103.239 17.7781 102.789 19.2781H108.314C108.364 17.7781 107.689 16.5031 105.964 16.5031ZM114.21 27.0781L112.76 14.2531H116.01L116.485 20.2031C116.56 21.2531 116.61 22.6531 116.61 22.6531H116.66C116.66 22.6531 117.21 21.2281 117.66 20.1781L120.235 14.2531H123.085L123.785 20.1781C123.91 21.2531 123.96 22.6531 123.96 22.6531H124.01C124.01 22.6531 124.56 21.2531 124.985 20.2031L127.385 14.2531H130.685L124.96 27.0781H121.96L121.285 20.7781C121.185 19.7531 121.06 18.2781 121.06 18.2781H121.01C121.01 18.2781 120.46 19.7531 120.01 20.7781L117.235 27.0781H114.21Z" fill="black"/>
</svg>
