<svg width="336" height="39" viewBox="0 0 336 39" fill="none" xmlns="http://www.w3.org/2000/svg">
<path d="M153.534 0.15625L-17.4854 0.164062L-28.2031 38.4752L143.105 38.734L153.534 0.15625Z" fill="white"/>
<path d="M29.7992 27.5L33.2492 9.625H40.1242C43.5492 9.625 45.8242 11.55 45.8242 14.9C45.8242 18.725 43.0992 21.025 39.0992 21.025H34.7492L33.4992 27.5H29.7992ZM36.3492 12.75L35.3242 18.1H38.9242C40.5992 18.1 42.1242 17.2 42.1242 15.075C42.1242 13.625 41.2742 12.75 39.6492 12.75H36.3492ZM57.7057 22.025H48.7807C48.7807 24.05 49.4557 25.275 51.4057 25.275C52.5807 25.275 53.5557 24.775 54.0307 23.675H57.3307C56.9307 24.875 56.2557 25.85 55.3557 26.55C54.2807 27.4 52.9057 27.85 51.3557 27.875C48.0307 27.875 45.4557 26.025 45.4557 21.975C45.4557 18.25 48.1807 14.325 52.3307 14.325C53.7307 14.325 54.7057 14.6 55.5557 15.15C57.4807 16.4 58.1807 18.95 57.7057 22.025ZM52.2557 16.925C50.4807 16.925 49.5307 18.2 49.0807 19.7H54.6057C54.6557 18.2 53.9807 16.925 52.2557 16.925ZM63.8863 14.675L63.4863 16.725H63.5613C64.3113 15.45 65.3363 14.525 66.9363 14.525C67.4113 14.525 67.7113 14.575 67.8863 14.625L67.3113 17.575H67.2363C64.9113 17.275 63.2863 18.35 62.7363 21.25L61.5363 27.5H58.1863L60.6613 14.675H63.8863ZM73.0189 27.875C69.9189 27.875 67.4439 26.575 67.2189 23.35H70.3939C70.5189 24.45 71.2689 25.425 73.0189 25.425C74.2439 25.425 75.1189 25 75.1189 24.025C75.1189 23.1 74.0189 22.75 72.1439 22.125C70.1939 21.475 68.4689 20.65 68.4689 18.375C68.4689 15.775 70.5439 14.325 73.4689 14.325C76.3439 14.325 78.4939 15.775 78.7189 18.575H75.6439C75.4939 17.575 74.7939 16.725 73.3689 16.725C72.4689 16.725 71.4439 17.025 71.4439 18C71.4439 18.875 72.5939 19.075 74.5689 19.75C76.4189 20.375 78.1939 21.325 78.1939 23.575C78.1939 26.325 76.2689 27.875 73.0189 27.875ZM85.4168 27.875C82.0668 27.875 79.3918 25.825 79.3918 21.9C79.3918 17.85 82.2418 14.325 86.6168 14.325C89.8918 14.325 92.5418 16.375 92.5418 20.175C92.5418 24.275 89.7918 27.875 85.4168 27.875ZM82.7418 22.1C82.7418 23.85 83.5168 25.35 85.4918 25.35C88.0918 25.35 89.1918 22.525 89.1918 20.075C89.1918 18.4 88.4168 16.85 86.4418 16.85C83.8668 16.85 82.7418 19.625 82.7418 22.1ZM98.5555 14.675L98.1805 16.7H98.2555C99.3555 15.125 100.43 14.325 102.255 14.325C104.805 14.325 106.28 16.4 105.705 19.4L104.155 27.5H100.805L102.305 19.8C102.63 18.1 101.98 17.175 100.555 17.175C98.9805 17.175 97.8555 18.625 97.5055 20.5L96.1555 27.5H92.8055L95.2805 14.675H98.5555ZM114.209 27.5C114.059 27.225 114.009 26.675 114.034 26.1H113.984C113.209 26.925 112.259 27.8 110.409 27.8C108.434 27.8 106.334 26.675 106.334 24.025C106.334 20.625 109.034 20 112.159 19.75C114.559 19.55 115.484 19.45 115.484 18.175C115.484 17.25 114.759 16.75 113.484 16.75C112.084 16.75 111.159 17.3 110.859 18.575H107.859C108.284 15.95 110.309 14.35 113.609 14.35C116.784 14.35 119.184 15.725 118.484 19.45L117.284 25.6C117.109 26.475 117.184 27.075 117.384 27.375V27.5H114.209ZM109.559 23.725C109.559 24.875 110.359 25.475 111.484 25.475C113.234 25.475 114.359 24.375 114.609 23.2L115.009 21.175C114.359 21.475 113.659 21.625 112.559 21.825C111.334 22.05 109.559 21.975 109.559 23.725ZM124.704 27.875C121.604 27.875 119.129 26.575 118.904 23.35H122.079C122.204 24.45 122.954 25.425 124.704 25.425C125.929 25.425 126.804 25 126.804 24.025C126.804 23.1 125.704 22.75 123.829 22.125C121.879 21.475 120.154 20.65 120.154 18.375C120.154 15.775 122.229 14.325 125.154 14.325C128.029 14.325 130.179 15.775 130.404 18.575H127.329C127.179 17.575 126.479 16.725 125.054 16.725C124.154 16.725 123.129 17.025 123.129 18C123.129 18.875 124.279 19.075 126.254 19.75C128.104 20.375 129.879 21.325 129.879 23.575C129.879 26.325 127.954 27.875 124.704 27.875Z" fill="black"/>
</svg>
