<svg width="336" height="40" viewBox="0 0 336 40" fill="none" xmlns="http://www.w3.org/2000/svg">
<path d="M215.546 0.507812L-17.4854 0.515625L-28.2031 38.8268L205.117 39.0856L215.546 0.507812Z" fill="white"/>
<path d="M29.7992 27.8516L33.2492 9.97656H40.1242C43.5492 9.97656 45.8242 11.9016 45.8242 15.2516C45.8242 19.0766 43.0992 21.3766 39.0992 21.3766H34.7492L33.4992 27.8516H29.7992ZM36.3492 13.1016L35.3242 18.4516H38.9242C40.5992 18.4516 42.1242 17.5516 42.1242 15.4266C42.1242 13.9766 41.2742 13.1016 39.6492 13.1016H36.3492ZM50.7027 15.0266L50.3027 17.0766H50.3777C51.1277 15.8016 52.1527 14.8766 53.7527 14.8766C54.2277 14.8766 54.5277 14.9266 54.7027 14.9766L54.1277 17.9266H54.0527C51.7277 17.6266 50.1027 18.7016 49.5527 21.6016L48.3527 27.8516H45.0027L47.4777 15.0266H50.7027ZM60.1971 28.2266C56.8471 28.2266 54.1721 26.1766 54.1721 22.2516C54.1721 18.2016 57.0221 14.6766 61.3971 14.6766C64.6721 14.6766 67.3221 16.7266 67.3221 20.5266C67.3221 24.6266 64.5721 28.2266 60.1971 28.2266ZM57.5221 22.4516C57.5221 24.2016 58.2971 25.7016 60.2721 25.7016C62.8721 25.7016 63.9721 22.8766 63.9721 20.4266C63.9721 18.7516 63.1971 17.2016 61.2221 17.2016C58.6471 17.2016 57.5221 19.9766 57.5221 22.4516ZM73.8857 28.2266C70.7607 28.2266 68.1607 26.4766 68.1607 22.5516C68.1607 18.6016 70.7857 14.6766 75.1607 14.6766C78.0107 14.6766 80.3107 16.0266 80.4857 19.3766H77.2107C77.0857 18.1516 76.4107 17.3766 75.0607 17.3766C72.5857 17.3766 71.5107 20.2016 71.5107 22.6516C71.5107 24.3016 72.2357 25.5266 74.0857 25.5266C75.3357 25.5266 76.3107 24.8516 76.7607 23.3266H80.0107C79.3107 26.4016 77.0357 28.2266 73.8857 28.2266ZM93.2525 22.3766H84.3275C84.3275 24.4016 85.0025 25.6266 86.9525 25.6266C88.1275 25.6266 89.1025 25.1266 89.5775 24.0266H92.8775C92.4775 25.2266 91.8025 26.2016 90.9025 26.9016C89.8275 27.7516 88.4525 28.2016 86.9025 28.2266C83.5775 28.2266 81.0025 26.3766 81.0025 22.3266C81.0025 18.6016 83.7275 14.6766 87.8775 14.6766C89.2775 14.6766 90.2525 14.9516 91.1025 15.5016C93.0275 16.7516 93.7275 19.3016 93.2525 22.3766ZM87.8025 17.2766C86.0275 17.2766 85.0775 18.5516 84.6275 20.0516H90.1525C90.2025 18.5516 89.5275 17.2766 87.8025 17.2766ZM99.5082 28.2266C96.4082 28.2266 93.9332 26.9266 93.7082 23.7016H96.8832C97.0082 24.8016 97.7582 25.7766 99.5082 25.7766C100.733 25.7766 101.608 25.3516 101.608 24.3766C101.608 23.4516 100.508 23.1016 98.6332 22.4766C96.6832 21.8266 94.9582 21.0016 94.9582 18.7266C94.9582 16.1266 97.0332 14.6766 99.9582 14.6766C102.833 14.6766 104.983 16.1266 105.208 18.9266H102.133C101.983 17.9266 101.283 17.0766 99.8582 17.0766C98.9582 17.0766 97.9332 17.3766 97.9332 18.3516C97.9332 19.2266 99.0832 19.4266 101.058 20.1016C102.908 20.7266 104.683 21.6766 104.683 23.9266C104.683 26.6766 102.758 28.2266 99.5082 28.2266ZM111.178 28.2266C108.078 28.2266 105.603 26.9266 105.378 23.7016H108.553C108.678 24.8016 109.428 25.7766 111.178 25.7766C112.403 25.7766 113.278 25.3516 113.278 24.3766C113.278 23.4516 112.178 23.1016 110.303 22.4766C108.353 21.8266 106.628 21.0016 106.628 18.7266C106.628 16.1266 108.703 14.6766 111.628 14.6766C114.503 14.6766 116.653 16.1266 116.878 18.9266H113.803C113.653 17.9266 112.953 17.0766 111.528 17.0766C110.628 17.0766 109.603 17.3766 109.603 18.3516C109.603 19.2266 110.753 19.4266 112.728 20.1016C114.578 20.7266 116.353 21.6766 116.353 23.9266C116.353 26.6766 114.428 28.2266 111.178 28.2266Z" fill="black"/>
</svg>
