<svg width="306" height="40" viewBox="0 0 306 40" fill="none" xmlns="http://www.w3.org/2000/svg">
<path d="M293.042 0.84375L23.3818 0.8538L12.6641 39.1649L282.613 39.4215L293.042 0.84375Z" fill="#FF0000"/>
<path d="M36.1303 28.4219L39.5803 10.5469H46.4553C49.8803 10.5469 52.1553 12.4719 52.1553 15.8219C52.1553 19.6469 49.4303 21.9469 45.4303 21.9469H41.0803L39.8303 28.4219H36.1303ZM42.6803 13.6719L41.6553 19.0219H45.2553C46.9303 19.0219 48.4553 18.1219 48.4553 15.9969C48.4553 14.5469 47.6053 13.6719 45.9803 13.6719H42.6803ZM57.0338 15.5969L56.6338 17.6469H56.7088C57.4588 16.3719 58.4838 15.4469 60.0838 15.4469C60.5588 15.4469 60.8588 15.4969 61.0338 15.5469L60.4588 18.4969H60.3838C58.0588 18.1969 56.4338 19.2719 55.8838 22.1719L54.6838 28.4219H51.3338L53.8088 15.5969H57.0338ZM66.5281 28.7969C63.1781 28.7969 60.5031 26.7469 60.5031 22.8219C60.5031 18.7719 63.3531 15.2469 67.7281 15.2469C71.0031 15.2469 73.6531 17.2969 73.6531 21.0969C73.6531 25.1969 70.9031 28.7969 66.5281 28.7969ZM63.8531 23.0219C63.8531 24.7719 64.6281 26.2719 66.6031 26.2719C69.2031 26.2719 70.3031 23.4469 70.3031 20.9969C70.3031 19.3219 69.5281 17.7719 67.5531 17.7719C64.9781 17.7719 63.8531 20.5469 63.8531 23.0219ZM80.2168 28.7969C77.0918 28.7969 74.4918 27.0469 74.4918 23.1219C74.4918 19.1719 77.1168 15.2469 81.4918 15.2469C84.3418 15.2469 86.6418 16.5969 86.8168 19.9469H83.5418C83.4168 18.7219 82.7418 17.9469 81.3918 17.9469C78.9168 17.9469 77.8418 20.7719 77.8418 23.2219C77.8418 24.8719 78.5668 26.0969 80.4168 26.0969C81.6668 26.0969 82.6418 25.4219 83.0918 23.8969H86.3418C85.6418 26.9719 83.3668 28.7969 80.2168 28.7969ZM99.5836 22.9469H90.6586C90.6586 24.9719 91.3336 26.1969 93.2836 26.1969C94.4586 26.1969 95.4336 25.6969 95.9086 24.5969H99.2086C98.8086 25.7969 98.1336 26.7719 97.2336 27.4719C96.1586 28.3219 94.7836 28.7719 93.2336 28.7969C89.9086 28.7969 87.3336 26.9469 87.3336 22.8969C87.3336 19.1719 90.0586 15.2469 94.2086 15.2469C95.6086 15.2469 96.5836 15.5219 97.4336 16.0719C99.3586 17.3219 100.059 19.8719 99.5836 22.9469ZM94.1336 17.8469C92.3586 17.8469 91.4086 19.1219 90.9586 20.6219H96.4836C96.5336 19.1219 95.8586 17.8469 94.1336 17.8469ZM105.839 28.7969C102.739 28.7969 100.264 27.4969 100.039 24.2719H103.214C103.339 25.3719 104.089 26.3469 105.839 26.3469C107.064 26.3469 107.939 25.9219 107.939 24.9469C107.939 24.0219 106.839 23.6719 104.964 23.0469C103.014 22.3969 101.289 21.5719 101.289 19.2969C101.289 16.6969 103.364 15.2469 106.289 15.2469C109.164 15.2469 111.314 16.6969 111.539 19.4969H108.464C108.314 18.4969 107.614 17.6469 106.189 17.6469C105.289 17.6469 104.264 17.9469 104.264 18.9219C104.264 19.7969 105.414 19.9969 107.389 20.6719C109.239 21.2969 111.014 22.2469 111.014 24.4969C111.014 27.2469 109.089 28.7969 105.839 28.7969ZM117.509 28.7969C114.409 28.7969 111.934 27.4969 111.709 24.2719H114.884C115.009 25.3719 115.759 26.3469 117.509 26.3469C118.734 26.3469 119.609 25.9219 119.609 24.9469C119.609 24.0219 118.509 23.6719 116.634 23.0469C114.684 22.3969 112.959 21.5719 112.959 19.2969C112.959 16.6969 115.034 15.2469 117.959 15.2469C120.834 15.2469 122.984 16.6969 123.209 19.4969H120.134C119.984 18.4969 119.284 17.6469 117.859 17.6469C116.959 17.6469 115.934 17.9469 115.934 18.9219C115.934 19.7969 117.084 19.9969 119.059 20.6719C120.909 21.2969 122.684 22.2469 122.684 24.4969C122.684 27.2469 120.759 28.7969 117.509 28.7969ZM124.851 20.8969L125.551 17.2719H129.151L128.451 20.8969H124.851ZM123.401 28.4219L124.101 24.7969H127.701L127.001 28.4219H123.401ZM133.64 28.4219L137.09 10.5469H144.29C147.815 10.5469 149.69 12.4969 149.69 15.2969C149.69 17.8719 148.14 19.3969 145.765 19.9969V20.0719C147.19 20.5219 147.965 21.4719 147.965 23.1469C147.965 24.1719 147.765 25.7219 147.765 27.0969C147.765 27.6469 147.865 28.1219 148.115 28.2469V28.4219H144.665C144.465 28.1969 144.39 27.6969 144.39 27.0969C144.39 25.9719 144.54 24.6719 144.54 23.6469C144.54 22.0469 143.64 21.2469 141.84 21.2469H138.59L137.215 28.4219H133.64ZM140.115 13.4469L139.14 18.4719H142.865C144.59 18.4719 146.115 17.6719 146.115 15.6969C146.115 14.2469 145.315 13.4469 143.74 13.4469H140.115ZM161.864 22.9469H152.939C152.939 24.9719 153.614 26.1969 155.564 26.1969C156.739 26.1969 157.714 25.6969 158.189 24.5969H161.489C161.089 25.7969 160.414 26.7719 159.514 27.4719C158.439 28.3219 157.064 28.7719 155.514 28.7969C152.189 28.7969 149.614 26.9469 149.614 22.8969C149.614 19.1719 152.339 15.2469 156.489 15.2469C157.889 15.2469 158.864 15.5219 159.714 16.0719C161.639 17.3219 162.339 19.8719 161.864 22.9469ZM156.414 17.8469C154.639 17.8469 153.689 19.1219 153.239 20.6219H158.764C158.814 19.1219 158.139 17.8469 156.414 17.8469ZM163.253 17.9469L163.703 15.5969H165.378L165.678 14.0719C166.178 11.4969 167.828 10.5219 170.103 10.4969C170.678 10.4969 171.278 10.5469 171.903 10.6469L171.403 13.2469C171.053 13.1969 170.728 13.1719 170.453 13.1719C169.528 13.1719 169.128 13.5219 168.928 14.5219L168.703 15.5969H170.928L170.478 17.9469H168.253L166.228 28.4219H162.903L164.928 17.9469H163.253ZM170.003 28.4219L173.453 10.5469H176.803L173.353 28.4219H170.003ZM188.378 22.9469H179.453C179.453 24.9719 180.128 26.1969 182.078 26.1969C183.253 26.1969 184.228 25.6969 184.703 24.5969H188.003C187.603 25.7969 186.928 26.7719 186.028 27.4719C184.953 28.3219 183.578 28.7719 182.028 28.7969C178.703 28.7969 176.128 26.9469 176.128 22.8969C176.128 19.1719 178.853 15.2469 183.003 15.2469C184.403 15.2469 185.378 15.5219 186.228 16.0719C188.153 17.3219 188.853 19.8719 188.378 22.9469ZM182.928 17.8469C181.153 17.8469 180.203 19.1219 179.753 20.6219H185.278C185.328 19.1219 184.653 17.8469 182.928 17.8469ZM187.395 28.4219L193.02 21.5719L190.17 15.5969H193.795L195.345 19.4969H195.395L198.12 15.5969H201.77L196.77 21.9219L199.92 28.4219H196.195L194.47 24.1719H194.42L191.12 28.4219H187.395ZM218.535 28.4219L218.835 26.2219H218.785C217.61 27.8469 215.835 28.7969 213.635 28.7969C209.46 28.7969 206.51 26.0969 206.51 21.1969C206.51 15.6469 210.335 10.1719 216.26 10.1969C219.91 10.2219 222.885 12.0469 223.16 16.1719H219.685C219.485 14.2969 218.11 13.1719 215.985 13.1719C212.185 13.1719 210.16 17.1719 210.16 21.1469C210.16 24.1219 211.535 25.8969 214.41 25.8969C216.985 25.8969 218.91 24.2469 219.335 21.6969H215.11L215.635 18.9219H223.035L221.21 28.4219H218.535ZM231.355 28.4219C231.205 28.1469 231.155 27.5969 231.18 27.0219H231.13C230.355 27.8469 229.405 28.7219 227.555 28.7219C225.58 28.7219 223.48 27.5969 223.48 24.9469C223.48 21.5469 226.18 20.9219 229.305 20.6719C231.705 20.4719 232.63 20.3719 232.63 19.0969C232.63 18.1719 231.905 17.6719 230.63 17.6719C229.23 17.6719 228.305 18.2219 228.005 19.4969H225.005C225.43 16.8719 227.455 15.2719 230.755 15.2719C233.93 15.2719 236.33 16.6469 235.63 20.3719L234.43 26.5219C234.255 27.3969 234.33 27.9969 234.53 28.2969V28.4219H231.355ZM226.705 24.6469C226.705 25.7969 227.505 26.3969 228.63 26.3969C230.38 26.3969 231.505 25.2969 231.755 24.1219L232.155 22.0969C231.505 22.3969 230.805 22.5469 229.705 22.7469C228.48 22.9719 226.705 22.8969 226.705 24.6469ZM236.197 28.4219L238.672 15.5969H241.897L241.547 17.4719H241.622C242.497 16.0969 243.647 15.2469 245.222 15.2469C246.947 15.2469 247.922 16.2719 248.297 17.6969H248.347C249.497 15.9469 250.897 15.2469 252.597 15.2469C254.897 15.2469 256.647 17.0469 255.972 20.4469L254.447 28.4219H251.097L252.622 20.5469C252.922 18.9469 252.272 18.0969 251.097 18.0969C249.672 18.0969 248.722 19.3719 248.347 21.3469L246.997 28.4219H243.647L245.172 20.5469C245.472 18.9469 244.822 18.0969 243.647 18.0969C242.222 18.0969 241.272 19.3719 240.897 21.3469L239.547 28.4219H236.197ZM269.31 22.9469H260.385C260.385 24.9719 261.06 26.1969 263.01 26.1969C264.185 26.1969 265.16 25.6969 265.635 24.5969H268.935C268.535 25.7969 267.86 26.7719 266.96 27.4719C265.885 28.3219 264.51 28.7719 262.96 28.7969C259.635 28.7969 257.06 26.9469 257.06 22.8969C257.06 19.1719 259.785 15.2469 263.935 15.2469C265.335 15.2469 266.31 15.5219 267.16 16.0719C269.085 17.3219 269.785 19.8719 269.31 22.9469ZM263.86 17.8469C262.085 17.8469 261.135 19.1219 260.685 20.6219H266.21C266.26 19.1219 265.585 17.8469 263.86 17.8469Z" fill="white"/>
</svg>
