<svg width="227" height="39" viewBox="0 0 227 39" fill="none" xmlns="http://www.w3.org/2000/svg">
<path d="M217.511 0L-29.8564 0.000993013L-40.5742 38.3121L207.082 38.5778L217.511 0Z" fill="white"/>
<path d="M30.125 26.2812L33.575 8.40625H37.15L33.7 26.2812H30.125ZM41.8982 13.4562L41.5232 15.4812H41.5982C42.6982 13.9062 43.7732 13.1062 45.5982 13.1062C48.1482 13.1062 49.6232 15.1812 49.0482 18.1812L47.4982 26.2812H44.1482L45.6482 18.5812C45.9732 16.8812 45.3232 15.9562 43.8982 15.9562C42.3232 15.9562 41.1982 17.4062 40.8482 19.2812L39.4982 26.2812H36.1482L38.6232 13.4562H41.8982ZM49.5516 26.2812L52.0266 13.4562H55.3766L52.9016 26.2812H49.5516ZM52.4266 11.4562L53.0016 8.40625H56.3516L55.7766 11.4562H52.4266ZM56.3697 15.7062L56.7947 13.4562H58.4197L59.1947 9.45625H62.4697L61.6947 13.4562H63.8447L63.4197 15.7062H61.2697L59.9697 22.3812C59.7697 23.3812 60.0947 23.7812 60.9197 23.7812C61.2947 23.7812 61.9197 23.7312 61.9197 23.7312L61.4447 26.2312C61.4447 26.2312 60.5947 26.3063 59.9197 26.3063C57.3197 26.3063 56.0947 25.3562 56.6197 22.7062L57.9947 15.7062H56.3697ZM63.1014 26.2812L65.5764 13.4562H68.9264L66.4514 26.2812H63.1014ZM65.9764 11.4562L66.5514 8.40625H69.9014L69.3264 11.4562H65.9764ZM76.5945 26.2812C76.4445 26.0062 76.3945 25.4563 76.4195 24.8812H76.3695C75.5945 25.7062 74.6445 26.5813 72.7945 26.5813C70.8195 26.5813 68.7195 25.4563 68.7195 22.8062C68.7195 19.4062 71.4195 18.7812 74.5445 18.5312C76.9445 18.3312 77.8695 18.2312 77.8695 16.9562C77.8695 16.0312 77.1445 15.5312 75.8695 15.5312C74.4695 15.5312 73.5445 16.0812 73.2445 17.3562H70.2445C70.6695 14.7312 72.6945 13.1312 75.9945 13.1312C79.1695 13.1312 81.5695 14.5062 80.8695 18.2312L79.6695 24.3812C79.4945 25.2562 79.5695 25.8562 79.7695 26.1562V26.2812H76.5945ZM71.9445 22.5062C71.9445 23.6562 72.7445 24.2562 73.8695 24.2562C75.6195 24.2562 76.7445 23.1562 76.9945 21.9812L77.3945 19.9562C76.7445 20.2562 76.0445 20.4062 74.9445 20.6062C73.7195 20.8312 71.9445 20.7562 71.9445 22.5062ZM81.4863 26.2812L84.9363 8.40625H88.2863L84.8363 26.2812H81.4863ZM91.6479 26.2812L95.0979 8.40625H102.298C105.823 8.40625 107.698 10.3562 107.698 13.1562C107.698 15.7312 106.148 17.2562 103.773 17.8562V17.9312C105.198 18.3812 105.973 19.3312 105.973 21.0062C105.973 22.0312 105.773 23.5812 105.773 24.9562C105.773 25.5062 105.873 25.9812 106.123 26.1062V26.2812H102.673C102.473 26.0562 102.398 25.5562 102.398 24.9562C102.398 23.8312 102.548 22.5312 102.548 21.5062C102.548 19.9062 101.648 19.1062 99.8479 19.1062H96.5979L95.2229 26.2812H91.6479ZM98.1229 11.3062L97.1479 16.3312H100.873C102.598 16.3312 104.123 15.5312 104.123 13.5562C104.123 12.1062 103.323 11.3062 101.748 11.3062H98.1229ZM119.872 20.8062H110.947C110.947 22.8312 111.622 24.0562 113.572 24.0562C114.747 24.0562 115.722 23.5562 116.197 22.4562H119.497C119.097 23.6562 118.422 24.6313 117.522 25.3312C116.447 26.1812 115.072 26.6313 113.522 26.6563C110.197 26.6563 107.622 24.8062 107.622 20.7562C107.622 17.0312 110.347 13.1062 114.497 13.1062C115.897 13.1062 116.872 13.3812 117.722 13.9312C119.647 15.1812 120.347 17.7312 119.872 20.8062ZM114.422 15.7062C112.647 15.7062 111.697 16.9812 111.247 18.4812H116.772C116.822 16.9812 116.147 15.7062 114.422 15.7062ZM126.127 26.6563C123.027 26.6563 120.552 25.3562 120.327 22.1312H123.502C123.627 23.2312 124.377 24.2062 126.127 24.2062C127.352 24.2062 128.227 23.7812 128.227 22.8062C128.227 21.8812 127.127 21.5312 125.252 20.9062C123.302 20.2562 121.577 19.4312 121.577 17.1562C121.577 14.5562 123.652 13.1062 126.577 13.1062C129.452 13.1062 131.602 14.5562 131.827 17.3562H128.752C128.602 16.3562 127.902 15.5062 126.477 15.5062C125.577 15.5062 124.552 15.8062 124.552 16.7812C124.552 17.6562 125.702 17.8562 127.677 18.5312C129.527 19.1562 131.302 20.1062 131.302 22.3562C131.302 25.1062 129.377 26.6563 126.127 26.6563ZM144.725 20.8062H135.8C135.8 22.8312 136.475 24.0562 138.425 24.0562C139.6 24.0562 140.575 23.5562 141.05 22.4562H144.35C143.95 23.6562 143.275 24.6313 142.375 25.3312C141.3 26.1812 139.925 26.6313 138.375 26.6563C135.05 26.6563 132.475 24.8062 132.475 20.7562C132.475 17.0312 135.2 13.1062 139.35 13.1062C140.75 13.1062 141.725 13.3812 142.575 13.9312C144.5 15.1812 145.2 17.7312 144.725 20.8062ZM139.275 15.7062C137.5 15.7062 136.55 16.9812 136.1 18.4812H141.625C141.675 16.9812 141 15.7062 139.275 15.7062ZM153.328 26.2812C153.178 26.0062 153.128 25.4563 153.153 24.8812H153.103C152.328 25.7062 151.378 26.5813 149.528 26.5813C147.553 26.5813 145.453 25.4563 145.453 22.8062C145.453 19.4062 148.153 18.7812 151.278 18.5312C153.678 18.3312 154.603 18.2312 154.603 16.9562C154.603 16.0312 153.878 15.5312 152.603 15.5312C151.203 15.5312 150.278 16.0812 149.978 17.3562H146.978C147.403 14.7312 149.428 13.1312 152.728 13.1312C155.903 13.1312 158.303 14.5062 157.603 18.2312L156.403 24.3812C156.228 25.2562 156.303 25.8562 156.503 26.1562V26.2812H153.328ZM148.678 22.5062C148.678 23.6562 149.478 24.2562 150.603 24.2562C152.353 24.2562 153.478 23.1562 153.728 21.9812L154.128 19.9562C153.478 20.2562 152.778 20.4062 151.678 20.6062C150.453 20.8312 148.678 20.7562 148.678 22.5062ZM163.87 13.4562L163.47 15.5062H163.545C164.295 14.2312 165.32 13.3062 166.92 13.3062C167.395 13.3062 167.695 13.3562 167.87 13.4062L167.295 16.3562H167.22C164.895 16.0562 163.27 17.1312 162.72 20.0312L161.52 26.2812H158.17L160.645 13.4562H163.87ZM173.039 26.6563C169.914 26.6563 167.314 24.9062 167.314 20.9812C167.314 17.0312 169.939 13.1062 174.314 13.1062C177.164 13.1062 179.464 14.4562 179.639 17.8062H176.364C176.239 16.5812 175.564 15.8062 174.214 15.8062C171.739 15.8062 170.664 18.6312 170.664 21.0812C170.664 22.7312 171.389 23.9562 173.239 23.9562C174.489 23.9562 175.464 23.2812 175.914 21.7562H179.164C178.464 24.8312 176.189 26.6563 173.039 26.6563ZM186.381 8.40625L185.081 15.2312H185.156C186.206 13.8062 187.206 13.1062 189.031 13.1062C191.581 13.1062 193.056 15.1812 192.481 18.1812L190.931 26.2812H187.581L189.081 18.5812C189.406 16.8812 188.756 15.9562 187.331 15.9562C185.706 15.9562 184.631 17.4062 184.281 19.2812L182.931 26.2812H179.581L183.031 8.40625H186.381Z" fill="black"/>
</svg>
