<svg width="160" height="40" viewBox="0 0 160 40" fill="none" xmlns="http://www.w3.org/2000/svg">
<path d="M159.649 0.945312L-29.8564 0.946305L-40.5742 39.2574L149.22 39.5231L159.649 0.945312Z" fill="#ED2024"/>
<path d="M36.6086 28.8375C32.4836 28.8375 29.1336 27.0375 29.3586 22.9125H32.8336C32.7086 25.1875 34.3836 25.9375 36.7086 25.9375C38.4836 25.9375 40.1336 25.2625 40.1336 23.6125C40.1336 22.3625 39.2836 21.8125 36.2586 20.7125C33.0836 19.5625 31.2086 18.4625 31.2086 15.6625C31.2086 12.2375 33.8086 10.2375 37.7336 10.2375C41.3836 10.2375 44.5586 11.7875 44.3836 15.8125H40.9586C41.0336 14.0625 39.8336 13.0875 37.6086 13.0875C36.2836 13.0875 34.6336 13.5875 34.6086 15.1875C34.5836 16.3875 35.4086 16.7375 38.2336 17.7125C41.7836 18.9375 43.6836 20.2875 43.6836 23.1375C43.6836 26.9125 40.6836 28.8375 36.6086 28.8375ZM50.7412 28.8125C47.6162 28.8125 45.0162 27.0625 45.0162 23.1375C45.0162 19.1875 47.6412 15.2625 52.0162 15.2625C54.8662 15.2625 57.1662 16.6125 57.3412 19.9625H54.0662C53.9412 18.7375 53.2662 17.9625 51.9162 17.9625C49.4412 17.9625 48.3662 20.7875 48.3662 23.2375C48.3662 24.8875 49.0912 26.1125 50.9412 26.1125C52.1912 26.1125 53.1662 25.4375 53.6162 23.9125H56.8662C56.1662 26.9875 53.8912 28.8125 50.7412 28.8125ZM63.908 28.8125C60.558 28.8125 57.883 26.7625 57.883 22.8375C57.883 18.7875 60.733 15.2625 65.108 15.2625C68.383 15.2625 71.033 17.3125 71.033 21.1125C71.033 25.2125 68.283 28.8125 63.908 28.8125ZM61.233 23.0375C61.233 24.7875 62.008 26.2875 63.983 26.2875C66.583 26.2875 67.683 23.4625 67.683 21.0125C67.683 19.3375 66.908 17.7875 64.933 17.7875C62.358 17.7875 61.233 20.5625 61.233 23.0375ZM70.4717 32.6375L73.7717 15.6125H76.9967L76.6967 17.1875H76.7717C77.6717 16.0375 78.9717 15.2625 80.6967 15.2625C83.5717 15.2625 85.1217 17.6625 85.1217 20.8625C85.1217 24.4875 83.2717 28.8125 78.7967 28.8125C77.2467 28.8125 75.7717 28.1375 75.0467 26.6375H74.9967L73.8217 32.6375H70.4717ZM75.6717 23.0625C75.6717 24.6125 76.4717 26.0125 78.2967 26.0125C80.8217 26.0125 81.6967 23.3375 81.6967 20.9875C81.6967 19.4875 81.0717 17.9875 79.2467 17.9875C76.8467 17.9875 75.6717 20.7375 75.6717 23.0625ZM98.1598 22.9625H89.2348C89.2348 24.9875 89.9098 26.2125 91.8598 26.2125C93.0348 26.2125 94.0098 25.7125 94.4848 24.6125H97.7848C97.3848 25.8125 96.7098 26.7875 95.8098 27.4875C94.7348 28.3375 93.3598 28.7875 91.8098 28.8125C88.4848 28.8125 85.9098 26.9625 85.9098 22.9125C85.9098 19.1875 88.6348 15.2625 92.7848 15.2625C94.1848 15.2625 95.1598 15.5375 96.0098 16.0875C97.9348 17.3375 98.6348 19.8875 98.1598 22.9625ZM92.7098 17.8625C90.9348 17.8625 89.9848 19.1375 89.5348 20.6375H95.0598C95.1098 19.1375 94.4348 17.8625 92.7098 17.8625Z" fill="white"/>
</svg>
