<svg width="162" height="40" viewBox="0 0 162 40" fill="none" xmlns="http://www.w3.org/2000/svg">
<path d="M161.288 0.929688L-29.8564 0.932541L-40.5742 39.2437L150.859 39.5074L161.288 0.929688Z" fill="white"/>
<path d="M37.3 29.4C33.175 29.4 29.825 27.6 30.05 23.475H33.525C33.4 25.75 35.075 26.5 37.4 26.5C39.175 26.5 40.825 25.825 40.825 24.175C40.825 22.925 39.975 22.375 36.95 21.275C33.775 20.125 31.9 19.025 31.9 16.225C31.9 12.8 34.5 10.8 38.425 10.8C42.075 10.8 45.25 12.35 45.075 16.375H41.65C41.725 14.625 40.525 13.65 38.3 13.65C36.975 13.65 35.325 14.15 35.3 15.75C35.275 16.95 36.1 17.3 38.925 18.275C42.475 19.5 44.375 20.85 44.375 23.7C44.375 27.475 41.375 29.4 37.3 29.4ZM51.4326 29.375C48.3076 29.375 45.7076 27.625 45.7076 23.7C45.7076 19.75 48.3326 15.825 52.7076 15.825C55.5576 15.825 57.8576 17.175 58.0326 20.525H54.7576C54.6326 19.3 53.9576 18.525 52.6076 18.525C50.1326 18.525 49.0576 21.35 49.0576 23.8C49.0576 25.45 49.7826 26.675 51.6326 26.675C52.8826 26.675 53.8576 26 54.3076 24.475H57.5576C56.8576 27.55 54.5826 29.375 51.4326 29.375ZM63.6744 16.175L63.2744 18.225H63.3494C64.0994 16.95 65.1244 16.025 66.7244 16.025C67.1994 16.025 67.4994 16.075 67.6744 16.125L67.0994 19.075H67.0244C64.6994 18.775 63.0744 19.85 62.5244 22.75L61.3244 29H57.9744L60.4494 16.175H63.6744ZM79.3688 23.525H70.4438C70.4438 25.55 71.1188 26.775 73.0688 26.775C74.2438 26.775 75.2188 26.275 75.6938 25.175H78.9938C78.5938 26.375 77.9188 27.35 77.0188 28.05C75.9438 28.9 74.5688 29.35 73.0188 29.375C69.6938 29.375 67.1188 27.525 67.1188 23.475C67.1188 19.75 69.8438 15.825 73.9938 15.825C75.3938 15.825 76.3688 16.1 77.2188 16.65C79.1438 17.9 79.8438 20.45 79.3688 23.525ZM73.9188 18.425C72.1438 18.425 71.1938 19.7 70.7438 21.2H76.2688C76.3188 19.7 75.6438 18.425 73.9188 18.425ZM92.6744 23.525H83.7494C83.7494 25.55 84.4244 26.775 86.3744 26.775C87.5494 26.775 88.5244 26.275 88.9994 25.175H92.2994C91.8994 26.375 91.2244 27.35 90.3244 28.05C89.2494 28.9 87.8744 29.35 86.3244 29.375C82.9994 29.375 80.4244 27.525 80.4244 23.475C80.4244 19.75 83.1494 15.825 87.2994 15.825C88.6994 15.825 89.6744 16.1 90.5244 16.65C92.4494 17.9 93.1494 20.45 92.6744 23.525ZM87.2244 18.425C85.4494 18.425 84.4994 19.7 84.0494 21.2H89.5744C89.6244 19.7 88.9494 18.425 87.2244 18.425ZM98.9051 16.175L98.5301 18.2H98.6051C99.7051 16.625 100.78 15.825 102.605 15.825C105.155 15.825 106.63 17.9 106.055 20.9L104.505 29H101.155L102.655 21.3C102.98 19.6 102.33 18.675 100.905 18.675C99.3301 18.675 98.2051 20.125 97.8551 22L96.5051 29H93.1551L95.6301 16.175H98.9051ZM119.383 23.525H110.458C110.458 25.55 111.133 26.775 113.083 26.775C114.258 26.775 115.233 26.275 115.708 25.175H119.008C118.608 26.375 117.933 27.35 117.033 28.05C115.958 28.9 114.583 29.35 113.033 29.375C109.708 29.375 107.133 27.525 107.133 23.475C107.133 19.75 109.858 15.825 114.008 15.825C115.408 15.825 116.383 16.1 117.233 16.65C119.158 17.9 119.858 20.45 119.383 23.525ZM113.933 18.425C112.158 18.425 111.208 19.7 110.758 21.2H116.283C116.333 19.7 115.658 18.425 113.933 18.425ZM125.564 16.175L125.164 18.225H125.239C125.989 16.95 127.014 16.025 128.614 16.025C129.089 16.025 129.389 16.075 129.564 16.125L128.989 19.075H128.914C126.589 18.775 124.964 19.85 124.414 22.75L123.214 29H119.864L122.339 16.175H125.564ZM134.697 29.375C131.597 29.375 129.122 28.075 128.897 24.85H132.072C132.197 25.95 132.947 26.925 134.697 26.925C135.922 26.925 136.797 26.5 136.797 25.525C136.797 24.6 135.697 24.25 133.822 23.625C131.872 22.975 130.147 22.15 130.147 19.875C130.147 17.275 132.222 15.825 135.147 15.825C138.022 15.825 140.172 17.275 140.397 20.075H137.322C137.172 19.075 136.472 18.225 135.047 18.225C134.147 18.225 133.122 18.525 133.122 19.5C133.122 20.375 134.272 20.575 136.247 21.25C138.097 21.875 139.872 22.825 139.872 25.075C139.872 27.825 137.947 29.375 134.697 29.375Z" fill="black"/>
</svg>
