<svg width="330" height="39" viewBox="0 0 330 39" fill="none" xmlns="http://www.w3.org/2000/svg">
<path d="M250.775 0L-29.8564 0.000993013L-40.5742 38.3121L240.346 38.5778L250.775 0Z" fill="white"/>
<path d="M37.3 28.4C33.175 28.4 29.825 26.6 30.05 22.475H33.525C33.4 24.75 35.075 25.5 37.4 25.5C39.175 25.5 40.825 24.825 40.825 23.175C40.825 21.925 39.975 21.375 36.95 20.275C33.775 19.125 31.9 18.025 31.9 15.225C31.9 11.8 34.5 9.8 38.425 9.8C42.075 9.8 45.25 11.35 45.075 15.375H41.65C41.725 13.625 40.525 12.65 38.3 12.65C36.975 12.65 35.325 13.15 35.3 14.75C35.275 15.95 36.1 16.3 38.925 17.275C42.475 18.5 44.375 19.85 44.375 22.7C44.375 26.475 41.375 28.4 37.3 28.4ZM48.0375 28L46.2625 10.125H49.8875L50.4125 19C50.5125 20.675 50.4875 22.95 50.4875 22.95H50.5375C50.5375 22.95 51.3625 20.725 52.0375 19.025L55.5875 10.125H58.9625L59.3875 19C59.4625 20.6 59.4875 22.95 59.4875 22.95H59.5375C59.5375 22.95 60.4375 20.6 61.1125 18.975L64.8125 10.125H68.3375L60.3375 28H57.0125L56.4875 18.375C56.4125 16.95 56.4125 15.075 56.4125 15.075H56.3625C56.3625 15.075 55.7875 16.9 55.1875 18.375L51.3125 28H48.0375ZM74.6363 28.4C70.0363 28.4 66.8613 25.525 66.8613 20.725C66.8613 14.975 70.1863 9.775 76.1863 9.775C80.8113 9.775 83.8863 12.85 83.8863 17.575C83.8863 23.2 80.7363 28.4 74.6363 28.4ZM70.5113 20.65C70.5113 23.325 71.7113 25.45 74.7863 25.45C78.8113 25.45 80.2363 21.125 80.2363 17.675C80.2363 14.9 78.9363 12.725 75.9613 12.725C72.0113 12.725 70.5113 17.05 70.5113 20.65ZM84.1729 13.15L84.7479 10.125H98.6479L98.0729 13.15H92.8979L90.0229 28H86.4479L89.3229 13.15H84.1729ZM107.593 28.375C104.243 28.375 101.568 26.325 101.568 22.4C101.568 18.35 104.418 14.825 108.793 14.825C112.068 14.825 114.718 16.875 114.718 20.675C114.718 24.775 111.968 28.375 107.593 28.375ZM104.918 22.6C104.918 24.35 105.693 25.85 107.668 25.85C110.268 25.85 111.368 23.025 111.368 20.575C111.368 18.9 110.593 17.35 108.618 17.35C106.043 17.35 104.918 20.125 104.918 22.6ZM120.731 15.175L120.356 17.2H120.431C121.531 15.625 122.606 14.825 124.431 14.825C126.981 14.825 128.456 16.9 127.881 19.9L126.331 28H122.981L124.481 20.3C124.806 18.6 124.156 17.675 122.731 17.675C121.156 17.675 120.031 19.125 119.681 21L118.331 28H114.981L117.456 15.175H120.731ZM133.005 28L136.455 10.125H140.03L143.68 20.1C144.08 21.175 144.405 22.7 144.405 22.7H144.455C144.455 22.7 144.73 20.85 144.98 19.6L146.805 10.125H150.28L146.83 28H143.43L139.605 18.05C139.155 16.875 138.855 15.55 138.855 15.55H138.805C138.805 15.55 138.53 17.425 138.28 18.675L136.48 28H133.005ZM160.309 28L159.809 24.175H153.634L151.834 28H148.209L157.359 10.125H161.059L164.009 28H160.309ZM157.359 16.35L154.934 21.425H159.459L158.834 16.4C158.709 15.375 158.609 13.55 158.609 13.55H158.559C158.559 13.55 157.809 15.4 157.359 16.35ZM171.944 28.4C167.819 28.4 164.469 26.6 164.694 22.475H168.169C168.044 24.75 169.719 25.5 172.044 25.5C173.819 25.5 175.469 24.825 175.469 23.175C175.469 21.925 174.619 21.375 171.594 20.275C168.419 19.125 166.544 18.025 166.544 15.225C166.544 11.8 169.144 9.8 173.069 9.8C176.719 9.8 179.894 11.35 179.719 15.375H176.294C176.369 13.625 175.169 12.65 172.944 12.65C171.619 12.65 169.969 13.15 169.944 14.75C169.919 15.95 170.744 16.3 173.569 17.275C177.119 18.5 179.019 19.85 179.019 22.7C179.019 26.475 176.019 28.4 171.944 28.4ZM187.982 28.375C183.232 28.375 180.582 25.175 180.582 20.775C180.582 15.325 184.082 9.775 190.132 9.775C193.757 9.775 196.482 11.6 196.707 15.8H193.182C193.007 13.775 191.907 12.8 189.857 12.8C185.957 12.8 184.232 17.025 184.232 20.725C184.232 23.2 185.232 25.425 188.257 25.425C190.357 25.425 191.807 24.225 192.432 22.25H195.957C195.457 24.125 194.557 25.75 193.157 26.825C191.682 27.95 190.157 28.375 187.982 28.375ZM207.159 28L206.659 24.175H200.484L198.684 28H195.059L204.209 10.125H207.909L210.859 28H207.159ZM204.209 16.35L201.784 21.425H206.309L205.684 16.4C205.559 15.375 205.459 13.55 205.459 13.55H205.409C205.409 13.55 204.659 15.4 204.209 16.35ZM212.229 28L215.679 10.125H222.879C226.404 10.125 228.279 12.075 228.279 14.875C228.279 17.45 226.729 18.975 224.354 19.575V19.65C225.779 20.1 226.554 21.05 226.554 22.725C226.554 23.75 226.354 25.3 226.354 26.675C226.354 27.225 226.454 27.7 226.704 27.825V28H223.254C223.054 27.775 222.979 27.275 222.979 26.675C222.979 25.55 223.129 24.25 223.129 23.225C223.129 21.625 222.229 20.825 220.429 20.825H217.179L215.804 28H212.229ZM218.704 13.025L217.729 18.05H221.454C223.179 18.05 224.704 17.25 224.704 15.275C224.704 13.825 223.904 13.025 222.329 13.025H218.704Z" fill="black"/>
</svg>
