<svg width="160" height="39" viewBox="0 0 160 39" fill="none" xmlns="http://www.w3.org/2000/svg">
<path d="M159.649 0.171875L-29.8564 0.172868L-40.5742 38.484L149.22 38.7496L159.649 0.171875Z" fill="white"/>
<path d="M26 13.15L26.575 10.125H40.475L39.9 13.15H34.725L31.85 28H28.275L31.15 13.15H26ZM38.449 28L40.924 15.175H44.274L41.799 28H38.449ZM41.324 13.175L41.899 10.125H45.249L44.674 13.175H41.324ZM43.9422 28L46.4172 15.175H49.6422L49.2922 17.05H49.3672C50.2422 15.675 51.3922 14.825 52.9672 14.825C54.6922 14.825 55.6672 15.85 56.0422 17.275H56.0922C57.2422 15.525 58.6422 14.825 60.3422 14.825C62.6422 14.825 64.3922 16.625 63.7172 20.025L62.1922 28H58.8422L60.3672 20.125C60.6672 18.525 60.0172 17.675 58.8422 17.675C57.4172 17.675 56.4672 18.95 56.0922 20.925L54.7422 28H51.3922L52.9172 20.125C53.2172 18.525 52.5672 17.675 51.3922 17.675C49.9672 17.675 49.0172 18.95 48.6422 20.925L47.2922 28H43.9422ZM77.0553 22.525H68.1303C68.1303 24.55 68.8053 25.775 70.7553 25.775C71.9303 25.775 72.9053 25.275 73.3803 24.175H76.6803C76.2803 25.375 75.6053 26.35 74.7053 27.05C73.6303 27.9 72.2553 28.35 70.7053 28.375C67.3803 28.375 64.8053 26.525 64.8053 22.475C64.8053 18.75 67.5303 14.825 71.6803 14.825C73.0803 14.825 74.0553 15.1 74.9053 15.65C76.8303 16.9 77.5303 19.45 77.0553 22.525ZM71.6053 17.425C69.8303 17.425 68.8803 18.7 68.4303 20.2H73.9553C74.0053 18.7 73.3303 17.425 71.6053 17.425ZM77.5859 28L81.0359 10.125H84.3859L80.9359 28H77.5859ZM83.1268 28L85.6018 15.175H88.9518L86.4768 28H83.1268ZM86.0018 13.175L86.5768 10.125H89.9268L89.3518 13.175H86.0018ZM94.3699 15.175L93.9949 17.2H94.0699C95.1699 15.625 96.2449 14.825 98.0699 14.825C100.62 14.825 102.095 16.9 101.52 19.9L99.9699 28H96.6199L98.1199 20.3C98.4449 18.6 97.7949 17.675 96.3699 17.675C94.7949 17.675 93.6699 19.125 93.3199 21L91.9699 28H88.6199L91.0949 15.175H94.3699ZM114.848 22.525H105.923C105.923 24.55 106.598 25.775 108.548 25.775C109.723 25.775 110.698 25.275 111.173 24.175H114.473C114.073 25.375 113.398 26.35 112.498 27.05C111.423 27.9 110.048 28.35 108.498 28.375C105.173 28.375 102.598 26.525 102.598 22.475C102.598 18.75 105.323 14.825 109.473 14.825C110.873 14.825 111.848 15.1 112.698 15.65C114.623 16.9 115.323 19.45 114.848 22.525ZM109.398 17.425C107.623 17.425 106.673 18.7 106.223 20.2H111.748C111.798 18.7 111.123 17.425 109.398 17.425Z" fill="black"/>
</svg>
