<svg width="306" height="39" viewBox="0 0 306 39" fill="none" xmlns="http://www.w3.org/2000/svg">
<path d="M253.522 0.421875L63.1943 0.429688L52.4766 38.7408L243.093 38.9996L253.522 0.421875Z" fill="#FFDB3B"/>
<path d="M75.9252 28L79.3752 10.125H86.2502C89.6752 10.125 91.9502 12.05 91.9502 15.4C91.9502 19.225 89.2252 21.525 85.2252 21.525H80.8752L79.6252 28H75.9252ZM82.4752 13.25L81.4502 18.6H85.0502C86.7252 18.6 88.2502 17.7 88.2502 15.575C88.2502 14.125 87.4002 13.25 85.7752 13.25H82.4752ZM96.8287 15.175L96.4287 17.225H96.5037C97.2537 15.95 98.2787 15.025 99.8787 15.025C100.354 15.025 100.654 15.075 100.829 15.125L100.254 18.075H100.179C97.8537 17.775 96.2287 18.85 95.6787 21.75L94.4787 28H91.1287L93.6037 15.175H96.8287ZM106.323 28.375C102.973 28.375 100.298 26.325 100.298 22.4C100.298 18.35 103.148 14.825 107.523 14.825C110.798 14.825 113.448 16.875 113.448 20.675C113.448 24.775 110.698 28.375 106.323 28.375ZM103.648 22.6C103.648 24.35 104.423 25.85 106.398 25.85C108.998 25.85 110.098 23.025 110.098 20.575C110.098 18.9 109.323 17.35 107.348 17.35C104.773 17.35 103.648 20.125 103.648 22.6ZM120.012 28.375C116.887 28.375 114.287 26.625 114.287 22.7C114.287 18.75 116.912 14.825 121.287 14.825C124.137 14.825 126.437 16.175 126.612 19.525H123.337C123.212 18.3 122.537 17.525 121.187 17.525C118.712 17.525 117.637 20.35 117.637 22.8C117.637 24.45 118.362 25.675 120.212 25.675C121.462 25.675 122.437 25 122.887 23.475H126.137C125.437 26.55 123.162 28.375 120.012 28.375ZM139.379 22.525H130.454C130.454 24.55 131.129 25.775 133.079 25.775C134.254 25.775 135.229 25.275 135.704 24.175H139.004C138.604 25.375 137.929 26.35 137.029 27.05C135.954 27.9 134.579 28.35 133.029 28.375C129.704 28.375 127.129 26.525 127.129 22.475C127.129 18.75 129.854 14.825 134.004 14.825C135.404 14.825 136.379 15.1 137.229 15.65C139.154 16.9 139.854 19.45 139.379 22.525ZM133.929 17.425C132.154 17.425 131.204 18.7 130.754 20.2H136.279C136.329 18.7 135.654 17.425 133.929 17.425ZM145.634 28.375C142.534 28.375 140.059 27.075 139.834 23.85H143.009C143.134 24.95 143.884 25.925 145.634 25.925C146.859 25.925 147.734 25.5 147.734 24.525C147.734 23.6 146.634 23.25 144.759 22.625C142.809 21.975 141.084 21.15 141.084 18.875C141.084 16.275 143.159 14.825 146.084 14.825C148.959 14.825 151.109 16.275 151.334 19.075H148.259C148.109 18.075 147.409 17.225 145.984 17.225C145.084 17.225 144.059 17.525 144.059 18.5C144.059 19.375 145.209 19.575 147.184 20.25C149.034 20.875 150.809 21.825 150.809 24.075C150.809 26.825 148.884 28.375 145.634 28.375ZM157.304 28.375C154.204 28.375 151.729 27.075 151.504 23.85H154.679C154.804 24.95 155.554 25.925 157.304 25.925C158.529 25.925 159.404 25.5 159.404 24.525C159.404 23.6 158.304 23.25 156.429 22.625C154.479 21.975 152.754 21.15 152.754 18.875C152.754 16.275 154.829 14.825 157.754 14.825C160.629 14.825 162.779 16.275 163.004 19.075H159.929C159.779 18.075 159.079 17.225 157.654 17.225C156.754 17.225 155.729 17.525 155.729 18.5C155.729 19.375 156.879 19.575 158.854 20.25C160.704 20.875 162.479 21.825 162.479 24.075C162.479 26.825 160.554 28.375 157.304 28.375ZM164.646 20.475L165.346 16.85H168.946L168.246 20.475H164.646ZM163.196 28L163.896 24.375H167.496L166.796 28H163.196ZM175.335 13.15L175.91 10.125H189.81L189.235 13.15H184.06L181.185 28H177.61L180.485 13.15H175.335ZM191.36 15.175L190.96 17.225H191.035C191.785 15.95 192.81 15.025 194.41 15.025C194.885 15.025 195.185 15.075 195.36 15.125L194.785 18.075H194.71C192.385 17.775 190.76 18.85 190.21 21.75L189.01 28H185.66L188.135 15.175H191.36ZM194.351 28L196.826 15.175H200.176L197.701 28H194.351ZM197.226 13.175L197.801 10.125H201.151L200.576 13.175H197.226ZM203.297 28L201.172 15.175H204.572L205.372 21.65C205.547 23.05 205.597 23.95 205.597 23.95H205.647C205.647 23.95 205.972 23.05 206.572 21.825L209.672 15.175H213.022L206.497 28H203.297ZM211.661 28L214.136 15.175H217.486L215.011 28H211.661ZM214.536 13.175L215.111 10.125H218.461L217.886 13.175H214.536ZM225.154 28C225.004 27.725 224.954 27.175 224.979 26.6H224.929C224.154 27.425 223.204 28.3 221.354 28.3C219.379 28.3 217.279 27.175 217.279 24.525C217.279 21.125 219.979 20.5 223.104 20.25C225.504 20.05 226.429 19.95 226.429 18.675C226.429 17.75 225.704 17.25 224.429 17.25C223.029 17.25 222.104 17.8 221.804 19.075H218.804C219.229 16.45 221.254 14.85 224.554 14.85C227.729 14.85 230.129 16.225 229.429 19.95L228.229 26.1C228.054 26.975 228.129 27.575 228.329 27.875V28H225.154ZM220.504 24.225C220.504 25.375 221.304 25.975 222.429 25.975C224.179 25.975 225.304 24.875 225.554 23.7L225.954 21.675C225.304 21.975 224.604 22.125 223.504 22.325C222.279 22.55 220.504 22.475 220.504 24.225Z" fill="black"/>
</svg>
