<svg width="306" height="39" viewBox="0 0 306 39" fill="none" xmlns="http://www.w3.org/2000/svg">
<path d="M266.487 0H50.2295L39.5117 38.3111L256.058 38.5778L266.487 0Z" fill="white"/>
<path d="M55.9911 27.5781L59.4411 9.70312H66.3161C69.7411 9.70312 72.0161 11.6281 72.0161 14.9781C72.0161 18.8031 69.2911 21.1031 65.2911 21.1031H60.9411L59.6911 27.5781H55.9911ZM62.5411 12.8281L61.5161 18.1781H65.1161C66.7911 18.1781 68.3161 17.2781 68.3161 15.1531C68.3161 13.7031 67.4661 12.8281 65.8411 12.8281H62.5411ZM76.8946 14.7531L76.4946 16.8031H76.5696C77.3196 15.5281 78.3446 14.6031 79.9446 14.6031C80.4196 14.6031 80.7196 14.6531 80.8946 14.7031L80.3196 17.6531H80.2446C77.9196 17.3531 76.2946 18.4281 75.7446 21.3281L74.5446 27.5781H71.1946L73.6696 14.7531H76.8946ZM86.389 27.9531C83.039 27.9531 80.364 25.9031 80.364 21.9781C80.364 17.9281 83.214 14.4031 87.589 14.4031C90.864 14.4031 93.514 16.4531 93.514 20.2531C93.514 24.3531 90.764 27.9531 86.389 27.9531ZM83.714 22.1781C83.714 23.9281 84.489 25.4281 86.464 25.4281C89.064 25.4281 90.164 22.6031 90.164 20.1531C90.164 18.4781 89.389 16.9281 87.414 16.9281C84.839 16.9281 83.714 19.7031 83.714 22.1781ZM100.078 27.9531C96.9526 27.9531 94.3526 26.2031 94.3526 22.2781C94.3526 18.3281 96.9776 14.4031 101.353 14.4031C104.203 14.4031 106.503 15.7531 106.678 19.1031H103.403C103.278 17.8781 102.603 17.1031 101.253 17.1031C98.7776 17.1031 97.7026 19.9281 97.7026 22.3781C97.7026 24.0281 98.4276 25.2531 100.278 25.2531C101.528 25.2531 102.503 24.5781 102.953 23.0531H106.203C105.503 26.1281 103.228 27.9531 100.078 27.9531ZM119.444 22.1031H110.519C110.519 24.1281 111.194 25.3531 113.144 25.3531C114.319 25.3531 115.294 24.8531 115.769 23.7531H119.069C118.669 24.9531 117.994 25.9281 117.094 26.6281C116.019 27.4781 114.644 27.9281 113.094 27.9531C109.769 27.9531 107.194 26.1031 107.194 22.0531C107.194 18.3281 109.919 14.4031 114.069 14.4031C115.469 14.4031 116.444 14.6781 117.294 15.2281C119.219 16.4781 119.919 19.0281 119.444 22.1031ZM113.994 17.0031C112.219 17.0031 111.269 18.2781 110.819 19.7781H116.344C116.394 18.2781 115.719 17.0031 113.994 17.0031ZM125.7 27.9531C122.6 27.9531 120.125 26.6531 119.9 23.4281H123.075C123.2 24.5281 123.95 25.5031 125.7 25.5031C126.925 25.5031 127.8 25.0781 127.8 24.1031C127.8 23.1781 126.7 22.8281 124.825 22.2031C122.875 21.5531 121.15 20.7281 121.15 18.4531C121.15 15.8531 123.225 14.4031 126.15 14.4031C129.025 14.4031 131.175 15.8531 131.4 18.6531H128.325C128.175 17.6531 127.475 16.8031 126.05 16.8031C125.15 16.8031 124.125 17.1031 124.125 18.0781C124.125 18.9531 125.275 19.1531 127.25 19.8281C129.1 20.4531 130.875 21.4031 130.875 23.6531C130.875 26.4031 128.95 27.9531 125.7 27.9531ZM137.37 27.9531C134.27 27.9531 131.795 26.6531 131.57 23.4281H134.745C134.87 24.5281 135.62 25.5031 137.37 25.5031C138.595 25.5031 139.47 25.0781 139.47 24.1031C139.47 23.1781 138.37 22.8281 136.495 22.2031C134.545 21.5531 132.82 20.7281 132.82 18.4531C132.82 15.8531 134.895 14.4031 137.82 14.4031C140.695 14.4031 142.845 15.8531 143.07 18.6531H139.995C139.845 17.6531 139.145 16.8031 137.72 16.8031C136.82 16.8031 135.795 17.1031 135.795 18.0781C135.795 18.9531 136.945 19.1531 138.92 19.8281C140.77 20.4531 142.545 21.4031 142.545 23.6531C142.545 26.4031 140.62 27.9531 137.37 27.9531ZM144.712 20.0531L145.412 16.4281H149.012L148.312 20.0531H144.712ZM143.262 27.5781L143.962 23.9531H147.562L146.862 27.5781H143.262ZM157.376 27.5781L155.601 9.70312H159.226L159.751 18.5781C159.851 20.2531 159.826 22.5281 159.826 22.5281H159.876C159.876 22.5281 160.701 20.3031 161.376 18.6031L164.926 9.70312H168.301L168.726 18.5781C168.801 20.1781 168.826 22.5281 168.826 22.5281H168.876C168.876 22.5281 169.776 20.1781 170.451 18.5531L174.151 9.70312H177.676L169.676 27.5781H166.351L165.826 17.9531C165.751 16.5281 165.751 14.6531 165.751 14.6531H165.701C165.701 14.6531 165.126 16.4781 164.526 17.9531L160.651 27.5781H157.376ZM187.218 22.1031H178.293C178.293 24.1281 178.968 25.3531 180.918 25.3531C182.093 25.3531 183.068 24.8531 183.543 23.7531H186.843C186.443 24.9531 185.768 25.9281 184.868 26.6281C183.793 27.4781 182.418 27.9281 180.868 27.9531C177.543 27.9531 174.968 26.1031 174.968 22.0531C174.968 18.3281 177.693 14.4031 181.843 14.4031C183.243 14.4031 184.218 14.6781 185.068 15.2281C186.993 16.4781 187.693 19.0281 187.218 22.1031ZM181.768 17.0031C179.993 17.0031 179.043 18.2781 178.593 19.7781H184.118C184.168 18.2781 183.493 17.0031 181.768 17.0031ZM195.199 27.9531C193.599 27.9531 192.049 27.3281 191.324 25.7031H191.274L190.924 27.5781H187.699L191.149 9.70312H194.499L193.224 16.2531H193.299C194.149 15.2031 195.399 14.4031 196.974 14.4031C199.824 14.4031 201.449 16.6531 201.449 19.8031C201.449 23.9281 199.474 27.9531 195.199 27.9531ZM192.099 22.1781C192.099 23.7531 192.874 25.1281 194.724 25.1281C197.149 25.1281 197.999 22.3531 197.999 20.0531C197.999 18.5531 197.449 17.1281 195.624 17.1281C193.149 17.1281 192.099 19.9531 192.099 22.1781ZM217.059 27.5781L216.559 23.7531H210.384L208.584 27.5781H204.959L214.109 9.70312H217.809L220.759 27.5781H217.059ZM214.109 15.9281L211.684 21.0031H216.209L215.584 15.9781C215.459 14.9531 215.359 13.1281 215.359 13.1281H215.309C215.309 13.1281 214.559 14.9781 214.109 15.9281ZM221.029 31.7781L224.329 14.7531H227.554L227.254 16.3281H227.329C228.229 15.1781 229.529 14.4031 231.254 14.4031C234.129 14.4031 235.679 16.8031 235.679 20.0031C235.679 23.6281 233.829 27.9531 229.354 27.9531C227.804 27.9531 226.329 27.2781 225.604 25.7781H225.554L224.379 31.7781H221.029ZM226.229 22.2031C226.229 23.7531 227.029 25.1531 228.854 25.1531C231.379 25.1531 232.254 22.4781 232.254 20.1281C232.254 18.6281 231.629 17.1281 229.804 17.1281C227.404 17.1281 226.229 19.8781 226.229 22.2031ZM235.067 31.7781L238.367 14.7531H241.592L241.292 16.3281H241.367C242.267 15.1781 243.567 14.4031 245.292 14.4031C248.167 14.4031 249.717 16.8031 249.717 20.0031C249.717 23.6281 247.867 27.9531 243.392 27.9531C241.842 27.9531 240.367 27.2781 239.642 25.7781H239.592L238.417 31.7781H235.067ZM240.267 22.2031C240.267 23.7531 241.067 25.1531 242.892 25.1531C245.417 25.1531 246.292 22.4781 246.292 20.1281C246.292 18.6281 245.667 17.1281 243.842 17.1281C241.442 17.1281 240.267 19.8781 240.267 22.2031Z" fill="black"/>
</svg>
