<svg width="295" height="56" viewBox="0 0 295 56" fill="none" xmlns="http://www.w3.org/2000/svg">
<path d="M271.161 52.9534H11.8015C6.09857 52.9534 2.22056 49.7208 3.13304 45.7306L11.2692 10.2228C12.1817 6.23256 17.5479 3 23.24 3H282.599C288.302 3 292.18 6.23256 291.268 10.2228L283.132 45.7306C282.219 49.7124 276.864 52.9534 271.161 52.9534Z" fill="#00294A" stroke="white" stroke-width="6" stroke-miterlimit="10"/>
<path d="M76.5974 38.544C70.2934 38.544 66.0054 35.088 66.0054 28.368C66.0054 21.008 70.9014 14.704 78.4534 14.704C81.3974 14.704 83.5094 15.28 85.0774 16.464C87.2214 18.064 88.2454 20.528 88.3734 23.6H81.7494C81.7174 21.616 80.6934 20.176 78.3574 20.176C74.3894 20.176 72.7254 24.4 72.7254 28.208C72.7254 30.8 73.7494 33.104 76.6294 33.104C78.7414 33.104 80.3734 31.888 80.9174 29.488H87.6374C86.4854 35.728 81.7494 38.544 76.5974 38.544ZM99.2871 38.544C93.3351 38.544 88.5671 35.248 88.6311 28.432C88.6951 20.976 93.6871 14.704 101.239 14.704C107.543 14.704 111.671 18.352 111.671 25.072C111.671 32.4 106.711 38.512 99.2871 38.544ZM95.2551 28.432C95.2551 31.024 96.4391 33.232 99.3831 33.232C103.319 33.232 105.047 28.816 105.047 25.04C105.047 22.224 103.991 20.016 101.015 20.016C97.0151 20.048 95.2551 24.72 95.2551 28.432ZM111.135 38L115.551 15.12H122.175L126.687 28.24H126.751L129.311 15.12H135.679L131.263 38H124.415L120.127 24.784H120.063L117.503 38H111.135ZM136.411 20.752L137.499 15.12H156.699L155.611 20.752H149.243L145.915 38H139.355L142.683 20.752H136.411ZM154.103 38L158.519 15.12H165.111L160.695 38H154.103ZM163.385 38L167.801 15.12H174.425L178.937 28.24H179.001L181.561 15.12H187.929L183.513 38H176.665L172.377 24.784H172.313L169.753 38H163.385ZM197.269 38.416C191.125 38.416 186.485 35.632 187.861 28.528L190.453 15.12H197.045L194.293 29.328C193.845 31.664 194.933 33.104 197.525 33.104C199.541 33.104 200.725 31.952 201.141 29.776L203.989 15.12H210.549L207.701 29.936C206.645 35.44 203.285 38.416 197.269 38.416ZM208.697 38L213.113 15.12H230.393L229.337 20.496H218.649L218.073 23.696H227.033L226.073 28.656H217.081L216.377 32.336H227.513L226.425 38H208.697Z" fill="white"/>
</svg>
