<svg width="16" height="17" viewBox="0 0 16 17" fill="none" xmlns="http://www.w3.org/2000/svg">
<g clip-path="url(#clip0_2609_41206)">
<path fill-rule="evenodd" clip-rule="evenodd" d="M7.99812 16.4201C9.03819 16.4201 10.0681 16.2152 11.029 15.8172C11.9899 15.4192 12.863 14.8358 13.5984 14.1004C14.3338 13.3649 14.9172 12.4918 15.3153 11.5309C15.7133 10.57 15.9181 9.54015 15.9181 8.50008C15.9181 7.46001 15.7133 6.43012 15.3153 5.46923C14.9172 4.50833 14.3338 3.63523 13.5984 2.89979C12.863 2.16435 11.9899 1.58097 11.029 1.18295C10.0681 0.784935 9.03819 0.580078 7.99812 0.580078C5.89761 0.580078 3.88313 1.4145 2.39784 2.89979C0.912551 4.38508 0.078125 6.39956 0.078125 8.50008C0.078125 10.6006 0.912551 12.6151 2.39784 14.1004C3.88313 15.5857 5.89761 16.4201 7.99812 16.4201ZM7.79396 11.7033L12.194 6.42328L10.8423 5.29688L7.05828 9.8368L5.10028 7.87792L3.85597 9.12224L6.49597 11.7622L7.17709 12.4434L7.79396 11.7033Z" fill="#19B253"/>
</g>
<defs>
<clipPath id="clip0_2609_41206">
<rect width="16" height="16" fill="white" transform="translate(0 0.5)"/>
</clipPath>
</defs>
</svg>
