<svg width="39" height="39" viewBox="0 0 39 39" fill="none" xmlns="http://www.w3.org/2000/svg">
<rect x="2" y="2" width="35" height="35" rx="8" fill="#7EB4C9"/>
<rect x="2" y="2" width="35" height="35" rx="8" fill="#7EB4C9"/>
<rect x="2" y="2" width="35" height="35" rx="8" stroke="white" stroke-width="4"/>
<path d="M26.2471 24.3881C26.6944 24.876 26.6537 25.6486 26.1658 26.0958C24.458 27.641 22.2624 28.4542 19.9854 28.4542C19.7821 28.4542 19.6194 28.4542 19.4161 28.4542C16.9358 28.2915 14.6588 27.1937 12.9917 25.3233C11.7313 23.9002 10.9587 22.1518 10.7147 20.322L9.98285 20.8913C9.73889 21.0539 9.49492 21.1353 9.2103 21.1353C8.84435 21.1353 8.47841 20.9726 8.23444 20.688C7.82784 20.1594 7.90916 19.3868 8.43775 18.9802L11.162 16.8252C11.162 16.8252 11.162 16.8252 11.2027 16.8252C11.2433 16.8252 11.2433 16.7846 11.284 16.7846C11.3247 16.7439 11.3653 16.7439 11.406 16.7032C11.4466 16.7032 11.4466 16.6626 11.4873 16.6626C11.528 16.6626 11.5686 16.6219 11.6093 16.6219C11.6499 16.6219 11.6499 16.6219 11.6906 16.5813C11.7719 16.5813 11.8126 16.5406 11.8939 16.5406H11.9346C12.0159 16.5406 12.0565 16.5406 12.1379 16.5406C12.1379 16.5406 12.1379 16.5406 12.1785 16.5406H12.2192C12.2598 16.5406 12.3005 16.5813 12.3818 16.5813C12.4225 16.5813 12.4225 16.5813 12.4632 16.6219C12.5038 16.6219 12.5445 16.6626 12.5851 16.7032C12.6258 16.7032 12.6258 16.7439 12.6665 16.7439L15.4314 18.6143C16.0006 18.9802 16.1226 19.7528 15.7567 20.322C15.3907 20.8913 14.6182 21.0133 14.0489 20.6473L13.1544 20.0374C13.317 21.3792 13.8863 22.6397 14.8215 23.6562C16.0413 25.0387 17.7084 25.8519 19.5788 25.9739C21.4085 26.0958 23.1976 25.4859 24.5394 24.2661C25.0273 23.8189 25.7998 23.8595 26.2471 24.3881ZM31.655 17.5165C31.2484 16.9879 30.4758 16.9065 29.9472 17.3131L29.2153 17.8824C28.9714 16.0527 28.1988 14.3043 26.9383 12.8811C23.5229 9.01837 17.6271 8.69309 13.7643 12.1086C13.2764 12.5559 13.195 13.3284 13.683 13.8163C14.1302 14.3043 14.9028 14.3449 15.3907 13.8977C18.237 11.3767 22.5877 11.6207 25.1086 14.4669C26.0438 15.4834 26.6131 16.7846 26.7757 18.0857L25.8812 17.4758C25.3119 17.1098 24.58 17.2318 24.1734 17.8011C23.8075 18.3703 23.9295 19.1022 24.4987 19.5088L27.2636 21.3792L27.3043 21.4199C27.345 21.4605 27.3856 21.4605 27.4263 21.5012C27.4669 21.5012 27.4669 21.5012 27.5076 21.5419C27.5483 21.5825 27.6296 21.5825 27.6702 21.5825C27.6702 21.5825 27.6702 21.5825 27.7109 21.5825C27.7922 21.5825 27.8329 21.5825 27.9142 21.5825C27.9955 21.5825 28.0362 21.5825 28.1175 21.5825C28.1582 21.5825 28.1582 21.5825 28.1988 21.5419C28.2395 21.5419 28.2801 21.5419 28.3208 21.5012C28.3615 21.5012 28.3615 21.4605 28.4021 21.4605C28.4428 21.4605 28.4835 21.4199 28.5241 21.4199C28.5648 21.4199 28.5648 21.3792 28.6054 21.3792C28.6461 21.3792 28.6461 21.3386 28.6868 21.3386L31.411 19.1835C31.9803 18.8176 32.0616 18.045 31.655 17.5165Z" fill="#0F315E"/>
</svg>
