<svg width="221" height="112" viewBox="0 0 221 112" fill="none" xmlns="http://www.w3.org/2000/svg">
<path d="M172.335 103.915C171.454 103.915 170.573 103.814 169.692 103.601C165.892 102.699 162.822 99.8925 161.588 96.1962C160.972 94.3543 160.154 92.5875 159.16 90.9336C157.851 88.7784 156.215 86.7736 154.403 85.1447C153.761 84.5684 152.943 83.8792 151.257 82.7265C148.237 80.659 146.626 79.9574 144.587 79.0552C142.586 78.1781 140.082 77.0755 136.848 74.9203C132.947 72.3266 127.322 67.7532 122.666 60.6988C120.866 57.9798 119.331 55.0729 118.11 52.0532C116.411 47.8682 117.38 43.0817 120.577 39.8866L156.039 4.32662C158.178 2.184 161.085 0.993652 164.08 0.993652C164.621 0.993652 165.162 1.03124 165.691 1.10642C169.239 1.62015 172.335 3.76277 174.034 6.89526C174.248 7.28368 174.575 7.88512 175.016 8.57427C177.507 12.5463 182.34 17.0445 188.632 21.2671C190.821 22.7331 192.445 23.6728 194.005 24.575C196.698 26.1287 199.492 27.7451 203.695 31.1407C207.42 34.1479 209.408 36.2529 210.578 37.5811C214.416 41.9039 217.474 46.8658 219.651 52.3288C221.338 56.5389 220.331 61.3504 217.084 64.533L180.276 100.669C178.136 102.774 175.267 103.915 172.323 103.915H172.335Z" fill="white"/>
<path d="M164.08 12.271C164.369 12.8098 164.822 13.6117 165.426 14.564C166.773 16.7066 171.026 23.0593 182.314 30.6274C188.606 34.85 190.733 35.1883 196.56 39.8995C199.605 42.3679 201.165 44.0093 202.097 45.0493C205.859 49.297 207.961 53.5572 209.144 56.5017C196.874 68.543 184.605 80.5968 172.335 92.6381C171.278 89.4805 169.969 86.962 168.862 85.1326C166.282 80.8724 163.438 78.0908 162.016 76.8002C160.871 75.7602 159.613 74.7578 157.675 73.4422C150.539 68.568 148.476 69.1068 143.14 65.5608C141.001 64.1324 136.131 60.599 132.116 54.522C130.392 51.9032 129.285 49.535 128.605 47.8435C140.434 35.9902 152.251 24.1369 164.08 12.271Z" fill="white"/>
<path d="M77.7401 110.017C74.8457 110.017 71.9388 108.914 69.7366 106.709L69.3465 106.32C64.9294 101.922 64.9294 94.7803 69.3465 90.3698L156.29 3.78789C158.505 1.58262 161.399 0.47998 164.294 0.47998C167.188 0.47998 170.095 1.58262 172.297 3.78789L172.687 4.17631C177.104 8.57432 177.104 15.7164 172.687 20.1269L85.731 106.709C83.5162 108.914 80.6218 110.017 77.7275 110.017H77.7401Z" fill="white"/>
<path d="M164.298 11.7701L77.344 98.3501L77.7355 98.7399L164.69 12.1599L164.298 11.7701Z" fill="white"/>
<path d="M208.879 67.8786C207.395 67.8786 205.922 67.5904 204.525 67.014C201.757 65.8613 199.555 63.6685 198.409 60.8994C197.239 58.0677 195.754 55.499 194.005 53.2812C190.305 48.5825 186.152 46.2018 180.88 43.1821C175.796 40.2626 170.045 36.9672 164.306 31.2536C162.96 29.9129 161.664 28.4845 160.443 27.0059C158.065 24.1115 155.938 20.979 154.138 17.6836C152.704 15.0524 152.364 11.97 153.207 9.10064C154.05 6.23128 156.013 3.813 158.656 2.38459L159.147 2.12146C160.871 1.18171 162.721 0.743164 164.558 0.743164C168.572 0.743164 172.448 2.87325 174.512 6.61971C175.62 8.64956 176.941 10.5917 178.413 12.3835C182.654 17.5458 187.21 20.152 192.47 23.1718C198.711 26.7553 205.784 30.815 212.265 39.0347C215.335 42.919 217.89 47.3295 219.865 52.1159C222.244 57.8797 219.488 64.4579 213.712 66.8386L213.196 67.0516C211.812 67.6155 210.352 67.9037 208.879 67.9037V67.8786Z" fill="white"/>
<path d="M172.31 23.2721C171.265 22.2321 170.234 21.1044 169.214 19.8514C167.276 17.4958 165.552 14.9397 164.08 12.2582L164.571 11.9951C166.018 14.6389 167.729 17.1575 169.642 19.5006C175.192 26.2542 181.094 29.6373 186.807 32.9201C192.684 36.2907 198.221 39.4733 203.342 45.9638C205.771 49.0462 207.797 52.5545 209.383 56.3887L208.867 56.6017C207.306 52.8177 205.293 49.3469 202.902 46.3146C197.856 39.8993 192.344 36.7418 186.53 33.4088C181.824 30.7023 176.979 27.9332 172.31 23.2721Z" fill="white"/>
<path d="M172.071 104.002C170.41 104.002 168.749 103.639 167.226 102.912C164.508 101.634 162.406 99.3286 161.399 96.4968C160.066 92.7629 158.203 89.5677 155.888 87.0116C152.704 83.5032 149.231 81.7741 144.851 79.5814C140.082 77.2007 134.167 74.2436 128.479 68.5926C127.75 67.8659 127.02 67.089 126.315 66.2996C122.728 62.2149 119.809 57.5412 117.644 52.4039C115.228 46.6652 117.934 40.0619 123.697 37.6436L124.213 37.4306C125.623 36.8417 127.108 36.541 128.605 36.541C130.103 36.541 131.512 36.8167 132.884 37.3805C135.665 38.5082 137.88 40.701 139.05 43.4575C140.246 46.3018 141.844 48.858 143.782 51.0758C147.129 54.8849 150.716 56.6766 155.258 58.9446C160.493 61.5633 166.999 64.8086 173.103 71.5246C177.482 76.3486 180.905 82.15 183.271 88.7533C185.36 94.6173 182.302 101.058 176.425 103.15L175.896 103.338C174.663 103.777 173.367 104.002 172.071 104.002Z" fill="white"/>
<path d="M136.495 60.6363C135.942 60.085 135.388 59.4961 134.847 58.8821C132.066 55.7121 129.788 52.0784 128.089 48.0563L128.605 47.8433C130.279 51.8027 132.519 55.3988 135.262 58.5188C140.069 63.9818 145.204 66.5505 150.174 69.0314C155.007 71.4497 160.015 73.9431 164.696 79.0929C168.069 82.8143 170.724 87.3376 172.587 92.5376L172.058 92.7255C170.221 87.5882 167.603 83.1276 164.281 79.4563C159.675 74.3817 154.717 71.9133 149.923 69.5201C145.468 67.3023 140.875 65.0093 136.483 60.6363H136.495Z" fill="white"/>
<path d="M170.636 46.5778C168.472 46.5778 166.307 45.9638 164.394 44.7108C162.343 43.3701 160.393 41.829 158.593 40.1625C157.008 38.6839 155.535 37.0926 154.189 35.4136C150.552 30.8527 151.005 24.2745 155.233 20.2524L162.872 12.985C164.986 10.9677 167.792 9.85254 170.699 9.85254C170.875 9.85254 171.039 9.85254 171.215 9.85254C174.311 9.99037 177.205 11.3812 179.244 13.7118C180.099 14.6891 181.031 15.6288 181.987 16.4934C182.881 17.3079 183.837 18.0722 184.806 18.7864C187.486 20.7285 189.185 23.7482 189.424 27.0562C189.676 30.3515 188.455 33.5968 186.102 35.9148L178.602 43.3075C176.412 45.4626 173.531 46.5653 170.636 46.5653V46.5778Z" fill="white"/>
<path d="M170.712 21.1294L163.073 28.3968C163.941 29.4869 165.024 30.6897 166.332 31.9177C167.855 33.3336 169.327 34.4362 170.636 35.3008C173.14 32.8324 175.632 30.3765 178.136 27.9081C176.953 27.0435 175.682 26.0411 174.374 24.8633C172.952 23.5853 171.731 22.3197 170.699 21.1294H170.712Z" fill="white"/>
<path d="M170.661 46.7654C168.497 46.7654 166.32 46.1514 164.407 44.8859L164.306 44.8232C162.255 43.47 160.292 41.9414 158.493 40.2623C158.14 39.9366 157.788 39.5983 157.436 39.2474C156.253 38.0571 155.12 36.8041 154.088 35.5135L154.038 35.4508C150.363 30.8899 150.804 24.2867 155.045 20.2395L162.872 12.7716C164.986 10.7543 167.792 9.63916 170.699 9.63916C170.875 9.63916 171.052 9.63916 171.228 9.63916C174.323 9.78952 177.23 11.1803 179.256 13.5234L179.357 13.6362C180.188 14.5885 181.119 15.5282 182.075 16.3928C182.969 17.1947 183.913 17.959 184.881 18.6732L185.032 18.786C187.713 20.7407 189.399 23.7604 189.638 27.0433C189.89 30.3386 188.669 33.5714 186.316 35.8894L178.615 43.4825C176.425 45.6377 173.543 46.7403 170.649 46.7403L170.661 46.7654Z" fill="white"/>
<path d="M165.452 31.2661C164.571 30.389 163.74 29.4618 162.96 28.497L162.884 28.3967L170.712 20.9414L170.812 21.0542C171.958 22.3573 173.191 23.6103 174.474 24.7756C175.67 25.8531 176.928 26.8681 178.224 27.8203L178.363 27.9206L170.661 35.5137L170.561 35.4511C169.025 34.4487 167.578 33.2959 166.232 32.0555C165.968 31.8049 165.703 31.5543 165.439 31.2911L165.452 31.2661ZM163.262 28.4218C164.231 29.6247 165.301 30.7774 166.433 31.8299C167.729 33.0453 169.139 34.148 170.624 35.1378L177.922 27.9331C176.664 27.0059 175.431 26.016 174.286 24.976C173.027 23.8358 171.819 22.6204 170.699 21.3424L163.262 28.4218Z" fill="white"/>
<path d="M188.82 57.7545C186.706 57.7545 184.579 57.1656 182.692 55.9627L173.757 50.2365C170.875 48.3946 168.988 45.3373 168.623 41.9417C168.258 38.5461 169.466 35.163 171.895 32.7573L179.13 25.6027C181.32 23.435 184.202 22.3198 187.121 22.3198C189.21 22.3198 191.299 22.8962 193.162 24.0615L202.323 29.8253C205.268 31.6797 207.193 34.7746 207.545 38.2203C207.898 41.6661 206.627 45.0867 204.123 47.4925L196.673 54.6095C194.508 56.6769 191.677 57.7545 188.833 57.7545H188.82Z" fill="white"/>
<path d="M187.121 33.5967L179.898 40.7513L188.833 46.4775L196.283 39.3605L187.121 33.5967Z" fill="white"/>
<path d="M188.845 57.93C186.731 57.93 184.605 57.3411 182.717 56.1383L173.543 50.2617C170.661 48.4073 168.774 45.3625 168.409 41.9669C168.044 38.5713 169.252 35.1882 171.681 32.7825L179.105 25.4274C181.295 23.2597 184.177 22.1445 187.096 22.1445C189.185 22.1445 191.287 22.7209 193.137 23.8862L202.537 29.8003C205.482 31.6548 207.407 34.7497 207.759 38.2079C208.112 41.6537 206.841 45.0743 204.336 47.4801L196.673 54.7976C194.508 56.865 191.677 57.9426 188.833 57.9426L188.845 57.93Z" fill="white"/>
<path d="M179.684 40.776L187.109 33.4209L196.509 39.335L188.845 46.6525L179.672 40.776H179.684ZM187.147 33.7717L180.112 40.7384L188.808 46.3142L196.056 39.3851L187.147 33.7717Z" fill="white"/>
<path d="M172.524 104.103C169.604 104.103 166.685 102.988 164.47 100.745L164.08 100.344C161.966 98.2137 160.795 95.3319 160.808 92.3497C160.833 89.3551 162.041 86.4982 164.181 84.3932L187.713 61.288C187.65 61.2128 187.348 60.8745 187.348 60.8745C183.258 56.3136 183.573 49.3344 188.053 45.1494L195.553 38.1452C197.654 36.178 200.423 35.0879 203.305 35.0879C203.43 35.0879 203.544 35.0879 203.67 35.0879C206.677 35.1881 209.521 36.4662 211.572 38.6464L211.95 39.0474C213.989 41.215 215.008 43.9841 215.008 46.7407C215.713 47.1918 216.392 47.7181 216.996 48.3446L217.386 48.7455C219.5 50.8756 220.671 53.7575 220.658 56.7396C220.633 59.7343 219.425 62.5911 217.286 64.6961L180.477 100.832C178.275 103 175.393 104.078 172.524 104.078V104.103Z" fill="white"/>
<path d="M172.524 92.8259L172.134 92.425L201.857 63.2427C201.178 61.4635 200.335 59.7469 199.353 58.1305C198.371 56.5267 197.239 54.9855 195.98 53.5822L195.804 53.3817L203.304 46.3774L203.682 46.7784L196.585 53.4193C197.793 54.7976 198.887 56.2886 199.844 57.8423C200.813 59.4211 201.631 61.1001 202.31 62.8167L208.955 56.2886L209.345 56.6896L172.536 92.8259H172.524Z" fill="white"/>
<path d="M202.185 74.5947C201.505 74.5947 200.813 74.532 200.133 74.4067C196.497 73.7426 193.413 71.3494 191.878 67.9914C191.249 66.6256 190.532 65.2724 189.751 63.9818C188.984 62.7038 188.116 61.4508 187.209 60.273C183.661 55.6745 184.189 49.1464 188.43 45.1744L195.729 38.3581C197.83 36.3909 200.612 35.3008 203.481 35.3008C203.795 35.3008 204.11 35.3133 204.437 35.3384C207.634 35.6015 210.578 37.2179 212.516 39.7614C213.951 41.6535 215.285 43.6582 216.455 45.7132C217.663 47.8182 218.733 50.0235 219.639 52.2663C221.35 56.4889 220.343 61.3255 217.084 64.5206L210.138 71.3369C207.998 73.4294 205.129 74.5821 202.185 74.5821V74.5947Z" fill="white"/>
<path d="M202.185 63.3176C201.455 61.7263 200.561 59.9972 199.454 58.1678C198.359 56.3635 197.252 54.7722 196.182 53.3939C198.611 51.126 201.052 48.8456 203.481 46.5776C204.487 47.9058 205.57 49.4721 206.602 51.3014C207.671 53.1684 208.489 54.9226 209.131 56.5014C206.815 58.7693 204.5 61.0497 202.185 63.3176Z" fill="white"/>
<path d="M141.554 75.7973C139.302 75.7973 137.049 75.1332 135.073 73.7674C133.186 72.4518 131.361 70.9732 129.675 69.3819C128.077 67.8658 126.567 66.2369 125.207 64.5203C121.747 60.185 121.973 53.9826 125.723 49.8979L132.783 42.2295C134.935 39.8864 137.968 38.5708 141.139 38.5708C141.277 38.5708 141.428 38.5708 141.567 38.5708C144.889 38.6961 147.985 40.2749 150.049 42.8686C150.678 43.6705 151.382 44.4223 152.138 45.0989C152.955 45.8382 153.849 46.5148 154.78 47.0912C157.637 48.8704 159.55 51.8149 160.003 55.1354C160.456 58.4558 159.411 61.8013 157.133 64.2697L149.923 72.1135C147.708 74.5317 144.65 75.7722 141.567 75.7722L141.554 75.7973Z" fill="white"/>
<path d="M141.567 64.5207C140.308 63.6436 138.912 62.5535 137.477 61.2003C136.118 59.9222 134.998 58.6567 134.092 57.5165C136.445 54.9604 138.798 52.4043 141.139 49.8481C142.007 50.9508 143.127 52.2038 144.512 53.4568C146.022 54.8351 147.507 55.8876 148.778 56.677C146.374 59.2957 143.97 61.9019 141.567 64.5207Z" fill="white"/>
<path d="M160.065 86.5232C157.612 86.5232 155.145 85.7338 153.081 84.1175C152.1 83.3532 151.055 82.6264 149.998 81.9749C148.715 81.198 147.368 80.4838 145.996 79.8824C142.574 78.3788 140.12 75.3089 139.428 71.6502C138.735 67.9914 139.906 64.2325 142.536 61.6012L149.696 54.4466C151.861 52.2789 154.768 51.1387 157.712 51.1387C159.197 51.1387 160.707 51.4269 162.129 52.0283C165.905 53.6196 169.403 55.7246 172.511 58.2807C173.128 58.7819 173.732 59.3207 174.311 59.847C178.879 64.057 179.181 71.1615 174.978 75.735L168.421 82.8645C166.194 85.2828 163.136 86.5232 160.065 86.5232Z" fill="white"/>
<path d="M160.078 75.2462C158.883 74.3064 157.498 73.3416 155.938 72.3768C154.025 71.2115 152.2 70.2843 150.564 69.5701C152.955 67.1894 155.334 64.7962 157.725 62.4155C160.116 63.4179 162.746 64.8714 165.313 66.9764C165.766 67.3523 166.207 67.7282 166.622 68.1167C164.432 70.4848 162.255 72.8655 160.065 75.2337L160.078 75.2462Z" fill="white"/>
<path d="M172.335 103.914C171.479 103.914 170.611 103.814 169.755 103.614C165.967 102.737 162.897 99.9801 161.626 96.3213C161.11 94.8428 160.468 93.3893 159.726 92.011C159.109 90.8833 158.417 89.7807 157.675 88.7533C154.377 84.2299 154.919 77.9775 158.933 74.0807L166.269 66.9386C168.384 64.8837 171.228 63.731 174.185 63.731C174.26 63.731 174.323 63.731 174.399 63.731C177.432 63.7811 180.313 65.0466 182.402 67.2393C184.126 69.0437 185.662 71.0359 186.983 73.1409C188.644 75.8098 189.965 78.6917 190.897 81.7114C192.142 85.7335 191.035 90.1065 188.027 93.0636L180.288 100.657C178.149 102.762 175.28 103.902 172.335 103.902V103.914Z" fill="white"/>
<path d="M172.335 92.6374C171.718 90.8582 170.875 88.8283 169.705 86.6732C168.761 84.9441 167.78 83.4279 166.848 82.1499C169.29 79.7692 171.744 77.3885 174.185 75.0078C175.179 76.0478 176.299 77.401 177.356 79.1051C178.74 81.3229 179.571 83.4029 180.074 85.0443C177.495 87.5753 174.915 90.1064 172.335 92.6374Z" fill="white"/>
<path d="M155.711 46.7405C152.578 46.6528 149.595 45.3121 147.519 42.969C145.996 41.2399 144.6 39.3855 143.366 37.4559C141.919 35.1629 140.686 32.707 139.704 30.1885C138.081 26.0035 139.1 21.2421 142.322 18.0971L149.734 10.8297C151.873 8.7247 154.742 7.58447 157.687 7.58447C158.442 7.58447 159.21 7.65965 159.965 7.81001C163.664 8.56181 166.748 11.1054 168.17 14.5887C168.761 16.0297 169.466 17.4581 170.271 18.8113C170.85 19.7886 171.492 20.766 172.184 21.6932C175.506 26.1664 175.053 32.3938 171.114 36.3407L164.105 43.37C161.978 45.5126 159.046 46.7405 156.026 46.7405C155.925 46.7405 155.812 46.7405 155.711 46.7405Z" fill="white"/>
<path d="M156.001 35.5011C155.032 34.411 153.975 33.0703 152.955 31.4539C151.722 29.4992 150.866 27.6699 150.275 26.1287C152.742 23.7104 155.221 21.2796 157.687 18.8613C158.392 20.5779 159.31 22.5075 160.519 24.5374C161.374 25.9783 162.243 27.2689 163.086 28.4091C160.732 30.7773 158.367 33.1455 156.013 35.5136L156.001 35.5011Z" fill="white"/>
<path d="M172.423 59.2956C170.598 59.2956 168.761 58.857 167.062 57.9549C165.225 56.965 163.4 55.9 161.651 54.7848C159.965 53.7072 158.291 52.5545 156.706 51.3767C154.05 49.3969 152.402 46.3522 152.2 43.0568C151.999 39.7614 153.245 36.5412 155.636 34.2357L162.771 27.3693C164.948 25.2768 167.792 24.1992 170.649 24.1992C172.901 24.1992 175.154 24.8633 177.117 26.2165C178.275 27.0185 179.47 27.7828 180.678 28.497C181.975 29.2613 183.321 29.9881 184.68 30.6521C187.952 32.256 190.255 35.3383 190.859 38.9219C191.463 42.5055 190.28 46.1642 187.713 48.7328L180.464 55.9752C178.287 58.1554 175.38 59.2956 172.436 59.2956H172.423Z" fill="white"/>
<path d="M172.423 48.0185C170.938 47.2292 169.378 46.3145 167.754 45.287C166.207 44.2972 164.785 43.3073 163.501 42.3425C165.879 40.0495 168.258 37.7565 170.649 35.4761C171.945 36.3782 173.367 37.2929 174.915 38.2076C176.576 39.1849 178.174 40.037 179.697 40.7762C177.281 43.1945 174.864 45.6003 172.448 48.0185H172.423Z" fill="white"/>
<path d="M188.833 71.7504C188.606 71.7504 188.38 71.7504 188.153 71.7254C184.894 71.5249 181.874 69.9461 179.873 67.365C179.269 66.5881 178.602 65.8614 177.872 65.2098C177.117 64.5207 176.286 63.9067 175.418 63.3679C172.411 61.526 170.435 58.381 170.095 54.8851C169.743 51.3893 171.051 47.9185 173.644 45.5253L181.144 38.5586C183.308 36.5538 186.077 35.5264 188.871 35.5264C191.199 35.5264 193.527 36.2406 195.528 37.6815C197.075 38.8092 198.573 40.0246 199.982 41.3152C201.644 42.8439 203.217 44.4978 204.639 46.252C208.301 50.7127 207.999 57.2032 203.934 61.3005L196.912 68.3799C194.773 70.535 191.866 71.7379 188.845 71.7379L188.833 71.7504Z" fill="white"/>
<path d="M188.833 60.4734C187.977 59.3708 186.87 58.1178 185.473 56.8522C184.001 55.5241 182.579 54.5217 181.345 53.7699C183.85 51.4518 186.341 49.1338 188.845 46.8032C189.915 47.5801 191.073 48.5073 192.268 49.5974C193.69 50.913 194.873 52.2036 195.842 53.3814C193.502 55.7371 191.161 58.1052 188.82 60.4609L188.833 60.4734Z" fill="white"/>
<path d="M188.82 71.9636C188.594 71.9636 188.367 71.9636 188.141 71.9385C184.882 71.738 181.861 70.1593 179.86 67.5906L179.76 67.4653C179.156 66.6885 178.489 65.9617 177.771 65.3227C177.016 64.6336 176.198 64.0196 175.33 63.4933L175.154 63.3806C172.159 61.5261 170.183 58.3936 169.843 54.8978C169.504 51.4019 170.812 47.9437 173.392 45.5504L181.106 38.3833C183.271 36.3785 186.039 35.3511 188.833 35.3511C191.136 35.3511 193.464 36.0528 195.452 37.4812C195.465 37.4812 195.578 37.5689 195.591 37.5814C197.151 38.7091 198.649 39.937 200.045 41.2276C201.706 42.7563 203.28 44.4228 204.727 46.1769C204.739 46.1895 204.827 46.3022 204.84 46.3273C208.464 50.788 208.137 57.2409 204.097 61.3256L196.887 68.6055C194.747 70.7607 191.841 71.9636 188.82 71.9636Z" fill="white"/>
<path d="M181.119 53.7951L188.833 46.6279L188.921 46.6906C190.116 47.5551 191.274 48.4949 192.356 49.4973C193.64 50.6751 194.848 51.9532 195.943 53.2939L196.018 53.3941L188.808 60.674L188.707 60.5487C187.7 59.2581 186.58 58.0427 185.36 56.9401C184.089 55.7998 182.717 54.7599 181.257 53.8702L181.106 53.77L181.119 53.7951ZM188.858 46.9913L181.572 53.7575C182.981 54.6346 184.328 55.6495 185.561 56.7646C186.756 57.8422 187.851 59.02 188.845 60.273L195.666 53.3816C194.596 52.0785 193.413 50.8505 192.18 49.6978C191.136 48.733 190.016 47.8183 188.871 46.9788L188.858 46.9913Z" fill="white"/>
<path d="M156.089 60.9367C153.836 60.9367 151.571 60.2726 149.608 58.9068C147.796 57.6413 146.06 56.238 144.449 54.7344C142.775 53.1681 141.202 51.4641 139.78 49.6597C136.206 45.1364 136.621 38.671 140.749 34.6363L148.086 27.4817C150.212 25.4143 153.056 24.249 156.014 24.249C156.165 24.249 156.303 24.249 156.454 24.249C159.575 24.3743 162.494 25.7651 164.546 28.1082C165.376 29.048 166.257 29.9627 167.176 30.8022C168.119 31.6668 169.126 32.4812 170.158 33.233C172.839 35.1751 174.537 38.1948 174.789 41.4902C175.041 44.7856 173.833 48.0309 171.479 50.3489L164.067 57.6664C161.878 59.8215 158.996 60.9367 156.089 60.9367Z" fill="white"/>
<path d="M156.089 49.6601C154.894 48.8332 153.56 47.7932 152.201 46.5151C150.779 45.1744 149.608 43.8713 148.677 42.681C151.118 40.3003 153.56 37.9071 156.014 35.5264C157.008 36.6541 158.165 37.8695 159.512 39.1099C160.896 40.3755 162.243 41.453 163.501 42.3552C161.035 44.786 158.568 47.2293 156.089 49.6601Z" fill="white"/>
<path d="M156.102 61.1124C153.811 61.1124 151.521 60.4233 149.545 59.0324L149.457 58.9698C147.708 57.7544 145.971 56.351 144.361 54.8349C144.021 54.5217 143.681 54.1959 143.354 53.8576C142.032 52.5419 140.812 51.1636 139.679 49.7352C139.679 49.7352 139.604 49.635 139.591 49.635C136.03 45.1117 136.445 38.6462 140.573 34.6241L148.098 27.2816C150.225 25.2141 153.069 24.0488 156.026 24.0488C156.164 24.0488 156.315 24.0488 156.454 24.0488C159.562 24.1616 162.494 25.5524 164.545 27.883L164.646 27.9958C165.489 28.948 166.37 29.8502 167.276 30.6897C168.22 31.5543 169.227 32.3687 170.259 33.1205L170.334 33.1706C173.04 35.1128 174.751 38.1325 175.003 41.4404C175.267 44.7483 174.046 47.9936 171.693 50.3367L164.092 57.8421C161.903 59.9972 159.021 61.1124 156.114 61.1124H156.102Z" fill="white"/>
<path d="M151.332 45.8634C150.351 44.886 149.419 43.846 148.564 42.7685L148.488 42.6682L156.013 35.3257L156.114 35.4385C157.209 36.6914 158.379 37.8818 159.6 39.0095C160.858 40.1622 162.192 41.2523 163.577 42.2547L163.702 42.355L156.102 49.8604L156.013 49.7978C154.642 48.8455 153.32 47.7804 152.112 46.6402C151.848 46.3896 151.596 46.1516 151.345 45.8884L151.332 45.8634ZM148.866 42.6933C149.91 44.0089 151.068 45.2619 152.301 46.4147C153.484 47.5173 154.755 48.5573 156.089 49.4845L163.3 42.3675C161.953 41.3902 160.657 40.3251 159.436 39.1974C158.241 38.1073 157.096 36.9295 156.013 35.7141L148.878 42.6808L148.866 42.6933Z" fill="white"/>
<path d="M174.11 72.289C171.568 72.289 169.013 71.437 166.911 69.7079C165.905 68.8809 164.848 68.104 163.753 67.3773C162.583 66.613 161.349 65.8988 160.091 65.2597C156.844 63.6058 154.579 60.4983 154.038 56.9148C153.484 53.3187 154.705 49.685 157.322 47.1414L164.546 40.1247C166.723 38.0071 169.592 36.917 172.461 36.917C174.676 36.917 176.916 37.5685 178.854 38.8842C180.175 39.7863 181.534 40.6885 182.931 41.6032C184.328 42.5179 185.7 43.395 187.046 44.2345C189.915 46.0388 191.828 49.0209 192.256 52.3789C192.684 55.737 191.564 59.095 189.236 61.5509L182.352 68.7806C180.137 71.1112 177.142 72.3016 174.135 72.3016L174.11 72.289Z" fill="white"/>
<path d="M174.122 61.0123C172.927 60.035 171.555 58.995 170.007 57.9801C168.321 56.8774 166.723 55.9627 165.238 55.2109C167.641 52.8678 170.058 50.5247 172.461 48.1816C173.845 49.1214 175.267 50.0737 176.715 51.0259C178.162 51.9657 179.596 52.8929 181.018 53.77C178.715 56.1757 176.425 58.594 174.122 60.9998V61.0123Z" fill="white"/>
<path d="M174.122 72.4768C171.568 72.4768 169.013 71.6247 166.911 69.8831L166.811 69.7954C165.817 68.9809 164.76 68.2041 163.677 67.4898C162.494 66.713 161.274 65.9988 160.028 65.3723L159.839 65.272C156.592 63.6181 154.34 60.5107 153.799 56.9271C153.245 53.331 154.478 49.7099 157.083 47.1663L164.52 39.924C166.697 37.8064 169.567 36.7163 172.436 36.7163C174.651 36.7163 176.891 37.3679 178.829 38.6835C180.263 39.6608 181.635 40.5755 182.994 41.4652C184.353 42.3548 185.737 43.2319 187.109 44.0964L187.247 44.1842C190.117 45.9885 192.029 48.9706 192.457 52.3286C192.885 55.6866 191.778 59.0447 189.437 61.5005L182.34 68.9433C180.125 71.2739 177.13 72.4642 174.122 72.4642V72.4768Z" fill="white"/>
<path d="M164.999 55.2487L172.436 48.0063L172.524 48.069C173.933 49.0213 175.368 49.9861 176.777 50.9133C178.187 51.8405 179.634 52.7677 181.068 53.6574L181.207 53.7451L174.109 61.1878L174.009 61.1001C172.7 60.0226 171.316 59.0076 169.906 58.0804C168.384 57.078 166.786 56.1508 165.15 55.3238L164.973 55.2361L164.999 55.2487ZM172.474 48.3697L165.464 55.186C167.05 56.0005 168.598 56.9026 170.083 57.8674C171.467 58.7821 172.826 59.772 174.109 60.8245L180.792 53.8077C179.407 52.9306 177.998 52.041 176.639 51.1514C175.255 50.2492 173.845 49.3095 172.474 48.3697Z" fill="white"/>
<path d="M187.486 89.0291C186.58 89.0291 185.674 88.9163 184.768 88.7033C180.943 87.7635 177.885 84.9192 176.689 81.1853C176.349 80.1203 175.884 79.0803 175.305 78.1155C174.751 77.1757 174.084 76.2986 173.329 75.4967C169.101 70.9985 169.29 63.9566 173.745 59.6839L180.993 52.7298C183.107 50.7 185.926 49.5723 188.858 49.5723C188.959 49.5723 189.047 49.5723 189.148 49.5723C192.18 49.6474 195.05 50.9255 197.126 53.1308C199.001 55.123 200.662 57.3408 202.046 59.6965C203.468 62.1273 204.626 64.721 205.457 67.4149C206.715 71.437 205.608 75.8225 202.587 78.7796L195.427 85.8089C193.288 87.9139 190.419 89.0541 187.474 89.0541L187.486 89.0291Z" fill="white"/>
<path d="M187.486 77.7522C187.008 76.2486 186.253 74.3816 185.07 72.3643C183.913 70.4222 182.679 68.906 181.622 67.7783C184.038 65.4603 186.454 63.1423 188.871 60.8242C189.915 61.9394 191.148 63.443 192.281 65.3726C193.464 67.3774 194.194 69.2443 194.647 70.7354C192.268 73.0785 189.877 75.4216 187.499 77.7522H187.486Z" fill="white"/>
<path d="M187.423 89.292C186.53 89.292 185.624 89.1917 184.73 88.9662C180.905 88.039 177.847 85.1947 176.651 81.4733L176.589 81.2603C176.236 80.1702 175.783 79.1427 175.204 78.1905C174.651 77.2632 173.996 76.3861 173.254 75.5968L173.178 75.509C168.937 71.0108 169.114 63.9564 173.581 59.6712L181.018 52.5291C183.132 50.4993 185.951 49.3716 188.883 49.3716C188.971 49.3716 189.072 49.3716 189.16 49.3716C192.193 49.4468 195.062 50.7248 197.138 52.9176L197.239 53.0178C199.127 55.0226 200.788 57.2404 202.185 59.6085C203.632 62.0644 204.777 64.6706 205.62 67.3646C206.866 71.3867 205.784 75.8474 202.776 78.8044L195.402 86.0467C193.262 88.1518 190.393 89.292 187.449 89.292H187.423Z" fill="white"/>
<path d="M187.423 78.0149L187.36 77.8019C186.756 75.935 185.951 74.1307 184.957 72.4516C183.988 70.8102 182.83 69.2816 181.521 67.8907L181.433 67.7905L188.871 60.6484L188.971 60.7487C190.28 62.1395 191.438 63.6807 192.407 65.3221C193.401 67.0136 194.206 68.8305 194.785 70.71L194.81 70.7852L187.436 78.0275L187.423 78.0149ZM181.811 67.7905C183.094 69.1688 184.227 70.6849 185.183 72.3013C186.152 73.9427 186.945 75.6844 187.549 77.5012L194.483 70.6975C193.904 68.8681 193.124 67.1014 192.155 65.4474C191.224 63.8561 190.116 62.3776 188.858 61.0243L181.811 67.7905Z" fill="white"/>
<path d="M141.139 61.1247C140.862 61.1247 140.585 61.1247 140.308 61.0996C137.011 60.8616 133.979 59.1951 132.028 56.5387C130.543 54.5339 129.197 52.4038 128.026 50.1986C127.057 48.3817 126.202 46.4897 125.459 44.5852C123.848 40.4002 124.868 35.6638 128.077 32.5188L135.35 25.3642C137.49 23.2592 140.359 22.1064 143.303 22.1064C144.096 22.1064 144.889 22.1942 145.682 22.357C149.419 23.159 152.49 25.7652 153.874 29.3112C154.352 30.5266 154.906 31.7169 155.523 32.8571C156.114 33.9472 156.794 35.0248 157.536 36.0397C160.77 40.5129 160.279 46.6651 156.378 50.5745L149.18 57.7917C147.041 59.9343 144.147 61.1247 141.152 61.1247H141.139Z" fill="white"/>
<path d="M141.126 49.8481C140.107 48.4698 139.025 46.8284 138.006 44.9113C137.175 43.3576 136.521 41.8791 136.005 40.5384C138.433 38.1577 140.862 35.7645 143.278 33.3838C143.857 34.8623 144.587 36.5037 145.543 38.2579C146.462 39.9369 147.406 41.3904 148.312 42.6309C145.908 45.0366 143.517 47.4424 141.114 49.8481H141.126Z" fill="white"/>
<path d="M141.114 61.338C140.837 61.338 140.56 61.338 140.271 61.3129C136.974 61.0748 133.941 59.4084 131.99 56.752L131.89 56.6267C130.405 54.6219 129.058 52.4793 127.875 50.274C126.906 48.4572 126.038 46.5652 125.308 44.6481C123.697 40.4631 124.691 35.6516 127.888 32.494L135.375 25.1264C137.515 23.0214 140.384 21.8687 143.329 21.8687C144.121 21.8687 144.914 21.9564 145.694 22.1193C149.432 22.9212 152.502 25.5274 153.887 29.0734L153.962 29.2738C154.428 30.4893 154.981 31.6671 155.611 32.8073C156.202 33.8974 156.882 34.9624 157.612 35.9774C157.612 35.9774 157.687 36.0776 157.687 36.0901C160.909 40.5633 160.418 46.703 156.517 50.6123L149.117 58.0175C146.978 60.1602 144.084 61.3505 141.089 61.3505L141.114 61.338Z" fill="white"/>
<path d="M141.114 50.0609L141.013 49.9356C139.855 48.3694 138.798 46.7029 137.88 44.9863C137.125 43.5704 136.458 42.0919 135.879 40.6008L135.841 40.5131L143.329 33.1455L143.404 33.346C144.046 34.9999 144.813 36.6414 145.669 38.2076C146.487 39.7112 147.418 41.1772 148.425 42.568L148.488 42.6683L141.089 50.0735L141.114 50.0609ZM136.181 40.5758C136.747 42.0292 137.401 43.4702 138.144 44.8485C139.025 46.5024 140.044 48.1188 141.151 49.6349L148.148 42.6181C147.167 41.2524 146.248 39.7989 145.443 38.3204C144.612 36.8043 143.87 35.2255 143.24 33.6342L136.181 40.5758Z" fill="white"/>
<path d="M157.712 73.6926C155.737 73.6926 153.748 73.1789 151.961 72.1263C150.439 71.2367 148.916 70.297 147.431 69.3196C145.682 68.1794 143.933 66.964 142.246 65.7235C139.541 63.7313 137.855 60.6489 137.666 57.3034C137.464 53.9579 138.773 50.7001 141.227 48.4197L148.375 41.7538C150.527 39.749 153.308 38.709 156.114 38.709C158.09 38.709 160.078 39.2227 161.878 40.2752C163.186 41.0521 164.508 41.8415 165.842 42.6434C167.528 43.6583 169.189 44.6858 170.825 45.7132C173.732 47.5301 175.657 50.5748 176.047 53.9705C176.437 57.3661 175.267 60.7617 172.851 63.1925L165.754 70.3346C163.564 72.5398 160.644 73.6801 157.7 73.6801L157.712 73.6926Z" fill="white"/>
<path d="M157.725 62.4157C156.404 61.6389 155.044 60.7993 153.648 59.8972C151.986 58.8196 150.439 57.7295 148.979 56.6645C151.357 54.4467 153.748 52.2289 156.127 49.9985C157.398 50.7503 158.681 51.5147 159.977 52.2915C161.613 53.2814 163.237 54.2712 164.822 55.2611C162.456 57.6418 160.091 60.0225 157.725 62.4032V62.4157Z" fill="white"/>
<path d="M157.737 73.8676C155.774 73.8676 153.799 73.3539 152.012 72.3139L151.924 72.2638C150.363 71.3491 148.84 70.3969 147.368 69.4446C145.619 68.3044 143.882 67.1015 142.183 65.861L141.969 65.7107C139.289 63.7059 137.641 60.636 137.452 57.3031C137.263 53.9701 138.572 50.7374 141.026 48.4569L148.375 41.6156C150.527 39.6108 153.308 38.5708 156.114 38.5708C158.115 38.5708 160.116 39.0971 161.915 40.1621C163.274 40.964 164.621 41.7659 165.93 42.5553C167.591 43.5577 169.264 44.5852 170.913 45.6252L171.051 45.7129C173.958 47.5297 175.884 50.5745 176.286 53.9701C176.689 57.3657 175.506 60.7613 173.09 63.2047L165.791 70.5472C163.602 72.7525 160.682 73.8927 157.737 73.8927V73.8676Z" fill="white"/>
<path d="M148.765 56.6768L156.114 49.8354L156.202 49.8856C157.486 50.6374 158.782 51.4142 160.053 52.1785C161.664 53.1559 163.3 54.1583 164.898 55.1607L165.049 55.2484L157.75 62.5909L157.662 62.5408C156.29 61.7389 154.919 60.8869 153.585 60.0098C151.999 58.9823 150.439 57.8922 148.916 56.777L148.777 56.6768H148.765ZM156.152 50.1738L149.205 56.6517C150.678 57.7293 152.2 58.7818 153.736 59.7842C155.032 60.6363 156.378 61.4632 157.712 62.2526L164.621 55.2985C163.073 54.3337 161.487 53.3564 159.927 52.4166C158.681 51.6648 157.423 50.913 156.164 50.1738H156.152Z" fill="white"/>
<path d="M173.896 86.1095C170.787 86.0343 167.855 84.6936 165.766 82.3881C164.923 81.4609 164.03 80.5588 163.111 79.7193C162.117 78.8171 161.072 77.94 160.003 77.1256C157.335 75.1208 155.699 72.0384 155.523 68.7054C155.347 65.3725 156.668 62.1397 159.122 59.8718L166.421 53.1057C168.572 51.1134 171.341 50.0859 174.135 50.0859C176.198 50.0859 178.275 50.6498 180.125 51.79C181.987 52.9428 183.762 54.2709 185.397 55.7244C187.159 57.3032 188.783 59.0448 190.217 60.9118C193.665 65.3975 193.263 71.7252 189.248 75.7347L182.188 82.7891C180.062 84.9192 177.167 86.1095 174.16 86.1095C174.072 86.1095 173.971 86.1095 173.883 86.1095H173.896Z" fill="white"/>
<path d="M174.172 74.833C173.178 73.7429 172.058 72.6026 170.8 71.4374C169.428 70.1718 168.094 69.0817 166.836 68.1295C169.264 65.8741 171.706 63.6187 174.134 61.3633C175.254 62.0524 176.525 62.9671 177.847 64.1324C179.269 65.4105 180.389 66.676 181.232 67.7786C178.879 70.1342 176.525 72.4773 174.172 74.833Z" fill="white"/>
<path d="M173.883 86.3101C170.775 86.2349 167.83 84.8817 165.754 82.5887L165.653 82.476C164.822 81.5613 163.929 80.6591 163.023 79.8196C162.029 78.9049 160.984 78.0404 159.915 77.2384L159.738 77.1006C157.083 75.0833 155.46 72.0009 155.296 68.693C155.133 65.3726 156.454 62.1524 158.895 59.8845L166.395 52.9304C168.547 50.9381 171.328 49.9106 174.109 49.9106C176.198 49.9106 178.3 50.487 180.15 51.6523C182.05 52.8301 183.837 54.1708 185.485 55.6368C187.247 57.2156 188.883 58.9573 190.318 60.8368L190.393 60.937C193.841 65.4227 193.426 71.7629 189.412 75.7599L182.176 82.9897C180.049 85.1198 177.155 86.3101 174.147 86.3101C174.047 86.3101 173.958 86.3101 173.858 86.3101H173.883Z" fill="white"/>
<path d="M166.609 68.1416L174.122 61.1875L174.21 61.2501C175.531 62.0646 176.777 63.0043 177.935 64.0318C179.181 65.147 180.326 66.3749 181.345 67.6905L181.421 67.7908L181.333 67.8785L174.172 75.0456L174.072 74.9328C173.002 73.755 171.869 72.6148 170.712 71.5372C169.453 70.3845 168.119 69.2693 166.76 68.2419L166.622 68.1416H166.609ZM174.147 61.5383L167.05 68.1166C168.371 69.119 169.667 70.1965 170.888 71.3242C172.02 72.3767 173.128 73.4794 174.172 74.6196L181.031 67.7657C180.049 66.5002 178.942 65.3098 177.734 64.2448C176.614 63.2424 175.405 62.3403 174.134 61.5383H174.147Z" fill="white"/>
<path d="M48.3813 105.268C45.4366 105.268 42.5674 104.128 40.4281 102.023L3.63211 65.8865C0.385403 62.7039 -0.621328 57.8924 1.06495 53.6823C3.25459 48.2193 6.29995 43.27 10.1507 38.9346C11.3336 37.6064 13.3219 35.5014 17.0342 32.4942C21.2373 29.0986 24.0184 27.4822 26.724 25.9285C28.297 25.0264 29.9204 24.0866 32.0974 22.6206C38.3895 18.398 43.2218 13.8998 45.7135 9.94031C46.1539 9.23864 46.4937 8.6372 46.7076 8.23624C48.419 5.10376 51.5147 2.96114 55.0509 2.45994C55.592 2.38476 56.1205 2.34717 56.6617 2.34717C59.6567 2.34717 62.551 3.53751 64.7029 5.68013L100.178 41.2526C103.374 44.4603 104.343 49.2467 102.644 53.4192C101.423 56.4389 99.8882 59.3459 98.0886 62.0649C93.4325 69.1192 87.8074 73.6927 83.9063 76.2864C80.6722 78.4415 78.1805 79.5316 76.1671 80.4212C74.1284 81.3234 72.5177 82.0251 69.4849 84.0925C67.7986 85.2453 66.9806 85.9344 66.3389 86.5108C64.5267 88.1397 62.8908 90.1445 61.5821 92.2996C60.5879 93.9536 59.7699 95.7203 59.1533 97.5622C57.9201 101.259 54.8495 104.053 51.0491 104.967C50.1682 105.18 49.2874 105.281 48.4065 105.281L48.3813 105.268Z" fill="white"/>
<path d="M56.6365 13.624C56.3471 14.1628 55.8941 14.9647 55.29 15.917C53.9435 18.0596 49.6901 24.4123 38.4021 31.9804C32.1101 36.203 29.9833 36.5413 24.1569 41.2526C21.1115 43.721 19.5511 45.3624 18.6199 46.4024C14.8572 50.65 12.7557 54.9102 11.5728 57.8547C23.8423 69.896 36.1118 81.9498 48.3813 93.9911C49.4384 90.8335 50.7472 88.315 51.8546 86.4856C54.4343 82.2255 57.2783 79.4438 58.7003 78.1532C59.8455 77.1133 61.1039 76.1109 63.0419 74.7952C70.1771 69.9211 72.2409 70.4599 77.5765 66.9139C79.7158 65.4855 84.5859 61.952 88.6002 55.875C90.3243 53.2562 91.4317 50.8881 92.1112 49.1965C80.2821 37.3432 68.4656 25.4899 56.6365 13.624Z" fill="white"/>
<path d="M142.976 111.37C140.082 111.37 137.175 110.268 134.973 108.062L48.0038 21.4804C43.5868 17.0824 43.5868 9.9529 48.0038 5.54236L48.3939 5.15393C50.5206 3.03637 53.4024 1.84603 56.41 1.8335C59.4176 1.8335 62.2994 3.02384 64.4135 5.1414L151.37 91.7233C153.497 93.8409 154.692 96.7102 154.692 99.6924C154.692 102.674 153.497 105.556 151.37 107.661L150.98 108.05C148.765 110.255 145.871 111.358 142.976 111.358V111.37Z" fill="white"/>
<path d="M56.4032 13.1224L56.0117 13.5122L142.966 100.092L143.358 99.7024L56.4032 13.1224Z" fill="white"/>
<path d="M11.837 69.244C10.4024 69.244 8.95524 68.9683 7.54582 68.4045L7.02987 68.1915C4.24878 67.0513 2.03397 64.871 0.876228 62.1019C-0.281512 59.3328 -0.294096 56.2254 0.85106 53.4563C2.82677 48.6698 5.39393 44.2593 8.45188 40.375C14.9201 32.1554 22.005 28.0957 28.2467 24.5121C33.5195 21.4798 38.0749 18.8736 42.3032 13.7238C43.7755 11.932 45.0843 9.98989 46.2043 7.96004C47.6389 5.32875 50.0676 3.38661 52.9494 2.53457C53.9939 2.23386 55.0635 2.0835 56.1457 2.0835C58.0208 2.0835 59.8958 2.5471 61.5821 3.46179L62.0729 3.72492C67.5596 6.70705 69.5856 13.5609 66.578 19.024C64.7785 22.3068 62.6517 25.4393 60.2733 28.3463C59.0527 29.8373 57.7439 31.2657 56.41 32.5939C50.6716 38.3076 44.9207 41.6029 39.8367 44.5224C34.3626 47.6674 30.4112 49.9353 26.724 54.6215C24.9748 56.8519 23.4899 59.408 22.3196 62.2398C20.5201 66.5876 16.2918 69.2315 11.837 69.2315V69.244Z" fill="white"/>
<path d="M48.4065 24.6251C49.451 23.5851 50.4829 22.4574 51.5022 21.2044C53.4401 18.8488 55.1642 16.2927 56.6365 13.6113L56.1457 13.3481C54.6985 15.992 52.9871 18.5105 51.0743 20.8536C45.5247 27.6072 39.6227 30.9903 33.9096 34.2731C28.0328 37.6437 22.4957 40.8263 17.374 47.3168C14.9453 50.3992 12.9192 53.9076 11.3336 57.7417L11.8496 57.9547C13.41 54.1707 15.4235 50.6999 17.8144 47.6677C22.8607 41.2523 28.3725 38.0948 34.1864 34.7618C38.8929 32.0553 43.7378 29.2862 48.4065 24.6251Z" fill="white"/>
<path d="M48.6456 105.368C47.3872 105.368 46.1036 105.155 44.8577 104.716L44.3292 104.528C41.4978 103.526 39.1823 101.446 37.8861 98.7396C36.59 96.0331 36.439 92.9382 37.4457 90.119C39.8115 83.5032 43.2218 77.7144 47.6137 72.8903C53.717 66.1618 60.2356 62.9165 65.458 60.3103C70.0008 58.0424 73.5873 56.2506 76.9347 52.4415C78.8727 50.2362 80.4708 47.6676 81.6663 44.8233C82.8241 42.0667 85.0515 39.8865 87.82 38.7462C89.1916 38.1824 90.6514 37.9067 92.0986 37.9067C93.5458 37.9067 95.081 38.1949 96.4904 38.7838L97.0064 38.9968C102.77 41.4026 105.488 48.0184 103.059 53.7571C100.895 58.8944 97.9754 63.5681 94.3889 67.6528C93.6842 68.4547 92.9543 69.2191 92.2244 69.9458C86.5364 75.6093 80.6093 78.5664 75.8525 80.9346C71.4732 83.1273 68.0125 84.8564 64.8162 88.3648C62.5007 90.9209 60.6382 94.1035 59.3043 97.8374C57.6558 102.461 53.2891 105.343 48.633 105.343L48.6456 105.368Z" fill="white"/>
<path d="M84.2209 61.9894C84.7746 61.438 85.3283 60.8491 85.8694 60.2352C88.6505 57.0651 90.9283 53.4314 92.6271 49.4093L92.1112 49.1963C90.4375 53.1558 88.1975 56.7518 85.4542 59.8718C80.647 65.3349 75.5127 67.9035 70.542 70.3844C65.7097 72.8027 60.7012 75.2962 56.0199 80.446C52.6473 84.1674 49.9921 88.6907 48.1296 93.8906L48.6582 94.0785C50.4955 88.9413 53.113 84.4806 56.4352 80.8093C61.041 75.7347 65.9991 73.2663 70.7937 70.8731C75.2484 68.6553 79.8417 66.3623 84.2335 61.9894H84.2209Z" fill="white"/>
<path d="M50.0801 47.9434C47.1732 47.9434 44.2914 46.8282 42.1144 44.6856L34.6142 37.2929C32.2484 34.9623 31.0403 31.7296 31.292 28.4342C31.5437 25.1389 33.23 22.1192 35.9104 20.1645C36.892 19.4503 37.8358 18.686 38.7292 17.884C39.6982 17.0069 40.6169 16.0672 41.4852 15.0899C43.5238 12.7718 46.4181 11.381 49.5138 11.2432C49.69 11.2432 49.8536 11.2432 50.0298 11.2432C52.9367 11.2432 55.743 12.3583 57.8571 14.3757L65.4957 21.643C69.724 25.6777 70.177 32.2559 66.5276 36.8168C65.1811 38.4958 63.7087 40.0996 62.1357 41.5531C60.3488 43.2196 58.3982 44.7482 56.3344 46.1015C54.4217 47.3545 52.2572 47.9684 50.0927 47.9684L50.0801 47.9434Z" fill="white"/>
<path d="M50.0047 22.4951L57.6433 29.7625C56.775 30.8526 55.6927 32.0555 54.384 33.2834C52.8613 34.6993 51.389 35.8019 50.0802 36.6665C47.576 34.1981 45.0843 31.7422 42.5801 29.2738C43.763 28.4093 45.034 27.4069 46.3427 26.229C47.7647 24.951 48.9854 23.6855 50.0173 22.4951H50.0047Z" fill="white"/>
<path d="M50.0424 48.0813C47.1355 48.0813 44.2537 46.9912 42.0767 44.8611L34.3752 37.268C32.022 34.9499 30.8013 31.7047 31.053 28.4218C31.3047 25.1265 32.9784 22.1067 35.6588 20.1646L35.7972 20.0644C36.7914 19.3376 37.7352 18.5858 38.6161 17.7839C39.585 16.9068 40.5037 15.9796 41.3594 15.0023L41.4727 14.8644C43.5113 12.5464 46.4056 11.1681 49.4887 11.0303C49.6523 11.0303 49.8159 11.0303 49.9921 11.0303C52.899 11.0303 55.7053 12.1454 57.8194 14.1628L65.6468 21.6181C69.8625 25.6402 70.3281 32.1933 66.7038 36.7542L66.6283 36.8545C65.5713 38.1827 64.4513 39.4357 63.2684 40.6135C62.916 40.9643 62.5637 41.3026 62.2113 41.6284C60.4118 43.3074 58.4486 44.8486 56.3974 46.2018C54.4721 47.4674 52.2573 48.0938 50.0424 48.0938V48.0813Z" fill="white"/>
<path d="M54.472 33.3836C53.1381 34.6366 51.6784 35.7768 50.1431 36.7792L50.0424 36.8419L42.3409 29.2487L42.4794 29.1485C43.7755 28.2087 45.0465 27.1813 46.2294 26.1037C47.513 24.9384 48.7463 23.6854 49.8914 22.3823L49.9921 22.2695L57.8194 29.7248L57.7439 29.8251C56.9763 30.7899 56.1332 31.7171 55.2523 32.5942C54.988 32.8573 54.7237 33.1079 54.4595 33.3585L54.472 33.3836ZM50.0173 22.6955C48.8973 23.9736 47.6892 25.189 46.4308 26.3292C45.273 27.3692 44.0524 28.3716 42.794 29.2863L50.0928 36.491C51.5777 35.5012 52.9871 34.3985 54.2833 33.1831C55.4159 32.1306 56.4855 30.9904 57.4545 29.775L50.0173 22.6955Z" fill="white"/>
<path d="M31.8961 59.1075C29.0521 59.1075 26.2207 58.0425 24.0562 55.975L16.6064 48.858C14.0896 46.4523 12.8312 43.0441 13.1835 39.5859C13.5359 36.1401 15.4613 33.0327 18.4059 31.1783L27.5672 25.4145C29.4296 24.2492 31.5312 23.6729 33.6076 23.6729C36.5271 23.6729 39.4089 24.788 41.5985 26.9557L48.8218 34.1103C51.2505 36.516 52.4586 39.8991 52.0937 43.2947C51.7287 46.6904 49.8411 49.7477 46.9593 51.5896L38.0246 57.3158C36.1496 58.5186 34.0103 59.1075 31.8961 59.1075Z" fill="white"/>
<path d="M33.5948 34.9497L40.8181 42.1168L31.8834 47.8305L24.4336 40.7135L33.5948 34.9497Z" fill="white"/>
<path d="M31.8709 59.2826C29.0269 59.2826 26.1955 58.2175 24.031 56.1376L16.3673 48.8201C13.8504 46.4143 12.592 43.0062 12.9444 39.5479C13.2967 36.1022 15.2221 32.9948 18.1668 31.1529L27.5672 25.2387C29.4296 24.0609 31.5312 23.4971 33.6075 23.4971C36.5271 23.4971 39.4088 24.6122 41.5985 26.7799L49.0231 34.135C51.4518 36.5407 52.6599 39.9238 52.295 43.3194C51.93 46.7151 50.0424 49.7724 47.1606 51.6143L37.9868 57.4908C36.1118 58.6937 33.9725 59.2826 31.8583 59.2826H31.8709Z" fill="white"/>
<path d="M31.8709 48.006L24.2072 40.6885L33.6075 34.7744L41.0321 42.1295L31.8583 48.006H31.8709ZM24.6602 40.7387L31.9086 47.6677L40.6043 42.0919L33.5697 35.1253L24.6602 40.7387Z" fill="white"/>
<path d="M48.1926 105.469C45.3234 105.469 42.4416 104.391 40.2394 102.223L3.4308 66.0871C1.2915 63.9821 0.070839 61.1252 0.0582549 58.1306C0.0330866 55.1359 1.216 52.2666 3.33013 50.1365L3.72024 49.7355C4.33686 49.109 5.00382 48.5828 5.70853 48.1317C5.70853 45.2749 6.80335 42.5183 8.77906 40.4258L9.15658 40.0248C11.384 37.6692 14.3916 36.4663 17.4118 36.4663C20.1929 36.4663 22.974 37.4812 25.1636 39.5236L32.6637 46.5279C37.1437 50.7129 37.4583 57.692 33.3685 62.2529C33.3685 62.2529 33.0664 62.5912 33.0035 62.6664L56.5359 85.7716C58.6752 87.8767 59.8958 90.7335 59.9084 93.7281C59.9336 96.7228 58.7507 99.5922 56.6365 101.722L56.2464 102.123C54.0316 104.354 51.1121 105.481 48.1926 105.481V105.469Z" fill="white"/>
<path d="M48.1925 94.1912L48.5826 93.7902L18.8589 64.608C19.5384 62.8287 20.3816 61.1121 21.3631 59.4958C22.3447 57.8919 23.4773 56.3507 24.7357 54.9474L24.9119 54.7469L17.4117 47.7427L17.0342 48.1436L24.1317 54.7845C22.9236 56.1628 21.8288 57.6539 20.8724 59.2076C19.9034 60.7863 19.0854 62.4654 18.4059 64.182L11.7614 57.6539L11.3713 58.0548L48.1799 94.1912H48.1925Z" fill="white"/>
<path d="M79.162 77.1635C76.0789 77.1635 73.021 75.9105 70.8062 73.5047L63.5955 65.661C61.3303 63.1926 60.2732 59.8471 60.7263 56.5267C61.1793 53.2062 63.0921 50.2617 65.9361 48.4824C66.8799 47.8935 67.7734 47.2169 68.5913 46.4776C69.3464 45.7885 70.0511 45.0367 70.6803 44.2348C72.7315 41.6286 75.8398 40.0623 79.162 39.937C79.3004 39.937 79.4515 39.937 79.5899 39.937C82.7611 39.937 85.7939 41.2652 87.9457 43.5958L94.9929 51.2641C98.7555 55.3488 98.9695 61.5512 95.5088 65.8865C94.1371 67.6031 92.627 69.2445 91.0414 70.7481C89.3678 72.3269 87.5556 73.8054 85.6554 75.1211C83.6923 76.4869 81.4272 77.1509 79.1746 77.1509L79.162 77.1635Z" fill="white"/>
<path d="M79.1494 65.8864C80.4078 65.0093 81.8047 63.9192 83.2393 62.566C84.5984 61.2879 85.7183 60.0224 86.6244 58.8822C84.2712 56.3261 81.9179 53.77 79.5773 51.2139C78.709 52.3165 77.589 53.5695 76.2047 54.8225C74.6946 56.2008 73.2097 57.2533 71.9387 58.0427C74.3423 60.6614 76.7459 63.2677 79.1494 65.8864Z" fill="white"/>
<path d="M60.6509 87.8761C57.5678 87.8761 54.5224 86.6356 52.295 84.2174L45.7513 77.1004C41.5482 72.5269 41.8376 65.4224 46.4057 61.2124C46.972 60.6861 47.576 60.1599 48.2052 59.6461C51.3009 57.1026 54.7993 54.9975 58.5745 53.4062C59.9965 52.8048 61.5066 52.5166 62.9916 52.5166C65.9488 52.5166 68.8432 53.6694 71.0202 55.837L78.1806 62.9916C80.8107 65.6229 81.981 69.3819 81.2889 73.0407C80.5968 76.6994 78.1429 79.7692 74.72 81.2728C73.3357 81.8743 71.9892 82.5885 70.7056 83.3653C69.6486 84.0169 68.6041 84.7311 67.6225 85.5079C65.5587 87.1243 63.0922 87.9137 60.6383 87.9137L60.6509 87.8761Z" fill="white"/>
<path d="M60.6384 76.5992C61.8338 75.6595 63.2181 74.6947 64.7785 73.7299C66.6913 72.5646 68.516 71.6374 70.152 70.9232C67.761 68.5425 65.3826 66.1492 62.9916 63.7686C60.6006 64.771 57.9705 66.2244 55.4034 68.3295C54.9503 68.7054 54.5099 69.0813 54.0946 69.4697C56.2842 71.8378 58.4613 74.2185 60.6509 76.5867L60.6384 76.5992Z" fill="white"/>
<path d="M48.3814 105.268C45.4367 105.268 42.5675 104.127 40.4282 102.022L32.689 94.4293C29.6814 91.4722 28.574 87.0993 29.8198 83.0771C30.751 80.07 32.0724 77.1881 33.7335 74.5192C35.0422 72.4142 36.5901 70.4219 38.3015 68.6176C40.3905 66.4249 43.2723 65.1593 46.305 65.0967C46.3805 65.0967 46.456 65.0967 46.519 65.0967C49.4762 65.0967 52.3202 66.2494 54.4344 68.3169L61.7709 75.4464C65.7853 79.3558 66.3264 85.5957 63.0293 90.119C62.2743 91.159 61.5822 92.2616 60.9655 93.3893C60.2231 94.7676 59.5813 96.2085 59.0653 97.6871C57.7943 101.346 54.7238 104.102 50.936 104.979C50.0803 105.18 49.212 105.28 48.3562 105.28L48.3814 105.268Z" fill="white"/>
<path d="M48.3815 93.991C48.9981 92.2117 49.8412 90.1819 51.0115 88.0267C51.9554 86.2976 52.9369 84.7815 53.8681 83.5034C51.4268 81.1227 48.9729 78.742 46.5316 76.3613C45.5374 77.4013 44.4175 78.7545 43.3604 80.4586C41.9761 82.6764 41.1456 84.7564 40.6422 86.3978C43.222 88.9289 45.8017 91.4599 48.3815 93.991Z" fill="white"/>
<path d="M64.7155 48.1439C61.6953 48.1439 58.8009 46.941 56.6742 44.8109L49.6019 37.7064C45.6631 33.7595 45.2101 27.5446 48.5323 23.0714C49.2244 22.1442 49.8662 21.1669 50.4577 20.177C51.263 18.8238 51.9678 17.4079 52.5592 15.9544C53.9812 12.4711 57.0643 9.92753 60.7641 9.17573C61.5191 9.02537 62.2867 8.9502 63.0418 8.9502C65.9865 8.9502 68.8431 10.0904 70.9824 12.1829L78.407 19.4628C81.616 22.6204 82.6479 27.3692 81.0245 31.5667C80.043 34.0978 78.8097 36.5411 77.3625 38.8341C76.1419 40.7637 74.745 42.6182 73.2224 44.3348C71.146 46.6779 68.1887 48.0562 65.0553 48.1439C64.942 48.1439 64.8413 48.1439 64.7281 48.1439H64.7155Z" fill="white"/>
<path d="M64.7156 36.8673C65.6846 35.7772 66.7416 34.4365 67.761 32.8201C68.9942 30.8655 69.8499 29.0361 70.4414 27.4949C67.9749 25.0766 65.4958 22.6458 63.0293 20.2275C62.3246 21.9441 61.406 23.8738 60.1979 25.9036C59.3422 27.3445 58.4739 28.6351 57.6307 29.7754C59.984 32.1435 62.3498 34.5117 64.703 36.8798L64.7156 36.8673Z" fill="white"/>
<path d="M48.2932 60.6489C45.3485 60.6489 42.4542 59.5087 40.2646 57.3285L33.0161 50.0862C30.4363 47.505 29.266 43.8588 29.8701 40.2627C30.4741 36.6792 32.777 33.5968 36.0489 31.993C37.3954 31.3289 38.7419 30.6147 40.038 29.8378C41.2461 29.1236 42.4542 28.3593 43.5994 27.5574C45.5499 26.2041 47.815 25.54 50.055 25.54C52.9116 25.54 55.7556 26.6176 57.9327 28.7101L65.0805 35.5765C67.4715 37.8695 68.7173 41.1022 68.5159 44.3976C68.3146 47.693 66.6535 50.7378 63.9982 52.7175C62.4 53.9078 60.7389 55.0481 59.0652 56.1256C57.3161 57.2408 55.4914 58.3058 53.6415 59.2957C51.9552 60.1979 50.1179 60.6364 48.2932 60.6364V60.6489Z" fill="white"/>
<path d="M48.2932 49.3716C49.7781 48.5822 51.3385 47.6675 52.9619 46.64C54.5097 45.6502 55.9317 44.6603 57.2153 43.6955C54.8369 41.4025 52.4585 39.1096 50.0675 36.8291C48.7714 37.7313 47.3494 38.6459 45.8015 39.5606C44.1404 40.538 42.5422 41.39 41.0195 42.1293C43.4357 44.5475 45.8518 46.9533 48.268 49.3716H48.2932Z" fill="white"/>
<path d="M31.8836 73.1162C28.8634 73.1162 25.9565 71.9133 23.8172 69.7581L16.7952 62.6662C12.7305 58.5564 12.4285 52.0659 16.0905 47.6052C17.5251 45.8635 19.0981 44.197 20.7466 42.6809C22.1435 41.3903 23.6536 40.1624 25.2014 39.0472C27.1897 37.6063 29.5304 36.8921 31.8458 36.8921C34.6269 36.8921 37.408 37.907 39.5725 39.9243L47.0097 46.8283C49.5895 49.2341 50.936 52.7299 50.5962 56.2258C50.2439 59.7217 48.3059 62.9043 45.2983 64.7462C44.43 65.2849 43.5994 65.8989 42.8444 66.5755C42.1145 67.2396 41.435 67.9664 40.8435 68.7307C38.8426 71.2993 35.8224 72.8906 32.5631 73.0911C32.3366 73.1036 32.1101 73.1162 31.8836 73.1162Z" fill="white"/>
<path d="M31.8836 61.8391C32.7394 60.7365 33.8468 59.4835 35.2436 58.218C36.7159 56.8898 38.1379 55.8874 39.3712 55.1356C36.8669 52.8176 34.3753 50.4995 31.871 48.1689C30.8014 48.9458 29.6437 49.873 28.4482 50.9631C27.0262 52.2788 25.8432 53.5694 24.8743 54.7472C27.2149 57.1028 29.5556 59.471 31.8962 61.8266L31.8836 61.8391Z" fill="white"/>
<path d="M31.8961 73.3168C28.8759 73.3168 25.969 72.1139 23.8297 69.9587L16.619 62.6788C12.5795 58.5941 12.2523 52.1412 15.8765 47.6805C15.8891 47.668 15.9772 47.5552 16.0024 47.5301C17.4495 45.776 19.0226 44.1095 20.6837 42.5808C22.0931 41.2777 23.6032 40.0623 25.151 38.9346C27.1645 37.4811 29.5429 36.7544 31.9087 36.7544C34.6898 36.7544 37.4709 37.7568 39.6102 39.7491L47.3243 46.9162C49.904 49.3094 51.2254 52.7802 50.873 56.276C50.5206 59.7719 48.5575 62.9169 45.5373 64.7588L45.3863 64.8591C44.518 65.3853 43.7 65.9993 42.945 66.6884C42.2277 67.34 41.5607 68.0542 40.9567 68.8311L40.8183 69.0065C38.8174 71.5626 35.7972 73.1288 32.5505 73.3168C32.3366 73.3168 32.1226 73.3293 31.8961 73.3293V73.3168Z" fill="white"/>
<path d="M39.4467 55.2482C37.987 56.1378 36.6153 57.1778 35.3443 58.318C34.1236 59.4081 33.0037 60.6235 31.9969 61.9266L31.8963 62.0519L24.6855 54.772L24.7611 54.6718C25.8685 53.3311 27.0765 52.053 28.3475 50.8752C29.4298 49.8728 30.5875 48.9331 31.783 48.0685L31.8711 48.0059L39.5852 55.173L39.4341 55.2732L39.4467 55.2482ZM28.5489 51.0632C27.303 52.2034 26.1327 53.4439 25.0631 54.747L31.8837 61.6384C32.8778 60.3729 33.9726 59.1951 35.1681 58.1301C36.4014 57.0149 37.7479 56.0125 39.1573 55.1229L31.8711 48.3567C30.7133 49.1962 29.6059 50.1109 28.5615 51.0757L28.5489 51.0632Z" fill="white"/>
<path d="M64.6275 62.2904C61.7206 62.2904 58.8388 61.1752 56.6492 59.0201L49.2497 51.7151C46.8965 49.3845 45.6758 46.1518 45.9275 42.8564C46.1792 39.5611 47.8655 36.5413 50.5585 34.5992C51.6029 33.8474 52.5971 33.033 53.5535 32.1559C54.4847 31.3038 55.3656 30.4017 56.1836 29.4745C58.2348 27.1314 61.1669 25.7405 64.2752 25.6152C64.4262 25.6152 64.5772 25.6152 64.7156 25.6152C67.6729 25.6152 70.5295 26.768 72.6436 28.848L79.9676 36.0026C84.0952 40.0247 84.5105 46.5026 80.9492 51.026C79.5271 52.8177 77.9541 54.5343 76.2804 56.1006C74.6571 57.6167 72.9205 59.0201 71.1209 60.2731C69.1578 61.6388 66.8927 62.3029 64.6401 62.3029L64.6275 62.2904Z" fill="white"/>
<path d="M64.6275 51.0132C65.823 50.1862 67.1569 49.1462 68.516 47.8682C69.938 46.5275 71.1083 45.2243 72.0396 44.034C69.5982 41.6533 67.1569 39.2601 64.703 36.8794C63.7089 38.0071 62.5511 39.2225 61.2046 40.463C59.8204 41.7285 58.4739 42.8061 57.2155 43.7082C59.6819 46.139 62.1484 48.5824 64.6275 51.0132Z" fill="white"/>
<path d="M64.6149 62.4654C61.7079 62.4654 58.8262 61.3503 56.6365 59.1951L49.0357 51.6897C46.6825 49.3591 45.4618 46.1264 45.7135 42.831C45.9652 39.5356 47.6515 36.5159 50.3319 34.5738L50.4577 34.4735C51.5022 33.7217 52.4964 32.9073 53.4402 32.0427C54.3588 31.2032 55.2397 30.3011 56.0577 29.3738L56.1332 29.2861C58.1844 26.9305 61.1165 25.5272 64.2374 25.4019C64.3884 25.4019 64.5394 25.4019 64.6904 25.4019C67.6477 25.4019 70.5043 26.5546 72.6184 28.6346L80.1437 35.9897C84.2587 40.0118 84.6866 46.4772 81.1253 51.0005C81.1253 51.0005 81.0498 51.1008 81.0372 51.1008C79.9046 52.5292 78.6714 53.9075 77.3752 55.1981C77.0354 55.5364 76.6956 55.8622 76.3433 56.1879C74.7451 57.6915 72.9959 59.0949 71.1838 60.3604C71.1586 60.3729 71.0454 60.4606 71.0202 60.4732C69.0697 61.8013 66.8297 62.4654 64.6023 62.4654H64.6149Z" fill="white"/>
<path d="M68.6166 47.9683C67.3959 49.1086 66.0872 50.1736 64.7155 51.1259L64.6274 51.1885L57.0266 43.6831L57.1525 43.5829C58.5367 42.5805 59.8706 41.4904 61.129 40.3376C62.3497 39.2224 63.5326 38.0196 64.6148 36.7666L64.7155 36.6538L72.2408 43.9964L72.1653 44.0966C71.3096 45.1742 70.3784 46.2142 69.3968 47.1915C69.1451 47.4421 68.8809 47.6927 68.6292 47.9433L68.6166 47.9683ZM64.7155 37.0798C63.6459 38.2952 62.5007 39.4605 61.2926 40.5631C60.072 41.6783 58.7632 42.7434 57.4293 43.7332L64.64 50.8502C65.9739 49.923 67.2449 48.883 68.4278 47.7804C69.6611 46.6276 70.8062 45.3746 71.8633 44.059L64.7281 37.0924L64.7155 37.0798Z" fill="white"/>
<path d="M46.6071 73.6424C43.5995 73.6424 40.6044 72.452 38.3896 70.1215L31.4935 62.8792C29.1529 60.4233 28.0455 57.0653 28.4733 53.7072C28.9012 50.3617 30.814 47.3671 33.6832 45.5753C35.0422 44.7233 36.4139 43.8462 37.7982 42.944C39.195 42.0293 40.5541 41.1272 41.8754 40.225C43.8134 38.9094 46.0408 38.2578 48.2682 38.2578C51.1499 38.2578 54.0065 39.3479 56.1836 41.4655L63.4069 48.4948C66.0118 51.0384 67.2325 54.672 66.6913 58.2556C66.1376 61.8517 63.8851 64.9591 60.6384 66.6005C59.3799 67.2396 58.1467 67.9538 56.9764 68.7306C55.8816 69.4448 54.8245 70.2217 53.8303 71.0487C51.7288 72.7778 49.1742 73.6298 46.6196 73.6298L46.6071 73.6424Z" fill="white"/>
<path d="M46.5943 62.3653C47.7898 61.388 49.1615 60.348 50.7094 59.3331C52.3956 58.2304 53.9938 57.3158 55.4787 56.564C53.0752 54.2209 50.659 51.8778 48.2555 49.5347C46.8712 50.4744 45.4492 51.4267 44.002 52.379C42.5548 53.3187 41.1202 54.2459 39.6982 55.123C42.0011 57.5288 44.2914 59.9471 46.5943 62.3528V62.3653Z" fill="white"/>
<path d="M46.5944 73.83C43.5868 73.83 40.5918 72.6396 38.377 70.3091L31.2795 62.8663C28.9389 60.4104 27.8315 57.0524 28.2593 53.6943C28.6872 50.3363 30.5874 47.3542 33.4692 45.5499L33.6076 45.4622C34.9793 44.5976 36.3635 43.7205 37.7226 42.8309C39.0817 41.9413 40.4534 41.0266 41.7999 40.1119C43.763 38.7712 46.0407 38.1196 48.3059 38.1196C51.1876 38.1196 54.0442 39.1847 56.2087 41.2897L63.6459 48.532C66.2508 51.0756 67.4715 54.6967 66.9304 58.2928C66.3893 61.8889 64.1367 64.9838 60.89 66.6378L60.7138 66.7255C59.4428 67.3645 58.2222 68.0787 57.0518 68.8431C55.9696 69.5573 54.8999 70.3341 53.9058 71.1611L53.8177 71.2363C51.7162 72.9654 49.149 73.83 46.607 73.83H46.5944Z" fill="white"/>
<path d="M55.5542 56.6891C53.9182 57.516 52.3201 58.4433 50.7974 59.4457C49.3754 60.3729 48.0037 61.4003 46.695 62.4654L46.5943 62.5531L39.4968 55.1103L39.6353 55.0226C41.0698 54.1204 42.517 53.1932 43.9264 52.2785C45.3484 51.3513 46.783 50.399 48.1799 49.4342L48.268 49.3716L55.7052 56.6139L55.529 56.7016L55.5542 56.6891ZM44.09 52.4915C42.7184 53.3812 41.3215 54.2833 39.9373 55.1479L46.6194 62.1647C47.903 61.1121 49.2621 60.1223 50.6464 59.2076C52.1313 58.2303 53.6791 57.3281 55.2647 56.5262L48.2554 49.7099C46.8837 50.6496 45.4743 51.5768 44.09 52.4915Z" fill="white"/>
<path d="M33.23 90.3951C30.2853 90.3951 27.4162 89.2549 25.2768 87.1498L18.1291 80.1331C15.1215 77.176 14.014 72.8031 15.2599 68.7809C16.0904 66.087 17.2482 63.4933 18.6702 61.05C20.0544 58.6943 21.7155 56.4891 23.5906 54.4968C25.667 52.2915 28.5361 51.001 31.5689 50.9258C31.6696 50.9258 31.7577 50.9258 31.8584 50.9258C34.7905 50.9258 37.6093 52.0535 39.7234 54.0833L46.9719 61.0374C51.4267 65.3102 51.6029 72.3645 47.3746 76.8628C46.6195 77.6647 45.9652 78.5418 45.3989 79.4815C44.82 80.4463 44.3544 81.4863 44.0146 82.5514C42.8191 86.2853 39.7612 89.1296 35.9356 90.0693C35.0421 90.2949 34.1235 90.3951 33.2174 90.3951H33.23Z" fill="white"/>
<path d="M33.2301 79.1179C33.7083 77.6143 34.4633 75.7473 35.6462 73.73C36.804 71.7879 38.0372 70.2718 39.0943 69.1441C36.6781 66.826 34.262 64.508 31.8458 62.1899C30.8013 63.3051 29.5681 64.8087 28.4355 66.7383C27.2526 68.7431 26.5227 70.6101 26.0697 72.1011C28.4481 74.4442 30.8391 76.7873 33.2175 79.1179H33.2301Z" fill="white"/>
<path d="M33.293 90.6455C30.3483 90.6455 27.4917 89.5053 25.3398 87.4002L17.9655 80.1579C14.9201 77.1633 13.8253 72.7151 15.1341 68.668C15.952 66.0242 17.1098 63.4179 18.5444 60.9621C19.9286 58.6064 21.5897 56.3886 23.4773 54.3838L23.5906 54.2711C25.667 52.0783 28.5362 50.7877 31.5689 50.7251C31.657 50.7251 31.7577 50.7251 31.8458 50.7251C34.7779 50.7251 37.5967 51.8528 39.7109 53.8826L47.1481 61.0247C51.6029 65.31 51.7791 72.3518 47.5508 76.85L47.4627 76.9503C46.7202 77.7271 46.0659 78.6042 45.5122 79.5314C44.9459 80.4962 44.4803 81.5237 44.1405 82.5762L44.065 82.8268C42.8569 86.5482 39.799 89.3925 35.986 90.3197C35.0925 90.5327 34.1864 90.6455 33.293 90.6455Z" fill="white"/>
<path d="M25.9187 72.1387L25.9439 72.0635C26.5227 70.184 27.3281 68.3672 28.3223 66.6756C29.2912 65.0342 30.449 63.493 31.7577 62.1022L31.8584 62.002L39.2956 69.144L39.2075 69.2443C37.8988 70.6351 36.7411 72.1763 35.7721 73.8052C34.7779 75.4967 33.96 77.2885 33.3685 79.1554L33.3056 79.3685L25.9313 72.1262L25.9187 72.1387ZM31.8584 62.3904C30.6 63.7436 29.4926 65.2221 28.5614 66.8135C27.5924 68.4674 26.7996 70.2341 26.2333 72.0635L33.1672 78.8673C33.7586 77.0629 34.564 75.3088 35.533 73.6673C36.4894 72.051 37.6345 70.5348 38.9055 69.1566L31.8584 62.3904Z" fill="white"/>
<path d="M79.5774 62.478C76.5698 62.478 73.6755 61.2877 71.5488 59.1451L64.3506 51.9278C60.4496 48.0185 59.9588 41.8663 63.1929 37.3806C63.9228 36.3656 64.6023 35.3006 65.2064 34.198C65.8356 33.0577 66.3893 31.8674 66.8549 30.652C68.2266 27.106 71.3097 24.4873 75.0472 23.6979C75.84 23.535 76.6328 23.4473 77.4256 23.4473C80.3702 23.4473 83.2394 24.6 85.3787 26.7051L92.6524 33.8596C95.8487 37.0047 96.8806 41.741 95.2699 45.926C94.5274 47.8431 93.6717 49.7351 92.7027 51.5394C91.5324 53.7321 90.1859 55.8748 88.7009 57.8796C86.7378 60.5359 83.7176 62.1898 80.4206 62.4404C80.1437 62.4655 79.8669 62.4655 79.59 62.4655L79.5774 62.478Z" fill="white"/>
<path d="M79.59 51.2012C80.6093 49.8229 81.6915 48.1814 82.7108 46.2644C83.5414 44.7107 84.1958 43.2321 84.7117 41.8914C82.283 39.5107 79.8542 37.1175 77.4381 34.7368C76.8592 36.2153 76.1293 37.8568 75.1729 39.611C74.2543 41.29 73.3105 42.7435 72.4044 43.9839C74.808 46.3897 77.199 48.7954 79.6025 51.2012H79.59Z" fill="white"/>
<path d="M79.6026 62.6912C76.595 62.6912 73.7007 61.5008 71.574 59.3582L64.1745 51.953C60.2734 48.0437 59.7826 41.904 63.0042 37.4308C63.0042 37.4308 63.0797 37.318 63.0922 37.318C63.8221 36.3156 64.4891 35.2506 65.0931 34.1605C65.7223 33.0203 66.2634 31.8424 66.7291 30.6396L66.8046 30.4516C68.1762 26.9056 71.2594 24.2869 74.9843 23.485C75.7771 23.3221 76.5699 23.2344 77.3627 23.2344C80.3073 23.2344 83.1765 24.3871 85.3158 26.4922L92.8034 33.8598C96.0249 37.0298 97.0442 41.7912 95.3957 45.9888C94.6533 47.9184 93.785 49.8104 92.816 51.6272C91.6331 53.8325 90.2866 55.9751 88.8016 57.9924L88.7135 58.1177C86.7504 60.7741 83.7302 62.4406 80.4332 62.6786C80.1563 62.7037 79.8795 62.7037 79.59 62.7037L79.6026 62.6912Z" fill="white"/>
<path d="M72.2031 44.0091L72.2661 43.9088C73.2728 42.518 74.204 41.052 75.022 39.5484C75.8777 37.9822 76.6328 36.3533 77.2871 34.6868L77.3626 34.4863L84.8502 41.8539L84.8124 41.9416C84.2336 43.4327 83.5666 44.9112 82.8116 46.3271C81.8929 48.0437 80.8359 49.7102 79.6781 51.2765L79.5775 51.4018L72.178 43.9966L72.2031 44.0091ZM77.4759 34.9875C76.8467 36.5914 76.1042 38.1701 75.2737 39.6737C74.4683 41.1523 73.5496 42.5932 72.5681 43.9715L79.5649 50.9883C80.6849 49.4721 81.6916 47.8558 82.5725 46.2018C83.3024 44.8235 83.9693 43.3826 84.5356 41.9291L77.4759 34.9875Z" fill="white"/>
<path d="M63.004 75.0582C60.0593 75.0582 57.1398 73.9179 54.9501 71.7127L47.8527 64.5706C45.4365 62.1398 44.2536 58.7442 44.6563 55.3485C45.0464 51.9529 46.9718 48.9082 49.8913 47.0913C51.5272 46.0764 53.1883 45.0489 54.8746 44.034C56.2085 43.2321 57.5299 42.4427 58.8386 41.6658C60.6256 40.6133 62.6139 40.0996 64.6021 40.0996C67.4084 40.0996 70.1895 41.1396 72.3414 43.1444L79.4892 49.8103C81.9431 52.1033 83.2518 55.3611 83.0505 58.7066C82.8491 62.0521 81.1755 65.1344 78.4699 67.1267C76.7836 68.3672 75.0344 69.57 73.2852 70.7103C71.8254 71.6625 70.3028 72.6023 68.7675 73.5044C66.9806 74.5569 64.9797 75.0707 63.004 75.0707V75.0582Z" fill="white"/>
<path d="M62.9915 63.7814C64.3128 63.0046 65.6719 62.1651 67.0688 61.2629C68.7299 60.1853 70.2777 59.0952 71.7375 58.0302C69.3591 55.8124 66.9681 53.5946 64.5897 51.3643C63.3187 52.1161 62.0351 52.8804 60.7389 53.6572C59.103 54.6471 57.4796 55.637 55.894 56.6268C58.2599 59.0075 60.6257 61.3882 62.9915 63.7689V63.7814Z" fill="white"/>
<path d="M62.9789 75.1836C60.0216 75.1836 57.1021 74.0559 54.925 71.8757L47.6262 64.5331C45.2101 62.1023 44.0397 58.7192 44.4299 55.3111C44.82 51.9155 46.7327 48.8832 49.6397 47.0539L49.7907 46.9661C51.4518 45.9262 53.1381 44.8987 54.7866 43.8838C56.0953 43.0944 57.4293 42.2925 58.7506 41.5156C60.5627 40.4506 62.5888 39.9243 64.6022 39.9243C67.4085 39.9243 70.2022 40.9392 72.3415 42.9315L79.6906 49.7729C82.1445 52.0658 83.4533 55.3236 83.2519 58.6816C83.0506 62.0271 81.3643 65.1095 78.6461 67.1018L78.5077 67.202C76.8592 68.4174 75.11 69.6203 73.3356 70.7856C71.8507 71.7504 70.328 72.7026 68.8053 73.5923C66.9932 74.6573 64.9672 75.1711 62.9663 75.1711L62.9789 75.1836Z" fill="white"/>
<path d="M71.8129 58.1301C70.2902 59.2452 68.7172 60.3353 67.1442 61.3628C65.8103 62.2274 64.4386 63.0794 63.0669 63.8938L62.9789 63.944L55.6801 56.6014L55.8311 56.5137C57.4292 55.5113 59.0652 54.5089 60.676 53.5316C61.947 52.7672 63.2431 51.9904 64.5267 51.2386L64.6148 51.1885L71.9639 58.0298L71.8255 58.1301H71.8129ZM60.8018 53.7696C59.2414 54.7094 57.6558 55.6867 56.1079 56.6515L63.0166 63.6057C64.3505 62.8163 65.697 61.9893 66.9932 61.1373C68.5285 60.1349 70.0386 59.0823 71.5235 58.0048L64.577 51.5268C63.3186 52.2661 62.0602 53.0178 60.8144 53.7696H60.8018Z" fill="white"/>
<path d="M46.544 87.4629C43.5363 87.4629 40.642 86.2725 38.5153 84.1424L31.4556 77.0881C27.4538 73.091 27.0385 66.7509 30.4866 62.2652C31.9212 60.3982 33.5445 58.6565 35.3063 57.0778C36.9423 55.6118 38.7166 54.2836 40.5791 53.1308C42.4289 51.9906 44.5053 51.4268 46.5691 51.4268C49.3628 51.4268 52.1313 52.4542 54.2832 54.4465L61.582 61.2126C64.0359 63.4806 65.3446 66.7133 65.181 70.0463C65.0049 73.3792 63.3689 76.4616 60.7011 78.4664C59.6314 79.2683 58.587 80.1329 57.5928 81.0601C56.6742 81.8996 55.7807 82.8017 54.9376 83.729C52.8612 86.0219 49.9165 87.3752 46.8082 87.4504C46.7201 87.4504 46.6195 87.4504 46.5314 87.4504L46.544 87.4629Z" fill="white"/>
<path d="M46.5441 76.1855C47.5382 75.0954 48.6582 73.9552 49.9166 72.7899C51.2883 71.5244 52.6222 70.4343 53.8806 69.482C51.4519 67.2266 49.0106 64.9712 46.5818 62.7158C45.4618 63.405 44.1908 64.3197 42.8695 65.4849C41.4475 66.763 40.3275 68.0285 39.4844 69.1312C41.8376 71.4868 44.1908 73.8299 46.5441 76.1855Z" fill="white"/>
<path d="M46.544 87.676C43.5364 87.676 40.6421 86.4857 38.5154 84.3556L31.355 77.1884C27.3532 73.1914 26.8499 66.7761 30.2979 62.2903L30.3734 62.1901C31.8206 60.3106 33.444 58.5564 35.2057 56.9902C36.8417 55.5242 38.6286 54.196 40.5037 53.0307C40.5037 53.0307 40.6169 52.9555 40.6421 52.943C42.4794 51.8153 44.5432 51.2515 46.5944 51.2515C49.3881 51.2515 52.1566 52.2789 54.3085 54.2712L61.8086 61.2253C64.2625 63.4932 65.5713 66.7259 65.4077 70.0589C65.2315 73.3919 63.5955 76.4742 60.9151 78.479L60.7767 78.5793C59.7196 79.3812 58.6751 80.2458 57.681 81.1604C56.7624 81.9999 55.8689 82.9021 55.0383 83.8168L54.9377 83.917C52.8613 86.2225 49.9166 87.5632 46.8083 87.6384C46.7076 87.6384 46.6195 87.6384 46.5315 87.6384L46.544 87.676Z" fill="white"/>
<path d="M53.9686 69.5949C52.5969 70.6223 51.2756 71.7375 50.0172 72.8903C48.8469 73.9678 47.7143 75.1081 46.6572 76.2859L46.5566 76.3986L39.3962 69.2315L39.3081 69.1438L39.3836 69.0436C40.4029 67.7279 41.5481 66.4875 42.7939 65.3848C43.9516 64.3574 45.2101 63.4176 46.5188 62.6032L46.6069 62.5405L54.1196 69.4947L53.9812 69.5949H53.9686ZM42.9701 65.5978C41.7746 66.6629 40.6672 67.8532 39.673 69.1187L46.5314 75.9726C47.5759 74.8324 48.6707 73.7172 49.8159 72.6773C51.0365 71.5496 52.3327 70.472 53.654 69.4696L46.5566 62.8914C45.2856 63.6808 44.0775 64.5954 42.9575 65.5978H42.9701Z" fill="white"/>
<path d="M164.08 12.271C164.369 12.8098 164.822 13.6117 165.426 14.564C166.773 16.7066 171.026 23.0593 182.314 30.6274C188.606 34.85 190.733 35.1883 196.56 39.8995C199.605 42.3679 201.165 44.0093 202.097 45.0493C205.859 49.297 207.961 53.5572 209.144 56.5017C196.874 68.543 184.605 80.5968 172.335 92.6381C171.278 89.4805 169.969 86.962 168.862 85.1326C166.282 80.8724 163.438 78.0908 162.016 76.8002C160.871 75.7602 159.613 74.7578 157.675 73.4422C150.539 68.568 148.476 69.1068 143.14 65.5608C141.001 64.1324 136.131 60.599 132.116 54.522C130.392 51.9032 129.285 49.535 128.605 47.8435C140.434 35.9902 152.251 24.1369 164.08 12.271Z" fill="white"/>
<path d="M172.524 92.8259L172.134 92.425L201.857 63.2427C201.178 61.4635 200.335 59.7469 199.353 58.1305C198.372 56.5267 197.239 54.9855 195.981 53.5822L195.804 53.3817L203.305 46.3774L203.682 46.7784L196.585 53.4193C197.793 54.7976 198.888 56.2886 199.844 57.8423C200.813 59.4211 201.631 61.1001 202.31 62.8167L208.955 56.2886L209.345 56.6896L172.536 92.8259H172.524Z" fill="white"/>
<path d="M56.6365 13.624C56.3471 14.1628 55.8941 14.9647 55.29 15.917C53.9435 18.0596 49.6901 24.4123 38.4021 31.9804C32.1101 36.203 29.9833 36.5413 24.1569 41.2526C21.1115 43.721 19.5511 45.3624 18.6199 46.4024C14.8572 50.65 12.7557 54.9102 11.5728 57.8547C23.8423 69.896 36.1118 81.9498 48.3813 93.9911C49.4384 90.8335 50.7472 88.315 51.8546 86.4856C54.4343 82.2255 57.2783 79.4438 58.7003 78.1532C59.8455 77.1133 61.1039 76.1109 63.0419 74.7952C70.1771 69.9211 72.2409 70.4599 77.5765 66.9139C79.7158 65.4855 84.5859 61.952 88.6002 55.875C90.3243 53.2562 91.4317 50.8881 92.1112 49.1965C80.2821 37.3432 68.4656 25.4899 56.6365 13.624Z" fill="white"/>
<path d="M48.1925 94.1912L48.5826 93.7902L18.8589 64.608C19.5384 62.8287 20.3816 61.1121 21.3631 59.4958C22.3447 57.8919 23.4773 56.3507 24.7357 54.9474L24.9119 54.7469L17.4117 47.7427L17.0342 48.1436L24.1317 54.7845C22.9236 56.1628 21.8288 57.6539 20.8724 59.2076C19.9034 60.7863 19.0854 62.4654 18.4059 64.182L11.7614 57.6539L11.3713 58.0548L48.1799 94.1912H48.1925Z" fill="white"/>
<path d="M164.647 11.7335L77.6921 98.3135L78.0837 98.7033L165.038 12.1233L164.647 11.7335Z" fill="black"/>
<path d="M171.064 21.1045L163.425 28.3719C164.294 29.462 165.376 30.6648 166.685 31.8928C168.207 33.3087 169.68 34.4113 170.988 35.2759C173.493 32.8075 175.984 30.3516 178.489 27.8832C177.306 27.0186 176.035 26.0162 174.726 24.8384C173.304 23.5604 172.083 22.2948 171.051 21.1045H171.064Z" fill="black"/>
<path d="M165.804 31.2412C164.923 30.3641 164.092 29.4369 163.312 28.4721L163.237 28.3718L171.064 20.9165L171.165 21.0293C172.31 22.3324 173.543 23.5854 174.827 24.7507C176.022 25.8282 177.28 26.8432 178.577 27.7954L178.715 27.8957L171.014 35.4888L170.913 35.4262C169.378 34.4238 167.93 33.271 166.584 32.0306C166.32 31.78 166.055 31.5294 165.791 31.2662L165.804 31.2412ZM163.614 28.3969C164.583 29.5998 165.653 30.7525 166.785 31.805C168.081 33.0204 169.491 34.1231 170.976 35.1129L178.275 27.9082C177.016 26.981 175.783 25.9911 174.638 24.9511C173.379 23.8109 172.171 22.5955 171.051 21.3175L163.614 28.3969Z" fill="black"/>
<path d="M187.474 33.5718L180.25 40.7264L189.185 46.4526L196.635 39.323L187.474 33.5718Z" fill="black"/>
<path d="M180.036 40.7516L187.461 33.3965L196.861 39.3106L189.198 46.6281L180.024 40.7516H180.036ZM187.499 33.7473L180.464 40.714L189.16 46.2898L196.408 39.3607L187.499 33.7473Z" fill="black"/>
<path d="M202.537 63.2927C201.807 61.7014 200.913 59.9723 199.806 58.1429C198.711 56.3386 197.604 54.7473 196.534 53.369C198.963 51.1011 201.404 48.8207 203.833 46.5527C204.84 47.8809 205.922 49.4472 206.954 51.2765C208.024 53.1435 208.841 54.8977 209.483 56.4764C207.168 58.7444 204.852 61.0248 202.537 63.2927Z" fill="black"/>
<path d="M141.919 64.4953C140.661 63.6182 139.264 62.5281 137.829 61.1749C136.47 59.8968 135.35 58.6313 134.444 57.4911C136.797 54.935 139.151 52.3789 141.491 49.8228C142.36 50.9254 143.48 52.1784 144.864 53.4314C146.374 54.8097 147.859 55.8622 149.13 56.6516C146.726 59.2703 144.323 61.8766 141.919 64.4953Z" fill="black"/>
<path d="M160.43 75.2081C159.235 74.2684 157.851 73.3035 156.29 72.3387C154.377 71.1735 152.553 70.2462 150.917 69.532C153.308 67.1513 155.686 64.7581 158.077 62.3774C160.468 63.3798 163.098 64.8333 165.665 66.9383C166.118 67.3142 166.559 67.6901 166.974 68.0786C164.784 70.4467 162.607 72.8274 160.418 75.1956L160.43 75.2081Z" fill="black"/>
<path d="M172.687 92.5998C172.071 90.8206 171.227 88.7907 170.057 86.6356C169.113 84.9065 168.132 83.3903 167.201 82.1123C169.642 79.7316 172.096 77.3509 174.537 74.9702C175.531 76.0102 176.651 77.3634 177.708 79.0675C179.093 81.2853 179.923 83.3653 180.426 85.0067C177.847 87.5377 175.267 90.0688 172.687 92.5998Z" fill="black"/>
<path d="M156.353 35.4762C155.384 34.3861 154.327 33.0454 153.308 31.429C152.074 29.4743 151.219 27.645 150.627 26.1038C153.094 23.6855 155.573 21.2547 158.039 18.8364C158.744 20.553 159.663 22.4826 160.871 24.5125C161.726 25.9534 162.595 27.244 163.438 28.3842C161.085 30.7524 158.719 33.1206 156.366 35.4887L156.353 35.4762Z" fill="black"/>
<path d="M172.775 47.9932C171.29 47.2038 169.73 46.2891 168.107 45.2616C166.559 44.2718 165.137 43.2819 163.853 42.3171C166.232 40.0241 168.61 37.7311 171.001 35.4507C172.297 36.3528 173.719 37.2675 175.267 38.1822C176.928 39.1595 178.526 40.0116 180.049 40.7508C177.633 43.1691 175.217 45.5749 172.801 47.9932H172.775Z" fill="black"/>
<path d="M189.185 60.448C188.329 59.3454 187.222 58.0924 185.825 56.8268C184.353 55.4987 182.931 54.4963 181.698 53.7445C184.202 51.4264 186.693 49.1084 189.198 46.7778C190.267 47.5547 191.425 48.4819 192.621 49.572C194.043 50.8877 195.225 52.1782 196.194 53.3561C193.854 55.7117 191.513 58.0798 189.172 60.4355L189.185 60.448Z" fill="black"/>
<path d="M181.471 53.7697L189.185 46.6025L189.273 46.6652C190.469 47.5298 191.626 48.4695 192.709 49.4719C193.992 50.6497 195.2 51.9278 196.295 53.2685L196.371 53.3687L189.16 60.6486L189.059 60.5233C188.052 59.2327 186.932 58.0173 185.712 56.9147C184.441 55.7745 183.069 54.7345 181.609 53.8448L181.458 53.7446L181.471 53.7697ZM189.21 46.9659L181.924 53.7321C183.333 54.6092 184.68 55.6241 185.913 56.7393C187.109 57.8168 188.203 58.9947 189.198 60.2476L196.018 53.3562C194.949 52.0531 193.766 50.8251 192.532 49.6724C191.488 48.7076 190.368 47.7929 189.223 46.9534L189.21 46.9659Z" fill="black"/>
<path d="M156.441 49.6225C155.246 48.7956 153.912 47.7556 152.553 46.4775C151.131 45.1368 149.96 43.8337 149.029 42.6434C151.47 40.2627 153.912 37.8695 156.366 35.4888C157.36 36.6165 158.517 37.8319 159.864 39.0723C161.248 40.3379 162.595 41.4154 163.853 42.3176C161.387 44.7484 158.92 47.1917 156.441 49.6225Z" fill="black"/>
<path d="M151.684 45.8385C150.703 44.8611 149.772 43.8211 148.916 42.7436L148.84 42.6433L156.366 35.3008L156.466 35.4135C157.561 36.6665 158.731 37.8569 159.952 38.9846C161.211 40.1373 162.544 41.2274 163.929 42.2298L164.055 42.3301L156.454 49.8355L156.366 49.7729C154.994 48.8206 153.673 47.7555 152.465 46.6153C152.2 46.3647 151.949 46.1267 151.697 45.8635L151.684 45.8385ZM149.218 42.6684C150.262 43.984 151.42 45.237 152.653 46.3898C153.836 47.4924 155.107 48.5324 156.441 49.4596L163.652 42.3426C162.305 41.3653 161.009 40.3002 159.789 39.1725C158.593 38.0824 157.448 36.9046 156.366 35.6892L149.23 42.6559L149.218 42.6684Z" fill="black"/>
<path d="M174.474 60.9869C173.279 60.0096 171.907 58.9696 170.359 57.9547C168.673 56.852 167.075 55.9373 165.59 55.1855C167.993 52.8424 170.41 50.4993 172.813 48.1562C174.197 49.096 175.619 50.0483 177.067 51.0005C178.514 51.9403 179.948 52.8675 181.37 53.7446C179.067 56.1504 176.777 58.5686 174.474 60.9744V60.9869Z" fill="black"/>
<path d="M165.351 55.2233L172.788 47.981L172.876 48.0436C174.285 48.9959 175.72 49.9607 177.129 50.8879C178.539 51.8151 179.986 52.7423 181.421 53.632L181.559 53.7197L174.462 61.1625L174.361 61.0747C173.052 59.9972 171.668 58.9822 170.259 58.055C168.736 57.0526 167.138 56.1254 165.502 55.2984L165.326 55.2107L165.351 55.2233ZM172.826 48.3443L165.816 55.1606C167.402 55.9751 168.95 56.8772 170.435 57.842C171.819 58.7567 173.178 59.7466 174.462 60.7991L181.144 53.7823C179.76 52.9052 178.35 52.0156 176.991 51.126C175.607 50.2238 174.197 49.2841 172.826 48.3443Z" fill="black"/>
<path d="M187.838 77.7268C187.36 76.2232 186.605 74.3562 185.422 72.3389C184.265 70.3968 183.031 68.8806 181.974 67.7529C184.39 65.4349 186.807 63.1169 189.223 60.7988C190.267 61.914 191.5 63.4176 192.633 65.3472C193.816 67.352 194.546 69.219 194.999 70.71C192.62 73.0531 190.229 75.3962 187.851 77.7268H187.838Z" fill="black"/>
<path d="M187.776 77.9778L187.713 77.7648C187.109 75.8979 186.303 74.0935 185.309 72.4145C184.34 70.7731 183.182 69.2445 181.874 67.8536L181.786 67.7534L189.223 60.6113L189.324 60.7116C190.632 62.1024 191.79 63.6436 192.759 65.285C193.753 66.9765 194.559 68.7934 195.137 70.6729L195.163 70.7481L187.788 77.9904L187.776 77.9778ZM182.163 67.7534C183.447 69.1317 184.579 70.6478 185.536 72.2642C186.505 73.9056 187.297 75.6473 187.902 77.4641L194.835 70.6603C194.257 68.831 193.476 67.0642 192.507 65.4103C191.576 63.819 190.469 62.3405 189.21 60.9872L182.163 67.7534Z" fill="black"/>
<path d="M141.491 49.8227C140.472 48.4445 139.39 46.803 138.371 44.8859C137.54 43.3322 136.886 41.8537 136.37 40.513C138.798 38.1323 141.227 35.7391 143.643 33.3584C144.222 34.8369 144.952 36.4784 145.908 38.2325C146.827 39.9116 147.771 41.365 148.677 42.6055C146.273 45.0112 143.882 47.417 141.479 49.8227H141.491Z" fill="black"/>
<path d="M141.466 50.036L141.365 49.9107C140.208 48.3445 139.151 46.678 138.232 44.9614C137.477 43.5455 136.81 42.067 136.231 40.5759L136.193 40.4882L143.681 33.1206L143.756 33.3211C144.398 34.975 145.166 36.6165 146.022 38.1827C146.84 39.6863 147.771 41.1523 148.777 42.5431L148.84 42.6434L141.441 50.0486L141.466 50.036ZM136.533 40.5509C137.099 42.0043 137.754 43.4453 138.496 44.8236C139.377 46.4775 140.396 48.0939 141.504 49.61L148.501 42.5932C147.519 41.2275 146.6 39.774 145.795 38.2955C144.964 36.7794 144.222 35.2006 143.593 33.6093L136.533 40.5509Z" fill="black"/>
<path d="M158.077 62.3903C156.756 61.6135 155.397 60.774 154 59.8718C152.339 58.7942 150.791 57.7041 149.331 56.6391C151.71 54.4213 154.101 52.2035 156.479 49.9731C157.75 50.7249 159.034 51.4893 160.33 52.2661C161.966 53.256 163.589 54.2459 165.175 55.2357C162.809 57.6164 160.443 59.9971 158.077 62.3778V62.3903Z" fill="black"/>
<path d="M149.117 56.6519L156.466 49.8105L156.554 49.8607C157.838 50.6125 159.134 51.3893 160.405 52.1536C162.016 53.131 163.652 54.1334 165.25 55.1358L165.401 55.2235L158.102 62.566L158.014 62.5159C156.642 61.714 155.271 60.862 153.937 59.9849C152.351 58.9574 150.791 57.8673 149.268 56.7521L149.13 56.6519H149.117ZM156.504 50.1489L149.558 56.6268C151.03 57.7044 152.553 58.7569 154.088 59.7593C155.384 60.6114 156.731 61.4383 158.065 62.2277L164.973 55.2736C163.425 54.3088 161.84 53.3315 160.279 52.3917C159.033 51.6399 157.775 50.8881 156.517 50.1489H156.504Z" fill="black"/>
<path d="M174.525 74.8076C173.53 73.7175 172.41 72.5773 171.152 71.412C169.78 70.1464 168.446 69.0563 167.188 68.1041C169.617 65.8487 172.058 63.5933 174.487 61.3379C175.607 62.027 176.878 62.9417 178.199 64.107C179.621 65.3851 180.741 66.6506 181.584 67.7532C179.231 70.1089 176.878 72.452 174.525 74.8076Z" fill="black"/>
<path d="M166.961 68.1167L174.474 61.1626L174.562 61.2252C175.884 62.0397 177.129 62.9794 178.287 64.0069C179.533 65.1221 180.678 66.35 181.697 67.6656L181.773 67.7659L181.685 67.8536L174.525 75.0207L174.424 74.9079C173.354 73.7301 172.222 72.5899 171.064 71.5123C169.805 70.3596 168.472 69.2444 167.112 68.217L166.974 68.1167H166.961ZM174.499 61.5134L167.402 68.0917C168.723 69.0941 170.019 70.1716 171.24 71.2993C172.373 72.3518 173.48 73.4545 174.525 74.5947L181.383 67.7408C180.401 66.4753 179.294 65.2849 178.086 64.2199C176.966 63.2175 175.758 62.3154 174.487 61.5134H174.499Z" fill="black"/>
<path d="M56.7603 13.0945L56.3688 13.4844L143.323 100.064L143.715 99.6745L56.7603 13.0945Z" fill="black"/>
<path d="M50.3569 22.4575L57.9955 29.7249C57.1272 30.815 56.0449 32.0179 54.7362 33.2458C53.2135 34.6617 51.7411 35.7643 50.4324 36.6289C47.9282 34.1605 45.4365 31.7046 42.9323 29.2362C44.1152 28.3717 45.3862 27.3693 46.6949 26.1914C48.1169 24.9134 49.3376 23.6479 50.3695 22.4575H50.3569Z" fill="black"/>
<path d="M54.8242 33.3587C53.4903 34.6117 52.0305 35.7519 50.4953 36.7543L50.3946 36.817L42.6931 29.2238L42.8315 29.1236C44.1277 28.1838 45.3987 27.1564 46.5816 26.0788C47.8652 24.9135 49.0984 23.6605 50.2436 22.3574L50.3443 22.2446L58.1716 29.6999L58.0961 29.8002C57.3285 30.765 56.4853 31.6922 55.6044 32.5693C55.3402 32.8324 55.0759 33.083 54.8116 33.3336L54.8242 33.3587ZM50.3694 22.6706C49.2494 23.9487 48.0414 25.1641 46.783 26.3043C45.6252 27.3443 44.4046 28.3467 43.1461 29.2614L50.4449 36.4661C51.9299 35.4762 53.3393 34.3736 54.6355 33.1582C55.768 32.1057 56.8377 30.9655 57.8067 29.7501L50.3694 22.6706Z" fill="black"/>
<path d="M33.9471 34.9248L41.1704 42.0794L32.2357 47.8056L24.7859 40.6886L33.9471 34.9248Z" fill="black"/>
<path d="M32.2232 47.9806L24.5594 40.6632L33.9598 34.749L41.3844 42.1041L32.2106 47.9806H32.2232ZM25.0125 40.7133L32.2609 47.6423L40.9566 42.0665L33.922 35.0999L25.0125 40.7133Z" fill="black"/>
<path d="M79.5017 65.861C80.7601 64.9839 82.157 63.8938 83.5916 62.5406C84.9507 61.2625 86.0706 59.997 86.9767 58.8568C84.6235 56.3007 82.2702 53.7446 79.9296 51.1885C79.0613 52.2911 77.9413 53.5441 76.557 54.7971C75.0469 56.1754 73.562 57.2279 72.291 58.0173C74.6946 60.636 77.0982 63.2423 79.5017 65.861Z" fill="black"/>
<path d="M60.9905 76.5743C62.186 75.6346 63.5703 74.6698 65.1307 73.705C67.0435 72.5397 68.8682 71.6125 70.5041 70.8982C68.1131 68.5176 65.7347 66.1243 63.3438 63.7437C60.9528 64.746 58.3227 66.1995 55.7555 68.3046C55.3025 68.6804 54.8621 69.0563 54.4468 69.4448C56.6364 71.8129 58.8135 74.1936 61.0031 76.5618L60.9905 76.5743Z" fill="black"/>
<path d="M48.7336 93.9661C49.3502 92.1868 50.1934 90.157 51.3637 88.0018C52.3075 86.2727 53.2891 84.7565 54.2203 83.4785C51.779 81.0978 49.3251 78.7171 46.8838 76.3364C45.8896 77.3764 44.7696 78.7296 43.7126 80.4337C42.3283 82.6515 41.4978 84.7315 40.9944 86.3729C43.5741 88.904 46.1539 91.435 48.7336 93.9661Z" fill="black"/>
<path d="M65.0678 36.8414C66.0368 35.7513 67.0938 34.4106 68.1131 32.7943C69.3464 30.8396 70.2021 29.0102 70.7936 27.469C68.3271 25.0507 65.848 22.6199 63.3815 20.2017C62.6768 21.9183 61.7581 23.8479 60.5501 25.8777C59.6943 27.3187 58.826 28.6093 57.9829 29.7495C60.3361 32.1176 62.702 34.4858 65.0552 36.854L65.0678 36.8414Z" fill="black"/>
<path d="M48.6455 49.3467C50.1304 48.5573 51.6908 47.6426 53.3142 46.6151C54.862 45.6253 56.284 44.6354 57.5676 43.6706C55.1892 41.3776 52.8108 39.0846 50.4198 36.8042C49.1237 37.7064 47.7016 38.621 46.1538 39.5357C44.4927 40.5131 42.8945 41.3651 41.3718 42.1044C43.788 44.5226 46.2041 46.9284 48.6203 49.3467H48.6455Z" fill="black"/>
<path d="M32.2357 61.8142C33.0914 60.7116 34.1988 59.4586 35.5956 58.1931C37.068 56.8649 38.49 55.8625 39.7232 55.1107C37.219 52.7926 34.7273 50.4746 32.2231 48.144C31.1534 48.9209 29.9957 49.8481 28.8002 50.9382C27.3782 52.2539 26.1953 53.5444 25.2263 54.7223C27.567 57.0779 29.9076 59.446 32.2483 61.8017L32.2357 61.8142Z" fill="black"/>
<path d="M39.7988 55.2233C38.339 56.1129 36.9674 57.1529 35.6964 58.2931C34.4757 59.3832 33.3557 60.5986 32.349 61.9017L32.2483 62.027L25.0376 54.7471L25.1131 54.6469C26.2205 53.3062 27.4286 52.0281 28.6996 50.8503C29.7818 49.8479 30.9396 48.9082 32.1351 48.0436L32.2231 47.981L39.9372 55.1481L39.7862 55.2483L39.7988 55.2233ZM28.9009 51.0383C27.6551 52.1785 26.4848 53.419 25.4151 54.7221L32.2357 61.6135C33.2299 60.348 34.3247 59.1702 35.5202 58.1052C36.7534 56.99 38.0999 55.9876 39.5094 55.098L32.2231 48.3318C31.0654 49.1713 29.958 50.086 28.9135 51.0508L28.9009 51.0383Z" fill="black"/>
<path d="M64.9797 50.9878C66.1752 50.1608 67.5091 49.1208 68.8682 47.8428C70.2902 46.5021 71.4605 45.1989 72.3917 44.0086C69.9504 41.6279 67.5091 39.2347 65.0552 36.854C64.061 37.9817 62.9033 39.1971 61.5568 40.4376C60.1725 41.7031 58.826 42.7807 57.5676 43.6828C60.0341 46.1136 62.5006 48.557 64.9797 50.9878Z" fill="black"/>
<path d="M68.9689 47.9434C67.7482 49.0837 66.4395 50.1487 65.0678 51.101L64.9797 51.1636L57.3789 43.6582L57.5048 43.558C58.889 42.5556 60.2229 41.4655 61.4813 40.3127C62.702 39.1975 63.8849 37.9947 64.9671 36.7417L65.0678 36.6289L72.5931 43.9715L72.5176 44.0717C71.6619 45.1493 70.7307 46.1892 69.7491 47.1666C69.4974 47.4172 69.2332 47.6678 68.9815 47.9184L68.9689 47.9434ZM65.0678 37.0549C63.9982 38.2703 62.853 39.4356 61.6449 40.5382C60.4243 41.6534 59.1155 42.7185 57.7816 43.7083L64.9923 50.8253C66.3262 49.8981 67.5972 48.8581 68.7801 47.7555C70.0134 46.6027 71.1585 45.3497 72.2156 44.0341L65.0804 37.0675L65.0678 37.0549Z" fill="black"/>
<path d="M46.9466 62.3404C48.1421 61.3631 49.5138 60.3231 51.0617 59.3082C52.7479 58.2055 54.3461 57.2909 55.831 56.5391C53.4275 54.196 51.0113 51.8529 48.6077 49.5098C47.2235 50.4495 45.8015 51.4018 44.3543 52.3541C42.9071 53.2938 41.4725 54.221 40.0505 55.0981C42.3534 57.5039 44.6437 59.9221 46.9466 62.3279V62.3404Z" fill="black"/>
<path d="M55.9065 56.6642C54.2705 57.4911 52.6724 58.4184 51.1497 59.4208C49.7277 60.348 48.356 61.3754 47.0472 62.4405L46.9466 62.5282L39.8491 55.0854L39.9875 54.9977C41.4221 54.0955 42.8693 53.1683 44.2787 52.2536C45.7007 51.3264 47.1353 50.3741 48.5322 49.4093L48.6203 49.3467L56.0575 56.589L55.8813 56.6767L55.9065 56.6642ZM44.4423 52.4666C43.0707 53.3563 41.6738 54.2584 40.2896 55.123L46.9717 62.1398C48.2553 61.0872 49.6144 60.0974 50.9987 59.1827C52.4836 58.2053 54.0314 57.3032 55.617 56.5013L48.6077 49.685C47.236 50.6247 45.8266 51.552 44.4423 52.4666Z" fill="black"/>
<path d="M33.5822 79.0925C34.0604 77.5889 34.8155 75.7219 35.9984 73.7046C37.1561 71.7625 38.3894 70.2464 39.4465 69.1187C37.0303 66.8006 34.6141 64.4826 32.198 62.1646C31.1535 63.2797 29.9203 64.7833 28.7877 66.7129C27.6048 68.7177 26.8749 70.5847 26.4219 72.0757C28.8003 74.4188 31.1913 76.7619 33.5697 79.0925H33.5822Z" fill="black"/>
<path d="M26.2834 72.1011L26.3086 72.0259C26.8875 70.1464 27.6929 68.3296 28.687 66.638C29.656 64.9966 30.8137 63.4554 32.1225 62.0646L32.2232 61.9644L39.6604 69.1064L39.5723 69.2067C38.2635 70.5975 37.1058 72.1387 36.1368 73.7676C35.1427 75.4591 34.3247 77.2509 33.7333 79.1178L33.6703 79.3309L26.296 72.0886L26.2834 72.1011ZM32.2232 62.3528C30.9647 63.706 29.8573 65.1846 28.9261 66.7759C27.9571 68.4298 27.1643 70.1965 26.5981 72.0259L33.5319 78.8297C34.1234 77.0253 34.9287 75.2712 35.8977 73.6297C36.8541 72.0134 37.9993 70.4972 39.2703 69.119L32.2232 62.3528Z" fill="black"/>
<path d="M79.9423 51.1763C80.9616 49.798 82.0438 48.1565 83.0631 46.2395C83.8937 44.6858 84.548 43.2072 85.064 41.8665C82.6353 39.4858 80.2065 37.0926 77.7904 34.7119C77.2115 36.1904 76.4816 37.8319 75.5252 39.5861C74.6066 41.2651 73.6628 42.7185 72.7567 43.959C75.1603 46.3648 77.5513 48.7705 79.9548 51.1763H79.9423Z" fill="black"/>
<path d="M72.5553 43.9837L72.6182 43.8835C73.625 42.4926 74.5562 41.0266 75.3742 39.523C76.2299 37.9568 76.9849 36.3279 77.6393 34.6614L77.7148 34.4609L85.2024 41.8285L85.1646 41.9163C84.5858 43.4073 83.9188 44.8858 83.1637 46.3017C82.2451 48.0183 81.188 49.6848 80.0303 51.2511L79.9296 51.3764L72.5302 43.9712L72.5553 43.9837ZM77.8281 34.9621C77.1989 36.566 76.4564 38.1447 75.6258 39.6483C74.8205 41.1269 73.9018 42.5678 72.9203 43.9461L79.917 50.9629C81.037 49.4467 82.0438 47.8304 82.9246 46.1764C83.6545 44.7981 84.3215 43.3572 84.8878 41.9037L77.8281 34.9621Z" fill="black"/>
<path d="M63.3438 63.7438C64.6651 62.967 66.0242 62.1275 67.421 61.2253C69.0822 60.1477 70.63 59.0576 72.0898 57.9926C69.7114 55.7748 67.3204 53.557 64.942 51.3267C63.671 52.0785 62.3874 52.8428 61.0912 53.6196C59.4553 54.6095 57.8319 55.5994 56.2463 56.5892C58.6122 58.9699 60.978 61.3506 63.3438 63.7313V63.7438Z" fill="black"/>
<path d="M72.1652 58.1052C70.6425 59.2203 69.0695 60.3104 67.4965 61.3379C66.1626 62.2025 64.7909 63.0545 63.4192 63.8689L63.3312 63.9191L56.0323 56.5765L56.1834 56.4888C57.7815 55.4864 59.4175 54.484 61.0283 53.5067C62.2992 52.7423 63.5954 51.9655 64.879 51.2137L64.9671 51.1636L72.3162 58.0049L72.1778 58.1052H72.1652ZM61.1541 53.7447C59.5937 54.6845 58.0081 55.6618 56.4602 56.6266L63.3689 63.5807C64.7028 62.7914 66.0493 61.9644 67.3455 61.1123C68.8808 60.11 70.3908 59.0574 71.8758 57.9799L64.9293 51.5019C63.6709 52.2411 62.4125 52.9929 61.1667 53.7447H61.1541Z" fill="black"/>
<path d="M46.8964 76.1606C47.8905 75.0705 49.0105 73.9303 50.2689 72.765C51.6406 71.4995 52.9745 70.4094 54.2329 69.4571C51.8042 67.2017 49.3629 64.9463 46.9341 62.6909C45.8141 63.3801 44.5431 64.2947 43.2218 65.46C41.7998 66.7381 40.6798 68.0036 39.8367 69.1062C42.1899 71.4619 44.5431 73.805 46.8964 76.1606Z" fill="black"/>
<path d="M54.3209 69.57C52.9492 70.5974 51.6279 71.7126 50.3695 72.8654C49.1992 73.9429 48.0666 75.0832 47.0095 76.261L46.9089 76.3737L39.7485 69.2066L39.6604 69.1189L39.7359 69.0187C40.7552 67.703 41.9004 66.4626 43.1462 65.3599C44.3039 64.3325 45.5624 63.3927 46.8711 62.5783L46.9592 62.5156L54.4719 69.4697L54.3335 69.57H54.3209ZM43.3224 65.5729C42.1269 66.638 41.0195 67.8283 40.0253 69.0938L46.8837 75.9477C47.9282 74.8075 49.023 73.6923 50.1682 72.6524C51.3888 71.5247 52.685 70.4471 54.0063 69.4447L46.9089 62.8665C45.6379 63.6559 44.4298 64.5705 43.3098 65.5729H43.3224Z" fill="black"/>
<path d="M19.8278 64.9719C20.5577 63.3806 21.4511 61.6515 22.5585 59.8221C23.6534 58.0178 24.7608 56.4265 25.8304 55.0482C23.4017 52.7803 20.9604 50.4999 18.5316 48.2319C17.5249 49.5601 16.4427 51.1264 15.4108 52.9557C14.3411 54.8227 13.5231 56.5769 12.8813 58.1556C15.1968 60.4236 17.5123 62.704 19.8278 64.9719Z" fill="black"/>
</svg>
