<svg width="168" height="114" viewBox="0 0 168 114" fill="none" xmlns="http://www.w3.org/2000/svg">
<path d="M57.7481 74.5568C57.67 74.7316 57.6986 74.9356 57.8217 75.0822C57.9448 75.2288 58.1408 75.2923 58.3265 75.2456L68.8156 72.6096L75.5249 81.1783C75.6445 81.3309 75.8415 81.4007 76.0305 81.3573C76.2195 81.3139 76.3663 81.1652 76.4073 80.9757L82.6889 51.9225C82.7303 51.731 82.656 51.533 82.4989 51.4159L78.8556 48.7007C78.7693 48.6364 78.6645 48.6016 78.5568 48.6016H72.153L70.9209 46.9069C70.8159 46.7625 70.6419 46.6851 70.4644 46.7036C70.2869 46.7222 70.1327 46.834 70.0599 46.997L57.7481 74.5568Z" fill="#CDD1EB" stroke="#CDD1EB" stroke-linejoin="round"/>
<path d="M110.252 74.5568C110.33 74.7316 110.301 74.9356 110.178 75.0822C110.055 75.2288 109.859 75.2923 109.673 75.2456L99.1842 72.6096L92.4748 81.1783C92.3553 81.3309 92.1583 81.4007 91.9693 81.3573C91.7803 81.3139 91.6334 81.1652 91.5925 80.9757L85.3109 51.9225C85.2695 51.731 85.3437 51.533 85.5008 51.4159L89.1441 48.7007C89.2305 48.6364 89.3352 48.6016 89.4429 48.6016H95.8467L97.0789 46.9069C97.1839 46.7625 97.3578 46.6851 97.5353 46.7036C97.7129 46.7222 97.867 46.834 97.9398 46.997L110.252 74.5568Z" fill="#CDD1EB" stroke="#CDD1EB" stroke-linejoin="round"/>
<path d="M57.0049 27.9614L60.9341 21.7454V14.662L66.9006 11.3371L70.2477 5.26567H77.524L83.6361 1.50714L90.4758 5.26567H97.461L100.808 10.9035L107.793 14.662L107.357 21.7454L110.995 27.9614" stroke="#D6D8E9" stroke-width="3" stroke-linejoin="round"/>
<path d="M57.0049 26.759L60.9341 32.975V40.0584L66.9006 43.3832L70.2477 49.4547H77.524L83.6361 53.2133L90.4758 49.4547H97.461L100.808 43.8169L107.793 40.0584L107.357 32.975L110.995 26.759" stroke="#D6D8E9" stroke-width="3" stroke-linejoin="round"/>
<path d="M84.5999 47.796C95.5397 47.796 104.397 38.9094 104.397 27.9614C104.397 17.0135 95.5397 8.12689 84.5999 8.12689C73.66 8.12689 64.803 17.0135 64.803 27.9614C64.803 38.9094 73.66 47.796 84.5999 47.796Z" stroke="#D6D8E9" stroke-width="6"/>
<ellipse cx="84.5998" cy="27.9614" rx="15.5971" ry="15.6321" fill="#D6D8E9"/>
<path d="M66.5727 11.439L68.2812 9.04163L73.0651 13.4938C72.3817 13.608 70.8782 14.1103 70.3315 15.2062C69.648 16.5761 66.9144 20.0008 66.5727 20.6858C66.231 21.3707 65.2058 26.1654 65.2058 26.8503C65.2058 27.5353 67.5978 37.8095 68.2812 38.152C68.9646 38.4945 80.5827 46.3714 81.2661 46.7139C81.8129 46.9878 89.2394 45.9148 92.8842 45.344L96.643 49.4537H94.2511L90.1506 49.7961L88.7837 50.4811L86.0501 51.5085L83.3164 52.8784L80.5827 51.5085C80.036 51.2345 79.4437 50.4811 79.2159 50.1386C78.1908 49.9103 75.8671 49.3852 74.7737 49.1112C73.4068 48.7687 71.3566 49.1112 70.3315 49.1112C69.5114 49.1112 69.0785 47.9696 68.9646 47.3988L67.5978 45.344L66.231 42.9466L63.839 41.5767L60.7636 39.1794L61.447 33.3573L57.6882 27.5353L60.7636 22.7406V20.0008L61.447 14.5212L66.5727 11.439Z" fill="#D6D8E9"/>
<path d="M101.937 42.66L100.293 45.1016L95.3931 40.7775C96.0733 40.6453 97.563 40.1035 98.0807 38.9935C98.7278 37.606 101.37 34.1101 101.694 33.4164C102.018 32.7226 102.916 27.9025 102.898 27.2178C102.88 26.5331 100.218 16.3257 99.5262 16.0014C98.834 15.6771 87.0126 8.11017 86.3204 7.78589C85.7667 7.52646 78.371 8.79556 74.7424 9.46253L70.8767 5.45366L73.2679 5.39041L77.3579 4.93962L78.7063 4.21876L81.4119 3.11941L84.1086 1.6777L86.8774 2.97483C87.4311 3.23426 88.043 3.97178 88.2798 4.30812C89.3106 4.50925 91.6472 4.97275 92.7475 5.21772C94.1229 5.52393 96.1634 5.12736 97.1882 5.10025C98.008 5.07856 98.4707 6.2083 98.5996 6.77588L100.02 8.79387L101.45 11.1542L103.877 12.4604L107.014 14.7756L106.484 20.6137L110.395 26.3343L107.447 31.2086L107.519 33.9475L106.98 39.4432L101.937 42.66Z" fill="#D6D8E9"/>
<rect width="6.84598" height="6.83771" transform="matrix(0.478854 -0.877895 0.87699 0.480508 67.4026 11.0891)" fill="#D6D8E9"/>
<rect width="8.01002" height="4.97769" transform="matrix(0.478854 -0.877895 0.87699 0.480508 93.2261 47.9292)" fill="#D6D8E9"/>
<path d="M84.0877 37.6757C80.3677 37.6757 77.3917 35.8757 77.3917 32.5637C77.3917 30.5237 78.5917 28.9397 80.3917 28.2437V28.1717C78.9277 27.4997 78.0877 26.4917 78.0877 24.9077C78.0877 22.1237 80.5117 20.5397 84.0637 20.5397C87.6157 20.5397 89.9197 22.0997 89.9197 24.8597C89.9197 26.3957 89.0557 27.4757 87.6397 28.1477V28.2197C89.4637 28.8677 90.6157 30.4277 90.6157 32.4197C90.6157 35.8037 87.8077 37.6757 84.0877 37.6757ZM84.0157 35.0357C85.9357 35.0357 87.2557 34.0037 87.2557 32.4437C87.2557 30.7637 86.0797 29.6597 84.0637 29.6597C82.0477 29.6597 80.7757 30.7637 80.7757 32.4437C80.7757 34.0517 82.0237 35.0357 84.0157 35.0357ZM84.0157 27.3797C85.7197 27.3797 86.7277 26.4677 86.7277 25.1717C86.7277 23.8757 85.7197 23.0117 84.0157 23.0117C82.2877 23.0117 81.2797 23.8757 81.2797 25.1717C81.2797 26.4677 82.2877 27.3797 84.0157 27.3797Z" fill="white"/>
<path d="M4.304 110.87V106.022L0.16 99.43H1.76L5.04 104.87H5.072L8.4 99.43H9.936L5.744 106.054V110.87H4.304ZM12.666 111.094C10.202 111.094 8.666 109.142 8.666 106.742C8.666 104.342 10.202 102.39 12.666 102.39C15.146 102.39 16.65 104.342 16.65 106.742C16.65 109.142 15.146 111.094 12.666 111.094ZM12.666 110.006C14.426 110.006 15.322 108.566 15.322 106.742C15.322 104.918 14.426 103.462 12.666 103.462C10.906 103.462 9.994 104.918 9.994 106.742C9.994 108.566 10.906 110.006 12.666 110.006ZM24.5025 110.87H23.2065V109.734H23.1745C22.5825 110.534 21.8785 111.062 20.6785 111.062C18.9825 111.062 17.8945 110.038 17.8945 108.326V102.598H19.1905V108.294C19.1905 109.366 19.8785 109.99 21.0465 109.99C22.3585 109.99 23.2065 108.998 23.2065 107.686V102.598H24.5025V110.87ZM33.1539 111.094C29.9379 111.094 28.4019 109.302 28.2739 106.998H29.6819C29.8739 108.934 31.0579 109.942 33.2179 109.942C34.8019 109.942 35.9379 109.222 35.9379 107.798C35.9379 106.23 34.5619 105.862 32.5139 105.414C30.4979 104.966 28.7699 104.39 28.7699 102.23C28.7699 100.342 30.3379 99.206 32.6579 99.206C35.5219 99.206 36.7059 100.662 36.9939 102.774H35.6339C35.4259 101.142 34.3699 100.326 32.6899 100.326C31.1379 100.326 30.1139 100.982 30.1139 102.166C30.1139 103.462 31.3939 103.846 33.1059 104.182C35.3299 104.63 37.3619 105.174 37.3619 107.75C37.3619 109.894 35.6179 111.094 33.1539 111.094ZM42.3535 111.094C39.8895 111.094 38.3535 109.142 38.3535 106.742C38.3535 104.342 39.8895 102.39 42.3535 102.39C44.3055 102.39 45.6015 103.51 45.8895 105.27H44.5775C44.3855 104.15 43.6015 103.462 42.3535 103.462C40.5935 103.462 39.6815 104.918 39.6815 106.742C39.6815 108.566 40.5935 110.006 42.3535 110.006C43.6975 110.006 44.4975 109.238 44.6095 107.958H45.8895C45.7135 109.942 44.4175 111.094 42.3535 111.094ZM50.6504 111.094C48.1864 111.094 46.6504 109.142 46.6504 106.742C46.6504 104.342 48.1864 102.39 50.6504 102.39C53.1304 102.39 54.6344 104.342 54.6344 106.742C54.6344 109.142 53.1304 111.094 50.6504 111.094ZM50.6504 110.006C52.4104 110.006 53.3064 108.566 53.3064 106.742C53.3064 104.918 52.4104 103.462 50.6504 103.462C48.8904 103.462 47.9784 104.918 47.9784 106.742C47.9784 108.566 48.8904 110.006 50.6504 110.006ZM57.2229 102.598V103.974H57.2549C57.7509 103.174 58.6149 102.502 59.7189 102.502C59.9589 102.502 60.0869 102.534 60.2469 102.598V103.846H60.1989C60.0069 103.782 59.8789 103.766 59.6229 103.766C58.3429 103.766 57.2229 104.726 57.2229 106.278V110.87H55.9269V102.598H57.2229ZM64.6348 111.094C62.1068 111.094 60.6348 109.142 60.6348 106.742C60.6348 104.342 62.2028 102.39 64.5548 102.39C67.0348 102.39 68.3628 104.31 68.3628 107.046H61.9628C62.0588 108.726 62.9708 110.006 64.6348 110.006C65.8348 110.006 66.6348 109.43 66.9228 108.31H68.1868C67.8028 110.086 66.5068 111.094 64.6348 111.094ZM64.5548 103.414C63.0188 103.414 62.1868 104.566 61.9948 106.07H66.9708C66.8908 104.422 66.0428 103.414 64.5548 103.414ZM72.83 111.11C70.574 111.11 69.166 109.414 69.166 106.758C69.166 104.006 70.75 102.406 72.798 102.406C73.966 102.406 74.862 102.982 75.39 103.766H75.422V99.43H76.718V110.87H75.422V109.862H75.39C74.766 110.662 73.998 111.11 72.83 111.11ZM72.878 110.022C74.718 110.022 75.502 108.646 75.502 106.774C75.502 104.854 74.574 103.51 72.862 103.51C71.294 103.51 70.494 104.918 70.494 106.774C70.494 108.646 71.294 110.022 72.878 110.022ZM81.2126 110.87V99.43H89.2926V100.694H82.6526V104.31H88.6846V105.526H82.6526V109.542H89.4846V110.87H81.2126ZM90.9738 110.87V102.598H92.2698V110.87H90.9738ZM90.9738 101.03V99.43H92.2698V101.03H90.9738ZM97.3323 113.622C95.1883 113.622 93.9723 112.758 93.8283 111.334H95.0283C95.1562 112.246 96.0203 112.598 97.3003 112.598C98.8203 112.598 99.6683 111.91 99.6683 110.47V109.302H99.6363C99.0283 110.086 98.3723 110.582 97.1883 110.582C95.0443 110.582 93.5723 108.87 93.5723 106.486C93.5723 103.91 95.1883 102.406 97.1083 102.406C98.3083 102.406 99.0763 102.87 99.6363 103.654H99.6683V102.598H100.964V110.422C100.964 112.598 99.5243 113.622 97.3323 113.622ZM97.2523 109.494C99.1563 109.494 99.7643 108.166 99.7643 106.422C99.7643 104.614 98.9963 103.494 97.2363 103.494C95.6843 103.494 94.9003 104.71 94.9003 106.502C94.9003 108.31 95.7163 109.494 97.2523 109.494ZM104.02 99.43V103.686H104.052C104.644 102.902 105.476 102.406 106.676 102.406C108.404 102.406 109.46 103.35 109.46 105.062V110.87H108.164V105.174C108.164 104.102 107.46 103.494 106.292 103.494C104.98 103.494 104.02 104.422 104.02 105.782V110.87H102.724V99.43H104.02ZM110.493 103.654V102.598H111.693V99.99H112.989V102.598H114.589V103.654H112.989V109.03C112.989 109.606 113.293 109.798 113.821 109.798C114.077 109.798 114.365 109.734 114.509 109.686H114.557V110.806C114.253 110.87 113.901 110.918 113.517 110.918C112.461 110.918 111.693 110.486 111.693 109.318V103.654H110.493ZM117.223 99.43V103.686H117.255C117.847 102.902 118.679 102.406 119.879 102.406C121.607 102.406 122.663 103.35 122.663 105.062V110.87H121.367V105.174C121.367 104.102 120.663 103.494 119.495 103.494C118.183 103.494 117.223 104.422 117.223 105.782V110.87H115.927V99.43H117.223ZM127.119 110.87V99.43H131.887C133.087 99.43 134.015 99.83 134.607 100.534C135.087 101.094 135.375 101.846 135.375 102.71C135.375 104.806 134.175 106.07 131.679 106.07H128.559V110.87H127.119ZM128.559 100.678V104.902H131.567C133.183 104.902 133.951 104.086 133.951 102.774C133.951 101.398 133.103 100.678 131.647 100.678H128.559ZM136.616 110.87V99.43H137.912V110.87H136.616ZM146.22 110.95C145.372 110.95 144.924 110.566 144.796 109.718H144.78C144.284 110.358 143.436 111.03 142.028 111.03C140.46 111.03 139.228 110.294 139.228 108.726C139.228 106.774 140.764 106.374 142.828 106.054C143.996 105.878 144.812 105.766 144.812 104.87C144.812 103.942 144.14 103.414 142.956 103.414C141.612 103.414 140.94 103.99 140.892 105.238H139.644C139.692 103.638 140.748 102.438 142.94 102.438C144.7 102.438 145.996 103.094 145.996 105.062V108.998C145.996 109.67 146.156 110.038 146.876 109.878H146.924V110.822C146.764 110.886 146.556 110.95 146.22 110.95ZM142.316 110.038C144.044 110.038 144.828 108.774 144.828 107.814V106.406C144.396 106.678 143.644 106.886 142.94 107.014C141.644 107.254 140.604 107.478 140.604 108.694C140.604 109.798 141.468 110.038 142.316 110.038ZM151.416 111.094C148.952 111.094 147.416 109.142 147.416 106.742C147.416 104.342 148.952 102.39 151.416 102.39C153.368 102.39 154.664 103.51 154.952 105.27H153.64C153.448 104.15 152.664 103.462 151.416 103.462C149.656 103.462 148.744 104.918 148.744 106.742C148.744 108.566 149.656 110.006 151.416 110.006C152.76 110.006 153.56 109.238 153.672 107.958H154.952C154.776 109.942 153.48 111.094 151.416 111.094ZM159.713 111.094C157.185 111.094 155.713 109.142 155.713 106.742C155.713 104.342 157.281 102.39 159.633 102.39C162.113 102.39 163.441 104.31 163.441 107.046H157.041C157.137 108.726 158.049 110.006 159.713 110.006C160.913 110.006 161.713 109.43 162.001 108.31H163.265C162.881 110.086 161.585 111.094 159.713 111.094ZM159.633 103.414C158.097 103.414 157.265 104.566 157.073 106.07H162.049C161.969 104.422 161.121 103.414 159.633 103.414ZM165.348 108.102L164.996 103.094V99.43H166.42V103.094L166.068 108.102H165.348ZM164.932 110.87V109.286H166.484V110.87H164.932Z" fill="#010101"/>
</svg>
