<svg width="138" height="72" viewBox="0 0 138 72" fill="none" xmlns="http://www.w3.org/2000/svg">
<g clip-path="url(#clip0_463_1264)">
<path d="M53.656 53.6246L69.0116 62.7681L75.9661 51.3939C73.5515 50.9191 70.3024 51.1068 65.3841 51.5595C59.8984 52.0565 55.7034 52.178 53.6449 53.6246H53.656Z" fill="white"/>
<path d="M67.2425 72C66.9643 72 66.6861 72 66.4079 71.9669C57.1946 71.2049 47.8477 70.8184 38.601 70.8184H37.7664C28.809 70.8405 19.7514 71.227 10.8385 71.9669C10.5603 71.989 10.2821 72 10.004 72C6.67692 72 3.53904 70.3546 1.66966 67.5718C-0.355498 64.5571 -0.566916 60.692 1.1133 57.4896L22.4776 16.6307C23.9798 13.7485 26.8172 11.7718 30.0664 11.3521C35.7858 10.6123 41.6164 10.1485 47.3692 9.99387C48.9048 9.94969 50.407 9.93865 51.8869 9.93865C55.7814 9.93865 59.6982 10.0712 63.5927 10.3472L64.9948 7.37669C66.4079 4.38405 69.2231 2.29693 72.5057 1.77791C74.809 1.4135 77.1457 1.10429 79.4824 0.850307C84.5119 0.287117 90.81 0 97.6866 0C101.837 0 106.221 0.110429 110.728 0.320245C116.781 0.607362 122.945 1.07117 129.043 1.7227C132.326 2.06503 135.219 3.99755 136.788 6.87976C138.357 9.76196 138.401 13.2184 136.888 16.1337L113.777 60.9129C112.03 64.3031 108.536 66.3239 104.864 66.3239C103.862 66.3239 102.85 66.1804 101.859 65.8601C94.0591 63.4196 85.9585 61.9509 77.8022 61.4761C77.6131 61.4761 77.4239 61.454 77.2236 61.4429C77.3015 62.6687 77.1457 63.9276 76.7451 65.1534C75.3876 69.2614 71.5265 72 67.2313 72H67.2425Z" fill="white"/>
<path d="M31.3682 21.2135L10.015 62.0613C18.5941 61.3546 27.8742 60.9129 37.7552 60.8797C48.3038 60.8576 58.1626 61.3104 67.2424 62.0613C62.3242 59.0797 57.417 56.0871 52.4988 53.1055C58.2516 52.0785 65.5511 51.2282 74.0078 51.3828C75.4432 51.4049 76.9008 51.4601 78.403 51.5484C89.1853 52.1779 98.1873 54.2871 104.886 56.3742C112.586 41.4441 120.297 26.5251 127.997 11.5951C120.909 10.8441 114.867 10.4576 110.271 10.2368C92.8684 9.4196 82.9541 10.4576 80.6173 10.7227C77.88 11.0208 75.6323 11.3521 74.0857 11.5951C72.628 14.6871 71.1592 17.7791 69.7015 20.8711C63.2143 20.1423 55.8147 19.7116 47.6696 19.9325C41.7833 20.0871 36.3421 20.5619 31.3904 21.2024L31.3682 21.2135Z" fill="white"/>
<path d="M65.3023 71C65.0322 71 64.7621 71 64.492 70.9678C55.5462 70.227 46.4707 69.8512 37.4925 69.8512H36.6821C27.9848 69.8727 19.1902 70.2485 10.5361 70.9678C10.266 70.9893 9.99591 71 9.7258 71C6.49536 71 3.44859 69.4003 1.6335 66.6948C-0.332856 63.7638 -0.538135 60.0061 1.09329 56.8926L21.8373 17.1687C23.2958 14.3666 26.0509 12.4448 29.2057 12.0368C34.759 11.3175 40.4204 10.8666 46.0061 10.7163C47.4971 10.6733 48.9557 10.6626 50.3926 10.6626C54.1741 10.6626 57.9771 10.7914 61.7586 11.0598L63.1199 8.17178C64.492 5.26227 67.2255 3.23313 70.4127 2.72853C72.6492 2.37423 74.918 2.07362 77.1869 1.82669C82.0704 1.27914 88.1855 1 94.8625 1C98.8924 1 103.149 1.10736 107.525 1.31135C113.402 1.59049 119.388 2.04141 125.309 2.67485C128.496 3.00767 131.305 4.8865 132.828 7.68865C134.352 10.4908 134.395 13.8512 132.925 16.6856L110.485 60.2209C108.789 63.5169 105.397 65.4816 101.831 65.4816C100.859 65.4816 99.8756 65.342 98.914 65.0307C91.3403 62.658 83.4749 61.2301 75.5555 60.7684C75.3718 60.7684 75.1881 60.7469 74.9937 60.7362C75.0693 61.9279 74.918 63.1518 74.5291 64.3436C73.211 68.3374 69.4619 71 65.2915 71H65.3023Z" fill="white"/>
<path d="M31.3682 21.2135L10.015 62.0613C18.5941 61.3546 27.8742 60.9129 37.7552 60.8797C48.3038 60.8576 58.1626 61.3104 67.2424 62.0613C62.3242 59.0797 57.417 56.0871 52.4988 53.1055C58.2516 52.0785 65.5511 51.2282 74.0078 51.3828C75.4432 51.4049 76.9008 51.4601 78.403 51.5484C89.1853 52.1779 98.1873 54.2871 104.886 56.3742C112.586 41.4441 120.297 26.5251 127.997 11.5951C120.909 10.8441 114.867 10.4576 110.271 10.2368C92.8684 9.4196 82.9541 10.4576 80.6173 10.7227C77.88 11.0208 75.6323 11.3521 74.0857 11.5951C72.628 14.6871 71.1592 17.7791 69.7015 20.8711C63.2143 20.1423 55.8147 19.7116 47.6696 19.9325C41.7833 20.0871 36.3421 20.5619 31.3904 21.2024L31.3682 21.2135Z" fill="white"/>
<path d="M54.9023 58.4503C53.3222 58.4503 51.7199 58.0749 50.2177 57.2908C45.3329 54.7178 43.4635 48.7104 46.0561 43.8515L60.8109 16.211C63.4035 11.3632 69.4567 9.50798 74.3527 12.081C79.2376 14.654 81.1069 20.6724 78.5143 25.5203L63.7596 53.1607C61.957 56.5288 58.4964 58.4503 54.9023 58.4503Z" fill="white"/>
<path d="M54.9135 48.5117C59.8317 39.3019 64.7499 30.0921 69.6682 20.8712L54.9135 48.5117Z" fill="white"/>
<path d="M67.4316 71.4368C65.6624 71.4368 63.8598 70.9951 62.2352 70.0786C57.5061 67.4172 56.0039 61.697 58.8859 57.3129L65.6958 46.9325C68.5666 42.5485 74.7311 41.1571 79.4602 43.8184C84.1893 46.4798 85.6914 52.2 82.8095 56.5841L75.9996 66.9644C74.1191 69.8467 70.8143 71.4258 67.4316 71.4258V71.4368Z" fill="white"/>
<path d="M52.8103 52.7963L68.1659 61.9399L75.1204 50.5657C72.7058 50.0908 69.4567 50.2785 64.5384 50.7313C59.0527 51.2282 54.8577 51.3497 52.7992 52.7963H52.8103Z" fill="#050606"/>
<path d="M30.5225 20.3853L9.16931 61.2332C17.7484 60.5264 27.0285 60.0847 36.9095 60.0516C47.4581 60.0295 57.3169 60.4823 66.3967 61.2332C61.4785 58.2516 56.5713 55.259 51.6531 52.2774C57.4059 51.2504 64.7054 50.4001 73.1621 50.5547C74.5975 50.5767 76.0551 50.632 77.5573 50.7203C88.3396 51.3498 97.3416 53.459 104.04 55.5461C111.74 40.616 119.451 25.697 127.151 10.7669C120.063 10.016 114.021 9.62951 109.426 9.40865C92.0227 8.59147 82.1084 9.62951 79.7716 9.89454C77.0343 10.1927 74.7866 10.524 73.24 10.7669C71.7823 13.859 70.3135 16.951 68.8558 20.043C62.3686 19.3142 54.969 18.8835 46.8239 19.1044C40.9376 19.259 35.4964 19.7338 30.5447 20.3743L30.5225 20.3853Z" fill="white"/>
<path d="M30.5225 20.3853L9.16931 61.2332C17.7484 60.5264 27.0285 60.0847 36.9095 60.0516C47.4581 60.0295 57.3169 60.4823 66.3967 61.2332C61.4785 58.2516 56.5713 55.259 51.6531 52.2774C57.4059 51.2504 64.7054 50.4001 73.1621 50.5547C74.5975 50.5767 76.0551 50.632 77.5573 50.7203C88.3396 51.3498 97.3416 53.459 104.04 55.5461C111.74 40.616 119.451 25.697 127.151 10.7669C120.063 10.016 114.021 9.62951 109.426 9.40865C92.0227 8.59147 82.1084 9.62951 79.7716 9.89454C77.0343 10.1927 74.7866 10.524 73.24 10.7669C71.7823 13.859 70.3135 16.951 68.8558 20.043C62.3686 19.3142 54.969 18.8835 46.8239 19.1044C40.9376 19.259 35.4964 19.7338 30.5447 20.3743L30.5225 20.3853Z" stroke="#050606" stroke-width="1.07" stroke-miterlimit="10"/>
<path d="M54.0677 47.6835C58.986 38.4736 63.9042 29.2638 68.8225 20.043" stroke="#050606" stroke-width="1.07" stroke-miterlimit="10"/>
<path d="M75.1315 50.6099L68.3217 61.708" stroke="#050606" stroke-width="1.07" stroke-miterlimit="10"/>
<path d="M23.4344 33.9461C25.1035 33.4271 42.5844 31.3289 47.6696 32.0246C49.3832 27.7068 51.0968 23.378 52.8104 19.0602L30.5225 20.3853C28.1635 24.9019 25.7934 29.4295 23.4344 33.9461Z" fill="#231F20" stroke="#050606" stroke-width="1.07" stroke-miterlimit="10"/>
<path d="M16.2796 46.9767C18.2825 46.5019 20.4189 46.0822 22.6666 45.7399C29.9327 44.6577 36.4755 44.7902 41.9613 45.3865C39.8471 50.2786 37.744 55.1596 35.6299 60.0516L9.18042 61.2332C11.5505 56.4847 13.9206 51.7362 16.2796 46.9767Z" fill="#231F20"/>
<path d="M48.4151 33.0295L42.896 44.8124L55.136 45.6958L61.4562 33.8688C59.3643 33.5044 57.0165 33.2062 54.4349 33.0627C52.2651 32.9412 50.2511 32.9522 48.4262 33.0406L48.4151 33.0295Z" fill="#231F20" stroke="#050606" stroke-width="1.07" stroke-miterlimit="10"/>
<path d="M66.7528 25.2222L59.7538 37.4688H83.3213L90.5095 25.2222H66.7528Z" fill="#231F20" stroke="#050606" stroke-width="1.07" stroke-miterlimit="10"/>
<path d="M100.591 9.14368L92.3455 24.1842L119.051 26.459L127.14 10.778L100.591 9.14368Z" fill="#231F20" stroke="#050606" stroke-width="1.07" stroke-miterlimit="10"/>
<path d="M83.3213 37.4688L76.1331 50.3006L104.029 55.5571C106.633 50.4994 109.248 45.4418 111.851 40.3951C102.338 39.4234 92.8239 38.4516 83.3213 37.4798V37.4688Z" fill="#231F20" stroke="#050606" stroke-width="1.07" stroke-miterlimit="10"/>
</g>
<defs>
<clipPath id="clip0_463_1264">
<rect width="138" height="72" fill="white"/>
</clipPath>
</defs>
</svg>
