<svg width="155" height="114" viewBox="0 0 155 114" fill="none" xmlns="http://www.w3.org/2000/svg">
<path d="M51.2491 74.567C51.1708 74.7417 51.1993 74.9458 51.3223 75.0926C51.4453 75.2393 51.6413 75.3029 51.827 75.2563L62.3164 72.6261L69.0256 81.1755C69.1453 81.3279 69.3422 81.3975 69.531 81.3541C69.7198 81.3107 69.8666 81.162 69.9076 80.9727L76.189 51.9852C76.2306 51.7935 76.1562 51.5952 75.9987 51.4781L72.3555 48.769C72.2693 48.7049 72.1646 48.6702 72.0572 48.6702H65.6532L64.4211 46.9794C64.316 46.8353 64.1422 46.758 63.9649 46.7766C63.7875 46.7952 63.6335 46.9068 63.5606 47.0695L51.2491 74.567Z" fill="#EBC61B" stroke="#EBC61B" stroke-linejoin="round"/>
<path d="M103.751 74.567C103.829 74.7417 103.801 74.9458 103.678 75.0926C103.555 75.2393 103.359 75.3029 103.173 75.2563L92.6836 72.6261L85.9744 81.1755C85.8547 81.3279 85.6578 81.3975 85.469 81.3541C85.2802 81.3107 85.1334 81.162 85.0924 80.9727L78.811 51.9852C78.7694 51.7935 78.8438 51.5952 79.0013 51.4781L82.6445 48.769C82.7307 48.7049 82.8354 48.6702 82.9428 48.6702H89.3468L90.5789 46.9794C90.684 46.8353 90.8578 46.758 91.0351 46.7766C91.2125 46.7952 91.3665 46.9068 91.4394 47.0695L103.751 74.567Z" fill="#EBC61B" stroke="#EBC61B" stroke-linejoin="round"/>
<path d="M50.5057 28.0779L54.4348 21.8759V14.8086L60.4012 11.4912L63.7482 5.4335H71.0243L77.1362 1.68347L83.9757 5.4335H90.9608L94.3078 11.0585L101.293 14.8086L100.856 21.8759L104.494 28.0779" stroke="#FFD304" stroke-width="3" stroke-linejoin="round"/>
<path d="M50.5057 26.8782L54.4348 33.0802V40.1475L60.4012 43.4649L63.7482 49.5226H71.0243L77.1362 53.2726L83.9757 49.5226H90.9608L94.3078 43.8976L101.293 40.1475L100.856 33.0802L104.494 26.8782" stroke="#FFD304" stroke-width="3" stroke-linejoin="round"/>
<circle cx="78.0999" cy="28.0779" r="19.7965" stroke="#FFD304" stroke-width="6"/>
<circle cx="78.0999" cy="28.078" r="15.5967" fill="#FFD304"/>
<path d="M60.0733 11.5928L61.7818 9.20087L66.5656 13.643C65.8822 13.7569 64.3787 14.258 63.832 15.3515C63.1486 16.7183 60.415 20.1353 60.0733 20.8187C59.7316 21.5021 58.7065 26.2859 58.7065 26.9693C58.7065 27.6527 61.0984 37.9037 61.7818 38.2454C62.4652 38.5871 74.083 46.4462 74.7664 46.7879C75.3131 47.0612 82.7394 45.9906 86.3842 45.4211L90.1429 49.5215H87.751L83.6506 49.8632L82.2838 50.5466L79.5502 51.5717L76.8166 52.9385L74.083 51.5717C73.5363 51.2983 72.944 50.5466 72.7162 50.2049C71.6911 49.9771 69.3675 49.4532 68.2741 49.1798C66.9073 48.8381 64.8571 49.1798 63.832 49.1798C63.0119 49.1798 62.5791 48.0408 62.4652 47.4713L61.0984 45.4211L59.7316 43.0292L57.3397 41.6624L54.2644 39.2705L54.9478 33.4616L51.1891 27.6527L54.2644 22.8689V20.1353L54.9478 14.6681L60.0733 11.5928Z" fill="#FFD304"/>
<path d="M95.6914 42.9303L94.116 45.3863L89.4084 41.0267C90.061 40.8945 91.49 40.3509 91.9854 39.2341C92.6046 37.8381 95.1362 34.3222 95.4458 33.6242C95.7554 32.9262 96.6115 28.0748 96.5933 27.3854C96.5751 26.6961 94.0075 16.4164 93.3428 16.0891C92.6781 15.7617 81.3231 8.12839 80.6583 7.80103C80.1266 7.53913 73.0305 8.80715 69.549 9.47389L65.8338 5.43298L68.1285 5.37242L72.0532 4.92392L73.3463 4.19997L75.9416 3.09673L78.5277 1.64882L81.1866 2.95829C81.7184 3.22019 82.3066 3.96347 82.5343 4.30238C83.5238 4.5062 85.7669 4.97587 86.8232 5.22392C88.1435 5.53398 90.1013 5.1374 91.0848 5.11144C91.8715 5.09068 92.3171 6.22863 92.4415 6.8002L93.8074 8.83363L95.1823 11.2117L97.5134 12.5299L100.527 14.8647L100.026 20.7415L103.787 26.5057L100.964 31.409L101.037 34.1664L100.527 39.6985L95.6914 42.9303Z" fill="#FFD304"/>
<rect x="60.9032" y="11.2438" width="6.834" height="6.834" transform="rotate(-61.3354 60.9032 11.2438)" fill="#FFD304"/>
<rect x="86.7259" y="48.0006" width="7.99601" height="4.97499" transform="rotate(-61.3354 86.7259 48.0006)" fill="#FFD304"/>
<path d="M77.1688 35.4016V23.9296H73.4488V21.7696C75.4648 21.6976 77.2648 20.9536 77.6008 18.8416H80.4568V35.4016H77.1688Z" fill="white"/>
<path d="M4.59306 110.867V106.019L0.449063 99.4268H2.04906L5.32906 104.867H5.36106L8.68906 99.4268H10.2251L6.03306 106.051V110.867H4.59306ZM12.9551 111.091C10.4911 111.091 8.95506 109.139 8.95506 106.739C8.95506 104.339 10.4911 102.387 12.9551 102.387C15.4351 102.387 16.9391 104.339 16.9391 106.739C16.9391 109.139 15.4351 111.091 12.9551 111.091ZM12.9551 110.003C14.7151 110.003 15.6111 108.563 15.6111 106.739C15.6111 104.915 14.7151 103.459 12.9551 103.459C11.1951 103.459 10.2831 104.915 10.2831 106.739C10.2831 108.563 11.1951 110.003 12.9551 110.003ZM24.7916 110.867H23.4956V109.731H23.4636C22.8716 110.531 22.1676 111.059 20.9676 111.059C19.2716 111.059 18.1836 110.035 18.1836 108.323V102.595H19.4796V108.291C19.4796 109.363 20.1676 109.987 21.3356 109.987C22.6476 109.987 23.4956 108.995 23.4956 107.683V102.595H24.7916V110.867ZM33.4429 111.091C30.2269 111.091 28.6909 109.299 28.5629 106.995H29.9709C30.1629 108.931 31.3469 109.939 33.5069 109.939C35.0909 109.939 36.2269 109.219 36.2269 107.795C36.2269 106.227 34.8509 105.859 32.8029 105.411C30.7869 104.963 29.0589 104.387 29.0589 102.227C29.0589 100.339 30.6269 99.2028 32.9469 99.2028C35.8109 99.2028 36.9949 100.659 37.2829 102.771H35.9229C35.7149 101.139 34.6589 100.323 32.9789 100.323C31.4269 100.323 30.4029 100.979 30.4029 102.163C30.4029 103.459 31.6829 103.843 33.3949 104.179C35.6189 104.627 37.6509 105.171 37.6509 107.747C37.6509 109.891 35.9069 111.091 33.4429 111.091ZM42.6426 111.091C40.1786 111.091 38.6426 109.139 38.6426 106.739C38.6426 104.339 40.1786 102.387 42.6426 102.387C44.5946 102.387 45.8906 103.507 46.1786 105.267H44.8666C44.6746 104.147 43.8906 103.459 42.6426 103.459C40.8826 103.459 39.9706 104.915 39.9706 106.739C39.9706 108.563 40.8826 110.003 42.6426 110.003C43.9866 110.003 44.7866 109.235 44.8986 107.955H46.1786C46.0026 109.939 44.7066 111.091 42.6426 111.091ZM50.9394 111.091C48.4754 111.091 46.9394 109.139 46.9394 106.739C46.9394 104.339 48.4754 102.387 50.9394 102.387C53.4194 102.387 54.9234 104.339 54.9234 106.739C54.9234 109.139 53.4194 111.091 50.9394 111.091ZM50.9394 110.003C52.6994 110.003 53.5954 108.563 53.5954 106.739C53.5954 104.915 52.6994 103.459 50.9394 103.459C49.1794 103.459 48.2674 104.915 48.2674 106.739C48.2674 108.563 49.1794 110.003 50.9394 110.003ZM57.5119 102.595V103.971H57.5439C58.0399 103.171 58.9039 102.499 60.0079 102.499C60.2479 102.499 60.3759 102.531 60.5359 102.595V103.843H60.4879C60.2959 103.779 60.1679 103.763 59.9119 103.763C58.6319 103.763 57.5119 104.723 57.5119 106.275V110.867H56.2159V102.595H57.5119ZM64.9238 111.091C62.3958 111.091 60.9238 109.139 60.9238 106.739C60.9238 104.339 62.4918 102.387 64.8438 102.387C67.3238 102.387 68.6518 104.307 68.6518 107.043H62.2518C62.3478 108.723 63.2598 110.003 64.9238 110.003C66.1238 110.003 66.9238 109.427 67.2118 108.307H68.4758C68.0918 110.083 66.7958 111.091 64.9238 111.091ZM64.8438 103.411C63.3078 103.411 62.4758 104.563 62.2838 106.067H67.2598C67.1798 104.419 66.3318 103.411 64.8438 103.411ZM73.1191 111.107C70.8631 111.107 69.4551 109.411 69.4551 106.755C69.4551 104.003 71.0391 102.403 73.0871 102.403C74.2551 102.403 75.1511 102.979 75.6791 103.763H75.7111V99.4268H77.0071V110.867H75.7111V109.859H75.6791C75.0551 110.659 74.2871 111.107 73.1191 111.107ZM73.1671 110.019C75.0071 110.019 75.7911 108.643 75.7911 106.771C75.7911 104.851 74.8631 103.507 73.1511 103.507C71.5831 103.507 70.7831 104.915 70.7831 106.771C70.7831 108.643 71.5831 110.019 73.1671 110.019ZM81.5017 110.867V99.4268H89.2617V100.691H82.9417V104.259H88.2057V105.475H82.9417V110.867H81.5017ZM90.5597 110.867V102.595H91.8557V110.867H90.5597ZM90.5597 101.027V99.4268H91.8557V101.027H90.5597ZM94.9182 102.595V103.971H94.9502C95.4462 103.171 96.3102 102.499 97.4142 102.499C97.6542 102.499 97.7822 102.531 97.9422 102.595V103.843H97.8942C97.7022 103.779 97.5742 103.763 97.3182 103.763C96.0382 103.763 94.9182 104.723 94.9182 106.275V110.867H93.6222V102.595H94.9182ZM102.243 111.107C99.9706 111.107 98.7066 110.035 98.5786 108.179H99.9066C100.083 109.619 101.043 110.019 102.275 110.019C103.635 110.019 104.195 109.427 104.195 108.659C104.195 107.731 103.555 107.491 102.035 107.171C100.403 106.835 98.9466 106.499 98.9466 104.691C98.9466 103.315 100.003 102.419 101.923 102.419C103.971 102.419 104.979 103.395 105.171 105.011H103.843C103.715 103.923 103.123 103.443 101.891 103.443C100.707 103.443 100.227 103.971 100.227 104.627C100.227 105.523 101.027 105.699 102.451 105.987C104.115 106.323 105.507 106.691 105.507 108.595C105.507 110.259 104.147 111.107 102.243 111.107ZM106.063 103.651V102.595H107.263V99.9868H108.559V102.595H110.159V103.651H108.559V109.027C108.559 109.603 108.863 109.795 109.391 109.795C109.647 109.795 109.935 109.731 110.079 109.683H110.127V110.803C109.823 110.867 109.471 110.915 109.087 110.915C108.031 110.915 107.263 110.483 107.263 109.315V103.651H106.063ZM114.236 110.867V99.4268H119.004C120.204 99.4268 121.132 99.8268 121.724 100.531C122.204 101.091 122.492 101.843 122.492 102.707C122.492 104.803 121.292 106.067 118.796 106.067H115.676V110.867H114.236ZM115.676 100.675V104.899H118.684C120.3 104.899 121.068 104.083 121.068 102.771C121.068 101.395 120.22 100.675 118.764 100.675H115.676ZM123.733 110.867V99.4268H125.029V110.867H123.733ZM133.337 110.947C132.489 110.947 132.041 110.563 131.913 109.715H131.897C131.401 110.355 130.553 111.027 129.145 111.027C127.577 111.027 126.345 110.291 126.345 108.723C126.345 106.771 127.881 106.371 129.945 106.051C131.113 105.875 131.929 105.763 131.929 104.867C131.929 103.939 131.257 103.411 130.073 103.411C128.729 103.411 128.057 103.987 128.009 105.235H126.761C126.809 103.635 127.865 102.435 130.057 102.435C131.817 102.435 133.113 103.091 133.113 105.059V108.995C133.113 109.667 133.273 110.035 133.993 109.875H134.041V110.819C133.881 110.883 133.673 110.947 133.337 110.947ZM129.433 110.035C131.161 110.035 131.945 108.771 131.945 107.811V106.403C131.513 106.675 130.761 106.883 130.057 107.011C128.761 107.251 127.721 107.475 127.721 108.691C127.721 109.795 128.585 110.035 129.433 110.035ZM138.533 111.091C136.069 111.091 134.533 109.139 134.533 106.739C134.533 104.339 136.069 102.387 138.533 102.387C140.485 102.387 141.781 103.507 142.069 105.267H140.757C140.565 104.147 139.781 103.459 138.533 103.459C136.773 103.459 135.861 104.915 135.861 106.739C135.861 108.563 136.773 110.003 138.533 110.003C139.877 110.003 140.677 109.235 140.789 107.955H142.069C141.893 109.939 140.597 111.091 138.533 111.091ZM146.83 111.091C144.302 111.091 142.83 109.139 142.83 106.739C142.83 104.339 144.398 102.387 146.75 102.387C149.23 102.387 150.558 104.307 150.558 107.043H144.158C144.254 108.723 145.166 110.003 146.83 110.003C148.03 110.003 148.83 109.427 149.118 108.307H150.382C149.998 110.083 148.702 111.091 146.83 111.091ZM146.75 103.411C145.214 103.411 144.382 104.563 144.19 106.067H149.166C149.086 104.419 148.238 103.411 146.75 103.411ZM152.465 108.099L152.113 103.091V99.4268H153.537V103.091L153.185 108.099H152.465ZM152.049 110.867V109.283H153.601V110.867H152.049Z" fill="#010101"/>
</svg>
