<svg width="59" height="46" viewBox="0 0 59 46" fill="none" xmlns="http://www.w3.org/2000/svg">
<path d="M44.9324 36.0007C46.0324 37.2007 45.9324 39.1007 44.7324 40.2007C40.5324 44.0007 35.1324 46.0007 29.5324 46.0007C29.0324 46.0007 28.6324 46.0007 28.1324 46.0007C22.0324 45.6007 16.4324 42.9007 12.3324 38.3007C9.23243 34.8007 7.33243 30.5007 6.73243 26.0007L4.93243 27.4007C4.33243 27.8007 3.73243 28.0007 3.03243 28.0007C2.13243 28.0007 1.23243 27.6007 0.632429 26.9007C-0.367571 25.6007 -0.167571 23.7007 1.13243 22.7007L7.83243 17.4007C7.83243 17.4007 7.83243 17.4007 7.93243 17.4007C8.03243 17.4007 8.03243 17.3007 8.13243 17.3007C8.23243 17.2007 8.33243 17.2007 8.43243 17.1007C8.53243 17.1007 8.53243 17.0007 8.63243 17.0007C8.73243 17.0007 8.83243 16.9007 8.93243 16.9007C9.03243 16.9007 9.03243 16.9007 9.13243 16.8007C9.33243 16.8007 9.43243 16.7007 9.63243 16.7007H9.73243C9.93243 16.7007 10.0324 16.7007 10.2324 16.7007C10.2324 16.7007 10.2324 16.7007 10.3324 16.7007H10.4324C10.5324 16.7007 10.6324 16.8007 10.8324 16.8007C10.9324 16.8007 10.9324 16.8007 11.0324 16.9007C11.1324 16.9007 11.2324 17.0007 11.3324 17.1007C11.4324 17.1007 11.4324 17.2007 11.5324 17.2007L18.3324 21.8007C19.7324 22.7007 20.0324 24.6007 19.1324 26.0007C18.2324 27.4007 16.3324 27.7007 14.9324 26.8007L12.7324 25.3007C13.1324 28.6007 14.5324 31.7007 16.8324 34.2007C19.8324 37.6007 23.9324 39.6007 28.5324 39.9007C33.0324 40.2006 37.4324 38.7007 40.7324 35.7007C41.9324 34.6007 43.8324 34.7007 44.9324 36.0007ZM58.2324 19.1007C57.2324 17.8007 55.3324 17.6007 54.0324 18.6007L52.2324 20.0007C51.6324 15.5007 49.7324 11.2007 46.6324 7.70065C38.2324 -1.79935 23.7324 -2.59935 14.2324 5.80065C13.0324 6.90065 12.8324 8.80065 14.0324 10.0007C15.1324 11.2007 17.0324 11.3007 18.2324 10.2007C25.2324 4.00066 35.9324 4.60066 42.1324 11.6007C44.4324 14.1007 45.8324 17.3007 46.2324 20.5007L44.0324 19.0007C42.6324 18.1007 40.8324 18.4007 39.8324 19.8007C38.9324 21.2007 39.2324 23.0007 40.6324 24.0007L47.4324 28.6007L47.5324 28.7007C47.6324 28.8007 47.7324 28.8007 47.8324 28.9007C47.9324 28.9007 47.9324 28.9007 48.0324 29.0007C48.1324 29.1007 48.3324 29.1007 48.4324 29.1007C48.4324 29.1007 48.4324 29.1007 48.5324 29.1007C48.7324 29.1007 48.8324 29.1007 49.0324 29.1007C49.2324 29.1007 49.3324 29.1007 49.5324 29.1007C49.6324 29.1007 49.6324 29.1007 49.7324 29.0007C49.8324 29.0007 49.9324 29.0007 50.0324 28.9007C50.1324 28.9007 50.1324 28.8007 50.2324 28.8007C50.3324 28.8007 50.4324 28.7007 50.5324 28.7007C50.6324 28.7007 50.6324 28.6007 50.7324 28.6007C50.8324 28.6007 50.8324 28.5007 50.9324 28.5007L57.6324 23.2007C59.0324 22.3007 59.2324 20.4007 58.2324 19.1007Z" fill="#0F315E"/>
</svg>
