<svg width="169" height="114" viewBox="0 0 169 114" fill="none" xmlns="http://www.w3.org/2000/svg">
<path d="M58.2483 74.5568C58.1702 74.7316 58.1988 74.9356 58.3219 75.0822C58.445 75.2288 58.641 75.2923 58.8267 75.2456L69.3158 72.6096L76.0252 81.1783C76.1447 81.3309 76.3417 81.4007 76.5307 81.3573C76.7197 81.3139 76.8666 81.1652 76.9075 80.9757L83.1891 51.9225C83.2305 51.731 83.1563 51.533 82.9992 51.4159L79.3559 48.7007C79.2695 48.6364 79.1648 48.6016 79.0571 48.6016H72.6533L71.4211 46.9069C71.3161 46.7625 71.1422 46.6851 70.9647 46.7036C70.7871 46.7222 70.633 46.834 70.5602 46.997L58.2483 74.5568Z" fill="#CDD1EB" stroke="#CDD1EB" stroke-linejoin="round"/>
<path d="M110.752 74.5568C110.83 74.7316 110.801 74.9356 110.678 75.0822C110.555 75.2288 110.359 75.2923 110.173 75.2456L99.6842 72.6096L92.9748 81.1783C92.8553 81.3309 92.6583 81.4007 92.4693 81.3573C92.2803 81.3139 92.1334 81.1652 92.0925 80.9757L85.8109 51.9225C85.7695 51.731 85.8437 51.533 86.0008 51.4159L89.6441 48.7007C89.7305 48.6364 89.8352 48.6016 89.9429 48.6016H96.3467L97.5789 46.9069C97.6839 46.7625 97.8578 46.6851 98.0353 46.7036C98.2129 46.7222 98.367 46.834 98.4398 46.997L110.752 74.5568Z" fill="#CDD1EB" stroke="#CDD1EB" stroke-linejoin="round"/>
<path d="M57.505 27.9614L61.4342 21.7454V14.662L67.4007 11.3371L70.7478 5.26567H78.0241L84.1362 1.50714L90.9759 5.26567H97.9611L101.308 10.9035L108.293 14.662L107.857 21.7454L111.495 27.9614" stroke="#D6D8E9" stroke-width="3" stroke-linejoin="round"/>
<path d="M57.505 26.759L61.4342 32.975V40.0584L67.4007 43.3832L70.7478 49.4547H78.0241L84.1362 53.2133L90.9759 49.4547H97.9611L101.308 43.8169L108.293 40.0584L107.857 32.975L111.495 26.759" stroke="#D6D8E9" stroke-width="3" stroke-linejoin="round"/>
<path d="M85.0999 47.796C96.0397 47.796 104.897 38.9094 104.897 27.9614C104.897 17.0135 96.0397 8.12689 85.0999 8.12689C74.16 8.12689 65.303 17.0135 65.303 27.9614C65.303 38.9094 74.16 47.796 85.0999 47.796Z" stroke="#D6D8E9" stroke-width="6"/>
<ellipse cx="85.0999" cy="27.9614" rx="15.5971" ry="15.6321" fill="#D6D8E9"/>
<path d="M67.0729 11.439L68.7815 9.04163L73.5654 13.4938C72.882 13.608 71.3784 14.1103 70.8317 15.2062C70.1483 16.5761 67.4146 20.0008 67.0729 20.6858C66.7312 21.3707 65.7061 26.1654 65.7061 26.8503C65.7061 27.5353 68.098 37.8095 68.7815 38.152C69.4649 38.4945 81.083 46.3714 81.7664 46.7139C82.3131 46.9878 89.7396 45.9148 93.3845 45.344L97.1433 49.4537H94.7513L90.6508 49.7961L89.284 50.4811L86.5503 51.5085L83.8166 52.8784L81.083 51.5085C80.5362 51.2345 79.9439 50.4811 79.7161 50.1386C78.691 49.9103 76.3674 49.3852 75.2739 49.1112C73.9071 48.7687 71.8568 49.1112 70.8317 49.1112C70.0116 49.1112 69.5788 47.9696 69.4649 47.3988L68.098 45.344L66.7312 42.9466L64.3392 41.5767L61.2639 39.1794L61.9473 33.3573L58.1885 27.5353L61.2639 22.7406V20.0008L61.9473 14.5212L67.0729 11.439Z" fill="#D6D8E9"/>
<path d="M102.437 42.66L100.793 45.1016L95.8931 40.7775C96.5733 40.6453 98.063 40.1035 98.5807 38.9935C99.2278 37.606 101.87 34.1101 102.194 33.4164C102.518 32.7226 103.416 27.9025 103.398 27.2178C103.38 26.5331 100.718 16.3257 100.026 16.0014C99.334 15.6771 87.5126 8.11017 86.8204 7.78589C86.2667 7.52646 78.871 8.79556 75.2424 9.46253L71.3767 5.45366L73.7679 5.39041L77.8579 4.93962L79.2063 4.21876L81.9119 3.11941L84.6086 1.6777L87.3774 2.97483C87.9311 3.23426 88.543 3.97178 88.7798 4.30812C89.8106 4.50925 92.1472 4.97275 93.2475 5.21772C94.6229 5.52393 96.6634 5.12736 97.6882 5.10025C98.508 5.07856 98.9707 6.2083 99.0996 6.77588L100.52 8.79387L101.95 11.1542L104.377 12.4604L107.514 14.7756L106.984 20.6137L110.895 26.3343L107.947 31.2086L108.019 33.9475L107.48 39.4432L102.437 42.66Z" fill="#D6D8E9"/>
<rect width="6.84598" height="6.83771" transform="matrix(0.478854 -0.877895 0.87699 0.480508 67.9027 11.0891)" fill="#D6D8E9"/>
<rect width="8.01002" height="4.97769" transform="matrix(0.478854 -0.877895 0.87699 0.480508 93.7262 47.9292)" fill="#D6D8E9"/>
<path d="M85.5233 37.3157V33.7397H77.9393V30.2117L85.4033 20.6837H88.7153V31.1237H91.2113V33.7397H88.7153V37.3157H85.5233ZM80.5793 31.0517V31.1237H85.5233V24.7397H85.4753L80.5793 31.0517Z" fill="white"/>
<path d="M4.304 110.87V106.022L0.16 99.43H1.76L5.04 104.87H5.072L8.4 99.43H9.936L5.744 106.054V110.87H4.304ZM12.666 111.094C10.202 111.094 8.666 109.142 8.666 106.742C8.666 104.342 10.202 102.39 12.666 102.39C15.146 102.39 16.65 104.342 16.65 106.742C16.65 109.142 15.146 111.094 12.666 111.094ZM12.666 110.006C14.426 110.006 15.322 108.566 15.322 106.742C15.322 104.918 14.426 103.462 12.666 103.462C10.906 103.462 9.994 104.918 9.994 106.742C9.994 108.566 10.906 110.006 12.666 110.006ZM24.5025 110.87H23.2065V109.734H23.1745C22.5825 110.534 21.8785 111.062 20.6785 111.062C18.9825 111.062 17.8945 110.038 17.8945 108.326V102.598H19.1905V108.294C19.1905 109.366 19.8785 109.99 21.0465 109.99C22.3585 109.99 23.2065 108.998 23.2065 107.686V102.598H24.5025V110.87ZM33.1539 111.094C29.9379 111.094 28.4019 109.302 28.2739 106.998H29.6819C29.8739 108.934 31.0579 109.942 33.2179 109.942C34.8019 109.942 35.9379 109.222 35.9379 107.798C35.9379 106.23 34.5619 105.862 32.5139 105.414C30.4979 104.966 28.7699 104.39 28.7699 102.23C28.7699 100.342 30.3379 99.206 32.6579 99.206C35.5219 99.206 36.7059 100.662 36.9939 102.774H35.6339C35.4259 101.142 34.3699 100.326 32.6899 100.326C31.1379 100.326 30.1139 100.982 30.1139 102.166C30.1139 103.462 31.3939 103.846 33.1059 104.182C35.3299 104.63 37.3619 105.174 37.3619 107.75C37.3619 109.894 35.6179 111.094 33.1539 111.094ZM42.3535 111.094C39.8895 111.094 38.3535 109.142 38.3535 106.742C38.3535 104.342 39.8895 102.39 42.3535 102.39C44.3055 102.39 45.6015 103.51 45.8895 105.27H44.5775C44.3855 104.15 43.6015 103.462 42.3535 103.462C40.5935 103.462 39.6815 104.918 39.6815 106.742C39.6815 108.566 40.5935 110.006 42.3535 110.006C43.6975 110.006 44.4975 109.238 44.6095 107.958H45.8895C45.7135 109.942 44.4175 111.094 42.3535 111.094ZM50.6504 111.094C48.1864 111.094 46.6504 109.142 46.6504 106.742C46.6504 104.342 48.1864 102.39 50.6504 102.39C53.1304 102.39 54.6344 104.342 54.6344 106.742C54.6344 109.142 53.1304 111.094 50.6504 111.094ZM50.6504 110.006C52.4104 110.006 53.3064 108.566 53.3064 106.742C53.3064 104.918 52.4104 103.462 50.6504 103.462C48.8904 103.462 47.9784 104.918 47.9784 106.742C47.9784 108.566 48.8904 110.006 50.6504 110.006ZM57.2229 102.598V103.974H57.2549C57.7509 103.174 58.6149 102.502 59.7189 102.502C59.9589 102.502 60.0869 102.534 60.2469 102.598V103.846H60.1989C60.0069 103.782 59.8789 103.766 59.6229 103.766C58.3429 103.766 57.2229 104.726 57.2229 106.278V110.87H55.9269V102.598H57.2229ZM64.6348 111.094C62.1068 111.094 60.6348 109.142 60.6348 106.742C60.6348 104.342 62.2028 102.39 64.5548 102.39C67.0348 102.39 68.3628 104.31 68.3628 107.046H61.9628C62.0588 108.726 62.9708 110.006 64.6348 110.006C65.8348 110.006 66.6348 109.43 66.9228 108.31H68.1868C67.8028 110.086 66.5068 111.094 64.6348 111.094ZM64.5548 103.414C63.0188 103.414 62.1868 104.566 61.9948 106.07H66.9708C66.8908 104.422 66.0428 103.414 64.5548 103.414ZM72.83 111.11C70.574 111.11 69.166 109.414 69.166 106.758C69.166 104.006 70.75 102.406 72.798 102.406C73.966 102.406 74.862 102.982 75.39 103.766H75.422V99.43H76.718V110.87H75.422V109.862H75.39C74.766 110.662 73.998 111.11 72.83 111.11ZM72.878 110.022C74.718 110.022 75.502 108.646 75.502 106.774C75.502 104.854 74.574 103.51 72.862 103.51C71.294 103.51 70.494 104.918 70.494 106.774C70.494 108.646 71.294 110.022 72.878 110.022ZM81.2126 110.87V99.43H88.9726V100.694H82.6526V104.262H87.9166V105.478H82.6526V110.87H81.2126ZM93.0879 111.094C90.6239 111.094 89.0879 109.142 89.0879 106.742C89.0879 104.342 90.6239 102.39 93.0879 102.39C95.5679 102.39 97.0719 104.342 97.0719 106.742C97.0719 109.142 95.5679 111.094 93.0879 111.094ZM93.0879 110.006C94.8479 110.006 95.7439 108.566 95.7439 106.742C95.7439 104.918 94.8479 103.462 93.0879 103.462C91.3279 103.462 90.4159 104.918 90.4159 106.742C90.4159 108.566 91.3279 110.006 93.0879 110.006ZM104.924 110.87H103.628V109.734H103.596C103.004 110.534 102.3 111.062 101.1 111.062C99.4044 111.062 98.3164 110.038 98.3164 108.326V102.598H99.6124V108.294C99.6124 109.366 100.3 109.99 101.468 109.99C102.78 109.99 103.628 108.998 103.628 107.686V102.598H104.924V110.87ZM107.973 102.598V103.974H108.005C108.501 103.174 109.365 102.502 110.469 102.502C110.709 102.502 110.837 102.534 110.997 102.598V103.846H110.949C110.757 103.782 110.629 103.766 110.373 103.766C109.093 103.766 107.973 104.726 107.973 106.278V110.87H106.677V102.598H107.973ZM111.633 103.654V102.598H112.833V99.99H114.129V102.598H115.729V103.654H114.129V109.03C114.129 109.606 114.433 109.798 114.961 109.798C115.217 109.798 115.505 109.734 115.649 109.686H115.697V110.806C115.393 110.87 115.041 110.918 114.657 110.918C113.601 110.918 112.833 110.486 112.833 109.318V103.654H111.633ZM118.364 99.43V103.686H118.396C118.988 102.902 119.82 102.406 121.02 102.406C122.748 102.406 123.804 103.35 123.804 105.062V110.87H122.508V105.174C122.508 104.102 121.804 103.494 120.636 103.494C119.324 103.494 118.364 104.422 118.364 105.782V110.87H117.068V99.43H118.364ZM128.26 110.87V99.43H133.028C134.228 99.43 135.156 99.83 135.748 100.534C136.227 101.094 136.516 101.846 136.516 102.71C136.516 104.806 135.316 106.07 132.82 106.07H129.7V110.87H128.26ZM129.7 100.678V104.902H132.708C134.324 104.902 135.092 104.086 135.092 102.774C135.092 101.398 134.244 100.678 132.788 100.678H129.7ZM137.756 110.87V99.43H139.052V110.87H137.756ZM147.36 110.95C146.512 110.95 146.064 110.566 145.936 109.718H145.92C145.424 110.358 144.576 111.03 143.168 111.03C141.6 111.03 140.368 110.294 140.368 108.726C140.368 106.774 141.904 106.374 143.968 106.054C145.136 105.878 145.952 105.766 145.952 104.87C145.952 103.942 145.28 103.414 144.096 103.414C142.752 103.414 142.08 103.99 142.032 105.238H140.784C140.832 103.638 141.888 102.438 144.08 102.438C145.84 102.438 147.136 103.094 147.136 105.062V108.998C147.136 109.67 147.296 110.038 148.016 109.878H148.064V110.822C147.904 110.886 147.696 110.95 147.36 110.95ZM143.456 110.038C145.184 110.038 145.968 108.774 145.968 107.814V106.406C145.536 106.678 144.784 106.886 144.08 107.014C142.784 107.254 141.744 107.478 141.744 108.694C141.744 109.798 142.608 110.038 143.456 110.038ZM152.557 111.094C150.093 111.094 148.557 109.142 148.557 106.742C148.557 104.342 150.093 102.39 152.557 102.39C154.509 102.39 155.805 103.51 156.093 105.27H154.781C154.589 104.15 153.805 103.462 152.557 103.462C150.797 103.462 149.885 104.918 149.885 106.742C149.885 108.566 150.797 110.006 152.557 110.006C153.901 110.006 154.701 109.238 154.813 107.958H156.093C155.917 109.942 154.621 111.094 152.557 111.094ZM160.854 111.094C158.326 111.094 156.854 109.142 156.854 106.742C156.854 104.342 158.422 102.39 160.774 102.39C163.254 102.39 164.582 104.31 164.582 107.046H158.182C158.278 108.726 159.19 110.006 160.854 110.006C162.054 110.006 162.854 109.43 163.142 108.31H164.406C164.022 110.086 162.726 111.094 160.854 111.094ZM160.774 103.414C159.238 103.414 158.406 104.566 158.214 106.07H163.19C163.11 104.422 162.262 103.414 160.774 103.414ZM166.489 108.102L166.137 103.094V99.43H167.561V103.094L167.209 108.102H166.489ZM166.073 110.87V109.286H167.625V110.87H166.073Z" fill="#010101"/>
</svg>
