<svg width="97" height="92" viewBox="0 0 97 92" fill="none" xmlns="http://www.w3.org/2000/svg">
<rect x="-3" y="3" width="91" height="86" rx="10" transform="matrix(-1 0 0 1 91 0)" fill="#E11E2F" stroke="white" stroke-width="6" stroke-linejoin="round"/>
<path d="M63.1329 21C63.1329 24.2362 63.4566 37.5685 62.7329 40.5584C62.0091 43.5483 60.8699 45.9165 59.5326 48.2048C58.1954 50.4932 55.9901 52.3084 54.2429 53.5469C52.4957 54.7853 50.623 55.4227 48.7319 55.4227C46.8407 55.4227 44.968 54.7853 43.2208 53.5469C41.4736 52.3084 39.2683 50.4932 37.9311 48.2048C36.5938 45.9165 35.4546 43.1571 34.7309 40.1672C34.0071 37.1773 34.3308 24.2362 34.3308 21L49.5319 21L63.1329 21Z" fill="white" stroke="white" stroke-width="3" stroke-linejoin="round"/>
<path d="M62.9547 24.1288H69.4637C69.4637 27.9056 68.9756 36.0635 68.6501 36.9699C68.2433 38.1029 65.8024 43.3904 59.2934 46.0342" stroke="white" stroke-width="5" stroke-linejoin="round"/>
<path d="M34.509 24.1288H28C28 27.9056 28.4882 36.0635 28.8136 36.9699C29.2204 38.1029 31.6613 43.3904 38.1704 46.0342" stroke="white" stroke-width="5" stroke-linejoin="round"/>
<path d="M38.9526 67.9393C38.9526 66.072 40.0241 64.281 41.9315 62.9606C43.8388 61.6401 46.4256 60.8983 49.123 60.8983C51.8203 60.8983 54.4072 61.6401 56.3145 62.9606C58.2218 64.281 59.2933 66.072 59.2933 67.9393L49.123 67.9393H38.9526Z" fill="white" stroke="white" stroke-width="3" stroke-linejoin="round"/>
<rect width="4.69401" height="4.69401" transform="matrix(-1 0 0 1 51.47 55.4227)" fill="white"/>
</svg>
