<svg width="169" height="114" viewBox="0 0 169 114" fill="none" xmlns="http://www.w3.org/2000/svg">
<path d="M58.2481 74.5568C58.17 74.7316 58.1986 74.9356 58.3217 75.0822C58.4448 75.2288 58.6408 75.2923 58.8265 75.2456L69.3156 72.6096L76.0249 81.1783C76.1445 81.3309 76.3415 81.4007 76.5305 81.3573C76.7195 81.3139 76.8663 81.1652 76.9073 80.9757L83.1889 51.9225C83.2303 51.731 83.156 51.533 82.9989 51.4159L79.3556 48.7007C79.2693 48.6364 79.1645 48.6016 79.0568 48.6016H72.653L71.4209 46.9069C71.3159 46.7625 71.1419 46.6851 70.9644 46.7036C70.7869 46.7222 70.6327 46.834 70.5599 46.997L58.2481 74.5568Z" fill="#CDD1EB" stroke="#CDD1EB" stroke-linejoin="round"/>
<path d="M110.752 74.5568C110.83 74.7316 110.801 74.9356 110.678 75.0822C110.555 75.2288 110.359 75.2923 110.173 75.2456L99.6842 72.6096L92.9748 81.1783C92.8553 81.3309 92.6583 81.4007 92.4693 81.3573C92.2803 81.3139 92.1334 81.1652 92.0925 80.9757L85.8109 51.9225C85.7695 51.731 85.8437 51.533 86.0008 51.4159L89.6441 48.7007C89.7305 48.6364 89.8352 48.6016 89.9429 48.6016H96.3467L97.5789 46.9069C97.6839 46.7625 97.8578 46.6851 98.0353 46.7036C98.2129 46.7222 98.367 46.834 98.4398 46.997L110.752 74.5568Z" fill="#CDD1EB" stroke="#CDD1EB" stroke-linejoin="round"/>
<path d="M57.5049 27.9614L61.4341 21.7454V14.662L67.4006 11.3371L70.7477 5.26567H78.024L84.1361 1.50714L90.9758 5.26567H97.961L101.308 10.9035L108.293 14.662L107.857 21.7454L111.495 27.9614" stroke="#D6D8E9" stroke-width="3" stroke-linejoin="round"/>
<path d="M57.5049 26.759L61.4341 32.975V40.0584L67.4006 43.3832L70.7477 49.4547H78.024L84.1361 53.2133L90.9758 49.4547H97.961L101.308 43.8169L108.293 40.0584L107.857 32.975L111.495 26.759" stroke="#D6D8E9" stroke-width="3" stroke-linejoin="round"/>
<path d="M85.0999 47.796C96.0397 47.796 104.897 38.9094 104.897 27.9614C104.897 17.0135 96.0397 8.12689 85.0999 8.12689C74.16 8.12689 65.303 17.0135 65.303 27.9614C65.303 38.9094 74.16 47.796 85.0999 47.796Z" stroke="#D6D8E9" stroke-width="6"/>
<ellipse cx="85.0998" cy="27.9614" rx="15.5971" ry="15.6321" fill="#D6D8E9"/>
<path d="M67.0727 11.439L68.7812 9.04163L73.5651 13.4938C72.8817 13.608 71.3782 14.1103 70.8315 15.2062C70.148 16.5761 67.4144 20.0008 67.0727 20.6858C66.731 21.3707 65.7058 26.1654 65.7058 26.8503C65.7058 27.5353 68.0978 37.8095 68.7812 38.152C69.4646 38.4945 81.0827 46.3714 81.7661 46.7139C82.3129 46.9878 89.7394 45.9148 93.3842 45.344L97.143 49.4537H94.7511L90.6506 49.7961L89.2837 50.4811L86.5501 51.5085L83.8164 52.8784L81.0827 51.5085C80.536 51.2345 79.9437 50.4811 79.7159 50.1386C78.6908 49.9103 76.3671 49.3852 75.2737 49.1112C73.9068 48.7687 71.8566 49.1112 70.8315 49.1112C70.0114 49.1112 69.5785 47.9696 69.4646 47.3988L68.0978 45.344L66.731 42.9466L64.339 41.5767L61.2636 39.1794L61.947 33.3573L58.1882 27.5353L61.2636 22.7406V20.0008L61.947 14.5212L67.0727 11.439Z" fill="#D6D8E9"/>
<path d="M102.437 42.66L100.793 45.1016L95.8931 40.7775C96.5733 40.6453 98.063 40.1035 98.5807 38.9935C99.2278 37.606 101.87 34.1101 102.194 33.4164C102.518 32.7226 103.416 27.9025 103.398 27.2178C103.38 26.5331 100.718 16.3257 100.026 16.0014C99.334 15.6771 87.5126 8.11017 86.8204 7.78589C86.2667 7.52646 78.871 8.79556 75.2424 9.46253L71.3767 5.45366L73.7679 5.39041L77.8579 4.93962L79.2063 4.21876L81.9119 3.11941L84.6086 1.6777L87.3774 2.97483C87.9311 3.23426 88.543 3.97178 88.7798 4.30812C89.8106 4.50925 92.1472 4.97275 93.2475 5.21772C94.6229 5.52393 96.6634 5.12736 97.6882 5.10025C98.508 5.07856 98.9707 6.2083 99.0996 6.77588L100.52 8.79387L101.95 11.1542L104.377 12.4604L107.514 14.7756L106.984 20.6137L110.895 26.3343L107.947 31.2086L108.019 33.9475L107.48 39.4432L102.437 42.66Z" fill="#D6D8E9"/>
<rect width="6.84598" height="6.83771" transform="matrix(0.478854 -0.877895 0.87699 0.480508 67.9026 11.0891)" fill="#D6D8E9"/>
<rect width="8.01002" height="4.97769" transform="matrix(0.478854 -0.877895 0.87699 0.480508 93.7261 47.9292)" fill="#D6D8E9"/>
<path d="M84.3717 37.6757C80.9397 37.6757 78.9717 35.8517 78.6117 33.3797H81.7797C82.0437 34.3637 82.8117 35.1797 84.2757 35.1797C85.3077 35.1797 86.0757 34.8677 86.6517 34.1477C87.2997 33.3317 87.6597 31.9877 87.6837 30.2837H87.6357C86.7717 31.2917 85.6197 32.0837 83.8197 32.0837C80.4837 32.0837 77.9397 29.8037 77.9397 26.2997C77.9397 22.9157 80.6037 20.5397 84.1317 20.5397C88.4997 20.5397 90.9477 23.2997 90.9477 28.8677C90.9477 34.1237 89.1957 37.6757 84.3717 37.6757ZM84.2757 29.4437C86.1477 29.4437 87.5877 28.1957 87.5877 26.2997C87.5877 24.4277 86.1717 23.1077 84.2997 23.1077C82.4037 23.1077 81.0597 24.4757 81.0597 26.2517C81.0597 28.1237 82.2597 29.4437 84.2757 29.4437Z" fill="white"/>
<path d="M4.304 110.87V106.022L0.16 99.43H1.76L5.04 104.87H5.072L8.4 99.43H9.936L5.744 106.054V110.87H4.304ZM12.666 111.094C10.202 111.094 8.666 109.142 8.666 106.742C8.666 104.342 10.202 102.39 12.666 102.39C15.146 102.39 16.65 104.342 16.65 106.742C16.65 109.142 15.146 111.094 12.666 111.094ZM12.666 110.006C14.426 110.006 15.322 108.566 15.322 106.742C15.322 104.918 14.426 103.462 12.666 103.462C10.906 103.462 9.994 104.918 9.994 106.742C9.994 108.566 10.906 110.006 12.666 110.006ZM24.5025 110.87H23.2065V109.734H23.1745C22.5825 110.534 21.8785 111.062 20.6785 111.062C18.9825 111.062 17.8945 110.038 17.8945 108.326V102.598H19.1905V108.294C19.1905 109.366 19.8785 109.99 21.0465 109.99C22.3585 109.99 23.2065 108.998 23.2065 107.686V102.598H24.5025V110.87ZM33.1539 111.094C29.9379 111.094 28.4019 109.302 28.2739 106.998H29.6819C29.8739 108.934 31.0579 109.942 33.2179 109.942C34.8019 109.942 35.9379 109.222 35.9379 107.798C35.9379 106.23 34.5619 105.862 32.5139 105.414C30.4979 104.966 28.7699 104.39 28.7699 102.23C28.7699 100.342 30.3379 99.206 32.6579 99.206C35.5219 99.206 36.7059 100.662 36.9939 102.774H35.6339C35.4259 101.142 34.3699 100.326 32.6899 100.326C31.1379 100.326 30.1139 100.982 30.1139 102.166C30.1139 103.462 31.3939 103.846 33.1059 104.182C35.3299 104.63 37.3619 105.174 37.3619 107.75C37.3619 109.894 35.6179 111.094 33.1539 111.094ZM42.3535 111.094C39.8895 111.094 38.3535 109.142 38.3535 106.742C38.3535 104.342 39.8895 102.39 42.3535 102.39C44.3055 102.39 45.6015 103.51 45.8895 105.27H44.5775C44.3855 104.15 43.6015 103.462 42.3535 103.462C40.5935 103.462 39.6815 104.918 39.6815 106.742C39.6815 108.566 40.5935 110.006 42.3535 110.006C43.6975 110.006 44.4975 109.238 44.6095 107.958H45.8895C45.7135 109.942 44.4175 111.094 42.3535 111.094ZM50.6504 111.094C48.1864 111.094 46.6504 109.142 46.6504 106.742C46.6504 104.342 48.1864 102.39 50.6504 102.39C53.1304 102.39 54.6344 104.342 54.6344 106.742C54.6344 109.142 53.1304 111.094 50.6504 111.094ZM50.6504 110.006C52.4104 110.006 53.3064 108.566 53.3064 106.742C53.3064 104.918 52.4104 103.462 50.6504 103.462C48.8904 103.462 47.9784 104.918 47.9784 106.742C47.9784 108.566 48.8904 110.006 50.6504 110.006ZM57.2229 102.598V103.974H57.2549C57.7509 103.174 58.6149 102.502 59.7189 102.502C59.9589 102.502 60.0869 102.534 60.2469 102.598V103.846H60.1989C60.0069 103.782 59.8789 103.766 59.6229 103.766C58.3429 103.766 57.2229 104.726 57.2229 106.278V110.87H55.9269V102.598H57.2229ZM64.6348 111.094C62.1068 111.094 60.6348 109.142 60.6348 106.742C60.6348 104.342 62.2028 102.39 64.5548 102.39C67.0348 102.39 68.3628 104.31 68.3628 107.046H61.9628C62.0588 108.726 62.9708 110.006 64.6348 110.006C65.8348 110.006 66.6348 109.43 66.9228 108.31H68.1868C67.8028 110.086 66.5068 111.094 64.6348 111.094ZM64.5548 103.414C63.0188 103.414 62.1868 104.566 61.9948 106.07H66.9708C66.8908 104.422 66.0428 103.414 64.5548 103.414ZM72.83 111.11C70.574 111.11 69.166 109.414 69.166 106.758C69.166 104.006 70.75 102.406 72.798 102.406C73.966 102.406 74.862 102.982 75.39 103.766H75.422V99.43H76.718V110.87H75.422V109.862H75.39C74.766 110.662 73.998 111.11 72.83 111.11ZM72.878 110.022C74.718 110.022 75.502 108.646 75.502 106.774C75.502 104.854 74.574 103.51 72.862 103.51C71.294 103.51 70.494 104.918 70.494 106.774C70.494 108.646 71.294 110.022 72.878 110.022ZM81.2126 110.87V99.43H82.7326L87.9486 107.382C88.3326 107.974 88.7806 108.854 88.7806 108.854H88.8126V99.43H90.1566V110.87H88.6846L83.4366 102.902C83.0686 102.342 82.5886 101.478 82.5886 101.478H82.5566V110.87H81.2126ZM92.1144 110.87V102.598H93.4104V110.87H92.1144ZM92.1144 101.03V99.43H93.4104V101.03H92.1144ZM96.4729 102.598V103.686H96.5049C97.0969 102.902 97.9289 102.406 99.1289 102.406C100.857 102.406 101.913 103.35 101.913 105.062V110.87H100.617V105.174C100.617 104.102 99.9129 103.494 98.7449 103.494C97.4329 103.494 96.4729 104.422 96.4729 105.782V110.87H95.1769V102.598H96.4729ZM107.166 111.094C104.638 111.094 103.166 109.142 103.166 106.742C103.166 104.342 104.734 102.39 107.086 102.39C109.566 102.39 110.894 104.31 110.894 107.046H104.494C104.59 108.726 105.502 110.006 107.166 110.006C108.366 110.006 109.166 109.43 109.454 108.31H110.718C110.334 110.086 109.038 111.094 107.166 111.094ZM107.086 103.414C105.55 103.414 104.718 104.566 104.526 106.07H109.502C109.422 104.422 108.574 103.414 107.086 103.414ZM111.477 103.654V102.598H112.677V99.99H113.973V102.598H115.573V103.654H113.973V109.03C113.973 109.606 114.277 109.798 114.805 109.798C115.061 109.798 115.349 109.734 115.493 109.686H115.541V110.806C115.237 110.87 114.885 110.918 114.501 110.918C113.445 110.918 112.677 110.486 112.677 109.318V103.654H111.477ZM118.207 99.43V103.686H118.239C118.831 102.902 119.663 102.406 120.863 102.406C122.591 102.406 123.647 103.35 123.647 105.062V110.87H122.351V105.174C122.351 104.102 121.647 103.494 120.479 103.494C119.167 103.494 118.207 104.422 118.207 105.782V110.87H116.911V99.43H118.207ZM128.103 110.87V99.43H132.871C134.071 99.43 134.999 99.83 135.591 100.534C136.071 101.094 136.359 101.846 136.359 102.71C136.359 104.806 135.159 106.07 132.663 106.07H129.543V110.87H128.103ZM129.543 100.678V104.902H132.551C134.167 104.902 134.935 104.086 134.935 102.774C134.935 101.398 134.087 100.678 132.631 100.678H129.543ZM137.6 110.87V99.43H138.896V110.87H137.6ZM147.204 110.95C146.356 110.95 145.908 110.566 145.78 109.718H145.764C145.268 110.358 144.42 111.03 143.012 111.03C141.444 111.03 140.212 110.294 140.212 108.726C140.212 106.774 141.748 106.374 143.812 106.054C144.98 105.878 145.796 105.766 145.796 104.87C145.796 103.942 145.124 103.414 143.94 103.414C142.596 103.414 141.924 103.99 141.876 105.238H140.628C140.676 103.638 141.732 102.438 143.924 102.438C145.684 102.438 146.98 103.094 146.98 105.062V108.998C146.98 109.67 147.14 110.038 147.86 109.878H147.908V110.822C147.748 110.886 147.54 110.95 147.204 110.95ZM143.3 110.038C145.028 110.038 145.812 108.774 145.812 107.814V106.406C145.38 106.678 144.628 106.886 143.924 107.014C142.628 107.254 141.588 107.478 141.588 108.694C141.588 109.798 142.452 110.038 143.3 110.038ZM152.4 111.094C149.936 111.094 148.4 109.142 148.4 106.742C148.4 104.342 149.936 102.39 152.4 102.39C154.352 102.39 155.648 103.51 155.936 105.27H154.624C154.432 104.15 153.648 103.462 152.4 103.462C150.64 103.462 149.728 104.918 149.728 106.742C149.728 108.566 150.64 110.006 152.4 110.006C153.744 110.006 154.544 109.238 154.656 107.958H155.936C155.76 109.942 154.464 111.094 152.4 111.094ZM160.697 111.094C158.169 111.094 156.697 109.142 156.697 106.742C156.697 104.342 158.265 102.39 160.617 102.39C163.097 102.39 164.425 104.31 164.425 107.046H158.025C158.121 108.726 159.033 110.006 160.697 110.006C161.897 110.006 162.697 109.43 162.985 108.31H164.249C163.865 110.086 162.569 111.094 160.697 111.094ZM160.617 103.414C159.081 103.414 158.249 104.566 158.057 106.07H163.033C162.953 104.422 162.105 103.414 160.617 103.414ZM166.333 108.102L165.981 103.094V99.43H167.405V103.094L167.053 108.102H166.333ZM165.917 110.87V109.286H167.469V110.87H165.917Z" fill="#010101"/>
</svg>
