<svg width="181" height="114" viewBox="0 0 181 114" fill="none" xmlns="http://www.w3.org/2000/svg">
<path d="M64.2481 74.5568C64.17 74.7316 64.1986 74.9356 64.3217 75.0822C64.4448 75.2288 64.6408 75.2923 64.8265 75.2456L75.3156 72.6096L82.0249 81.1783C82.1445 81.3309 82.3415 81.4007 82.5305 81.3573C82.7195 81.3139 82.8663 81.1652 82.9073 80.9757L89.1889 51.9225C89.2303 51.731 89.156 51.533 88.9989 51.4159L85.3556 48.7007C85.2693 48.6364 85.1645 48.6016 85.0568 48.6016H78.653L77.4209 46.9069C77.3159 46.7625 77.1419 46.6851 76.9644 46.7036C76.7869 46.7222 76.6327 46.834 76.5599 46.997L64.2481 74.5568Z" fill="#CDD1EB" stroke="#CDD1EB" stroke-linejoin="round"/>
<path d="M116.752 74.5568C116.83 74.7316 116.801 74.9356 116.678 75.0822C116.555 75.2288 116.359 75.2923 116.173 75.2456L105.684 72.6096L98.9748 81.1783C98.8553 81.3309 98.6583 81.4007 98.4693 81.3573C98.2803 81.3139 98.1334 81.1652 98.0925 80.9757L91.8109 51.9225C91.7695 51.731 91.8437 51.533 92.0008 51.4159L95.6441 48.7007C95.7305 48.6364 95.8352 48.6016 95.9429 48.6016H102.347L103.579 46.9069C103.684 46.7625 103.858 46.6851 104.035 46.7036C104.213 46.7222 104.367 46.834 104.44 46.997L116.752 74.5568Z" fill="#CDD1EB" stroke="#CDD1EB" stroke-linejoin="round"/>
<path d="M63.5049 27.9614L67.4341 21.7454V14.662L73.4006 11.3371L76.7477 5.26567H84.024L90.1361 1.50714L96.9758 5.26567H103.961L107.308 10.9035L114.293 14.662L113.857 21.7454L117.495 27.9614" stroke="#D6D8E9" stroke-width="3" stroke-linejoin="round"/>
<path d="M63.5049 26.759L67.4341 32.975V40.0584L73.4006 43.3832L76.7477 49.4547H84.024L90.1361 53.2133L96.9758 49.4547H103.961L107.308 43.8169L114.293 40.0584L113.857 32.975L117.495 26.759" stroke="#D6D8E9" stroke-width="3" stroke-linejoin="round"/>
<path d="M91.0999 47.796C102.04 47.796 110.897 38.9094 110.897 27.9614C110.897 17.0135 102.04 8.12689 91.0999 8.12689C80.16 8.12689 71.303 17.0135 71.303 27.9614C71.303 38.9094 80.16 47.796 91.0999 47.796Z" stroke="#D6D8E9" stroke-width="6"/>
<ellipse cx="91.0998" cy="27.9614" rx="15.5971" ry="15.6321" fill="#D6D8E9"/>
<path d="M73.0727 11.439L74.7812 9.04163L79.5651 13.4938C78.8817 13.608 77.3782 14.1103 76.8315 15.2062C76.148 16.5761 73.4144 20.0008 73.0727 20.6858C72.731 21.3707 71.7058 26.1654 71.7058 26.8503C71.7058 27.5353 74.0978 37.8095 74.7812 38.152C75.4646 38.4945 87.0827 46.3714 87.7661 46.7139C88.3129 46.9878 95.7394 45.9148 99.3842 45.344L103.143 49.4537H100.751L96.6506 49.7961L95.2837 50.4811L92.5501 51.5085L89.8164 52.8784L87.0827 51.5085C86.536 51.2345 85.9437 50.4811 85.7159 50.1386C84.6908 49.9103 82.3671 49.3852 81.2737 49.1112C79.9068 48.7687 77.8566 49.1112 76.8315 49.1112C76.0114 49.1112 75.5785 47.9696 75.4646 47.3988L74.0978 45.344L72.731 42.9466L70.339 41.5767L67.2636 39.1794L67.947 33.3573L64.1882 27.5353L67.2636 22.7406V20.0008L67.947 14.5212L73.0727 11.439Z" fill="#D6D8E9"/>
<path d="M108.437 42.66L106.793 45.1016L101.893 40.7775C102.573 40.6453 104.063 40.1035 104.581 38.9935C105.228 37.606 107.87 34.1101 108.194 33.4164C108.518 32.7226 109.416 27.9025 109.398 27.2178C109.38 26.5331 106.718 16.3257 106.026 16.0014C105.334 15.6771 93.5126 8.11017 92.8204 7.78589C92.2667 7.52646 84.871 8.79556 81.2424 9.46253L77.3767 5.45366L79.7679 5.39041L83.8579 4.93962L85.2063 4.21876L87.9119 3.11941L90.6086 1.6777L93.3774 2.97483C93.9311 3.23426 94.543 3.97178 94.7798 4.30812C95.8106 4.50925 98.1472 4.97275 99.2475 5.21772C100.623 5.52393 102.663 5.12736 103.688 5.10025C104.508 5.07856 104.971 6.2083 105.1 6.77588L106.52 8.79387L107.95 11.1542L110.377 12.4604L113.514 14.7756L112.984 20.6137L116.895 26.3343L113.947 31.2086L114.019 33.9475L113.48 39.4432L108.437 42.66Z" fill="#D6D8E9"/>
<rect width="6.84598" height="6.83771" transform="matrix(0.478854 -0.877895 0.87699 0.480508 73.9026 11.0891)" fill="#D6D8E9"/>
<rect width="8.01002" height="4.97769" transform="matrix(0.478854 -0.877895 0.87699 0.480508 99.7261 47.9292)" fill="#D6D8E9"/>
<path d="M86.8246 37.3157C87.0406 31.2677 90.2566 26.2997 92.7526 23.7317V23.6837H84.5926V20.8757H96.3046V23.5637C93.3526 26.5637 90.6166 31.3397 90.3766 37.3157H86.8246Z" fill="white"/>
<path d="M4.304 110.87V106.022L0.16 99.43H1.76L5.04 104.87H5.072L8.4 99.43H9.936L5.744 106.054V110.87H4.304ZM12.666 111.094C10.202 111.094 8.666 109.142 8.666 106.742C8.666 104.342 10.202 102.39 12.666 102.39C15.146 102.39 16.65 104.342 16.65 106.742C16.65 109.142 15.146 111.094 12.666 111.094ZM12.666 110.006C14.426 110.006 15.322 108.566 15.322 106.742C15.322 104.918 14.426 103.462 12.666 103.462C10.906 103.462 9.994 104.918 9.994 106.742C9.994 108.566 10.906 110.006 12.666 110.006ZM24.5025 110.87H23.2065V109.734H23.1745C22.5825 110.534 21.8785 111.062 20.6785 111.062C18.9825 111.062 17.8945 110.038 17.8945 108.326V102.598H19.1905V108.294C19.1905 109.366 19.8785 109.99 21.0465 109.99C22.3585 109.99 23.2065 108.998 23.2065 107.686V102.598H24.5025V110.87ZM33.1539 111.094C29.9379 111.094 28.4019 109.302 28.2739 106.998H29.6819C29.8739 108.934 31.0579 109.942 33.2179 109.942C34.8019 109.942 35.9379 109.222 35.9379 107.798C35.9379 106.23 34.5619 105.862 32.5139 105.414C30.4979 104.966 28.7699 104.39 28.7699 102.23C28.7699 100.342 30.3379 99.206 32.6579 99.206C35.5219 99.206 36.7059 100.662 36.9939 102.774H35.6339C35.4259 101.142 34.3699 100.326 32.6899 100.326C31.1379 100.326 30.1139 100.982 30.1139 102.166C30.1139 103.462 31.3939 103.846 33.1059 104.182C35.3299 104.63 37.3619 105.174 37.3619 107.75C37.3619 109.894 35.6179 111.094 33.1539 111.094ZM42.3535 111.094C39.8895 111.094 38.3535 109.142 38.3535 106.742C38.3535 104.342 39.8895 102.39 42.3535 102.39C44.3055 102.39 45.6015 103.51 45.8895 105.27H44.5775C44.3855 104.15 43.6015 103.462 42.3535 103.462C40.5935 103.462 39.6815 104.918 39.6815 106.742C39.6815 108.566 40.5935 110.006 42.3535 110.006C43.6975 110.006 44.4975 109.238 44.6095 107.958H45.8895C45.7135 109.942 44.4175 111.094 42.3535 111.094ZM50.6504 111.094C48.1864 111.094 46.6504 109.142 46.6504 106.742C46.6504 104.342 48.1864 102.39 50.6504 102.39C53.1304 102.39 54.6344 104.342 54.6344 106.742C54.6344 109.142 53.1304 111.094 50.6504 111.094ZM50.6504 110.006C52.4104 110.006 53.3064 108.566 53.3064 106.742C53.3064 104.918 52.4104 103.462 50.6504 103.462C48.8904 103.462 47.9784 104.918 47.9784 106.742C47.9784 108.566 48.8904 110.006 50.6504 110.006ZM57.2229 102.598V103.974H57.2549C57.7509 103.174 58.6149 102.502 59.7189 102.502C59.9589 102.502 60.0869 102.534 60.2469 102.598V103.846H60.1989C60.0069 103.782 59.8789 103.766 59.6229 103.766C58.3429 103.766 57.2229 104.726 57.2229 106.278V110.87H55.9269V102.598H57.2229ZM64.6348 111.094C62.1068 111.094 60.6348 109.142 60.6348 106.742C60.6348 104.342 62.2028 102.39 64.5548 102.39C67.0348 102.39 68.3628 104.31 68.3628 107.046H61.9628C62.0588 108.726 62.9708 110.006 64.6348 110.006C65.8348 110.006 66.6348 109.43 66.9228 108.31H68.1868C67.8028 110.086 66.5068 111.094 64.6348 111.094ZM64.5548 103.414C63.0188 103.414 62.1868 104.566 61.9948 106.07H66.9708C66.8908 104.422 66.0428 103.414 64.5548 103.414ZM72.83 111.11C70.574 111.11 69.166 109.414 69.166 106.758C69.166 104.006 70.75 102.406 72.798 102.406C73.966 102.406 74.862 102.982 75.39 103.766H75.422V99.43H76.718V110.87H75.422V109.862H75.39C74.766 110.662 73.998 111.11 72.83 111.11ZM72.878 110.022C74.718 110.022 75.502 108.646 75.502 106.774C75.502 104.854 74.574 103.51 72.862 103.51C71.294 103.51 70.494 104.918 70.494 106.774C70.494 108.646 71.294 110.022 72.878 110.022ZM85.3726 111.094C82.1566 111.094 80.6206 109.302 80.4926 106.998H81.9006C82.0926 108.934 83.2766 109.942 85.4366 109.942C87.0206 109.942 88.1566 109.222 88.1566 107.798C88.1566 106.23 86.7806 105.862 84.7326 105.414C82.7166 104.966 80.9886 104.39 80.9886 102.23C80.9886 100.342 82.5566 99.206 84.8766 99.206C87.7406 99.206 88.9246 100.662 89.2126 102.774H87.8526C87.6446 101.142 86.5886 100.326 84.9086 100.326C83.3566 100.326 82.3326 100.982 82.3326 102.166C82.3326 103.462 83.6126 103.846 85.3246 104.182C87.5486 104.63 89.5806 105.174 89.5806 107.75C89.5806 109.894 87.8366 111.094 85.3726 111.094ZM94.5723 111.094C92.0443 111.094 90.5723 109.142 90.5723 106.742C90.5723 104.342 92.1403 102.39 94.4923 102.39C96.9723 102.39 98.3003 104.31 98.3003 107.046H91.9003C91.9963 108.726 92.9083 110.006 94.5723 110.006C95.7723 110.006 96.5723 109.43 96.8603 108.31H98.1243C97.7403 110.086 96.4443 111.094 94.5723 111.094ZM94.4923 103.414C92.9563 103.414 92.1243 104.566 91.9323 106.07H96.9083C96.8283 104.422 95.9803 103.414 94.4923 103.414ZM101.459 110.87L98.5633 102.598H99.9553L101.667 107.846C101.907 108.582 102.211 109.59 102.211 109.59H102.243C102.243 109.59 102.547 108.566 102.787 107.846L104.531 102.598H105.875L102.899 110.87H101.459ZM110.166 111.094C107.638 111.094 106.166 109.142 106.166 106.742C106.166 104.342 107.734 102.39 110.086 102.39C112.566 102.39 113.894 104.31 113.894 107.046H107.494C107.59 108.726 108.502 110.006 110.166 110.006C111.366 110.006 112.166 109.43 112.454 108.31H113.718C113.334 110.086 112.038 111.094 110.166 111.094ZM110.086 103.414C108.55 103.414 107.718 104.566 107.526 106.07H112.502C112.422 104.422 111.574 103.414 110.086 103.414ZM116.457 102.598V103.686H116.489C117.081 102.902 117.913 102.406 119.113 102.406C120.841 102.406 121.897 103.35 121.897 105.062V110.87H120.601V105.174C120.601 104.102 119.897 103.494 118.729 103.494C117.417 103.494 116.457 104.422 116.457 105.782V110.87H115.161V102.598H116.457ZM122.93 103.654V102.598H124.13V99.99H125.426V102.598H127.026V103.654H125.426V109.03C125.426 109.606 125.73 109.798 126.258 109.798C126.514 109.798 126.802 109.734 126.946 109.686H126.994V110.806C126.69 110.87 126.338 110.918 125.954 110.918C124.898 110.918 124.13 110.486 124.13 109.318V103.654H122.93ZM129.66 99.43V103.686H129.692C130.284 102.902 131.116 102.406 132.316 102.406C134.044 102.406 135.1 103.35 135.1 105.062V110.87H133.804V105.174C133.804 104.102 133.1 103.494 131.932 103.494C130.62 103.494 129.66 104.422 129.66 105.782V110.87H128.364V99.43H129.66ZM139.556 110.87V99.43H144.324C145.524 99.43 146.452 99.83 147.044 100.534C147.524 101.094 147.812 101.846 147.812 102.71C147.812 104.806 146.612 106.07 144.116 106.07H140.996V110.87H139.556ZM140.996 100.678V104.902H144.004C145.62 104.902 146.388 104.086 146.388 102.774C146.388 101.398 145.54 100.678 144.084 100.678H140.996ZM149.053 110.87V99.43H150.349V110.87H149.053ZM158.657 110.95C157.809 110.95 157.361 110.566 157.233 109.718H157.217C156.721 110.358 155.873 111.03 154.465 111.03C152.897 111.03 151.665 110.294 151.665 108.726C151.665 106.774 153.201 106.374 155.265 106.054C156.433 105.878 157.249 105.766 157.249 104.87C157.249 103.942 156.577 103.414 155.393 103.414C154.049 103.414 153.377 103.99 153.329 105.238H152.081C152.129 103.638 153.185 102.438 155.377 102.438C157.137 102.438 158.433 103.094 158.433 105.062V108.998C158.433 109.67 158.593 110.038 159.313 109.878H159.361V110.822C159.201 110.886 158.993 110.95 158.657 110.95ZM154.753 110.038C156.481 110.038 157.265 108.774 157.265 107.814V106.406C156.833 106.678 156.081 106.886 155.377 107.014C154.081 107.254 153.041 107.478 153.041 108.694C153.041 109.798 153.905 110.038 154.753 110.038ZM163.854 111.094C161.39 111.094 159.854 109.142 159.854 106.742C159.854 104.342 161.39 102.39 163.854 102.39C165.806 102.39 167.102 103.51 167.39 105.27H166.078C165.886 104.15 165.102 103.462 163.854 103.462C162.094 103.462 161.182 104.918 161.182 106.742C161.182 108.566 162.094 110.006 163.854 110.006C165.198 110.006 165.998 109.238 166.11 107.958H167.39C167.214 109.942 165.918 111.094 163.854 111.094ZM172.15 111.094C169.622 111.094 168.15 109.142 168.15 106.742C168.15 104.342 169.718 102.39 172.07 102.39C174.55 102.39 175.878 104.31 175.878 107.046H169.478C169.574 108.726 170.486 110.006 172.15 110.006C173.35 110.006 174.15 109.43 174.438 108.31H175.702C175.318 110.086 174.022 111.094 172.15 111.094ZM172.07 103.414C170.534 103.414 169.702 104.566 169.51 106.07H174.486C174.406 104.422 173.558 103.414 172.07 103.414ZM177.786 108.102L177.434 103.094V99.43H178.858V103.094L178.506 108.102H177.786ZM177.37 110.87V109.286H178.922V110.87H177.37Z" fill="#010101"/>
</svg>
