<svg width="159" height="114" viewBox="0 0 159 114" fill="none" xmlns="http://www.w3.org/2000/svg">
<path d="M53.2481 74.5568C53.17 74.7316 53.1986 74.9356 53.3217 75.0822C53.4448 75.2288 53.6408 75.2923 53.8265 75.2456L64.3156 72.6096L71.0249 81.1783C71.1445 81.3309 71.3415 81.4007 71.5305 81.3573C71.7195 81.3139 71.8663 81.1652 71.9073 80.9757L78.1889 51.9225C78.2303 51.731 78.156 51.533 77.9989 51.4159L74.3556 48.7007C74.2693 48.6364 74.1645 48.6016 74.0568 48.6016H67.653L66.4209 46.9069C66.3159 46.7625 66.1419 46.6851 65.9644 46.7036C65.7869 46.7222 65.6327 46.834 65.5599 46.997L53.2481 74.5568Z" fill="#CDD1EB" stroke="#CDD1EB" stroke-linejoin="round"/>
<path d="M105.752 74.5568C105.83 74.7316 105.801 74.9356 105.678 75.0822C105.555 75.2288 105.359 75.2923 105.173 75.2456L94.6842 72.6096L87.9748 81.1783C87.8553 81.3309 87.6583 81.4007 87.4693 81.3573C87.2803 81.3139 87.1334 81.1652 87.0925 80.9757L80.8109 51.9225C80.7695 51.731 80.8437 51.533 81.0008 51.4159L84.6441 48.7007C84.7305 48.6364 84.8352 48.6016 84.9429 48.6016H91.3467L92.5789 46.9069C92.6839 46.7625 92.8578 46.6851 93.0353 46.7036C93.2129 46.7222 93.367 46.834 93.4398 46.997L105.752 74.5568Z" fill="#CDD1EB" stroke="#CDD1EB" stroke-linejoin="round"/>
<path d="M52.5049 27.9614L56.4341 21.7454V14.662L62.4006 11.3371L65.7477 5.26567H73.024L79.1361 1.50714L85.9758 5.26567H92.961L96.3081 10.9035L103.293 14.662L102.857 21.7454L106.495 27.9614" stroke="#D6D8E9" stroke-width="3" stroke-linejoin="round"/>
<path d="M52.5049 26.759L56.4341 32.975V40.0584L62.4006 43.3832L65.7477 49.4547H73.024L79.1361 53.2133L85.9758 49.4547H92.961L96.3081 43.8169L103.293 40.0584L102.857 32.975L106.495 26.759" stroke="#D6D8E9" stroke-width="3" stroke-linejoin="round"/>
<path d="M80.0999 47.796C91.0397 47.796 99.8968 38.9094 99.8968 27.9614C99.8968 17.0135 91.0397 8.12689 80.0999 8.12689C69.16 8.12689 60.303 17.0135 60.303 27.9614C60.303 38.9094 69.16 47.796 80.0999 47.796Z" stroke="#D6D8E9" stroke-width="6"/>
<ellipse cx="80.0998" cy="27.9614" rx="15.5971" ry="15.6321" fill="#D6D8E9"/>
<path d="M62.0727 11.439L63.7812 9.04163L68.5651 13.4938C67.8817 13.608 66.3782 14.1103 65.8315 15.2062C65.148 16.5761 62.4144 20.0008 62.0727 20.6858C61.731 21.3707 60.7058 26.1654 60.7058 26.8503C60.7058 27.5353 63.0978 37.8095 63.7812 38.152C64.4646 38.4945 76.0827 46.3714 76.7661 46.7139C77.3129 46.9878 84.7394 45.9148 88.3842 45.344L92.143 49.4537H89.7511L85.6506 49.7961L84.2837 50.4811L81.5501 51.5085L78.8164 52.8784L76.0827 51.5085C75.536 51.2345 74.9437 50.4811 74.7159 50.1386C73.6908 49.9103 71.3671 49.3852 70.2737 49.1112C68.9068 48.7687 66.8566 49.1112 65.8315 49.1112C65.0114 49.1112 64.5785 47.9696 64.4646 47.3988L63.0978 45.344L61.731 42.9466L59.339 41.5767L56.2636 39.1794L56.947 33.3573L53.1882 27.5353L56.2636 22.7406V20.0008L56.947 14.5212L62.0727 11.439Z" fill="#D6D8E9"/>
<path d="M97.4374 42.66L95.7925 45.1016L90.8931 40.7775C91.5733 40.6453 93.063 40.1035 93.5807 38.9935C94.2278 37.606 96.8704 34.1101 97.194 33.4164C97.5175 32.7226 98.4161 27.9025 98.398 27.2178C98.38 26.5331 95.7184 16.3257 95.0262 16.0014C94.334 15.6771 82.5126 8.11017 81.8204 7.78589C81.2667 7.52646 73.871 8.79556 70.2424 9.46253L66.3767 5.45366L68.7679 5.39041L72.8579 4.93962L74.2063 4.21876L76.9119 3.11941L79.6086 1.6777L82.3774 2.97483C82.9311 3.23426 83.543 3.97178 83.7798 4.30812C84.8106 4.50925 87.1472 4.97275 88.2475 5.21772C89.6229 5.52393 91.6634 5.12736 92.6882 5.10025C93.508 5.07856 93.9707 6.2083 94.0996 6.77588L95.5201 8.79387L96.9495 11.1542L99.3767 12.4604L102.514 14.7756L101.984 20.6137L105.895 26.3343L102.947 31.2086L103.019 33.9475L102.48 39.4432L97.4374 42.66Z" fill="#D6D8E9"/>
<rect width="6.84598" height="6.83771" transform="matrix(0.478854 -0.877895 0.87699 0.480508 62.9026 11.0891)" fill="#D6D8E9"/>
<rect width="8.01002" height="4.97769" transform="matrix(0.478854 -0.877895 0.87699 0.480508 88.7261 47.9292)" fill="#D6D8E9"/>
<path d="M79.9349 37.6757C75.2309 37.6757 73.1669 33.8117 73.1189 29.3477C73.0949 26.4437 73.6709 24.0917 75.1349 22.4357C76.1909 21.2357 77.6309 20.5397 79.8629 20.5397C83.1509 20.5397 85.1189 22.3397 85.5269 24.7877H82.3829C82.1429 23.7797 81.4229 23.0357 79.9829 23.0357C77.5829 23.0357 76.4309 24.8357 76.4309 27.7397H76.4789C77.3429 26.7317 78.4229 26.0357 80.3429 26.0357C83.3909 26.0357 86.0549 28.4117 86.0549 31.9157C86.0549 35.2997 83.3669 37.6757 79.9349 37.6757ZM79.8149 35.1077C81.5909 35.1077 82.9349 33.7397 82.9349 31.9637C82.9349 30.0917 81.6149 28.6757 79.8389 28.6757C77.8229 28.6757 76.6469 30.0437 76.6469 31.9397C76.6469 33.7877 77.9669 35.1077 79.8149 35.1077Z" fill="white"/>
<path d="M4.304 110.87V106.022L0.16 99.43H1.76L5.04 104.87H5.072L8.4 99.43H9.936L5.744 106.054V110.87H4.304ZM12.666 111.094C10.202 111.094 8.666 109.142 8.666 106.742C8.666 104.342 10.202 102.39 12.666 102.39C15.146 102.39 16.65 104.342 16.65 106.742C16.65 109.142 15.146 111.094 12.666 111.094ZM12.666 110.006C14.426 110.006 15.322 108.566 15.322 106.742C15.322 104.918 14.426 103.462 12.666 103.462C10.906 103.462 9.994 104.918 9.994 106.742C9.994 108.566 10.906 110.006 12.666 110.006ZM24.5025 110.87H23.2065V109.734H23.1745C22.5825 110.534 21.8785 111.062 20.6785 111.062C18.9825 111.062 17.8945 110.038 17.8945 108.326V102.598H19.1905V108.294C19.1905 109.366 19.8785 109.99 21.0465 109.99C22.3585 109.99 23.2065 108.998 23.2065 107.686V102.598H24.5025V110.87ZM33.1539 111.094C29.9379 111.094 28.4019 109.302 28.2739 106.998H29.6819C29.8739 108.934 31.0579 109.942 33.2179 109.942C34.8019 109.942 35.9379 109.222 35.9379 107.798C35.9379 106.23 34.5619 105.862 32.5139 105.414C30.4979 104.966 28.7699 104.39 28.7699 102.23C28.7699 100.342 30.3379 99.206 32.6579 99.206C35.5219 99.206 36.7059 100.662 36.9939 102.774H35.6339C35.4259 101.142 34.3699 100.326 32.6899 100.326C31.1379 100.326 30.1139 100.982 30.1139 102.166C30.1139 103.462 31.3939 103.846 33.1059 104.182C35.3299 104.63 37.3619 105.174 37.3619 107.75C37.3619 109.894 35.6179 111.094 33.1539 111.094ZM42.3535 111.094C39.8895 111.094 38.3535 109.142 38.3535 106.742C38.3535 104.342 39.8895 102.39 42.3535 102.39C44.3055 102.39 45.6015 103.51 45.8895 105.27H44.5775C44.3855 104.15 43.6015 103.462 42.3535 103.462C40.5935 103.462 39.6815 104.918 39.6815 106.742C39.6815 108.566 40.5935 110.006 42.3535 110.006C43.6975 110.006 44.4975 109.238 44.6095 107.958H45.8895C45.7135 109.942 44.4175 111.094 42.3535 111.094ZM50.6504 111.094C48.1864 111.094 46.6504 109.142 46.6504 106.742C46.6504 104.342 48.1864 102.39 50.6504 102.39C53.1304 102.39 54.6344 104.342 54.6344 106.742C54.6344 109.142 53.1304 111.094 50.6504 111.094ZM50.6504 110.006C52.4104 110.006 53.3064 108.566 53.3064 106.742C53.3064 104.918 52.4104 103.462 50.6504 103.462C48.8904 103.462 47.9784 104.918 47.9784 106.742C47.9784 108.566 48.8904 110.006 50.6504 110.006ZM57.2229 102.598V103.974H57.2549C57.7509 103.174 58.6149 102.502 59.7189 102.502C59.9589 102.502 60.0869 102.534 60.2469 102.598V103.846H60.1989C60.0069 103.782 59.8789 103.766 59.6229 103.766C58.3429 103.766 57.2229 104.726 57.2229 106.278V110.87H55.9269V102.598H57.2229ZM64.6348 111.094C62.1068 111.094 60.6348 109.142 60.6348 106.742C60.6348 104.342 62.2028 102.39 64.5548 102.39C67.0348 102.39 68.3628 104.31 68.3628 107.046H61.9628C62.0588 108.726 62.9708 110.006 64.6348 110.006C65.8348 110.006 66.6348 109.43 66.9228 108.31H68.1868C67.8028 110.086 66.5068 111.094 64.6348 111.094ZM64.5548 103.414C63.0188 103.414 62.1868 104.566 61.9948 106.07H66.9708C66.8908 104.422 66.0428 103.414 64.5548 103.414ZM72.83 111.11C70.574 111.11 69.166 109.414 69.166 106.758C69.166 104.006 70.75 102.406 72.798 102.406C73.966 102.406 74.862 102.982 75.39 103.766H75.422V99.43H76.718V110.87H75.422V109.862H75.39C74.766 110.662 73.998 111.11 72.83 111.11ZM72.878 110.022C74.718 110.022 75.502 108.646 75.502 106.774C75.502 104.854 74.574 103.51 72.862 103.51C71.294 103.51 70.494 104.918 70.494 106.774C70.494 108.646 71.294 110.022 72.878 110.022ZM85.3726 111.094C82.1566 111.094 80.6206 109.302 80.4926 106.998H81.9006C82.0926 108.934 83.2766 109.942 85.4366 109.942C87.0206 109.942 88.1566 109.222 88.1566 107.798C88.1566 106.23 86.7806 105.862 84.7326 105.414C82.7166 104.966 80.9886 104.39 80.9886 102.23C80.9886 100.342 82.5566 99.206 84.8766 99.206C87.7406 99.206 88.9246 100.662 89.2126 102.774H87.8526C87.6446 101.142 86.5886 100.326 84.9086 100.326C83.3566 100.326 82.3326 100.982 82.3326 102.166C82.3326 103.462 83.6126 103.846 85.3246 104.182C87.5486 104.63 89.5806 105.174 89.5806 107.75C89.5806 109.894 87.8366 111.094 85.3726 111.094ZM91.0363 110.87V102.598H92.3323V110.87H91.0363ZM91.0363 101.03V99.43H92.3323V101.03H91.0363ZM93.3148 110.87L96.4348 106.534L93.6828 102.598H95.1868L97.1548 105.606H97.1868L99.2348 102.598H100.659L97.9388 106.39L101.171 110.87H99.6508L97.2028 107.318H97.1708L94.7708 110.87H93.3148ZM101.305 103.654V102.598H102.505V99.99H103.801V102.598H105.401V103.654H103.801V109.03C103.801 109.606 104.105 109.798 104.633 109.798C104.889 109.798 105.177 109.734 105.321 109.686H105.369V110.806C105.065 110.87 104.713 110.918 104.329 110.918C103.273 110.918 102.505 110.486 102.505 109.318V103.654H101.305ZM108.035 99.43V103.686H108.067C108.659 102.902 109.491 102.406 110.691 102.406C112.419 102.406 113.475 103.35 113.475 105.062V110.87H112.179V105.174C112.179 104.102 111.475 103.494 110.307 103.494C108.995 103.494 108.035 104.422 108.035 105.782V110.87H106.739V99.43H108.035ZM117.931 110.87V99.43H122.699C123.899 99.43 124.827 99.83 125.419 100.534C125.899 101.094 126.187 101.846 126.187 102.71C126.187 104.806 124.987 106.07 122.491 106.07H119.371V110.87H117.931ZM119.371 100.678V104.902H122.379C123.995 104.902 124.763 104.086 124.763 102.774C124.763 101.398 123.915 100.678 122.459 100.678H119.371ZM127.428 110.87V99.43H128.724V110.87H127.428ZM137.032 110.95C136.184 110.95 135.736 110.566 135.608 109.718H135.592C135.096 110.358 134.248 111.03 132.84 111.03C131.272 111.03 130.04 110.294 130.04 108.726C130.04 106.774 131.576 106.374 133.64 106.054C134.808 105.878 135.624 105.766 135.624 104.87C135.624 103.942 134.952 103.414 133.768 103.414C132.424 103.414 131.752 103.99 131.704 105.238H130.456C130.504 103.638 131.56 102.438 133.752 102.438C135.512 102.438 136.808 103.094 136.808 105.062V108.998C136.808 109.67 136.968 110.038 137.688 109.878H137.736V110.822C137.576 110.886 137.368 110.95 137.032 110.95ZM133.128 110.038C134.856 110.038 135.64 108.774 135.64 107.814V106.406C135.208 106.678 134.456 106.886 133.752 107.014C132.456 107.254 131.416 107.478 131.416 108.694C131.416 109.798 132.28 110.038 133.128 110.038ZM142.229 111.094C139.765 111.094 138.229 109.142 138.229 106.742C138.229 104.342 139.765 102.39 142.229 102.39C144.181 102.39 145.477 103.51 145.765 105.27H144.453C144.261 104.15 143.477 103.462 142.229 103.462C140.469 103.462 139.557 104.918 139.557 106.742C139.557 108.566 140.469 110.006 142.229 110.006C143.573 110.006 144.373 109.238 144.485 107.958H145.765C145.589 109.942 144.293 111.094 142.229 111.094ZM150.525 111.094C147.997 111.094 146.525 109.142 146.525 106.742C146.525 104.342 148.093 102.39 150.445 102.39C152.925 102.39 154.253 104.31 154.253 107.046H147.853C147.949 108.726 148.861 110.006 150.525 110.006C151.725 110.006 152.525 109.43 152.813 108.31H154.077C153.693 110.086 152.397 111.094 150.525 111.094ZM150.445 103.414C148.909 103.414 148.077 104.566 147.885 106.07H152.861C152.781 104.422 151.933 103.414 150.445 103.414ZM156.161 108.102L155.809 103.094V99.43H157.233V103.094L156.881 108.102H156.161ZM155.745 110.87V109.286H157.297V110.87H155.745Z" fill="#010101"/>
</svg>
