<svg width="58" height="82" viewBox="0 0 58 82" fill="none" xmlns="http://www.w3.org/2000/svg">
<path d="M2.74319 74.5568C2.6651 74.7316 2.69368 74.9356 2.81678 75.0822C2.93989 75.2288 3.1359 75.2923 3.32157 75.2456L13.8107 72.6096L20.52 81.1783C20.6396 81.3309 20.8366 81.4007 21.0256 81.3573C21.2146 81.3139 21.3614 81.1652 21.4024 80.9757L27.684 51.9225C27.7254 51.731 27.6511 51.533 27.494 51.4159L23.8507 48.7007C23.7644 48.6364 23.6596 48.6016 23.552 48.6016H17.1482L15.916 46.9069C15.811 46.7625 15.637 46.6851 15.4595 46.7036C15.282 46.7222 15.1278 46.834 15.055 46.997L2.74319 74.5568Z" fill="#CDD1EB" stroke="#CDD1EB" stroke-linejoin="round"/>
<path d="M55.2468 74.5568C55.3249 74.7316 55.2963 74.9356 55.1732 75.0822C55.0501 75.2288 54.8541 75.2923 54.6684 75.2456L44.1793 72.6096L37.47 81.1783C37.3504 81.3309 37.1534 81.4007 36.9644 81.3573C36.7754 81.3139 36.6286 81.1652 36.5876 80.9757L30.306 51.9225C30.2646 51.731 30.3389 51.533 30.4959 51.4159L34.1392 48.7007C34.2256 48.6364 34.3304 48.6016 34.438 48.6016H40.8418L42.074 46.9069C42.179 46.7625 42.3529 46.6851 42.5305 46.7036C42.708 46.7222 42.8621 46.834 42.9349 46.997L55.2468 74.5568Z" fill="#CDD1EB" stroke="#CDD1EB" stroke-linejoin="round"/>
<path d="M2 27.9614L5.92919 21.7454V14.662L11.8957 11.3371L15.2428 5.26567H22.5191L28.6312 1.50714L35.4709 5.26567H42.4561L45.8032 10.9035L52.7884 14.662L52.3519 21.7454L55.99 27.9614" stroke="#D6D8E9" stroke-width="3" stroke-linejoin="round"/>
<path d="M2 26.759L5.92919 32.975V40.0584L11.8957 43.3832L15.2428 49.4547H22.5191L28.6312 53.2133L35.4709 49.4547H42.4561L45.8032 43.8169L52.7884 40.0584L52.3519 32.975L55.99 26.759" stroke="#D6D8E9" stroke-width="3" stroke-linejoin="round"/>
<path d="M29.595 47.796C40.5348 47.796 49.3919 38.9094 49.3919 27.9614C49.3919 17.0135 40.5348 8.12689 29.595 8.12689C18.6551 8.12689 9.7981 17.0135 9.7981 27.9614C9.7981 38.9094 18.6551 47.796 29.595 47.796Z" stroke="#D6D8E9" stroke-width="6"/>
<ellipse cx="29.5949" cy="27.9614" rx="15.5971" ry="15.6321" fill="#D6D8E9"/>
<path d="M11.5678 11.439L13.2763 9.04163L18.0602 13.4938C17.3768 13.608 15.8733 14.1103 15.3266 15.2062C14.6432 16.5761 11.9095 20.0008 11.5678 20.6858C11.2261 21.3707 10.2009 26.1654 10.2009 26.8503C10.2009 27.5353 12.5929 37.8095 13.2763 38.152C13.9597 38.4945 25.5778 46.3714 26.2613 46.7139C26.808 46.9878 34.2345 45.9148 37.8794 45.344L41.6382 49.4537H39.2462L35.1457 49.7961L33.7789 50.4811L31.0452 51.5085L28.3115 52.8784L25.5778 51.5085C25.0311 51.2345 24.4388 50.4811 24.211 50.1386C23.1859 49.9103 20.8623 49.3852 19.7688 49.1112C18.402 48.7687 16.3517 49.1112 15.3266 49.1112C14.5065 49.1112 14.0736 47.9696 13.9597 47.3988L12.5929 45.344L11.2261 42.9466L8.83411 41.5767L5.75873 39.1794L6.44215 33.3573L2.68335 27.5353L5.75873 22.7406V20.0008L6.44215 14.5212L11.5678 11.439Z" fill="#D6D8E9"/>
<path d="M46.9325 42.66L45.2877 45.1016L40.3882 40.7775C41.0684 40.6453 42.5582 40.1035 43.0758 38.9935C43.723 37.606 46.3655 34.1101 46.6891 33.4164C47.0126 32.7226 47.9112 27.9025 47.8932 27.2178C47.8751 26.5331 45.2135 16.3257 44.5213 16.0014C43.8291 15.6771 32.0077 8.11017 31.3155 7.78589C30.7618 7.52646 23.3661 8.79556 19.7375 9.46253L15.8719 5.45366L18.263 5.39041L22.353 4.93962L23.7014 4.21876L26.407 3.11941L29.1037 1.6777L31.8725 2.97483C32.4262 3.23426 33.0382 3.97178 33.2749 4.30812C34.3057 4.50925 36.6423 4.97275 37.7426 5.21772C39.118 5.52393 41.1585 5.12736 42.1833 5.10025C43.0031 5.07856 43.4658 6.2083 43.5947 6.77588L45.0152 8.79387L46.4447 11.1542L48.8718 12.4604L52.0093 14.7756L51.4794 20.6137L55.3901 26.3343L52.442 31.2086L52.5141 33.9475L51.9752 39.4432L46.9325 42.66Z" fill="#D6D8E9"/>
<rect width="6.84598" height="6.83771" transform="matrix(0.478854 -0.877895 0.87699 0.480508 12.3977 11.0891)" fill="#D6D8E9"/>
<rect width="8.01002" height="4.97769" transform="matrix(0.478854 -0.877895 0.87699 0.480508 38.2212 47.9292)" fill="#D6D8E9"/>
<path d="M20.3868 37V25.528H16.6668V23.368C18.6828 23.296 20.4828 22.552 20.8188 20.44H23.6748V37H20.3868ZM35.4012 37.384C31.2012 37.384 28.5372 34.024 28.5372 28.792C28.5372 23.536 31.2492 20.2 35.4252 20.2C39.6732 20.2 42.2652 23.512 42.2652 28.792C42.2652 34.024 39.6732 37.384 35.4012 37.384ZM35.4252 34.6C37.8732 34.6 38.8572 32.32 38.8572 28.792C38.8572 25.312 37.8492 22.984 35.4252 22.984C32.9772 22.984 31.9452 25.288 31.9452 28.792C31.9452 32.272 32.9772 34.6 35.4252 34.6Z" fill="white"/>
</svg>
