<svg width="160" height="114" viewBox="0 0 160 114" fill="none" xmlns="http://www.w3.org/2000/svg">
<path d="M53.7483 74.5568C53.6702 74.7316 53.6987 74.9356 53.8218 75.0822C53.945 75.2288 54.141 75.2923 54.3266 75.2456L64.8157 72.6096L71.5251 81.1783C71.6446 81.3309 71.8417 81.4007 72.0307 81.3573C72.2196 81.3139 72.3665 81.1652 72.4075 80.9757L78.689 51.9225C78.7304 51.731 78.6562 51.533 78.4991 51.4159L74.8558 48.7007C74.7695 48.6364 74.6647 48.6016 74.557 48.6016H68.1532L66.921 46.9069C66.8161 46.7625 66.6421 46.6851 66.4646 46.7036C66.2871 46.7222 66.1329 46.834 66.0601 46.997L53.7483 74.5568Z" fill="#2774A6" stroke="#2774A6" stroke-linejoin="round"/>
<path d="M106.252 74.5568C106.33 74.7316 106.301 74.9356 106.178 75.0822C106.055 75.2288 105.859 75.2923 105.673 75.2456L95.1842 72.6096L88.4748 81.1783C88.3553 81.3309 88.1583 81.4007 87.9693 81.3573C87.7803 81.3139 87.6334 81.1652 87.5925 80.9757L81.3109 51.9225C81.2695 51.731 81.3437 51.533 81.5008 51.4159L85.1441 48.7007C85.2305 48.6364 85.3352 48.6016 85.4429 48.6016H91.8467L93.0789 46.9069C93.1839 46.7625 93.3578 46.6851 93.5353 46.7036C93.7129 46.7222 93.867 46.834 93.9398 46.997L106.252 74.5568Z" fill="#2774A6" stroke="#2774A6" stroke-linejoin="round"/>
<path d="M53.005 27.9614L56.9342 21.7454V14.662L62.9007 11.3371L66.2478 5.26567H73.5241L79.6362 1.50714L86.4759 5.26567H93.4611L96.8082 10.9035L103.793 14.662L103.357 21.7454L106.995 27.9614" stroke="#127BC0" stroke-width="3" stroke-linejoin="round"/>
<path d="M53.005 26.759L56.9342 32.975V40.0584L62.9007 43.3832L66.2478 49.4547H73.5241L79.6362 53.2133L86.4759 49.4547H93.4611L96.8082 43.8169L103.793 40.0584L103.357 32.975L106.995 26.759" stroke="#127BC0" stroke-width="3" stroke-linejoin="round"/>
<path d="M80.5999 47.796C91.5397 47.796 100.397 38.9094 100.397 27.9614C100.397 17.0135 91.5397 8.12689 80.5999 8.12689C69.66 8.12689 60.803 17.0135 60.803 27.9614C60.803 38.9094 69.66 47.796 80.5999 47.796Z" stroke="#127BC0" stroke-width="6"/>
<ellipse cx="80.5999" cy="27.9614" rx="15.5971" ry="15.6321" fill="#127BC0"/>
<path d="M62.5728 11.439L64.2814 9.04163L69.0653 13.4938C68.3819 13.608 66.8784 14.1103 66.3316 15.2062C65.6482 16.5761 62.9146 20.0008 62.5728 20.6858C62.2311 21.3707 61.206 26.1654 61.206 26.8503C61.206 27.5353 63.598 37.8095 64.2814 38.152C64.9648 38.4945 76.5829 46.3714 77.2663 46.7139C77.8131 46.9878 85.2395 45.9148 88.8844 45.344L92.6432 49.4537H90.2513L86.1508 49.7961L84.7839 50.4811L82.0503 51.5085L79.3166 52.8784L76.5829 51.5085C76.0362 51.2345 75.4439 50.4811 75.2161 50.1386C74.1909 49.9103 71.8673 49.3852 70.7739 49.1112C69.407 48.7687 67.3568 49.1112 66.3316 49.1112C65.5115 49.1112 65.0787 47.9696 64.9648 47.3988L63.598 45.344L62.2311 42.9466L59.8392 41.5767L56.7638 39.1794L57.4472 33.3573L53.6884 27.5353L56.7638 22.7406V20.0008L57.4472 14.5212L62.5728 11.439Z" fill="#127BC0"/>
<path d="M97.9374 42.66L96.2925 45.1016L91.3931 40.7775C92.0733 40.6453 93.563 40.1035 94.0807 38.9935C94.7278 37.606 97.3704 34.1101 97.694 33.4164C98.0175 32.7226 98.9161 27.9025 98.898 27.2178C98.88 26.5331 96.2184 16.3257 95.5262 16.0014C94.834 15.6771 83.0126 8.11017 82.3204 7.78589C81.7667 7.52646 74.371 8.79556 70.7424 9.46253L66.8767 5.45366L69.2679 5.39041L73.3579 4.93962L74.7063 4.21876L77.4119 3.11941L80.1086 1.6777L82.8774 2.97483C83.4311 3.23426 84.043 3.97178 84.2798 4.30812C85.3106 4.50925 87.6472 4.97275 88.7475 5.21772C90.1229 5.52393 92.1634 5.12736 93.1882 5.10025C94.008 5.07856 94.4707 6.2083 94.5996 6.77588L96.0201 8.79387L97.4495 11.1542L99.8767 12.4604L103.014 14.7756L102.484 20.6137L106.395 26.3343L103.447 31.2086L103.519 33.9475L102.98 39.4432L97.9374 42.66Z" fill="#127BC0"/>
<rect width="6.84598" height="6.83771" transform="matrix(0.478854 -0.877895 0.87699 0.480508 63.4028 11.0891)" fill="#127BC0"/>
<rect width="8.01002" height="4.97769" transform="matrix(0.478854 -0.877895 0.87699 0.480508 89.2262 47.9292)" fill="#127BC0"/>
<path d="M80.7148 37.8913C76.4668 37.8913 74.2828 35.5392 74.2348 31.9392H77.3548C77.4748 33.9072 78.3388 35.2752 80.5948 35.2752C82.4188 35.2752 83.4988 34.2912 83.4988 32.6112C83.4988 31.0272 82.4908 30.0672 80.4748 30.0672H79.4668V27.5952H80.4028C81.9628 27.5952 83.0668 26.8032 83.0668 25.4113C83.0668 24.1152 82.1788 23.2512 80.7388 23.2512C78.8668 23.2512 77.9548 24.4752 77.8828 26.1792H74.7628C74.8828 22.9392 76.9228 20.7552 80.7388 20.7552C84.1708 20.7552 86.3788 22.4592 86.3788 25.1953C86.3788 27.0432 85.2028 28.1232 83.5708 28.6512V28.6992C85.6588 29.2032 86.9068 30.5472 86.9068 32.8272C86.9068 36.2352 84.0988 37.8913 80.7148 37.8913Z" fill="white"/>
<path d="M4.304 110.87V106.022L0.16 99.43H1.76L5.04 104.87H5.072L8.4 99.43H9.936L5.744 106.054V110.87H4.304ZM12.666 111.094C10.202 111.094 8.666 109.142 8.666 106.742C8.666 104.342 10.202 102.39 12.666 102.39C15.146 102.39 16.65 104.342 16.65 106.742C16.65 109.142 15.146 111.094 12.666 111.094ZM12.666 110.006C14.426 110.006 15.322 108.566 15.322 106.742C15.322 104.918 14.426 103.462 12.666 103.462C10.906 103.462 9.994 104.918 9.994 106.742C9.994 108.566 10.906 110.006 12.666 110.006ZM24.5025 110.87H23.2065V109.734H23.1745C22.5825 110.534 21.8785 111.062 20.6785 111.062C18.9825 111.062 17.8945 110.038 17.8945 108.326V102.598H19.1905V108.294C19.1905 109.366 19.8785 109.99 21.0465 109.99C22.3585 109.99 23.2065 108.998 23.2065 107.686V102.598H24.5025V110.87ZM33.1539 111.094C29.9379 111.094 28.4019 109.302 28.2739 106.998H29.6819C29.8739 108.934 31.0579 109.942 33.2179 109.942C34.8019 109.942 35.9379 109.222 35.9379 107.798C35.9379 106.23 34.5619 105.862 32.5139 105.414C30.4979 104.966 28.7699 104.39 28.7699 102.23C28.7699 100.342 30.3379 99.206 32.6579 99.206C35.5219 99.206 36.7059 100.662 36.9939 102.774H35.6339C35.4259 101.142 34.3699 100.326 32.6899 100.326C31.1379 100.326 30.1139 100.982 30.1139 102.166C30.1139 103.462 31.3939 103.846 33.1059 104.182C35.3299 104.63 37.3619 105.174 37.3619 107.75C37.3619 109.894 35.6179 111.094 33.1539 111.094ZM42.3535 111.094C39.8895 111.094 38.3535 109.142 38.3535 106.742C38.3535 104.342 39.8895 102.39 42.3535 102.39C44.3055 102.39 45.6015 103.51 45.8895 105.27H44.5775C44.3855 104.15 43.6015 103.462 42.3535 103.462C40.5935 103.462 39.6815 104.918 39.6815 106.742C39.6815 108.566 40.5935 110.006 42.3535 110.006C43.6975 110.006 44.4975 109.238 44.6095 107.958H45.8895C45.7135 109.942 44.4175 111.094 42.3535 111.094ZM50.6504 111.094C48.1864 111.094 46.6504 109.142 46.6504 106.742C46.6504 104.342 48.1864 102.39 50.6504 102.39C53.1304 102.39 54.6344 104.342 54.6344 106.742C54.6344 109.142 53.1304 111.094 50.6504 111.094ZM50.6504 110.006C52.4104 110.006 53.3064 108.566 53.3064 106.742C53.3064 104.918 52.4104 103.462 50.6504 103.462C48.8904 103.462 47.9784 104.918 47.9784 106.742C47.9784 108.566 48.8904 110.006 50.6504 110.006ZM57.2229 102.598V103.974H57.2549C57.7509 103.174 58.6149 102.502 59.7189 102.502C59.9589 102.502 60.0869 102.534 60.2469 102.598V103.846H60.1989C60.0069 103.782 59.8789 103.766 59.6229 103.766C58.3429 103.766 57.2229 104.726 57.2229 106.278V110.87H55.9269V102.598H57.2229ZM64.6348 111.094C62.1068 111.094 60.6348 109.142 60.6348 106.742C60.6348 104.342 62.2028 102.39 64.5548 102.39C67.0348 102.39 68.3628 104.31 68.3628 107.046H61.9628C62.0588 108.726 62.9708 110.006 64.6348 110.006C65.8348 110.006 66.6348 109.43 66.9228 108.31H68.1868C67.8028 110.086 66.5068 111.094 64.6348 111.094ZM64.5548 103.414C63.0188 103.414 62.1868 104.566 61.9948 106.07H66.9708C66.8908 104.422 66.0428 103.414 64.5548 103.414ZM72.83 111.11C70.574 111.11 69.166 109.414 69.166 106.758C69.166 104.006 70.75 102.406 72.798 102.406C73.966 102.406 74.862 102.982 75.39 103.766H75.422V99.43H76.718V110.87H75.422V109.862H75.39C74.766 110.662 73.998 111.11 72.83 111.11ZM72.878 110.022C74.718 110.022 75.502 108.646 75.502 106.774C75.502 104.854 74.574 103.51 72.862 103.51C71.294 103.51 70.494 104.918 70.494 106.774C70.494 108.646 71.294 110.022 72.878 110.022ZM80.4926 100.694V99.43H89.5486V100.694H85.7406V110.87H84.3006V100.694H80.4926ZM92.0823 99.43V103.686H92.1143C92.7063 102.902 93.5383 102.406 94.7383 102.406C96.4663 102.406 97.5223 103.35 97.5223 105.062V110.87H96.2263V105.174C96.2263 104.102 95.5223 103.494 94.3543 103.494C93.0423 103.494 92.0823 104.422 92.0823 105.782V110.87H90.7863V99.43H92.0823ZM99.2394 110.87V102.598H100.535V110.87H99.2394ZM99.2394 101.03V99.43H100.535V101.03H99.2394ZM103.598 102.598V103.974H103.63C104.126 103.174 104.99 102.502 106.094 102.502C106.334 102.502 106.462 102.534 106.622 102.598V103.846H106.574C106.382 103.782 106.254 103.766 105.998 103.766C104.718 103.766 103.598 104.726 103.598 106.278V110.87H102.302V102.598H103.598ZM110.674 111.11C108.418 111.11 107.01 109.414 107.01 106.758C107.01 104.006 108.594 102.406 110.642 102.406C111.81 102.406 112.706 102.982 113.234 103.766H113.266V99.43H114.562V110.87H113.266V109.862H113.234C112.61 110.662 111.842 111.11 110.674 111.11ZM110.722 110.022C112.562 110.022 113.346 108.646 113.346 106.774C113.346 104.854 112.418 103.51 110.706 103.51C109.138 103.51 108.338 104.918 108.338 106.774C108.338 108.646 109.138 110.022 110.722 110.022ZM119.056 110.87V99.43H123.824C125.024 99.43 125.952 99.83 126.544 100.534C127.024 101.094 127.312 101.846 127.312 102.71C127.312 104.806 126.112 106.07 123.616 106.07H120.496V110.87H119.056ZM120.496 100.678V104.902H123.504C125.12 104.902 125.888 104.086 125.888 102.774C125.888 101.398 125.04 100.678 123.584 100.678H120.496ZM128.553 110.87V99.43H129.849V110.87H128.553ZM138.157 110.95C137.309 110.95 136.861 110.566 136.733 109.718H136.717C136.221 110.358 135.373 111.03 133.965 111.03C132.397 111.03 131.165 110.294 131.165 108.726C131.165 106.774 132.701 106.374 134.765 106.054C135.933 105.878 136.749 105.766 136.749 104.87C136.749 103.942 136.077 103.414 134.893 103.414C133.549 103.414 132.877 103.99 132.829 105.238H131.581C131.629 103.638 132.685 102.438 134.877 102.438C136.637 102.438 137.933 103.094 137.933 105.062V108.998C137.933 109.67 138.093 110.038 138.813 109.878H138.861V110.822C138.701 110.886 138.493 110.95 138.157 110.95ZM134.253 110.038C135.981 110.038 136.765 108.774 136.765 107.814V106.406C136.333 106.678 135.581 106.886 134.877 107.014C133.581 107.254 132.541 107.478 132.541 108.694C132.541 109.798 133.405 110.038 134.253 110.038ZM143.354 111.094C140.89 111.094 139.354 109.142 139.354 106.742C139.354 104.342 140.89 102.39 143.354 102.39C145.306 102.39 146.602 103.51 146.89 105.27H145.578C145.386 104.15 144.602 103.462 143.354 103.462C141.594 103.462 140.682 104.918 140.682 106.742C140.682 108.566 141.594 110.006 143.354 110.006C144.698 110.006 145.498 109.238 145.61 107.958H146.89C146.714 109.942 145.418 111.094 143.354 111.094ZM151.65 111.094C149.122 111.094 147.65 109.142 147.65 106.742C147.65 104.342 149.218 102.39 151.57 102.39C154.05 102.39 155.378 104.31 155.378 107.046H148.978C149.074 108.726 149.986 110.006 151.65 110.006C152.85 110.006 153.65 109.43 153.938 108.31H155.202C154.818 110.086 153.522 111.094 151.65 111.094ZM151.57 103.414C150.034 103.414 149.202 104.566 149.01 106.07H153.986C153.906 104.422 153.058 103.414 151.57 103.414ZM157.286 108.102L156.934 103.094V99.43H158.358V103.094L158.006 108.102H157.286ZM156.87 110.87V109.286H158.422V110.87H156.87Z" fill="#010101"/>
</svg>
